<svg width="1440" height="342" viewBox="0 0 1440 342" fill="none" xmlns="http://www.w3.org/2000/svg">
<path d="M1208.94 283.821C1296.96 283.821 1380.78 231.352 1385.73 170.482C1389.88 117.421 1350.35 88.116 1336.43 79.5155C1368.79 81.0885 1401.66 96.631 1437.95 115.198C1438.63 115.54 1439.49 115.293 1439.84 114.623C1440.2 113.96 1439.94 113.136 1439.25 112.788C1400.62 93.0188 1365.81 76.6618 1331.08 76.6618C1330.43 76.6618 1329.87 77.092 1329.72 77.7061C1329.57 78.3235 1329.87 78.9507 1330.45 79.2331C1331.02 79.5221 1387.8 108.177 1382.95 170.275C1377.84 233.069 1286.33 286.678 1194.72 280.629C1109.52 274.994 1023.13 227.296 1026.05 157.215C1028.95 91.8037 1087.61 78.1232 1088.2 77.9918C1088.81 77.8572 1089.25 77.3416 1089.29 76.7341C1089.33 75.9854 1094.52 2.73546 1204.72 2.73546C1206.25 2.73546 1207.79 2.7486 1209.36 2.77487C1285.75 4.2953 1309.78 32.947 1317.3 49.8918C1321.29 58.8797 1321.93 67.2601 1320.91 73.6505C1317.26 61.4247 1309.88 49.7309 1299.21 39.5542C1276.57 17.9496 1242.35 6.69909 1205.32 8.60701C1162.27 10.9386 1128.7 26.8555 1113.21 52.2693C1103.99 67.4145 1102.73 84.3822 1109.78 98.8312C1118.45 116.932 1157.46 138.635 1199.54 140.825C1243.98 143.229 1275.27 127.729 1289.86 107.373C1304.38 98.8641 1314.75 90.0633 1318.75 85.7417C1319.28 85.1736 1319.78 84.5234 1320.24 83.8141C1320.65 86.9141 1320.81 90.0305 1320.7 93.1534C1319.74 124.557 1304.81 156.309 1280.78 178.077C1259.81 197.075 1233.5 206.93 1206.65 205.777C1175.45 206.641 1153.62 197.692 1137.42 182.819C1141.44 180.911 1143.9 179.02 1143.74 177.44C1143.37 174.689 1142.5 168.344 1137 165.228C1133.33 163.159 1128.23 162.87 1121.76 164.39C1116.59 156.699 1112.15 148.267 1108.21 139.357C1108.9 139.604 1109.6 139.86 1110.32 140.142C1111.04 140.412 1111.85 140.083 1112.14 139.394C1112.43 138.697 1112.08 137.906 1111.36 137.624C1109.79 137 1108.25 136.471 1106.76 136.021C1100.12 120.387 1094.85 103.438 1089.63 86.6514L1089.24 85.4068C1089.02 84.7237 1088.29 84.3559 1087.58 84.4742C1086.86 84.6482 1086.4 85.3312 1086.53 86.0406L1091.84 114.906C1085.65 115.517 1062.99 118.764 1050.97 133.896C1044.17 142.457 1042.04 153.317 1044.63 166.17C1050.36 195.177 1084.34 194.805 1104.09 191.988C1114.54 190.5 1126.5 187.368 1134.53 184.09C1151.22 199.846 1173.9 209.392 1206.64 208.493C1234.14 209.665 1261.17 199.564 1282.69 180.071C1307.26 157.813 1322.52 125.342 1323.51 93.2289C1323.66 88.6282 1323.27 84.0177 1322.37 79.4695C1325.09 71.8805 1325.08 60.5184 1319.87 48.8048C1312.06 31.2558 1287.36 1.59267 1209.4 0.0459741C1207.82 0.0197032 1206.24 0 1204.7 0C1098.89 0 1087.62 66.5377 1086.58 75.5815C1078.66 77.7324 1026.04 94.3389 1023.25 157.097C1020.27 228.839 1107.99 277.625 1194.52 283.345C1199.32 283.66 1204.14 283.821 1208.93 283.821H1208.94ZM1132.51 182.13C1120.33 186.737 1097.23 192.405 1077.54 189.853C1060.24 187.581 1050.09 179.437 1047.36 165.651C1044.93 153.593 1046.88 143.472 1053.16 135.561C1066.1 119.263 1093.28 117.503 1093.55 117.487C1093.95 117.461 1094.32 117.273 1094.57 116.971C1094.81 116.663 1094.92 116.269 1094.85 115.888L1093.32 107.589C1096.4 116.981 1099.66 126.245 1103.33 135.128C1090.87 132.327 1081.62 135.43 1075.73 138.927C1066.69 144.286 1060.49 153.603 1059.56 163.257C1059.13 167.645 1060.69 171.25 1064.06 173.674C1073.99 180.823 1096.98 176.629 1114.15 169.694C1116.38 168.81 1118.47 168.091 1120.43 167.536C1124.07 172.794 1128.07 177.683 1132.51 182.133L1132.51 182.13ZM1129.18 166.124C1131.74 166.124 1133.88 166.607 1135.59 167.579C1139.91 170.025 1140.62 175.237 1140.97 177.749C1140.58 178.445 1138.6 179.611 1135.45 180.957C1131.03 176.649 1127.05 171.901 1123.42 166.791C1125.53 166.347 1127.45 166.127 1129.18 166.127V166.124ZM1118.83 165.169C1117.01 165.704 1115.1 166.374 1113.09 167.172C1093.28 175.178 1073.36 176.977 1065.73 171.48C1063.11 169.605 1062.01 166.991 1062.34 163.51C1063.18 154.834 1069 146.093 1077.17 141.252C1082.89 137.857 1092.05 134.881 1104.65 138.264C1108.75 147.83 1113.38 156.913 1118.83 165.172L1118.83 165.169ZM1282.75 111.31C1267.04 127.976 1238.27 140.208 1199.68 138.096C1158.58 135.959 1120.64 115.073 1112.29 97.6622C1105.66 84.0374 1106.87 68.0023 1115.61 53.6518C1130.62 29.0294 1163.37 13.5952 1205.47 11.3162C1241.73 9.37215 1275.17 20.4256 1297.26 41.4884C1308.96 52.6601 1316.57 65.6904 1319.44 79.1806C1318.67 81.1837 1317.7 82.7895 1316.67 83.9093C1312.35 88.5921 1304.09 95.3963 1293.17 102.158C1295.83 97.3962 1297.62 92.4375 1298.51 87.4461C1301.86 68.5146 1291.73 44.3683 1253.27 33.3477C1240.15 29.5417 1203.02 27.5319 1193.67 40.9892C1189.72 46.6834 1191.16 54.1575 1197.94 63.2341C1169.15 65.6313 1151.25 75.299 1149.88 89.2981C1148.46 103.813 1165.98 118.324 1193.46 125.404C1226.8 133.883 1259.06 123.769 1282.75 111.303V111.31ZM1287.6 105.461C1263.27 119.313 1228.4 131.499 1194.17 122.777C1164.01 115.014 1151.59 100.496 1152.66 89.5641C1153.91 76.7768 1172.32 67.6608 1200.7 65.7627C1201.21 65.7299 1201.67 65.4146 1201.88 64.9516C1202.09 64.4885 1202.02 63.9533 1201.7 63.5592C1194.43 54.6107 1192.51 47.5307 1195.98 42.5195C1204.09 30.8453 1239.64 32.2377 1252.47 35.9616C1283.19 44.7558 1299.77 64.3047 1295.75 86.9863C1294.64 93.2683 1291.88 99.5537 1287.61 105.461H1287.6Z" fill="#4F2E12"/>
<path d="M936.332 264.328C948.206 264.328 954.015 269.431 955.388 274.435C956.498 278.488 954.715 282.428 951.152 283.801C948.646 284.753 945.881 284.31 942.66 283.808C937.008 282.911 930.582 281.913 922.989 287.866C920.989 289.439 919.229 290.888 917.63 292.214C911.249 297.472 907.069 300.917 899.91 301.839C902.767 302.046 906.649 301.403 911.466 298.838C916.031 296.506 919.403 294.116 922.385 292.004C927.866 288.119 932.233 285.151 939.743 285.446C945.973 285.781 948.997 287.696 950.462 289.525C971.124 275.585 998.528 259.648 1032.8 274.478C1034.94 275.388 1036.67 276.675 1037.9 278.222C1047.23 281.102 1056.48 285.174 1065.99 289.361C1101.71 305.097 1142.19 322.922 1204.82 281.979L1206.38 284.241C1142.47 326.028 1101.23 307.875 1064.84 291.837C1056.32 288.087 1048 284.422 1039.67 281.653C1039.82 282.182 1039.92 282.731 1039.98 283.289C1040.47 288.421 1036.8 293.866 1029.63 298.621C1020.25 304.979 1012.1 304.335 1001.76 303.485C996.262 303.041 990.046 302.539 982.44 302.936C969.811 303.606 963.476 308.295 960.415 311.986C972.595 304.933 980.877 306.184 995.74 308.443C998.912 308.926 1002.39 309.448 1006.29 309.957C1021.31 311.78 1029.22 305.153 1035.62 299.836C1039.32 296.762 1042.51 294.109 1046.36 293.433C1051.59 292.51 1056.69 295.919 1058.45 301.557C1061.13 310.164 1056.03 323.703 1032.8 333.548C995.195 349.363 958.816 340.389 948.423 322.068C944.81 315.891 944.482 309.005 947.454 302.522C942.738 307.172 933.619 313.041 918.835 316.321C887.806 323.293 840.022 314.377 793.808 305.757L780.617 303.304C599.226 269.221 500.907 285.092 396.799 301.869C295.068 318.269 189.876 335.243 -0.000366211 302.332L0.489014 299.652C189.899 332.475 294.842 315.549 396.346 299.183C500.701 282.356 599.266 266.466 781.139 300.624L794.334 303.084C840.262 311.658 887.747 320.502 918.214 313.668C936.827 309.527 945.838 301.383 948.229 297.222C948.656 296.424 949.208 295.104 949.171 293.712C948.554 294.142 947.94 294.556 947.336 294.973C941.254 299.133 936.003 302.723 931.307 304.946C912.796 313.661 899.03 315.917 891.52 311.451C887.675 309.172 885.56 305.169 885.409 299.869C884.795 285.909 902.288 268.492 929.304 264.85C931.849 264.489 934.19 264.321 936.335 264.321L936.332 264.328ZM947.746 281.63C948.633 281.63 949.434 281.529 950.134 281.269C952.35 280.412 953.427 277.834 952.688 275.142C951.365 270.311 944.551 265.441 929.698 267.553C904.173 270.994 887.635 287 888.197 299.78C888.325 304.194 889.927 307.337 892.965 309.139C899.542 313.024 912.721 310.686 930.082 302.509C934.575 300.385 939.743 296.848 945.723 292.756C946.525 292.208 947.339 291.65 948.163 291.088C946.732 289.4 943.792 288.395 939.589 288.175C933.074 287.873 929.452 290.366 924.027 294.211C920.973 296.382 917.508 298.841 912.783 301.245C899.306 308.433 891.934 301.889 891.628 301.613L888.771 298.992L892.686 299.262C903.834 300.053 907.578 296.937 915.824 290.139C917.443 288.806 919.216 287.344 921.236 285.758C929.793 279.026 937.484 280.238 943.106 281.128C944.814 281.397 946.377 281.637 947.746 281.637V281.63ZM1029.05 275.897C997.214 263.49 971.347 278.737 951.72 291.994C952.058 293.239 952.042 294.602 951.68 296.007C961.463 284.547 981.78 276.609 1007.77 274.376C1015.06 273.746 1022.11 274.403 1029.05 275.897ZM1036.15 280.55C1026.92 277.785 1017.64 276.261 1008.02 277.079C979.262 279.558 957.805 289.016 950.62 302.394C947.333 308.509 947.415 314.86 950.856 320.741C960.668 338.031 995.49 346.303 1031.68 331.056C1053.23 321.927 1058.13 309.888 1055.78 302.358C1054.43 298.05 1050.66 295.413 1046.85 296.116C1043.74 296.664 1040.81 299.097 1037.43 301.908C1030.61 307.576 1022.11 314.587 1005.93 312.66C1002 312.151 998.498 311.622 995.307 311.133C978.835 308.634 971.321 307.494 957.237 317.27L954.038 319.493L955.079 315.802C955.243 315.221 959.397 301.435 982.286 300.22C990.059 299.813 996.4 300.322 1001.98 300.775C1012.15 301.593 1019.48 302.187 1028.04 296.382C1034.34 292.201 1037.59 287.646 1037.19 283.548C1037.09 282.478 1036.73 281.466 1036.15 280.547V280.55Z" fill="#4F2E12"/>
</svg>
