<svg width="1440" height="303" viewBox="0 0 1440 303" fill="none" xmlns="http://www.w3.org/2000/svg">
<path d="M291.597 302.273C296.365 302.273 304.364 300.755 312.629 292.524C317.86 290.828 323.395 288.384 329.216 285.195L1439.99 286.496L1440 283.895L328.516 282.591L328.211 282.76C323.945 285.113 319.98 286.976 316.305 288.431C324.963 277.721 328.532 264.137 325.176 254.163C323.357 248.753 319.562 245.125 314.486 243.934C310.433 243.039 301.458 241.795 292.404 245.382C293.236 231.632 290.981 212.582 281.17 201.957C275.82 196.167 268.789 193.447 260.476 193.864C249.236 194.461 241.348 204.137 239.369 219.751C237.961 230.856 239.943 243.523 245.099 253.064C234.345 251.194 221.889 251.728 216.819 255.31C212.282 258.627 209.461 263.757 209.254 269.041C209.106 272.88 210.25 278.579 216.533 283.942C217.522 284.784 218.449 285.591 219.332 286.358C228.006 293.913 232.768 298.06 249.836 295.974C250.461 295.905 251.064 295.823 251.655 295.738C249.626 296.231 247.769 296.561 246.431 296.74C246.286 296.743 246.135 296.743 245.991 296.743C223.469 296.743 213.784 290.043 201.541 281.582C191.074 274.344 179.211 266.145 156.545 259.397C106.918 244.764 51.5613 259.981 51.0052 260.135L51.7435 262.639C52.2964 262.485 106.931 247.481 155.766 261.891C178.014 268.51 189.692 276.584 199.993 283.706C212.612 292.433 222.605 299.338 246.091 299.338C246.271 299.338 246.443 299.338 246.619 299.335C248.84 299.049 265.534 296.574 267.765 288.758C267.969 288.553 268.161 288.343 268.34 288.142C268.528 288.707 268.805 289.267 269.188 289.791C270.366 291.393 272.289 292.326 274.915 292.571C275.214 293.379 275.653 294.202 276.234 295.038C279.147 299.25 284.484 301.946 290.503 302.247C290.846 302.263 291.21 302.273 291.597 302.273ZM306.751 294.142C301.612 298 296.032 299.904 290.638 299.643C285.455 299.382 280.893 297.117 278.449 293.58C278.22 293.25 278.022 292.926 277.852 292.612C279.194 292.575 280.472 292.48 281.688 292.339C283.174 293.046 284.845 293.687 286.718 294.199C292.683 295.82 299.378 295.801 306.751 294.142ZM265.292 287.498C262.694 289.857 257.985 292.433 249.513 293.388C233.632 295.355 229.721 291.918 221.113 284.416C220.224 283.643 219.291 282.83 218.295 281.981C213.947 278.274 211.742 273.835 211.927 269.142C212.1 264.631 214.525 260.245 218.408 257.405C223.296 253.953 236.412 253.758 246.861 256.007C250.323 261.247 254.897 265.206 260.533 266.905L260.744 266.968L260.967 266.962C261.01 266.962 262.358 266.911 264.243 266.465C267.045 270.355 268.626 274.677 268.063 277.797C267.796 279.273 267.077 280.411 265.883 281.231C265.619 280.992 265.336 280.772 265.029 280.58C261.648 278.475 256.515 280.049 252.632 281.472C246.5 279.176 241.593 274.413 240.635 271.41C239.692 268.545 237.267 266.34 234.151 265.498C231.398 264.756 228.603 265.221 226.837 266.726C224.584 268.401 219.351 268.401 217.519 268.269L214.023 267.995L216.445 270.465C216.643 270.662 221.371 275.365 228.254 272.431C229.931 271.668 231.307 271.658 232.492 272.387C234.257 273.484 235.35 276.217 235.35 278.124C235.438 279.773 236.654 281.312 238.878 282.641C242.4 284.755 248.155 286.144 251.922 284.523L252.265 284.394C252.415 284.341 252.569 284.278 252.729 284.221C256.418 285.431 260.436 285.811 264.334 284.771C264.545 284.711 264.752 284.642 264.95 284.576C265.148 285.135 265.267 285.801 265.318 286.571C265.346 286.885 265.336 287.193 265.292 287.495V287.498ZM311.149 290.262C300.167 293.724 292.09 293.272 286.325 291.456C293.359 289.537 297.581 285.289 298.696 278.9C299.218 276.204 299.463 273.97 299.658 272.174C300.179 267.367 300.321 266.076 304.1 264.851C316.578 260.914 317.897 255.153 316.81 251.012L315.771 247.07C319.76 248.728 321.705 252.181 322.638 254.967C325.805 264.382 321.903 277.992 313.157 288.067C312.5 288.836 311.831 289.565 311.153 290.259L311.149 290.262ZM277.714 290.011C277.516 290.017 277.318 290.021 277.123 290.024C277.127 289.879 277.136 289.741 277.152 289.6C277.337 289.738 277.522 289.873 277.714 290.011ZM274.915 287.715C274.626 288.418 274.472 289.144 274.447 289.882C273.011 289.644 271.978 289.103 271.365 288.277C270.306 286.848 270.652 284.796 270.862 283.948C270.963 283.64 271.007 283.445 271.016 283.395L268.44 282.726C268.431 282.76 268.362 282.962 268.28 283.288C268.18 283.577 268.004 284.005 267.711 284.529C267.614 284.133 267.495 283.756 267.35 283.404C269.556 281.922 270.397 279.892 270.693 278.246C270.913 277.027 270.894 275.733 270.674 274.401L272.326 273.989C272.374 273.977 273.784 273.609 275.823 272.676C275.283 275.946 274.029 279.283 271.827 282.625L271.393 283.285L271.789 283.967C271.868 284.108 272.829 285.732 274.915 287.712V287.715ZM309.88 259.551C308.162 260.584 305.957 261.53 303.267 262.378C297.845 264.137 297.528 267.062 297 271.903C296.808 273.65 296.573 275.824 296.067 278.444C294.776 285.867 288.505 288.745 282.002 289.662C280.563 288.902 279.344 288.076 278.327 287.265C280.501 284.9 285.269 283.329 289.539 282.767C296.13 281.9 295.806 275.557 295.542 270.461C295.464 268.916 295.382 267.32 295.47 265.928C295.746 261.464 303.751 260.386 308.536 259.739L309.88 259.554V259.551ZM314.75 246.705L314.187 251.182C314.178 251.235 313.474 256.5 309.817 256.931L308.168 257.157C302.576 257.914 293.214 259.177 292.803 265.768C292.709 267.31 292.793 268.979 292.875 270.59C293.196 276.738 292.932 279.691 289.187 280.184C284.547 280.797 279.162 282.49 276.366 285.5C275.499 284.617 274.896 283.844 274.532 283.326C277.111 279.189 278.402 275.101 278.77 271.134C283.733 268.181 290.016 262.542 291.641 252.47C291.857 251.15 292.04 249.724 292.187 248.213C300.462 244.468 309.01 245.395 313.883 246.469C314.181 246.539 314.473 246.62 314.753 246.705H314.75ZM262.889 282.44C261.08 282.83 259.258 282.88 257.47 282.669C259.462 282.17 261.444 281.937 262.889 282.44ZM248.799 282.578C246.079 282.735 242.567 281.793 240.283 280.426C238.659 279.452 238.049 278.541 238.024 278.054C238.024 275.444 236.616 271.856 233.927 270.191C232.561 269.346 230.271 268.639 227.154 270.062C225.495 270.769 224.01 270.885 222.744 270.71C224.795 270.446 226.997 269.886 228.533 268.743C229.671 267.766 231.578 267.502 233.437 268.008C235.687 268.614 237.424 270.182 238.09 272.195C239.13 275.456 243.327 279.785 248.799 282.578ZM275.132 261.389C273.438 264.514 271.94 268.152 270.712 272.371L270.448 273.282C269.829 270.728 268.544 268.093 266.882 265.661C269.603 264.624 272.641 262.761 274.544 259.435C274.758 260.079 274.956 260.732 275.132 261.389ZM276.128 269.679C275.364 270.072 274.657 270.392 274.045 270.647C274.635 268.878 275.279 267.226 275.967 265.686C276.121 266.999 276.181 268.328 276.128 269.679ZM289.338 249.699C289.237 250.519 289.124 251.311 289.002 252.065C287.67 260.295 283.026 265.218 278.873 268.042C278.823 265.862 278.515 263.726 278.009 261.649C281.267 255.954 285.213 252.162 289.338 249.699ZM262.431 264.203C261.827 264.298 261.362 264.335 261.102 264.351C257.052 263.072 253.606 260.478 250.794 257.016C253.782 257.917 256.37 259.048 258.227 260.383C259.751 261.48 261.168 262.783 262.427 264.203H262.431ZM273.168 255.9C271.795 260.443 268.224 262.548 265.286 263.522C263.621 261.48 261.733 259.667 259.817 258.285C257.115 256.34 253.066 254.807 248.479 253.742C242.808 244.594 240.575 231.478 242.023 220.068C243.826 205.809 250.782 196.984 260.621 196.463C268.233 196.101 274.412 198.52 279.188 203.694C288.801 214.109 290.704 233.328 289.646 246.63C285.131 248.942 280.717 252.602 277.004 258.247C276.699 257.367 276.363 256.497 276.002 255.643C276.194 254.798 276.326 253.883 276.385 252.903C277.001 242.857 275.405 240.768 272.232 236.599C271.334 235.421 270.294 234.051 269.119 232.232C264.576 225.072 267.853 220.549 272.609 215.378C274.17 213.612 274.736 211.639 274.258 209.651C273.259 205.491 267.938 202.315 265.261 201.219L256.691 197.697L263.898 203.427C265.839 204.973 268.528 207.898 268.421 209.56C268.403 209.849 268.299 210.226 267.661 210.615C262.113 213.86 255.035 227.052 260.348 235.823C261.177 237.183 262.371 238.817 263.753 240.705C266.731 244.767 270.561 249.994 273.168 255.904V255.9ZM271.045 208.834C271.33 209.296 271.541 209.77 271.657 210.251C271.94 211.423 271.594 212.538 270.602 213.662C265.698 218.994 261.347 224.944 266.851 233.611C268.073 235.509 269.156 236.929 270.09 238.151C272.86 241.795 274.114 243.438 273.8 251.113C271.321 246.551 268.355 242.505 265.93 239.194C264.583 237.353 263.414 235.763 262.65 234.497C258.108 226.998 264.875 215.287 269.059 212.836C270.636 211.875 271.035 210.615 271.092 209.726C271.111 209.431 271.095 209.132 271.048 208.834H271.045Z" fill="#4F2E12"/>
<path d="M189.016 256.912C189.635 256.912 190.244 256.909 190.86 256.902C264.256 256.067 338.11 228.283 339.96 200.81C340.598 191.32 332.446 178.898 292.005 171.569C315.469 138.605 322.999 96.216 325.393 70.4492C325.195 63.8676 323.882 57.8862 321.435 52.4859C321.771 49.9224 321.617 47.2175 320.979 44.3838C313.025 9.30233 225.816 -3.85756 182.871 0.958416C120.597 8.24049 89.8724 26.4771 88.9362 56.7144C88.7697 62.1304 88.8985 67.1254 89.2504 71.7058C78.61 65.2122 59.4153 57.1573 42.5233 69.4753C34.9113 74.9792 31.2231 83.1504 31.8577 93.0996C33.0829 112.345 50.4493 135.909 72.2453 147.916C87.6199 156.458 99.5484 161.346 107.914 162.546C115.118 178.044 124.835 192.51 137.784 201.074L55.2055 200.637C57.4455 193.597 66.3329 187.063 81.3935 181.484C82.0846 181.226 82.4332 180.475 82.1693 179.806C81.9023 179.134 81.1264 178.801 80.4478 179.049C63.8134 185.209 54.4108 192.447 52.3751 200.622L1.34079 200.355H1.3345C0.602539 200.355 0.00250244 200.933 -0.000640869 201.649C-0.00692749 202.365 0.586823 202.953 1.32822 202.956L51.9793 203.226C51.9071 204.448 51.9918 205.689 52.24 206.955C57.4109 233.708 132.472 256.912 189.019 256.912H189.016ZM290.296 173.916C321.488 179.426 338.088 188.803 337.293 200.637C335.716 224.061 267.821 253.422 190.829 254.301C190.185 254.304 189.531 254.307 188.884 254.307C129.016 254.311 59.3274 229.565 54.8601 206.474C54.6496 205.387 54.593 204.31 54.6809 203.242L142.556 203.704H142.562C143.172 203.704 143.703 203.305 143.853 202.73C144.007 202.152 143.737 201.549 143.203 201.263C129.27 193.814 118.837 179.03 111.147 162.835C114.417 162.883 116.905 162.301 118.756 160.979C120.719 159.581 122.793 156.709 121.539 150.979C119.315 140.823 110.267 135.686 99.6615 131.916C93.947 112.206 91.8297 96.2097 91.7857 95.8453C91.7606 95.6317 91.6757 95.4275 91.5531 95.2516C86.5832 88.4124 68.3184 81.0581 56.4402 82.9242C51.1781 83.7504 47.7193 86.3359 46.4344 90.4136C42.9221 101.293 51.6055 114.688 68.0482 123.736C73.4862 126.692 80.2405 128.687 87.3906 130.795C90.7206 131.778 94.0758 132.768 97.299 133.864C99.7211 142.117 102.772 150.973 106.582 159.603C99.9567 158.321 89.618 154.573 73.5616 145.651C52.4787 134.04 35.6998 111.377 34.5217 92.9362C33.9406 83.7818 37.1638 76.5877 44.116 71.5612C60.7064 59.4726 79.9294 68.7182 89.5394 74.9698C92.0652 99.5178 100.774 111.255 101.223 111.842C101.59 112.329 102.244 112.508 102.822 112.266C103.39 112.03 103.717 111.443 103.614 110.846L97.8865 78.2967C97.8331 78.0108 97.6854 77.7501 97.4655 77.5522C97.3901 77.4862 95.4173 75.7678 92.1061 73.5373C91.6255 68.492 91.415 62.9126 91.6035 56.7898C92.4957 28.0604 122.45 10.6469 183.179 3.5439C226.303 -1.2815 311.014 12.5318 318.366 44.943C318.57 45.8447 318.717 46.7274 318.809 47.5945C309.293 32.4146 289.435 22.5188 258.815 17.5206C222.602 11.4354 210.781 19.883 207.237 28.029C205.946 30.9978 205.698 34.1676 206.024 37.0515C197.847 30.6176 182.994 22.9209 163.786 22.3397C142.625 21.5952 114.204 34.2587 110.984 49.7496C109.501 56.8809 112.865 67.3233 137.306 76.5657C163.19 86.5024 200.162 91.3655 211.224 91.7173C224.654 92.0001 241.656 90.2628 256.028 81.9597C281.035 80.5775 303.142 75.6138 314.04 65.7651C317.043 63.0508 319.157 60.0475 320.376 56.7803C321.799 60.9523 322.578 65.4761 322.726 70.3612C320.339 95.971 312.78 138.457 289.112 171.054C286.63 170.633 284.029 170.234 281.311 169.854C280.856 169.8 280.416 169.954 280.117 170.284C279.734 170.711 240.861 213.015 182.815 213.741C182.117 213.747 181.542 214.278 181.495 214.96C181.451 215.638 181.948 216.235 182.639 216.333C216.316 221.026 245.111 214.353 268.271 196.497C276.803 189.922 284.079 182.247 290.293 173.912L290.296 173.916ZM287.365 173.416C281.459 181.169 274.595 188.313 266.618 194.458C247.741 209.013 224.977 215.993 198.777 215.126C245.762 208.469 277.343 177.016 281.629 172.54C283.592 172.819 285.502 173.114 287.365 173.416ZM100.588 135.049C109.652 138.498 117.094 143.163 118.929 151.52C119.453 153.929 119.579 157.162 117.179 158.874C116.139 159.615 114.034 160.442 109.871 160.074C106.111 151.749 103.051 143.147 100.588 135.045V135.049ZM89.1781 96.5019C89.5331 99.1753 91.5406 113.363 96.4257 130.817C93.7083 129.937 90.9249 129.114 88.1604 128.297C81.1516 126.23 74.5323 124.279 69.352 121.458C54.0432 113.033 45.8533 100.862 48.9823 91.1801C49.9625 88.07 52.6107 86.1568 56.8581 85.494C67.2408 83.8855 84.469 90.5016 89.1751 96.4988L89.1781 96.5019ZM95.3325 79.1952L99.6049 103.482C97.1073 98.0192 94.0162 89.2355 92.4863 76.9961C93.8717 78.0014 94.8486 78.7931 95.3293 79.1952H95.3325ZM249.795 82.2362C237.069 88.092 222.835 89.402 211.302 89.1224C200.392 88.7737 163.865 83.9703 138.283 74.1467C120.304 67.3485 111.772 59.0925 113.607 50.2742C116.535 36.1907 144.039 24.4351 163.708 24.9503C184.561 25.5849 200.275 35.2797 206.945 41.28C207.46 42.8665 208.12 44.2236 208.783 45.2258C203.323 41.8926 196.59 38.8893 189.465 37.0861C168.232 31.9591 141.287 39.3637 137.963 51.2135C136.628 55.9761 138.274 65.096 164.314 72.7048C186.826 79.3051 219.875 83.1849 249.792 82.2425L249.795 82.2362ZM254.982 79.5345C224.101 81.1021 188.746 77.1343 165.087 70.2041C147.655 65.1117 138.708 58.4391 140.542 51.8921C143.225 42.3167 167.572 34.4974 188.809 39.6024C198.912 42.1596 207.875 47.1201 213.388 51.6345C212.854 54.5844 213.734 58.2474 218.43 62.0393C218.864 62.3911 219.483 62.4351 219.97 62.1524C221.355 61.345 221.98 60.013 221.745 58.3982C221.43 56.2683 219.489 53.576 216.395 50.7957C216.498 50.513 216.627 50.2302 216.775 49.9475C221.54 40.8402 244.417 33.9005 258.262 37.3782C266.621 39.5145 272.531 43.9597 274.466 49.5737C276.247 54.7446 274.554 60.7449 269.568 66.9338C265.346 72.2681 260.363 76.3867 254.979 79.5407L254.982 79.5345ZM318.692 52.6461C318.017 56.8275 315.855 60.5816 312.227 63.8645C302.344 72.7959 282.844 77.5584 260.36 79.2046C264.479 76.3081 268.305 72.7896 271.682 68.5265C278.71 59.8088 278.456 52.9508 277.001 48.738C274.777 42.279 268.189 37.218 258.937 34.8524C243.867 31.0637 219.718 38.6066 214.4 48.76C214.356 48.8448 214.318 48.9234 214.274 49.0113C213.479 48.383 212.634 47.761 211.739 47.139C212.047 47.0793 212.314 46.941 212.521 46.7683C212.885 46.4478 213.394 45.7598 212.933 44.5221C212.524 43.4351 211.264 41.7701 209.241 39.8318C208.431 36.9698 208.098 33.2125 209.474 29.6029C213.58 18.8683 230.94 15.488 258.372 20.0935C291.107 25.4372 310.773 35.9457 318.692 52.6461ZM216.014 54.0095C217.824 55.8442 218.914 57.5092 219.099 58.7658C219.121 58.9134 219.128 59.0391 219.118 59.1491C217.318 57.4683 216.281 55.7499 216.014 54.0095Z" fill="#4F2E12"/>
</svg>
