<svg width="26" height="20" viewBox="0 0 26 20" fill="none" xmlns="http://www.w3.org/2000/svg">
<g clip-path="url(#clip0_2471_15)">
<path d="M25.2891 10.8309H19.3281C19.43 6.05819 20.6622 5.51642 22.2098 5.36178L22.8066 5.28051L22.8066 0.0324192L22.1187 0.0729179C20.0978 0.197826 17.8636 0.598055 16.373 2.61965C15.0663 4.39183 14.4902 7.2871 14.4902 11.7316L14.4902 19.9673H25.2891V10.8309Z" fill="#F8992F"/>
<path d="M11.5117 19.9673L11.5117 10.8309H5.63033C5.73223 6.05819 6.92457 5.51642 8.47216 5.36178L9.02923 5.28051V0.0324192L8.38105 0.0729179C6.36018 0.197826 4.10595 0.598055 2.61534 2.61965C1.30881 4.39183 0.712885 7.2871 0.712885 11.7316L0.712885 19.9673H11.5117Z" fill="#F8992F"/>
</g>
<defs>
<clipPath id="clip0_2471_15">
<rect width="24.5767" height="19.9349" fill="white" transform="matrix(-1 0 0 -1 25.2891 19.9673)"/>
</clipPath>
</defs>
</svg>
