<svg width="350" height="208" viewBox="0 0 350 208" fill="none" xmlns="http://www.w3.org/2000/svg">
<mask id="path-1-inside-1_334_72" fill="white">
<path fill-rule="evenodd" clip-rule="evenodd" d="M16 0C7.16344 0 0 7.16344 0 16V184C0 192.837 7.16343 200 16 200H169.533C169.532 200.334 169.617 200.677 169.804 201L173.268 207C174.038 208.333 175.962 208.333 176.732 207L180.196 201C180.383 200.677 180.468 200.334 180.467 200H334C342.837 200 350 192.837 350 184V16C350 7.16344 342.837 0 334 0H16Z"/>
</mask>
<path fill-rule="evenodd" clip-rule="evenodd" d="M16 0C7.16344 0 0 7.16344 0 16V184C0 192.837 7.16343 200 16 200H169.533C169.532 200.334 169.617 200.677 169.804 201L173.268 207C174.038 208.333 175.962 208.333 176.732 207L180.196 201C180.383 200.677 180.468 200.334 180.467 200H334C342.837 200 350 192.837 350 184V16C350 7.16344 342.837 0 334 0H16Z" fill="url(#paint0_linear_334_72)"/>
<path d="M169.533 200L170.533 200.002L170.534 199H169.533V200ZM169.804 201L170.67 200.5L170.67 200.5L169.804 201ZM173.268 207L172.402 207.5L172.402 207.5L173.268 207ZM176.732 207L177.598 207.5L177.598 207.5L176.732 207ZM180.196 201L179.33 200.5L179.33 200.5L180.196 201ZM180.467 200V199H179.466L179.467 200.002L180.467 200ZM1 16C1 7.71573 7.71573 1 16 1V-1C6.61116 -1 -1 6.61116 -1 16H1ZM1 184V16H-1V184H1ZM16 199C7.71572 199 1 192.284 1 184H-1C-1 193.389 6.61115 201 16 201V199ZM169.533 199H16V201H169.533V199ZM170.67 200.5C170.573 200.332 170.533 200.162 170.533 200.002L168.533 199.998C168.532 200.506 168.662 201.022 168.938 201.5L170.67 200.5ZM174.134 206.5L170.67 200.5L168.938 201.5L172.402 207.5L174.134 206.5ZM175.866 206.5C175.481 207.167 174.519 207.167 174.134 206.5L172.402 207.5C173.557 209.5 176.443 209.5 177.598 207.5L175.866 206.5ZM179.33 200.5L175.866 206.5L177.598 207.5L181.062 201.5L179.33 200.5ZM179.467 200.002C179.467 200.162 179.427 200.332 179.33 200.5L181.062 201.5C181.338 201.022 181.468 200.506 181.467 199.998L179.467 200.002ZM334 199H180.467V201H334V199ZM349 184C349 192.284 342.284 199 334 199V201C343.389 201 351 193.389 351 184H349ZM349 16V184H351V16H349ZM334 1C342.284 1 349 7.71573 349 16H351C351 6.61116 343.389 -1 334 -1V1ZM16 1H334V-1H16V1Z" fill="#462A12" mask="url(#path-1-inside-1_334_72)"/>
<defs>
<linearGradient id="paint0_linear_334_72" x1="341.5" y1="4.50001" x2="10.5" y2="190.5" gradientUnits="userSpaceOnUse">
<stop stop-color="#462A12"/>
<stop offset="1" stop-color="#462A12" stop-opacity="0"/>
</linearGradient>
</defs>
</svg>
