<svg width="25" height="24" viewBox="0 0 25 24" fill="none" xmlns="http://www.w3.org/2000/svg">
<path fill-rule="evenodd" clip-rule="evenodd" d="M7.31876 2.28746C7.03837 1.78443 6.58707 1.40369 6.02039 1.28657C5.44779 1.16822 4.87224 1.34279 4.3992 1.72833C2.68284 3.12724 1.59001 5.36852 2.0643 7.71974C2.35584 9.165 2.84156 10.591 3.83068 12.3157C5.81575 15.777 8.92283 18.8858 12.3882 20.8732C14.1129 21.8623 15.5389 22.348 16.9841 22.6396C19.3354 23.1139 21.5766 22.021 22.9755 20.3047C23.3611 19.8316 23.5357 19.2561 23.4173 18.6835C23.3002 18.1168 22.9195 17.6655 22.4164 17.3851L20.814 16.4919C20.2238 16.1629 19.7271 15.886 19.2953 15.7052C18.8373 15.5134 18.3856 15.3995 17.8863 15.4516C17.3869 15.5036 16.9685 15.7083 16.5599 15.9905C16.1747 16.2565 15.7458 16.6299 15.2362 17.0736L12.6772 19.3014C9.77823 17.5328 7.16929 14.9227 5.40245 12.0267L7.63031 9.46767C8.07401 8.95804 8.4474 8.52917 8.71341 8.14399C8.99559 7.7354 9.20024 7.31696 9.25231 6.8176C9.30439 6.31824 9.19047 5.86658 8.99867 5.40857C8.81786 4.9768 8.54098 4.48011 8.21198 3.88991L7.31876 2.28746ZM17.2808 21.1692C16.2552 20.9623 15.2407 20.6486 14.0743 20.0739L16.1901 18.2319C16.739 17.7541 17.1046 17.4372 17.4123 17.2247C17.7043 17.0231 17.883 16.96 18.0419 16.9435C18.2007 16.9269 18.3885 16.9517 18.7159 17.0888C19.0608 17.2332 19.484 17.4678 20.1196 17.8221L21.6861 18.6953C21.8769 18.8017 21.9342 18.9187 21.9484 18.9871C21.9613 19.0496 21.9604 19.176 21.8128 19.357C20.6891 20.7358 18.9768 21.5113 17.2808 21.1692ZM6.47196 8.51377L4.62998 10.6296C4.05525 9.46319 3.74157 8.44871 3.53468 7.42313C3.19255 5.72708 3.96809 4.01482 5.34687 2.89106C5.5279 2.74351 5.65428 2.7426 5.71678 2.75552C5.78519 2.76966 5.90218 2.82693 6.00856 3.01778L6.88174 4.58429C7.23605 5.21993 7.47067 5.6431 7.61509 5.98797C7.75218 6.31533 7.77697 6.50319 7.76041 6.66202C7.74384 6.82086 7.68083 6.99956 7.47914 7.29159C7.26668 7.59925 6.94979 7.9649 6.47196 8.51377Z" fill="white"/>
<path d="M15.4536 3.00024C15.4536 2.58603 15.1178 2.25024 14.7036 2.25024C14.2894 2.25024 13.9536 2.58603 13.9536 3.00024L13.9536 5.80024C13.9536 6.21446 14.2894 6.55024 14.7036 6.55024C15.1178 6.55024 15.4536 6.21446 15.4536 5.80024L15.4536 3.00024Z" fill="white"/>
<path d="M20.1841 5.58136C20.477 5.28846 20.477 4.81359 20.1841 4.5207C19.8912 4.2278 19.4164 4.2278 19.1235 4.5207L17.1436 6.50059C16.8507 6.79349 16.8507 7.26836 17.1436 7.56126C17.4365 7.85415 17.9113 7.85415 18.2042 7.56126L20.1841 5.58136Z" fill="white"/>
<path d="M18.9036 9.25025C18.4894 9.25025 18.1536 9.58603 18.1536 10.0002C18.1536 10.4145 18.4894 10.7502 18.9036 10.7502L21.7036 10.7502C22.1178 10.7502 22.4536 10.4145 22.4536 10.0002C22.4536 9.58603 22.1178 9.25025 21.7036 9.25025L18.9036 9.25025Z" fill="white"/>
</svg>
