<svg width="24" height="24" viewBox="0 0 24 24" fill="none" xmlns="http://www.w3.org/2000/svg">
<path d="M9.56098 10.8839C10.541 11.4609 11.27 11.7499 11.999 11.7499C12.729 11.7499 13.458 11.4619 14.439 10.8839L17.381 9.14389C17.738 8.93389 17.856 8.47393 17.645 8.11693C17.435 7.75993 16.975 7.64187 16.618 7.85287L13.677 9.59193C12.203 10.4589 11.795 10.4589 10.323 9.59193L7.38099 7.8519C7.02499 7.64089 6.56494 7.75986 6.35394 8.11586C6.14294 8.47186 6.26201 8.93191 6.61801 9.14291L9.56098 10.8839Z" fill="white"/>
<path fill-rule="evenodd" clip-rule="evenodd" d="M9.07972 21.2079C10.0617 21.2329 11.0307 21.246 11.9997 21.246C12.9687 21.246 13.9378 21.2329 14.9198 21.2079L14.9211 21.2079C18.1583 21.1259 19.9419 21.0807 21.2867 19.7369C22.6287 18.3839 22.6657 16.6479 22.7327 13.4949C22.7537 12.4879 22.7537 11.5099 22.7327 10.5029C22.6657 7.34993 22.6287 5.61291 21.2837 4.25791C19.9407 2.91691 18.1568 2.87096 14.9188 2.78896C12.9538 2.73896 11.0437 2.73896 9.07874 2.78896L9.07739 2.789C5.84024 2.87098 4.05656 2.91615 2.71175 4.25996C1.36975 5.61296 1.33275 7.34895 1.26575 10.502C1.24475 11.509 1.24475 12.4869 1.26575 13.4939C1.33275 16.6469 1.36977 18.384 2.71477 19.739C4.05777 21.08 5.84171 21.1259 9.07972 21.2079ZM3.77679 18.6789C2.85579 17.7519 2.82677 16.4069 2.76477 13.4619C2.74377 12.4759 2.74377 11.5179 2.76477 10.5329C2.82677 7.58791 2.85576 6.24397 3.77376 5.31797C4.69268 4.39904 6.0785 4.36392 9.11598 4.28693C11.056 4.23693 12.9418 4.23691 14.8808 4.28691C17.9188 4.36391 19.3048 4.39992 20.2218 5.31592C21.1428 6.24292 21.1717 7.58791 21.2337 10.5329C21.2547 11.5189 21.2547 12.4769 21.2337 13.4619C21.1717 16.4069 21.1427 17.751 20.2247 18.677C19.3059 19.5958 17.9203 19.6309 14.8835 19.7079L14.8818 19.7079C12.9418 19.7579 11.0568 19.7579 9.1178 19.7079C6.0798 19.6309 4.69379 19.5949 3.77679 18.6789Z" fill="white"/>
</svg>
