<svg width="1440" height="427" viewBox="0 0 1440 427" fill="none" xmlns="http://www.w3.org/2000/svg">
<path d="M-2 425C36.6291 327.325 318.809 324.209 164.472 283.532C110.15 269.215 100.833 245.804 157.615 249.924C200.544 253.039 208.808 242.363 213.731 231.291C220.631 215.77 199.93 211.459 198.205 207.148C196.48 202.837 201.654 179.557 178.366 174.382C155.078 169.21 148.178 198.525 147.315 194.214C146.453 189.903 141.278 171.796 128.34 176.97C115.402 182.143 114.539 209.735 113.677 205.424C112.814 201.112 109.365 176.106 92.1143 183.005C74.8636 189.903 67.1006 218.357 93.8389 226.117C196.375 255.878 377.777 190.795 179.357 149.677C45.8501 122.011 370.56 60.986 371.841 60.5749C398.427 52.0384 553.905 2 545.676 2C536.68 2 358.107 54.162 358.107 54.162C358.107 54.162 304.129 26.2828 310.876 26.2828C317.624 26.2828 552.874 2 552.874 2L416.581 101.826L358.86 59.3976C358.86 59.3976 356.307 102.725 360.804 101.375C365.303 100.026 401.491 91.7141 401.491 95.3116C401.491 96.6037 399.03 97.9812 396.229 99.3623C367.206 113.672 397.086 116.124 433.053 111.836C447.82 110.076 510.28 105.631 531.195 104.145C551.287 102.717 515.099 88.7257 537.649 73.4934C554.292 62.2519 571.835 83.8361 571.835 83.8361C571.835 83.8361 566.436 51.9107 588.028 51.9107C609.619 51.9107 613.216 70.7964 614.566 69.4469C615.916 68.0975 622.663 46.9634 642.005 59.5544C661.346 72.1437 641.331 100.698 636.158 95.5279C630.985 90.3566 660.897 85.634 663.596 94.6272C672.179 123.229 556.77 113.363 599.441 110.405C628.786 108.37 1443 59.3976 1443 59.3976" stroke="#4F2E12" stroke-width="3" stroke-miterlimit="10" stroke-linecap="round" stroke-linejoin="round"/>
</svg>
