<svg width="25" height="25" viewBox="0 0 25 25" fill="none" xmlns="http://www.w3.org/2000/svg">
<path d="M15.1593 7.54101C15.1592 8.70963 15.1592 9.29397 15.5223 9.65707C15.8854 10.0202 16.4698 10.0202 17.6384 10.0201L20.1183 10.0202C20.6947 10.0202 20.983 10.0202 21.2195 10.0836C22.4089 10.4023 22.5978 11.4554 22.5978 12.4997C22.5978 13.5441 22.4088 14.5972 21.2195 14.9159C20.983 14.9793 20.6948 14.9793 20.1184 14.9793L17.6387 14.9793C16.47 14.9793 15.8854 14.9793 15.5223 15.3424C15.1592 15.7055 15.1592 16.2898 15.1593 17.4585L15.1592 19.9384C15.1592 20.5148 15.1593 20.8031 15.0959 21.0395C14.7771 22.2289 13.7241 22.4179 12.6797 22.4178C11.6353 22.418 10.5822 22.2289 10.2635 21.0395C10.2001 20.8032 10.2 20.5149 10.2002 19.9383L10.2001 17.4588C10.2001 16.2905 10.2001 15.7055 9.83702 15.3424C9.47399 14.9794 8.889 14.9793 7.72065 14.9794L5.24113 14.9792C4.66453 14.9794 4.3763 14.9793 4.13989 14.9159C2.95055 14.5973 2.76145 13.5441 2.76159 12.4997C2.76149 11.4553 2.95053 10.4023 4.13991 10.0835C4.37638 10.0202 4.6646 10.0202 5.24106 10.0202L7.72096 10.0202C8.88957 10.0202 9.47392 10.0202 9.83702 9.6571C10.2001 9.294 10.2001 8.70937 10.2001 7.54068L10.2001 5.06102C10.2002 4.48462 10.2002 4.19641 10.2635 3.95993C10.5822 2.77056 11.6353 2.5816 12.6797 2.58159C13.7241 2.5816 14.7772 2.77055 15.0959 3.95993C15.1592 4.19641 15.1592 4.48471 15.1592 5.06112L15.1593 7.54101Z" stroke="white" stroke-width="1.5" stroke-linecap="round" stroke-linejoin="round"/>
</svg>
