<svg width="25" height="25" viewBox="0 0 25 25" fill="none" xmlns="http://www.w3.org/2000/svg">
<path d="M3.67969 12.5C3.67969 11.9188 3.67969 11.6282 3.73719 11.3897C3.89323 10.7427 4.34809 10.2373 4.93043 10.0639C5.14503 10 5.40658 10 5.92969 10H19.4297C19.9528 10 20.2144 10 20.429 10.0639C21.0113 10.2373 21.4662 10.7427 21.6222 11.3897C21.6797 11.6282 21.6797 11.9188 21.6797 12.5C21.6797 13.0812 21.6797 13.3718 21.6222 13.6103C21.4662 14.2573 21.0113 14.7627 20.429 14.9361C20.2144 15 19.9528 15 19.4297 15H5.92969C5.40658 15 5.14503 15 4.93043 14.9361C4.34809 14.7627 3.89323 14.2573 3.73719 13.6103C3.67969 13.3718 3.67969 13.0812 3.67969 12.5Z" stroke="white" stroke-width="1.5"/>
</svg>
