<svg width="1076" height="498" viewBox="0 0 1076 498" fill="none" xmlns="http://www.w3.org/2000/svg">
<path d="M1075.32 467.388C1067.9 466.761 1060.48 466.148 1053.06 465.504C1045.57 464.854 1038.08 464.192 1030.59 463.503C1022.68 462.775 1014.73 462.283 1006.96 460.504C1005.14 460.09 1003.34 459.637 1001.62 458.885C997.825 457.216 996.871 455.025 998.298 451.171C999.319 448.415 1000.69 445.819 1002.05 443.22C1003.9 439.669 1005.84 436.167 1007.67 432.602C1010.19 427.671 1012.05 422.511 1012.74 416.975C1013.04 414.541 1013.02 412.129 1012.56 409.716C1011.55 404.396 1008.45 401.192 1003.14 400.16C1001.11 399.765 999.039 399.538 996.836 399.683C996.991 400.311 997.506 400.324 997.919 400.464C1000.23 401.252 1002.45 402.227 1004.45 403.667C1008.45 406.557 1010.31 410.533 1009.84 415.368C1008.95 424.647 1005.32 432.58 997.774 438.447C995.232 440.424 992.519 442.143 989.621 443.939C990.295 444.504 991.003 444.518 991.632 444.724C992.311 444.947 992.994 445.183 993.628 445.505C996.216 446.819 996.948 448.874 995.472 451.36C993.307 455.005 990.253 457.787 986.451 459.692C984.945 460.447 983.284 460.627 981.624 460.434C974.501 459.603 967.46 460.453 960.444 461.509C951.382 462.873 942.374 464.58 933.449 466.651C928.016 467.912 922.691 469.634 917.279 470.995C904.835 474.124 892.199 476.206 879.467 477.762C873.362 478.508 867.179 478.71 861.181 480.248C860.494 480.425 859.802 480.584 859.14 480.745C859.123 480.964 859.06 481.122 859.111 481.219C860.953 484.75 860.795 486.815 858.207 489.832C854.637 493.992 849.965 496.192 844.609 496.903C840.591 497.437 836.604 497.065 832.722 495.812C831.627 495.459 830.566 495.028 829.62 494.366C827.32 492.759 827.131 490.576 829.129 488.579C830.101 487.608 831.28 486.921 832.499 486.308C836.289 484.403 840.302 483.096 844.367 481.933C845.928 481.487 847.491 481.044 849.103 480.585C848.759 479.961 848.29 480.194 847.929 480.197C818.415 480.496 788.903 480.349 759.393 479.824C739.982 479.48 720.573 479.163 701.158 479.284C699.758 479.293 698.598 479.398 697.589 480.659C696.473 482.052 694.718 482.157 693.025 481.884C691.53 481.644 690.067 481.195 688.829 480.319C687.701 479.52 686.515 479.356 685.19 479.382C671.583 479.644 657.974 479.845 644.367 480.124C627.752 480.464 611.136 480.798 594.524 481.25C573.187 481.83 551.852 482.506 530.517 483.177C515.84 483.639 501.164 484.12 486.491 484.673C461.796 485.603 437.096 486.393 412.391 486.971C399.143 487.281 385.892 487.482 372.641 487.666C338.905 488.133 305.167 488.498 271.431 489.02C216.781 489.866 162.132 490.829 107.471 490.508C79.8923 490.347 52.3139 490.108 24.7398 489.544C16.7182 489.38 8.69971 489.084 0.679688 488.849C0.679688 488.133 0.679688 487.418 0.679688 486.703C1.37326 486.407 2.0967 486.568 2.80446 486.587C65.7628 488.325 128.733 488.454 191.706 487.827C221.65 487.529 251.591 486.979 281.533 486.566C303.525 486.262 325.517 486.041 347.508 485.701C372.078 485.322 396.648 484.975 421.213 484.383C443.627 483.843 466.035 483.012 488.445 482.274C504.84 481.734 521.234 481.14 537.628 480.564C563.545 479.653 589.469 479.011 615.394 478.4C637.381 477.882 659.368 477.346 681.36 477.103C682.277 477.093 683.214 477.218 684.135 476.906C684.406 476.286 683.873 476 683.604 475.641C682.397 474.033 681.258 472.391 680.661 470.442C679.785 467.582 680.612 465.215 683.067 463.507C684.077 462.804 685.213 462.373 686.352 461.939C686.872 461.741 687.51 461.788 687.889 461.218C687.76 460.438 687.163 459.861 686.9 459.137C686.521 458.093 685.748 457.601 684.74 457.253C681.621 456.177 678.609 454.846 675.739 453.216C672.609 451.438 669.718 449.353 667.299 446.655C663.658 442.596 662.121 437.817 662.462 432.432C663.173 421.188 667.191 411.306 674.826 402.954C675.851 401.832 676.68 400.657 677.206 399.198C678.103 396.709 679.875 394.818 681.895 393.168C683.901 391.529 686.076 390.15 688.506 389.22C690.019 388.642 691.037 388.784 691.401 389.609C691.898 390.736 691.248 391.545 690.47 392.225C689.447 393.118 688.388 393.975 687.308 394.8C684.747 396.759 682.302 398.85 679.906 401.007C678.736 402.06 678.496 403.236 678.733 404.664C679.238 407.7 680.851 410.057 683.076 412.021C683.916 411.807 683.852 411.107 684.025 410.626C684.726 408.671 685.479 406.745 686.452 404.905C688.4 401.222 691.487 399.369 695.615 399.139C700.298 398.879 704.917 399.475 709.51 400.24C722.856 402.465 736.183 404.803 749.532 407.007C761.261 408.944 773.05 410.449 784.874 411.689C797.281 412.989 809.714 413.848 822.191 413.593C837.183 413.287 852.08 411.982 866.728 408.582C871.477 407.48 876.142 406.098 880.532 403.924C882.466 402.966 884.31 401.869 885.786 400.258C887.979 397.862 887.939 395.79 885.641 393.512C883.767 391.653 881.465 390.52 878.977 389.74C875.392 388.615 871.68 388.318 867.958 388.094C867.086 388.042 866.45 388.129 866.445 389.293C866.438 390.735 865.411 391.593 864.299 392.305C862.717 393.317 860.962 393.937 859.172 394.467C853.524 396.138 847.738 397.131 841.908 397.841C813.554 401.294 785.093 402.511 756.55 401.649C745.379 401.312 734.229 400.561 723.243 398.304C720.783 397.799 718.349 397.183 716.094 396.052C714.471 395.239 712.838 394.301 712.804 392.189C712.768 390.007 714.364 388.918 716.044 388.028C718.683 386.631 721.574 386.131 724.508 385.806C730.168 385.18 735.816 385.625 741.461 386.011C754.541 386.907 767.522 388.785 780.571 389.982C793.492 391.168 806.441 391.848 819.418 391.292C835.776 390.591 851.937 388.468 867.768 384.164C871.851 383.054 875.839 381.647 879.648 379.81C892.649 373.538 905.03 366.245 916.246 357.111C925.118 349.886 931.956 341.099 936.229 330.422C940.144 320.639 941.293 310.604 938.383 300.385C934.558 286.955 926.05 277.522 913.177 272.078C905.455 268.813 897.322 267.213 889.001 266.505C887.009 266.336 885.016 266.046 883 266.351C882.139 266.481 881.773 266.781 881.812 267.713C881.927 270.428 882 273.146 881.992 275.863C881.988 276.889 882.43 277.395 883.286 277.828C886.761 279.59 890.433 280.742 894.236 281.531C897.53 282.215 900.818 282.929 904.099 283.668C905.144 283.903 906.175 284.22 907.191 284.564C917.658 288.109 923.375 297.271 922.066 308.258C921.596 312.202 920.602 315.989 918.939 319.58C914.383 329.42 907.839 337.736 899.391 344.533C896.757 346.652 893.867 348.372 890.482 349.086C885.846 350.065 882.392 348.08 881.034 343.561C880.264 340.997 880.171 338.36 880.362 335.697C880.799 329.629 881.762 323.625 882.53 317.597C882.728 316.04 882.889 314.478 883.086 312.748C882.468 313.431 882.407 314.135 882.274 314.818C880.865 322.045 879.461 329.271 878.037 336.495C876.601 343.784 874.16 350.684 870.138 356.99C868.253 359.946 866.549 363.018 865.109 366.216C861.849 373.454 856.197 377.754 848.656 379.812C844.283 381.005 839.809 381.619 835.308 381.908C815.501 383.18 795.675 384.011 775.822 383.626C765.865 383.434 755.922 382.86 746.151 380.693C743.068 380.009 740.069 379.073 737.213 377.699C732.648 375.504 729.296 372.127 727.124 367.557C724.953 362.992 723.782 358.126 722.89 353.198C720.497 339.967 718.611 326.661 717.166 313.293C715.751 300.212 714.311 287.134 713.143 274.028C712.908 271.39 712.84 268.755 713.25 266.113C713.869 262.128 716.01 259.293 719.548 257.445C722.904 255.692 726.541 254.949 730.254 254.505C732.079 254.286 733.913 254.141 736.179 253.919C735.036 253.565 734.288 253.375 733.575 253.099C732.931 252.849 732.515 252.351 732.539 251.621C732.56 250.997 732.909 250.55 733.464 250.276C734.504 249.762 735.64 249.57 736.765 249.367C743.394 248.168 750.09 247.479 756.784 246.778C767.829 245.622 778.902 244.833 789.996 244.372C796.078 244.119 802.17 244.07 808.257 243.931C808.759 243.919 809.26 243.933 809.762 243.923C811.656 243.887 811.69 243.887 811.76 242.035C811.918 237.818 812.096 233.601 812.167 229.382C812.368 217.502 811.926 205.64 811.096 193.789C810.796 189.507 810.767 185.211 810.978 180.919C811.059 179.258 811.46 178.581 812.28 178.551C813.101 178.521 813.629 179.162 813.857 180.771C814.92 188.274 815.947 195.783 816.98 203.29C817.219 205.032 817.431 206.777 817.844 208.526C818.619 206.612 818.779 204.601 819.115 202.63C819.906 197.979 820.681 193.329 821.695 188.717C823.076 182.44 826.585 177.877 832.225 174.836C836.723 172.411 841.505 170.715 846.322 169.086C847.03 168.847 847.832 168.759 848.598 168.007C847.691 167.651 846.92 167.662 846.184 167.696C838.458 168.049 830.734 168.449 822.79 168.231C822.862 169.493 823.104 170.707 822.18 171.679C821.199 172.712 819.962 173.276 818.636 173.589C811.822 175.198 805.016 175.256 798.256 173.273C797.228 172.971 796.225 172.552 795.369 171.878C793.715 170.576 793.789 169.038 795.521 167.869C795.969 167.566 796.617 167.563 796.987 166.784C795.45 166.576 793.992 166.362 792.531 166.185C787.136 165.532 781.786 164.417 776.299 164.722C775.079 164.79 773.847 164.649 773.392 163.105C773.21 162.487 772.437 162.54 771.915 162.381C770.2 161.857 768.493 161.318 766.929 160.426C763.657 158.558 762.989 155.821 765.057 152.677C766.421 150.604 768.318 149.081 770.394 147.773C774.937 144.911 779.956 143.256 785.148 142.08C792.852 140.336 800.672 139.443 808.553 139.058C818.296 138.581 828.033 138.675 837.756 139.487C845.199 140.108 852.529 141.348 859.613 143.794C862.394 144.754 865.087 145.914 867.557 147.539C868.698 148.291 869.783 149.112 870.63 150.196C872.432 152.499 872.113 154.994 869.792 156.751C868.461 157.759 866.929 158.357 865.338 158.818C860.838 160.12 856.207 160.59 851.56 160.898C840.386 161.64 829.217 160.956 818.047 160.704C807.439 160.465 796.845 160.534 786.289 161.781C786.016 161.813 785.745 161.871 785.404 161.928C785.871 162.686 786.55 162.361 787.081 162.375C790.948 162.476 794.817 162.496 798.684 162.596C804.642 162.749 810.549 163.334 816.31 164.953C817.236 165.213 818.153 165.186 819.079 165.133C825.664 164.752 832.253 164.746 838.845 164.83C839.776 164.842 840.708 164.857 841.637 164.91C851.459 165.467 861.072 164 870.549 161.658C878.262 159.752 883.76 155.049 886.826 147.643C887.598 145.777 888.104 143.842 888.238 141.832C888.464 138.412 887.165 135.702 884.311 133.756C882.701 132.659 880.942 131.878 879.107 131.244C873.322 129.241 867.316 128.247 861.275 127.497C842.884 125.212 824.419 124.998 805.924 125.587C797.545 125.853 789.176 126.262 780.829 127.036C769.62 128.076 758.477 129.505 747.731 133.068C746.001 133.641 744.187 134.085 742.665 135.287C743.427 135.944 744.271 136.157 745.066 136.447C750.182 138.307 755.38 139.902 760.676 141.172C761.3 141.322 761.926 141.492 762.523 141.725C763.017 141.918 763.317 142.326 763.328 142.888C763.341 143.529 763.033 143.965 762.459 144.238C761.862 144.522 761.224 144.584 760.58 144.645C758.001 144.888 755.428 144.762 752.855 144.536C751.472 144.415 751.43 144.433 751.347 145.853C751.195 148.434 751.599 150.993 751.771 153.557C752.445 163.623 752.81 173.698 753.018 183.783C753.341 199.377 753.438 214.969 752.88 230.559C752.77 233.632 752.587 236.704 752.096 239.745C751.983 240.448 751.814 241.146 751.62 241.831C751.41 242.575 750.931 243.144 750.131 243.179C749.311 243.215 748.833 242.645 748.603 241.908C748.412 241.297 748.249 240.671 748.14 240.04C747.368 235.589 747.175 231.081 746.974 226.583C746.343 212.504 746.153 198.414 745.918 184.324C745.706 171.663 745.587 159.003 745.681 146.341C745.686 145.699 745.675 145.052 745.609 144.414C745.504 143.414 745.034 142.718 744.01 142.358C742.525 141.835 741.074 141.203 739.769 140.302C738.368 139.335 737.105 138.262 737.654 136.274C737.8 135.742 737.522 135.459 737.15 135.219C731.217 131.391 728.869 125.384 727.309 118.94C726.011 113.582 725.351 108.108 724.591 102.657C723.319 93.5223 722.092 84.3814 720.902 75.2359C720.348 70.9835 719.834 66.7277 719.776 62.4225C719.663 53.9975 723.246 47.5526 730.069 42.7807C734.517 39.6695 739.482 37.6535 744.616 36.0114C753.099 33.2977 761.813 31.6454 770.62 30.4387C783.334 28.6963 796.128 27.9091 808.937 27.3048C833.128 26.1635 857.326 25.4068 881.548 25.6989C883.441 25.7217 885.334 25.7019 887.239 25.5699C884.501 24.7242 881.68 24.3802 878.866 24.022C865.827 22.3624 852.723 22.1826 839.608 22.3873C823.057 22.6455 806.533 23.487 790.048 24.9793C775.568 26.2901 761.137 28.0048 746.864 30.8612C738.066 32.6219 729.503 35.1652 721.127 38.3641C719.858 38.8489 718.581 39.3186 717.235 39.568C714.651 40.0468 713.079 39.1676 712.28 36.6859C711.465 34.1546 711.571 31.6173 712.363 29.0884C713.146 26.5889 714.478 24.4065 716.146 22.4122C718.982 19.0225 722.445 16.3781 726.196 14.0982C733.984 9.36397 742.464 6.36657 751.297 4.30765C759.689 2.3513 768.229 1.41862 776.813 0.860429C794.205 -0.270544 811.61 -0.168386 829.013 0.487449C845.91 1.12418 862.771 2.27189 879.559 4.34713C900.112 6.88785 920.426 10.7881 940.644 15.207C951.904 17.6677 963.138 20.2376 974.18 23.5692C978.16 24.7701 982.044 26.2174 985.766 28.0926C995.244 32.8676 1000.61 40.5565 1002.27 50.9705C1003.53 58.9113 1003.66 66.9212 1003.91 74.9254C1004.39 90.5118 1005.14 106.082 1006.43 121.626C1007.73 137.304 1009.31 152.957 1010.53 168.643C1011.78 184.759 1012.77 200.888 1013.57 217.034C1014.97 245.62 1015.66 274.219 1015.38 302.838C1015.24 316.928 1014.98 331.019 1014.61 345.105C1014.41 352.894 1014.14 360.693 1013.01 368.424C1012.31 373.178 1011.28 377.848 1009.45 382.31C1007.12 388.015 1003.54 392.736 998.354 396.173C998.022 396.392 997.538 396.498 997.501 397.053C997.874 397.52 998.414 397.3 998.876 397.333C1000.23 397.432 1001.59 397.478 1002.94 397.716C1010.22 399.002 1014.42 403.515 1015.14 410.897C1015.73 416.88 1014.42 422.553 1012.3 428.094C1011.13 431.175 1009.62 434.099 1008.06 436.995C1005.88 441.022 1003.68 445.035 1001.74 449.185C1001.23 450.285 1000.73 451.401 1000.34 452.549C999.679 454.515 1000.06 455.421 1001.93 456.393C1003.92 457.427 1006.11 457.883 1008.27 458.361C1014.87 459.814 1021.58 460.314 1028.29 460.924C1038.98 461.898 1049.68 462.845 1060.39 463.789C1064.59 464.16 1068.81 464.487 1073.02 464.842C1073.79 464.908 1074.61 464.792 1075.32 465.241C1075.32 465.958 1075.32 466.673 1075.32 467.388ZM936.18 405.275C936.18 405.151 936.179 405.027 936.179 404.903C933.056 404.564 929.923 404.292 926.811 403.872C919.923 402.942 913.108 401.631 906.433 399.661C905.745 399.458 905.05 399.277 904.45 398.867C903.931 398.514 903.699 398.019 903.814 397.387C903.917 396.821 904.331 396.558 904.822 396.382C905.516 396.133 906.24 396.161 906.949 396.251C908.156 396.405 909.367 396.558 910.555 396.813C915.033 397.773 919.498 398.796 923.977 399.755C929.635 400.966 934.105 399.138 937.461 394.452C939.269 391.928 940.593 389.167 941.651 386.267C944.141 379.441 945.438 372.347 946.364 365.173C947.5 356.374 948.128 347.532 948.63 338.677C949.517 323.036 950.222 307.39 950.272 291.72C950.337 271.401 949.576 251.099 949.019 230.793C948.363 206.843 947.942 182.882 945.943 158.989C945.216 150.297 944.372 141.613 943.55 132.928C942.803 125.027 941.932 117.136 941.265 109.228C940.395 98.8951 939.634 88.5514 939.235 78.1872C938.938 70.467 938.727 62.7422 939.505 55.0331C939.75 52.6126 940.052 50.1914 940.88 47.8896C941.364 46.5406 941.933 45.1087 943.694 45.0342C945.33 44.9649 946.04 46.2347 946.681 47.4436C947.761 49.4779 948.396 51.6821 948.952 53.903C951.357 63.5011 952.506 73.3027 953.617 83.1062C954.873 94.1959 955.591 105.331 956.14 116.473C957.034 134.618 957.8 152.769 958.391 170.927C959.083 192.159 959.865 213.389 960.11 234.633C960.288 250.013 960.162 265.393 959.517 280.761C958.928 294.767 958.202 308.766 957.489 322.766C957.045 331.48 956.45 340.186 956.038 348.901C955.627 357.618 955.313 366.345 956.251 375.052C956.751 379.697 957.742 384.225 959.839 388.448C962.037 392.873 965.445 395.979 970.064 397.763C971.218 398.209 972.384 398.417 973.632 398.338C977.065 398.121 980.503 398.149 983.943 398.183C986.376 398.207 988.828 398.045 991.135 397.176C998.237 394.498 1003.45 389.759 1006.62 382.834C1007.91 380.026 1008.82 377.099 1009.53 374.1C1011.33 366.467 1011.74 358.676 1012.03 350.888C1012.6 335.448 1012.89 320 1013.01 304.549C1013.24 275.645 1012.67 246.758 1011.26 217.886C1010.54 203.17 1009.71 188.462 1008.57 173.772C1007.89 165.003 1007.17 156.235 1006.38 147.476C1005.26 135.228 1003.98 122.992 1003.2 110.716C1002.3 96.4398 1001.63 82.1503 1001.33 67.846C1001.22 62.6233 1000.77 57.4245 1000.07 52.2441C998.645 41.6954 993.228 34.1007 983.499 29.6155C979.651 27.8417 975.67 26.4541 971.609 25.2815C959.015 21.6454 946.23 18.7968 933.414 16.0818C913.726 11.9109 893.94 8.31734 873.926 6.07106C857.188 4.1924 840.39 3.17238 823.561 2.69081C809.381 2.28499 795.196 2.23219 781.02 2.98396C771.5 3.48871 762.017 4.34091 752.693 6.4331C743.701 8.45104 735.072 11.4463 727.172 16.2929C723.923 18.2858 720.905 20.5741 718.382 23.4573C716.619 25.4712 715.191 27.6786 714.499 30.3009C714.033 32.0652 713.989 33.8451 714.455 35.603C714.892 37.2507 715.487 37.605 717.123 37.1711C718.435 36.8234 719.73 36.3858 720.994 35.8897C733.463 30.9937 746.455 28.1843 759.652 26.1914C774.176 23.9979 788.782 22.5352 803.432 21.5422C821.665 20.3063 839.918 19.7133 858.195 20.132C866.868 20.3308 875.498 21.0484 884.078 22.3549C893.699 23.8202 902.84 26.9921 911.829 30.5142C920.22 33.8022 926.243 39.7013 929.143 48.4417C929.233 48.7124 929.347 48.9759 929.465 49.236C932.59 56.1098 933.093 63.2884 931.951 70.6539C930.672 78.904 928.051 86.7648 924.836 94.4296C920.364 105.094 914.94 115.221 907.47 124.149C905.17 126.899 902.762 129.541 899.991 131.83C899.498 132.237 898.974 132.634 898.404 132.913C897.865 133.176 897.274 133.112 896.842 132.602C896.396 132.076 896.483 131.516 896.894 131.044C897.409 130.452 897.968 129.893 898.551 129.367C908.816 120.128 916.235 109.002 920.843 95.9907C922.754 90.5925 924.412 85.123 925.656 79.5355C927.181 72.6819 928.177 65.7669 928.265 58.7188C928.35 51.887 926.046 46.1399 921.069 41.4565C920.443 40.8681 919.848 40.2462 919.211 39.6708C915.514 36.3313 911.303 33.7835 906.833 31.6197C904.75 30.6114 902.585 29.959 900.309 29.5618C893.437 28.3624 886.49 28.0701 879.546 28.0209C851.958 27.8261 824.397 28.7182 796.859 30.3526C785.772 31.0106 774.721 31.9991 763.77 33.9005C756.001 35.2493 748.326 36.9822 740.946 39.8296C736.715 41.4621 732.686 43.4644 729.226 46.4534C725.149 49.9762 722.754 54.3483 722.271 59.7867C721.996 62.883 722.209 65.9454 722.555 68.9907C724.218 83.6255 726.27 98.2099 728.51 112.767C729.218 117.365 730.248 121.895 732.291 126.133C733.626 128.904 735.542 131.149 738.031 132.957C739.056 133.701 739.888 133.964 741.106 133.229C742.44 132.425 743.95 131.883 745.427 131.349C751.712 129.079 758.209 127.651 764.795 126.603C777.976 124.504 791.271 123.672 804.589 123.242C817.981 122.808 831.378 122.79 844.763 123.595C853.49 124.12 862.185 124.939 870.776 126.616C875.136 127.467 879.466 128.472 883.466 130.5C889.461 133.539 891.743 138.166 890.191 144.669C888.291 152.63 883.744 158.596 876.228 162.129C874.149 163.106 871.97 163.808 869.744 164.372C864.872 165.606 859.893 166.198 854.919 166.806C853.9 166.93 853.03 166.926 852.862 168.326C852.756 169.214 851.774 169.614 850.968 169.917C848.959 170.671 846.933 171.381 844.905 172.084C840.641 173.564 836.426 175.144 832.509 177.437C828.202 179.957 825.383 183.55 824.262 188.434C823.99 189.618 823.641 190.788 823.43 191.982C822.27 198.528 821.145 205.079 819.999 211.627C819.79 212.824 819.572 214.025 819.043 215.133C818.739 215.769 818.22 216.121 817.49 216.04C816.85 215.969 816.421 215.554 816.269 214.975C816.016 214.01 815.811 213.026 815.679 212.037C815.185 208.335 814.728 204.628 814.258 200.922C814.065 201.939 814.017 202.939 814.073 203.933C814.695 215.013 814.588 226.098 814.348 237.184C814.31 238.971 814.204 240.758 814.065 242.54C813.986 243.543 814.327 244.024 815.365 243.978C815.864 243.956 816.367 244.019 816.868 244.025C823.962 244.106 831.045 244.422 838.11 245.07C844.532 245.659 850.925 246.443 857.184 248.066C858.848 248.497 860.643 248.84 861.899 250.023C863.018 251.076 864.255 251.244 865.602 251.382C866.029 251.426 866.458 251.459 866.886 251.501C874.076 252.208 879.212 255.472 880.948 262.875C881.186 263.893 881.682 264.024 882.608 264.005C893.121 263.79 903.269 265.71 913.064 269.462C921.574 272.723 928.628 277.974 933.867 285.455C943.033 298.545 944.515 312.806 939.7 327.786C935.741 340.105 928.322 350.16 918.412 358.389C906.89 367.959 894.059 375.47 880.618 381.988C878.17 383.175 875.621 384.134 873.047 385.02C872.569 385.185 872.024 385.271 871.5 385.84C873.956 386.354 876.248 386.499 878.453 387.108C881.673 387.997 884.668 389.296 887.119 391.63C890.606 394.952 890.663 398.724 887.29 402.14C885.452 404.001 883.233 405.303 880.889 406.405C876.723 408.363 872.343 409.696 867.877 410.75C853.383 414.167 838.642 415.549 823.791 415.906C807.57 416.296 791.451 414.945 775.361 413.016C759.359 411.097 743.462 408.534 727.602 405.704C719.921 404.332 712.253 402.86 704.5 401.939C701.237 401.551 697.964 401.125 694.654 401.641C692.235 402.018 690.35 403.13 689.056 405.202C687.525 407.651 686.629 410.368 685.735 413.088C685.513 413.765 685.693 414.181 686.249 414.526C686.918 414.941 687.571 415.382 688.253 415.776C692.361 418.151 696.734 419.93 701.215 421.451C715.229 426.211 729.76 428.122 744.44 429.137C756.028 429.937 767.634 429.954 779.239 429.609C794.28 429.162 809.267 427.964 824.222 426.288C837.818 424.764 851.343 422.769 864.819 420.435C885.35 416.88 905.719 412.539 925.986 407.709C929.383 406.9 932.781 406.087 936.18 405.275ZM842.652 315.713C841.601 315.105 840.52 315.144 839.465 315.047C834.68 314.605 829.959 313.829 825.334 312.478C817.348 310.145 812.608 304.889 810.893 296.8C809.907 292.153 809.69 287.452 809.675 282.724C809.652 275.352 810.172 268.003 810.549 260.647C810.64 258.868 810.595 258.841 808.844 258.824C803.758 258.775 798.675 258.66 793.591 258.502C781.849 258.138 770.127 257.394 758.395 256.827C749.814 256.413 741.226 255.84 732.632 256.635C728.553 257.013 724.532 257.627 720.802 259.472C717.571 261.071 715.827 263.665 715.501 267.233C715.365 268.731 715.318 270.229 715.411 271.733C716.108 283.014 717.57 294.221 718.687 305.46C720.058 319.263 721.868 333.012 724.152 346.696C725.106 352.408 726.12 358.103 728.023 363.605C730.336 370.293 734.81 374.699 741.544 376.929C747.022 378.743 752.663 379.654 758.367 380.215C770.002 381.359 781.669 381.585 793.352 381.275C807.814 380.892 822.281 380.601 836.707 379.395C841.278 379.012 845.812 378.358 850.173 376.834C855.538 374.96 859.735 371.69 862.262 366.527C864.401 362.154 866.768 357.911 869.27 353.738C871.453 350.098 873.047 346.211 874.206 342.128C875.672 336.959 876.576 331.675 877.585 326.412C878.118 323.632 878.612 320.844 879.141 317.968C878.828 318.077 878.643 318.082 878.577 318.173C876.244 321.389 872.915 323.145 869.298 324.454C864.151 326.316 858.79 327.226 853.383 327.898C843.628 329.111 833.814 329.369 824.006 329.537C807.389 329.821 790.787 330.525 774.182 331.132C765.221 331.459 756.277 331.292 747.383 330.03C744.191 329.578 741.019 328.986 738.07 327.595C736.742 326.968 735.444 326.185 735.437 324.518C735.43 322.954 736.661 322.177 737.879 321.515C739.33 320.726 740.887 320.186 742.464 319.705C748.787 317.773 755.282 316.689 761.829 315.934C775.956 314.306 790.132 314.358 804.318 314.806C817.061 315.207 829.805 315.626 842.652 315.713ZM684.741 416.588C683.22 421.812 682.17 426.919 682.452 432.186C682.864 439.883 684.651 447.299 687.356 454.508C687.751 455.56 688.433 456.044 689.492 456.356C693.479 457.53 697.512 458.495 701.588 459.293C703.485 459.665 705.369 460.052 707.325 460.035C735.975 459.791 764.632 459.993 793.26 458.45C803.845 457.879 814.428 457.286 824.999 456.506C839.21 455.459 853.413 454.293 867.593 452.864C881.129 451.5 894.674 450.225 908.206 448.817C926.509 446.914 944.773 444.615 963.157 443.565C970.027 443.173 976.902 443.085 983.773 443.523C984.757 443.585 985.587 443.422 986.432 442.954C989.503 441.251 992.468 439.392 995.324 437.343C1002.32 432.322 1005.99 425.346 1007.3 417.025C1008.28 410.773 1006.05 406.711 1000.33 403.988C996.531 402.181 992.459 401.399 988.318 400.906C987.672 400.829 987.038 400.928 986.401 401.06C984.009 401.556 981.591 401.796 979.146 401.754C978.071 401.736 977.007 401.817 975.937 401.971C967.576 403.175 959.234 404.55 950.779 404.972C948.777 405.072 946.789 405.209 944.822 405.686C938.632 407.186 932.426 408.621 926.228 410.092C895.496 417.382 864.564 423.604 833.209 427.6C818.07 429.53 802.884 430.929 787.644 431.669C772.754 432.391 757.86 432.483 742.975 431.401C733.251 430.694 723.588 429.552 714.057 427.465C706.065 425.714 698.258 423.375 690.862 419.823C688.872 418.867 686.954 417.763 684.741 416.588ZM737.794 324.535C738.933 325.54 740.087 325.917 741.246 326.273C745.168 327.479 749.216 327.964 753.283 328.341C760.357 328.997 767.45 328.933 774.535 328.729C786.702 328.38 798.865 327.858 811.031 327.472C822.91 327.096 834.804 327.129 846.662 326.191C852.519 325.729 858.342 325.017 864.05 323.569C867.039 322.811 869.949 321.844 872.654 320.311C876.016 318.406 877.903 315.544 878.393 311.746C878.558 310.471 878.745 309.186 878.757 307.905C878.847 298.609 879.098 289.319 879.623 280.037C879.682 278.999 879.407 278.295 878.48 277.738C877.066 276.888 875.787 275.844 874.762 274.528C873.079 272.367 873.097 270.217 874.816 268.076C875.724 266.945 876.836 266.046 878.115 265.373C878.711 265.059 878.965 264.669 878.799 264.002C877.725 259.676 875.694 256.173 871.07 254.806C868.79 254.133 866.468 253.766 864.104 253.616C863.461 253.575 862.854 253.579 862.266 253.992C860.275 255.389 857.934 255.822 855.607 256.227C848.327 257.493 840.963 257.936 833.599 258.313C827.378 258.632 821.151 258.843 814.918 258.826C813.156 258.821 813.109 258.853 812.972 260.742C812.605 265.805 812.303 270.871 812.186 275.948C812.052 281.811 811.906 287.669 812.688 293.508C814.004 303.331 818.412 308.319 827.994 310.75C832.727 311.951 837.542 312.623 842.412 312.897C847.63 313.19 852.852 313.429 858.069 313.732C859.135 313.794 860.2 313.988 861.248 314.207C861.988 314.362 862.602 314.804 862.606 315.648C862.61 316.494 861.998 316.953 861.259 317.097C860.068 317.329 858.858 317.502 857.649 317.598C850.93 318.13 844.195 318.141 837.466 318.007C824.293 317.746 811.122 317.399 797.951 317.028C784.473 316.649 771.031 316.991 757.663 318.887C752.345 319.641 747.073 320.651 741.967 322.368C740.565 322.84 739.129 323.3 737.794 324.535ZM979.998 446.19C979.964 446.029 979.93 445.869 979.896 445.708C979.133 445.669 978.371 445.603 977.608 445.593C966.273 445.443 954.995 446.359 943.731 447.463C934.967 448.322 926.213 449.291 917.453 450.2C907.198 451.264 896.944 452.342 886.685 453.365C875.499 454.48 864.313 455.606 853.116 456.601C843.273 457.475 833.415 458.173 823.563 458.949C810.067 460.013 796.55 460.751 783.026 461.3C766.349 461.978 749.662 462.285 732.969 462.235C729.904 462.226 726.839 462.234 723.773 462.234C724.944 462.704 726.129 462.935 727.324 463.048C734.097 463.685 740.87 464.314 747.646 464.91C765.271 466.46 782.939 467.342 800.604 468.257C810.617 468.775 820.628 469.356 830.555 470.846C838.364 472.018 846.045 473.694 853.263 477.038C853.857 477.313 854.448 477.52 855.118 477.473C859.118 477.195 863.155 477.231 867.105 476.533C883.528 473.632 899.989 470.938 916.351 467.704C921.965 466.595 927.646 465.731 933.126 464.046C947.779 459.538 962.133 454.216 976.151 448.004C977.447 447.43 978.716 446.796 979.998 446.19ZM943.789 47.5376C942.907 48.7482 942.695 49.9408 942.488 51.1149C941.265 58.0548 941.198 65.058 941.405 72.0722C941.67 81.0803 942.212 90.0727 942.859 99.0617C943.506 108.049 944.318 117.021 945.234 125.983C946.39 137.292 947.527 148.603 948.434 159.935C949.518 173.482 950.146 187.056 950.561 200.638C951.112 218.652 951.556 236.67 952.037 254.686C952.387 267.842 952.843 280.998 952.652 294.159C952.352 314.829 951.542 335.48 949.757 356.08C949.096 363.703 948.158 371.295 946.366 378.754C945.244 383.422 943.858 388.002 941.607 392.271C939.494 396.278 936.732 399.672 932.49 401.617C932.333 401.689 932.289 401.818 932.385 402.08C937.313 402.666 942.302 402.799 947.302 402.62C947.799 402.602 948.297 402.498 948.785 402.391C953.959 401.253 959.145 400.186 964.386 399.389C965.005 399.295 965.764 399.402 966.448 398.722C961.362 395.88 958.279 391.609 956.358 386.423C955.537 384.207 954.935 381.926 954.524 379.598C953.035 371.161 953.054 362.653 953.459 354.143C954.038 342 954.759 329.864 955.385 317.724C955.885 308.011 956.356 298.296 956.803 288.581C957.615 270.93 958.022 253.269 957.761 235.6C957.374 209.283 956.48 182.979 955.48 156.678C954.878 140.813 954.217 124.951 953.323 109.099C952.506 94.5983 951.195 80.1504 948.923 65.8006C948.129 60.7887 947.236 55.7894 945.579 50.9681C945.188 49.8277 944.832 48.6572 943.789 47.5376ZM881.445 307.733C881.964 306.487 882.445 305.223 883.017 304.003C883.304 303.392 883.87 302.977 884.589 303.12C885.291 303.259 885.689 303.807 885.739 304.502C885.811 305.498 885.84 306.502 885.81 307.5C885.625 313.659 884.592 319.729 883.831 325.827C883.299 330.081 882.61 334.322 882.696 338.632C882.73 340.29 882.915 341.914 883.528 343.465C884.566 346.094 886.243 347.122 889.032 346.895C890.486 346.777 891.824 346.294 893.125 345.682C895.278 344.669 897.234 343.34 899.033 341.804C906.424 335.493 912.331 328.012 916.492 319.224C918.687 314.588 919.971 309.711 919.781 304.506C919.477 296.183 914.995 289.952 907.172 287.083C904.677 286.168 902.1 285.558 899.506 285.033C893.753 283.869 887.964 282.852 882.633 280.216C882.481 280.141 882.24 280.245 881.989 280.272C881.487 289.442 881.207 298.581 881.445 307.733ZM822.439 158.435C828.501 158.715 836.159 158.871 843.821 158.82C849.412 158.782 854.979 158.437 860.496 157.489C862.967 157.064 865.436 156.579 867.645 155.313C869.802 154.076 869.969 152.822 868.203 151.087C867.546 150.441 866.78 149.889 866.006 149.38C864.327 148.276 862.505 147.444 860.633 146.717C854.996 144.528 849.133 143.257 843.158 142.471C832.264 141.038 821.314 140.916 810.36 141.337C801.695 141.67 793.089 142.606 784.638 144.647C780.095 145.743 775.709 147.254 771.722 149.752C769.892 150.899 768.181 152.197 767.007 154.057C765.778 156.004 766.036 157.162 768.029 158.298C770.482 159.695 773.211 160.335 775.94 160.924C776.474 161.039 777.087 160.938 777.637 160.817C785.08 159.186 792.642 158.639 800.23 158.388C807.101 158.159 813.974 158.271 822.439 158.435ZM692.626 463.181C692.636 464.06 693.271 464.507 693.673 465.069C694.797 466.64 696.008 468.149 697.097 469.742C698.193 471.345 699.069 473.076 699.299 475.042C699.515 476.89 699.37 476.884 701.372 476.871C721.79 476.748 742.2 477.191 762.613 477.535C785.604 477.923 808.599 477.99 831.594 478.031C836.465 478.04 841.337 478.053 846.203 477.792C846.638 477.769 847.14 477.875 847.635 477.376C846.981 477.127 846.528 476.933 846.062 476.78C840.397 474.921 834.572 473.779 828.677 472.971C817.452 471.433 806.148 470.911 794.847 470.34C786.621 469.924 778.395 469.49 770.176 468.964C759.528 468.283 748.886 467.496 738.261 466.517C729.99 465.754 721.711 465.009 713.514 463.662C707.691 462.706 701.883 462.144 695.993 462.718C694.862 462.829 693.731 462.892 692.626 463.181ZM780.929 399.552C796.15 399.438 816.597 398.31 836.977 396.073C843.597 395.347 850.191 394.411 856.648 392.711C858.657 392.182 860.67 391.638 862.486 390.599C863.238 390.168 864.386 389.822 863.838 388.569C863.331 387.408 862.358 388.042 861.59 388.215C837.49 393.632 813.118 394.838 788.538 393.03C775.463 392.067 762.478 390.242 749.427 389.057C742.438 388.423 735.446 387.766 728.41 387.939C725.823 388.003 723.264 388.247 720.744 388.839C719.485 389.134 718.254 389.519 717.119 390.146C716.307 390.595 715.283 391.036 715.244 392.049C715.203 393.125 716.303 393.483 717.111 393.9C718.387 394.558 719.755 394.985 721.143 395.352C727.121 396.932 733.239 397.65 739.369 398.222C751.435 399.348 763.536 399.619 780.929 399.552ZM684.349 454.581C684.686 453.839 684.405 453.468 684.27 453.079C683.451 450.716 682.76 448.316 682.19 445.882C680.737 439.676 679.589 433.442 680.231 427.013C680.587 423.447 681.318 419.963 682.254 416.513C682.479 415.685 682.754 414.906 681.9 414.18C679.117 411.814 677.113 408.928 676.367 405.268C675.48 405.57 675.165 406.257 674.718 406.789C668.826 413.817 665.909 422.055 664.907 431.05C664.29 436.587 665.598 441.548 669.583 445.625C673.722 449.861 678.85 452.457 684.349 454.581ZM740.073 251.182C740.093 251.376 740.112 251.571 740.132 251.765C743.329 251.945 746.523 252.189 749.723 252.293C768.915 252.922 788.104 252.41 807.293 252.065C811.785 251.985 811.097 252.924 811.39 248.033C811.489 246.37 811.432 246.323 809.809 246.327C806.014 246.338 802.217 246.337 798.423 246.442C782.239 246.893 766.104 248.053 750.018 249.883C746.697 250.26 743.388 250.746 740.073 251.182ZM953.115 459.898C952.601 460.101 952.657 460.287 952.885 460.325C952.952 460.337 953.026 460.31 953.096 460.299C957.27 459.669 961.436 458.981 965.62 458.424C970.888 457.722 976.182 457.62 981.485 457.996C982.918 458.098 984.368 458.147 985.689 457.44C988.779 455.787 991.291 453.47 993.203 450.553C994.222 449 993.876 448.152 992.095 447.418C990.564 446.788 988.934 446.546 987.306 446.273C986.183 446.086 985.228 446.261 984.221 446.772C977.835 450.013 971.258 452.829 964.593 455.442C960.669 456.981 956.725 458.47 953.115 459.898ZM841.041 494.799C845.912 494.711 850.373 493.475 854.218 490.406C855.452 489.421 856.572 488.32 857.349 486.927C858.263 485.288 858.078 483.78 856.904 482.373C856.342 481.699 855.73 481.425 854.847 481.646C848.132 483.334 841.39 484.93 835.02 487.729C833.712 488.304 832.422 488.932 831.307 489.841C829.827 491.048 829.884 491.807 831.509 492.728C831.941 492.973 832.406 493.17 832.873 493.343C835.514 494.323 838.272 494.647 841.041 494.799ZM740.32 137.246C741.429 138.679 742.266 139.18 744.701 140.061C747.208 140.968 747.839 141.853 747.851 144.473C747.864 147.045 747.862 149.617 747.897 152.188C748.124 168.625 748.366 185.061 748.59 201.498C748.724 211.361 749.067 221.217 749.591 231.067C749.656 232.298 749.857 233.521 749.995 234.749C750.45 231.014 750.691 227.305 750.717 223.594C750.79 213.159 750.837 202.724 750.777 192.289C750.71 180.425 750.355 168.568 749.578 156.725C749.297 152.447 749.031 148.165 749.127 143.874C749.165 142.188 749.697 141.742 751.361 141.901C751.997 141.961 752.641 142.196 753.645 141.81C748.948 140.296 744.575 139.008 740.32 137.246ZM857.289 251.013C856.825 250.368 856.407 250.293 855.995 250.209C853.895 249.776 851.807 249.276 849.693 248.925C839.081 247.159 828.37 246.606 817.635 246.379C813.753 246.296 813.752 246.327 813.62 250.204C813.561 251.934 813.562 251.973 815.37 251.931C820.162 251.817 824.953 251.652 829.746 251.535C838.828 251.315 847.905 250.902 857.289 251.013ZM692.426 476.929C692.426 476.918 692.426 476.906 692.426 476.895C693.495 476.895 694.565 476.924 695.633 476.887C697.032 476.839 697.221 476.603 696.949 475.205C696.66 473.718 696.026 472.352 695.166 471.122C693.942 469.373 692.641 467.677 691.353 465.973C689.298 463.253 689.29 463.255 686.165 464.558C685.706 464.75 685.252 464.966 684.826 465.221C682.832 466.416 682.274 467.941 683.061 470.117C683.55 471.468 684.394 472.618 685.187 473.805C686.723 476.101 688.598 477.599 691.572 476.937C691.844 476.877 692.141 476.929 692.426 476.929ZM855.741 253.321C854.885 253.321 854.028 253.302 853.172 253.324C840.864 253.637 828.556 253.956 816.249 254.275C815.677 254.289 815.104 254.352 814.533 254.342C813.614 254.324 813.237 254.776 813.272 255.657C813.306 256.487 813.903 256.48 814.49 256.489C814.848 256.494 815.206 256.489 815.564 256.483C826.443 256.285 837.32 256.006 848.15 254.86C850.688 254.591 853.253 254.409 855.741 253.321ZM797.107 169.945C797.909 170.805 798.841 170.985 799.714 171.222C805.625 172.825 811.566 172.731 817.51 171.428C818.266 171.262 819.018 170.968 819.699 170.599C820.593 170.115 820.567 169.651 819.728 169.01C818.903 168.38 817.954 168.199 816.932 168.101C811.414 167.575 805.96 168.218 800.509 168.928C799.403 169.072 798.249 169.138 797.107 169.945ZM773.04 255.072C773.736 255.195 773.938 255.251 774.142 255.264C785.715 255.985 797.303 256.283 808.895 256.488C809.323 256.496 809.754 256.489 810.179 256.442C810.85 256.369 810.866 255.846 810.914 255.331C810.98 254.639 810.584 254.466 810.009 254.464C809.508 254.462 809.007 254.459 808.506 254.466C797.773 254.619 787.04 254.77 776.306 254.93C775.382 254.943 774.458 255.009 773.04 255.072ZM879.688 275.393C879.653 272.652 879.844 270.163 879.301 267.66C878.263 267.917 877.758 268.432 877.255 268.922C875.47 270.659 875.447 271.861 877.172 273.649C877.802 274.302 878.428 274.989 879.688 275.393ZM693.945 460.339C692.668 459.746 691.38 459.122 689.82 459.24C690.661 461.98 692.521 460.284 693.945 460.339Z" fill="#4F2E12"/>
</svg>
