<svg width="180" height="80" viewBox="0 0 180 80" fill="none" xmlns="http://www.w3.org/2000/svg">
<g opacity="0.6">
<g clip-path="url(#clip0_180_805)">
<path fill-rule="evenodd" clip-rule="evenodd" d="M127.55 12.1198C129.177 12.1342 129.807 12.1704 130.552 12.2862C131.073 12.3658 131.962 12.5467 132.541 12.6914C133.121 12.8289 133.931 13.0605 134.35 13.2052C134.77 13.3499 135.449 13.6177 135.87 13.7913C136.289 13.9722 137.034 14.3268 137.533 14.5873C138.032 14.8478 138.894 15.3616 139.451 15.7379C140.008 16.1069 140.868 16.751 141.367 17.1707C141.867 17.5831 142.619 18.285 143.053 18.7337C143.48 19.1751 144.109 19.8843 144.449 20.3112C144.79 20.7454 145.304 21.4473 145.593 21.8887C145.882 22.3301 146.302 23.0103 146.526 23.4083C146.743 23.8063 147.09 24.4865 147.285 24.9279C147.48 25.3693 147.792 26.1291 147.973 26.6284C148.154 27.1277 148.414 27.9888 148.559 28.546C148.696 29.1032 148.884 29.9643 148.971 30.4636C149.101 31.2234 149.138 31.7299 149.159 33.6475C149.188 35.4566 149.167 36.1151 149.08 36.8315C149.015 37.3308 148.884 38.1123 148.79 38.5682C148.696 39.0241 148.516 39.7549 148.385 40.1963C148.262 40.6377 148.046 41.3035 147.901 41.6798C147.756 42.056 147.502 42.6928 147.329 43.0908C147.155 43.4888 146.815 44.169 146.569 44.6104C146.331 45.0518 145.897 45.761 145.607 46.2024C145.318 46.6438 144.812 47.3385 144.478 47.7582C144.153 48.1779 143.386 49.0101 142.786 49.6107C142.185 50.2113 141.353 50.9711 140.933 51.304C140.514 51.6368 139.812 52.1361 139.378 52.4256C138.944 52.715 138.242 53.142 137.823 53.3735C137.403 53.5978 136.738 53.9379 136.34 54.1116C135.942 54.2853 135.276 54.5603 134.856 54.7195C134.437 54.8714 133.692 55.1102 133.193 55.2477C132.694 55.3924 131.962 55.5661 131.565 55.6457C131.167 55.7181 130.436 55.8338 129.937 55.8917C129.438 55.9496 128.577 56.022 128.02 56.0509C127.434 56.0799 126.508 56.0582 125.813 56.0147C125.155 55.9641 124.164 55.8483 123.607 55.7542C123.05 55.6602 122.254 55.501 121.834 55.3924C121.415 55.2839 120.785 55.103 120.424 54.9944C120.062 54.8787 119.367 54.6182 118.868 54.4155C118.369 54.2129 117.559 53.8294 117.06 53.5689C116.56 53.3156 115.699 52.8019 115.142 52.4328C114.585 52.0638 113.753 51.4559 113.298 51.0796C112.842 50.7033 112.089 50.0231 111.634 49.5673C111.178 49.1041 110.512 48.3733 110.165 47.9391C109.811 47.4977 109.232 46.7017 108.87 46.1662C108.501 45.609 107.93 44.596 107.546 43.8145C107.17 43.0619 106.714 42.0126 106.533 41.4989C106.345 40.9851 106.085 40.1312 105.955 39.6174C105.824 39.1037 105.643 38.2715 105.564 37.7722C105.484 37.2729 105.376 36.4769 105.332 35.9993C105.282 35.4711 105.267 34.4869 105.289 33.4666C105.318 32.3378 105.376 31.4984 105.47 30.8616C105.557 30.3406 105.687 29.6097 105.774 29.2334C105.853 28.8572 106.027 28.2059 106.143 27.7862C106.266 27.3665 106.548 26.5705 106.765 26.0133C106.989 25.4561 107.351 24.624 107.582 24.1681C107.814 23.7122 108.219 22.9813 108.487 22.5399C108.754 22.0985 109.297 21.3026 109.702 20.7671C110.18 20.1303 110.852 19.3705 111.634 18.589C112.292 17.9232 113.167 17.1128 113.587 16.7871C114.007 16.4543 114.723 15.9405 115.179 15.6366C115.634 15.3399 116.466 14.8551 117.023 14.5656C117.58 14.2834 118.376 13.8999 118.796 13.7262C119.215 13.5525 119.917 13.292 120.351 13.1473C120.785 13.0098 121.473 12.8072 121.871 12.7059C122.268 12.6046 122.97 12.4599 123.426 12.3803C123.882 12.2934 124.533 12.1994 124.873 12.1632C125.213 12.127 126.414 12.1053 127.55 12.1198ZM43.1225 36.7229C43.7808 36.7374 44.6273 36.8025 45.0035 36.8677C45.3796 36.9328 46.0163 37.063 46.4141 37.1644C46.8121 37.2584 47.4849 37.4538 48.6931 37.8446L48.6569 38.1485C48.6352 38.3221 48.5701 39.1905 48.5122 40.0878C48.4543 40.9851 48.4037 41.7594 48.4037 41.8028C48.4037 41.8679 48.2446 41.8968 47.3185 41.8968L46.5372 41.1153C46.1103 40.6812 45.5316 40.1819 45.2567 40.001C44.9818 39.8128 44.4898 39.574 44.1715 39.4582C43.6216 39.2701 43.5276 39.2556 42.399 39.2556C41.2849 39.2629 41.1691 39.2701 40.6266 39.4582C40.3082 39.574 39.8163 39.7983 39.5414 39.9575C39.252 40.124 38.7817 40.5075 38.4562 40.8404C38.1306 41.166 37.711 41.687 37.5157 42.0054C37.3204 42.3238 37.0382 42.881 36.8863 43.2356C36.7416 43.5901 36.5535 44.1473 36.4667 44.4657C36.3871 44.7841 36.2714 45.3413 36.2135 45.6959C36.1556 46.0504 36.105 46.7234 36.105 47.1793C36.105 47.6352 36.1556 48.2358 36.2135 48.518C36.2714 48.8002 36.4378 49.2633 36.5752 49.5456C36.7271 49.8639 36.9803 50.233 37.2046 50.4573C37.4144 50.6744 37.7906 50.9494 38.0366 51.0724C38.2898 51.2027 38.6949 51.3618 38.9409 51.427C39.252 51.5066 39.6644 51.55 40.2287 51.5428C40.7785 51.5428 41.3067 51.4921 41.7841 51.3908C42.1819 51.304 42.8041 51.1375 43.1587 51.0145C43.5132 50.8915 44.1064 50.6455 44.4609 50.4718C44.8153 50.2981 45.3218 50.0231 45.5822 49.8567C45.8427 49.6903 46.2261 49.4153 46.4359 49.2489C46.6457 49.0897 46.8266 48.9667 46.841 48.9884C46.8555 49.0101 47.0509 49.3936 47.6803 50.6527L47.2968 50.9928C47.0943 51.1737 46.624 51.5428 46.2695 51.8105C45.915 52.0782 45.4013 52.4328 45.1264 52.5992C44.8587 52.7584 44.3379 53.0479 43.9689 53.2288C43.6072 53.4169 42.9778 53.6702 42.5799 53.8077C42.1819 53.9379 41.6105 54.0971 41.3139 54.1623C40.9955 54.2346 40.2648 54.2998 39.5414 54.3215C38.7745 54.3432 38.0221 54.3287 37.5519 54.2708C37.1323 54.2274 36.4812 54.1044 36.105 54.0103C35.7288 53.9162 35.0921 53.6774 34.6942 53.4821C34.2963 53.2867 33.761 52.9611 33.5005 52.7584C33.2401 52.5486 32.8566 52.1795 32.6468 51.9335C32.437 51.6875 32.097 51.1592 31.9017 50.7612C31.6485 50.2547 31.4966 49.8278 31.4025 49.3502C31.3012 48.8581 31.2578 48.366 31.2578 47.6135C31.2578 47.0346 31.3085 46.2675 31.3663 45.913C31.4242 45.5584 31.5472 44.9867 31.6485 44.6466C31.7425 44.3065 31.9451 43.7566 32.0826 43.4165C32.2272 43.0764 32.5239 42.5047 32.7337 42.1501C32.9507 41.7955 33.3486 41.2239 33.6235 40.891C33.8912 40.5509 34.3397 40.0806 34.6074 39.8418C34.8823 39.5957 35.3815 39.1977 35.7288 38.9517C36.076 38.7057 36.6982 38.3221 37.1178 38.1051C37.5374 37.8952 38.203 37.5913 38.6009 37.4466C38.9988 37.2946 39.6644 37.0992 40.084 37.0052C40.5036 36.9111 41.0896 36.8025 41.3862 36.7664C41.6828 36.7229 42.4641 36.7085 43.1225 36.7229ZM74.4481 61.0078C74.5494 61.0078 74.7592 61.0367 74.9183 61.0801C75.0775 61.1308 75.2945 61.261 75.4031 61.3696C75.5188 61.4853 75.6128 61.5794 75.6201 61.5794C75.6346 61.5794 75.6635 61.4853 75.7503 61.1452H76.3652C76.9657 61.1452 76.9802 61.1525 76.944 61.3044C76.9295 61.3985 76.698 62.4839 76.4376 63.7141C76.0614 65.4942 75.9166 66.0514 75.7358 66.4277C75.5694 66.7461 75.3958 66.9704 75.1715 67.1368C74.9906 67.2671 74.6795 67.4263 74.4843 67.4842C74.2672 67.5421 73.8042 67.5855 73.3267 67.5855C72.6322 67.5855 72.4803 67.5638 72.1475 67.4046C71.9015 67.2888 71.7352 67.1513 71.6627 67.0066C71.6049 66.8836 71.547 66.6665 71.5181 66.2468L72.2198 66.2251C72.813 66.2106 72.9289 66.2323 72.9289 66.3191C72.9289 66.377 73.0012 66.4783 73.088 66.5362C73.182 66.5941 73.3991 66.6448 73.58 66.6448C73.7608 66.6448 74.0212 66.5869 74.1587 66.5073C74.2961 66.4349 74.4626 66.283 74.5349 66.1672C74.6 66.0514 74.7085 65.7764 74.8894 65.1613L74.6868 65.3567C74.5783 65.4653 74.3612 65.6028 74.2094 65.6607C74.0646 65.7258 73.7463 65.7764 73.5075 65.7764C73.2689 65.7764 72.9506 65.7258 72.7986 65.6607C72.6539 65.6028 72.4369 65.4653 72.3284 65.3567C72.2198 65.2482 72.0752 64.9949 72.0173 64.7995C71.9594 64.5969 71.916 64.3075 71.916 64.1483C71.916 63.9891 71.981 63.5983 72.0607 63.2799C72.1475 62.9615 72.2994 62.5563 72.4007 62.3754C72.5092 62.1945 72.7263 61.905 72.8854 61.7314C73.0518 61.5577 73.305 61.3551 73.4497 61.2827C73.6017 61.2031 73.8476 61.1163 73.9923 61.0801C74.1443 61.0439 74.3468 61.015 74.4481 61.0078ZM73.674 62.6431C73.5944 62.7517 73.4714 62.9977 73.4063 63.1859C73.3412 63.3812 73.2906 63.6924 73.2906 63.895C73.2906 64.1772 73.334 64.3075 73.4714 64.4739C73.6233 64.662 73.7029 64.691 73.9923 64.691C74.2455 64.691 74.4192 64.6403 74.6072 64.5101C74.7881 64.3943 74.9472 64.1989 75.0558 63.9457C75.1571 63.743 75.2583 63.4247 75.2872 63.2437C75.3089 63.0628 75.2945 62.8023 75.2511 62.6431C75.2005 62.4622 75.0992 62.3392 74.9545 62.2669C74.8387 62.209 74.6289 62.1583 74.4987 62.1583C74.3757 62.1583 74.166 62.2234 74.0501 62.2958C73.9272 62.3682 73.7608 62.5274 73.674 62.6431Z" fill="white"/>
<path d="M123.028 13.6393C123.549 13.538 124.33 13.4077 124.764 13.3498C125.198 13.2992 126.276 13.2558 127.151 13.2485C128.027 13.2485 129.032 13.2775 129.394 13.3137C129.756 13.3571 130.356 13.4367 130.733 13.5018C131.109 13.5669 131.912 13.7406 132.505 13.8926C133.105 14.0445 133.995 14.3195 134.495 14.5076C134.994 14.6958 135.79 15.0359 136.267 15.2602C136.744 15.4918 137.476 15.8825 137.895 16.1286C138.315 16.3818 138.965 16.8015 139.341 17.0765C139.718 17.3442 140.34 17.8291 140.717 18.1475C141.093 18.4586 141.765 19.0954 142.199 19.5441C142.633 19.9999 143.219 20.644 143.488 20.9841C143.762 21.3242 144.276 22.0406 144.637 22.576C144.992 23.1115 145.513 24.0088 145.795 24.566C146.077 25.1232 146.454 25.9337 146.627 26.3751C146.808 26.8165 147.076 27.6125 147.235 28.1479C147.394 28.6834 147.596 29.5301 147.69 30.0294C147.792 30.5287 147.907 31.2595 147.958 31.6575C148.016 32.0845 148.052 33.0975 148.052 34.154C148.045 35.6085 148.016 36.115 147.886 36.9762C147.799 37.5551 147.647 38.3655 147.546 38.7852C147.452 39.2049 147.271 39.8706 147.148 40.2686C147.025 40.6666 146.794 41.3179 146.635 41.7159C146.475 42.1139 146.185 42.7651 145.997 43.1631C145.802 43.5611 145.476 44.1834 145.267 44.538C145.064 44.8926 144.681 45.5004 144.413 45.8767C144.153 46.253 143.741 46.8102 143.502 47.1069C143.262 47.4036 142.662 48.0693 142.163 48.5831C141.664 49.0896 140.934 49.7771 140.536 50.1099C140.137 50.4356 139.58 50.8625 139.305 51.0651C139.031 51.2677 138.488 51.6223 138.112 51.8466C137.736 52.0782 136.903 52.5196 136.267 52.8308C135.623 53.1419 134.582 53.5688 133.915 53.7932C133.257 54.0175 132.657 54.1984 132.577 54.1984C132.498 54.1912 132.078 53.8945 131.652 53.5254C131.224 53.1564 130.856 52.809 130.841 52.7512C130.827 52.6933 130.776 52.2012 130.733 51.6657C130.647 50.7111 130.653 50.6682 130.929 48.5822L130.942 48.4818C131.109 47.2661 131.253 46.2096 131.275 46.13C131.296 46.0287 131.384 45.9708 131.579 45.9346C131.833 45.884 131.905 45.9129 132.541 46.3471C132.891 46.5828 133.423 46.9564 133.769 47.1995L133.843 47.2516C134.183 47.4904 134.719 47.8233 135.037 47.9752C135.356 48.1344 135.826 48.3081 136.086 48.366C136.491 48.4528 136.621 48.4528 137.026 48.366C137.353 48.3009 137.562 48.2068 137.7 48.0693C137.888 47.8884 137.902 47.8233 137.888 47.4325C137.873 47.1503 137.91 46.926 137.982 46.7813C138.076 46.6003 138.17 46.5425 138.546 46.4556C138.792 46.3977 139.009 46.3254 139.023 46.2964C139.038 46.2602 139.016 46.0866 138.98 45.8984C138.936 45.7031 138.886 45.4932 138.871 45.4281C138.842 45.3268 138.965 45.2399 139.414 45.0301C139.862 44.8202 140 44.7189 139.992 44.6104C139.992 44.5308 139.927 44.2196 139.848 43.9229C139.768 43.6263 139.703 43.3513 139.703 43.3079C139.703 43.2644 139.833 43.1921 139.992 43.1487C140.151 43.098 140.442 42.9026 141.006 42.3671L140.673 41.8606C140.485 41.5784 140.209 41.0936 140.057 40.7752C139.913 40.4568 139.746 40.0154 139.703 39.7983C139.652 39.5812 139.624 39.2194 139.638 38.9951C139.66 38.6405 139.718 38.5102 140.036 38.0544C140.246 37.7577 140.478 37.3235 140.557 37.0847C140.637 36.8459 140.724 36.4551 140.753 36.2163C140.782 35.9775 140.767 35.5289 140.724 35.225C140.68 34.9138 140.55 34.3494 140.427 33.9731C140.303 33.5968 140.188 33.2857 140.159 33.2857C140.123 33.2857 140.029 33.4232 139.949 33.5896C139.862 33.7633 139.573 34.1613 139.298 34.4796C139.023 34.798 138.568 35.3335 138.286 35.6736C137.996 36.0137 137.526 36.5347 137.236 36.8387C136.766 37.3235 136.592 37.4465 135.833 37.8228C135.356 38.0544 134.408 38.4306 133.735 38.655C133.062 38.8793 131.919 39.2411 131.203 39.4654C130.487 39.6825 129.018 40.1239 127.947 40.4351C126.681 40.8114 125.784 41.1153 125.393 41.3107C125.068 41.4699 124.786 41.6363 124.764 41.6797C124.742 41.7231 124.793 41.7521 124.873 41.7521C124.974 41.7521 125.075 41.8606 125.205 42.0994C125.386 42.425 125.393 42.4612 125.314 42.9099C125.263 43.1704 125.14 43.7059 125.046 44.1038C124.945 44.5018 124.713 45.2689 124.533 45.8044C124.359 46.3398 124.048 47.1865 123.845 47.6858C123.643 48.1851 123.303 48.9594 123.093 49.408C122.854 49.8928 122.652 50.2329 122.572 50.2546C122.507 50.2691 122.341 50.3921 122.21 50.5224C122.08 50.6599 121.971 50.8336 121.979 50.9276C121.979 51.0145 122.037 51.1447 122.116 51.2171C122.239 51.3329 122.232 51.3835 121.328 54.0537L120.944 53.9379C120.742 53.8728 120.148 53.6557 119.628 53.4531C119.107 53.2505 118.296 52.8886 117.819 52.6426C117.341 52.3966 116.618 51.9913 116.206 51.7308C115.8 51.4776 115.149 51.0289 114.759 50.7395C114.375 50.45 113.739 49.929 113.341 49.5817C112.95 49.2343 112.306 48.5976 111.908 48.1561C111.51 47.7147 110.917 47.0056 110.584 46.5642C110.251 46.1228 109.76 45.4136 109.492 44.9722C109.224 44.5308 108.768 43.6914 108.479 43.0908C108.19 42.4974 107.821 41.6291 107.654 41.1732C107.488 40.7173 107.227 39.8562 107.076 39.2556C106.924 38.6622 106.721 37.6998 106.634 37.1209C106.49 36.2236 106.468 35.7822 106.468 34.0817C106.461 32.5331 106.49 31.9035 106.591 31.2233C106.663 30.7457 106.786 30.0438 106.873 29.6676C106.953 29.2913 107.126 28.6038 107.256 28.1479C107.394 27.6921 107.683 26.8599 107.908 26.3027C108.132 25.7455 108.523 24.8844 108.79 24.3851C109.051 23.8858 109.477 23.1549 109.731 22.7569C109.991 22.3589 110.454 21.7077 110.758 21.3097C111.062 20.9117 111.749 20.1374 112.284 19.5802C112.82 19.0303 113.623 18.285 114.057 17.9231C114.491 17.5613 115.28 16.9897 115.793 16.6496C116.314 16.3095 117.19 15.7957 117.746 15.5135C118.304 15.224 119.136 14.8477 119.591 14.6668C120.047 14.4859 120.8 14.2254 121.255 14.0879C121.711 13.9505 122.507 13.7478 123.028 13.6393Z" fill="#495B14"/>
<path fill-rule="evenodd" clip-rule="evenodd" d="M90.9997 14.479C91.0431 14.479 91.0865 14.5441 91.0865 14.631C91.0865 14.725 90.5801 18.3793 89.9651 22.7573C88.9451 29.9646 88.8365 30.7968 88.88 32.396L87.9394 32.4466C87.4259 32.4683 86.3696 32.5118 85.6028 32.5407C84.3874 32.5914 84.2137 32.5841 84.2209 32.49C84.2209 32.4322 84.2426 32.2368 84.3294 31.7302L83.8881 32.0269C83.6494 32.1934 83.3238 32.396 83.1647 32.4756C83.0055 32.5552 82.651 32.6854 82.3689 32.7723C82.094 32.8591 81.602 32.9459 81.2837 32.9676C80.9003 32.9966 80.5313 32.9749 80.1985 32.9025C79.9236 32.8446 79.4967 32.7071 79.2581 32.5914C78.9831 32.4611 78.6359 32.1934 78.3175 31.875C78.0427 31.5927 77.7025 31.1875 77.5724 30.9704C77.4494 30.7533 77.2324 30.283 77.1093 29.9212C76.8779 29.2844 76.8707 29.241 76.8707 28.0759C76.8707 27.0629 76.8923 26.7879 77.037 26.2307C77.1311 25.8761 77.3842 25.2249 77.5941 24.7834C77.8111 24.3493 78.1439 23.7776 78.3393 23.5171C78.5345 23.2566 78.947 22.808 79.2508 22.5257C79.5547 22.2363 80.0683 21.8238 80.401 21.6067C80.7266 21.3896 81.2258 21.1146 81.5007 20.9989C81.7829 20.8758 82.2821 20.7022 82.6221 20.6153C83.1285 20.4778 83.4323 20.4489 84.3222 20.4489C84.9226 20.4417 85.5231 20.4561 85.9138 20.514L86.1453 18.8859C86.2755 17.9886 86.384 16.9321 86.3913 16.5341C86.3985 16.1361 86.3768 15.6947 86.3045 15.3039L88.6051 14.8987C89.8711 14.6744 90.949 14.4862 90.9997 14.479ZM83.0923 23.0468C82.9332 23.1698 82.68 23.4303 82.528 23.6257C82.3761 23.8283 82.1446 24.1973 82.0289 24.4578C81.9058 24.7183 81.725 25.2393 81.6309 25.6156C81.5369 25.9919 81.4356 26.6287 81.4139 27.0267C81.3922 27.4536 81.4067 27.9602 81.4573 28.2568C81.5007 28.5318 81.6309 28.9588 81.7467 29.1976C81.8552 29.4364 82.0506 29.7186 82.1735 29.8343C82.3038 29.9429 82.5352 30.0587 82.6944 30.1021C82.9115 30.16 83.0851 30.1455 83.4034 30.0659C83.6277 30.0008 84.0038 29.8416 84.2354 29.7041C84.5754 29.4942 84.655 29.4074 84.684 29.2193C84.7057 29.089 84.8937 27.7069 85.1108 26.1583C85.3278 24.6098 85.5014 23.2421 85.5014 23.1264C85.4942 22.9454 85.4435 22.902 85.1614 22.7935C84.9806 22.7211 84.6695 22.6488 84.4669 22.6198C84.2064 22.5909 83.9966 22.6126 83.7362 22.7066C83.5409 22.7718 83.2443 22.9237 83.0923 23.0468ZM50.6092 16.961C50.9565 16.9683 51.0361 16.99 51.0144 17.0768C50.9999 17.1347 50.9347 17.4748 50.8624 17.8366C50.7901 18.1912 50.2547 21.8744 49.6687 26.0136C49.0899 30.1527 48.598 33.6117 48.5836 33.7057C48.5474 33.8577 48.5039 33.8649 47.7371 33.9011C47.2885 33.9156 46.5868 33.9518 45.4365 34.0097L41.4069 28.9443C39.1858 26.1511 37.3627 23.8862 37.3555 23.8934C37.341 23.9079 37.0589 25.8834 36.7189 28.293C36.1763 32.092 36.0967 32.7795 36.1401 34.2919L35.7422 34.328C35.5252 34.3498 34.6353 34.3859 32.1973 34.4438L32.2334 34.2774C32.2551 34.1906 32.7399 30.7461 33.3259 26.6287C34.2736 19.9134 34.3749 19.0595 34.3315 17.5255L36.1401 17.482C37.71 17.4386 37.956 17.4459 38.0211 17.5399C38.0645 17.5978 39.837 19.7832 41.9639 22.3883C44.0909 24.9933 45.8417 27.1208 45.8489 27.1135C45.8561 27.1063 46.1238 25.2249 46.4494 22.9382C46.7677 20.6515 47.0426 18.5024 47.0498 18.1622C47.0498 17.8221 47.0354 17.4386 46.9557 17.0768L47.4477 17.0696C47.7154 17.0623 48.4388 17.0334 49.0537 17.0044C49.6687 16.9755 50.3705 16.961 50.6092 16.961ZM97.0189 20.0003C98.0028 20.0147 98.4729 20.0581 98.7914 20.145C99.03 20.2173 99.3991 20.3548 99.616 20.4634C99.8259 20.5719 100.144 20.8107 100.318 20.9989C100.491 21.1942 100.701 21.4982 100.781 21.6863C100.868 21.8817 100.969 22.2435 101.005 22.504C101.048 22.7645 101.063 23.1842 101.034 23.4447C101.005 23.7053 100.86 24.6604 100.708 25.5794C100.557 26.4984 100.376 27.6852 100.311 28.2207C100.224 28.9081 100.195 29.4725 100.224 30.1383C100.245 30.652 100.311 31.2744 100.376 31.5132C100.441 31.7519 100.484 31.9546 100.477 31.969C100.463 31.9763 99.5075 32.0269 98.3428 32.0776C97.1852 32.121 96.2158 32.1499 96.1941 32.1282C96.1724 32.1065 96.129 31.9401 96.0421 31.4046L95.7528 31.6C95.5936 31.7085 95.203 31.9184 94.8847 32.0703C94.5663 32.2223 94.0599 32.396 93.7633 32.4611C93.3726 32.5479 93.0253 32.5624 92.5335 32.5335C92.1572 32.5118 91.687 32.4466 91.4844 32.396C91.2891 32.3453 90.9635 32.2223 90.761 32.1282C90.5656 32.0342 90.2328 31.7881 90.0302 31.5855C89.7843 31.3467 89.6107 31.0862 89.5094 30.804C89.3936 30.5146 89.3502 30.2251 89.3502 29.8271C89.3502 29.4725 89.4008 29.0962 89.4877 28.7996C89.5673 28.5391 89.7626 28.1338 89.9145 27.895C90.0737 27.6562 90.3558 27.3089 90.5511 27.128C90.7465 26.9398 91.101 26.6576 91.3397 26.4984C91.5785 26.3392 92.0632 26.0643 92.4249 25.8834C92.7867 25.7097 93.9152 25.2393 96.8018 24.1322L96.8452 23.7704C96.8814 23.4882 96.8597 23.3362 96.7367 23.0612C96.6209 22.8007 96.5124 22.6849 96.2809 22.5692C96.0204 22.4389 95.8975 22.4244 95.4996 22.4606C95.2392 22.4896 94.7689 22.5619 94.4506 22.6271C94.1323 22.6849 93.5463 22.8514 93.1484 22.9889C92.7504 23.1264 92.121 23.3869 91.7593 23.5605C91.3904 23.7342 91.0721 23.8572 91.0576 23.821C91.0359 23.7921 91.0865 23.3145 91.1661 22.7573C91.2456 22.2001 91.3181 21.6791 91.3325 21.5995C91.3542 21.5054 91.5495 21.3534 91.8606 21.187C92.1283 21.0423 92.5985 20.8252 92.8952 20.7094C93.1918 20.5936 93.6838 20.4272 93.9804 20.3404C94.2769 20.2608 94.7833 20.145 95.1017 20.0871C95.5213 20.0075 96.0566 19.9858 97.0189 20.0003ZM94.5229 27.1425C94.3276 27.3234 94.0744 27.6128 93.9658 27.7937C93.8573 27.9674 93.7199 28.322 93.6547 28.5825C93.5752 28.8719 93.5463 29.1686 93.5752 29.3568C93.6041 29.5521 93.6982 29.7547 93.8284 29.8995C94.0093 30.1021 94.0889 30.1383 94.3566 30.131C94.5301 30.131 94.7833 30.0876 94.9209 30.0297C95.0583 29.9791 95.3766 29.8054 95.6298 29.639L96.0855 29.3423C96.0783 28.6693 96.129 28.047 96.1869 27.5332C96.252 27.0122 96.3098 26.5201 96.3243 26.4261C96.3315 26.3392 96.3098 26.2669 96.2664 26.2741C96.223 26.2814 95.8975 26.3971 95.5358 26.5419C95.0872 26.73 94.7761 26.9109 94.5229 27.1425ZM73.5789 20.8179C73.9551 20.8397 74.4398 20.8975 74.6496 20.9554C74.8522 21.0133 75.156 21.1219 75.3151 21.2015C75.4743 21.2811 75.7276 21.4547 75.8794 21.5922C76.0242 21.7225 76.234 22.0119 76.3353 22.2218C76.4438 22.4389 76.5668 22.7862 76.6102 22.9889C76.6536 23.1987 76.6897 23.6546 76.6897 24.0019C76.6897 24.3999 76.5234 25.7893 76.2485 27.6779C75.8939 30.1021 75.7999 30.9343 75.7565 32.888L73.4559 32.9749C72.1899 33.0183 71.1481 33.0472 71.1409 33.0472C71.1337 33.04 71.3868 31.2092 71.6979 28.9805C72.0163 26.7517 72.2766 24.7834 72.2766 24.6025C72.2766 24.4216 72.2405 24.1539 72.2043 24.0092C72.1609 23.8572 72.0597 23.6835 71.9728 23.6257C71.8788 23.5678 71.6906 23.5171 71.5532 23.5171C71.4158 23.5171 71.0612 23.5822 70.7791 23.6618C70.4897 23.7414 70.1208 23.8717 69.9617 23.9513C69.788 24.0381 69.6578 24.1611 69.6361 24.2624C69.6216 24.3493 69.3829 25.9485 69.1224 27.8227C68.739 30.5218 68.6377 31.4191 68.6232 33.1268L67.8998 33.1702C67.5019 33.192 66.4673 33.2354 65.5992 33.2643C64.3621 33.3077 64.0293 33.3005 64.0293 33.2354C64.0293 33.1847 64.3404 30.9343 64.7238 28.2424C65.3387 23.9006 65.4184 23.2421 65.3894 22.5257C65.3821 22.0771 65.3749 21.708 65.3894 21.708C65.3967 21.708 66.4022 21.5271 67.6321 21.31C68.8547 21.0929 69.911 20.912 69.9833 20.912C70.0918 20.912 70.0991 20.9627 70.0629 21.2594C70.0412 21.4475 70.005 21.6574 69.9906 21.7297C69.9689 21.8238 70.0991 21.7731 70.526 21.5271C70.8298 21.3462 71.2783 21.1363 71.5171 21.0567C71.7558 20.9771 72.1609 20.8831 72.4214 20.8469C72.6818 20.8035 73.2027 20.7962 73.5789 20.8179ZM59.1822 21.2087C59.6596 21.2087 60.2311 21.2521 60.5205 21.31C60.8027 21.3679 61.2079 21.4909 61.4248 21.5778C61.6419 21.6646 62.0036 21.8383 62.2207 21.9685C62.4377 22.0915 62.7922 22.3593 63.0093 22.5475C63.2262 22.7428 63.5084 23.0685 63.6314 23.2638C63.7616 23.4665 63.9714 23.9223 64.1016 24.2769C64.2319 24.6315 64.3838 25.138 64.4416 25.3985C64.514 25.7242 64.5357 26.0426 64.4996 26.4478C64.4706 26.8241 64.4055 27.0918 64.3259 27.2076C64.2536 27.3089 64.1378 27.5694 64.0655 27.7865C63.9931 28.0036 63.8122 28.445 63.6604 28.7634C63.5084 29.0818 63.2624 29.5304 63.1105 29.7547C62.9585 29.9791 62.6547 30.3843 62.4377 30.6448C62.2207 30.9125 61.8156 31.325 61.5334 31.5638C61.2585 31.8026 60.781 32.1572 60.4843 32.3526C60.1877 32.5552 59.6162 32.8736 59.2183 33.0689C58.8204 33.2643 58.2489 33.5031 57.9523 33.6044C57.6557 33.7057 57.0986 33.836 56.7224 33.9083C56.2087 33.9952 55.8036 34.0169 55.1307 33.9879C54.5738 33.959 54.0167 33.8866 53.6839 33.7998C53.3873 33.7202 52.8809 33.5248 52.5625 33.3656C52.1864 33.1775 51.8318 32.9315 51.557 32.6565C51.3182 32.4249 51.0216 32.0776 50.8913 31.875C50.7611 31.6796 50.573 31.3033 50.4717 31.0428C50.3777 30.7823 50.2547 30.2975 50.2113 29.9574C50.1607 29.6173 50.139 29.0962 50.1607 28.7996C50.1824 28.4956 50.2981 27.9674 50.4211 27.5839C50.5441 27.2221 50.7901 26.6359 50.9637 26.2886C51.1373 25.934 51.4701 25.3913 51.7088 25.0729C51.9476 24.7545 52.4178 24.2335 52.7507 23.9151C53.0835 23.5967 53.6404 23.1553 53.9733 22.9237C54.3133 22.6994 54.8341 22.3883 55.1307 22.2218C55.4274 22.0626 56.0134 21.8165 56.433 21.6791C56.8526 21.5416 57.4531 21.3751 57.7714 21.3172C58.0897 21.2594 58.7263 21.2087 59.1822 21.2087ZM61.2079 25.3913C60.8316 25.6446 60.2746 25.9702 59.978 26.1222C59.6814 26.2741 59.1894 26.484 58.8928 26.5853C58.5961 26.6938 57.8655 26.9109 57.265 27.0629C56.6718 27.2148 55.9194 27.4391 55.601 27.5622C55.2827 27.6852 54.7473 27.9529 54.4073 28.1628C54.0673 28.3726 53.503 28.8285 53.1413 29.1686C52.7868 29.5159 52.3455 29.9935 52.1647 30.2396C51.9838 30.4856 51.6655 30.9704 51.4484 31.3178L51.0578 31.9473C52.3093 30.7389 52.9604 30.2034 53.4307 29.8922C53.872 29.6028 54.5521 29.1976 54.9499 28.9949C55.3478 28.7996 55.9483 28.5318 56.2883 28.3943C56.6283 28.2641 57.3084 28.0398 57.8075 27.895C58.3068 27.7503 58.9579 27.5332 59.2545 27.4174C59.5511 27.3089 60.0575 27.0484 60.3759 26.853C60.6942 26.6576 61.2079 26.2596 61.5262 25.9702C61.8372 25.6735 62.2496 25.2249 62.445 24.9644C62.6402 24.7039 62.9079 24.2769 63.0454 24.0019C63.1828 23.7342 63.2914 23.5243 63.2842 23.5316C63.2768 23.5316 62.9585 23.85 62.5824 24.2335C62.1845 24.6387 61.6057 25.1236 61.2079 25.3913ZM78.3899 34.7405C79.0844 34.7333 79.6993 34.7767 80.09 34.8418C80.43 34.9069 80.7412 34.9793 80.7918 35.0083C80.8496 35.0444 80.799 35.3049 80.5964 35.9634C80.4445 36.4627 80.2347 37.1502 79.9453 38.1343H79.6415C79.381 38.1271 79.2798 38.0837 79.0265 37.8449C78.8529 37.6857 78.5996 37.5048 78.4622 37.4469C78.3247 37.389 78.0209 37.3383 77.7967 37.3383C77.5073 37.3383 77.3047 37.3817 77.1456 37.483C77.0153 37.5626 76.8417 37.758 76.7621 37.9172C76.6825 38.0764 76.5668 38.3948 76.5088 38.6264C76.451 38.8507 76.357 39.3717 76.2919 39.7842C76.234 40.1894 76.1833 40.5729 76.1833 40.6308C76.1833 40.7249 76.3425 40.7321 78.6431 40.6308V40.8479C78.6431 40.9637 78.6069 41.2748 78.5707 41.5353C78.5345 41.7958 78.4839 42.107 78.4188 42.4399L78.6938 42.1794C78.8456 42.0419 79.0989 41.8248 79.2581 41.7018C79.4172 41.5788 79.7427 41.3617 79.9815 41.2242C80.2202 41.0867 80.676 40.8624 80.9943 40.7394C81.3126 40.6091 81.8624 40.4354 82.2241 40.3558C82.7523 40.2328 83.114 40.2111 84.1414 40.2111C85.1759 40.2111 85.5086 40.2401 85.95 40.3558C86.2466 40.4427 86.7023 40.6091 86.9628 40.7394C87.2233 40.8768 87.585 41.1301 87.7659 41.311C87.9467 41.4919 88.1927 41.8393 88.3157 42.0781C88.4387 42.3169 88.5906 42.7076 88.6557 42.9464C88.728 43.2069 88.7931 43.8075 88.8582 45.4791L89.0608 44.864C89.1621 44.5239 89.3574 44.0391 89.4949 43.7786C89.6251 43.5181 89.8639 43.1128 90.0375 42.874C90.2039 42.6352 90.6307 42.1649 90.9853 41.832C91.3397 41.4992 91.8896 41.065 92.2079 40.8696C92.5262 40.6815 93.047 40.421 93.3653 40.2979C93.6838 40.1749 94.219 40.0085 94.5591 39.9217C95.0727 39.7914 95.3838 39.7697 96.5124 39.7697C97.67 39.7769 97.9304 39.7986 98.4296 39.9361C98.7479 40.023 99.1965 40.1966 99.4352 40.3269C99.6667 40.4571 100.014 40.7321 100.209 40.942C100.405 41.1446 100.651 41.5064 100.759 41.738C100.86 41.9623 100.998 42.3169 101.049 42.5122C101.106 42.7148 101.164 43.2359 101.193 43.67C101.215 44.1114 101.215 44.7772 101.186 45.1535C101.157 45.5297 101.114 45.8771 101.085 45.9277C101.048 45.9856 100.093 46.0435 97.8508 46.1231C96.1001 46.1882 94.277 46.2606 92.9313 46.3257L92.9892 46.825C93.0181 47.1 93.1122 47.5125 93.199 47.744C93.3003 47.9973 93.5029 48.3085 93.7344 48.5545C93.973 48.815 94.2624 49.0248 94.5663 49.1696C95.0004 49.3722 95.08 49.3867 95.8613 49.3794C96.469 49.3722 96.9103 49.3215 97.4891 49.184C97.9304 49.09 98.6249 48.8729 99.0445 48.7137C99.4641 48.5545 99.8331 48.4459 99.862 48.4749C99.8909 48.4966 99.8548 48.9887 99.768 49.5676C99.6305 50.5372 99.6088 50.6313 99.4208 50.776C99.3122 50.8629 98.9505 51.0799 98.6105 51.2608C98.2704 51.4345 97.7061 51.6805 97.3444 51.8108C96.9826 51.9338 96.3677 52.1002 95.9698 52.1871C95.3983 52.3101 94.9932 52.339 94.0165 52.339C93.0036 52.339 92.6926 52.3173 92.2441 52.1943C91.9474 52.1147 91.4555 51.9266 91.1588 51.7746C90.761 51.572 90.4644 51.3477 90.0302 50.9135C89.6034 50.4793 89.3791 50.1826 89.1839 49.7847C89.0391 49.488 88.8582 49.0321 88.7931 48.7716C88.7063 48.4532 88.6702 48.0118 88.663 47.3822C88.663 46.8684 88.6485 46.456 88.6268 46.456C88.6051 46.456 86.8977 46.5211 84.8286 46.6007C82.7595 46.6803 80.9509 46.7454 80.5602 46.7454L80.6109 47.3026C80.647 47.7296 80.7266 47.9901 80.9075 48.3736C81.0595 48.6847 81.2837 48.9887 81.4718 49.1623C81.6455 49.3143 81.971 49.5241 82.188 49.6327C82.5498 49.8064 82.6583 49.8208 83.4541 49.8136C84.0038 49.8136 84.5465 49.7629 84.9371 49.6833C85.2772 49.611 85.8414 49.4518 86.2032 49.3288C86.5649 49.213 86.9917 49.0538 87.1654 48.9814C87.3317 48.9018 87.4837 48.8657 87.4982 48.9018C87.5126 48.9308 87.462 49.4228 87.3897 50.0017C87.2522 50.9642 87.2305 51.0655 87.0496 51.2174C86.9411 51.3043 86.4926 51.5575 86.0585 51.7746C85.6245 51.9917 85.0023 52.2522 84.684 52.3535C84.3657 52.4548 83.8447 52.5923 83.5264 52.6502C83.2081 52.7153 82.5063 52.7805 81.971 52.8022C81.2403 52.8311 80.8207 52.8094 80.307 52.7226C79.9309 52.6502 79.4099 52.5127 79.1495 52.4042C78.889 52.2956 78.4622 52.0496 78.1945 51.8615C77.9196 51.6733 77.5434 51.3187 77.3408 51.0727C77.1456 50.8194 76.8851 50.4214 76.7693 50.1826C76.6464 49.9438 76.5016 49.5531 76.4365 49.3143C76.3714 49.0755 76.2991 48.5255 76.2774 48.0841C76.2557 47.5269 76.2774 47.0711 76.3642 46.5645C76.4293 46.1665 76.5596 45.6021 76.6608 45.3199C76.7548 45.0304 76.9502 44.5529 77.0948 44.2706C77.2396 43.9812 77.4711 43.5904 77.8473 43.055L76.8562 43.0984C76.3063 43.1273 75.8505 43.149 75.8361 43.1563C75.8288 43.1563 75.5684 44.8712 75.2717 46.9625C74.8088 50.1465 74.7147 50.928 74.7002 52.7949L72.3852 52.8818C71.112 52.9252 70.0629 52.9541 70.0484 52.9469C70.0412 52.9396 70.3378 50.7688 70.714 48.1203C71.0829 45.4719 71.3868 43.301 71.3796 43.2937C71.3796 43.2937 70.6417 43.3155 69.7446 43.3516C68.8475 43.3878 68.1024 43.4385 68.0806 43.4602C68.0589 43.4819 67.8058 45.1824 67.5092 47.2375C67.0606 50.378 66.9738 51.1451 66.9665 52.0134C66.9593 52.9831 66.9521 53.0482 66.8146 53.0771C66.735 53.0916 65.6933 53.135 64.4996 53.1712C63.3059 53.2146 62.3219 53.2363 62.3074 53.2291C62.293 53.2291 62.5896 51.051 63.6314 43.5615L61.6274 43.67L61.6708 43.4891C61.6925 43.3878 61.7648 42.9319 61.8228 42.4761C61.8879 42.0202 61.953 41.5643 61.9747 41.463C62.0036 41.2821 62.0181 41.2821 62.9658 41.2242C63.4867 41.1952 63.928 41.1663 63.9425 41.1518C63.9497 41.1446 64.0221 40.8262 64.0944 40.4499C64.1667 40.0736 64.3331 39.502 64.4561 39.1836C64.5791 38.8652 64.8179 38.3948 64.9842 38.1343C65.1579 37.8738 65.4907 37.4758 65.7294 37.237C65.9681 37.0055 66.4239 36.6581 66.7422 36.4627C67.0606 36.2674 67.5887 36.0069 67.9215 35.8911C68.247 35.7681 68.8186 35.6233 69.1875 35.5582C69.6795 35.4714 70.1208 35.4497 70.866 35.4786C71.5677 35.5003 72.0089 35.5582 72.2983 35.645C72.5299 35.7246 72.7108 35.8187 72.7108 35.8549C72.7108 35.8983 72.472 36.5206 71.6617 38.5685H71.3723C71.1843 38.5757 71.0468 38.5323 70.9745 38.4527C70.9166 38.3803 70.7357 38.2718 70.5766 38.1994C70.4174 38.1271 70.1425 38.0619 69.9617 38.0619C69.7807 38.0619 69.5275 38.1198 69.3829 38.1994C69.2092 38.2863 69.0646 38.4527 68.9343 38.7204C68.8186 38.9375 68.6883 39.3355 68.6304 39.6177C68.5726 39.9 68.5003 40.3269 68.4062 41.036L69.6723 40.9926C70.3668 40.9709 71.112 40.9347 71.3217 40.9203C71.5315 40.8986 71.7124 40.8479 71.7269 40.7972C71.7414 40.7466 71.8065 40.392 71.8715 40.0157C71.9439 39.6394 72.1031 39.0533 72.226 38.7132C72.3563 38.3731 72.5733 37.91 72.7108 37.6712C72.8482 37.4396 73.1448 37.0561 73.3619 36.8173C73.5789 36.5713 73.9406 36.2384 74.1577 36.072C74.3747 35.8983 74.7654 35.6523 75.0259 35.5076C75.2862 35.3701 75.6914 35.1819 75.9302 35.1023C76.1688 35.0155 76.574 34.8997 76.8345 34.8491C77.1093 34.7839 77.7605 34.7405 78.3899 34.7405ZM94.7038 42.3747C94.5229 42.4978 94.2624 42.7583 94.1106 42.9536C93.9658 43.149 93.7489 43.5181 93.6258 43.7786C93.5029 44.0391 93.4161 44.2489 93.4233 44.2562C93.4305 44.2562 94.2552 44.2272 95.2464 44.191C96.4618 44.1476 97.0767 44.097 97.1129 44.0463C97.1418 43.9957 97.1491 43.7786 97.1274 43.5615C97.1057 43.3444 97.0478 43.0477 97.0044 42.9102C96.9609 42.7727 96.8452 42.5484 96.7367 42.4109C96.6354 42.2734 96.4401 42.1142 96.3171 42.0636C96.1869 42.0129 95.9698 41.9695 95.8469 41.9768C95.7166 41.9768 95.4778 42.0202 95.3187 42.0708C95.1595 42.1215 94.8847 42.259 94.7038 42.3747ZM82.2966 42.8523C82.1012 42.9971 81.8335 43.2576 81.7033 43.424C81.5803 43.5977 81.3778 43.9522 81.2547 44.2127C81.1318 44.4733 81.045 44.6903 81.0522 44.6976C81.0595 44.7048 81.7684 44.6759 82.6221 44.6469C83.4758 44.6107 84.3005 44.5818 84.4524 44.5746H84.7201C84.684 43.5832 84.6405 43.3661 84.5031 43.0984C84.3946 42.8813 84.2209 42.6859 84.069 42.5991C83.9315 42.5195 83.6855 42.4399 83.5264 42.4254C83.3672 42.4182 83.1068 42.4471 82.9477 42.4978C82.7884 42.5484 82.4991 42.7076 82.2966 42.8523ZM56.8309 41.1301C57.3807 41.1518 57.9523 41.2097 58.2055 41.2748C58.4442 41.34 58.9362 41.5353 59.2906 41.709C59.6669 41.8972 60.1226 42.1938 60.3686 42.4182C60.6074 42.628 60.904 42.9681 61.0414 43.1635C61.1717 43.3661 61.4031 43.8871 61.5406 44.3213C61.7939 45.0956 61.8011 45.139 61.7648 46.0218C61.7431 46.7527 61.6997 47.0494 61.5334 47.5414C61.4248 47.8815 61.1717 48.4821 60.9691 48.8801C60.7665 49.2781 60.412 49.8498 60.1877 50.1465C59.9635 50.4431 59.5077 50.9424 59.1749 51.2608C58.8421 51.572 58.3068 51.9989 57.9884 52.216C57.6701 52.4259 57.0046 52.7949 56.5054 53.0337C56.0061 53.2725 55.29 53.5547 54.9138 53.656C54.3712 53.808 54.0022 53.8587 53.1775 53.8876C52.2948 53.9165 52.0127 53.9021 51.405 53.7718C50.913 53.6705 50.4717 53.5258 50.0304 53.3015C49.553 53.0627 49.2563 52.8528 48.9236 52.52C48.6776 52.2667 48.475 52.0207 48.475 51.9772C48.475 51.9266 48.446 51.8832 48.4027 51.8832C48.3665 51.8832 48.2363 51.695 48.1205 51.4707C48.0048 51.2391 47.86 50.8918 47.795 50.6892C47.7226 50.4938 47.6358 50.0813 47.5996 49.7847C47.5562 49.4301 47.5562 49.0321 47.5996 48.6269C47.6431 48.2868 47.7588 47.7513 47.86 47.4329C47.9686 47.1145 48.1567 46.6297 48.2942 46.3474C48.4243 46.0652 48.7065 45.5804 48.9236 45.262C49.1334 44.9436 49.5674 44.4226 49.8857 44.097C50.2041 43.7713 50.7394 43.3082 51.0794 43.055C51.4195 42.8089 51.9042 42.4905 52.1647 42.3458C52.425 42.2011 52.9098 41.9623 53.2498 41.8176C53.5898 41.6728 54.0746 41.4919 54.335 41.4268C54.5955 41.3544 55.0512 41.2604 55.3478 41.2025C55.6878 41.1446 56.2449 41.1156 56.8309 41.1301ZM59.0737 44.9726C58.7987 45.1896 58.2923 45.5297 57.9523 45.7324C57.6123 45.935 57.0118 46.2244 56.6138 46.3836C56.216 46.5356 55.3695 46.7961 54.7329 46.9625C54.0963 47.1217 53.3945 47.3243 53.1775 47.4039C52.9604 47.4835 52.5336 47.6789 52.237 47.8381C51.9404 47.9973 51.4556 48.3157 51.159 48.54C50.8624 48.7643 50.4211 49.1696 50.1824 49.4301C49.9364 49.6906 49.5457 50.1971 49.2997 50.5517C49.061 50.9063 48.7861 51.326 48.692 51.4852C48.5402 51.7384 48.598 51.695 49.1479 51.1812C49.4951 50.8484 50.0449 50.378 50.3777 50.1392C50.7033 49.8932 51.282 49.5097 51.6582 49.2926C52.0344 49.0683 52.7072 48.7354 53.1413 48.5473C53.5826 48.3591 54.2772 48.1058 54.6967 47.9756C55.1163 47.8526 55.7529 47.65 56.1075 47.5269C56.4692 47.4039 57.0046 47.1868 57.3012 47.0349C57.5978 46.8829 58.0391 46.6152 58.2778 46.4343C58.5166 46.2606 58.9 45.9205 59.1388 45.6889C59.3703 45.4501 59.7031 45.0811 59.8694 44.864C60.0358 44.6469 60.2963 44.2489 60.4409 43.9812C60.5785 43.7062 60.6869 43.4891 60.6797 43.4891C60.6725 43.4891 60.4192 43.7352 60.1226 44.0391C59.826 44.3358 59.3557 44.7555 59.0737 44.9726ZM78.3682 59.4812H79.0121C79.3955 59.4812 79.6559 59.5102 79.6559 59.5536C79.6559 59.5898 79.6053 59.8503 79.4389 60.639H78.7878C78.2018 60.639 78.1367 60.6245 78.1656 60.516C78.1873 60.4436 78.2379 60.1831 78.2886 59.9371L78.3682 59.4812ZM46.7605 59.5536H47.4332C47.8383 59.5536 48.106 59.5825 48.106 59.6259C48.106 59.6621 47.8311 61.0081 47.4911 62.6073C47.1511 64.2065 46.8617 65.5741 46.84 65.6465C46.8111 65.755 46.717 65.7767 46.1528 65.7767C45.6825 65.7767 45.5016 65.7478 45.5016 65.6827C45.5016 65.632 45.7837 64.2354 46.1311 62.5711L46.7605 59.5536ZM51.8825 59.5536H52.4902C52.9387 59.5536 53.0907 59.5753 53.069 59.6476C53.0545 59.6911 52.8881 60.2772 52.3382 62.1586H51.9187C51.5279 62.1586 51.5062 62.1514 51.5425 61.9994C51.557 61.9054 51.6293 61.4278 51.6871 60.9285C51.7522 60.4292 51.8173 59.9154 51.839 59.7924L51.8825 59.5536ZM63.2262 59.5536L63.2407 60.4002C63.2407 60.8706 63.2696 61.9054 63.3348 64.1703L64.3476 61.8836C64.9047 60.6318 65.3967 59.5898 65.4328 59.5753C65.4762 59.5608 65.9175 59.5536 67.321 59.5898L66.0116 65.7406L65.3821 65.755C64.9119 65.7695 64.7455 65.7478 64.7455 65.6827C64.7527 65.632 64.9553 64.6189 65.2158 63.425C65.469 62.231 65.6715 61.2396 65.6643 61.2324C65.657 61.2251 65.1941 62.2455 63.6242 65.7767H62.2857L62.2713 60.9646L61.2368 65.7767H60.6074C60.26 65.7767 59.9708 65.7478 59.9708 65.7188C59.9708 65.6899 60.2528 64.3657 60.5857 62.7737C60.9257 61.1817 61.2151 59.7996 61.2368 59.7128C61.2729 59.5536 61.3019 59.5536 63.2262 59.5536ZM91.5495 59.5536L91.3542 60.5088C91.2456 61.037 90.9562 62.4336 90.2473 65.7767H89.6179C89.2707 65.7767 88.9813 65.755 88.974 65.7333C88.974 65.7116 89.249 64.3874 89.589 62.7882C89.929 61.1817 90.2256 59.7996 90.2473 59.7128C90.2835 59.5608 90.3196 59.5536 91.5495 59.5536ZM49.8785 59.9154C50.327 59.9154 50.4934 59.9371 50.4934 60.0022C50.4934 60.0529 50.4428 60.2917 50.385 60.5305C50.327 60.762 50.2764 61.0008 50.2764 61.0515C50.2764 61.1094 50.385 61.1383 50.5875 61.1383C50.7539 61.1383 50.913 61.16 50.942 61.1962C50.971 61.2251 50.9637 61.3482 50.9347 61.4712C50.8985 61.587 50.8479 61.7751 50.8262 61.8836C50.7901 62.0718 50.7611 62.0863 50.4211 62.0863C50.139 62.0863 50.0522 62.108 50.0232 62.2093C50.0087 62.2816 49.8785 62.875 49.7411 63.5335C49.6036 64.1848 49.5096 64.7492 49.524 64.7781C49.5385 64.8071 49.6976 64.836 49.8785 64.836C50.0594 64.836 50.2041 64.8577 50.2041 64.8867C50.2041 64.9156 50.1751 65.0531 50.139 65.1978C50.1028 65.3353 50.0522 65.5379 49.987 65.8491L49.307 65.8274C48.7427 65.8129 48.5908 65.784 48.4243 65.661C48.2652 65.5452 48.2073 65.4366 48.1928 65.2268C48.1856 65.0676 48.3014 64.3223 48.4677 63.5697C48.6269 62.8099 48.7571 62.1659 48.7571 62.1369C48.7571 62.108 48.6269 62.0863 48.4677 62.0863C48.3086 62.0863 48.1784 62.0573 48.1784 62.0284C48.1784 61.9994 48.2217 61.7896 48.3593 61.1383H48.6703C48.9019 61.1383 48.9814 61.1094 49.0031 61.0153C49.0248 60.9429 49.0754 60.7114 49.1188 60.4943C49.1696 60.27 49.2202 60.0529 49.2346 60.0022C49.2563 59.9371 49.4517 59.9154 49.8785 59.9154ZM55.5215 61.0008C55.7602 61.0008 56.1292 61.0442 56.3389 61.1021C56.5488 61.1673 56.8164 61.2975 56.9322 61.3988C57.0914 61.5218 57.1709 61.681 57.236 61.956C57.2795 62.1659 57.294 62.3902 57.2723 62.4625C57.2288 62.5711 57.1275 62.5928 56.6066 62.5928C56.0423 62.5928 55.9917 62.5783 55.9917 62.4481C55.9917 62.3685 55.9266 62.2382 55.847 62.1586C55.7384 62.0428 55.6083 62.0139 55.3044 62.0139C54.9716 62.0139 54.8704 62.0428 54.7256 62.1948C54.6244 62.2889 54.5447 62.3974 54.5447 62.4264C54.5447 62.4553 54.581 62.5204 54.6316 62.5638C54.6823 62.6145 55.0512 62.7375 55.4491 62.8461C55.847 62.9546 56.2883 63.0993 56.4258 63.1717C56.5632 63.2368 56.7441 63.3671 56.8237 63.4611C56.9177 63.5625 56.9829 63.7578 56.9973 63.9894C57.0263 64.2788 56.9901 64.4525 56.8454 64.7637C56.7369 64.9808 56.5343 65.2557 56.3824 65.386C56.2304 65.5162 55.9555 65.6754 55.7747 65.7406C55.5938 65.8057 55.1742 65.878 54.8341 65.8998C54.4797 65.9215 54.0529 65.8998 53.8213 65.8491C53.6043 65.8057 53.3149 65.6754 53.1775 65.5669C53.04 65.4656 52.8881 65.2702 52.8302 65.1399C52.7796 65.0097 52.7361 64.7564 52.7361 64.2571H53.3873C54.0167 64.2571 54.0384 64.2571 54.0384 64.4163C54.0384 64.5032 54.0673 64.6117 54.0963 64.6624C54.1252 64.7058 54.2192 64.7781 54.3133 64.8216C54.4001 64.865 54.6389 64.9084 54.8341 64.9084C55.0367 64.9084 55.2755 64.8722 55.3767 64.836C55.4781 64.7926 55.5938 64.6841 55.6444 64.5972C55.7095 64.4597 55.7023 64.4163 55.5866 64.3223C55.5143 64.2644 55.1307 64.1269 54.7473 64.0183C54.3567 63.9098 53.9081 63.7578 53.749 63.6782C53.5898 63.5986 53.409 63.4539 53.3511 63.3671C53.2932 63.2802 53.2426 63.0776 53.2426 62.9184C53.2426 62.752 53.286 62.4987 53.3366 62.3468C53.3873 62.1876 53.5247 61.9415 53.6478 61.804C53.7707 61.6593 53.995 61.4567 54.1541 61.3626C54.3133 61.2613 54.581 61.1455 54.7618 61.0949C54.9427 61.0442 55.2827 61.0081 55.5215 61.0008ZM70.0267 61.037C70.2872 61.0515 70.6417 61.1166 70.8226 61.1745C71.0034 61.2324 71.2277 61.3699 71.3289 61.4712C71.4809 61.6304 71.5098 61.7317 71.5098 62.108C71.5098 62.354 71.3796 63.15 71.2204 63.9026C70.9672 65.0893 70.9455 65.2702 71.0323 65.4222C71.0829 65.5162 71.112 65.632 71.0829 65.6827C71.054 65.7478 70.8298 65.7767 69.665 65.7767V65.3426L69.3973 65.5162C69.2454 65.6175 68.9632 65.7478 68.7607 65.8129C68.5653 65.8708 68.2687 65.9215 68.1096 65.9142C67.9504 65.9142 67.6827 65.8491 67.5164 65.7695C67.3427 65.6899 67.1618 65.5524 67.0967 65.4656C67.0389 65.3787 66.9738 65.1906 66.9448 65.0531C66.9159 64.9012 66.9448 64.6262 67.0172 64.3801C67.0967 64.1124 67.227 63.8591 67.4078 63.6638C67.5525 63.4973 67.8058 63.3019 67.9649 63.2368C68.1241 63.1645 68.4641 63.0704 68.7246 63.027C68.9849 62.9836 69.3756 62.9112 69.5926 62.875C69.8097 62.8316 70.0484 62.7448 70.1208 62.6796C70.1931 62.6073 70.251 62.477 70.251 62.3902C70.2438 62.3033 70.1786 62.1948 70.0991 62.1586C70.0195 62.1152 69.8024 62.079 69.6144 62.079C69.3756 62.079 69.2092 62.1224 69.0718 62.2237C68.9632 62.3033 68.8547 62.4408 68.833 62.5204C68.8041 62.6507 68.739 62.6652 67.4947 62.6652L67.5815 62.4264C67.6321 62.2961 67.7695 62.0428 67.8926 61.8692C68.0155 61.681 68.2543 61.4639 68.4352 61.3626C68.616 61.2613 68.9415 61.1383 69.1586 61.0949C69.3756 61.0442 69.7663 61.0153 70.0267 61.037ZM69.3033 63.7795C69.0067 63.8447 68.6883 63.946 68.6015 64.0039C68.5075 64.0618 68.3844 64.2209 68.3266 64.3657C68.247 64.5466 68.2398 64.6551 68.2904 64.7637C68.3338 64.8433 68.4569 64.9229 68.5653 64.9518C68.6738 64.9735 68.8837 64.959 69.0356 64.9156C69.1803 64.8722 69.4046 64.742 69.5275 64.6334C69.6506 64.5249 69.7952 64.3078 69.8603 64.1486C69.9183 63.9822 69.9544 63.794 69.94 63.7216C69.9255 63.6493 69.8966 63.6059 69.882 63.6276C69.8603 63.6493 69.5999 63.7216 69.3033 63.7795ZM82.2893 61.0081C82.3689 61.0008 82.6293 61.0298 82.8681 61.0732C83.1068 61.1166 83.4251 61.2324 83.5771 61.3265C83.7217 61.4278 83.8954 61.6159 83.9532 61.7606C84.0111 61.8981 84.0618 62.2093 84.0618 62.8822H83.4106C82.7668 62.8822 82.7595 62.875 82.7595 62.7013C82.7595 62.6 82.7378 62.4625 82.7089 62.3974C82.68 62.3323 82.5643 62.2382 82.4557 62.1803C82.3255 62.1152 82.1591 62.1007 81.9855 62.1369C81.8335 62.1659 81.6164 62.2816 81.4863 62.4046C81.3633 62.5277 81.1969 62.8099 81.1101 63.0414C81.0232 63.273 80.9292 63.6276 80.9075 63.8374C80.8713 64.0979 80.8858 64.2933 80.9581 64.4597C81.016 64.5972 81.1173 64.7347 81.1896 64.7709C81.2547 64.8071 81.4429 64.836 81.602 64.836C81.8046 64.836 81.9566 64.7781 82.094 64.6624C82.2024 64.5683 82.34 64.3874 82.5063 64.0328H83.1429C83.512 64.0328 83.7724 64.069 83.7724 64.1124C83.7724 64.1486 83.6928 64.3367 83.5987 64.5249C83.5047 64.713 83.2515 65.0314 83.0417 65.234C82.8246 65.4439 82.4918 65.661 82.2893 65.7406C82.0216 65.8419 81.7467 65.8853 81.2403 65.8853C80.647 65.8853 80.5169 65.8563 80.2636 65.7116C80.1044 65.6175 79.9236 65.4728 79.8658 65.386C79.8078 65.3064 79.721 65.14 79.6704 65.0169C79.627 64.8939 79.5836 64.5393 79.5836 64.2209C79.5764 63.8736 79.627 63.4756 79.6921 63.2441C79.7572 63.0197 79.8875 62.6869 79.9815 62.4987C80.0755 62.3106 80.2853 62.0139 80.4373 61.8475C80.5892 61.681 80.893 61.4422 81.1029 61.3265C81.3198 61.2107 81.6382 61.0949 81.819 61.0659C81.9999 61.037 82.2097 61.0081 82.2893 61.0081ZM87.2088 61.037C87.4476 61.0587 87.7731 61.1094 87.9322 61.1528C88.0914 61.1962 88.3302 61.3409 88.4604 61.4784C88.6557 61.681 88.6919 61.7751 88.6919 62.0501C88.6919 62.2237 88.5617 62.9835 88.4025 63.7289C88.2433 64.4742 88.1131 65.1617 88.1131 65.2485C88.1131 65.3353 88.1493 65.4294 88.1854 65.4511C88.2288 65.4656 88.2578 65.5524 88.2578 65.632C88.2578 65.7623 88.2144 65.7695 86.8471 65.7406L86.8109 65.3426L86.4709 65.5597C86.2828 65.6754 86.0079 65.8057 85.8704 65.8491C85.7329 65.8853 85.4797 65.9142 85.3134 65.9142C85.1397 65.9142 84.8792 65.8636 84.7346 65.8057C84.5826 65.7406 84.4018 65.6392 84.3294 65.5669C84.2571 65.5018 84.1703 65.3209 84.1269 65.1617C84.0763 64.959 84.0763 64.7492 84.1269 64.5104C84.1703 64.3078 84.2788 64.0328 84.3729 63.8953C84.4597 63.7578 84.6623 63.5407 84.8214 63.4177C85.024 63.2585 85.2772 63.1572 85.6534 63.0776C85.95 63.0125 86.4057 62.9257 86.6662 62.8822C86.9266 62.8388 87.1943 62.7448 87.2666 62.6796C87.339 62.6073 87.3969 62.477 87.3969 62.3902C87.3897 62.3033 87.3245 62.1948 87.245 62.1586C87.1654 62.1152 86.9483 62.079 86.7603 62.079C86.5215 62.079 86.3551 62.1224 86.2177 62.2237C86.1091 62.3033 86.0006 62.4408 85.9789 62.5204C85.95 62.6507 85.8849 62.6652 85.3278 62.6652C84.7925 62.6652 84.7129 62.6434 84.7129 62.5349C84.7129 62.4625 84.8142 62.2382 84.9299 62.0284C85.0529 61.8185 85.2409 61.587 85.3495 61.5146C85.458 61.4422 85.6534 61.3265 85.7836 61.2613C85.9138 61.1962 86.1888 61.1094 86.3985 61.0732C86.6083 61.037 86.97 61.0225 87.2088 61.037ZM86.2683 63.823C85.9572 63.8881 85.7763 63.9677 85.6389 64.1196C85.4942 64.2644 85.4363 64.4019 85.4363 64.5828C85.4363 64.7709 85.4797 64.8505 85.6028 64.9156C85.6895 64.959 85.8777 64.9735 86.0151 64.9518C86.1525 64.9229 86.3768 64.836 86.5071 64.7564C86.6373 64.6768 86.7892 64.5393 86.8471 64.4525C86.9049 64.3657 86.999 64.1341 87.0569 63.946C87.1075 63.7578 87.1509 63.6059 87.1437 63.6059C87.1437 63.6131 87.0424 63.642 86.9194 63.6782C86.8037 63.7072 86.5071 63.7723 86.2683 63.823ZM78.0136 61.1455H78.6504C79.0265 61.1455 79.287 61.1745 79.287 61.2179C79.287 61.2541 79.0772 62.2816 78.8167 63.4973C78.5562 64.7058 78.3465 65.7188 78.3465 65.7406C78.3465 65.755 78.0571 65.7767 77.6953 65.7767C77.1165 65.7767 77.0515 65.7623 77.0732 65.6465C77.0876 65.5741 77.3047 64.5321 77.5507 63.3309L78.0136 61.1455Z" fill="white"/>
<path d="M129.785 41.4699C129.922 41.3686 130.204 41.2238 130.4 41.1515C130.66 41.0646 130.892 41.0357 131.166 41.0574C131.384 41.0791 131.724 41.1732 131.926 41.2745C132.121 41.3686 132.411 41.5929 132.563 41.7593C132.714 41.933 132.888 42.2442 132.953 42.4395C133.033 42.6856 133.054 42.9533 133.033 43.2717C133.011 43.5322 132.946 43.8506 132.881 43.9809C132.808 44.1039 132.649 44.3282 132.519 44.4729C132.396 44.6176 132.121 44.8203 131.926 44.9288C131.63 45.0808 131.463 45.1097 131.022 45.1097C130.58 45.1097 130.414 45.0808 130.117 44.9288C129.915 44.8203 129.647 44.6104 129.51 44.4584C129.372 44.2992 129.199 44.046 129.126 43.8868C129.054 43.7131 128.996 43.4237 128.996 43.1632C128.996 42.9244 129.047 42.5843 129.112 42.4034C129.17 42.2224 129.293 41.9836 129.38 41.8679C129.466 41.7521 129.654 41.5712 129.785 41.4699Z" fill="#425526"/>
<path fill-rule="evenodd" clip-rule="evenodd" d="M126.609 17.4095C126.667 17.424 128.136 17.9884 129.865 18.6686C131.594 19.3488 133.019 19.906 133.027 19.9205C133.034 19.9277 133.077 20.1665 133.121 20.4415C133.157 20.7237 133.215 21.0349 133.229 21.1506C133.251 21.2592 133.309 21.346 133.374 21.346C133.432 21.346 133.533 21.2664 133.591 21.1651C133.649 21.0638 133.743 20.9842 133.786 20.9842C133.837 20.9842 134.14 21.1144 134.459 21.2664C134.777 21.4184 135.211 21.621 135.42 21.7151C135.682 21.8381 135.79 21.9249 135.769 21.9973C135.747 22.0552 135.63 22.663 135.507 23.336C135.384 24.0089 135.254 24.747 135.211 24.9641C135.167 25.1812 135.117 25.4272 135.095 25.5068C135.066 25.6226 135.196 25.7456 135.776 26.1509C136.166 26.4331 136.651 26.8383 137.23 27.4606L136.752 28.0395C136.492 28.3579 135.805 29.1539 135.225 29.8124C134.647 30.4709 133.273 32.0122 132.172 33.2496C131.073 34.487 129.901 35.7533 129.568 36.0645C129.235 36.3757 128.541 36.9546 128.02 37.3381C127.499 37.7288 126.465 38.4525 125.705 38.9518C124.945 39.4511 124.157 39.9287 123.947 40.0083C123.744 40.0951 123.506 40.1602 123.426 40.1602C123.346 40.1602 123.194 40.0951 123.079 40.0155C122.956 39.9214 122.775 39.8635 122.594 39.8708C122.435 39.8708 121.639 39.8273 119.353 39.6899L118.695 38.8287C118.333 38.3584 117.87 37.7505 117.675 37.4828C117.472 37.2151 117.117 36.7375 116.886 36.4191C116.647 36.1079 115.359 34.4074 114.021 32.6345C112.683 30.8616 111.569 29.371 111.54 29.3203C111.503 29.2624 112.762 28.2783 115.302 26.3607C117.407 24.7832 119.657 23.0465 120.301 22.511C120.952 21.9683 121.834 21.2447 122.254 20.8974C122.681 20.5573 123.809 19.6238 124.764 18.8278C125.756 18.0029 126.544 17.3878 126.609 17.4095ZM137.953 27.7139C138.097 27.7139 138.329 27.779 138.452 27.8586C138.582 27.9382 138.742 28.1263 138.807 28.2711C138.901 28.4809 138.916 28.6835 138.887 29.125C138.865 29.4868 138.785 29.8558 138.677 30.1236C138.589 30.3479 138.488 30.5143 138.466 30.4854C138.445 30.4492 138.314 30.0078 138.184 29.4868C138.054 28.9658 137.888 28.3796 137.815 28.1842C137.736 27.9816 137.678 27.8007 137.678 27.7645C137.678 27.7356 137.801 27.7139 137.945 27.7139H137.953ZM137.172 28.2928C137.193 28.2855 137.258 28.3796 137.302 28.4882C137.352 28.5967 137.526 29.248 137.982 31.1511L137.779 31.3465C137.671 31.455 137.569 31.5419 137.562 31.5274C137.548 31.5201 137.367 30.8906 136.767 28.7631L136.947 28.5316C137.041 28.4013 137.143 28.2928 137.172 28.2928ZM136.282 29.3276C136.297 29.3348 136.456 29.8775 136.636 30.536C136.817 31.1945 136.991 31.7951 137.027 31.8747C137.07 31.9833 137.049 32.0773 136.752 32.4536L136.709 32.2365C136.687 32.1208 136.6 31.7734 136.521 31.4767C136.441 31.18 136.26 30.659 135.863 29.7038L136.065 29.5085C136.174 29.3999 136.275 29.3131 136.282 29.3276ZM135.449 30.3551C135.486 30.3768 135.609 30.6446 135.725 30.9557C135.841 31.2596 136 31.8385 136.231 32.9602L136.072 33.1194C135.986 33.2062 135.899 33.2713 135.877 33.2568C135.855 33.2424 135.798 33.0398 135.74 32.8082C135.689 32.5694 135.572 32.2004 135.486 31.9833C135.399 31.7662 135.218 31.4261 134.849 30.8616L135.117 30.5939C135.269 30.4492 135.413 30.3406 135.449 30.3551ZM138.901 31.2524C138.966 31.2886 139.075 31.3754 139.14 31.4478C139.205 31.5274 139.335 31.73 139.422 31.9109C139.523 32.1063 139.603 32.4247 139.624 32.7069C139.653 33.0832 139.632 33.199 139.538 33.2858C139.422 33.3871 139.415 33.3726 139.422 33.1049C139.422 32.9457 139.371 32.6345 139.306 32.4174C139.248 32.2004 139.096 31.8458 138.981 31.6432C138.865 31.4333 138.771 31.2452 138.778 31.2235C138.778 31.2018 138.836 31.2162 138.901 31.2524ZM134.444 31.4044C134.48 31.4044 134.582 31.5419 134.683 31.7155C134.777 31.882 134.929 32.2076 135.008 32.4391C135.088 32.6635 135.189 33.0687 135.326 33.8285L135.081 34.1324C134.943 34.2989 134.82 34.4291 134.813 34.4219C134.806 34.4146 134.712 34.1107 134.61 33.7561C134.502 33.4016 134.314 32.8444 133.945 31.9471L134.169 31.6793C134.292 31.5274 134.415 31.4044 134.444 31.4044ZM138.22 31.6432C138.264 31.6576 138.387 31.8313 138.495 32.0267C138.604 32.2221 138.728 32.5911 138.778 32.8516C138.822 33.1194 138.836 33.4812 138.814 33.6838C138.785 33.8864 138.699 34.1614 138.488 34.5521L138.481 34.1903C138.481 33.9949 138.437 33.6187 138.379 33.3582C138.322 33.0976 138.199 32.6707 138.09 32.403C137.909 31.9398 137.909 31.9037 138.025 31.7662C138.09 31.6866 138.177 31.6287 138.22 31.6432ZM137.41 32.4174C137.439 32.4174 137.54 32.6056 137.62 32.8371C137.729 33.1121 137.786 33.4884 137.815 33.9732C137.837 34.5015 137.815 34.8199 137.729 35.1527C137.663 35.3988 137.613 35.6593 137.613 35.7316C137.62 35.7968 137.569 35.9053 137.504 35.9632C137.403 36.0645 137.389 36.0211 137.396 35.529C137.396 35.2323 137.345 34.7258 137.287 34.4074C137.23 34.089 137.114 33.6187 136.897 32.8878L137.121 32.6562C137.251 32.526 137.374 32.4174 137.41 32.4174ZM133.504 32.4898C133.547 32.4898 133.692 32.8154 133.829 33.2134C133.96 33.6114 134.111 34.1831 134.155 34.4725C134.249 35.008 134.249 35.0152 133.887 35.3915L133.627 34.5015C133.489 34.0094 133.309 33.4667 133.07 32.9602L133.251 32.7286C133.345 32.5983 133.461 32.4898 133.504 32.4898ZM136.412 33.4233L136.506 33.6983C136.557 33.8502 136.658 34.3133 136.723 34.733C136.825 35.3698 136.832 35.5941 136.759 36.1441C136.687 36.723 136.658 36.8171 136.477 36.9546C136.369 37.0486 136.123 37.2006 135.928 37.3019C135.74 37.4032 135.587 37.4539 135.587 37.4104C135.587 37.367 135.66 37.2006 135.74 37.0342C135.826 36.8605 135.957 36.477 136.029 36.1803C136.109 35.8836 136.166 35.4567 136.166 35.2396C136.166 35.0225 136.116 34.6317 135.949 33.9009L136.412 33.4233ZM132.606 33.4956C132.636 33.4956 132.73 33.6838 132.817 33.9153C132.904 34.1469 133.041 34.5449 133.121 34.8054C133.2 35.0587 133.273 35.3554 133.287 35.4567C133.294 35.5507 133.273 35.7606 133.236 35.9125C133.193 36.0862 133.077 36.2599 132.73 36.5276L132.454 35.6086C132.302 35.1093 132.114 34.5883 131.897 34.2265L132.23 33.8647C132.411 33.6621 132.584 33.4956 132.606 33.4956ZM135.457 34.4942C135.493 34.5232 135.536 34.8271 135.565 35.1672C135.594 35.681 135.58 35.8547 135.442 36.2526C135.355 36.5059 135.131 36.9763 134.95 37.2947C134.762 37.6058 134.582 37.8808 134.538 37.9097C134.495 37.9315 134.488 37.8953 134.524 37.8084C134.56 37.7288 134.654 37.4683 134.741 37.2295C134.864 36.875 134.893 36.6217 134.9 34.9574L135.146 34.6969C135.283 34.5594 135.428 34.4653 135.457 34.4942ZM131.601 34.9791C131.623 34.9935 131.753 35.3843 131.89 35.8619C132.02 36.3322 132.158 36.7737 132.194 36.846C132.245 36.9546 132.165 37.0342 131.717 37.3381C131.42 37.5335 131.167 37.6999 131.153 37.6999C131.145 37.6999 131.138 37.49 131.131 37.244C131.131 36.998 131.066 36.5421 130.849 35.6665L131.203 35.3119C131.391 35.1166 131.572 34.9646 131.601 34.9791ZM134.271 35.6737C134.285 35.6737 134.285 35.956 134.271 36.3033C134.242 36.8243 134.198 37.0197 134.01 37.4104C133.887 37.6637 133.721 37.9604 133.641 38.0617C133.562 38.1558 133.489 38.1992 133.489 38.1485C133.489 38.0979 133.54 37.888 133.598 37.6782C133.656 37.4683 133.735 37.0197 133.779 36.6868C133.844 36.173 133.887 36.0356 134.046 35.8691C134.155 35.7606 134.256 35.6737 134.271 35.6737ZM130.328 36.1803L130.422 36.448C130.472 36.6 130.516 36.9329 130.516 37.1934C130.523 37.4466 130.487 37.7723 130.444 37.917C130.393 38.0545 130.321 38.192 130.277 38.2209C130.234 38.2498 130.176 38.2716 130.14 38.2716C130.111 38.2788 130.067 38.1558 130.046 38.0038C130.024 37.8519 129.944 37.5118 129.727 36.7592L130.328 36.1803ZM133.099 36.8605C133.113 36.875 133.092 37.092 133.048 37.3453C133.005 37.5986 132.882 37.9604 132.781 38.1558C132.643 38.4018 132.505 38.5465 132.114 38.7057L132.288 38.2933C132.382 38.0617 132.483 37.7433 132.512 37.5841C132.541 37.3815 132.636 37.2295 132.817 37.0631C132.962 36.9401 133.084 36.846 133.099 36.8605ZM129.228 37.3091C129.257 37.3381 129.337 37.5769 129.402 37.8374C129.474 38.0979 129.51 38.3873 129.489 38.4886C129.467 38.59 129.373 38.7057 129.279 38.7491C129.112 38.8287 129.105 38.8215 128.982 38.2643C128.859 37.6927 128.859 37.6927 129.018 37.4683C129.105 37.3453 129.199 37.273 129.228 37.3091ZM131.731 37.9097C131.796 37.9097 131.789 37.9749 131.702 38.1485C131.637 38.2716 131.5 38.5176 131.398 38.6768C131.275 38.8722 131.124 39.0097 130.972 39.0603C130.841 39.1037 130.74 39.1327 130.74 39.1254C130.74 39.111 130.805 38.9228 130.885 38.7057C130.993 38.3873 131.087 38.2716 131.333 38.1124C131.5 37.9966 131.68 37.9097 131.731 37.9097ZM128.36 38.3222C128.389 38.3584 128.432 38.561 128.505 39.1761L127.579 39.6609C127.065 39.9287 126.624 40.153 126.595 40.153C126.566 40.153 126.942 39.726 127.427 39.2123C127.911 38.6913 128.331 38.2933 128.36 38.3222ZM127.26 38.6913C127.282 38.7057 126.79 39.2195 126.161 39.8346C125.531 40.4569 124.851 41.043 124.641 41.1661C124.432 41.2818 124.236 41.3831 124.207 41.3831C124.178 41.3831 124.121 41.2095 124.084 41.0069C124.041 40.797 124.019 40.6233 124.026 40.6161C124.041 40.6161 124.222 40.5293 124.446 40.4207C124.663 40.3194 125.379 39.878 126.03 39.4438C126.682 39.0097 127.239 38.6695 127.26 38.6913ZM130.154 38.8143C130.176 38.836 130.103 38.9807 129.995 39.1399C129.886 39.2991 129.792 39.4294 129.778 39.4294C129.771 39.4294 129.445 39.5234 129.055 39.6464C128.671 39.7622 128.345 39.8418 128.345 39.8129C128.345 39.7767 128.454 39.7116 128.584 39.6609C128.714 39.603 128.866 39.5307 128.931 39.4945C128.989 39.4583 129.134 39.3642 129.257 39.2774C129.373 39.1978 129.554 39.1182 129.655 39.0965C129.749 39.082 129.894 39.0024 129.973 38.9228C130.046 38.8432 130.132 38.7926 130.154 38.8143ZM130.921 41.6002C131.138 41.6002 131.384 41.6509 131.536 41.7377C131.688 41.8173 131.854 41.9982 131.955 42.1864C132.078 42.4179 132.114 42.5916 132.1 42.8376C132.085 43.0547 132.011 43.2525 131.876 43.431C131.753 43.5902 131.558 43.7422 131.369 43.8145C131.174 43.8869 130.957 43.9158 130.776 43.8869C130.617 43.8652 130.4 43.7856 130.306 43.7132C130.205 43.6408 130.046 43.4672 129.959 43.3297C129.836 43.156 129.792 42.9823 129.8 42.7218C129.8 42.4758 129.85 42.2804 129.959 42.114C130.053 41.9765 130.219 41.8028 130.342 41.7305C130.472 41.6509 130.697 41.6002 130.921 41.6002Z" fill="#F8992F"/>
</g>
</g>
<defs>
<clipPath id="clip0_180_805">
<rect width="118.039" height="56" fill="white" transform="translate(31.2578 12.1152)"/>
</clipPath>
</defs>
</svg>
