<svg width="649" height="321" viewBox="0 0 649 321" fill="none" xmlns="http://www.w3.org/2000/svg">
<path d="M648 314.948C648 314.948 479.605 316.079 474.387 314.233C469.169 312.386 472.016 301.308 472.489 290.692C472.964 280.075 478.047 231.809 480.893 224.424C483.739 217.038 481.027 297.616 473.438 307.771C465.849 317.925 436.441 314.233 427.429 314.233C418.416 314.233 427.903 316.541 434.069 315.156C440.235 313.771 429.8 254.226 429.8 243.147C429.8 232.07 427.903 233.454 421.262 228.838C414.622 224.223 428.378 229.762 435.967 230.223C443.556 230.685 420.314 215.914 424.108 215.452C427.903 214.991 426.954 202.989 425.531 196.989C424.108 190.988 430.274 222.376 437.39 224.223C444.504 226.069 494.532 223.936 492.51 215.083C489.48 201.811 482.53 175.909 484.427 170.831C486.325 165.753 474.079 163.278 470.285 160.508C466.49 157.738 457.017 159.179 462.709 146.254C468.401 133.329 447.824 109.286 447.824 116.21C447.824 116.21 464.73 145.27 466.244 149.696C467.76 154.12 431.392 180.674 433.917 183.133C436.443 185.591 441.998 197.387 441.998 199.845C441.998 202.302 414.722 207.219 409.167 207.219C403.61 207.219 393.002 198.371 400.075 197.878C407.146 197.388 421.289 192.472 422.805 190.997C424.321 189.522 403.105 191.981 410.681 187.557C418.259 183.133 431.392 185.098 434.422 187.557C437.452 190.015 441.493 201.32 436.442 199.845C431.392 198.371 472.305 183.121 482.913 177.713C493.521 172.307 493.014 168.865 491.5 152.644C489.984 136.422 472.015 77.8978 472.015 77.8978C463.951 71.2048 459.445 94.746 461.58 100.285C463.714 105.824 470.592 80.6676 466.086 74.8979C461.58 69.1276 446.402 67.2811 441.658 61.9729C436.915 56.6649 452.093 67.7427 452.568 71.6664C453.042 75.5897 437.864 81.8215 432.172 83.8983C426.48 85.9756 443.793 87.3605 445.453 90.1302C447.113 92.8994 428.14 122.903 426.006 133.981C423.871 145.059 426.243 179.448 426.243 183.833C426.243 188.218 423.634 178.756 422.448 162.831C421.262 146.906 424.108 118.518 426.717 98.6698C429.804 75.1857 431.392 60.7357 431.392 60.7357C431.392 57.0432 437.389 60.1265 436.678 72.128C435.966 84.1292 421.736 98.439 421.025 97.9773C420.314 97.5157 414.147 94.2844 412.013 93.5919C409.878 92.8995 419.365 159.6 419.602 164.216C419.839 168.832 418.891 176.448 418.179 179.217C417.468 181.987 407.744 141.367 407.744 133.75C407.744 126.134 408.218 97.7465 407.744 94.746C407.269 91.746 405.609 96.8233 402.052 97.7465C398.494 98.6698 400.866 85.9758 402.289 84.3601C403.712 82.745 407.981 87.3606 411.064 90.592C414.147 93.8227 413.436 89.4379 419.365 82.9757C425.294 76.513 432.646 52.2795 433.12 48.8179C433.595 45.3557 433.595 29.4308 434.069 22.507C434.543 15.5832 425.548 4.69857 417.248 4.69857C408.947 4.69857 408.66 5.19165 408.66 5.19165C408.66 5.19165 410.59 3.35082 402.526 3.58175C394.463 3.81256 382.303 13.2234 380.88 23.3786C379.457 33.5337 387.416 52.8338 386.941 48.4485C386.468 44.0636 384.739 28.7385 388.059 26.8921C391.379 25.0461 396.834 26.8921 402.289 26.1997C407.744 25.5073 409.404 23.6613 410.827 21.8148C410.868 21.7593 411.021 0.561411 409.404 25.7381C409.167 29.4311 418.856 29.6875 420.279 32.2264C421.702 34.7653 420.076 41.8943 423.396 41.8943C426.717 41.8943 425.057 34.0467 430.037 36.5856C435.018 39.1245 429.562 46.2791 428.614 48.3564C427.666 50.4331 428.614 48.3564 428.377 54.5877C428.14 60.8191 412.982 71.8718 405.63 73.0254C398.278 74.1794 389.878 58.8124 388.456 51.8882C387.033 44.9643 395.147 69.501 395.147 69.501C395.147 69.501 374.744 83.8934 373.808 90.7215C372.873 97.5489 373.526 105.056 378.203 127.361C382.881 149.664 394.108 199.736 394.108 199.736C394.108 199.736 387.091 125.54 388.027 114.161C388.962 102.782 396.445 156.948 396.445 166.962C396.445 176.976 394.575 218.397 395.978 219.764C397.38 221.13 409.074 192.452 408.607 180.617C408.139 168.784 404.397 168.328 400.655 163.32C396.914 158.313 404.397 156.948 405.332 143.293C406.267 129.637 387.558 99.5949 387.558 95.9538C387.558 92.311 391.3 91.8568 394.108 90.0363C396.914 88.2155 388.494 88.6697 388.494 87.3054C388.494 85.9392 395.51 77.6951 397.38 75.4183C399.252 73.1421 398.316 95.0434 402.526 118.258C406.736 141.472 410.011 154.218 412.817 172.425C415.623 190.632 418.429 225.225 409.542 226.592C400.655 227.958 390.365 223.861 396.445 225.681C402.526 227.502 398.316 291.227 399.252 304.429C400.187 317.629 404.865 314.441 410.011 315.352C415.155 316.262 403.08 315.559 403.08 315.559C403.08 315.559 324.403 314.634 310.782 314.322C297.207 314.01 316.324 315.282 322.725 313.349C329.138 311.414 325.304 258.528 328.96 244.577C332.625 230.591 328.799 240.688 323.19 239.123C317.588 237.561 325.497 239.749 330.077 240.027C334.662 240.306 321.507 230.064 316.69 223.959C311.875 217.857 333.726 233.501 337.521 238.33C341.319 243.163 340.774 309.469 341.584 313.333C342.397 317.2 365.525 315.254 371.959 312.017C378.403 308.773 373.778 174.168 376.144 166.899C378.512 159.62 390.797 193.911 390.488 203.102C390.176 212.284 358.346 217.923 346.14 216.772C333.969 215.626 329.892 196.152 326.135 184.479C322.376 172.803 320.456 158.147 318.575 152.303C316.694 146.457 316.914 151.682 319.707 155.874C322.5 160.067 341.317 138.712 344.692 124.504C348.077 110.265 346.332 99.761 345.49 103.411C344.645 107.06 352.874 122.661 353.281 132.853C353.691 143.036 357.177 139.343 359.503 139.62C361.829 139.899 355.803 138.058 353.585 140.409C351.369 142.757 339.655 170.527 338.752 172.506C337.847 174.483 338.577 184.271 335.145 188.571C331.719 192.866 326.268 195.556 324.484 199.816C322.703 204.071 331.688 200.035 333.244 198.056C334.8 196.079 323.79 206.656 323.3 210.565C322.811 214.47 337.34 210.05 343.273 202.799C349.219 195.532 347.641 189.024 348.927 188.348C351.006 187.26 336.952 184.626 336.517 182.02C336.08 179.415 341.129 174.424 339.213 175.767C337.299 177.107 350.058 183.752 354.283 182.373C358.514 180.992 377.082 148.457 376.005 137.937C374.93 127.409 365.842 73.7418 360.004 68.9488C354.169 64.1593 348.586 81.8695 349.963 91.4117C351.339 100.946 359.816 72.5988 355.945 67.086C352.077 61.5744 335.692 57.4643 330.252 53.6717C324.818 49.8815 339.814 61.3031 340.002 65.9283C340.19 70.5514 335.458 75.9814 333.328 80.3369C331.198 84.6872 337.852 86.1438 339.401 91.7068C340.947 97.2703 311.785 154.075 312.245 149.493C312.704 144.908 318.775 125.784 320.739 117.864C322.705 109.935 320.519 104.735 323.705 86.552C326.899 68.319 324.668 54.1852 324.188 50.5645C323.708 46.9416 328.592 53.3949 327.641 62.3515C326.693 71.2955 322.158 80.9964 321.625 83.9765C321.092 86.9562 310.473 76.4042 303.669 78.2528C296.878 80.0987 282.044 69.056 282.044 69.056C282.044 69.056 279.482 70.1194 274.809 74.855C270.143 79.5837 273.198 89.9713 274.43 95.8243C275.661 101.677 271.354 77.5824 269.595 81.892C267.838 86.1977 266.616 124.428 266.933 131.585C267.25 138.738 272.056 137.652 272.056 137.652C272.056 137.652 268.162 137.416 266.971 139.72C265.78 142.023 269.055 157.551 269.055 157.551C269.055 157.551 277.737 156.4 280.721 157.964C283.707 159.532 274.312 181.457 276.685 184.009C279.061 186.562 286.316 174.757 284.709 167.639C283.102 160.519 270.109 159.476 273.016 159.419C275.925 159.362 284.496 162.768 285.468 162.748C286.441 162.73 287.991 153.586 289.346 147.369C290.702 141.145 285.183 141.267 280.586 140.067C275.994 138.867 284.223 141.614 288.428 141.195C292.638 140.776 285.405 123.972 282.891 118.481C280.377 112.992 288.259 129.781 292.355 141.76C296.449 153.738 286.557 202.644 287.515 209.753C288.471 216.858 303.534 190.058 304.19 182.57C304.849 175.075 300.267 174.506 297.472 170.003C294.679 165.499 304.272 138.557 304.118 134.966C303.965 131.373 287.014 93.5096 286.56 90.5717C286.107 87.634 289.376 87.8685 290.283 86.2031C291.19 84.5362 282.965 82.808 282.965 82.808C282.965 82.808 285.229 74.8668 286.121 72.8706C287.012 70.8729 300.227 81.9711 300.227 81.9711C300.227 81.9711 304.761 80.8527 304.803 81.8366C304.845 82.8226 304.693 110.073 305.847 121.838C306.999 133.592 310.038 143.659 310.406 144.632C310.774 145.605 315.204 134.384 316.81 125.832C318.418 117.266 309.577 86.3009 310.066 82.3406C310.556 78.3766 314.463 85.5019 318.084 85.7269C321.707 85.9503 306.856 76.1846 309.406 74.4601C311.958 72.7376 321.94 59.8908 321.596 51.6428C321.253 43.3875 310.021 34.5163 305.561 30.0461C301.104 25.5796 301.356 31.5194 297.469 32.6494C293.584 33.7772 294.101 22.8601 284.722 25.5152C275.369 28.1645 272.534 37.8157 269.709 40.2159C266.888 42.6162 266.669 37.6916 269.954 30.995C273.244 24.2875 282.322 15.3733 287.532 14.8451C292.751 14.317 292.522 16.6397 292.522 16.6397C292.522 16.6397 297.878 11.475 303.62 15.2287C309.368 18.986 314.589 25.7496 316.921 34.274C319.253 42.7951 315.898 49.1893 314.667 51.2111C313.438 53.2329 315.267 41.9383 309.901 39.4789C304.544 37.0232 306.07 49.8466 306.942 47.1784C307.814 44.5066 301.107 41.1057 293.784 38.3898C286.47 35.6772 289.095 28.3268 289.678 26.6563C290.261 24.9834 290.245 32.2471 284.91 37.3818C279.582 42.5073 272.988 40.7602 271.564 45.413C270.141 50.0622 279.283 65.5296 290.313 71.7553C301.366 77.9945 304.154 74.2921 308.285 71.203C312.419 68.1088 296.425 77.1559 296.425 77.1559C296.425 77.1559 297.032 83.7086 300.643 99.3603C304.249 115.001 305.609 131.661 308.725 151.201C311.835 170.713 308.154 206.876 304.898 214.38C301.648 221.87 289.441 224.282 285.998 219.476C282.555 214.671 291 222.971 290.959 229.435C290.915 235.894 298.539 314.97 298.539 314.97C298.539 314.97 164.649 319.774 144.556 316.004C124.557 312.25 158.009 311.589 161.124 311.585C164.241 311.582 132.528 310.987 119.488 297.828C106.472 284.693 139.586 291.477 142.626 290.204C145.669 288.932 128.149 261.911 117.49 235.485C106.828 209.055 133.939 241.641 143.655 249.145C153.387 256.662 136.873 213.713 144.479 191.339C152.118 168.865 192.639 303.324 196.623 307.751C200.611 312.178 188.772 275.444 187.201 243.026C185.625 210.504 197.407 166.073 196.838 154.179C196.268 142.27 194.98 121.971 192.054 113.967C189.127 105.963 199.704 147.674 207.772 156.852C215.849 166.038 238.138 178.206 243.992 180.041C249.85 181.878 254.637 181.149 257.02 176.902C259.405 172.652 262.676 159.301 262.676 159.301C262.676 159.301 272.276 164.629 277.194 166.158C282.12 167.689 277.376 162.907 273.117 161.69C268.861 160.475 262.714 167.406 267.485 173.152C272.261 178.9 275.887 165.857 278.63 169.378C281.376 172.897 274.246 187.289 267.681 184.808C261.126 182.33 245.333 181.309 254.783 184.378C264.254 187.454 261.107 160.305 260.333 157.401C259.559 154.498 240.899 147.434 234.453 139.799C228.013 132.172 226.891 142.559 227.466 148.045C228.039 153.531 233.917 142.079 228.726 133.776C223.538 125.475 225.185 98.8209 223.593 85.2058C221.998 71.5759 217.101 69.774 217.101 69.774C217.101 69.774 191.838 82.8962 193.089 75.7211C194.339 68.5367 161.765 90.5715 152.232 89.2348C142.72 87.9018 180.463 44.9459 181.821 33.5095C183.181 22.0548 147.347 54.5043 142.94 54.6519C138.538 54.8 150.37 39.1798 160.871 33.9376C171.404 28.6792 171.88 25.4076 176.614 18.0645C181.358 10.7068 183.655 5.39089 191.201 2.80448C198.763 0.20995 214.135 -0.733089 224.529 8.04233C234.937 16.8351 230.972 21.9051 232.38 24.4769C233.79 27.049 235.603 24.3587 234.839 21.7612C234.074 19.1652 206.214 22.1725 194.183 18.3764C182.183 14.5897 183.363 12.5862 181.072 11.3695C178.781 10.1525 178.317 13.7608 179.81 18.2697C181.303 22.7765 194.236 26.2109 213.187 27.1489C232.224 28.0884 234.434 27.0248 234.524 28.9896C234.613 30.9522 231.437 32.0508 229.408 37.0339C227.384 42.0154 221.421 66.0532 218.732 70.3738C216.047 74.6906 174.081 109.595 177.321 111.121C180.565 112.65 185.565 97.9752 185.935 92.464C186.305 86.9486 172.863 117.043 160.741 127.323C148.668 137.561 134.297 144.611 135.181 149.707C136.065 154.803 134.638 126.675 126.532 127.192C118.444 127.709 127.993 131.319 131.286 116.179C134.589 101.003 134.3 89.1127 138.743 83.8302C143.193 78.5404 137.803 102.521 134.223 106.153C130.648 109.781 132.469 90.1317 133.136 78.5236C133.802 66.8988 137.59 60.9684 140.618 58.6086C143.649 56.2454 128.137 66.598 116.263 73.2522C104.433 79.8828 81.6573 124.625 78.5674 136.155C75.4841 147.659 81.6314 167.513 82.4731 174.625C83.9805 182.219 102.761 90.4112 99.0917 98.9768C93.6458 107.91 79.7071 189.716 79.223 217.322C77.474 244.71 83.6536 316.965 88.3132 318.369C92.9777 319.772 1 320 1 320" stroke="url(#paint0_linear_2204_871)" stroke-miterlimit="10" stroke-linecap="round" stroke-linejoin="round"/>
<defs>
<linearGradient id="paint0_linear_2204_871" x1="561.75" y1="320" x2="122.78" y2="54.1601" gradientUnits="userSpaceOnUse">
<stop stop-color="#4F2E12"/>
<stop offset="0.988722" stop-color="#B56929"/>
</linearGradient>
</defs>
</svg>
