<svg width="16" height="17" viewBox="0 0 16 17" fill="none" xmlns="http://www.w3.org/2000/svg">
<path d="M1.33203 4.5L5.94071 7.11131C7.63976 8.074 8.35763 8.074 10.0567 7.11131L14.6654 4.5" stroke="white" stroke-linejoin="round"/>
<path d="M1.34254 9.48341C1.38612 11.5271 1.40792 12.5489 2.162 13.3059C2.91608 14.0629 3.96558 14.0892 6.06458 14.1419C7.35823 14.1745 8.63916 14.1745 9.93283 14.1419C12.0318 14.0892 13.0813 14.0629 13.8354 13.3059C14.5895 12.5489 14.6113 11.5271 14.6548 9.48341C14.6689 8.82628 14.6689 8.17308 14.6548 7.51594C14.6113 5.47225 14.5895 4.4504 13.8354 3.69345C13.0813 2.9365 12.0318 2.91013 9.93283 2.85739C8.63916 2.82488 7.35823 2.82488 6.06458 2.85738C3.96558 2.91012 2.91608 2.93648 2.162 3.69344C1.40791 4.4504 1.38612 5.47224 1.34254 7.51594C1.32852 8.17308 1.32853 8.82628 1.34254 9.48341Z" stroke="white" stroke-linejoin="round"/>
</svg>
