<svg width="112" height="331" viewBox="0 0 112 331" fill="none" xmlns="http://www.w3.org/2000/svg">
<path d="M1.43714 113.426C2.72945 102.691 9.85306 86.6212 9.85306 86.6212C9.85306 86.6212 11.3108 66.9399 22.1787 62.2351C30.7815 58.6793 37.442 55.1902 41.5379 52.8746C42.0379 52.5921 42.5086 52.2699 42.951 51.9163C44.991 49.7198 46.2205 45.7524 46.7479 43.709C45.6427 42.8228 43.4421 40.4885 41.456 34.9473C41.014 33.7144 40.6786 31.584 40.6786 31.584C39.8398 30.6477 38.6434 29.498 37.789 26.6212C37.0659 24.1865 38.191 22.5322 39.8042 22.3651C39.8042 22.3651 39.4395 8.76507 42.3487 5.344C45.2148 1.97335 50.6131 0.179931 55.8566 0.010708V0C55.8956 0.000690707 55.9349 0.00449465 55.974 0.00518536C56.013 0.0041493 56.0524 0.000690707 56.0917 0V0.010708C61.3352 0.179931 66.7331 1.973 69.5995 5.344C72.5084 8.76507 72.1441 22.3651 72.1441 22.3651C73.7573 22.5322 74.8824 24.1865 74.1592 26.6212C73.3048 29.498 72.1085 30.6477 71.2697 31.584C71.2697 31.584 70.9344 33.7141 70.4923 34.9473C68.232 41.2538 65.6926 43.4075 64.8085 43.9987C65.3731 46.1088 66.5818 49.8196 68.5289 51.9163C68.5289 51.9163 68.5224 51.917 68.512 51.9177C72.3209 54.1469 79.6403 58.1458 89.5344 62.2351C100.402 66.9399 101.86 86.6212 101.86 86.6212C101.86 86.6212 108.984 102.691 110.276 113.426C111.568 124.161 111.535 140.164 109.68 156.996C108.619 169.056 109.647 181.257 109.647 181.257C109.647 181.257 109.317 185.302 107.594 188.085C105.871 190.868 102.125 193.774 98.3478 194.768C97.3539 194.437 97.6146 191.741 100.468 189.931C103.038 188.3 104.127 184.481 104.083 178.625C104.082 176.472 101.267 176.838 100.752 179.28C100.502 180.463 100.667 185.756 99.7392 187.611C98.8116 189.467 97.1549 189.268 96.5585 188.937C96.1272 188.697 96.3382 180.646 96.4877 176.209C96.5506 174.348 97.1857 172.554 98.305 171.067L100.49 168.164C100.863 167.668 101.062 167.064 101.057 166.444L100.998 158.719C100.998 158.719 93.6423 133.538 92.9796 116.176C92.9796 116.176 86.9632 101.133 86.4745 91.2776C86.3022 94.6272 85.4717 101.148 82.0167 109.948C81.2 119.872 81.2936 130.555 82.0167 141.764C82.0167 141.764 88.8492 154.205 87.6574 182.746L87.6605 182.747C87.6605 182.747 89.4522 224.179 84.6338 240.699C84.6338 245.001 85.6826 262.468 85.3387 270.556C84.9943 278.644 79.1434 299.638 79.1434 303.94C79.1434 308.242 80.6923 308.415 80.176 312.2C79.6597 315.986 84.8224 320.471 84.8224 324.773C84.8224 329.075 75.6799 333.218 70.023 329.247C66.5705 326.824 68.4813 319.787 68.474 318.223C68.4664 316.503 66.7531 311.168 67.4414 308.759C68.1297 306.35 68.2724 297.573 66.6523 287.42C65.0323 277.267 65.1214 262.14 66.7708 253.189C67.1189 248.55 65.5448 240.839 65.5448 240.839C65.5448 240.839 57.8952 199.862 57.2694 186.451C57.086 182.52 56.9879 178.823 56.9354 175.857C56.2786 175.804 55.6193 175.8 54.9621 175.844C54.9099 178.812 54.8119 182.514 54.6281 186.451C54.0024 199.862 46.3531 240.839 46.3531 240.839C46.3531 240.839 44.779 248.55 45.1268 253.189C46.7762 262.14 46.8656 277.267 45.2456 287.42C43.6255 297.573 43.7682 306.35 44.4564 308.759C45.1447 311.168 43.4314 316.503 43.4238 318.223C43.4169 319.787 45.3278 326.824 41.8753 329.247C36.2184 333.218 27.0758 329.075 27.0758 324.773C27.0758 320.471 32.2382 315.986 31.7222 312.2C31.2059 308.414 32.7548 308.242 32.7548 303.94C32.7548 299.638 26.9039 278.644 26.5595 270.556C26.2156 262.468 27.2644 245.001 27.2644 240.699C23.1081 226.449 23.8699 193.668 24.158 184.926C22.5123 154.834 29.6953 141.764 29.6953 141.764C30.7021 130.579 30.903 119.859 29.6953 109.948C26.2404 101.148 25.4102 94.6275 25.2379 91.2779C24.7495 101.134 18.7328 116.177 18.7328 116.177C18.07 133.538 10.7144 158.72 10.7144 158.72L10.6553 166.444C10.6505 167.064 10.8501 167.669 11.2227 168.164L13.4074 171.067C14.5267 172.554 15.1622 174.349 15.2247 176.209C15.3742 180.647 15.5852 188.697 15.1539 188.937C14.5575 189.268 12.9008 189.467 11.9732 187.612C11.0452 185.756 11.2107 180.463 10.9606 179.28C10.4454 176.838 7.63072 176.472 7.62968 178.626C7.58582 184.481 8.67438 188.301 11.2442 189.931C14.0978 191.741 14.3586 194.437 13.3646 194.768C9.5875 193.774 5.84145 190.869 4.11848 188.085C2.39551 185.302 2.06499 181.258 2.06499 181.258C2.06499 181.258 3.09312 169.057 2.03289 156.996C0.177996 140.164 0.14483 124.161 1.43714 113.426Z" fill="#62A0F6"/>
</svg>
