<svg width="24" height="25" viewBox="0 0 24 25" fill="none" xmlns="http://www.w3.org/2000/svg">
<path d="M0.0505371 12.2847C0.0505371 5.69119 5.41457 0.327148 12.0081 0.327148C18.6015 0.327148 23.9656 5.69153 23.9656 12.2847C23.9656 18.8778 18.6015 24.2422 12.0081 24.2422C5.41457 24.2422 0.0505371 18.8782 0.0505371 12.2847ZM0.661482 12.2847C0.661482 18.5411 5.75164 23.6312 12.0081 23.6312C18.2645 23.6312 23.3546 18.5414 23.3546 12.2847C23.3546 6.0279 18.2645 0.938093 12.0081 0.938093C5.75164 0.938093 0.661482 6.02825 0.661482 12.2847Z" fill="white"/>
<path d="M4.11597 12.2844C4.11597 7.93435 7.65482 4.39551 12.0045 4.39551C16.3543 4.39551 19.8931 7.93435 19.8931 12.2844C19.8931 16.6341 16.3543 20.173 12.0045 20.173C7.65482 20.173 4.11597 16.6341 4.11597 12.2844ZM4.72691 12.2844C4.72691 16.2974 7.99154 19.5621 12.0045 19.5621C16.0175 19.5621 19.2822 16.2974 19.2822 12.2844C19.2822 8.27141 16.0175 5.00645 12.0045 5.00645C7.99188 5.0068 4.72691 8.27141 4.72691 12.2844Z" fill="white"/>
</svg>
