<svg width="607" height="626" viewBox="0 0 607 626" fill="none" xmlns="http://www.w3.org/2000/svg">
<path fill-rule="evenodd" clip-rule="evenodd" d="M481.734 343.752L297.927 549.653C275.14 577.418 279.526 618.638 307.655 641.721C335.783 664.804 377.069 661.012 399.822 633.246L583.629 427.345C606.415 399.58 602.029 358.36 573.901 335.277C545.773 312.194 504.487 315.986 481.734 343.752Z" fill="#5AD0AE"/>
<path fill-rule="evenodd" clip-rule="evenodd" d="M489.877 122.122L306.07 328.023C283.317 355.788 287.67 397.008 315.831 420.091C343.96 443.174 385.212 439.382 407.999 411.616L591.806 205.716C614.559 177.95 610.206 136.73 582.045 113.647C553.916 90.5642 512.664 94.3564 489.877 122.122Z" fill="#00B5B4"/>
<path fill-rule="evenodd" clip-rule="evenodd" d="M213.475 434.106L118.538 544.212C96.6751 572.703 102.347 613.758 131.201 635.95C160.055 658.11 201.175 653.032 223.071 624.541L317.976 514.402C339.871 485.943 334.2 444.889 305.346 422.696C276.459 400.503 235.338 405.615 213.475 434.106Z" fill="#0077B7"/>
<path fill-rule="evenodd" clip-rule="evenodd" d="M413.11 -3.05429L-17.4218 478.59C-40.175 506.355 -35.8222 547.575 -7.66092 570.658C20.4674 593.741 61.7531 589.949 84.5063 562.183L515.005 80.5393C537.791 52.7737 533.406 11.554 505.277 -11.5291C477.116 -34.6121 435.863 -30.8199 413.11 -3.05429Z" fill="#143087"/>
<path fill-rule="evenodd" clip-rule="evenodd" d="M214.759 -6.41757L30.9521 199.483C8.16586 227.216 12.5516 268.435 40.68 291.551C68.8083 314.634 110.094 310.842 132.847 283.077L316.654 77.176C339.44 49.4104 335.055 8.1907 306.926 -14.8923C278.798 -37.9754 237.512 -34.1832 214.759 -6.41757Z" fill="#62A0F6"/>
</svg>
