<svg width="28" height="29" viewBox="0 0 28 29" fill="none" xmlns="http://www.w3.org/2000/svg">
<path d="M22.3333 10.5001V8.92432C22.3333 6.66667 22.3333 5.53784 21.9971 4.63627C21.4565 3.18688 20.3132 2.04361 18.8638 1.50302C17.9622 1.16675 16.8334 1.16675 14.5758 1.16675C10.6249 1.16675 8.64942 1.16675 7.07167 1.75522C4.53523 2.70126 2.53451 4.70198 1.58847 7.23841C1 8.81616 1 10.7916 1 14.7425L1 18.1364C1 22.2289 1 24.2752 2.06378 25.6962C2.36857 26.1034 2.73003 26.4648 3.13718 26.7696C4.55823 27.8334 6.60448 27.8334 10.697 27.8334H11.6667C13.2264 27.8334 16.3333 27.8334 16.3333 27.8334" stroke="#62A0F6" stroke-width="1.5" stroke-linecap="round" stroke-linejoin="round"/>
<path d="M11.666 17.6111H12.7864C13.6685 17.6111 14.1095 17.6111 14.464 17.8434C14.8184 18.0758 15.0156 18.4941 15.4101 19.3309L17.5327 23.8333L20.466 14.5L22.5886 19.0024C22.9831 19.8392 23.1803 20.2576 23.5347 20.4899C23.8892 20.7222 24.3302 20.7222 25.2122 20.7222H26.3327" stroke="#62A0F6" stroke-width="1.5" stroke-linecap="round" stroke-linejoin="round"/>
<path d="M1 14.5001C1 12.0455 2.98985 10.0556 5.44444 10.0556H6.92593C7.61479 10.0556 7.95923 10.0556 8.24182 9.97992C9.00869 9.77443 9.60769 9.17544 9.81317 8.40857C9.88889 8.12598 9.88889 7.78154 9.88889 7.09267V5.61119C9.88889 3.15659 11.8787 1.16675 14.3333 1.16675" stroke="#62A0F6" stroke-width="1.5" stroke-linecap="round" stroke-linejoin="round"/>
</svg>
