<svg width="97" height="96" viewBox="0 0 97 96" fill="none" xmlns="http://www.w3.org/2000/svg">
<mask id="mask0_399_501" style="mask-type:luminance" maskUnits="userSpaceOnUse" x="1" y="0" width="96" height="96">
<path d="M96.547 47.9782C96.547 68.8082 83.2267 87.048 63.399 93.3663C63.2805 93.4036 63.1586 93.4409 63.0367 93.4778C62.0648 93.7824 61.0557 94.057 60.0366 94.3005C58.5094 94.6662 56.9215 94.9642 55.3166 95.1773C54.8594 95.2415 54.4025 95.2958 53.9556 95.3431C52.6792 95.4785 51.3858 95.5596 50.1125 95.5904C49.6587 95.6004 49.2795 95.6073 48.9173 95.6073C47.6001 95.6073 46.2898 95.5531 45.0134 95.4481L44.993 95.4446C44.2754 95.387 43.5505 95.3127 42.8428 95.2247C42.8225 95.2212 42.8021 95.2177 42.7955 95.2177C42.0406 95.1197 41.2822 95.0043 40.5438 94.8689C38.5663 94.5236 36.5891 94.0394 34.6693 93.4402C14.7027 87.1866 1.28784 68.9159 1.28784 47.9775C1.28784 40.3628 3.13307 32.7851 6.62079 26.0707C9.07557 21.3304 12.3056 17.0508 16.2199 13.3465L16.2403 13.3262C16.2503 13.3162 16.2606 13.3093 16.2606 13.3058C18.5293 11.1695 21.0144 9.24963 23.6453 7.60056C23.8484 7.47175 24.0549 7.34672 24.2614 7.22136L24.3764 7.1502C30.5455 3.43247 37.3206 1.21153 44.5157 0.54776C45.9717 0.415835 47.4547 0.348145 48.9173 0.348145C52.635 0.348145 56.3358 0.781543 59.9247 1.63146C62.6775 2.2783 65.3996 3.18554 68.0136 4.33349C70.4922 5.41687 72.9027 6.73062 75.1814 8.23739C79.3225 10.9798 82.996 14.3353 86.0976 18.2122C92.9343 26.7383 96.547 37.0316 96.547 47.9782Z" fill="white"/>
</mask>
<g mask="url(#mask0_399_501)">
<path d="M45.8298 51.4012C45.6008 51.3846 45.3815 51.3584 45.1705 51.3238C44.7167 51.252 44.3016 51.1404 43.9221 50.9954C43.9207 50.994 43.9179 50.994 43.9179 50.994C43.4683 50.8217 43.0711 50.6024 42.7164 50.3444C40.4364 48.6794 39.9868 45.3554 39.9163 42.3139C39.8638 40.1333 40.0089 38.0961 39.8127 36.9208C39.7478 36.5334 39.3589 35.892 38.7217 35.0587C34.7602 29.885 21.1826 17.3442 16.1052 12.7016C18.3922 10.5459 20.8915 8.61053 23.5673 6.93315C23.8115 6.78015 24.057 6.62818 24.304 6.48071C29.5975 12.1428 43.8461 27.3442 45.8295 29.0226C45.9894 29.1576 46.1714 29.2972 46.3731 29.4363C47.7275 30.3881 49.9412 31.4708 52.1235 32.8322H52.1249C54.5538 34.3466 56.9402 36.2074 58.0533 38.6141C58.1665 38.8583 58.256 39.1121 58.3251 39.3729V39.3742C59.6284 44.328 53.1541 51.9365 45.8298 51.4012Z" fill="white"/>
<path d="M46.5667 51.7036C46.3181 51.7036 46.0635 51.6943 45.81 51.676C45.5821 51.6594 45.3521 51.6325 45.1266 51.5956C44.6752 51.5248 44.2418 51.4111 43.8388 51.2585C43.3636 51.0765 42.9384 50.8465 42.5547 50.5674C40.1003 48.775 39.7087 45.219 39.6413 42.3211C39.6216 41.4919 39.6296 40.7127 39.6372 39.9592C39.6496 38.7346 39.6603 37.6782 39.5419 36.9664C39.5046 36.7429 39.2936 36.2594 38.5031 35.2265C34.6541 30.1988 21.4277 17.9416 15.9197 12.9053L15.7018 12.7056L15.9159 12.5019C18.2225 10.3282 20.7474 8.37663 23.4215 6.70029C23.667 6.54626 23.9143 6.39327 24.1626 6.24511L24.3536 6.13184L24.5052 6.29347C30.3264 12.5195 44.075 27.1777 46.0079 28.8133C46.1637 28.9455 46.3395 29.0795 46.5298 29.2108C47.255 29.7205 48.2161 30.26 49.3285 30.8854C50.2288 31.391 51.2483 31.9636 52.2443 32.5838C54.2636 33.8426 57.0575 35.806 58.3032 38.4997C58.4196 38.7515 58.5163 39.0219 58.5909 39.3034C59.1742 41.5444 58.2835 44.3618 56.2128 46.8542C54.2657 49.1985 50.7089 51.7036 46.5667 51.7036ZM44.0567 50.7525C44.4169 50.8872 44.8061 50.9881 45.2133 51.0523C45.4208 51.0865 45.6346 51.1113 45.8498 51.1269C46.0884 51.1445 46.3305 51.1535 46.5698 51.1535C50.5193 51.1535 53.9217 48.7512 55.789 46.5029C57.7517 44.1404 58.6002 41.5019 58.0587 39.445C57.9889 39.1842 57.9043 38.9483 57.8035 38.7308C56.622 36.1765 53.9276 34.2837 52.0039 33.0825C50.9762 32.4422 49.9581 31.8707 49.0598 31.3661C47.935 30.7345 46.9639 30.1888 46.2155 29.6628C46.0134 29.5233 45.8235 29.3786 45.6522 29.2339C43.7072 27.5873 30.1196 13.1038 24.2559 6.83258C24.0749 6.9424 23.8939 7.05463 23.7143 7.16756C21.1542 8.77207 18.7316 10.6328 16.5113 12.7001C23.3631 18.9704 35.2405 30.0597 38.9413 34.8925C39.6503 35.8195 40.0136 36.45 40.0854 36.8762C40.2122 37.6391 40.2012 38.717 40.1884 39.9654C40.1811 40.7228 40.1732 41.4984 40.1929 42.3083C40.2568 45.0801 40.6197 48.4728 42.8797 50.1233C43.2113 50.364 43.578 50.5647 43.9693 50.7197H44.0028L44.0567 50.7525Z" fill="white"/>
<path d="M46.5663 51.5307C46.32 51.5307 46.0724 51.5218 45.822 51.5038C45.5955 51.4872 45.3706 51.461 45.1534 51.4254C44.7127 51.356 44.2911 51.2451 43.8994 51.097L43.8797 51.0901C43.4394 50.9209 43.0281 50.6981 42.6562 50.4277C40.2629 48.6802 39.8802 45.1752 39.8139 42.3167C39.7942 41.4982 39.8021 40.7167 39.8097 39.9607C39.8222 38.7285 39.8329 37.6641 39.712 36.9378C39.6526 36.5842 39.2924 35.9733 38.6404 35.1213C34.7842 30.0846 21.5478 17.8177 16.036 12.7773L15.9545 12.7027L16.0349 12.6267C18.3319 10.4617 20.8478 8.51662 23.5129 6.84615C23.7577 6.69246 24.0036 6.54051 24.2513 6.3927L24.3224 6.35059L24.379 6.411C30.2024 12.6394 43.9564 27.3032 45.8959 28.9446C46.0572 29.081 46.2375 29.2185 46.4312 29.3525C47.1627 29.8664 48.1276 30.4082 49.2448 31.0361C50.1431 31.5407 51.1605 32.1122 52.1527 32.73L52.1789 32.7456C54.153 33.9764 56.9196 35.9197 58.1459 38.5714C58.2578 38.8138 58.3514 39.0745 58.4236 39.3467L58.4271 39.3612C58.9924 41.5338 58.1159 44.2921 56.0797 46.7431C54.1129 49.1115 50.63 51.5304 46.5663 51.5307ZM43.9751 50.9064C44.3529 51.049 44.7597 51.1553 45.1859 51.2227C45.3976 51.2572 45.6165 51.2831 45.8368 51.299C50.1424 51.615 53.8684 49.0846 55.9215 46.6129C57.9194 44.2079 58.7807 41.512 58.225 39.4012L58.2216 39.3871C58.1532 39.1308 58.0648 38.886 57.9595 38.658C56.7614 36.0672 54.0452 34.1533 52.095 32.9355L52.0688 32.92C51.0728 32.2987 50.0481 31.723 49.144 31.2153C48.0219 30.585 47.0528 30.0405 46.3138 29.5214C46.1149 29.3839 45.9294 29.2427 45.7629 29.1018C43.8217 27.4586 30.1433 12.8774 24.2854 6.61234C24.063 6.74599 23.842 6.88275 23.6217 7.02089C20.9991 8.66477 18.5215 10.5753 16.256 12.7009C23.1209 18.9805 35.0905 30.1482 38.8031 34.997C39.4848 35.888 39.8481 36.5117 39.914 36.9043C40.038 37.6482 40.0273 38.7209 40.0145 39.9631C40.0069 40.717 39.999 41.4969 40.0187 42.3122C40.0836 45.1238 40.4559 48.5676 42.7763 50.2623C43.1286 50.5182 43.5182 50.7302 43.935 50.8922H43.9581L43.9751 50.9064Z" fill="white"/>
<path d="M65.4416 63.8502C65.2141 64.849 64.9353 65.8875 64.6031 66.9619C61.2086 77.9165 56.9853 91.0789 55.5769 95.4514C53.4623 95.737 51.3053 95.8831 49.1119 95.8831C47.7768 95.8831 46.4541 95.8292 45.1466 95.7218C44.4155 95.6624 43.6885 95.5868 42.9674 95.4957C44.3509 90.6445 48.6999 75.0666 49.89 67.1301C50.1743 65.2444 50.2789 63.7908 50.1231 63.0141C50.0706 62.7492 50.0185 62.4899 49.9687 62.2361C49.5343 60.0569 49.192 58.2638 49.0888 56.8485C49.0653 56.5229 49.0722 56.2003 49.1081 55.8815C49.2473 54.6593 49.8199 53.5162 50.7275 52.6552C52.4833 50.9944 55.8929 47.9961 58.6972 46.8827C59.1151 46.7159 59.5191 46.5915 59.9028 46.52L59.9277 46.5159C60.0475 46.4938 60.165 46.4772 60.2793 46.4662C61.3482 46.3629 62.4322 46.7946 63.3798 47.7253C64.9522 49.2687 66.1469 52.1873 66.2653 56.3074C66.3285 58.4931 66.0885 61.0156 65.4416 63.8502Z" fill="white"/>
<path d="M49.1127 96.1591C47.7782 96.1591 46.4362 96.1045 45.1242 95.9964C44.4038 95.9381 43.6665 95.8614 42.9333 95.7692L42.6149 95.7284L42.7029 95.4207C44.0218 90.7947 48.4196 75.0818 49.6179 67.0896C49.9146 65.1208 49.994 63.768 49.8535 63.0687L49.6991 62.2899C49.2622 60.1014 48.92 58.3125 48.8139 56.8689C48.7898 56.5305 48.7967 56.1879 48.8347 55.8515C48.9815 54.5644 49.5862 53.3588 50.5383 52.4564C52.3286 50.7634 55.7555 47.7554 58.5957 46.6278C59.0395 46.4503 59.4622 46.3232 59.8525 46.2503C60.0041 46.2227 60.1308 46.2047 60.2534 46.193C60.3667 46.1823 60.4807 46.1768 60.5939 46.1768C61.6421 46.1768 62.6723 46.6447 63.573 47.5302C65.3488 49.2732 66.4304 52.4698 66.541 56.3005C66.6087 58.6389 66.3296 61.1996 65.7107 63.9117C65.4786 64.9291 65.1948 65.9831 64.8667 67.0434C61.142 79.0655 56.371 93.8863 55.8391 95.5364L55.787 95.7015L55.6143 95.7246C53.479 96.013 51.2915 96.1591 49.1127 96.1591ZM43.3204 95.2618C43.9407 95.3361 44.5613 95.3986 45.1691 95.4477C46.4552 95.5533 47.7751 95.6068 49.093 95.6068C51.2083 95.6068 53.3187 95.4708 55.3684 95.2021C56.6438 91.2392 60.8927 78.007 64.3403 66.8804C64.6653 65.8295 64.9457 64.7892 65.1737 63.7891C65.7822 61.1219 66.0568 58.6077 65.9898 56.3163C65.8837 52.6266 64.8622 49.5675 63.1869 47.9225C62.3905 47.14 61.4953 46.7266 60.5974 46.7266C60.5004 46.7266 60.403 46.7314 60.3056 46.7411C60.1978 46.7507 60.088 46.7663 59.9779 46.787C59.598 46.8578 59.2101 46.9749 58.7992 47.1386C56.0436 48.2327 52.6778 51.1902 50.9168 52.8555C50.0586 53.6695 49.5136 54.7553 49.3821 55.9133C49.3475 56.2158 49.3417 56.5242 49.3638 56.8288C49.4667 58.2396 49.8058 60.012 50.2389 62.1825L50.3932 62.9606C50.5462 63.7224 50.4686 65.1394 50.1622 67.1715C48.9825 75.0421 44.6998 90.4131 43.3204 95.2618Z" fill="white"/>
<path d="M49.1138 95.9861C47.7818 95.9861 46.445 95.9316 45.1399 95.8242C44.4233 95.7661 43.6884 95.6902 42.9562 95.5976L42.8374 95.5824L42.8702 95.4674C44.1901 90.839 48.5899 75.1157 49.79 67.1149C50.0898 65.1267 50.1685 63.754 50.0238 63.0346L49.8691 62.2562C49.4336 60.0722 49.0921 58.2874 48.9874 56.8566C48.964 56.5281 48.9705 56.1966 49.0071 55.8709C49.1491 54.6245 49.7355 53.4565 50.6579 52.5814C52.4386 50.8975 55.8462 47.9053 58.6601 46.7881C59.0946 46.6144 59.5069 46.4908 59.8847 46.42L59.9113 46.4155C60.0312 46.3934 60.1524 46.3765 60.2702 46.3651C61.385 46.2587 62.4852 46.7028 63.4526 47.6536C65.197 49.3655 66.2596 52.5189 66.3687 56.3057C66.4364 58.63 66.1584 61.1759 65.5427 63.8734C65.3127 64.8836 65.0298 65.9328 64.7021 66.9927C61.0911 78.6459 56.5493 92.7706 55.6756 95.4837L55.6559 95.5451L55.5917 95.5538C53.4653 95.8404 51.2858 95.9861 49.1138 95.9861ZM43.1002 95.4087C43.7899 95.494 44.4809 95.5648 45.1561 95.6197C48.5544 95.8987 52.1036 95.8124 55.5005 95.3586C56.4208 92.5001 60.9225 78.4985 64.5066 66.9315C64.8326 65.8772 65.1144 64.8325 65.343 63.8275C65.9547 61.1465 66.2309 58.6179 66.1639 56.3113C66.0565 52.577 65.016 49.4746 63.3092 47.7997C62.3865 46.8928 61.3421 46.4663 60.2902 46.5695C60.1783 46.5802 60.0629 46.5965 59.9476 46.6179L59.921 46.6223C59.558 46.6904 59.1588 46.8106 58.7364 46.9791C55.9539 48.0836 52.5694 51.0567 50.7992 52.731C49.912 53.5726 49.3476 54.696 49.2112 55.8944C49.176 56.2076 49.1695 56.5264 49.1922 56.8424C49.2959 58.2618 49.6364 60.04 50.0705 62.2175L50.2249 62.9952C50.374 63.7377 50.2957 65.1347 49.9924 67.1464C48.801 75.0937 44.4599 90.6376 43.1002 95.4087Z" fill="white"/>
<path d="M59.7413 35.8724C58.8403 36.1528 58.5274 37.2679 59.1332 37.9915C60.9932 40.2138 64.7341 44.9686 67.259 50.0664C70.7367 57.0874 70.6459 48.3407 70.3392 46.4233C70.0325 44.5059 67.2659 35.9062 63.6763 35.5226C62.0304 35.3464 60.6997 35.5743 59.7413 35.8724Z" fill="white"/>
<path d="M69.4037 53.0265C68.7313 53.0265 67.9712 52.1248 67.0121 50.1878C64.5266 45.1701 60.8763 40.503 58.9216 38.1678C58.5745 37.753 58.4585 37.1952 58.6114 36.6765C58.7613 36.1657 59.1533 35.7665 59.6596 35.609C60.5648 35.3275 61.5307 35.1846 62.5302 35.1846C62.9149 35.1846 63.3107 35.2063 63.7054 35.2485C67.4998 35.6543 70.3241 44.5858 70.6111 46.3796C70.78 47.4374 71.0632 52.5331 69.6289 52.9917C69.5546 53.0152 69.479 53.0265 69.4037 53.0265ZM62.5291 35.7351C61.5867 35.7351 60.676 35.8697 59.8226 36.135C59.4879 36.2393 59.2389 36.4931 59.1391 36.8319C59.0386 37.1738 59.1153 37.5413 59.3443 37.8141C61.3142 40.168 64.9943 44.8734 67.506 49.9436C68.6692 52.2923 69.2566 52.475 69.4089 52.475C69.4279 52.475 69.4452 52.4723 69.4611 52.4674C70.2312 52.2212 70.3438 48.1923 70.0672 46.4666C69.7342 44.3834 66.9566 36.1498 63.6471 35.7955C63.271 35.7558 62.8949 35.7351 62.5291 35.7351Z" fill="white"/>
<path d="M69.4029 52.854C68.8123 52.854 68.0781 51.9526 67.166 50.1115C64.6729 45.0783 61.0128 40.3985 59.053 38.057C58.7432 37.6864 58.6396 37.1888 58.7756 36.7253C58.9096 36.2698 59.2588 35.9144 59.7095 35.7742C60.9465 35.3891 62.2848 35.2703 63.6859 35.4202C67.3846 35.8156 70.1561 44.6352 70.4392 46.4069C70.6309 47.606 70.8164 52.4306 69.5752 52.8274C69.5192 52.845 69.4619 52.854 69.4029 52.854ZM59.7706 35.97C59.3797 36.0916 59.0889 36.3879 58.9728 36.7833C58.8561 37.1808 58.9449 37.6077 59.2108 37.925C61.1762 40.2735 64.8477 44.9682 67.3501 50.0203C68.5782 52.4996 69.2309 52.7227 69.513 52.6316C70.5035 52.3152 70.47 47.8971 70.2369 46.4394C69.9578 44.6939 67.2496 36.0076 63.6645 35.6243C62.2903 35.4765 60.9807 35.5936 59.7706 35.97Z" fill="white"/>
</g>
<mask id="mask1_399_501" style="mask-type:luminance" maskUnits="userSpaceOnUse" x="1" y="0" width="96" height="96">
<path d="M96.547 47.9782C96.547 68.8082 83.2267 87.048 63.399 93.3663C63.2805 93.4036 63.1586 93.4409 63.0367 93.4778C62.0648 93.7824 61.0557 94.057 60.0366 94.3005C58.5094 94.6662 56.9215 94.9642 55.3166 95.1773C54.8594 95.2415 54.4025 95.2958 53.9556 95.3431C52.6792 95.4785 51.3858 95.5596 50.1125 95.5904C49.6587 95.6004 49.2795 95.6073 48.9173 95.6073C47.6001 95.6073 46.2898 95.5531 45.0134 95.4481L44.993 95.4446C44.2754 95.387 43.5505 95.3127 42.8428 95.2247C42.8225 95.2212 42.8021 95.2177 42.7955 95.2177C42.0406 95.1197 41.2822 95.0043 40.5438 94.8689C38.5663 94.5236 36.5891 94.0394 34.6693 93.4402C14.7027 87.1866 1.28784 68.9159 1.28784 47.9775C1.28784 40.3628 3.13307 32.7851 6.62079 26.0707C9.07557 21.3304 12.3056 17.0508 16.2199 13.3465L16.2403 13.3262C16.2503 13.3162 16.2606 13.3093 16.2606 13.3058C18.5293 11.1695 21.0144 9.24963 23.6453 7.60056C23.8484 7.47175 24.0549 7.34672 24.2614 7.22136L24.3764 7.1502C30.5455 3.43247 37.3206 1.21153 44.5157 0.54776C45.9717 0.415835 47.4547 0.348145 48.9173 0.348145C52.635 0.348145 56.3358 0.781543 59.9247 1.63146C62.6775 2.2783 65.3996 3.18554 68.0136 4.33349C70.4922 5.41687 72.9027 6.73062 75.1814 8.23739C79.3225 10.9798 82.996 14.3353 86.0976 18.2122C92.9343 26.7383 96.547 37.0316 96.547 47.9782Z" fill="white"/>
</mask>
<g mask="url(#mask1_399_501)">
<g opacity="0.33">
<path d="M73.1942 52.3434C75.7069 41.7023 69.1175 31.039 58.4763 28.5263C47.8352 26.0137 37.1719 32.6031 34.6592 43.2442C32.1465 53.8854 38.736 64.5486 49.3771 67.0613C60.0183 69.574 70.6815 62.9846 73.1942 52.3434Z" fill="#62A0F6"/>
</g>
<g opacity="0.2">
<path d="M68.5449 51.2448C70.4511 43.172 65.4521 35.0823 57.3792 33.1761C49.3063 31.2698 41.2167 36.2689 39.3104 44.3418C37.4042 52.4146 42.4032 60.5043 50.4761 62.4105C58.549 64.3168 66.6386 59.3177 68.5449 51.2448Z" fill="#62A0F6"/>
</g>
<g opacity="0.39">
<path d="M63.1271 49.9664C64.3271 44.8843 61.1801 39.7916 56.0979 38.5915C51.0158 37.3915 45.9231 40.5386 44.723 45.6207C43.523 50.7029 46.6701 55.7956 51.7522 56.9956C56.8343 58.1957 61.9271 55.0486 63.1271 49.9664Z" fill="#62A0F6"/>
</g>
</g>
<path d="M48.9181 95.9531C47.5996 95.9531 46.2765 95.8992 44.9856 95.7928L44.9369 95.7856C44.252 95.7324 43.5234 95.6578 42.8009 95.5677L42.7622 95.5615C41.9499 95.4561 41.1864 95.3384 40.4822 95.2089C38.5168 94.8656 36.5258 94.3814 34.5673 93.7698C14.4556 87.4709 0.943359 69.0683 0.943359 47.9776C0.943359 40.3073 2.80104 32.6771 6.31501 25.912C8.77117 21.1689 12.0016 16.8785 15.9158 13.1601V13.157L16.0246 13.0545C18.3102 10.9029 20.8126 8.96927 23.4625 7.30812C23.6666 7.1793 23.8748 7.05291 24.0831 6.92651L24.196 6.85707C30.4124 3.11033 37.2376 0.873165 44.4848 0.204215C49.6831 -0.266847 54.9549 0.0998881 60.0054 1.2955C62.7875 1.94926 65.5289 2.86513 68.1536 4.01723C70.646 5.10682 73.0753 6.4299 75.3732 7.94946C79.5472 10.714 83.2466 14.0943 86.3686 17.9968C93.2535 26.584 96.8932 36.9515 96.8932 47.9779C96.8932 68.9592 83.4752 87.3317 63.5045 93.6952L63.1384 93.8081C62.1953 94.1037 61.1778 94.3827 60.1176 94.6362C58.5497 95.0116 56.95 95.3086 55.3631 95.5196C54.939 95.5794 54.4901 95.6343 53.9927 95.6865C52.7301 95.8208 51.4275 95.9044 50.1217 95.9358C49.6644 95.9465 49.2828 95.9531 48.9181 95.9531ZM42.8409 94.8766C42.8589 94.8787 42.88 94.8814 42.9007 94.8845C43.599 94.9712 44.3177 95.0444 45.0219 95.1007L45.0712 95.108C46.3152 95.2092 47.6189 95.2624 48.9188 95.2624C49.2787 95.2624 49.6554 95.2555 50.1061 95.2455C51.3929 95.2147 52.6759 95.1325 53.9202 95.0003C54.4096 94.9481 54.851 94.8946 55.2695 94.8355C56.836 94.6276 58.4119 94.3348 59.9573 93.9649C61.002 93.7148 62.0039 93.4399 62.9343 93.1488L63.2955 93.0372C82.9779 86.7656 96.2025 68.6577 96.2025 47.9783C96.2025 37.1104 92.6154 26.8924 85.8295 18.4292C82.7521 14.5823 79.1058 11.2507 74.9923 8.52583C72.7275 7.02838 70.3332 5.72465 67.8767 4.65026C65.2903 3.51474 62.5886 2.61234 59.8472 1.96791C54.8682 0.789566 49.67 0.427631 44.548 0.892477C37.4054 1.55107 30.679 3.75649 24.5559 7.44694L24.4436 7.51604C24.2368 7.6414 24.0323 7.76604 23.8306 7.89347C21.2595 9.50489 18.8302 11.3757 16.6069 13.4558V13.463L16.4798 13.577C12.57 17.2781 9.36378 21.528 6.9287 26.2304C3.46549 32.8981 1.63478 40.4182 1.63478 47.9783C1.63478 68.7655 14.9526 86.9031 34.7742 93.1115C36.704 93.7138 38.666 94.1911 40.6048 94.5295C41.3003 94.657 42.0518 94.7734 42.8417 94.8763L42.8409 94.8766Z" fill="white"/>
</svg>
