<svg width="379" height="489" viewBox="0 0 379 489" fill="none" xmlns="http://www.w3.org/2000/svg">
<path d="M167.355 130.456H113.191V0L137.771 1.05851L137.741 1.74853L113.882 0.721102V129.765H167.355V130.456Z" fill="white"/>
<path d="M368.341 150.669H247.363V149.978H367.651V125.51H368.341V150.669Z" fill="white"/>
<path d="M378.866 249.98H255.891V250.671H378.866V249.98Z" fill="white"/>
<path d="M365.302 363.486H364.611V320.739H227.838V320.048H365.302V363.486Z" fill="white"/>
<path d="M125.713 196.012H16.6228V123.93H17.3135V195.321H125.713V196.012Z" fill="white"/>
<path d="M153.675 252.932H0.248047V253.622H153.675V252.932Z" fill="white"/>
<path d="M117.023 421.223H72.1576V420.532H116.332V387.532H154.632V388.223H117.023V421.223Z" fill="white"/>
<path d="M261.305 488.196H245.702V487.505H260.614V401.902H228.359V401.211H261.305V488.196Z" fill="white"/>
</svg>
