<svg width="98" height="98" viewBox="0 0 98 98" fill="none" xmlns="http://www.w3.org/2000/svg">
<mask id="mask0_399_781" style="mask-type:luminance" maskUnits="userSpaceOnUse" x="0" y="1" width="98" height="97">
<path d="M97.056 49.0925C97.056 70.101 83.6217 88.4973 63.624 94.8694C63.5045 94.9071 63.3816 94.9447 63.2586 94.982C62.2785 95.2894 61.2608 95.566 60.233 95.8119C58.6927 96.1807 57.0913 96.4812 55.4726 96.6964C55.0116 96.7613 54.5505 96.8158 54.0999 96.8635C52.8124 97.0003 51.508 97.0821 50.224 97.1129C49.7664 97.1232 49.3837 97.1298 49.0183 97.1298C47.6901 97.1298 46.3684 97.0752 45.081 96.9692L45.0606 96.9657C44.3367 96.9077 43.606 96.8328 42.8921 96.7437C42.8717 96.7402 42.8514 96.7368 42.8444 96.7368C42.0829 96.6376 41.318 96.5216 40.5734 96.3852C38.579 96.0367 36.5849 95.5484 34.6485 94.944C14.5106 88.6368 0.980713 70.2098 0.980713 49.0918C0.980713 41.4115 2.84182 33.7692 6.35925 26.9971C8.83509 22.2164 12.0928 17.8998 16.0405 14.1638L16.0609 14.1434C16.0713 14.1331 16.0813 14.1265 16.0813 14.1231C18.3693 11.9684 20.8758 10.032 23.5292 8.36913C23.734 8.23928 23.9422 8.11288 24.1508 7.98648L24.2669 7.91464C30.4887 4.16514 37.3222 1.92484 44.5788 1.25554C46.0473 1.12224 47.543 1.0542 49.0183 1.0542C52.7678 1.0542 56.5004 1.49142 60.1204 2.34824C62.8967 3.00061 65.6423 3.9158 68.2787 5.07342C70.7784 6.16612 73.21 7.49124 75.508 9.0108C79.6843 11.7767 83.3896 15.1612 86.5178 19.0713C93.4121 27.6706 97.056 38.0519 97.056 49.0925Z" fill="white"/>
</mask>
<g mask="url(#mask0_399_781)">
<path d="M22.749 -5.70673C22.749 -5.70673 29.7117 35.4169 28.3793 45.3638C27.0469 55.311 40.3703 58.0086 43.5818 56.5329C47.6379 54.669 49.9784 46.2341 47.2888 44.3101C46.9165 44.0438 46.5452 43.8163 46.1823 43.6225C43.262 42.0626 41.1235 39.3619 40.3334 36.1467C38.7223 29.5915 33.379 -0.568905 33.1607 -7.04221C33.1607 -7.04221 27.0922 -8.59353 22.749 -5.70673Z" fill="white"/>
<path d="M41.2698 57.1795C38.8586 57.1795 34.9713 56.3876 31.9526 54.156C29.8652 52.6129 27.503 49.8287 28.106 45.3274C29.419 35.5255 22.5468 -5.24965 22.4771 -5.66062L22.4474 -5.83675L22.5962 -5.93587C24.3831 -7.12354 26.661 -7.72583 29.3669 -7.72583C31.5485 -7.72583 33.2124 -7.31279 33.2286 -7.30899L33.4286 -7.25788L33.4355 -7.0517C33.6569 -0.494132 39.0175 29.639 40.6006 36.0805C41.3641 39.1884 43.4459 41.8486 46.312 43.3796C46.7047 43.5895 47.087 43.8271 47.4489 44.0862C48.4283 44.7872 48.8631 46.2722 48.6725 48.2677C48.3675 51.4695 46.4225 55.5298 43.6963 56.7824C43.1316 57.0421 42.2928 57.1795 41.2698 57.1795ZM23.0493 -5.57429C23.528 -2.71614 29.9309 35.8495 28.6513 45.4006C28.0839 49.6353 30.3111 52.2586 32.2796 53.7136C35.0107 55.7325 38.7557 56.6363 41.2557 56.6363C42.1985 56.6363 42.9628 56.514 43.4659 56.283C46.0119 55.1129 47.8336 51.2626 48.1244 48.2159C48.2926 46.4497 47.9296 45.1077 47.1281 44.5344C46.7848 44.2889 46.4225 44.0637 46.0519 43.8655C43.0488 42.2613 40.8668 39.4719 40.0659 36.2124C38.5125 29.8918 33.2169 0.14166 32.894 -6.81997C32.4233 -6.92013 31.0529 -7.17603 29.3641 -7.17603C26.8475 -7.17638 24.724 -6.63763 23.0493 -5.57429Z" fill="white"/>
<path d="M41.2695 57.0068C38.639 57.0068 34.8439 56.0788 32.0548 54.017C30.0048 52.5016 27.685 49.7675 28.277 45.35C29.5924 35.532 22.7168 -5.27842 22.647 -5.68939L22.636 -5.755L22.6912 -5.79196C27.0223 -8.67048 33.124 -7.15679 33.1848 -7.14125L33.2594 -7.12225L33.2618 -7.04558C33.4832 -0.481105 38.8476 29.6762 40.4317 36.1219C41.207 39.2774 43.3202 41.9784 46.2291 43.5321C46.6142 43.7379 46.9906 43.9717 47.347 44.2266C48.2743 44.8904 48.6839 46.3194 48.4995 48.2514C48.1987 51.4044 46.2923 55.3991 43.6231 56.6258C43.0788 56.8762 42.2562 57.0068 41.2695 57.0068ZM22.8601 -5.65796C23.1751 -3.78304 29.7744 35.7143 28.4797 45.3773C27.9012 49.6956 30.1706 52.3694 32.1764 53.852C35.9545 56.6448 41.5852 57.3362 43.5375 56.4393C46.14 55.2434 48.0005 51.3271 48.2957 48.2313C48.4701 46.4023 48.0809 45.0033 47.2279 44.3927C46.8784 44.1427 46.5099 43.9137 46.1328 43.712C43.1724 42.131 41.0222 39.382 40.2328 36.1702C38.6538 29.7446 33.3209 -0.230727 33.0601 -6.96132C32.3584 -7.12156 26.8538 -8.2678 22.8601 -5.65796Z" fill="white"/>
<path d="M90.5183 61.78C90.5183 61.78 87.015 61.1625 80.1905 60.5941C75.0668 60.1672 58.6709 58.6525 60.9457 56.4488C60.9457 56.4488 78.3622 56.3776 88.7428 57.9414C91.6417 58.3783 105.059 59.9075 105.059 59.9075L105.017 53.4729C105.017 53.4729 78.5905 51.7765 71.2538 51.7568C66.2842 51.7016 55.1845 46.8573 50.8517 48.629C50.0871 49.1487 49.1702 52.7815 48.7903 54.4582C48.1017 57.4973 45.132 59.5425 42.0252 59.7849C42.0055 59.7863 41.9858 59.7887 41.9661 59.7897C31.0961 60.239 28.1368 53.7267 27.3732 50.9687C27.2582 50.5533 26.667 50.5457 26.5509 50.9611C25.4351 54.9614 27.6775 68.0361 33.1682 67.5039C38.1835 67.018 55.1341 69.2099 63.416 68.6411C71.6976 68.0723 104.073 70.2142 104.073 70.2142L106.063 63.3897L90.5183 61.78Z" fill="white"/>
<path d="M104.054 70.4889C103.015 70.4205 78.5286 68.8216 67.1938 68.8216C65.6117 68.8216 64.347 68.8533 63.4343 68.9158C62.5149 68.979 61.4319 69.0108 60.2149 69.0108C55.947 69.0108 50.4787 68.6223 45.6538 68.279C41.5219 67.9855 37.6277 67.7088 35.0214 67.7088C34.2799 67.7088 33.6652 67.732 33.1941 67.7776C33.0767 67.789 32.9603 67.7945 32.8449 67.7945C31.6531 67.7945 30.5518 67.2015 29.5713 66.0321C26.5699 62.4519 25.4002 54.0601 26.2853 50.887C26.3716 50.5779 26.6351 50.378 26.957 50.378C27.2789 50.3783 27.5524 50.5866 27.6377 50.8953C28.3574 53.4934 31.0909 59.5367 40.9051 59.5367C41.2464 59.5367 41.5958 59.5295 41.9543 59.5146C45.2065 59.2608 47.8961 57.1573 48.5216 54.3972C48.9736 52.4031 49.8567 48.9727 50.6966 48.4012L50.7114 48.3912L50.728 48.3842C51.4163 48.1024 52.2631 47.9653 53.3161 47.9653C56.0817 47.9653 59.7659 48.9378 63.3286 49.8786C66.4102 50.6919 69.3208 51.4603 71.2562 51.4821C78.5096 51.5014 104.771 53.1815 105.034 53.1985L105.29 53.2147L105.336 60.216L105.028 60.1808C104.897 60.166 91.5996 58.6499 88.7021 58.2137C79.0891 56.7653 63.0419 56.7235 61.2437 56.7235H61.0676C60.9854 56.8302 61.0057 56.8879 61.0154 56.9145C61.3221 57.7727 66.5338 59.1797 80.2136 60.32C86.8876 60.876 90.4153 61.4828 90.5621 61.5084L106.419 63.1502L104.274 70.5034L104.054 70.4889ZM67.1927 68.2711C78.1612 68.2711 101.632 69.7799 103.87 69.9257L105.706 63.6299L90.483 62.0533C90.4361 62.0454 86.9515 61.4338 80.168 60.8684C71.5522 60.1504 61.1456 58.9141 60.4974 57.1003C60.4245 56.8972 60.4104 56.585 60.7547 56.2514L60.8344 56.1744L61.2523 56.1733C63.0537 56.1733 79.1306 56.2155 88.7846 57.6694C91.4062 58.0645 102.729 59.3641 104.783 59.5989L104.744 53.7314C102.32 53.5773 78.1159 52.0505 71.2534 52.0322C69.2472 52.0101 66.3045 51.2334 63.1891 50.4108C59.8302 49.5239 56.0237 48.5186 53.2836 48.5186C52.3419 48.5186 51.5652 48.6391 50.975 48.8764C50.5139 49.2252 49.7469 51.4824 49.0589 54.5191C48.3807 57.5119 45.4973 59.7902 42.0469 60.0596L41.9833 60.0644C41.6131 60.08 41.2567 60.0872 40.9096 60.0872C30.7145 60.0879 27.8615 53.7621 27.1079 51.0424C27.0789 50.9371 26.9857 50.9285 26.9577 50.9285C26.9159 50.9285 26.8417 50.9423 26.8158 51.0352C25.96 54.1033 27.091 62.217 29.9937 65.6792C30.8647 66.7184 31.823 67.245 32.8429 67.245C32.9416 67.245 33.0411 67.2402 33.1412 67.2305C33.6486 67.1811 34.2719 67.1573 35.0476 67.1573C37.6246 67.1573 41.3617 67.4229 45.6886 67.7306C50.5105 68.0732 55.9688 68.4614 60.2152 68.4614C61.4191 68.4614 62.4897 68.4299 63.3966 68.3674C64.3197 68.3035 65.5969 68.2711 67.1927 68.2711Z" fill="white"/>
<path d="M104.148 70.3215L104.065 70.316C103.742 70.2946 71.6021 68.1817 63.4224 68.7429C58.947 69.0503 51.8914 68.5491 45.6665 68.1064C40.4274 67.7341 35.4785 67.3822 33.1778 67.6053C31.9138 67.7262 30.7441 67.1612 29.7042 65.9207C26.7338 62.3773 25.5762 54.073 26.452 50.9327C26.517 50.7002 26.7152 50.55 26.9573 50.55H26.958C27.2008 50.5504 27.4073 50.7072 27.4715 50.9406C28.241 53.7186 31.1858 60.1346 41.9615 59.6867L41.9947 59.6843C45.3038 59.4259 48.0484 57.2678 48.6904 54.4349C49.0495 52.8494 49.9734 49.1016 50.7943 48.5435C53.4604 47.4512 58.4549 48.7694 63.2854 50.0444C66.3776 50.8608 69.2983 51.6317 71.2551 51.6534C78.5102 51.6728 104.759 53.3526 105.024 53.3695L105.119 53.3757L105.163 60.021L105.048 60.0079C104.914 59.9927 91.5957 58.4735 88.7279 58.0418C78.7223 56.5343 61.9575 56.5471 60.9891 56.5502C60.8489 56.697 60.8043 56.8354 60.8534 56.9719C61.293 58.2023 68.5254 59.5181 80.1997 60.491C86.855 61.0453 90.4004 61.6545 90.533 61.6777L106.196 63.2998L104.148 70.3215ZM67.1927 68.4431C78.3852 68.4431 102.392 70.001 103.997 70.106L105.93 63.4783L90.5006 61.8804C90.4657 61.8741 86.9227 61.257 80.1821 60.6955C73.17 60.1111 61.3092 58.8592 60.6596 57.0409C60.5788 56.8151 60.6513 56.5906 60.8744 56.3744L60.9041 56.3457H60.9456C61.1193 56.3444 78.4888 56.2926 88.7583 57.8394C91.48 58.2493 103.64 59.6414 104.956 59.7917L104.915 53.5684C103.165 53.4569 78.2823 51.8776 71.2533 51.8586C69.2703 51.8368 66.3376 51.0625 63.2325 50.2426C58.6586 49.0349 53.4735 47.6663 50.8903 48.7231C50.288 49.1354 49.4588 51.9691 48.89 54.4801C48.2283 57.3998 45.4085 59.6231 42.0326 59.8863L41.9698 59.8911C41.6079 59.9063 41.2535 59.9132 40.9089 59.9132C30.8567 59.9139 28.0303 53.7262 27.2736 50.9948C27.2246 50.8177 27.0726 50.7545 26.9573 50.7545H26.9569C26.8395 50.7545 26.6969 50.8156 26.6489 50.9876C25.7838 54.0885 26.9269 62.2896 29.8607 65.7887C30.8542 66.9743 31.9639 67.5176 33.1574 67.4008C35.474 67.176 40.204 67.5124 45.6803 67.9016C51.898 68.3433 58.9453 68.8444 63.4079 68.5381C64.3698 68.4725 65.6624 68.4431 67.1927 68.4431Z" fill="white"/>
</g>
<mask id="mask1_399_781" style="mask-type:luminance" maskUnits="userSpaceOnUse" x="0" y="1" width="98" height="97">
<path d="M97.056 49.0925C97.056 70.101 83.6217 88.4973 63.624 94.8694C63.5045 94.9071 63.3816 94.9447 63.2586 94.982C62.2785 95.2894 61.2608 95.566 60.233 95.8119C58.6927 96.1807 57.0913 96.4812 55.4726 96.6964C55.0116 96.7613 54.5505 96.8158 54.0999 96.8635C52.8124 97.0003 51.508 97.0821 50.224 97.1129C49.7664 97.1232 49.3837 97.1298 49.0183 97.1298C47.6901 97.1298 46.3684 97.0752 45.081 96.9692L45.0606 96.9657C44.3367 96.9077 43.606 96.8328 42.8921 96.7437C42.8717 96.7402 42.8514 96.7368 42.8444 96.7368C42.0829 96.6376 41.318 96.5216 40.5734 96.3852C38.579 96.0367 36.5849 95.5484 34.6485 94.944C14.5106 88.6368 0.980713 70.2098 0.980713 49.0918C0.980713 41.4115 2.84182 33.7692 6.35925 26.9971C8.83509 22.2164 12.0928 17.8998 16.0405 14.1638L16.0609 14.1434C16.0713 14.1331 16.0813 14.1265 16.0813 14.1231C18.3693 11.9684 20.8758 10.032 23.5292 8.36913C23.734 8.23928 23.9422 8.11288 24.1508 7.98648L24.2669 7.91464C30.4887 4.16514 37.3222 1.92484 44.5788 1.25554C46.0473 1.12224 47.543 1.0542 49.0183 1.0542C52.7678 1.0542 56.5004 1.49142 60.1204 2.34824C62.8967 3.00061 65.6423 3.9158 68.2787 5.07342C70.7784 6.16612 73.21 7.49124 75.508 9.0108C79.6843 11.7767 83.3896 15.1612 86.5178 19.0713C93.4121 27.6706 97.056 38.0519 97.056 49.0925Z" fill="white"/>
</mask>
<g mask="url(#mask1_399_781)">
<g opacity="0.33">
<path d="M52.9005 66.5213C59.7221 59.6997 59.7221 48.6397 52.9005 41.8181C46.0789 34.9965 35.0189 34.9965 28.1973 41.8181C21.3757 48.6397 21.3757 59.6997 28.1973 66.5213C35.0189 73.3429 46.0789 73.3429 52.9005 66.5213Z" fill="#62A0F6"/>
</g>
<g opacity="0.2">
<path d="M49.9212 63.5401C55.0963 58.365 55.0963 49.9744 49.9212 44.7993C44.7461 39.6241 36.3555 39.6241 31.1804 44.7993C26.0052 49.9744 26.0052 58.365 31.1803 63.5401C36.3555 68.7152 44.746 68.7152 49.9212 63.5401Z" fill="#62A0F6"/>
</g>
<g opacity="0.39">
<path d="M46.4476 60.0678C49.7055 56.81 49.7055 51.5279 46.4476 48.2701C43.1898 45.0122 37.9077 45.0122 34.6499 48.2701C31.392 51.5279 31.392 56.81 34.6498 60.0678C37.9077 63.3257 43.1898 63.3257 46.4476 60.0678Z" fill="#62A0F6"/>
</g>
</g>
<path d="M49.0138 97.4765C47.6866 97.4765 46.3525 97.4219 45.0481 97.3148L44.9998 97.3079C44.3087 97.2537 43.5742 97.1784 42.8448 97.088L42.7951 97.0807C41.9842 96.9754 41.214 96.8562 40.5064 96.726C38.5237 96.38 36.5155 95.8913 34.5411 95.2748C14.2582 88.9221 0.630859 70.3631 0.630859 49.0932C0.630859 41.3579 2.50406 33.6624 6.04842 26.8393C8.52599 22.0547 11.7834 17.7282 15.7318 13.9776V13.9749L15.8402 13.8726C18.1448 11.7024 20.6686 9.75257 23.3416 8.07726C23.5471 7.94706 23.7574 7.81929 23.9678 7.69185L24.0814 7.62174C30.3513 3.84323 37.2345 1.58635 44.5432 0.912562C49.7936 0.43701 55.1059 0.807913 60.196 2.0132C63.0024 2.67248 65.7673 3.59595 68.4134 4.75806C70.9272 5.85698 73.3771 7.19109 75.6945 8.72342C79.9043 11.5118 83.6352 14.9208 86.7831 18.8561C93.7271 27.5158 97.3971 37.9717 97.3971 49.0925C97.3971 70.2519 83.8652 88.7805 63.7245 95.1985L63.3557 95.3125C62.4046 95.6109 61.3789 95.892 60.3089 96.1479C58.73 96.526 57.1169 96.8258 55.5137 97.0389C55.0921 97.0983 54.6393 97.1536 54.132 97.2074C52.8583 97.3425 51.5449 97.4271 50.2277 97.4585C49.7664 97.4699 49.3813 97.4765 49.0138 97.4765ZM42.8842 96.3962C42.9 96.3979 42.9187 96.4004 42.9377 96.4035C43.6491 96.4919 44.3737 96.5658 45.0834 96.6227L45.1324 96.6297C46.3902 96.7319 47.7053 96.7858 49.0135 96.7858C49.3765 96.7858 49.7563 96.7789 50.2112 96.7688C51.509 96.7378 52.8034 96.6545 54.0584 96.5212C54.5578 96.4684 55.0033 96.4142 55.4195 96.3554C57.0015 96.1451 58.5915 95.8498 60.1477 95.4769C61.202 95.2248 62.2122 94.9478 63.1505 94.6536L63.5159 94.541C83.3675 88.2151 96.7061 69.9511 96.7061 49.0935C96.7061 38.1316 93.0882 27.8253 86.2436 19.2888C83.1403 15.4095 79.4626 12.0488 75.3128 9.30015C73.0287 7.78992 70.614 6.47448 68.1357 5.39145C65.5272 4.24591 62.8028 3.3359 60.0368 2.68629C55.0178 1.49759 49.7805 1.13151 44.6054 1.60119C37.402 2.26565 30.6175 4.48973 24.4406 8.21229L24.3276 8.28205C24.1187 8.4088 23.9122 8.53416 23.7095 8.66263C21.1152 10.2886 18.6645 12.1759 16.4221 14.2743V14.2815L16.2944 14.3955C12.3511 18.1284 9.11723 22.4153 6.66142 27.1584C3.16783 33.8838 1.32157 41.4691 1.32157 49.0942C1.32157 70.0606 14.7544 88.355 34.7473 94.6166C36.6934 95.2241 38.6719 95.7055 40.6283 96.047C41.327 96.1748 42.085 96.2923 42.8842 96.3962Z" fill="white"/>
</svg>
