<svg width="97" height="98" viewBox="0 0 97 98" fill="none" xmlns="http://www.w3.org/2000/svg">
<mask id="mask0_399_686" style="mask-type:luminance" maskUnits="userSpaceOnUse" x="0" y="0" width="97" height="98">
<path d="M96.417 49.0364C96.417 70.0449 82.9828 88.4412 62.9851 94.8133C62.8656 94.8509 62.7427 94.8883 62.6197 94.9259C61.6396 95.2333 60.6218 95.5099 59.5941 95.7558C58.0538 96.1246 56.4524 96.4251 54.8337 96.6402C54.3727 96.7052 53.9116 96.7597 53.4609 96.8074C52.1735 96.9441 50.8691 97.026 49.585 97.0567C49.1274 97.0671 48.7448 97.0736 48.3794 97.0736C47.0508 97.0736 45.7295 97.0191 44.442 96.913L44.4217 96.9096C43.6978 96.8516 42.967 96.7766 42.2532 96.6875C42.2328 96.6841 42.2124 96.6806 42.2055 96.6806C41.444 96.5815 40.6791 96.4655 39.9345 96.3291C37.9401 95.9806 35.946 95.4922 34.0096 94.8879C13.8717 88.5807 0.341797 70.1537 0.341797 49.0357C0.341797 41.3554 2.2029 33.713 5.72033 26.941C8.19617 22.1599 11.4539 17.8437 15.4016 14.1077L15.422 14.0873C15.4324 14.0769 15.4424 14.0704 15.4424 14.0669C17.7303 11.9123 20.2369 9.97587 22.8903 8.31265C23.0951 8.1828 23.3036 8.05638 23.5119 7.93032L23.6279 7.85851C29.8498 4.10901 36.6833 1.86869 43.9399 1.19939C45.4083 1.06643 46.9041 0.998047 48.3794 0.998047C52.1289 0.998047 55.8615 1.43528 59.4811 2.29245C62.2574 2.94482 65.003 3.86 67.6394 5.01763C70.1391 6.11033 72.5707 7.43545 74.8687 8.955C79.0451 11.7209 82.7504 15.1054 85.8786 19.0155C92.7732 27.6148 96.417 37.9961 96.417 49.0364Z" fill="white"/>
</mask>
<g mask="url(#mask0_399_686)">
<path d="M73.7141 49.0017C73.7141 49.0017 73.2982 47.1105 72.1762 47.1786C71.1536 47.2404 67.5333 48.178 66.5652 52.9245C66.3711 53.876 66.8066 54.8444 67.6548 55.3171C68.0257 55.524 68.4274 55.7533 68.789 56.0082C69.2555 56.3366 69.8924 56.2707 70.284 55.8559L70.9181 55.1845C71.1077 54.9839 71.4282 54.9873 71.6115 55.1939C72.3727 56.0507 74.0787 58.2122 74.5305 59.8133C75.389 62.8586 73.32 85.1357 72.6742 90.8475C72.6742 90.8475 78.4392 89.5717 78.2351 89.6397C78.031 89.7078 83.5397 62.5671 84.8655 60.6294C86.1913 58.6916 82.7917 55.0878 82.8935 54.7818C82.9954 54.4759 83.8795 52.266 83.1315 51.2461C82.3835 50.2263 79.7657 52.1979 79.0857 52.5039C78.4057 52.8095 73.7479 50.9398 73.7141 49.0017Z" fill="white"/>
<path d="M72.402 90.8156C73.1324 84.3571 75.0816 62.7781 74.2665 59.8875C73.8459 58.3942 72.2711 56.349 71.407 55.3761C71.3701 55.3343 71.3214 55.3122 71.2658 55.3112C71.263 55.3112 71.2603 55.3112 71.2578 55.3112C71.2088 55.3112 71.1694 55.3202 71.1193 55.3734L70.4856 56.0444C70.2187 56.3269 69.8402 56.4892 69.4475 56.4892C69.1529 56.4892 68.8711 56.4004 68.6325 56.2326C68.2705 55.9781 67.8699 55.7505 67.5228 55.5571C66.5707 55.0263 66.0782 53.946 66.2979 52.8692C67.4448 47.2462 72.1147 46.9063 72.162 46.9039C72.1875 46.9025 72.2127 46.9019 72.2376 46.9019C73.5009 46.9019 73.9391 48.7339 73.9851 48.9429L73.9903 48.9795C74.002 49.5932 74.6195 50.3233 75.6856 50.9998C76.9696 51.8138 78.3856 52.2635 78.8736 52.2635C78.9488 52.2635 78.9737 52.2528 78.9748 52.2524C79.1008 52.1958 79.3249 52.0607 79.5843 51.9046C80.3976 51.4132 81.6084 50.6817 82.4856 50.6817C82.8676 50.6817 83.1604 50.8168 83.3556 51.0827C83.8712 51.7862 83.8156 53.0274 83.1905 54.7721L83.1774 54.8087C83.2357 54.9051 83.4322 55.19 83.5804 55.4048C84.4997 56.7368 86.1888 59.1847 85.0948 60.784C84.5802 61.5365 83.166 67.0915 81.3128 75.6432C79.8371 82.4525 78.5814 88.8381 78.5096 89.5706L78.5773 89.8148L78.14 89.9619L78.1217 89.9391C77.3475 90.098 74.0196 90.8315 72.7356 91.1154L72.3592 91.1986L72.402 90.8156ZM71.271 54.761C71.4813 54.7642 71.6799 54.855 71.8183 55.0104C72.7138 56.0192 74.3484 58.15 74.7963 59.7386C75.6614 62.8085 73.6556 84.4531 72.9912 90.4954C73.4981 90.3836 74.4475 90.1736 75.3972 89.9657C76.9441 89.6262 77.6462 89.4722 77.9888 89.4142C78.2057 87.5855 80.3344 77.5582 80.7305 75.7254C82.1078 69.3605 83.904 61.5479 84.6389 60.4735C85.5192 59.1864 83.9706 56.9413 83.1383 55.7353C82.6966 55.095 82.5633 54.9023 82.6334 54.6937L82.6707 54.587C83.4053 52.5377 83.1359 51.7157 82.9101 51.408C82.8234 51.2896 82.6828 51.2319 82.4804 51.2319C81.76 51.2319 80.5827 51.9433 79.8792 52.3678C79.5878 52.5439 79.3577 52.6827 79.1989 52.7538C79.1153 52.7915 79.01 52.8102 78.877 52.8102C78.1241 52.8102 76.5597 52.2061 75.3893 51.464C74.5197 50.9124 73.4795 50.0453 73.4405 49.0382C73.3973 48.8704 73.0084 47.4513 72.2355 47.4513L72.1937 47.4527C72.1509 47.4554 67.8913 47.8022 66.8349 52.979C66.6633 53.82 67.0466 54.663 67.7891 55.0764C68.1497 55.2774 68.5665 55.5146 68.9478 55.7826C69.0935 55.8852 69.2662 55.9394 69.4464 55.9394C69.6882 55.9394 69.9206 55.8399 70.0847 55.6662L70.7184 54.9952C70.8586 54.846 71.0565 54.7607 71.2616 54.7607L71.271 54.761Z" fill="white"/>
<path d="M72.5572 90.9785L72.5734 90.8359C73.3049 84.3692 75.254 62.7549 74.4324 59.8412C74.0028 58.3171 72.4094 56.2457 71.5356 55.2618C71.4665 55.1841 71.3712 55.1406 71.2676 55.1392C71.1547 55.1309 71.0656 55.1789 70.9934 55.2552L70.3593 55.9266C69.9352 56.3759 69.2349 56.447 68.731 56.0924C68.3663 55.8354 67.9591 55.604 67.6058 55.4072C66.7193 54.913 66.2617 53.9073 66.4658 52.9044C67.5851 47.4178 72.1251 47.0793 72.1707 47.0769C73.3777 47.0061 73.797 48.8997 73.815 48.9801L73.8174 49.0002C73.8291 49.6657 74.4594 50.4275 75.5918 51.1459C77.0271 52.0559 78.7079 52.5615 79.0443 52.4105C79.1817 52.3487 79.4145 52.2082 79.6842 52.0455C80.7631 51.3942 82.5679 50.3039 83.2148 51.1856C83.6945 51.8397 83.6309 53.027 83.0262 54.7144L82.991 54.8142C83.0024 54.8746 83.2293 55.2027 83.4482 55.5204C84.3323 56.8017 85.9773 59.186 84.9505 60.6873C84.4163 61.4681 83.0279 66.9064 81.142 75.6076C79.6248 82.6062 78.3691 89.0166 78.3325 89.5903C78.3349 89.5961 78.337 89.603 78.3387 89.6099L78.3646 89.7035L78.1971 89.7598L78.1885 89.7491C77.6732 89.8489 74.1057 90.6349 72.696 90.9471L72.5572 90.9785ZM71.2624 54.9344C71.2652 54.9344 71.2676 54.9344 71.2707 54.9344C71.4306 54.9368 71.5829 55.0065 71.6893 55.126C72.5744 56.1227 74.19 58.2259 74.63 59.7859C75.4989 62.8678 73.4306 85.0105 72.7927 90.7168C73.1792 90.6311 74.3064 90.3821 75.434 90.1348C77.1901 89.7498 77.8739 89.5996 78.1471 89.5654C78.2455 88.2917 80.2852 78.6032 80.8995 75.7623C82.0244 70.564 84.0243 61.6784 84.7817 60.5712C85.7293 59.1863 84.1358 56.8773 83.28 55.6365C82.8725 55.0459 82.7568 54.8701 82.7976 54.7489L82.8342 54.645C83.5567 52.6278 83.3505 51.716 83.05 51.3064C82.5147 50.5764 80.7424 51.6459 79.7909 52.2206C79.5043 52.3936 79.2778 52.5304 79.1289 52.597C78.6565 52.8101 76.8161 52.1646 75.4827 51.3189C74.6421 50.7856 73.6374 49.954 73.6133 49.0147C73.5801 48.8745 73.155 47.2192 72.1839 47.281C72.1393 47.2838 67.755 47.6108 66.6668 52.9451C66.48 53.86 66.8975 54.7772 67.706 55.2276C68.0634 55.4268 68.4761 55.6617 68.8491 55.9245C69.2708 56.2208 69.8555 56.1614 70.2108 55.7853L70.8449 55.114C70.953 55 71.1053 54.9344 71.2624 54.9344Z" fill="white"/>
<path d="M23.0518 49.0307C23.0518 49.0307 23.4676 47.1396 24.5893 47.2076C25.6119 47.2698 29.2322 48.2071 30.2003 52.9536C30.3944 53.905 29.9589 54.8734 29.1107 55.3462C28.7398 55.5531 28.3381 55.7824 27.9765 56.0373C27.51 56.3657 26.8731 56.2997 26.4815 55.885L25.8474 55.2136C25.6578 55.0129 25.3373 55.0164 25.1543 55.2229C24.3932 56.0797 22.8484 58.2955 22.2357 59.8424C20.9196 63.1647 23.756 85.4697 24.4021 91.1811C24.4021 91.1811 18.3274 89.6008 18.5311 89.6685C18.7352 89.7365 13.2265 62.5958 11.9007 60.6581C10.5749 58.7203 13.9745 55.1165 13.8727 54.8106C13.7708 54.5046 12.8867 52.2947 13.6347 51.2748C14.3827 50.255 17.0005 52.2266 17.6805 52.5326C18.3598 52.8382 23.0176 50.9685 23.0518 49.0307Z" fill="white"/>
<path d="M24.333 91.4473C22.3893 90.9414 19.3865 90.1622 18.6402 89.9761L18.6347 89.983L18.5179 89.9519L18.1995 89.8493L18.2596 89.5972C18.2258 89.0671 16.9552 82.5907 15.4553 75.6726C13.6018 67.1203 12.1879 61.5653 11.673 60.8134C10.5786 59.2137 12.2681 56.7662 13.1757 55.4515C13.3176 55.246 13.5238 54.9469 13.587 54.826L13.5794 54.8067C12.9519 53.0571 12.8963 51.8159 13.4122 51.1121C13.6073 50.8465 13.9002 50.7118 14.2818 50.7118C15.1597 50.7118 16.3705 51.4429 17.1717 51.9268C17.4387 52.0877 17.6656 52.2245 17.7923 52.2815C17.7937 52.2822 17.8189 52.2929 17.8946 52.2929C18.3832 52.2929 19.7992 51.8425 21.0822 51.0285C22.1483 50.3523 22.7658 49.6226 22.7761 49.0258L22.7796 48.9885C22.8006 48.8884 23.2444 46.9309 24.5285 46.9309C24.5537 46.9309 24.5792 46.9316 24.6055 46.933C24.6524 46.9357 29.3226 47.2752 30.4696 52.8986C30.6896 53.9751 30.1971 55.0553 29.2446 55.5861C28.8968 55.7795 28.4959 56.0075 28.1346 56.2616C27.896 56.4295 27.6142 56.5183 27.3196 56.5183C26.9269 56.5183 26.5484 56.3563 26.2815 56.0734L25.6474 55.4024C25.6094 55.3617 25.56 55.3403 25.5044 55.3403C25.4457 55.3413 25.3963 55.3634 25.3594 55.4052C24.6656 56.1864 23.1135 58.3711 22.4912 59.9431C21.3464 62.8334 23.4786 80.9565 24.3889 88.6952C24.506 89.6888 24.6037 90.52 24.6749 91.1499L24.7205 91.5474L24.333 91.4473ZM18.7783 89.446C18.9375 89.4822 19.1748 89.543 19.5139 89.6304C20.0651 89.7717 20.7997 89.9616 21.5342 90.1519C22.5423 90.413 23.5501 90.6747 24.0829 90.8132C24.018 90.2465 23.9369 89.5561 23.844 88.7677C22.9281 80.9858 20.7831 62.7619 21.9797 59.7397C22.6266 58.1076 24.2314 55.8469 24.9484 55.0394C25.0865 54.8844 25.2851 54.7929 25.4934 54.7894C25.7078 54.7894 25.9075 54.8747 26.0477 55.0239L26.6817 55.6949C26.8458 55.8686 27.0782 55.9681 27.3199 55.9681C27.5002 55.9681 27.6726 55.9139 27.8183 55.8113C28.2003 55.5423 28.6171 55.3057 28.9773 55.1051C29.7191 54.6917 30.1025 53.8487 29.9308 53.0077C28.8747 47.8305 24.6148 47.4845 24.572 47.4817L24.5326 47.4807C23.884 47.4807 23.4627 48.5081 23.3256 49.0666C23.2873 50.0746 22.2464 50.9415 21.3771 51.4927C20.2067 52.2348 18.6419 52.8389 17.8883 52.8389C17.7557 52.8389 17.6504 52.8205 17.5665 52.7829C17.4093 52.7121 17.1804 52.5743 16.8906 52.3996C16.1837 51.9727 15.0064 51.2616 14.2846 51.2616C14.0825 51.2616 13.9423 51.319 13.8557 51.4371C13.6298 51.7451 13.3608 52.5674 14.0946 54.615L14.1316 54.7204C14.2024 54.9314 14.0691 55.1244 13.6281 55.7637C12.7954 56.97 11.2458 59.2151 12.1268 60.5026C12.8621 61.5773 14.6579 69.3899 16.0352 75.7544C16.6886 78.7697 18.5777 87.7544 18.7783 89.446Z" fill="white"/>
<path d="M24.5213 91.3171L24.377 91.2794C22.5269 90.798 19.0976 89.9084 18.5761 89.7817L18.5716 89.7872L18.4051 89.7333L18.4283 89.6363C18.4303 89.6297 18.4324 89.6238 18.4338 89.618C18.3982 89.0464 17.1422 82.6349 15.6247 75.635C13.7387 66.9338 12.3504 61.4955 11.8161 60.7147C10.7894 59.2134 12.4343 56.8291 13.3184 55.5478C13.5374 55.2301 13.7643 54.902 13.7726 54.8233L13.7401 54.7418C13.135 53.0544 13.0722 51.867 13.5515 51.2129C14.1984 50.3323 16.0035 51.4219 17.0824 52.0732C17.3518 52.2359 17.5842 52.3761 17.7217 52.4379C18.0587 52.5895 19.7403 52.0832 21.1749 51.1732C22.3069 50.4549 22.9376 49.693 22.9489 49.0279L22.9514 49.0079C22.9686 48.9288 23.3834 47.1025 24.5286 47.1025C24.5507 47.1025 24.5728 47.1032 24.5952 47.1046C24.6408 47.1074 29.1812 47.4448 30.3001 52.9321C30.5049 53.935 30.0466 54.9407 29.1605 55.4345C28.8082 55.6307 28.4017 55.8614 28.0353 56.1197C27.5311 56.4748 26.8307 56.4033 26.407 55.9543L25.7729 55.2829C25.7021 55.208 25.6071 55.1669 25.5046 55.1669C25.5028 55.1669 25.5008 55.1669 25.499 55.1669C25.3951 55.1686 25.2998 55.2121 25.231 55.2898C24.5296 56.0793 22.961 58.2882 22.3311 59.8789C21.1697 62.8109 23.3064 80.9693 24.2188 88.7231C24.3349 89.7081 24.4326 90.539 24.5037 91.1686L24.5213 91.3171ZM18.6199 89.5893C18.7602 89.6152 19.0112 89.6798 19.4716 89.7979C20.0228 89.9392 20.7573 90.1291 21.4916 90.319C22.6858 90.6281 23.8793 90.9386 24.2837 91.0436C24.2143 90.4344 24.1231 89.6563 24.0161 88.7473C23.1016 80.9779 20.9607 62.7836 22.1408 59.8036C22.7801 58.1904 24.3687 55.9533 25.078 55.1538C25.1841 55.0343 25.3367 54.9645 25.4966 54.9621C25.6555 54.9611 25.8123 55.0257 25.9224 55.142L26.5565 55.8134C26.9119 56.1891 27.4969 56.2489 27.9182 55.9522C28.2929 55.688 28.705 55.4542 29.0617 55.2553C29.8698 54.805 30.2874 53.8877 30.1005 52.9729C29.0123 47.6379 24.6281 47.3115 24.5835 47.3087C23.6065 47.2504 23.1876 48.9025 23.1541 49.0424C23.1303 49.9818 22.1256 50.8134 21.2854 51.3463C19.9509 52.1924 18.1102 52.8371 17.6384 52.6248C17.4899 52.5578 17.2637 52.4213 16.9771 52.2487C16.025 51.6736 14.2523 50.6055 13.7177 51.3342C13.4172 51.7441 13.2107 52.6558 13.9335 54.673L13.9701 54.7773C14.0109 54.8986 13.8952 55.074 13.4876 55.6649C12.6315 56.9054 11.0381 59.2144 11.986 60.5997C12.7434 61.7069 14.7433 70.5921 15.8682 75.7904C16.4822 78.6281 18.5181 88.2994 18.6199 89.5893Z" fill="white"/>
<path d="M52.7924 13.1757C52.7924 13.1757 53.1875 15.0075 51.135 15.2327C48.9776 15.4696 45.2464 16.1637 44.3043 15.8964C43.6764 15.7186 43.8944 13.8889 44.1099 12.6877C44.2231 12.0547 44.6862 11.5636 45.2837 11.4469C47.1193 11.0891 51.0086 10.4088 51.6814 10.9268C52.5669 11.6095 52.7924 13.1757 52.7924 13.1757Z" fill="white"/>
<path d="M44.9419 16.2322C44.6301 16.2322 44.397 16.2091 44.2298 16.1618C43.5664 15.9739 43.4424 14.8546 43.8399 12.6399C43.9739 11.8905 44.5203 11.3165 45.2317 11.178C46.8894 10.8544 49.1649 10.469 50.5909 10.469C51.2367 10.469 51.637 10.5453 51.8497 10.7097C52.788 11.4325 53.0401 12.961 53.0657 13.1327C53.0826 13.2138 53.2321 14.0278 52.7476 14.7002C52.4192 15.1561 51.8873 15.4276 51.1666 15.507C50.5405 15.5757 49.7883 15.6821 48.9919 15.7947C47.4692 16.0105 45.902 16.2322 44.9419 16.2322ZM50.6164 11.0157C49.5338 11.0157 47.6588 11.265 45.337 11.7178C44.8504 11.8124 44.4754 12.2127 44.3811 12.7369C43.976 14.9976 44.2429 15.5937 44.38 15.6324C44.4968 15.6655 44.6833 15.6821 44.9343 15.6821C45.8609 15.6821 47.4796 15.4528 48.9076 15.2507C49.7088 15.1371 50.4655 15.0301 51.1058 14.9596C51.6642 14.8985 52.0659 14.7034 52.3 14.3794C52.6499 13.8952 52.5293 13.2581 52.5242 13.2315C52.5121 13.1565 52.2883 11.742 51.514 11.1455C51.4629 11.1065 51.274 11.0157 50.6164 11.0157Z" fill="white"/>
<path d="M44.9432 16.0595C44.6628 16.0595 44.4352 16.0402 44.278 15.9956C43.7327 15.8409 43.6429 14.7223 44.0111 12.6702C44.1326 11.9913 44.6251 11.4722 45.2661 11.3472C47.3907 10.9328 51.0594 10.3173 51.7456 10.8464C52.6425 11.5371 52.8808 13.0553 52.896 13.1582C52.9098 13.2245 53.0528 13.9829 52.6086 14.599C52.3099 15.0138 51.8185 15.2614 51.1488 15.335C50.5186 15.404 49.7626 15.5111 48.9621 15.6247C47.4463 15.8395 45.8905 16.0595 44.9432 16.0595ZM50.6177 10.843C49.5326 10.843 47.6818 11.0851 45.3051 11.5485C44.7477 11.657 44.3191 12.1118 44.2124 12.7065C43.8861 14.5286 43.9313 15.6845 44.3343 15.7988C44.9794 15.9811 47.0799 15.6845 48.9334 15.422C49.7353 15.3084 50.493 15.201 51.126 15.1316C51.7349 15.0649 52.1776 14.846 52.4415 14.4809C52.8435 13.9249 52.6964 13.2052 52.695 13.1979L52.6936 13.191C52.6912 13.1758 52.4629 11.6577 51.6206 11.0091C51.4759 10.8975 51.1329 10.843 50.6177 10.843Z" fill="white"/>
<path d="M52.7122 7.74691C52.7122 7.74691 53.0555 9.58904 50.9972 9.75653C48.8339 9.93232 45.0844 10.5211 44.1503 10.2276C43.5279 10.0321 43.7973 8.20934 44.0463 7.01477C44.1775 6.38519 44.6545 5.90722 45.2547 5.80776C47.0999 5.50177 51.0066 4.93158 51.6644 5.46826C52.5309 6.17486 52.7122 7.74691 52.7122 7.74691Z" fill="white"/>
<path d="M44.9853 10.583C44.5681 10.583 44.2683 10.5526 44.0684 10.4894C43.4105 10.2829 43.3179 9.16084 43.7776 6.95817C43.9334 6.21256 44.4956 5.65413 45.2105 5.53568C46.7525 5.27943 48.8933 4.97412 50.3341 4.97412C51.1267 4.97412 51.605 5.06323 51.8388 5.25421C52.7578 6.00432 52.9647 7.53839 52.9851 7.71106C52.9996 7.79188 53.1277 8.60863 52.6235 9.26825C52.2816 9.71514 51.7421 9.97139 51.0197 10.0301C50.3949 10.0805 49.6431 10.1658 48.8467 10.2556C47.4135 10.4176 45.9516 10.583 44.9853 10.583ZM50.3649 5.52221C49.2449 5.52221 47.494 5.71456 45.3006 6.07856C44.8113 6.15972 44.4251 6.54894 44.3164 7.07042C43.8477 9.31901 44.0978 9.92202 44.2335 9.96484C44.3768 10.0097 44.6258 10.0325 44.9736 10.0325H44.9739C45.9191 10.0325 47.4339 9.86156 48.77 9.71099C49.5737 9.62016 50.3328 9.53418 50.9758 9.48203C51.5356 9.43679 51.9428 9.25271 52.1856 8.93567C52.5523 8.45736 52.4436 7.80224 52.4422 7.79567C52.4377 7.76356 52.2584 6.30685 51.4914 5.68072C51.4331 5.63306 51.2062 5.52221 50.3649 5.52221Z" fill="white"/>
<path d="M44.9846 10.4102C44.6099 10.4102 44.3108 10.385 44.1195 10.3249C43.5787 10.155 43.5203 9.03428 43.9458 6.99359C44.0867 6.31842 44.594 5.81315 45.2381 5.70644C47.3731 5.35176 51.0563 4.83893 51.729 5.38838C52.6059 6.10396 52.801 7.62869 52.8131 7.73196C52.8252 7.79895 52.9464 8.5608 52.4857 9.16379C52.1748 9.57027 51.6769 9.80406 51.0055 9.85863C50.3738 9.91008 49.6147 9.99574 48.8115 10.0866C47.3941 10.2461 45.9423 10.4102 44.9846 10.4102ZM50.3642 5.3497C49.2559 5.3497 47.4943 5.53964 45.2716 5.90848C44.7118 6.00138 44.2701 6.44378 44.1468 7.03537C43.7689 8.84744 43.7817 10.0044 44.181 10.1297C44.8199 10.33 46.9282 10.0928 48.7883 9.8828C49.5933 9.79163 50.3538 9.70598 50.9886 9.65452C51.5991 9.60479 52.0478 9.39827 52.3216 9.04117C52.7392 8.4969 52.6124 7.77304 52.611 7.76579L52.61 7.75889C52.6083 7.7437 52.4228 6.21964 51.5995 5.54723C51.4379 5.41496 51.0124 5.3497 50.3642 5.3497Z" fill="white"/>
<path d="M52.5356 2.25863C52.5356 2.25863 52.8789 4.10074 50.8206 4.26823C48.6573 4.44402 44.9078 5.03285 43.9736 4.7393C43.3513 4.54383 43.6207 2.72106 43.8697 1.52648C44.0009 0.896905 44.4778 0.418938 45.0781 0.319476C46.9233 0.0134928 50.8299 -0.556697 51.4878 -0.0200176C52.3543 0.686575 52.5356 2.25863 52.5356 2.25863Z" fill="white"/>
<path d="M44.8081 5.09475C44.3912 5.09475 44.0915 5.06436 43.8915 5.00116C43.2336 4.79464 43.1411 3.67259 43.6007 1.46993C43.7558 0.724312 44.3184 0.165869 45.0333 0.0474132C46.5759 -0.208494 48.7175 -0.513428 50.1583 -0.513428C50.9502 -0.513428 51.4282 -0.424686 51.662 -0.234051C52.5813 0.516402 52.7882 2.05013 52.8085 2.22246C52.823 2.30465 52.9474 3.12487 52.4466 3.78001C52.1051 4.22655 51.5656 4.48315 50.8431 4.54186C50.2243 4.59228 49.4804 4.67585 48.6926 4.76495L48.6539 4.76944C47.2397 4.92934 45.7771 5.09475 44.8081 5.09475ZM50.1876 0.0343022C49.0677 0.0343022 47.3164 0.226659 45.123 0.590316C44.6337 0.671474 44.2476 1.06069 44.1391 1.58217C43.6701 3.83042 43.9202 4.43375 44.0562 4.47657C44.1999 4.52182 44.4493 4.54462 44.7974 4.54462C45.7423 4.54462 47.2563 4.37331 48.5918 4.22239C49.4099 4.13018 50.1652 4.04489 50.7982 3.99343C51.3587 3.94819 51.7663 3.76376 52.009 3.44604C52.3758 2.96634 52.266 2.31433 52.2646 2.30777C52.2601 2.27496 52.0802 0.818244 51.3135 0.192118C51.2555 0.14515 51.0289 0.0343022 50.1876 0.0343022Z" fill="white"/>
<path d="M44.8075 4.92191C44.4331 4.92191 44.134 4.89671 43.9427 4.83662C43.4019 4.66671 43.3435 3.54602 43.769 1.50533C43.9099 0.830159 44.4165 0.324919 45.061 0.21786C47.1966 -0.136473 50.8802 -0.648281 51.5519 -0.0998596C52.4287 0.615713 52.6239 2.14009 52.6363 2.24335C52.648 2.31035 52.77 3.07221 52.3089 3.67555C51.9981 4.08203 51.5001 4.31548 50.8287 4.37005C50.1967 4.4215 49.4376 4.50714 48.634 4.59797C47.2167 4.75787 45.7648 4.92191 44.8075 4.92191ZM50.1871 -0.138539C49.0788 -0.138539 47.3172 0.0510616 45.0941 0.419899C44.5343 0.512799 44.0926 0.955197 43.9697 1.54679C43.5918 3.35886 43.6046 4.51543 44.0039 4.64114C44.6434 4.84214 46.7511 4.6042 48.6105 4.39422C49.4159 4.3034 50.1767 4.2174 50.8115 4.16594C51.4227 4.11621 51.8717 3.90933 52.1455 3.5512C52.5634 3.00485 52.4353 2.2848 52.4339 2.27754L52.4329 2.27063C52.4312 2.25543 52.2454 0.731392 51.422 0.0589895C51.2604 -0.0736262 50.836 -0.138539 50.1871 -0.138539Z" fill="white"/>
<path d="M44.7052 16.8862C45.8242 16.9981 48.0192 17.0208 51.3101 16.2048C51.7584 16.0936 52.2146 16.3585 52.3313 16.8053C52.5603 17.6812 52.8911 19.0843 52.9433 20.0679C53.0248 21.5968 46.2607 22.1065 43.491 20.9233C42.6697 20.1977 43.5607 18.9351 43.6965 17.5251C43.7631 16.8368 44.3316 16.8489 44.7052 16.8862Z" fill="white"/>
<path d="M47.7961 21.8483C45.9913 21.8483 44.383 21.6034 43.3828 21.1762L43.3694 21.1703L43.33 21.1451C42.6355 20.5345 42.8755 19.7002 43.1294 18.8167C43.252 18.3913 43.3787 17.9527 43.4226 17.4982C43.4516 17.1991 43.5624 16.9688 43.7517 16.8134C43.9292 16.6676 44.1609 16.5968 44.4604 16.5968C44.5522 16.5968 44.6441 16.6034 44.7325 16.612C45.0917 16.6479 45.4885 16.6659 45.9126 16.6659C47.0042 16.6659 48.8153 16.5395 51.2441 15.9375C51.3325 15.9154 51.4241 15.9041 51.5152 15.9041C52.0246 15.9041 52.4694 16.2459 52.5976 16.7353C52.8518 17.7071 53.166 19.0716 53.2182 20.0531C53.2351 20.3746 53.0652 20.663 52.7126 20.9096C51.7231 21.6017 49.5239 21.8483 47.7961 21.8483ZM43.6426 20.6882C44.5944 21.0833 46.0797 21.3092 47.725 21.3092H47.7253C49.7601 21.3092 51.681 20.9597 52.3966 20.4589C52.525 20.3691 52.6763 20.231 52.668 20.0828C52.6186 19.1493 52.3127 17.8228 52.0647 16.8745C51.9998 16.6272 51.7736 16.4545 51.5142 16.4545C51.4679 16.4545 51.421 16.4604 51.3754 16.4715C48.894 17.0872 47.035 17.2164 45.9122 17.2164C45.4691 17.2164 45.0537 17.1974 44.6769 17.1594C44.6064 17.1525 44.5332 17.147 44.4607 17.147C44.2932 17.147 44.1751 17.1767 44.0998 17.2385C44.0266 17.2986 43.9841 17.4008 43.9696 17.5507C43.9209 18.0546 43.7873 18.5187 43.6581 18.9673C43.4105 19.8297 43.2858 20.3408 43.6426 20.6882Z" fill="white"/>
<path d="M47.796 21.6764C46.149 21.6764 44.4913 21.4627 43.4508 21.0182L43.4235 21.0006C42.8316 20.4777 43.0471 19.73 43.2961 18.8639C43.4207 18.4312 43.5496 17.9839 43.5944 17.5156C43.6186 17.2642 43.7084 17.0729 43.8614 16.9472C44.099 16.7521 44.4264 16.7559 44.7155 16.7845C45.7356 16.886 47.9456 16.9337 51.2855 16.1056C51.7876 15.9798 52.3005 16.2834 52.4303 16.7797C52.6828 17.7442 52.9943 19.0967 53.0457 20.0626C53.0596 20.3209 52.9142 20.5585 52.6137 20.7689C51.7627 21.3639 49.787 21.6764 47.796 21.6764ZM43.5468 20.8362C45.9877 21.8688 51.1093 21.5715 52.4959 20.6014C52.7346 20.4346 52.8506 20.257 52.8409 20.074C52.7905 19.1253 52.4821 17.7874 52.2324 16.8318C52.1305 16.4443 51.7313 16.2074 51.3349 16.3048C47.9652 17.1406 45.7287 17.0922 44.6947 16.9886C44.4478 16.9644 44.1712 16.9589 43.9916 17.1057C43.8807 17.1969 43.8179 17.3374 43.7989 17.5353C43.7519 18.0223 43.6204 18.4788 43.4933 18.9205C43.2553 19.7459 43.0671 20.3993 43.5468 20.8362Z" fill="white"/>
<path d="M40.2995 22.4305C40.3814 22.0796 40.6956 21.8337 41.0558 21.8399C41.6371 21.8496 42.7146 21.976 44.3139 22.5835C46.8636 23.5525 51.0144 22.4001 52.4832 22.2115C53.952 22.0226 55.8898 21.248 56.451 21.8392C57.0119 22.4305 56.757 23.3484 56.451 23.5014C56.145 23.6544 52.2183 24.1645 52.1672 26.7142C52.1161 28.346 51.9631 28.9069 51.0963 29.3151C50.2295 29.7229 45.5886 30.233 43.906 28.7031C43.3649 27.6322 44.1499 25.5922 43.3649 24.6234C42.5799 23.6544 41.1522 23.7055 40.5402 23.2465C40.2501 23.0286 40.2349 22.7078 40.2995 22.4305Z" fill="white"/>
<path d="M47.9539 30.0047C46.8242 30.0047 44.7728 29.8621 43.7212 28.9065L43.677 28.8526C43.3807 28.2724 43.4131 27.5285 43.4446 26.8088C43.4774 26.0359 43.5116 25.2402 43.1517 24.7964C42.7211 24.2649 42.0414 24.0701 41.4415 23.8985C41.0337 23.7818 40.65 23.6719 40.3761 23.4668C40.0473 23.2202 39.9251 22.83 40.0325 22.3682C40.1409 21.9024 40.5661 21.5646 41.044 21.5646C41.7043 21.5756 42.8074 21.7162 44.4126 22.3264C45.047 22.5675 45.8579 22.6898 46.8225 22.6898C48.4028 22.6898 50.0574 22.3748 51.2658 22.1451C51.7382 22.0553 52.1461 21.9776 52.449 21.9386C52.8969 21.8809 53.3983 21.7656 53.8829 21.6537C54.5691 21.4955 55.2163 21.3467 55.7388 21.3467C56.1594 21.3467 56.4578 21.4458 56.6516 21.6499C57.1209 22.1451 57.0753 22.7488 57.0339 22.9854C56.9703 23.3459 56.7949 23.6381 56.5749 23.7479C56.5038 23.7831 56.4029 23.8087 56.1615 23.8674C55.1552 24.1123 52.4825 24.7633 52.4431 26.72C52.3889 28.4461 52.2038 29.0985 51.2143 29.5644C50.7533 29.7805 49.4078 30.0047 47.9539 30.0047ZM44.1301 28.5342C45.0691 29.3447 46.9136 29.4663 47.9355 29.4663C49.2904 29.4663 50.5706 29.2584 50.9795 29.066C51.6882 28.7324 51.8418 28.3353 51.8926 26.7055C51.9403 24.3281 54.9127 23.6046 56.0313 23.3321C56.1311 23.3079 56.2976 23.2672 56.3325 23.253C56.357 23.2385 56.4506 23.1197 56.4913 22.8894C56.5186 22.735 56.5497 22.342 56.2517 22.0284C56.1684 21.9407 55.9975 21.8965 55.7433 21.8965C55.2805 21.8965 54.6326 22.0457 54.0058 22.1897C53.5089 22.3043 52.9946 22.4228 52.518 22.4843C52.2331 22.5209 51.8318 22.5972 51.3673 22.6856C50.1375 22.9194 48.4539 23.2396 46.8228 23.2396C45.7895 23.2396 44.9127 23.1052 44.2161 22.8407C42.6845 22.2588 41.6494 22.1248 41.0513 22.1151L41.0426 21.9424V22.1151C40.8144 22.1151 40.6189 22.2705 40.5671 22.4929C40.4908 22.8213 40.6096 22.9546 40.7052 23.0265C40.8979 23.1708 41.2347 23.2675 41.5907 23.3694C42.27 23.5638 43.0384 23.7838 43.5782 24.45C44.0697 25.0568 44.0306 25.9596 43.993 26.8326C43.9654 27.4898 43.9391 28.1094 44.1301 28.5342Z" fill="white"/>
<path d="M47.9541 29.8315C46.4055 29.8315 44.7168 29.577 43.8375 28.7785L43.815 28.7488C43.5557 28.2349 43.5868 27.5135 43.6168 26.8159C43.651 26.0129 43.6873 25.1831 43.2856 24.6875C42.8208 24.1135 42.1131 23.9108 41.4887 23.7322C41.0975 23.62 40.7279 23.5143 40.4793 23.3282C40.2044 23.1223 40.108 22.8036 40.2002 22.4068C40.2911 22.0165 40.6443 21.7368 41.0436 21.7368C41.0488 21.7368 41.0533 21.7368 41.0581 21.7371C41.687 21.7475 42.769 21.8863 44.351 22.4876C46.3641 23.2522 49.4519 22.6654 51.2975 22.3142C51.7682 22.2248 52.1743 22.1474 52.4706 22.1094C52.9255 22.0511 53.4317 21.9343 53.9215 21.8214C55.0418 21.5634 56.1003 21.3196 56.5261 21.7682C56.9416 22.2064 56.9005 22.7442 56.8635 22.9548C56.8103 23.2577 56.6667 23.5081 56.4978 23.5927C56.4439 23.6196 56.3372 23.6462 56.121 23.6987C55.0794 23.9522 52.3125 24.626 52.2707 26.7157C52.2182 28.3876 52.0559 28.9768 51.141 29.4074C50.7028 29.6132 49.3887 29.8315 47.9541 29.8315ZM43.9894 28.6393C45.6364 30.1099 50.1709 29.6367 51.0533 29.2216C51.8763 28.8341 52.0155 28.3102 52.0655 26.7102C52.1104 24.464 54.9889 23.7633 56.0723 23.4995C56.2257 23.4622 56.37 23.4266 56.4059 23.409C56.4954 23.3641 56.6138 23.1918 56.6618 22.9189C56.6936 22.739 56.7292 22.2797 56.3773 21.9091C56.033 21.5458 54.9834 21.7872 53.9674 22.021C53.4732 22.135 52.9617 22.2527 52.4969 22.3125C52.2068 22.3498 51.8031 22.4264 51.3361 22.5155C49.4695 22.8706 46.3458 23.4649 44.2785 22.6789C42.7237 22.0883 41.6676 21.9519 41.055 21.9419C41.0508 21.9419 41.0474 21.9419 41.0436 21.9419C40.7341 21.9419 40.4703 22.1505 40.3998 22.4534C40.3266 22.7694 40.395 23.0087 40.6022 23.1641C40.8205 23.3282 41.1727 23.4287 41.5454 23.5354C42.1988 23.7226 42.9392 23.9343 43.4452 24.5587C43.8955 25.1147 43.8575 25.9843 43.8213 26.8252C43.7916 27.5187 43.7632 28.1745 43.9894 28.6393Z" fill="white"/>
<path d="M53.3488 29.6293C53.9921 30.7245 56.6576 32.5476 57.6325 32.5862C58.6074 32.6249 60.3031 29.993 60.0548 28.5328C59.8065 27.073 57.569 24.5678 56.1793 24.5806C54.9674 24.5917 51.5408 26.5529 53.3488 29.6293Z" fill="white"/>
<path d="M57.6219 32.8606C56.5403 32.8178 53.8006 30.9394 53.1123 29.7683C52.4299 28.6069 52.3777 27.4479 52.961 26.4173C53.6956 25.1202 55.3291 24.3128 56.1773 24.3052C57.7017 24.3048 60.0567 26.8974 60.3271 28.486C60.5067 29.5418 59.7735 31.1283 58.9612 32.0525C58.4967 32.5816 58.0446 32.861 57.654 32.861L57.6219 32.8606ZM56.1825 24.8557C55.5004 24.8619 54.0589 25.5961 53.4404 26.6888C52.9521 27.5508 53.0014 28.4933 53.5872 29.49C54.1705 30.4829 56.7492 32.2756 57.6447 32.3112H57.6451C57.8233 32.3112 58.1458 32.1478 58.5485 31.6899C59.2596 30.8804 59.9344 29.461 59.7849 28.5789C59.5611 27.2642 57.4106 24.8557 56.1908 24.8557L56.1815 24.683L56.1825 24.8557Z" fill="white"/>
<path d="M57.6536 32.6887C57.6454 32.6887 57.6371 32.6887 57.6291 32.6884C56.6089 32.648 53.9148 30.7931 53.2611 29.681C52.6118 28.5759 52.5597 27.477 53.1112 26.5027C53.815 25.2595 55.3722 24.4855 56.1786 24.4783C56.1824 24.4783 56.1859 24.4783 56.1897 24.4783C57.6087 24.4783 59.9005 27.0108 60.1564 28.5158C60.327 29.5208 59.6166 31.0455 58.831 31.9393C58.4051 32.4238 57.9883 32.6887 57.6536 32.6887ZM53.4376 29.5774C54.0537 30.6259 56.6835 32.4459 57.6367 32.4836C57.6422 32.4836 57.6481 32.4839 57.654 32.4839C57.9244 32.4839 58.296 32.2373 58.6773 31.8039C59.4308 30.9461 60.1146 29.4945 59.9544 28.55C59.7151 27.143 57.5038 24.6831 56.19 24.6831C56.1869 24.6831 56.1838 24.6831 56.1807 24.6831C55.4413 24.69 53.9477 25.4415 53.2898 26.6039C52.7686 27.5233 52.8187 28.5237 53.4376 29.5774Z" fill="white"/>
<path d="M42.6965 29.6296C42.0532 30.7247 39.3877 32.5478 38.4128 32.5865C37.4379 32.6252 35.7422 29.9932 35.9905 28.5331C36.2388 27.0733 38.4763 24.5681 39.866 24.5809C41.0775 24.5919 44.5045 26.5532 42.6965 29.6296Z" fill="white"/>
<path d="M38.3926 32.8615C38.002 32.8615 37.5499 32.5818 37.0854 32.0527C36.2731 31.1286 35.5403 29.542 35.7199 28.4866C35.9899 26.898 38.3446 24.3054 39.8569 24.3054C40.7175 24.3134 42.3513 25.1204 43.0856 26.4176C43.6692 27.4481 43.6171 28.6068 42.9343 29.7686C42.2463 30.9393 39.5067 32.818 38.4243 32.8609L38.3926 32.8615ZM39.8565 24.8559C38.6364 24.8559 36.4862 27.2641 36.2628 28.5792C36.1125 29.4609 36.7877 30.8803 37.4988 31.6894C37.9015 32.1477 38.2285 32.311 38.4001 32.311C39.2984 32.2755 41.8768 30.4827 42.4598 29.4899C43.0455 28.4932 43.0945 27.5507 42.6066 26.6887C41.988 25.596 40.5465 24.8618 39.8645 24.8556L39.8569 24.6829V24.8559H39.8565Z" fill="white"/>
<path d="M38.3925 32.6893C38.0578 32.6893 37.6407 32.424 37.2148 31.9392C36.4292 31.0454 35.7191 29.5203 35.8897 28.516C36.1456 27.011 38.437 24.4785 39.8561 24.4785C39.8599 24.4785 39.8633 24.4785 39.8671 24.4785C40.6735 24.4858 42.2307 25.2597 42.9346 26.503C43.4861 27.4772 43.4343 28.5761 42.7847 29.6816C42.1313 30.7933 39.4372 32.6482 38.4167 32.6889C38.4094 32.6893 38.4008 32.6893 38.3925 32.6893ZM39.8564 24.6837C38.5424 24.6837 36.3314 27.1436 36.0924 28.5506C35.9315 29.4948 36.6153 30.9463 37.3692 31.8041C37.7588 32.2476 38.1397 32.49 38.4098 32.4841C39.3636 32.4462 41.9931 30.6265 42.6089 29.578C43.2278 28.5247 43.2778 27.5238 42.7571 26.6042C42.0995 25.442 40.6055 24.6902 39.8661 24.6833C39.8627 24.6836 39.8592 24.6837 39.8564 24.6837Z" fill="white"/>
<path d="M52.2143 29.9526C51.5512 29.9526 51.4421 31.0747 47.8252 31.0236C45.6982 30.9935 44.6524 30.6285 44.152 30.3329C43.8412 30.1495 43.4537 30.1671 43.1729 30.3936C42.3054 31.094 40.6401 32.4302 39.9753 32.9103C39.0574 33.5733 40.7403 33.7771 41.3522 35.0521C41.9642 36.3272 41.6071 38.7239 42.7292 39.9986C43.8512 41.2737 43.29 43.6193 44.7692 44.6903C46.248 45.7612 45.483 46.0161 44.7692 45.9142C44.0553 45.8123 45.3511 47.3073 46.096 48.2343C46.8268 49.1436 47.8387 49.6626 48.7476 49.6367C49.6687 49.6105 50.0444 49.4737 50.8377 48.9726C51.688 48.4356 54.3061 46.7171 52.9292 46.3604C51.5523 46.0033 52.8263 44.9962 53.2852 44.6903C53.7442 44.3843 53.7953 41.1714 53.9483 40.2535C54.1013 39.3356 55.2234 39.0296 55.5801 38.1627C55.9372 37.2959 55.319 35.4089 55.883 34.7461C56.4469 34.0831 52.8774 29.9526 52.2143 29.9526ZM43.001 33.6579C42.5883 33.0453 42.7008 32.5027 42.8694 32.1539C43.0013 31.8811 43.2734 31.6994 43.5767 31.6918C44.3851 31.6715 44.8994 32.1664 44.6666 32.8357C44.3948 33.6172 43.7151 34.7182 43.001 33.6579ZM43.4299 36.4957C43.5038 35.7608 43.9372 35.4151 44.2898 35.2545C44.5657 35.1288 44.8911 35.1633 45.129 35.3508C45.7641 35.8516 45.8436 36.561 45.2371 36.9271C44.5285 37.3549 43.3018 37.7673 43.4299 36.4957ZM44.7232 39.7828C44.055 39.3749 43.9531 38.9667 44.2249 38.7629C44.313 38.6966 44.4228 38.6521 44.5305 38.622C44.7785 38.5526 45.0423 38.5716 45.2865 38.6535C45.7241 38.7999 45.9896 38.9795 45.8228 39.3411C45.6187 39.7828 45.3915 40.1906 44.7232 39.7828ZM45.6498 42.9645C45.1525 42.8357 44.9612 42.5014 44.8883 42.242C44.8313 42.039 44.8893 41.8193 45.0437 41.6757C45.455 41.2923 45.951 41.313 46.1381 41.7686C46.3568 42.3011 46.5101 43.1876 45.6498 42.9645ZM50.9741 33.2425C51.048 32.5076 51.4814 32.1619 51.8337 32.0013C52.1096 31.8756 52.435 31.9101 52.6729 32.0976C53.308 32.5984 53.3875 33.3078 52.781 33.6738C52.0723 34.1017 50.846 34.5144 50.9741 33.2425ZM52.0931 42.537C51.7391 42.9089 51.3537 42.9141 51.0919 42.8519C50.8868 42.8032 50.7227 42.6457 50.6719 42.4413C50.5366 41.8956 50.7956 41.4722 51.2846 41.5296C51.8562 41.5969 52.7057 41.8932 52.0931 42.537ZM52.703 39.6743C52.4989 40.1164 52.2716 40.5242 51.6034 40.1164C50.9351 39.7085 50.8332 39.3003 51.105 39.0966C51.1931 39.0306 51.3029 38.9857 51.4107 38.9556C51.6586 38.8862 51.9225 38.9052 52.1666 38.9871C52.6042 39.1332 52.8698 39.3128 52.703 39.6743ZM52.7928 37.2434C52.2606 37.7556 51.6006 37.299 51.2939 37.0624C51.0539 36.877 50.9323 36.5734 50.9872 36.275C51.1337 35.4797 51.7239 35.0784 52.3307 35.4438C53.04 35.871 53.7314 36.34 52.7928 37.2434Z" fill="white"/>
<path d="M48.6835 49.9132C47.7016 49.9132 46.6283 49.3361 45.8819 48.4071L45.6399 48.1094C44.4691 46.6713 44.1421 46.1758 44.3372 45.8304C44.3776 45.7582 44.4798 45.6349 44.7067 45.6349C44.7374 45.6349 44.7716 45.6374 44.8082 45.6425C44.8908 45.6543 44.9709 45.6602 45.0452 45.6602C45.2026 45.6602 45.2928 45.6353 45.3328 45.6173C45.3076 45.5483 45.1864 45.3327 44.6076 44.9135C43.7114 44.2649 43.499 43.2285 43.2935 42.2266C43.1329 41.4417 42.9813 40.7026 42.5224 40.1811C41.8009 39.3609 41.6527 38.1853 41.5094 37.0481C41.4186 36.327 41.3333 35.6494 41.104 35.1718C40.865 34.6738 40.4271 34.3478 40.0752 34.0856C39.7284 33.8273 39.429 33.6042 39.4318 33.2723C39.4335 32.9943 39.6507 32.8058 39.8137 32.688C40.4692 32.2145 42.0913 30.9136 43 30.18C43.1975 30.0205 43.4462 29.9324 43.6997 29.9324C43.9051 29.9324 44.1096 29.989 44.2913 30.0964C44.7682 30.3779 45.769 30.7198 47.8287 30.7492L48.0594 30.7509C50.3329 30.7509 51.0667 30.2588 51.5057 29.9649C51.7371 29.8098 51.9336 29.6782 52.214 29.6782C52.931 29.6782 55.3968 32.506 56.0319 33.8795C56.1752 34.1899 56.3379 34.6365 56.0923 34.9252C55.8554 35.2035 55.9003 35.9188 55.94 36.5501C55.9794 37.1748 56.0201 37.8168 55.8343 38.2686C55.6461 38.7255 55.2952 39.0283 54.9565 39.3212C54.5966 39.6317 54.2865 39.8996 54.2198 40.2996C54.1763 40.561 54.1407 41.0283 54.0996 41.5691L54.0969 41.6071C53.9359 43.7407 53.8092 44.6724 53.4383 44.9197C52.876 45.2941 52.5576 45.6985 52.5846 45.8587C52.5956 45.9236 52.7099 46.0197 52.9986 46.0946C53.4369 46.2082 53.5626 46.4489 53.5909 46.6309C53.6476 46.9942 53.439 47.6566 50.9852 49.2059C50.1851 49.7108 49.7506 49.8838 48.756 49.9121L48.6835 49.9132ZM44.8977 46.2048C45.0445 46.4655 45.4299 46.979 46.0477 47.7374L46.3109 48.0621C46.9557 48.864 47.8688 49.3623 48.6938 49.3623L48.7411 49.362C49.6266 49.3368 49.953 49.2069 50.6913 48.7404C52.4758 47.6138 53.0777 46.912 53.047 46.7155C53.047 46.7155 53.0225 46.6689 52.8605 46.6271C52.3718 46.5004 52.0966 46.2728 52.0417 45.9506C51.9377 45.3317 52.7704 44.7035 53.1333 44.4618C53.3457 44.2587 53.4928 42.3026 53.5484 41.566C53.5916 40.993 53.6289 40.5009 53.6776 40.2091C53.7767 39.613 54.2122 39.2373 54.5962 38.9057C54.8881 38.6536 55.1882 38.3946 55.3263 38.0589C55.4631 37.7263 55.4268 37.1493 55.3919 36.5912C55.3432 35.8159 55.2932 35.0177 55.6731 34.5698C55.6686 34.5698 55.6924 34.4548 55.5329 34.1105C54.8767 32.6904 52.5946 30.2895 52.2092 30.228C52.1063 30.2284 52.0089 30.2902 51.8172 30.4187C51.3251 30.7488 50.5024 31.3007 48.0587 31.3007L47.8221 31.299C45.6416 31.2682 44.5468 30.8856 44.0126 30.5703C43.9162 30.5133 43.8084 30.4832 43.701 30.4832C43.5705 30.4832 43.4479 30.5264 43.3464 30.6083C42.4319 31.3463 40.7983 32.6562 40.1373 33.1338C39.9989 33.2337 39.9823 33.2844 39.9823 33.2851C40.0023 33.3442 40.2447 33.5248 40.4053 33.6446C40.8056 33.943 41.3036 34.3143 41.6009 34.9338C41.8686 35.4912 41.9598 36.2113 42.0558 36.9738C42.1894 38.0344 42.3265 39.1247 42.9364 39.8175C43.4925 40.4498 43.6658 41.2966 43.8333 42.1158C44.0264 43.0565 44.208 43.9448 44.9308 44.4683C45.4202 44.8227 46.0488 45.3493 45.8547 45.8287C45.7549 46.0749 45.4686 46.2106 45.0479 46.2106C44.9978 46.2103 44.9478 46.2082 44.8977 46.2048ZM45.8964 43.2755C45.8004 43.2755 45.6944 43.2606 45.5811 43.2313C44.9567 43.0693 44.716 42.6449 44.6238 42.3171C44.5375 42.0122 44.6266 41.6896 44.8559 41.4751C45.0942 41.2534 45.3701 41.1312 45.6329 41.1312C45.693 41.1312 45.7528 41.1374 45.8105 41.1502C46.0733 41.2079 46.2798 41.3902 46.3927 41.6644C46.5119 41.9528 46.7519 42.6673 46.4083 43.061C46.2857 43.2016 46.1088 43.2755 45.8964 43.2755ZM45.6316 41.6813C45.5093 41.6813 45.367 41.7511 45.231 41.8775C45.1532 41.95 45.1235 42.0616 45.1536 42.1676C45.2306 42.4428 45.4209 42.6214 45.7193 42.6987C45.7873 42.7164 45.8464 42.7253 45.8947 42.7253C45.9434 42.7253 45.9793 42.716 45.9935 42.6998C46.0688 42.6134 46.0481 42.2736 45.884 41.874C45.8409 41.7687 45.7763 41.7062 45.693 41.6879C45.6734 41.6834 45.6526 41.6813 45.6316 41.6813ZM51.343 43.1577C51.2394 43.1577 51.1337 43.1449 51.0287 43.1201C50.7193 43.0469 50.4807 42.8124 50.4054 42.5078C50.3087 42.1168 50.3743 41.7556 50.5853 41.5163C50.7373 41.3443 50.9548 41.2496 51.1983 41.2496C51.2373 41.2496 51.2774 41.2521 51.3178 41.2569C51.5596 41.2856 52.3635 41.4175 52.5459 41.9213C52.6101 42.1002 52.6188 42.3848 52.2931 42.7271C52.0244 43.0089 51.696 43.1577 51.343 43.1577ZM51.198 41.8001C51.1106 41.8001 51.0453 41.8264 50.998 41.8799C50.9093 41.9804 50.8875 42.1659 50.9393 42.3758C50.9649 42.4791 51.0477 42.5592 51.1555 42.5844C51.2173 42.5993 51.2788 42.6065 51.3389 42.6065C51.544 42.6065 51.7309 42.5195 51.8942 42.3475C52.0123 42.2239 52.0399 42.141 52.0282 42.1082C51.9895 42.0008 51.6818 41.8537 51.2529 41.8032C51.2349 41.8012 51.2163 41.8001 51.198 41.8001ZM52.0842 40.5603C51.8942 40.5603 51.6901 40.4919 51.4601 40.3517C50.9725 40.0537 50.7062 39.7221 50.6907 39.3927C50.6813 39.1906 50.7722 39.0031 50.9403 38.8771C51.0457 38.798 51.179 38.7355 51.3365 38.6909C51.4618 38.6557 51.5934 38.6381 51.7277 38.6381C51.9018 38.6381 52.079 38.6678 52.2541 38.7261C52.5459 38.8239 52.8605 38.9617 52.981 39.2414C53.0308 39.3561 53.0663 39.5446 52.9527 39.7898C52.8059 40.1075 52.6343 40.426 52.2969 40.5289C52.2295 40.5499 52.1577 40.5603 52.0842 40.5603ZM51.7281 39.1886C51.6435 39.1886 51.562 39.1996 51.4857 39.221C51.3952 39.2466 51.3206 39.2797 51.2701 39.3174C51.2394 39.3405 51.2401 39.355 51.2404 39.3664C51.2415 39.3882 51.2646 39.5878 51.7471 39.8824C51.8863 39.9673 51.9992 40.0105 52.0831 40.0105C52.1031 40.0105 52.1204 40.0081 52.1366 40.0033C52.2572 39.9663 52.3635 39.7553 52.4537 39.5598C52.4785 39.506 52.4816 39.4728 52.4761 39.46C52.4671 39.4386 52.4105 39.3592 52.08 39.2483C51.9615 39.2086 51.8431 39.1886 51.7281 39.1886ZM45.204 40.2267C45.0141 40.2267 44.81 40.1583 44.58 40.0181C44.0927 39.7204 43.8268 39.3889 43.8105 39.0594C43.8009 38.8577 43.892 38.6695 44.0602 38.5435C44.1669 38.464 44.3002 38.4015 44.4567 38.3577C44.5817 38.3224 44.7136 38.3045 44.8483 38.3045C45.0227 38.3045 45.1995 38.3342 45.3743 38.3929C45.6658 38.4906 45.98 38.6281 46.1009 38.9081C46.1506 39.0228 46.1862 39.211 46.0729 39.4566C45.9262 39.7743 45.7545 40.093 45.4171 40.196C45.3487 40.216 45.2772 40.2267 45.204 40.2267ZM44.8483 38.8546C44.764 38.8546 44.6822 38.8657 44.6052 38.8871C44.5147 38.9123 44.4401 38.9454 44.3897 38.9831C44.3589 39.0062 44.3596 39.0214 44.3603 39.0325C44.3638 39.1115 44.4746 39.3084 44.8666 39.5481C45.0054 39.633 45.1187 39.6759 45.2033 39.6759C45.2234 39.6759 45.241 39.6735 45.2575 39.6686C45.377 39.632 45.4831 39.4206 45.5735 39.2255C45.5988 39.1713 45.6015 39.1385 45.596 39.1257C45.5867 39.104 45.5304 39.0245 45.1999 38.914C45.0814 38.8747 44.963 38.8546 44.8483 38.8546ZM52.244 37.7522C51.9073 37.7522 51.5312 37.5934 51.1258 37.2801C50.8001 37.0287 50.6433 36.6247 50.7169 36.2254C50.8146 35.6953 51.0895 35.2926 51.4711 35.1207C51.6003 35.063 51.7371 35.0333 51.878 35.0333C52.08 35.0333 52.2803 35.092 52.4734 35.2084C52.9917 35.5206 53.4621 35.8428 53.5187 36.3463C53.5585 36.6989 53.3837 37.0574 52.9841 37.4418C52.7697 37.648 52.5207 37.7522 52.244 37.7522ZM51.879 35.5831C51.8162 35.5831 51.7554 35.5962 51.698 35.6221C51.4825 35.7191 51.3226 35.9754 51.2584 36.3252C51.2225 36.5207 51.3009 36.72 51.4625 36.845C51.7681 37.0812 52.0299 37.2007 52.2396 37.2011C52.3753 37.2011 52.4937 37.1503 52.6025 37.0456C52.8667 36.7918 52.991 36.577 52.9717 36.4081C52.9434 36.1543 52.5697 35.9091 52.1895 35.6798C52.0824 35.6159 51.9778 35.5831 51.879 35.5831ZM44.0257 37.6231C43.8295 37.6231 43.661 37.5792 43.5246 37.4929C43.231 37.3071 43.1074 36.9624 43.1568 36.4682C43.2441 35.6031 43.7594 35.1946 44.1762 35.0043C44.3216 34.938 44.4757 34.9041 44.6338 34.9041C44.8749 34.9041 45.1115 34.9863 45.3 35.1352C45.7234 35.4688 45.951 35.8998 45.9251 36.318C45.9037 36.663 45.7103 36.9631 45.3801 37.1627C45.1505 37.3012 44.5592 37.6231 44.0257 37.6231ZM44.6338 35.4549C44.5548 35.4549 44.4774 35.4719 44.4042 35.5054C43.9887 35.695 43.7532 36.0376 43.7045 36.5238C43.6858 36.7093 43.6907 36.9469 43.8192 37.028C43.8661 37.0577 43.9373 37.0736 44.025 37.0736C44.2954 37.0736 44.7057 36.9275 45.0959 36.692C45.2717 36.586 45.366 36.4485 45.3764 36.2841C45.3912 36.049 45.2396 35.7875 44.9598 35.5672C44.8663 35.4936 44.7537 35.4549 44.6338 35.4549ZM43.6144 34.3712C43.3056 34.3712 43.0228 34.183 42.7731 33.8114C42.2875 33.0903 42.4229 32.4469 42.6222 32.0342C42.8017 31.6637 43.1647 31.4271 43.5705 31.4167L43.6382 31.4157C44.151 31.4157 44.5661 31.5974 44.8069 31.9275C45.011 32.2076 45.0538 32.5619 44.9274 32.9259C44.8179 33.2409 44.4066 34.2749 43.7107 34.365C43.6793 34.3695 43.6465 34.3712 43.6144 34.3712ZM43.584 31.9672C43.385 31.9724 43.2065 32.0898 43.1177 32.2739C42.981 32.5567 42.8895 32.9995 43.2296 33.5047C43.3688 33.7116 43.5035 33.8211 43.6185 33.8211C43.8751 33.7893 44.2053 33.3276 44.408 32.7457C44.4753 32.5523 44.4601 32.3861 44.3627 32.2528C44.2322 32.0739 43.9556 31.9672 43.623 31.9672H43.584ZM51.5699 34.3702C51.3744 34.3702 51.2059 34.3263 51.0688 34.24C50.7749 34.0539 50.6513 33.7092 50.7007 33.2153C50.788 32.3499 51.3033 31.9417 51.7205 31.751C51.8659 31.6847 52.0199 31.6509 52.1781 31.6509C52.4191 31.6509 52.6557 31.7331 52.8443 31.8819C53.2673 32.2149 53.4949 32.6462 53.4694 33.0644C53.4476 33.4105 53.2539 33.7102 52.924 33.9095C52.6947 34.0483 52.1038 34.3702 51.5699 34.3702ZM52.1777 32.2017C52.099 32.2017 52.0216 32.2186 51.9481 32.2521C51.5326 32.4417 51.2971 32.7843 51.2484 33.2706C51.2297 33.4561 51.2342 33.6936 51.3631 33.7748C51.4104 33.8048 51.4815 33.8207 51.5692 33.8207C51.8393 33.8211 52.2492 33.6747 52.6391 33.4391C52.8149 33.3331 52.9092 33.1957 52.9199 33.0306C52.9344 32.7957 52.7828 32.5346 52.5034 32.3143C52.4102 32.2407 52.2976 32.2017 52.1777 32.2017Z" fill="white"/>
<path d="M48.6839 49.7408C47.7511 49.7408 46.7354 49.1934 46.0171 48.2993C45.9349 48.1974 45.8468 48.0889 45.7549 47.9764C44.7427 46.7334 44.3428 46.1726 44.4882 45.9156C44.5224 45.8545 44.6025 45.7872 44.7842 45.8137C45.1447 45.8652 45.4552 45.811 45.5052 45.6874C45.5298 45.6262 45.5457 45.3796 44.7099 44.7742C43.8679 44.1647 43.6624 43.1614 43.4635 42.1917C43.2984 41.3856 43.1427 40.6241 42.653 40.0674C41.9668 39.2873 41.8221 38.1379 41.6818 37.0266C41.5896 36.2934 41.5023 35.6006 41.2605 35.0974C41.0032 34.5615 40.5467 34.2213 40.1792 33.9477C39.8573 33.7081 39.6032 33.5185 39.6052 33.2743C39.6063 33.1224 39.705 32.9804 39.9157 32.8281C40.5715 32.3543 42.1981 31.0502 43.1092 30.3146C43.42 30.0636 43.85 30.0359 44.2043 30.2452C44.6992 30.5374 45.7294 30.8921 47.8271 30.9218C50.3423 30.957 51.1311 30.4241 51.6059 30.1057C51.8187 29.9631 51.9865 29.8508 52.2148 29.8508C52.8088 29.8508 55.238 32.5722 55.8759 33.9519C56.0696 34.3715 56.0976 34.653 55.9615 34.8132C55.679 35.1451 55.7246 35.8665 55.7685 36.5645C55.8065 37.1665 55.8455 37.7891 55.6756 38.2025C55.5029 38.6214 55.1676 38.9108 54.844 39.1909C54.4751 39.509 54.127 39.8098 54.0503 40.2712C54.0044 40.5464 53.9678 41.032 53.9253 41.5942C53.7955 43.3165 53.678 44.5529 53.343 44.776C52.8437 45.1085 52.3633 45.5813 52.4151 45.8876C52.4424 46.05 52.6244 46.1757 52.9559 46.2617C53.2346 46.3342 53.3911 46.4672 53.4208 46.6578C53.4967 47.1451 52.6465 47.9532 50.8935 49.0601C50.1109 49.5543 49.7134 49.7124 48.7516 49.7401C48.7291 49.7404 48.7063 49.7408 48.6839 49.7408ZM44.7065 46.0123C44.675 46.0123 44.6643 46.0185 44.6643 46.0185C44.5752 46.2033 45.4794 47.3133 45.9138 47.8469C46.0057 47.9598 46.0941 48.0686 46.1763 48.1708C46.8729 49.0376 47.8554 49.5553 48.745 49.5349C49.6654 49.5087 50.0252 49.3654 50.7836 48.8864C52.3664 47.8869 53.2764 47.0657 53.2177 46.6889C53.2018 46.5866 53.0958 46.5096 52.9038 46.4599C52.4869 46.3518 52.2541 46.1705 52.212 45.9215C52.1222 45.3886 52.9673 44.7794 53.2287 44.6057C53.5057 44.4206 53.6404 42.6417 53.7202 41.579C53.763 41.0116 53.7999 40.5219 53.8473 40.2377C53.9364 39.7031 54.329 39.3639 54.7089 39.0359C55.0146 38.7717 55.3312 38.4985 55.4853 38.1245C55.6372 37.7546 55.5996 37.1561 55.5633 36.5773C55.5171 35.8389 55.469 35.0753 55.8047 34.6803C55.8399 34.6388 55.8994 34.4931 55.689 34.0375C55.0104 32.5691 52.643 30.0553 52.2141 30.0553C52.048 30.0553 51.9174 30.143 51.7192 30.2756C51.2247 30.6075 50.3986 31.1621 47.8236 31.1262C45.681 31.0962 44.6156 30.7263 44.0997 30.4213C43.8196 30.2566 43.4822 30.2767 43.2373 30.4739C42.3245 31.2105 40.6948 32.5173 40.0352 32.9939C39.8857 33.1016 39.81 33.1966 39.8093 33.2754C39.8083 33.4156 40.0369 33.5855 40.3011 33.7827C40.6858 34.0697 41.1652 34.4268 41.4442 35.008C41.7005 35.5416 41.7893 36.2502 41.8842 37.0003C42.0203 38.0809 42.1609 39.1985 42.806 39.9313C43.3316 40.5288 43.5001 41.3528 43.6635 42.1499C43.8631 43.1245 44.0517 44.0449 44.8291 44.6074C45.5229 45.1099 45.8054 45.4877 45.6942 45.7633C45.585 46.0327 45.1381 46.0707 44.7548 46.0158C44.7351 46.0134 44.7192 46.0123 44.7065 46.0123ZM45.8969 43.1031C45.815 43.1031 45.7246 43.0903 45.6251 43.0644C45.0798 42.9231 44.8705 42.5546 44.7907 42.2704C44.722 42.0276 44.7928 41.7714 44.9744 41.6015C45.2276 41.3659 45.5187 41.263 45.7743 41.3193C45.9801 41.3642 46.1435 41.5103 46.2339 41.7306C46.3172 41.933 46.5662 42.6189 46.2788 42.9484C46.1884 43.0513 46.0606 43.1031 45.8969 43.1031ZM45.6762 42.8662C45.8931 42.9225 46.0444 42.9048 46.1241 42.8133C46.2806 42.6344 46.1966 42.1796 46.044 41.8087C45.9791 41.6502 45.8703 41.5504 45.7301 41.5196C45.5387 41.4778 45.3167 41.5632 45.1136 41.7517C44.9883 41.8688 44.9399 42.0466 44.9876 42.2152C45.0528 42.4476 45.2255 42.7494 45.6762 42.8662ZM51.3431 42.9853C51.2433 42.9853 51.1504 42.9718 51.0685 42.9525C50.8227 42.8941 50.6327 42.7083 50.573 42.4669C50.4901 42.1319 50.5415 41.827 50.7146 41.6308C50.8541 41.473 51.0603 41.4005 51.2972 41.4288C51.7451 41.4816 52.2652 41.654 52.3833 41.9803C52.4531 42.1734 52.3806 42.3847 52.1678 42.6085H52.1675C51.8905 42.8997 51.5942 42.9853 51.3431 42.9853ZM51.1984 41.6277C51.062 41.6277 50.9491 41.675 50.8686 41.7662C50.7405 41.9113 50.7056 42.1485 50.7719 42.4172C50.8133 42.5837 50.9449 42.7125 51.1162 42.7529C51.3514 42.8088 51.6992 42.804 52.02 42.4669H52.0197C52.1747 42.3043 52.2324 42.1641 52.1909 42.0497C52.1101 41.8263 51.6719 41.6788 51.2733 41.6319C51.2478 41.6291 51.2229 41.6277 51.1984 41.6277ZM52.0846 40.3879C51.9278 40.3879 51.7513 40.3271 51.5507 40.2045C51.1204 39.9417 50.8765 39.6506 50.8638 39.3847C50.8572 39.2389 50.9211 39.1077 51.0444 39.0155C51.1331 38.9492 51.2471 38.896 51.3839 38.8577C51.6398 38.7862 51.9219 38.7976 52.1999 38.8905C52.4555 38.9761 52.7294 39.0925 52.8233 39.3104C52.8754 39.4306 52.8665 39.5677 52.797 39.7179C52.6613 40.0115 52.5173 40.2819 52.2479 40.3637C52.1958 40.38 52.1412 40.3879 52.0846 40.3879ZM51.7285 39.0162C51.6291 39.0162 51.5317 39.0289 51.4395 39.0552C51.3276 39.0866 51.2357 39.1284 51.1673 39.1795C51.0983 39.2313 51.0651 39.2973 51.0685 39.375C51.073 39.4665 51.139 39.7131 51.6574 40.0301C51.8781 40.1648 52.0514 40.2104 52.1878 40.1683C52.3764 40.1109 52.4952 39.8823 52.6106 39.6326C52.6551 39.5359 52.663 39.4572 52.6351 39.3919C52.5715 39.2455 52.3191 39.1467 52.135 39.0849C51.9986 39.0389 51.8611 39.0162 51.7285 39.0162ZM45.2044 40.0543C45.0477 40.0543 44.8712 39.9935 44.6705 39.8709C44.2402 39.6081 43.9964 39.317 43.9836 39.0514C43.9767 38.9056 44.041 38.7744 44.1642 38.6819C44.2533 38.6152 44.3673 38.5624 44.5037 38.524C44.7589 38.4522 45.0414 38.4632 45.3198 38.5568C45.5754 38.6425 45.8489 38.7589 45.9432 38.9768C45.9953 39.097 45.9863 39.2341 45.9169 39.3843C45.7812 39.6782 45.6372 39.9486 45.3678 40.0305C45.3153 40.046 45.2611 40.0543 45.2044 40.0543ZM44.7772 39.6962C44.9983 39.8312 45.1709 39.8757 45.3077 39.8346C45.4963 39.7773 45.6151 39.5484 45.7304 39.2987C45.775 39.202 45.7829 39.1236 45.7546 39.0583C45.6914 38.9119 45.4389 38.8131 45.2545 38.7513C45.0152 38.6711 44.7745 38.6611 44.5586 38.7216C44.4467 38.7526 44.3549 38.7945 44.2865 38.8459C44.2174 38.8977 44.1843 38.9637 44.1877 39.0417C44.1926 39.1325 44.2589 39.3795 44.7772 39.6962ZM52.2445 37.5798C51.9464 37.5798 51.608 37.4344 51.2316 37.144C50.957 36.9323 50.8251 36.5925 50.8872 36.2571C50.9743 35.7837 51.2133 35.4269 51.5427 35.2784C51.8055 35.1603 52.1043 35.1879 52.3843 35.3568C52.8647 35.6459 53.2995 35.9408 53.3475 36.3663C53.381 36.6622 53.2229 36.9734 52.8647 37.3181C52.6827 37.4928 52.4759 37.5798 52.2445 37.5798ZM51.8794 35.4107C51.7924 35.4107 51.7078 35.429 51.627 35.4652C51.36 35.5858 51.1635 35.888 51.0886 36.2944C51.0409 36.5538 51.1435 36.8173 51.3569 36.982C51.9399 37.432 52.3861 37.4938 52.7221 37.1702C53.0312 36.8729 53.169 36.6173 53.1434 36.3891C53.1061 36.0565 52.7128 35.794 52.2787 35.5322C52.1443 35.4514 52.0096 35.4107 51.8794 35.4107ZM44.0261 37.4507C43.8717 37.4507 43.7315 37.4196 43.6172 37.3474C43.3834 37.1992 43.2864 36.9095 43.3288 36.4861C43.4079 35.7022 43.8724 35.3333 44.2482 35.162C44.5635 35.018 44.9258 35.0601 45.1934 35.2712C45.5716 35.5692 45.7757 35.947 45.7529 36.3079C45.7353 36.5952 45.5709 36.8466 45.2911 37.0155C44.9009 37.2507 44.4177 37.4507 44.0261 37.4507ZM43.5329 36.5068C43.4987 36.8467 43.564 37.0711 43.727 37.1744C44.032 37.3674 44.6792 37.1454 45.1851 36.8401C45.4092 36.7047 45.535 36.5165 45.5488 36.2951C45.5671 36.0026 45.3913 35.688 45.067 35.4321C44.8598 35.2691 44.5787 35.2373 44.3335 35.3485C44.0061 35.4974 43.602 35.8192 43.5329 36.5068ZM43.6148 34.1988C43.3675 34.1988 43.133 34.0369 42.9168 33.7157C42.4768 33.0623 42.5988 32.4817 42.778 32.1098C42.9289 31.7976 43.2346 31.5987 43.5751 31.59C44.0637 31.5745 44.4547 31.7382 44.6678 32.03C44.8377 32.2624 44.8719 32.5608 44.7645 32.8699C44.5559 33.4698 44.1636 34.1329 43.6887 34.194C43.6642 34.1974 43.6393 34.1988 43.6148 34.1988ZM43.0867 33.6014C43.2774 33.8849 43.4708 34.0144 43.6628 33.9909C44.0206 33.9446 44.377 33.3603 44.5711 32.8022C44.6571 32.555 44.6332 32.3298 44.5023 32.1505C44.3297 31.9136 43.9854 31.7848 43.5803 31.7945C43.3164 31.801 43.0798 31.9561 42.9628 32.1985C42.8063 32.5228 42.7013 33.0284 43.0867 33.6014ZM51.5703 34.1978C51.4163 34.1978 51.2761 34.1667 51.1615 34.0942C50.9276 33.946 50.8306 33.6563 50.8731 33.2329C50.9522 32.4489 51.4167 32.0801 51.7924 31.9088C52.1077 31.7644 52.4703 31.8069 52.7376 32.0179C53.1158 32.3159 53.3196 32.6938 53.2971 33.0543C53.2792 33.3417 53.1151 33.5931 52.835 33.7623C52.4451 33.9978 51.962 34.1978 51.5703 34.1978ZM51.0772 33.2536C51.043 33.5934 51.1083 33.8179 51.2713 33.9212C51.5762 34.1149 52.2234 33.8925 52.729 33.5869C52.9531 33.4515 53.0788 33.2629 53.0927 33.0416C53.1106 32.749 52.9352 32.4344 52.6109 32.1785C52.4037 32.0155 52.1229 31.9834 51.8774 32.0949C51.5503 32.2445 51.1463 32.5663 51.0772 33.2536Z" fill="white"/>
<path d="M71.1342 15.7503C64.2751 14.8679 59.0282 21.603 57.5625 23.8885C57.4333 24.0899 57.6202 24.3455 57.8498 24.2795C58.5526 24.0785 59.7507 24.7737 60.7919 26.0636C63.8697 30.51 58.9384 33.6068 58.9384 33.6068C58.9384 33.6068 56.8666 35.9479 61.8715 35.1699C66.9613 34.3787 60.3174 46.2595 59.551 47.0262C58.7847 47.7929 56.9592 47.4779 56.2191 47.6212C54.0572 48.0557 53.5564 49.617 52.8353 49.9928C49.7996 51.5745 48.439 51.6184 45.2137 50.4721C43.6175 49.9047 43.6866 48.1324 41.1057 47.5957C40.1039 47.3843 37.7634 47.7925 36.9967 47.0258C36.2304 46.2592 29.5865 34.3783 34.6763 35.1695C39.6811 35.9476 37.6094 33.6065 37.6094 33.6065C37.6094 33.6065 32.4691 30.5729 35.5473 26.1264C36.5885 24.8366 37.8083 24.2001 38.709 24.1151C38.9469 24.0926 38.9569 23.6078 38.8278 23.4064C37.3621 21.1209 32.2726 14.8676 25.4136 15.75C17.2042 16.8064 12.0187 24.9191 17.4507 34.3711C20.0212 37.1646 21.1522 36.7488 22.0474 37.9158C22.9426 39.0831 22.1296 39.665 22.8293 40.709C23.529 41.753 25.8932 41.4425 25.331 43.2345C24.7684 45.0266 24.8745 46.6211 27.4118 47.3726C29.161 47.8906 30.6139 50.5339 31.3478 52.1257C31.7532 53.0049 31.5809 54.0521 30.8995 54.7397C30.6101 55.0315 30.2468 55.325 29.7978 55.5716C29.1265 55.9401 28.8132 56.7368 29.017 57.4752C29.3527 58.6922 30.0023 60.3969 31.1778 61.5013C33.1764 63.379 38.604 63.5296 41.573 60.5212C44.542 57.5132 45.2624 54.626 46.189 54.1999C47.8242 53.4477 50.0407 53.4477 51.1096 54.0804C51.9871 54.6001 52.0061 57.5132 54.9748 60.5212C57.9438 63.5293 63.3713 63.3787 65.3699 61.5013C66.5455 60.3972 67.1951 58.6922 67.5308 57.4752C67.7345 56.7368 67.4216 55.9401 66.7499 55.5716C66.301 55.325 65.9377 55.0315 65.6483 54.7397C64.9665 54.0521 64.7945 53.0049 65.2 52.1257C65.9339 50.5339 67.3868 47.8909 69.136 47.3726C71.6733 46.6211 71.779 45.0269 71.2167 43.2345C70.6542 41.4425 73.0188 41.753 73.7185 40.709C74.4182 39.6653 73.6049 39.0831 74.5004 37.9158C75.3955 36.7488 76.5265 37.1646 79.097 34.3711C84.5287 24.9194 79.3436 16.8064 71.1342 15.7503ZM38.6195 58.0557C37.801 58.7482 36.3219 57.7387 35.4523 56.6059C34.9926 56.0071 34.9439 55.1821 35.0002 54.538C35.0544 53.9188 35.3666 53.3531 35.8653 52.9818C36.7539 52.3204 38.2731 51.4022 38.9331 52.2628C40.8985 54.7397 39.438 57.3633 38.6195 58.0557ZM58.5899 58.2975C57.519 58.3486 56.9606 56.647 56.9606 55.219C56.9606 54.4637 57.424 53.7799 57.8612 53.3033C58.2812 52.845 58.8735 52.5864 59.4947 52.5957C60.6026 52.6123 62.3667 52.8088 62.366 53.8932C62.4171 57.0546 59.6609 58.2464 58.5899 58.2975Z" fill="white"/>
<path d="M35.5369 63.1268C33.6388 63.1268 31.939 62.5943 30.9899 61.7026C29.7719 60.5581 29.1009 58.812 28.7524 57.549C28.5103 56.6715 28.8857 55.7594 29.6659 55.3311C30.0461 55.1229 30.3953 54.859 30.7043 54.5472C31.2987 53.9473 31.4572 53.0207 31.0984 52.2416C30.4022 50.7324 28.9876 48.1274 27.334 47.6377C26.1989 47.3013 25.4605 46.7874 25.0765 46.066C24.6807 45.3231 24.6786 44.3979 25.0692 43.1536C25.3282 42.3282 24.8817 42.1089 24.0028 41.7619C23.4685 41.5512 22.9163 41.3333 22.6013 40.8633C22.2256 40.3024 22.2314 39.841 22.2363 39.4338C22.2421 39.0011 22.247 38.6281 21.8298 38.0842C21.5007 37.6546 21.1505 37.4719 20.6207 37.1946C19.8506 36.7919 18.7986 36.2424 17.249 34.5581L17.2359 34.544L17.2262 34.5274C14.6378 30.0285 14.2334 25.4933 16.0873 21.7573C17.7747 18.3566 21.2482 16.0092 25.379 15.4777C25.8335 15.4194 26.2945 15.3896 26.7487 15.3896C33.8056 15.3896 38.5432 22.4535 39.0602 23.2589C39.2066 23.4875 39.2287 23.8719 39.1096 24.116C39.0325 24.2749 38.8961 24.375 38.7352 24.3899C37.9861 24.4603 36.8116 24.9991 35.7617 26.3C34.9622 27.457 34.6794 28.626 34.9291 29.765C35.4091 31.9552 37.7268 33.3567 37.7502 33.3705L37.762 33.3774L37.7972 33.4064C37.8943 33.5134 38.5653 34.3053 38.2065 34.9622C37.9706 35.3929 37.3797 35.6025 36.4006 35.6025C35.9119 35.6025 35.3183 35.5486 34.6355 35.4426C34.4842 35.4191 34.3426 35.407 34.2145 35.407C33.722 35.407 33.4085 35.5735 33.2271 35.9306C32.1148 38.1204 36.5018 46.1413 37.1925 46.8327C37.5783 47.2188 38.575 47.2509 39.4791 47.2509L39.8828 47.2502C40.3646 47.2502 40.8249 47.2561 41.1634 47.3276C42.753 47.6584 43.402 48.4369 43.9749 49.1238C44.351 49.5744 44.7064 50.0006 45.3066 50.2144C46.8541 50.7642 47.8598 50.9883 48.777 50.9883C49.9108 50.9883 50.9766 50.6526 52.7089 49.7499C52.8929 49.6539 53.0884 49.4266 53.315 49.1638C53.8589 48.5318 54.6035 47.6664 56.1655 47.3524C56.4142 47.3044 56.7395 47.3024 57.1156 47.3003C57.9113 47.2958 58.9 47.2903 59.3573 46.8327C60.048 46.1416 64.4357 38.1211 63.323 35.9306C63.1417 35.5735 62.8277 35.4074 62.3342 35.4074C62.2064 35.4074 62.0652 35.4191 61.9146 35.4426C61.2322 35.5486 60.6382 35.6025 60.1495 35.6025C59.1698 35.6025 58.5788 35.3932 58.3433 34.9622C57.9824 34.3022 58.6552 33.5127 58.7332 33.425L58.7412 33.416L58.7726 33.3891C58.8814 33.3176 61.0046 31.939 61.4477 29.775C61.687 28.6074 61.3904 27.4114 60.566 26.2213C59.7472 25.2077 58.7612 24.5198 58.1195 24.5198C58.0494 24.5198 57.9845 24.5284 57.9261 24.545C57.8768 24.5588 57.827 24.5657 57.7776 24.5657C57.6091 24.5657 57.454 24.4873 57.3522 24.3505C57.2178 24.1699 57.2095 23.9306 57.3307 23.741C57.8792 22.8866 62.8885 15.3965 69.9009 15.3965C70.3226 15.3965 70.7494 15.4242 71.1694 15.4781C75.3002 16.0096 78.7741 18.3573 80.4615 21.758C82.3146 25.4926 81.9147 30.0212 79.3356 34.5091L79.326 34.5257L79.3135 34.5398C77.7494 36.2435 76.6982 36.7926 75.9304 37.1935C75.3996 37.4709 75.0491 37.6539 74.7193 38.0842C74.3024 38.6278 74.3073 39.0008 74.3128 39.4328C74.3183 39.84 74.3246 40.301 73.9478 40.8629C73.6328 41.3329 73.0806 41.5505 72.5467 41.7615C71.6677 42.1083 71.2212 42.3279 71.4802 43.1533C71.8705 44.3972 71.8684 45.3228 71.473 46.0657C71.0886 46.7871 70.3502 47.3013 69.2154 47.6374C67.5615 48.1271 66.1469 50.7321 65.451 52.2413C65.0919 53.0204 65.25 53.947 65.8447 54.5468C66.1552 54.8594 66.5047 55.1232 66.8832 55.3308C67.663 55.759 68.0391 56.6711 67.797 57.5487C67.4486 58.812 66.7775 60.5581 65.5591 61.7022C64.6098 62.5939 62.9099 63.1261 61.0122 63.1261C58.5643 63.1261 56.293 62.2472 54.78 60.7148C52.8981 58.8078 52.1715 56.926 51.6908 55.6806C51.4283 55.0013 51.2218 54.4657 50.9707 54.3175C50.5121 54.0461 49.8103 53.8965 48.9936 53.8965C48.0497 53.8965 47.0696 54.0982 46.305 54.4501C45.9921 54.5941 45.6298 55.2289 45.1719 56.0326C44.467 57.2682 43.5028 58.9594 41.7702 60.7152C40.2568 62.2475 37.9851 63.1265 35.5369 63.1268ZM17.6804 34.218C19.1443 35.8018 20.1431 36.3239 20.8732 36.7052C21.4057 36.9839 21.863 37.2232 22.2663 37.7492C22.7992 38.4437 22.7923 38.9724 22.7868 39.439C22.7819 39.8144 22.7778 40.1377 23.0586 40.5566C23.2782 40.884 23.7489 41.0698 24.2048 41.2493C25.0129 41.5685 26.0186 41.9656 25.5942 43.318C25.2509 44.4118 25.2405 45.2026 25.562 45.8066C25.8732 46.391 26.5042 46.8175 27.4905 47.1093C29.353 47.6608 30.8636 50.4171 31.5985 52.0109C32.053 52.9965 31.8509 54.1714 31.0953 54.9336C30.7496 55.2828 30.358 55.5784 29.9308 55.8133C29.3841 56.1134 29.1112 56.782 29.2829 57.4026C29.613 58.5979 30.2419 60.2445 31.3667 61.3013C32.2097 62.0932 33.8063 62.5853 35.5334 62.5853C37.8317 62.5853 39.9622 61.7626 41.3775 60.3284C43.0594 58.6244 44.0032 56.9698 44.6925 55.7614C45.2399 54.8014 45.6008 54.1683 46.0746 53.9504C46.9159 53.5636 47.9775 53.3416 48.9877 53.3416C49.8991 53.3416 50.7024 53.5201 51.2501 53.8437C51.6652 54.0899 51.8907 54.6732 52.2029 55.481C52.6678 56.6853 53.3695 58.5029 55.1712 60.3281C56.5865 61.7623 58.7167 62.585 61.015 62.585C62.7421 62.585 64.3387 62.0928 65.182 61.3009C66.3065 60.2445 66.9361 58.5978 67.2662 57.4022C67.4399 56.7712 67.1733 56.1175 66.618 55.8129C66.1925 55.5788 65.8005 55.2831 65.4535 54.9336C64.6978 54.1714 64.4958 52.9969 64.9506 52.0102C65.6852 50.4168 67.1954 47.6605 69.0586 47.109C70.0446 46.8172 70.6752 46.391 70.9864 45.8066C71.3082 45.2023 71.2982 44.4114 70.9549 43.3177C70.5305 41.9656 71.5358 41.5685 72.3439 41.2493C72.7998 41.0694 73.2709 40.8836 73.4905 40.5562C73.7716 40.137 73.7671 39.8137 73.7623 39.4394C73.7561 38.9728 73.7492 38.444 74.2821 37.7489C74.6861 37.2225 75.1444 36.9829 75.6749 36.7055C76.406 36.3236 77.4048 35.8014 78.8822 34.1993C81.349 29.8921 81.7351 25.561 79.969 22.0018C78.3635 18.7662 75.0477 16.531 71.0996 16.023C70.7025 15.9719 70.2988 15.946 69.8999 15.946C63.1772 15.946 58.3257 23.2088 57.7946 24.037C57.8802 23.9848 57.9942 23.9696 58.1137 23.9696C58.9415 23.9696 60.0501 24.7055 61.0063 25.8908C61.9302 27.2242 62.2572 28.5649 61.9861 29.8858C61.5188 32.1666 59.4564 33.5974 59.1231 33.8153C58.9532 34.0246 58.6918 34.4525 58.8261 34.698C58.899 34.831 59.1646 35.0541 60.1295 35.0541C60.5912 35.0541 61.1635 35.0016 61.83 34.898C62.0048 34.871 62.1719 34.8572 62.327 34.8572C63.0356 34.8572 63.5357 35.1342 63.813 35.6805C65.1371 38.2869 60.4441 46.5215 59.7458 47.2209C59.129 47.8384 58.0149 47.8446 57.1194 47.8497C56.7699 47.8518 56.4684 47.8536 56.2712 47.8915C54.8974 48.1678 54.2236 48.9504 53.7315 49.5216C53.4683 49.8279 53.2414 50.0921 52.9624 50.2372C51.1358 51.1886 50.003 51.5423 48.7822 51.5423C47.8024 51.5426 46.7419 51.3074 45.1215 50.7314C44.38 50.4679 43.9777 49.9861 43.5518 49.4757C43.0107 48.8267 42.4515 48.1568 41.0498 47.8653C40.7624 47.8045 40.3293 47.7993 39.9108 47.7993L39.4563 47.8004C38.4068 47.8004 37.3372 47.7555 36.8026 47.2205C36.1043 46.5215 31.4116 38.2869 32.7357 35.6802C33.0137 35.1335 33.5134 34.8565 34.2207 34.8565C34.3761 34.8565 34.544 34.8703 34.7191 34.8976C35.3856 35.0012 35.9579 35.0537 36.4196 35.0537C37.3838 35.0537 37.6501 34.8306 37.7226 34.6976C37.8559 34.4538 37.5973 34.028 37.4277 33.818C37.0709 33.5984 34.8942 32.1749 34.3913 29.8834C34.1071 28.5887 34.42 27.2719 35.3207 25.9699C36.2963 24.7601 37.5237 23.9744 38.6236 23.8473C38.6461 23.7624 38.6337 23.6139 38.5964 23.5555C38.0966 22.7757 33.519 15.9394 26.7476 15.9394C26.317 15.9394 25.8798 15.9678 25.4484 16.023C21.5003 16.531 18.1849 18.7658 16.5794 22.0014C14.8139 25.5624 15.2045 29.9 17.6804 34.218ZM58.4307 58.5692C58.1434 58.5433 57.8785 58.4162 57.6416 58.1907C56.9812 57.5611 56.686 56.2446 56.686 55.2193C56.686 54.3593 57.215 53.6013 57.6588 53.1174C58.1226 52.6111 58.783 52.3207 59.4709 52.3207C62.2341 52.3604 62.6419 53.3229 62.6419 53.8931C62.6944 57.1477 59.9844 58.3979 58.7761 58.5564V58.5626L58.431 58.5809L58.4307 58.5692ZM59.463 52.8708C58.9346 52.8708 58.4248 53.0963 58.0643 53.4897C57.6865 53.9021 57.2361 54.5368 57.2361 55.2196C57.2361 56.0982 57.4817 57.2779 58.0214 57.7925C58.182 57.9458 58.3585 58.0239 58.546 58.0239C59.5327 57.9776 62.1401 56.9156 62.0914 53.8979C62.0918 53.0055 60.2728 52.8826 59.4909 52.8712L59.4626 52.6982V52.8708H59.463ZM37.9754 58.5585C37.9188 58.5585 37.8611 58.5554 37.802 58.5491C36.8951 58.4518 35.8591 57.5877 35.2347 56.7744C34.7108 56.0913 34.6693 55.1688 34.7267 54.5144C34.7875 53.8164 35.1428 53.1772 35.7016 52.7617C36.699 52.0192 37.533 51.6428 38.1806 51.6428C38.5943 51.6428 38.921 51.7951 39.1517 52.0959C41.2784 54.7755 39.6366 57.5569 38.7977 58.2666C38.5691 58.46 38.2924 58.5585 37.9754 58.5585ZM38.1737 52.1888C37.6701 52.1888 36.9086 52.549 36.0297 53.2034C35.5977 53.5253 35.3224 54.0209 35.2751 54.5631C35.2264 55.1198 35.2554 55.8975 35.6716 56.4397C36.2065 57.1367 37.12 57.923 37.8611 58.0024C37.8994 58.0066 37.9367 58.0087 37.9733 58.0087C38.1578 58.0087 38.3159 57.9545 38.443 57.8467C39.1731 57.2292 40.5942 54.7989 38.7179 52.4347C38.5905 52.2682 38.413 52.1888 38.1737 52.1888Z" fill="white"/>
<path d="M61.0122 62.9532C58.891 62.9532 56.5499 62.2618 54.9025 60.5934C53.0459 58.7119 52.3269 56.8505 51.8514 55.6182C51.5664 54.8806 51.3609 54.3477 51.0581 54.1684C49.9778 53.5288 47.7686 53.5865 46.2324 54.2928C45.8688 54.4599 45.5134 55.0836 45.0213 55.9463C44.322 57.173 43.3639 58.8532 41.6468 60.5931C38.5697 63.7102 33.0686 63.4173 31.1087 61.5756C29.9197 60.4587 29.2618 58.744 28.9195 57.5021C28.6989 56.7023 29.0401 55.8714 29.7498 55.4815C30.1445 55.2649 30.5075 54.9911 30.828 54.6675C31.4731 54.0168 31.6451 53.0125 31.2562 52.1685C30.5479 50.6327 29.1033 47.98 27.3841 47.4706C26.2955 47.1484 25.591 46.6618 25.2298 45.9832C24.8571 45.2842 24.8589 44.4008 25.235 43.2038C25.5541 42.1867 24.8647 41.9146 24.0666 41.5996C23.5572 41.3986 23.0306 41.1907 22.7457 40.7656C22.3996 40.249 22.4048 39.8345 22.41 39.4339C22.4158 38.9891 22.4214 38.5688 21.9679 37.9779C21.615 37.5176 21.2309 37.3169 20.6998 37.0393C19.9431 36.6438 18.9067 36.102 17.3775 34.4401C14.8146 29.9854 14.4164 25.5145 16.2433 21.833C17.9052 18.4845 21.329 16.1723 25.4025 15.6481C33.098 14.6573 38.3432 22.4581 38.9161 23.3508C39.0294 23.528 39.0481 23.8495 38.9559 24.0391C38.9047 24.1441 38.8212 24.2073 38.7203 24.217C37.936 24.2909 36.7121 24.8483 35.6284 26.1907C34.7943 27.3963 34.5008 28.613 34.7612 29.801C35.2599 32.0752 37.639 33.5039 37.6628 33.5184L37.6874 33.5388C37.715 33.5702 38.3636 34.3137 38.0548 34.8787C37.7471 35.4413 36.6061 35.5732 34.6617 35.2711C33.8529 35.145 33.3349 35.3356 33.0731 35.8516C31.8972 38.1665 36.3609 46.2436 37.0702 46.9537C37.5423 47.4258 38.6927 47.4251 39.7118 47.4223C40.2578 47.4216 40.7721 47.4206 41.1278 47.4959C42.658 47.8143 43.2873 48.5682 43.8423 49.2333C44.2342 49.703 44.6041 50.1465 45.2489 50.3758C48.4904 51.5279 49.8293 51.4443 52.7886 49.9019C53.0024 49.7904 53.2079 49.5518 53.4458 49.2751C53.9735 48.6621 54.696 47.8229 56.1993 47.5204C56.4311 47.4755 56.7491 47.4738 57.1173 47.4713C57.9434 47.4669 58.9718 47.461 59.4792 46.9533C60.1889 46.2433 64.6526 38.1658 63.4766 35.8509C63.2145 35.3349 62.6947 35.1453 61.888 35.2704C59.944 35.5725 58.8023 35.4406 58.4946 34.878C58.1858 34.313 58.8344 33.5695 58.862 33.5384L58.8845 33.5194C58.9069 33.5049 61.1538 32.0693 61.6166 29.8079C61.8656 28.5923 61.5599 27.3517 60.7079 26.1213C59.7244 24.9025 58.5609 24.1811 57.8785 24.3776C57.732 24.419 57.5814 24.3675 57.491 24.2463C57.3998 24.1237 57.3943 23.9614 57.4765 23.833C58.0798 22.8929 63.5896 14.6731 71.1476 15.6488C75.2211 16.1727 78.6456 18.4851 80.3071 21.834C82.134 25.5155 81.7358 29.9861 79.1861 34.4225C77.6434 36.1027 76.6073 36.6445 75.8503 37.04C75.3191 37.3176 74.9351 37.5183 74.5822 37.9786C74.1291 38.5695 74.1342 38.9898 74.1401 39.4346C74.1456 39.8352 74.1505 40.2497 73.8044 40.7663C73.5195 41.1914 72.9932 41.399 72.4834 41.6003C71.6853 41.9153 70.9964 42.1874 71.3155 43.2045C71.6912 44.4018 71.6926 45.2849 71.3203 45.9839C70.9587 46.6625 70.2542 47.1488 69.166 47.471C67.4461 47.9804 66.0018 50.633 65.2939 52.1688C64.9047 53.0129 65.0763 54.0172 65.7218 54.6678C66.0433 54.9918 66.4059 55.2656 66.8 55.4822C67.5093 55.8717 67.8509 56.7027 67.6302 57.5028C67.2876 58.7447 66.6294 60.4597 65.4407 61.5763C64.53 62.4317 62.8543 62.9532 61.0122 62.9532ZM48.988 53.5137C49.8366 53.5137 50.6215 53.6718 51.1627 53.992C51.5264 54.2075 51.7429 54.768 52.0427 55.5443C52.5124 56.7603 53.2217 58.5983 55.0486 60.449C58.047 63.4875 63.3972 63.2139 65.3008 61.4264C66.455 60.3423 67.0973 58.6646 67.433 57.4479C67.6281 56.7396 67.3273 56.005 66.7012 55.6614C66.2899 55.4355 65.9114 55.1496 65.5764 54.8118C64.8712 54.1007 64.6829 53.0039 65.1077 52.0829C65.8302 50.5153 67.3104 47.8067 69.108 47.2745C70.1409 46.9688 70.805 46.5151 71.1393 45.8876C71.4843 45.24 71.4781 44.407 71.12 43.2656C70.7435 42.0666 71.59 41.7326 72.4082 41.4097C72.8882 41.2201 73.3845 41.0243 73.6342 40.6523C73.945 40.1885 73.9405 39.8238 73.9353 39.4374C73.9294 38.977 73.9232 38.5011 74.4195 37.854C74.8004 37.3577 75.2217 37.1373 75.7557 36.8586C76.4989 36.4701 77.517 35.9379 79.022 34.3023C81.5227 29.9454 81.9188 25.5435 80.1233 21.9252C78.4922 18.6378 75.1271 16.3674 71.1214 15.8522C63.6762 14.8935 58.2449 23.0151 57.6491 23.9441C57.6053 24.0125 57.6236 24.0819 57.655 24.1248C57.6702 24.1451 57.7272 24.2087 57.8222 24.1814C58.5923 23.9618 59.8166 24.6922 60.872 25.9997C61.7616 27.2848 62.0783 28.5784 61.8172 29.8518C61.3496 32.1321 59.2164 33.5512 59.0071 33.6855C58.9345 33.7719 58.4507 34.3728 58.6748 34.7813C58.8544 35.1105 59.5534 35.4271 61.8566 35.069C62.7486 34.9309 63.3561 35.1619 63.6593 35.759C64.9178 38.2369 60.2976 46.4242 59.6239 47.0987C59.0571 47.6661 57.9824 47.672 57.1187 47.6768C56.7605 47.6789 56.4511 47.6806 56.2391 47.7217C54.8055 48.0101 54.1093 48.8189 53.6009 49.4091C53.3495 49.7016 53.1319 49.9541 52.8833 50.0839C49.8593 51.6594 48.4914 51.7458 45.1802 50.5688C44.4829 50.3208 44.0954 49.8563 43.6848 49.3646C43.1253 48.6939 42.5465 48.0001 41.0856 47.6962C40.7507 47.6254 40.2475 47.6257 39.7118 47.6271C38.6526 47.6312 37.457 47.6309 36.9252 47.0984C36.251 46.4239 31.6313 38.2366 32.8901 35.7587C33.1936 35.1616 33.8015 34.9292 34.6928 35.0687C36.997 35.4268 37.6946 35.1098 37.8746 34.781C38.0973 34.3738 37.6183 33.7764 37.543 33.6862C37.3172 33.5502 35.0634 32.1384 34.5605 29.8469C34.287 28.6006 34.5909 27.3297 35.4633 26.0688C36.422 24.8804 37.6304 24.1148 38.6999 24.0139C38.7103 24.0129 38.7417 24.0101 38.7707 23.9507C38.8315 23.8257 38.8174 23.5794 38.7424 23.4631C38.1774 22.5814 33.0013 14.8783 25.4277 15.8529C21.4226 16.3685 18.0571 18.6385 16.426 21.9259C14.6305 25.5442 15.0263 29.9464 17.5405 34.3217C19.0321 35.939 20.0502 36.4711 20.7937 36.8597C21.3273 37.1387 21.749 37.3591 22.1295 37.8553C22.6262 38.5029 22.6199 38.9788 22.6141 39.4388C22.6092 39.8252 22.6041 40.1903 22.9149 40.6537C23.1642 41.0257 23.6608 41.2215 24.1412 41.4111C24.9597 41.734 25.8055 42.0679 25.4294 43.267C25.0713 44.4081 25.0647 45.241 25.4097 45.8886C25.744 46.5161 26.4085 46.9699 27.4414 47.2759C29.238 47.8081 30.7188 50.517 31.4417 52.0842C31.8661 53.0053 31.6779 54.1021 30.9727 54.8132C30.6384 55.1506 30.2599 55.4366 29.8478 55.6628C29.2321 56.0009 28.924 56.7524 29.1164 57.4493C29.4521 58.666 30.0944 60.3437 31.2483 61.4278C33.1515 63.2157 38.5017 63.4892 41.5004 60.4504C43.1989 58.7298 44.1493 57.0632 44.8434 55.8462C45.3732 54.9168 45.7234 54.3028 46.1471 54.108C47.0026 53.7133 48.0348 53.5137 48.988 53.5137ZM58.5436 58.4008C58.258 58.4008 57.9952 58.2881 57.7614 58.0651C57.138 57.4707 56.8593 56.2071 56.8593 55.2187C56.8593 54.4143 57.3635 53.6953 57.7866 53.2339C58.2269 52.7532 58.852 52.4859 59.4975 52.4931C61.4145 52.5214 62.4699 53.0184 62.4696 53.8928C62.5231 57.1879 59.6491 58.3493 58.5961 58.3997C58.5781 58.4007 58.5609 58.4008 58.5436 58.4008ZM59.4633 52.6976C58.8858 52.6976 58.3316 52.9424 57.9372 53.372C57.539 53.8068 57.0638 54.4803 57.0638 55.2187C57.0638 56.1636 57.3231 57.364 57.9026 57.9166C58.1085 58.1131 58.3395 58.206 58.5861 58.1946C59.5862 58.1469 62.3155 57.0394 62.2648 53.8942C62.2651 52.8886 60.529 52.7128 59.4944 52.6976C59.484 52.6976 59.4736 52.6976 59.4633 52.6976ZM37.9757 58.3852C37.9253 58.3852 37.8735 58.3824 37.821 58.3766C36.9645 58.2847 35.9737 57.4524 35.3718 56.6681C34.8821 56.0299 34.8441 55.1527 34.899 54.5286C34.9556 53.8794 35.2858 53.2854 35.8048 52.8993C37.3427 51.7548 38.4824 51.5058 39.0149 52.1999C41.0635 54.7814 39.4911 57.4527 38.6865 58.1334C38.4893 58.3009 38.2506 58.3852 37.9757 58.3852ZM38.174 52.0155C37.467 52.0155 36.5266 52.6182 35.9268 53.064C35.455 53.4152 35.1545 53.9561 35.1031 54.547C35.0516 55.1344 35.0848 55.9577 35.5348 56.5438C36.1101 57.2932 37.0467 58.0875 37.8428 58.1731C38.1246 58.2039 38.365 58.1379 38.5546 57.9777C39.3185 57.3312 40.809 54.7904 38.8533 52.3267C38.683 52.1046 38.4458 52.0155 38.174 52.0155Z" fill="white"/>
<path d="M43.1115 13.7354C43.336 13.7479 43.4133 13.5831 43.4644 13.3942C43.5822 12.9591 43.7096 12.3437 43.7293 12.0802C43.759 11.6768 40.0351 12.0277 40.0095 12.5067C39.985 12.9657 39.9083 13.5569 43.1115 13.7354Z" fill="white"/>
<path d="M43.0942 14.0102C40.2098 13.8496 39.6876 13.3592 39.7332 12.5106C39.7484 12.2406 39.9916 12.1194 40.0713 12.0793C40.5773 11.8261 42.016 11.6296 42.916 11.6296C43.6153 11.6296 43.7828 11.7419 43.8378 11.7788C43.9535 11.8565 44.0139 11.9743 44.0035 12.1017C43.9814 12.4029 43.8443 13.0445 43.73 13.4662C43.6927 13.6023 43.5805 14.0115 43.1353 14.0115L43.0942 14.0102ZM40.2813 12.5918C40.2789 12.8981 40.4498 13.3115 43.1267 13.461C43.145 13.46 43.1678 13.4376 43.1992 13.3222C43.2962 12.9634 43.3964 12.4896 43.4375 12.2067C43.3512 12.1932 43.193 12.1787 42.9412 12.1787C42.3641 12.1787 41.4279 12.2578 40.7358 12.4315C40.4567 12.5016 40.3321 12.5614 40.2813 12.5918Z" fill="white"/>
<path d="M43.1363 13.8388C43.1267 13.8388 43.1166 13.8385 43.1066 13.8378C40.0907 13.67 39.8731 13.1416 39.9069 12.52C39.9135 12.3998 39.9922 12.3124 40.1497 12.234C40.8055 11.9056 43.3194 11.6386 43.7428 11.9225C43.8274 11.9791 43.8353 12.0506 43.8326 12.0879C43.8115 12.3707 43.6772 13.0055 43.5649 13.421C43.5297 13.5477 43.4506 13.8385 43.1363 13.8388ZM42.9419 12.0057C42.3051 12.0057 41.3664 12.0952 40.6947 12.2637C40.1552 12.3994 40.1124 12.5117 40.1121 12.5127C40.09 12.924 40.0606 13.4624 43.1177 13.633C43.2465 13.6385 43.3104 13.5733 43.3663 13.3671C43.4848 12.9292 43.6043 12.3417 43.626 12.0896C43.5556 12.0333 43.2952 12.0057 42.9419 12.0057Z" fill="white"/>
<path d="M42.6941 18.8761C42.9186 18.8885 42.9959 18.7238 43.0471 18.5349C43.1648 18.0997 43.2926 17.4843 43.312 17.2208C43.3417 16.8174 39.6177 17.1683 39.5921 17.6473C39.5676 18.1063 39.491 18.6979 42.6941 18.8761Z" fill="white"/>
<path d="M42.6778 19.1503C39.7934 18.9897 39.2712 18.4993 39.3178 17.6505C39.3327 17.3814 39.5758 17.2599 39.6556 17.2198C40.1626 16.9667 41.6013 16.7705 42.5013 16.7705C43.1992 16.7705 43.3664 16.8824 43.4213 16.919C43.537 16.9964 43.5974 17.1141 43.5871 17.2419C43.565 17.5431 43.4279 18.1854 43.3135 18.6064C43.2773 18.7411 43.1668 19.1514 42.7192 19.1517L42.6778 19.1503ZM39.8652 17.732C39.8624 18.0383 40.0334 18.452 42.7106 18.6012C42.7296 18.6012 42.7517 18.5784 42.7824 18.4631C42.8801 18.1039 42.9806 17.6298 43.0214 17.3466C42.935 17.3331 42.7765 17.3182 42.5244 17.3182C41.947 17.3182 41.0097 17.3977 40.3173 17.5721C40.0399 17.6425 39.916 17.7016 39.8652 17.732Z" fill="white"/>
<path d="M42.7205 18.9797C42.7108 18.9797 42.7008 18.9794 42.6908 18.9787C39.6745 18.8108 39.4573 18.2824 39.4915 17.6605C39.498 17.5406 39.5771 17.4532 39.7342 17.3748C40.3908 17.0468 42.9039 16.7802 43.327 17.063C43.4116 17.1196 43.4195 17.1911 43.4167 17.2284C43.396 17.5116 43.2613 18.1464 43.1488 18.5618C43.1142 18.6886 43.0355 18.9797 42.7205 18.9797ZM42.5261 17.1466C41.8889 17.1466 40.9492 17.2364 40.2768 17.4056C39.7394 17.541 39.6973 17.6532 39.6969 17.6539C39.6745 18.0649 39.6448 18.6036 42.7022 18.7742C42.8348 18.7808 42.8953 18.7145 42.9505 18.5083C43.0697 18.0704 43.1888 17.4829 43.2106 17.2308C43.1398 17.1742 42.879 17.1466 42.5261 17.1466Z" fill="white"/>
<path d="M53.8187 10.9983C53.5939 10.9994 52.6815 11.0225 52.7347 11.2107C52.8455 11.6041 53.1712 12.4087 53.3021 12.6878C53.4737 13.0542 56.9925 12.5175 56.9894 12.0378C56.986 11.5782 57.0267 10.9835 53.8187 10.9983Z" fill="white"/>
<path d="M53.8861 13.0843C53.4005 13.0843 53.1435 12.998 53.0527 12.8049C52.9167 12.5148 52.5844 11.6929 52.4694 11.2857C52.4414 11.1845 52.4618 11.0789 52.5254 10.9949C52.6183 10.8716 52.8496 10.7287 53.817 10.7235L53.9396 10.7231C56.7283 10.7231 57.2595 11.1783 57.264 12.0179C57.2657 12.2769 57.0999 12.5545 55.8877 12.8291C55.5959 12.8954 54.6013 13.0843 53.8861 13.0843ZM53.5276 12.52C53.5566 12.5217 53.646 12.5352 53.8349 12.5352C54.4611 12.5352 55.5565 12.3902 56.3063 12.1474C56.5574 12.0662 56.6679 12.0037 56.7131 11.9726C56.6986 11.6715 56.5145 11.2733 53.9392 11.2733H53.8201C53.4737 11.275 53.2099 11.3023 53.0596 11.3285C53.1871 11.7091 53.4109 12.2613 53.5276 12.52Z" fill="white"/>
<path d="M53.8869 12.9114C53.5405 12.9114 53.2722 12.8641 53.21 12.7315C53.0757 12.4452 52.749 11.6367 52.6368 11.2386C52.6229 11.1899 52.6326 11.1401 52.664 11.0987C52.787 10.935 53.3599 10.898 53.8189 10.8956C53.8597 10.8953 53.9011 10.8953 53.9408 10.8953C56.848 10.8953 57.0894 11.404 57.0925 12.0184C57.0932 12.1213 57.0949 12.3782 55.8506 12.66C55.5339 12.7326 54.5624 12.9114 53.8869 12.9114ZM52.8422 11.2116C52.959 11.6091 53.267 12.3703 53.3955 12.6445C53.5378 12.7964 55.2535 12.67 56.3603 12.3116C56.8608 12.1496 56.8877 12.0394 56.8881 12.038C56.8856 11.6309 56.8832 11.1004 53.9401 11.1004C53.9007 11.1004 53.861 11.1004 53.8203 11.1008H53.8206C53.3651 11.1032 52.9441 11.1519 52.8422 11.2116Z" fill="white"/>
<path d="M53.8859 16.3447C53.6618 16.3309 52.7494 16.2932 52.7901 16.4849C52.8748 16.8848 53.1459 17.7092 53.2581 17.9965C53.4052 18.3733 56.952 18.0718 56.9803 17.5928C57.008 17.1335 57.0881 16.5426 53.8859 16.3447Z" fill="white"/>
<path d="M54.1664 18.4414C53.454 18.4414 53.0948 18.335 53.0019 18.0967C52.8852 17.7976 52.6082 16.955 52.5208 16.5423C52.4994 16.4404 52.5267 16.3361 52.5951 16.2563C52.6755 16.1627 52.8465 16.0557 53.4598 16.0557C53.608 16.0557 53.761 16.0619 53.9029 16.0709C56.7887 16.2491 57.3078 16.7429 57.2563 17.5911C57.2411 17.8498 57.0574 18.1161 55.8279 18.3098C55.504 18.3606 54.7663 18.4414 54.1664 18.4414ZM53.4968 17.8505C53.5413 17.8546 53.7437 17.8909 54.184 17.8909C54.7276 17.8909 55.6055 17.8298 56.2914 17.6571C56.5469 17.5925 56.6616 17.5379 56.7089 17.5096C56.7117 17.1953 56.53 16.784 53.8691 16.6196C53.7351 16.6113 53.6035 16.6075 53.483 16.6075C53.3103 16.6075 53.188 16.6151 53.1065 16.6238C53.2095 17.0154 53.3984 17.5873 53.4968 17.8505Z" fill="white"/>
<path d="M54.1654 18.2683C53.6639 18.2683 53.2312 18.2123 53.1614 18.0334C53.0464 17.7382 52.7739 16.9096 52.6886 16.5059C52.6783 16.4565 52.6914 16.4075 52.7249 16.3685C52.8586 16.2131 53.4325 16.2141 53.8912 16.2424C56.9064 16.4289 57.1206 16.9584 57.0826 17.58C57.0767 17.6829 57.0608 17.9398 55.7996 18.1384C55.5302 18.1809 54.7936 18.2683 54.1654 18.2683ZM52.8955 16.4925C52.9853 16.8962 53.2422 17.6763 53.3524 17.9588C53.4836 18.1198 55.2038 18.1077 56.3325 17.8234C56.8429 17.695 56.8771 17.5869 56.8771 17.5858C56.9023 17.1742 56.9351 16.6354 53.8787 16.4465C53.4249 16.4189 53.0012 16.4396 52.8955 16.4925Z" fill="white"/>
<path d="M53.6401 5.49736C53.4153 5.49839 52.5029 5.52153 52.5561 5.70974C52.6669 6.1031 52.9926 6.90779 53.1235 7.18683C53.2951 7.55325 56.8139 7.01657 56.8108 6.53687C56.8077 6.07686 56.8481 5.48216 53.6401 5.49736Z" fill="white"/>
<path d="M53.709 7.58297C53.2234 7.58297 52.9665 7.49662 52.8756 7.30357C52.7392 7.01174 52.4066 6.18877 52.2927 5.78436C52.2647 5.68352 52.2851 5.57785 52.3483 5.49358C52.4032 5.42071 52.5489 5.22697 53.6406 5.22179L53.7732 5.22144C56.5526 5.22144 57.082 5.67628 57.0872 6.51584C57.0889 6.7752 56.9232 7.05284 55.7096 7.32775C55.4174 7.3944 54.4225 7.58297 53.709 7.58297ZM53.3501 7.01867C53.3795 7.0204 53.4689 7.03387 53.6589 7.03387C54.285 7.03387 55.3808 6.88881 56.1302 6.64568C56.3806 6.56452 56.4911 6.50236 56.5357 6.47128C56.5212 6.17013 56.3337 5.77229 53.6993 5.77229H53.6423C53.2963 5.77401 53.0324 5.80129 52.8822 5.82753C53.01 6.20777 53.2334 6.76 53.3501 7.01867Z" fill="white"/>
<path d="M53.71 7.41036C53.364 7.41036 53.0953 7.36339 53.0331 7.23043C52.8991 6.94413 52.5721 6.13565 52.4598 5.7378C52.4464 5.68911 52.4557 5.63939 52.4871 5.59795C52.6173 5.42527 53.2669 5.3966 53.6423 5.39487C56.6745 5.37933 56.9118 5.89495 56.9156 6.51727C56.9163 6.62053 56.918 6.87782 55.6727 7.15962C55.3556 7.23146 54.3848 7.41036 53.71 7.41036ZM52.665 5.71086C52.7817 6.10837 53.0898 6.86918 53.2182 7.14339C53.3612 7.29569 55.0769 7.16931 56.1841 6.81014C56.6839 6.64817 56.7101 6.538 56.7105 6.53696C56.7084 6.12426 56.6991 5.59277 53.6427 5.59967C53.1878 5.60175 52.7672 5.65043 52.665 5.71086Z" fill="white"/>
<path d="M53.6383 0.318632C53.4135 0.319668 52.5011 0.342825 52.5542 0.531042C52.6651 0.9244 52.9908 1.72907 53.1217 2.00811C53.2933 2.37453 56.8121 1.83785 56.809 1.35781C56.8059 0.898492 56.8463 0.303782 53.6383 0.318632Z" fill="white"/>
<path d="M53.7073 2.40527C53.2217 2.40527 52.9648 2.31894 52.8739 2.12623C52.7403 1.84062 52.4094 1.02661 52.291 0.607003C52.2627 0.50616 52.2834 0.400143 52.3469 0.316222C52.4015 0.243353 52.5476 0.0496058 53.6392 0.0447709L53.7615 0.0444336C56.5495 0.0444336 57.081 0.499259 57.0859 1.33881C57.0876 1.59783 56.9218 1.87584 55.7083 2.15074C55.4157 2.21671 54.4208 2.40527 53.7073 2.40527ZM53.3484 1.84095C53.3775 1.84268 53.4669 1.85615 53.6562 1.85615C54.2819 1.85615 55.3771 1.71144 56.1261 1.46866C56.3779 1.38715 56.4887 1.32466 56.534 1.29358C56.5195 0.99243 56.3327 0.594229 53.7156 0.594229L53.641 0.594566C53.2946 0.596293 53.0307 0.623588 52.8808 0.649835C53.0083 1.03007 53.2317 1.58228 53.3484 1.84095Z" fill="white"/>
<path d="M53.7064 2.23239C53.36 2.23239 53.0916 2.18508 53.0295 2.05247C52.8955 1.76617 52.5684 0.957687 52.4562 0.55984C52.4427 0.511146 52.452 0.461426 52.4835 0.419983C52.6137 0.247307 53.2633 0.218638 53.6387 0.216911C53.6794 0.216566 53.7205 0.216553 53.7602 0.216553C56.6667 0.216553 56.9085 0.725271 56.9119 1.33931C56.9126 1.44257 56.9144 1.69985 55.669 1.98166C55.352 2.0535 54.3812 2.23239 53.7064 2.23239ZM52.6613 0.532902C52.778 0.930404 53.0861 1.69122 53.2146 1.96543C53.3565 2.11739 55.0719 1.99098 56.1784 1.63285C56.6799 1.47054 56.7068 1.36038 56.7071 1.359C56.7051 0.946645 56.6957 0.412366 53.6394 0.421691C53.1842 0.423763 52.7635 0.472465 52.6613 0.532902Z" fill="white"/>
<path d="M42.6159 6.30863C42.8397 6.28826 43.7504 6.22368 43.7155 6.41639C43.6427 6.81872 43.3957 7.65067 43.2925 7.94111C43.1567 8.32204 39.6024 8.12518 39.5599 7.64721C39.5188 7.18927 39.421 6.6008 42.6159 6.30863Z" fill="white"/>
<path d="M42.1617 8.41592C41.6081 8.41592 41.0017 8.3641 40.7288 8.32922C39.4939 8.17174 39.3057 7.90857 39.2842 7.67201C39.2062 6.81346 39.7097 6.2982 42.5893 6.0347C42.8072 6.01467 43.0023 6.00464 43.1695 6.00464C43.5639 6.00464 43.7901 6.0592 43.902 6.18181C43.9731 6.25985 44.0031 6.36346 43.9841 6.46603C43.9096 6.88011 43.6578 7.73073 43.55 8.03395C43.4865 8.21146 43.2717 8.41592 42.1617 8.41592ZM39.8264 7.55321C39.8672 7.57807 39.9777 7.63127 40.2485 7.69102C40.7447 7.8005 41.4327 7.8661 42.0895 7.8661C42.6331 7.8661 42.9495 7.82155 43.0538 7.78701C43.1432 7.52109 43.3121 6.95023 43.4015 6.56447C43.3466 6.55998 43.2717 6.55686 43.1705 6.55686C43.0068 6.55686 42.8234 6.56584 42.6393 6.58276C39.9273 6.83073 39.8095 7.26656 39.8264 7.55321Z" fill="white"/>
<path d="M42.162 8.24287C41.5926 8.24287 40.9899 8.18796 40.7509 8.15757C39.4866 7.99629 39.4641 7.74038 39.4562 7.65646C39.3982 7.0179 39.5961 6.4819 42.6051 6.20665C43.0617 6.16486 43.6367 6.14691 43.7748 6.29817C43.8097 6.33651 43.8239 6.38486 43.8149 6.43459C43.7417 6.84177 43.4937 7.67752 43.3877 7.97522C43.3138 8.18312 42.7557 8.24287 42.162 8.24287ZM42.6241 6.41042C39.5746 6.68946 39.6233 7.22683 39.6589 7.61915C39.661 7.63884 39.6979 7.74556 40.2115 7.85918C41.3477 8.11025 43.0679 8.07192 43.1971 7.90131C43.2938 7.62848 43.5307 6.82898 43.6077 6.42698C43.501 6.37725 43.0769 6.36863 42.6241 6.41042Z" fill="white"/>
<path d="M42.4256 1.00251C42.6491 0.979371 43.5591 0.904438 43.5263 1.09749C43.4582 1.50052 43.221 2.33524 43.1208 2.62707C42.9896 3.00972 39.4331 2.85395 39.3851 2.37667C39.3388 1.91908 39.2346 1.33198 42.4256 1.00251Z" fill="white"/>
<path d="M41.8856 3.11493C41.323 3.11493 40.777 3.06899 40.5674 3.04482C39.3272 2.9015 39.1352 2.64076 39.111 2.4042C39.0233 1.54668 39.5206 1.02589 42.3971 0.728545C42.6305 0.704716 42.8391 0.692627 43.017 0.692627C43.3886 0.692627 43.6027 0.744438 43.7111 0.860477C43.783 0.9368 43.8144 1.03935 43.7975 1.14261C43.7267 1.56153 43.4846 2.41386 43.3806 2.71639C43.3167 2.90185 43.0895 3.11493 41.8856 3.11493ZM39.6518 2.27884C39.6926 2.30336 39.8035 2.35515 40.0746 2.41178C40.5442 2.50986 41.1745 2.56616 41.8034 2.56616C42.433 2.56616 42.7752 2.51092 42.8819 2.475C42.9686 2.20873 43.1306 1.63649 43.2159 1.249C43.1703 1.24589 43.1109 1.24381 43.0339 1.24381C42.8616 1.24381 42.6557 1.25521 42.454 1.27627C41.149 1.41096 40.2873 1.60194 39.8936 1.84403C39.6487 1.99426 39.6373 2.1186 39.6518 2.27884Z" fill="white"/>
<path d="M41.8859 2.94283C41.3513 2.94283 40.8108 2.89966 40.5874 2.87376C39.3178 2.72733 39.2919 2.47108 39.283 2.38716C39.2177 1.74929 39.4097 1.21122 42.4146 0.901088C42.789 0.862408 43.4379 0.821324 43.585 0.978805C43.6206 1.01645 43.6354 1.06479 43.6272 1.11487C43.5581 1.5248 43.3201 2.36263 43.2172 2.66067C43.1416 2.88205 42.5182 2.94283 41.8859 2.94283ZM43.0338 1.07136C42.8622 1.07136 42.6522 1.08241 42.4364 1.10486C39.39 1.41947 39.4449 1.95581 39.4853 2.34778C39.4874 2.36678 39.5257 2.47349 40.0396 2.58089C41.1786 2.81884 42.8988 2.76048 43.0266 2.58884C43.1198 2.31566 43.3478 1.51409 43.4203 1.10968C43.364 1.08447 43.2217 1.07136 43.0338 1.07136Z" fill="white"/>
</g>
<mask id="mask1_399_686" style="mask-type:luminance" maskUnits="userSpaceOnUse" x="0" y="0" width="97" height="98">
<path d="M96.417 49.0364C96.417 70.0449 82.9828 88.4412 62.9851 94.8133C62.8656 94.8509 62.7427 94.8883 62.6197 94.9259C61.6396 95.2333 60.6218 95.5099 59.5941 95.7558C58.0538 96.1246 56.4524 96.4251 54.8337 96.6402C54.3727 96.7052 53.9116 96.7597 53.4609 96.8074C52.1735 96.9441 50.8691 97.026 49.585 97.0567C49.1274 97.0671 48.7448 97.0736 48.3794 97.0736C47.0508 97.0736 45.7295 97.0191 44.442 96.913L44.4217 96.9096C43.6978 96.8516 42.967 96.7766 42.2532 96.6875C42.2328 96.6841 42.2124 96.6806 42.2055 96.6806C41.444 96.5815 40.6791 96.4655 39.9345 96.3291C37.9401 95.9806 35.946 95.4922 34.0096 94.8879C13.8717 88.5807 0.341797 70.1537 0.341797 49.0357C0.341797 41.3554 2.2029 33.713 5.72033 26.941C8.19617 22.1599 11.4539 17.8437 15.4016 14.1077L15.422 14.0873C15.4324 14.0769 15.4424 14.0704 15.4424 14.0669C17.7303 11.9123 20.2369 9.97587 22.8903 8.31265C23.0951 8.1828 23.3036 8.05638 23.5119 7.93032L23.6279 7.85851C29.8498 4.10901 36.6833 1.86869 43.9399 1.19939C45.4083 1.06643 46.9041 0.998047 48.3794 0.998047C52.1289 0.998047 55.8615 1.43528 59.4811 2.29245C62.2574 2.94482 65.003 3.86 67.6394 5.01763C70.1391 6.11033 72.5707 7.43545 74.8687 8.955C79.0451 11.7209 82.7504 15.1054 85.8786 19.0155C92.7732 27.6148 96.417 37.9961 96.417 49.0364Z" fill="white"/>
</mask>
<g mask="url(#mask1_399_686)">
<g opacity="0.33">
<path d="M70.2418 65.9628C78.228 65.9628 84.7021 59.4887 84.7021 51.5025C84.7021 43.5163 78.228 37.0422 70.2418 37.0422C62.2556 37.0422 55.7815 43.5163 55.7815 51.5025C55.7815 59.4887 62.2556 65.9628 70.2418 65.9628Z" fill="#62A0F6"/>
</g>
<g opacity="0.2">
<path d="M70.2431 62.473C76.3018 62.473 81.2132 57.5615 81.2132 51.5029C81.2132 45.4442 76.3018 40.5327 70.2431 40.5327C64.1845 40.5327 59.2729 45.4442 59.2729 51.5029C59.2729 57.5615 64.1845 62.473 70.2431 62.473Z" fill="#62A0F6"/>
</g>
<g opacity="0.39">
<path d="M70.2427 58.4085C74.0568 58.4085 77.1487 55.3166 77.1487 51.5025C77.1487 47.6884 74.0568 44.5964 70.2427 44.5964C66.4286 44.5964 63.3367 47.6884 63.3367 51.5025C63.3367 55.3166 66.4286 58.4085 70.2427 58.4085Z" fill="#62A0F6"/>
</g>
</g>
<path d="M48.3833 97.4186C47.0565 97.4186 45.722 97.3644 44.4176 97.257L44.3696 97.2501C43.6779 97.1959 42.943 97.1206 42.2143 97.0298L42.1752 97.0235C41.3502 96.9165 40.5801 96.7974 39.8755 96.6682C37.8929 96.3218 35.8846 95.8335 33.9102 95.217C13.6273 88.8646 0 70.3053 0 49.0353C0 41.3001 1.8732 33.6049 5.41756 26.7814C7.89512 21.9969 11.1528 17.6703 15.1009 13.9201V13.9174L15.2094 13.8151C17.5129 11.6453 20.0371 9.69542 22.7104 8.01977C22.9159 7.88957 23.1262 7.76212 23.3366 7.63468L23.4502 7.56424C29.7201 3.78573 36.6033 1.52919 43.912 0.855057C49.1697 0.378124 54.4743 0.750419 59.5645 1.9557C62.3708 2.61498 65.1357 3.53846 67.7818 4.70057C70.2956 5.79948 72.7456 7.13392 75.0629 8.66625C79.2724 11.4539 83.0033 14.8629 86.1518 18.7989C93.0955 27.459 96.7659 37.9146 96.7659 49.0353C96.7659 70.1951 83.234 88.7237 63.0933 95.1414C62.9717 95.1794 62.8478 95.2177 62.7238 95.2553C61.7741 95.553 60.7483 95.8349 59.6778 96.0908C58.0981 96.4689 56.4846 96.7687 54.8825 96.9814C54.4622 97.0408 54.0095 97.096 53.5008 97.1499C52.2271 97.2853 50.9137 97.3696 49.5965 97.401C49.1358 97.4121 48.7511 97.4186 48.3833 97.4186ZM42.2536 96.3391C42.2709 96.3408 42.2909 96.3435 42.3117 96.3467C43.0186 96.4344 43.7431 96.5086 44.4532 96.5652L44.5019 96.5722C45.76 96.6747 47.0755 96.7283 48.3833 96.7283C48.7463 96.7283 49.1265 96.7214 49.5813 96.7114C50.8788 96.6803 52.1736 96.597 53.4286 96.4641C53.9293 96.4109 54.3745 96.3567 54.7896 96.298C56.371 96.088 57.961 95.7924 59.5178 95.4197C60.5732 95.1673 61.5831 94.8903 62.5204 94.5961C62.645 94.5581 62.7666 94.5211 62.885 94.4838C82.737 88.158 96.0759 69.894 96.0759 49.036C96.0759 38.0741 92.458 27.7681 85.6134 19.2313C82.5094 15.3516 78.8317 11.991 74.6823 9.24301C72.3982 7.73278 69.9834 6.41732 67.5055 5.33394C64.8971 4.18875 62.1722 3.2784 59.4066 2.62879C54.3876 1.44043 49.1572 1.07367 43.9756 1.5437C36.7722 2.20781 29.9874 4.43222 23.8107 8.15444L23.6978 8.22421C23.4889 8.35096 23.2827 8.47597 23.0796 8.60479C20.4846 10.2311 18.034 12.1188 15.7923 14.2168V14.2244L15.6649 14.3373C11.7213 18.0706 8.4874 22.3571 6.03125 27.1002C2.53765 33.8259 0.691397 41.4109 0.691397 49.036C0.691397 70.0024 14.1243 88.2965 34.1171 94.5588C36.0628 95.1662 38.0417 95.6473 39.9981 95.9892C40.694 96.117 41.4517 96.2344 42.2543 96.3391H42.2536Z" fill="white"/>
</svg>
