<svg width="98" height="97" viewBox="0 0 98 97" fill="none" xmlns="http://www.w3.org/2000/svg">
<mask id="mask0_399_534" style="mask-type:luminance" maskUnits="userSpaceOnUse" x="0" y="0" width="98" height="97">
<path d="M97.0053 48.6207C97.0053 69.6293 83.571 88.0255 63.5733 94.3976C63.4539 94.4353 63.3309 94.4729 63.208 94.5102C62.2279 94.8176 61.2101 95.0942 60.1823 95.3401C58.6421 95.7089 57.0407 96.0094 55.422 96.2246C54.9609 96.2895 54.4999 96.344 54.0492 96.3917C52.7617 96.5285 51.4573 96.6103 50.1733 96.6411C49.7157 96.6514 49.3334 96.658 48.9677 96.658C47.6391 96.658 46.3178 96.6034 45.0303 96.4974L45.0099 96.4939C44.286 96.4359 43.5553 96.361 42.8414 96.2719C42.8211 96.2684 42.8003 96.265 42.7938 96.265C42.0323 96.1659 41.2673 96.0498 40.5227 95.9131C38.5283 95.5646 36.5343 95.0763 34.5979 94.4719C14.46 88.1644 0.930054 69.7377 0.930054 48.6197C0.930054 40.9394 2.79115 33.2971 6.30858 26.525C8.78442 21.7439 12.0421 17.4277 15.9899 13.6917L16.0102 13.6713C16.0206 13.6613 16.0306 13.6544 16.0306 13.6509C18.3186 11.4962 20.8252 9.55986 23.4785 7.89663C23.6833 7.76678 23.8919 7.64036 24.1002 7.51431L24.2162 7.44251C30.4381 3.69301 37.2716 1.45267 44.5282 0.783375C45.9966 0.650069 47.4923 0.582031 48.9677 0.582031C52.7172 0.582031 56.4497 1.01926 60.0694 1.87643C62.8457 2.5288 65.5913 3.44399 68.2277 4.60161C70.7274 5.69431 73.1586 7.01943 75.457 8.53899C79.6333 11.3049 83.3386 14.6894 86.4668 18.5995C93.3615 27.1988 97.0053 37.5801 97.0053 48.6207Z" fill="white"/>
</mask>
<g mask="url(#mask0_399_534)">
<path d="M29.5123 74.671C29.2046 74.671 28.9546 74.5449 28.7695 74.2959C28.2352 73.5762 28.266 71.866 28.8482 69.9393C28.8835 69.8222 28.9815 69.7466 29.0976 69.7466C29.1425 69.7466 29.1867 69.758 29.2285 69.7801C29.6681 70.0108 30.0742 70.123 30.47 70.123C30.7183 70.123 30.9245 70.0805 31.1062 70.0429C31.2101 70.0211 31.3061 70.0011 31.3976 69.9932C31.4353 69.9897 31.4708 69.9883 31.5033 69.9883C31.6515 69.9883 31.743 70.0211 31.7751 70.0854C31.8221 70.1807 31.8145 70.4553 31.2308 71.2226C31.0412 71.4727 30.9539 71.9562 30.8527 72.5167C30.6866 73.4381 30.4983 74.4821 29.8187 74.6351C29.7113 74.6586 29.6084 74.671 29.5123 74.671Z" fill="white"/>
<path d="M29.5129 74.9459C29.1188 74.9459 28.7856 74.778 28.5494 74.4596C27.956 73.6605 27.9699 71.8978 28.5856 69.8599C28.6557 69.6274 28.8616 69.4717 29.0981 69.4717C29.1869 69.4717 29.2763 69.4938 29.3571 69.5359C29.7567 69.7456 30.1211 69.8474 30.4713 69.8474C30.6912 69.8474 30.8739 69.8098 31.0508 69.7732C31.1668 69.749 31.2735 69.7272 31.375 69.7186C31.421 69.7145 31.4641 69.7124 31.5046 69.7124C31.766 69.7124 31.9404 69.7963 32.0226 69.9628C32.1625 70.2446 31.9863 70.6846 31.4514 71.3887C31.3011 71.5859 31.2155 72.0615 31.1247 72.565C30.9434 73.5703 30.7379 74.7096 29.88 74.9027C29.7533 74.9314 29.6296 74.9459 29.5129 74.9459ZM29.1102 70.028C28.5628 71.8453 28.5155 73.4909 28.9914 74.1319C29.1251 74.3118 29.2908 74.3961 29.5129 74.3961C29.5885 74.3961 29.6714 74.386 29.7588 74.3664C30.2609 74.2534 30.4471 73.2215 30.5831 72.4676C30.6905 71.8726 30.7831 71.3587 31.0135 71.0558C31.346 70.6186 31.4597 70.3789 31.4983 70.2629C31.4749 70.2632 31.45 70.2646 31.4234 70.267C31.3502 70.2736 31.2711 70.2898 31.1803 70.3085C30.9789 70.3502 30.7486 70.3983 30.4713 70.3983C30.032 70.3979 29.5868 70.277 29.1102 70.028Z" fill="white"/>
<path d="M31.504 69.8856C31.4688 69.8856 31.4304 69.8873 31.3893 69.8911C31.139 69.9132 30.854 70.0206 30.4703 70.0206C30.1526 70.0206 29.7669 69.9467 29.2761 69.6894C29.2181 69.659 29.157 69.6445 29.0972 69.6445C28.9439 69.6445 28.8009 69.7409 28.7502 69.9097C27.9811 72.455 28.1216 74.7734 29.512 74.7734C29.6149 74.7734 29.7247 74.7606 29.8411 74.7344C31.0136 74.4709 30.8312 71.9177 31.313 71.2843C31.7734 70.6799 32.2555 69.8856 31.504 69.8856ZM31.1503 71.1606C30.9456 71.43 30.8561 71.9253 30.7528 72.4985C30.6002 73.3443 30.4103 74.3973 29.7969 74.5351C29.6968 74.5575 29.6011 74.5689 29.5127 74.5689C29.2354 74.5689 29.0192 74.4598 28.8524 74.2353C28.3368 73.5405 28.3737 71.8662 28.947 69.9695C28.9736 69.8811 29.0427 69.8497 29.0983 69.8497C29.1266 69.8497 29.1546 69.8569 29.1819 69.8711C29.6367 70.1097 30.0583 70.2258 30.471 70.2258C30.7301 70.2258 30.9414 70.1819 31.1279 70.1435C31.2336 70.1218 31.3248 70.1028 31.408 70.0956C31.4425 70.0925 31.4746 70.0911 31.5043 70.0911C31.6207 70.0911 31.6763 70.116 31.6843 70.1315C31.6881 70.1391 31.7751 70.339 31.1503 71.1606Z" fill="white"/>
<path d="M43.0061 83.5887C42.7506 83.5887 41.4544 83.2869 41.0307 77.324C41.0179 77.142 41.0545 77.0038 41.1391 76.913C41.2365 76.8084 41.3757 76.7925 41.4499 76.7925C41.5991 76.7925 41.7242 76.8495 41.7704 76.9058C42.0761 77.2742 43.1909 77.5412 43.7932 77.5412C43.9396 77.5412 44.0549 77.5257 44.1361 77.4953C44.3979 77.3962 44.6123 77.3461 44.7722 77.3461C44.9187 77.3461 45.0126 77.3865 45.0599 77.4697C45.2129 77.7388 44.9325 78.397 44.6462 78.8791C44.5087 79.1105 44.4186 79.6606 44.3039 80.3572C44.1043 81.5736 43.8312 83.2392 43.1743 83.5514C43.1222 83.5763 43.0655 83.5887 43.0061 83.5887Z" fill="white"/>
<path d="M43.0057 83.8641C42.4687 83.8641 41.174 83.2287 40.7561 77.3438C40.7329 77.0182 40.8417 76.8282 40.937 76.7256C41.0617 76.5917 41.2437 76.5181 41.4489 76.5181C41.6654 76.5181 41.8743 76.6013 41.9814 76.7305C42.2059 77.0016 43.2081 77.2664 43.7921 77.2664C43.9402 77.2664 44.0097 77.2485 44.0376 77.2382C44.3346 77.1259 44.5746 77.0713 44.7711 77.0713C45.083 77.0713 45.2298 77.2143 45.2978 77.3345C45.5565 77.789 45.0927 78.6652 44.8813 79.0205C44.7705 79.207 44.6751 79.7879 44.5743 80.4023C44.3529 81.7495 44.0777 83.4265 43.2913 83.8002C43.2022 83.8427 43.1059 83.8641 43.0057 83.8641ZM41.4495 77.0682C41.4116 77.0682 41.3629 77.0769 41.3401 77.1011C41.318 77.1245 41.2969 77.1912 41.3052 77.3055C41.6554 82.2344 42.6517 83.314 43.0061 83.314C43.0247 83.314 43.0409 83.3105 43.0561 83.3036C43.5824 83.0529 43.8753 81.2705 44.0328 80.3132C44.1561 79.5596 44.2455 79.0153 44.4099 78.739C44.7577 78.1537 44.8499 77.7372 44.8261 77.6229C44.8243 77.6232 44.794 77.6218 44.7725 77.6218C44.6852 77.6218 44.5204 77.6446 44.2331 77.7534C44.1191 77.7962 43.9755 77.8173 43.7931 77.8173C43.2257 77.8173 41.9586 77.5649 41.5587 77.082C41.5597 77.0834 41.5594 77.0841 41.5576 77.0841C41.5483 77.0838 41.5062 77.0682 41.4495 77.0682Z" fill="white"/>
<path d="M44.7726 77.2436C44.6075 77.2436 44.3872 77.2909 44.0998 77.3993C44.0283 77.4263 43.922 77.4387 43.7935 77.4387C43.1967 77.4387 42.1227 77.1697 41.8498 76.8402C41.7773 76.7525 41.6171 76.6899 41.4503 76.6899C41.1816 76.6899 40.8953 76.8519 40.9291 77.3309C41.2987 82.5358 42.3734 83.6906 43.0064 83.6906C43.0845 83.6906 43.156 83.673 43.2185 83.6433C44.2912 83.1332 44.3623 79.5571 44.7346 78.9309C45.0986 78.319 45.561 77.2436 44.7726 77.2436ZM44.5585 78.8266C44.411 79.0746 44.3195 79.6331 44.2031 80.3404C44.018 81.4669 43.7386 83.1695 43.1304 83.4585C43.0921 83.4768 43.0503 83.4858 43.0064 83.4858C42.4736 83.4858 41.4793 82.1866 41.1336 77.3164C41.126 77.2118 41.1343 77.0685 41.2144 76.9825C41.2855 76.9061 41.3926 76.8947 41.4503 76.8947C41.5767 76.8947 41.6703 76.9441 41.692 76.9707C42.027 77.3751 43.1788 77.6435 43.7935 77.6435C43.9544 77.6435 44.0784 77.6262 44.1724 77.5906C44.4227 77.496 44.6248 77.448 44.7726 77.448C44.9301 77.448 44.9611 77.5022 44.9712 77.5199C45.0741 77.7015 44.9007 78.2509 44.5585 78.8266Z" fill="white"/>
<path d="M35.3008 81.0172C35.0004 81.0172 34.8087 80.8652 34.7807 80.7219C34.7369 80.4985 34.7206 80.083 34.702 79.6023C34.6671 78.7216 34.6239 77.6251 34.3784 77.0957C34.0803 76.4537 33.9816 75.9464 34.1138 75.7388C34.1615 75.6639 34.2444 75.6273 34.3673 75.6273C34.4361 75.6273 34.5169 75.639 34.6067 75.6618C34.6726 75.6787 34.7372 75.6973 34.8032 75.7163C35.0425 75.7854 35.2901 75.8573 35.6348 75.8573C35.947 75.8573 36.2951 75.7968 36.6985 75.6722C36.8366 75.6297 36.9765 75.6079 37.1146 75.6079C37.5097 75.6079 37.7967 75.7778 37.9221 75.9236C37.9825 75.9937 37.9991 76.051 37.9946 76.081C37.288 80.7785 35.6268 81.0172 35.3008 81.0172Z" fill="white"/>
<path d="M35.3016 81.292C34.9027 81.292 34.5701 81.0745 34.5114 80.7747C34.4638 80.5302 34.4468 80.1054 34.4275 79.6133C34.3937 78.7571 34.3519 77.6914 34.1295 77.2117C33.8836 76.6819 33.6408 75.9701 33.8829 75.5913C33.9523 75.4828 34.0929 75.353 34.3684 75.353C34.4596 75.353 34.5629 75.3675 34.6755 75.3961C34.7445 75.4137 34.8122 75.4331 34.8806 75.4531C35.1117 75.5198 35.3303 75.5833 35.6359 75.5833C35.9201 75.5833 36.2413 75.5267 36.6181 75.4106C36.7825 75.3599 36.95 75.334 37.1157 75.334C37.6041 75.334 37.9681 75.5557 38.1311 75.7449C38.2385 75.8696 38.2858 76.0001 38.2675 76.1227C37.6942 79.9337 36.3594 81.292 35.3016 81.292ZM34.3684 75.9031C34.3353 75.9031 34.3229 75.908 34.3229 75.908C34.3087 75.957 34.3267 76.3296 34.6289 76.9799C34.8975 77.5594 34.94 78.639 34.9777 79.5915C34.9956 80.0422 35.0122 80.4666 35.0519 80.6693C35.0574 80.6735 35.1327 80.7422 35.3019 80.7422C35.9353 80.7422 37.1527 79.7621 37.7153 76.0979C37.6514 76.0292 37.4404 75.8841 37.1164 75.8841C37.0063 75.8841 36.8933 75.9018 36.7807 75.9359C36.3515 76.0689 35.9771 76.1331 35.6362 76.1331C35.2512 76.1331 34.9607 76.0489 34.7276 75.9815C34.6575 75.9611 34.5991 75.9446 34.5401 75.9294C34.4731 75.9121 34.414 75.9031 34.3684 75.9031Z" fill="white"/>
<path d="M37.117 75.5068C36.9764 75.5068 36.8262 75.5275 36.6701 75.5756C36.2374 75.7092 35.9072 75.7562 35.6368 75.7562C35.2117 75.7562 34.9337 75.6405 34.6339 75.5638C34.5331 75.5379 34.445 75.5261 34.3694 75.5261C33.7135 75.5261 33.9577 76.43 34.2868 77.14C34.6543 77.9319 34.5545 80.0903 34.6819 80.7424C34.7213 80.9437 34.9616 81.1202 35.3025 81.1202C36.1127 81.1202 37.4921 80.1238 38.0978 76.0977C38.1316 75.8743 37.7096 75.5068 37.117 75.5068ZM35.3029 80.915C35.0449 80.915 34.9002 80.7883 34.8836 80.7027C34.8415 80.4868 34.8242 80.0555 34.8062 79.5985C34.7693 78.6623 34.7275 77.601 34.4733 77.053C34.1608 76.3799 34.1121 75.9358 34.2026 75.7945C34.215 75.7755 34.2437 75.7306 34.3701 75.7306C34.4301 75.7306 34.502 75.7413 34.5838 75.7621C34.6488 75.7786 34.7123 75.7973 34.7769 75.8159C35.0117 75.884 35.278 75.961 35.6375 75.961C35.9601 75.961 36.3178 75.8992 36.7312 75.7714C36.8597 75.7317 36.9896 75.7116 37.1177 75.7116C37.597 75.7116 37.8868 75.9831 37.8961 76.067C37.357 79.6455 36.1621 80.915 35.3029 80.915Z" fill="white"/>
<path d="M50.9688 84.234C50.7868 84.234 50.6265 84.1971 50.4929 84.1242C49.5628 83.6162 49.7414 81.6705 49.8723 80.2497C49.942 79.492 49.997 78.8935 49.8823 78.6255C49.7407 78.2939 49.8005 77.8363 50.0308 77.4872C50.141 77.3204 50.3838 77.0407 50.7743 77.0407C50.8337 77.0407 50.8945 77.0476 50.955 77.0607C50.9985 77.0704 51.0565 77.0752 51.1318 77.0752C51.282 77.0752 51.4892 77.0569 51.7293 77.0361C52.0528 77.0078 52.4193 76.9761 52.7712 76.9761C53.55 76.9761 53.9492 77.1367 53.9913 77.4675C54.4206 80.7926 53.4028 82.519 52.7581 83.2522C52.2169 83.8672 51.5483 84.234 50.9688 84.234Z" fill="white"/>
<path d="M50.9694 84.5091C50.7408 84.5091 50.5363 84.4608 50.3619 84.3654C49.2727 83.7707 49.4612 81.7211 49.599 80.224C49.6598 79.5623 49.7175 78.9376 49.6301 78.7338C49.4505 78.3142 49.5182 77.7654 49.8017 77.3358C50.0407 76.9732 50.3954 76.7656 50.7746 76.7656C50.853 76.7656 50.9335 76.7746 51.0139 76.7922C51.0305 76.796 51.064 76.7998 51.132 76.7998C51.2698 76.7998 51.4715 76.7822 51.7053 76.7618C52.0344 76.7331 52.4071 76.7007 52.7714 76.7007C53.1175 76.7007 54.1705 76.7007 54.2647 77.4318C54.7075 80.8639 53.6403 82.6649 52.9648 83.4333C52.3732 84.1068 51.6269 84.5091 50.9694 84.5091ZM50.7749 77.3154C50.5135 77.3154 50.3408 77.5178 50.2611 77.6383C50.0825 77.9091 50.0314 78.2707 50.1367 78.5172C50.2721 78.8343 50.2334 79.3378 50.1474 80.2747C50.0307 81.5436 49.8539 83.4613 50.6258 83.8823C50.7187 83.9327 50.8343 83.9586 50.9697 83.9586C51.4715 83.9586 52.0631 83.6264 52.5521 83.07C53.1662 82.3717 54.1345 80.7192 53.7194 77.5026C53.7039 77.3807 53.4466 77.2508 52.7721 77.2508C52.4358 77.2508 52.0793 77.2819 51.7647 77.3092C51.5085 77.3317 51.2961 77.3503 51.1327 77.3503C51.0364 77.3503 50.9611 77.3434 50.8965 77.3293C50.8558 77.3199 50.815 77.3154 50.7749 77.3154Z" fill="white"/>
<path d="M54.0936 77.4544C54.0332 76.9868 53.434 76.8735 52.7716 76.8735C52.1507 76.8735 51.4741 76.973 51.1322 76.973C51.068 76.973 51.0155 76.9696 50.9775 76.9609C50.9081 76.9457 50.8404 76.9385 50.7748 76.9385C49.9853 76.9385 49.4984 77.9866 49.7892 78.6659C50.1038 79.4019 48.9645 83.4059 50.4446 84.214C50.5932 84.2948 50.7717 84.3366 50.9696 84.3366C52.3655 84.3366 54.7153 82.2721 54.0936 77.4544ZM52.6818 83.1842C52.16 83.7775 51.5201 84.1318 50.9696 84.1318C50.8048 84.1318 50.6612 84.099 50.5427 84.0344C49.6717 83.5589 49.8468 81.6518 49.975 80.2594C50.0561 79.3766 50.0962 78.8638 49.9774 78.5855C49.8486 78.284 49.9045 77.8654 50.1169 77.5439C50.2157 77.3943 50.4322 77.1436 50.7748 77.1436C50.8266 77.1436 50.8801 77.1495 50.9337 77.1612C50.9855 77.1726 51.0483 77.1778 51.1322 77.1778C51.2866 77.1778 51.4963 77.1595 51.7387 77.1384C52.0599 77.1104 52.4239 77.0787 52.7716 77.0787C53.4796 77.0787 53.856 77.2141 53.8906 77.481C54.314 80.7653 53.3149 82.4641 52.6818 83.1842Z" fill="white"/>
<path d="M62.3447 30.7766C62.2639 30.7766 62.1589 30.7182 62.0408 30.6077C60.8807 29.5226 59.4437 28.413 57.5812 28.413C57.3222 28.413 57.0556 28.4344 56.7893 28.4769C56.3535 28.5463 55.9197 28.6278 55.4925 28.7083C54.4879 28.8972 53.5392 29.0757 52.6827 29.0757C52.0981 29.0757 51.6132 28.9915 51.1998 28.8181C50.6089 28.5708 49.9386 28.1709 49.2289 27.7475C48.1672 27.1145 46.9644 26.3968 45.6997 25.9931C45.248 25.8487 44.7969 25.7786 44.3221 25.7786C43.7156 25.7786 43.1962 25.8923 42.7379 25.9928C42.4109 26.0646 42.1287 26.1264 41.8946 26.1264C41.7119 26.1264 41.5751 26.0888 41.4653 26.0083C41.0557 25.7079 40.9988 24.9795 41.313 24.0591C41.6411 23.098 42.3059 22.2367 43.1848 21.6341C43.6966 21.2832 44.1107 20.7693 44.415 20.1072C44.5904 19.726 46.0247 19.7232 46.5645 19.7222L46.7492 19.7211C47.7545 19.7087 49.2796 19.6938 50.8337 19.6938C52.3547 19.6938 53.5903 19.7084 54.5065 19.7363C57.5926 19.8313 60.0305 19.9066 61.3998 22.8338C62.5395 25.2706 63.0751 29.7796 62.5198 30.6533C62.4414 30.7766 62.3685 30.7766 62.3447 30.7766Z" fill="white"/>
<path d="M62.3439 31.0519C62.1874 31.0519 62.0265 30.9724 61.8517 30.8091C60.7307 29.7606 59.3466 28.6883 57.5804 28.6883C57.3359 28.6883 57.0838 28.7086 56.8317 28.749C56.3979 28.8177 55.9666 28.8992 55.5418 28.979C54.5247 29.1703 53.564 29.351 52.6812 29.351C52.0593 29.351 51.5392 29.2598 51.0919 29.0723C50.4827 28.8174 49.8045 28.4126 49.0861 27.9841C48.0373 27.3586 46.8489 26.6496 45.6146 26.2556C45.1898 26.1198 44.7661 26.0542 44.3203 26.0542C43.7439 26.0542 43.24 26.1644 42.7952 26.2621C42.4526 26.3374 42.1566 26.402 41.8927 26.402C41.6517 26.402 41.4583 26.3457 41.3012 26.2304C40.7897 25.8553 40.6965 25.0109 41.0511 23.9711C41.3982 22.954 42.1003 22.0433 43.0279 21.4075C43.4976 21.0849 43.8799 20.609 44.1641 19.9926C44.3935 19.4935 45.5214 19.4493 46.5606 19.4473L46.7443 19.4463C47.7582 19.4338 49.2902 19.4189 50.8326 19.4189C52.3514 19.4189 53.5899 19.4331 54.5137 19.4614C57.5683 19.5554 60.2062 19.6369 61.6477 22.7178C62.7607 25.0972 63.3996 29.7809 62.7504 30.8011C62.6191 31.0083 62.4568 31.0519 62.3439 31.0519ZM57.5804 28.1381C59.5382 28.1381 61.0285 29.285 62.2279 30.4067C62.2579 30.435 62.2828 30.4554 62.3028 30.4696C62.722 29.5889 62.2572 25.319 61.1497 22.9509C59.8515 20.1763 57.4886 20.1035 54.4968 20.0116C53.5881 19.9833 52.3556 19.9691 50.8329 19.9691C49.2806 19.9691 47.7565 19.9839 46.7515 19.9964L46.5626 19.9971C44.8801 20.0009 44.6787 20.2039 44.6615 20.2267C44.3382 20.9302 43.8924 21.4814 43.3391 21.8606C42.5085 22.4298 41.881 23.2424 41.5719 24.1479C41.3067 24.9242 41.3281 25.5673 41.6265 25.7862C41.6641 25.8139 41.7332 25.8512 41.8927 25.8512C42.0979 25.8512 42.3666 25.7921 42.6774 25.7241C43.1264 25.626 43.6844 25.5034 44.3206 25.5034C44.8245 25.5034 45.3024 25.578 45.7821 25.731C47.0765 26.144 48.2935 26.8703 49.3672 27.5109C50.0721 27.9312 50.7324 28.3249 51.304 28.5643C51.6835 28.7231 52.1335 28.8005 52.6805 28.8005C53.5101 28.8005 54.4443 28.6247 55.4334 28.4389C55.8654 28.3577 56.305 28.2749 56.7447 28.2048C57.0254 28.1606 57.3069 28.1381 57.5804 28.1381Z" fill="white"/>
<path d="M61.4921 22.7913C60.1052 19.8257 57.6179 19.7304 54.5091 19.6347C53.473 19.603 52.1441 19.5923 50.8335 19.5923C49.2714 19.5923 47.7346 19.6075 46.7476 19.6196C46.2106 19.6261 44.546 19.5774 44.3218 20.0654C44.1557 20.4267 43.8062 21.0842 43.1266 21.5504C42.247 22.1534 41.56 23.0178 41.2157 24.0269C40.879 25.014 40.966 25.7703 41.4043 26.0918C41.5411 26.192 41.7044 26.23 41.8937 26.23C42.4687 26.23 43.283 25.8822 44.3215 25.8822C44.7352 25.8822 45.1845 25.9374 45.668 26.0918C47.7654 26.7615 49.6745 28.2921 51.1595 28.9137C51.6178 29.1054 52.1303 29.1789 52.6822 29.1789C53.9182 29.1789 55.3503 28.8105 56.8053 28.5787C57.0719 28.5362 57.3306 28.5162 57.5813 28.5162C59.3084 28.5162 60.676 29.4722 61.9708 30.6833C62.1141 30.8176 62.2384 30.8798 62.3448 30.8798C63.3346 30.8795 62.745 25.4698 61.4921 22.7913ZM62.4328 30.5987C62.4011 30.6488 62.371 30.6743 62.3444 30.6743C62.3248 30.6743 62.2505 30.6643 62.1106 30.5331C60.9361 29.4341 59.4791 28.3107 57.581 28.3107C57.3164 28.3107 57.0446 28.3325 56.7729 28.376C56.3349 28.4458 55.8967 28.528 55.473 28.6077C54.4735 28.7959 53.5293 28.9734 52.6818 28.9734C52.1113 28.9734 51.6392 28.8919 51.2386 28.7241C50.6542 28.4796 49.987 28.0814 49.2808 27.6601C48.2147 27.0243 47.0059 26.3032 45.7305 25.896C45.2681 25.7485 44.8074 25.6767 44.3215 25.6767C43.704 25.6767 43.1559 25.7969 42.7152 25.8933C42.3941 25.9637 42.1168 26.0245 41.8937 26.0245C41.7338 26.0245 41.6167 25.9934 41.5255 25.9261C41.1598 25.6577 41.1152 24.9553 41.4095 24.0929C41.7306 23.1525 42.3813 22.3095 43.2422 21.719C43.7696 21.3574 44.1954 20.8297 44.5076 20.1504C44.5753 20.0036 44.9866 19.8282 46.5632 19.8247C46.6343 19.8244 46.6975 19.8243 46.7497 19.8236C47.7567 19.8112 49.2825 19.7964 50.8331 19.7964C52.3534 19.7964 53.5877 19.8105 54.5025 19.8389C57.5537 19.9328 59.9636 20.007 61.3063 22.8776C62.4108 25.2391 62.964 29.7636 62.4328 30.5987Z" fill="white"/>
<path d="M43.2101 36.8977C42.3633 36.8977 41.2813 36.5306 39.701 35.7079C38.5696 35.1188 37.6889 34.8877 37.106 34.7347C36.598 34.6014 36.2916 34.5209 36.1873 34.3234C36.0879 34.1366 36.1393 33.8088 36.3704 33.1544C37.0859 31.1268 41.3915 27.559 41.7931 27.2295C43.6901 27.3024 48.0955 27.6477 49.002 29.2799C49.8982 30.8927 46.4785 35.4613 45.0857 36.2843C44.4634 36.6528 43.9056 36.8977 43.2101 36.8977Z" fill="white"/>
<path d="M43.2106 37.1729C42.3051 37.1729 41.2176 36.8076 39.5744 35.9518C38.4707 35.3771 37.6418 35.1595 37.0364 35.0007C36.4759 34.8532 36.1053 34.7561 35.9444 34.4522C35.8011 34.1818 35.8446 33.8182 36.1112 33.0632C36.8841 30.874 41.4556 27.1494 41.65 26.9919L41.7004 26.9512L41.7653 26.9536C44.1524 27.042 48.2977 27.4444 49.2436 29.1466C50.2969 31.0436 46.5551 35.7366 45.2265 36.5216C44.5644 36.9126 43.9683 37.1729 43.2106 37.1729ZM41.8876 27.5089C41.2259 28.0573 37.2899 31.3776 36.6303 33.2459C36.3986 33.9035 36.3937 34.1245 36.4307 34.1943C36.4787 34.2854 36.8334 34.3784 37.1763 34.4685C37.771 34.6243 38.6696 34.8605 39.8286 35.4641C41.3672 36.2654 42.4101 36.6225 43.2106 36.6225C43.8464 36.6225 44.3462 36.4025 44.9464 36.0474C46.2497 35.2776 49.5769 30.8799 48.7622 29.4135C47.9168 27.8912 43.373 27.5721 41.8876 27.5089Z" fill="white"/>
<path d="M49.0919 29.2301C48.1353 27.5081 43.4799 27.1894 41.758 27.1255C41.758 27.1255 37.0387 30.9517 36.2738 33.1201C35.5085 35.2883 36.5925 34.2042 39.6537 35.7984C41.3076 36.6597 42.3655 36.9998 43.2102 36.9998C43.9289 36.9998 44.4932 36.7533 45.1383 36.3723C46.5408 35.5438 50.0482 30.952 49.0919 29.2301ZM45.0336 36.1962C44.4079 36.5661 43.8843 36.795 43.2098 36.795C42.3803 36.795 41.3128 36.4317 39.748 35.6167C38.6066 35.0224 37.7191 34.7892 37.1316 34.6352C36.6675 34.5133 36.3608 34.4328 36.2772 34.275C36.1954 34.1206 36.252 33.7957 36.4665 33.1882C37.1582 31.2283 41.2817 27.7831 41.8274 27.3331C43.3628 27.3945 48.0151 27.7147 48.9123 29.3292C49.7864 30.9026 46.4061 35.3853 45.0336 36.1962Z" fill="white"/>
<path d="M51.1645 37.7943C49.887 37.7943 49.0709 37.1157 48.4151 36.5701C48.3081 36.4813 48.2055 36.3957 48.1053 36.3169C48.0542 36.2769 47.9075 36.0676 48.1613 35.0602C48.6734 33.0281 50.2925 29.7359 50.7096 29.6626C50.8519 29.6378 51.0056 29.625 51.1652 29.625C52.3739 29.625 53.9083 30.3558 54.5859 31.254C54.7896 31.5241 55.0072 31.9358 54.885 32.3633C54.4336 33.9426 52.7545 37.7474 51.2774 37.7926C51.2398 37.794 51.2021 37.7943 51.1645 37.7943V37.7943Z" fill="white"/>
<path d="M51.1653 38.0693C49.7888 38.0693 48.9305 37.3554 48.2409 36.7815C48.1359 36.6941 48.0347 36.6102 47.9363 36.5325C47.7829 36.4113 47.6116 36.1201 47.8962 34.9908C48.3652 33.1304 49.997 29.508 50.6639 29.3913C50.8224 29.3633 50.9916 29.3491 51.1667 29.3491C52.4725 29.3491 54.0715 30.1127 54.8067 31.0876C55.1531 31.5466 55.2723 32.0139 55.1507 32.4383C54.8896 33.3525 53.1666 38.0099 51.2869 38.0672L51.1653 38.0693ZM48.3068 36.1243C48.3921 36.192 48.4806 36.2655 48.5717 36.3415C49.2141 36.8758 49.9877 37.5191 51.1653 37.5191L51.2707 37.5174C52.4829 37.4808 54.1202 34.0428 54.6216 32.287C54.7125 31.969 54.5335 31.6395 54.3678 31.4192C53.7358 30.5813 52.2998 29.8996 51.1671 29.8996C51.0327 29.8996 50.9042 29.9093 50.7847 29.9286C50.3834 30.1942 48.5686 33.9074 48.3172 35.6774C48.2768 35.9616 48.2968 36.0849 48.3068 36.1243Z" fill="white"/>
<path d="M51.1666 29.522C51.0033 29.522 50.8447 29.5348 50.6931 29.5613C50.0138 29.6805 47.2983 35.8102 48.0429 36.3973C48.7692 36.9695 49.6422 37.8968 51.1652 37.8968C51.2036 37.8968 51.2422 37.8961 51.2813 37.8951C52.8761 37.8464 54.5742 33.8268 54.9845 32.3915C55.3606 31.0744 52.9766 29.522 51.1666 29.522ZM54.7873 32.3349C54.3566 33.8417 52.6796 37.6471 51.275 37.6899C51.2381 37.691 51.2015 37.6917 51.1652 37.6917C49.9251 37.6917 49.1245 37.0262 48.4818 36.4912C48.3741 36.4018 48.2705 36.3154 48.17 36.236C48.1689 36.2353 48.076 36.1466 48.1461 35.653C48.402 33.852 50.286 29.944 50.729 29.763C50.8658 29.7392 51.0129 29.7271 51.167 29.7271C52.3474 29.7271 53.8452 30.4396 54.5058 31.3158C54.6951 31.5668 54.8978 31.9481 54.7873 32.3349Z" fill="white"/>
<path d="M63.0332 43.3093C62.5677 43.3093 62.0262 43.2464 61.378 43.1165C58.5506 42.5508 58.4888 42.1906 58.305 41.1217C58.2653 40.8893 58.2201 40.6259 58.141 40.3216C57.9093 39.4271 57.136 38.8939 56.388 38.3783C55.6468 37.8675 54.9468 37.3847 54.7949 36.5935C54.5034 35.0784 57.0427 30.9031 57.3363 30.4269C57.5214 30.4144 57.7024 30.4082 57.8806 30.4082C63.017 30.4082 65.2304 35.5553 65.4653 39.0151C65.5958 40.9425 65.3962 42.0777 64.8184 42.6962C64.4326 43.1089 63.8486 43.3093 63.0332 43.3093V43.3093Z" fill="white"/>
<path d="M63.0338 43.5845C62.55 43.5845 61.9905 43.5196 61.3247 43.3866C58.4489 42.8116 58.2452 42.3958 58.0345 41.1684C57.9955 40.9415 57.9513 40.6839 57.8753 40.3907C57.6692 39.596 56.9387 39.0921 56.2321 38.6052C55.4779 38.0854 54.6984 37.5477 54.5247 36.6456C54.197 34.9403 57.0112 30.4279 57.1311 30.2366L57.1777 30.1623L57.2647 30.1558C57.4744 30.1402 57.6799 30.1333 57.8809 30.1333C63.2065 30.1333 65.4986 35.4338 65.74 38.9961C65.8765 41.0061 65.654 42.2051 65.0196 42.8841C64.5789 43.3552 63.9297 43.5845 63.0338 43.5845ZM57.4951 30.6935C56.3889 32.4938 54.8607 35.479 55.0652 36.5417C55.1961 37.2224 55.8505 37.6738 56.544 38.1517C57.3338 38.6963 58.1502 39.2593 58.4079 40.2525C58.4894 40.5682 58.5356 40.8376 58.5764 41.0755C58.7404 42.0304 58.7898 42.3188 61.4321 42.8472C62.0627 42.9729 62.5866 43.0343 63.0338 43.0343C63.7687 43.0343 64.2868 42.8623 64.6173 42.5087C65.1388 41.9506 65.3156 40.879 65.1906 39.0341C64.963 35.6773 62.8284 30.6835 57.8805 30.6835C57.7537 30.6835 57.6249 30.6869 57.4951 30.6935Z" fill="white"/>
<path d="M65.5677 39.0084C65.3218 35.3839 63.049 30.3062 57.8808 30.3062C57.6836 30.3062 57.483 30.3134 57.2772 30.3286C57.2772 30.3286 54.3755 34.955 54.6943 36.613C55.013 38.2711 57.5959 38.6257 58.0424 40.3473C58.489 42.0693 57.8511 42.5154 61.3585 43.2172C61.9995 43.3453 62.5552 43.412 63.0342 43.412C65.1754 43.412 65.7763 42.0834 65.5677 39.0084ZM64.7437 42.6267C64.3787 43.0172 63.8195 43.2072 63.0342 43.2072C62.5752 43.2072 62.0403 43.145 61.3989 43.0166C58.6403 42.465 58.5816 42.1221 58.4068 41.1047C58.3664 40.8702 58.3208 40.6046 58.241 40.2962C57.9996 39.3651 57.2102 38.8205 56.4466 38.2942C55.7234 37.7955 55.04 37.3244 54.8959 36.5743C54.6525 35.3086 56.5671 31.864 57.396 30.5258C57.5593 30.5158 57.722 30.511 57.8812 30.511C62.9475 30.511 65.1315 35.6008 65.3636 39.0222C65.4918 40.9189 65.3008 42.0306 64.7437 42.6267Z" fill="white"/>
<path d="M32.2515 61.6556C31.729 61.6556 31.2866 61.5074 31.0058 61.2384C30.5223 60.7753 31.5045 59.303 32.4542 57.8795C33.1511 56.8344 33.8722 55.7538 34.248 54.8024C35.1967 52.3991 36.6679 41.6727 36.393 36.1543C36.3902 36.1018 36.4068 36.0846 36.4123 36.079C36.4365 36.0538 36.4907 36.04 36.5653 36.04C37.3261 36.04 39.5281 37.3334 39.9315 38.0168C40.4415 38.8809 40.837 46.4044 39.1164 48.1374C37.7619 49.5019 36.0497 55.2862 35.13 58.3937C34.8575 59.3137 34.6424 60.0407 34.5277 60.3463C34.2051 61.2056 33.1383 61.6556 32.2515 61.6556Z" fill="white"/>
<path d="M32.2523 61.9305C31.6589 61.9305 31.1489 61.7551 30.8166 61.4367C30.1667 60.8136 31.1209 59.3832 32.226 57.7266C32.9153 56.6936 33.6278 55.6251 33.9928 54.7005C34.9343 52.3166 36.3923 41.6576 36.1188 36.1672C36.1119 36.027 36.1665 35.9382 36.2134 35.8888C36.2922 35.8059 36.4106 35.7642 36.566 35.7642C37.4249 35.7642 39.7147 37.1062 40.1691 37.876C40.7031 38.7812 41.1582 46.4715 39.3126 48.3302C38.0065 49.6456 36.3074 55.3871 35.3943 58.4715C35.1097 59.4323 34.9042 60.1271 34.7861 60.442C34.42 61.419 33.2344 61.9305 32.2523 61.9305ZM36.6783 36.3233C36.9097 41.9301 35.4481 52.5135 34.5046 54.9026C34.1182 55.882 33.3892 56.9747 32.6839 58.0318C32.0091 59.0434 30.8802 60.7356 31.1972 61.0395C31.4265 61.2591 31.8012 61.38 32.2523 61.38C33.0448 61.38 33.9928 60.9915 34.2712 60.249C34.3827 59.952 34.5965 59.2295 34.8673 58.3147C35.8591 54.9641 37.5185 49.3562 38.9224 47.9427C40.5114 46.342 40.1128 38.863 39.6956 38.1557C39.3586 37.5838 37.4426 36.4372 36.6783 36.3233Z" fill="white"/>
<path d="M40.0199 37.9642C39.5934 37.2414 37.3542 35.937 36.5654 35.937C36.3868 35.937 36.2825 36.0036 36.2905 36.1591C36.5688 41.7448 35.088 52.3952 34.1524 54.7643C33.2168 57.1338 30.0296 60.4446 30.9347 61.3122C31.2507 61.6151 31.7342 61.758 32.2512 61.758C33.2144 61.758 34.2936 61.2621 34.6238 60.3818C35.1311 59.0291 37.4564 49.9542 39.1894 48.2088C40.9223 46.4634 40.5432 38.8504 40.0199 37.9642ZM39.044 48.0644C37.6712 49.4472 36.019 55.0288 35.032 58.3639C34.7602 59.2822 34.5454 60.0074 34.4321 60.31C34.1262 61.126 33.1032 61.5532 32.2512 61.5532C31.7553 61.5532 31.3381 61.4151 31.0767 61.1644C30.655 60.7603 31.6562 59.2601 32.5392 57.9363C33.2393 56.8868 33.9635 55.8017 34.343 54.8399C35.2941 52.4314 36.7681 41.6968 36.4963 36.1487C36.5091 36.1456 36.5312 36.1421 36.5657 36.1421C37.2861 36.1421 39.4612 37.4203 39.8435 38.0685C40.3391 38.9081 40.681 46.4157 39.044 48.0644Z" fill="white"/>
<path d="M39.2335 66.7205C38.4513 66.7205 37.5289 66.2712 36.8834 65.5763C36.134 64.7693 35.7455 63.6448 35.9168 62.7786C36.0114 62.2989 36.2687 61.9498 36.66 61.7695C37.9754 61.1627 41.4093 53.5905 41.6935 50.6709C41.9618 47.9077 41.8948 38.8308 41.8858 37.7668C42.0803 37.7592 42.2951 37.7315 42.521 37.7028C42.8169 37.6649 43.1236 37.6255 43.4206 37.6255C44.085 37.6255 44.5084 37.8365 44.7536 38.2893C45.3404 39.3716 46.4158 47.2101 44.7499 50.9693C43.2483 54.3589 41.65 61.496 40.9679 64.5437C40.8895 64.8935 40.8246 65.1847 40.7741 65.4043C40.5794 66.2525 40.032 66.7205 39.2335 66.7205Z" fill="white"/>
<path d="M39.235 66.9952C38.3795 66.9952 37.378 66.5118 36.6828 65.7634C35.8764 64.8948 35.4603 63.674 35.6478 62.7253C35.7604 62.1555 36.0709 61.7386 36.5457 61.5193C37.6743 60.9982 41.1275 53.6546 41.4204 50.6438C41.7032 47.7366 41.6121 37.768 41.611 37.6678L41.6093 37.4934H41.7837C41.9868 37.4934 42.2299 37.4623 42.4872 37.4292C42.7921 37.3905 43.1071 37.3501 43.422 37.3501C44.1873 37.3501 44.7026 37.6143 44.9969 38.1579C45.6147 39.2989 46.7361 47.1692 45.0031 51.0803C43.5122 54.4455 41.9184 61.5635 41.238 64.603C41.1596 64.9538 41.094 65.2453 41.0436 65.465C40.8202 66.4372 40.1612 66.9952 39.235 66.9952ZM42.1639 38.0215C42.1788 40.0145 42.2213 48.092 41.9681 50.6966C41.6708 53.7537 38.1772 61.3722 36.7764 62.0187C36.3872 62.1979 36.2415 62.5599 36.1876 62.8317C36.0329 63.6156 36.3938 64.6434 37.0858 65.3886C37.6819 66.03 38.5253 66.4451 39.235 66.4451C39.9112 66.4451 40.3391 66.0742 40.5069 65.342C40.5573 65.1227 40.6223 64.8316 40.7007 64.4824C41.3855 61.4236 42.9876 54.2704 44.4999 50.8576C46.1355 47.1658 45.0874 39.4803 44.513 38.4197C44.3158 38.0553 43.9895 37.8999 43.422 37.8999C43.1402 37.8999 42.8439 37.9379 42.5573 37.9752C42.4164 37.9928 42.2865 38.0094 42.1639 38.0215Z" fill="white"/>
<path d="M44.8456 38.2393C44.5348 37.6653 43.9967 37.522 43.4227 37.522C42.8488 37.522 42.2389 37.6656 41.7847 37.6656C41.7847 37.6656 41.8804 47.7095 41.5934 50.6599C41.3064 53.6103 37.8629 61.1017 36.6193 61.6756C35.3757 62.2496 35.567 64.3062 36.8106 65.6455C37.4599 66.3448 38.4093 66.8225 39.236 66.8225C39.9927 66.8225 40.6475 66.4225 40.8758 65.4262C41.3541 63.3416 43.1717 54.7886 44.8456 51.0098C46.5199 47.2313 45.4676 39.3872 44.8456 38.2393ZM44.6584 50.9265C43.1527 54.3251 41.553 61.4691 40.8702 64.5193C40.7918 64.8691 40.7266 65.1603 40.6761 65.3799C40.4417 66.4025 39.7634 66.6169 39.236 66.6169C38.4807 66.6169 37.5877 66.1808 36.9605 65.5056C36.2325 64.7217 35.8543 63.6331 36.0191 62.7977C36.0805 62.4865 36.2494 62.0718 36.7049 61.8615C38.0373 61.2467 41.5112 53.6179 41.7972 50.6796C42.0596 47.9827 42.0023 39.2919 41.9912 37.8628C42.1622 37.8511 42.3456 37.8276 42.5359 37.8034C42.8291 37.7658 43.1323 37.7271 43.4227 37.7271C44.0537 37.7271 44.4371 37.9153 44.6653 38.3373C45.2476 39.411 46.3127 47.1925 44.6584 50.9265Z" fill="white"/>
<path d="M46.1545 66.1916C45.2279 66.1916 43.8693 65.7665 43.2912 65.0796C43.0736 64.8213 42.9869 64.5509 43.0345 64.2756C43.202 63.3048 43.7912 62.7298 44.3611 62.1734C44.8632 61.683 45.3374 61.2203 45.5197 60.5216C45.9089 59.0294 46.9888 50.5157 47.0538 48.7658C47.0821 48.0036 46.879 45.9719 46.6639 43.821C46.418 41.359 46.1117 38.2947 46.2788 37.94C46.3987 37.6858 46.6407 37.5566 46.9982 37.5566C47.2406 37.5566 47.4451 37.6192 47.4471 37.6195C47.4568 37.6226 47.4672 37.624 47.4775 37.624C47.4796 37.624 47.5366 37.6226 47.5366 37.6226C48.7823 37.6226 50.2483 39.9248 50.3405 41.5452C50.3788 42.2117 49.7834 45.9667 49.0945 50.3144C48.047 56.9258 46.8593 64.4193 47.1708 65.455C47.224 65.6321 47.2088 65.7789 47.1253 65.8912C46.9813 66.0853 46.6366 66.1916 46.1545 66.1916Z" fill="white"/>
<path d="M46.1541 66.467C45.1439 66.467 43.7179 66.0146 43.0801 65.2572C42.8117 64.9384 42.7019 64.5828 42.763 64.2288C42.9454 63.1706 43.5954 62.5362 44.1686 61.9767C44.6428 61.5136 45.0904 61.0764 45.2534 60.4523C45.6305 59.006 46.7167 50.4219 46.7785 48.7555C46.8061 48.0123 46.6037 45.9896 46.39 43.8484C46.0415 40.3628 45.8436 38.2178 46.0297 37.823C46.1962 37.4694 46.5312 37.2822 46.9981 37.2822C47.2274 37.2822 47.4239 37.3288 47.4979 37.3485C47.511 37.3482 47.5238 37.3478 47.5365 37.3478C48.9456 37.3478 50.5155 39.7808 50.6153 41.5297C50.6551 42.2259 50.0579 45.9951 49.3665 50.3594C48.375 56.6151 47.1414 64.4007 47.4346 65.376C47.5338 65.7062 47.4412 65.9279 47.3462 66.0557C47.1452 66.325 46.7336 66.467 46.1541 66.467ZM46.9978 37.832C46.6331 37.832 46.5533 38.0016 46.5274 38.0572C46.3975 38.3922 46.7353 41.7735 46.9373 43.7935C47.1532 45.9541 47.3573 47.9944 47.3283 48.7756C47.2633 50.5327 46.1776 59.0885 45.7859 60.5908C45.5839 61.3637 45.06 61.8755 44.553 62.3697C44.0143 62.896 43.4575 63.4396 43.3056 64.3224C43.2724 64.5137 43.3384 64.7088 43.5011 64.9022C44.0118 65.509 45.2855 65.9165 46.1544 65.9165C46.6041 65.9165 46.8393 65.8146 46.9045 65.7273C46.9149 65.7131 46.9477 65.6692 46.9069 65.5342C46.6013 64.5168 47.5082 58.5667 48.8226 50.272C49.4529 46.2938 50.1022 42.1969 50.0656 41.5608C49.983 40.1144 48.6116 37.898 47.5358 37.898C47.5358 37.898 47.4909 37.899 47.4885 37.899C47.4357 37.899 47.3998 37.8931 47.3652 37.8824C47.3628 37.8821 47.1929 37.832 46.9978 37.832Z" fill="white"/>
<path d="M50.4421 41.5399C50.3479 39.8905 48.8566 37.5207 47.5356 37.5207C47.516 37.5207 47.4963 37.521 47.4766 37.5224C47.4766 37.5224 47.2597 37.4551 46.9972 37.4551C46.704 37.4551 46.3535 37.5393 46.185 37.8971C45.8662 38.5743 47.0138 47.0407 46.9503 48.7626C46.8864 50.4846 45.8023 59.03 45.4197 60.4967C45.037 61.9634 43.2515 62.4099 42.9324 64.2593C42.7273 65.4487 44.7904 66.2952 46.1532 66.2952C46.9095 66.2952 47.45 66.0344 47.2676 65.427C46.7569 63.7244 50.5378 43.2138 50.4421 41.5399ZM47.0718 65.4853C47.116 65.6317 47.106 65.7447 47.0421 65.8307C46.9199 65.9951 46.5959 66.0897 46.1535 66.0897C45.2497 66.0897 43.9281 65.6784 43.3683 65.0143C43.1711 64.7801 43.0923 64.5377 43.1345 64.2935C43.2961 63.3555 43.8735 62.7919 44.4316 62.247C44.9217 61.7686 45.4283 61.2737 45.6179 60.5478C46.0081 59.0517 47.0901 50.5222 47.1551 48.7695C47.1834 48.0004 46.9803 45.9656 46.7648 43.8109C46.5338 41.4995 46.2174 38.3336 46.3704 37.9838C46.4716 37.7686 46.6826 37.6595 46.9972 37.6595C47.2227 37.6595 47.4141 37.7172 47.4155 37.7179C47.4351 37.7241 47.4559 37.7272 47.4762 37.7272C47.48 37.7272 47.4838 37.7272 47.4873 37.7269C47.5032 37.7262 47.5191 37.7255 47.5353 37.7255C48.7105 37.7255 50.1489 40.0062 50.2373 41.5516C50.2746 42.2071 49.652 46.1379 48.9923 50.2994C47.7242 58.304 46.7776 64.5052 47.0718 65.4853Z" fill="white"/>
<path d="M53.9042 66.3511C52.5366 66.3511 50.7038 65.3403 50.5401 64.681C50.2987 63.7088 51.0996 61.1642 52.0137 59.2658C52.8674 57.4921 52.4744 45.8741 51.5009 44.1055C50.6579 42.5735 51.7758 39.4802 51.984 38.9355C52.4727 39.0585 54.886 39.6815 55.9552 40.2441C57.0676 40.8298 57.0227 46.9485 56.4778 48.9912C55.9694 50.8972 55.0093 58.2194 55.3913 60.8938C55.4807 61.5193 55.5626 61.9803 55.6289 62.3505C55.844 63.5572 55.8768 63.7426 55.3944 65.3979C55.1651 66.1857 54.4578 66.3511 53.9049 66.3511C53.9042 66.3511 53.9042 66.3511 53.9042 66.3511Z" fill="white"/>
<path d="M53.9045 66.6259C52.4848 66.6259 50.4824 65.5898 50.2731 64.7468C49.9748 63.5453 51.0302 60.6737 51.7658 59.1459C52.5715 57.4723 52.1791 45.9081 51.2598 44.2377C50.2749 42.4477 51.6998 38.8989 51.7613 38.7487L51.8172 38.6108L51.9623 38.6464C52.0804 38.6751 54.8667 39.3599 56.0834 40.0006C57.4745 40.7327 57.1999 47.3507 56.7437 49.0619C56.2391 50.9527 55.2856 58.2097 55.6638 60.8551C55.7525 61.4757 55.834 61.9336 55.8996 62.3017C56.1196 63.5353 56.159 63.7577 55.6589 65.4748C55.4421 66.2173 54.819 66.6259 53.9045 66.6259ZM52.1564 39.2632C51.869 40.0714 51.0336 42.685 51.7426 43.9725C52.7317 45.7704 53.1303 57.5818 52.262 59.3849C51.3886 61.199 50.584 63.7142 50.8074 64.6149C50.9217 65.0742 52.5431 66.0761 53.9049 66.0761C54.5818 66.0761 54.9827 65.8292 55.1305 65.3208C55.5954 63.727 55.5685 63.5754 55.3585 62.3981C55.2922 62.0248 55.2093 61.5617 55.1195 60.9321C54.7334 58.2287 55.7004 50.8409 56.2125 48.9203C56.7561 46.8828 56.7205 40.9572 55.8278 40.4871C54.9088 40.0036 52.9427 39.4673 52.1564 39.2632Z" fill="white"/>
<path d="M56.0029 40.1532C54.7914 39.5154 51.9215 38.814 51.9215 38.814C51.9215 38.814 50.4548 42.4163 51.4114 44.1545C52.368 45.8927 52.7503 57.4993 51.9215 59.2209C51.0926 60.9425 50.1716 63.621 50.4406 64.7054C50.6178 65.4189 52.4741 66.4536 53.9042 66.4536C54.647 66.4536 55.2745 66.1746 55.4924 65.4265C56.1303 63.2384 55.8751 63.5575 55.4924 60.8789C55.1098 58.2004 56.0664 50.9304 56.5765 49.0174C57.0873 47.1042 57.2147 40.7907 56.0029 40.1532ZM55.2901 60.9079C55.3795 61.5351 55.462 61.9969 55.528 62.3678C55.7394 63.5544 55.7718 63.7367 55.2963 65.3692C55.126 65.9528 54.6581 66.2485 53.9045 66.2485C52.4813 66.2485 50.7815 65.2269 50.6395 64.6557C50.4037 63.706 51.2 61.1918 52.1062 59.3096C52.9651 57.5252 52.5704 45.835 51.591 44.0554C50.8053 42.6277 51.7813 39.773 52.0479 39.0567C52.6861 39.2194 54.9022 39.8051 55.9079 40.3342C56.9609 40.8885 56.9043 46.9964 56.3793 48.9646C55.8692 50.8765 54.9064 58.2235 55.2901 60.9079Z" fill="white"/>
<path d="M61.025 66.4604C59.6502 66.4604 58.6935 66.211 58.5882 65.8249C58.4545 65.3345 58.87 64.4269 59.3963 63.2776C60.2901 61.3246 61.5143 58.6498 60.9493 55.9464C60.4928 53.762 59.704 52.9028 59.0706 52.2124C58.4449 51.5311 57.951 50.993 57.9541 49.4631C57.8964 47.085 58.2321 45.5064 58.9525 44.768C59.4053 44.3039 59.9437 44.25 60.3091 44.25C60.384 44.25 60.4569 44.2524 60.5256 44.2555C60.5463 44.261 64.1767 45.0319 63.9998 46.3884C63.9598 46.6951 63.8956 46.9658 63.8272 47.2528C63.5768 48.3051 63.3178 49.3934 64.3632 52.2073C66.3148 57.4608 67.3294 61.3015 67.3791 63.6222C67.3878 64.0332 67.2182 64.419 66.8756 64.7695C65.7884 65.8798 63.1096 66.4604 61.025 66.4604Z" fill="white"/>
<path d="M61.0246 66.736C60.2811 66.736 58.5291 66.6545 58.3229 65.8978C58.163 65.311 58.575 64.41 59.1463 63.1629C60.0241 61.2448 61.2263 58.6181 60.68 56.0031C60.2393 53.893 59.5102 53.099 58.8679 52.3986C58.228 51.7013 57.6757 51.0998 57.6792 49.4624C57.6184 46.98 57.971 45.3803 58.7557 44.576C59.2813 44.0373 59.8943 43.9751 60.3094 43.9751C60.3885 43.9751 60.4655 43.9775 60.5384 43.9813C60.9666 44.068 64.4785 44.8443 64.2727 46.424C64.2305 46.7455 64.1615 47.0356 64.0945 47.3167C63.8534 48.329 63.6044 49.3757 64.6204 52.112C66.5831 57.3945 67.6036 61.2652 67.6534 63.6167C67.6637 64.1044 67.4679 64.5575 67.0711 64.9626C65.8786 66.1806 63.1009 66.736 61.0246 66.736ZM60.3094 44.5249C59.9458 44.5249 59.5237 44.5764 59.1494 44.9604C58.4828 45.6428 58.1734 47.1548 58.2293 49.4538C58.2262 50.8856 58.6655 51.3639 59.2726 52.0263C59.9295 52.7415 60.7466 53.6319 61.2187 55.8901C61.802 58.6827 60.556 61.4047 59.6463 63.3926C59.1825 64.4055 58.7463 65.359 58.8537 65.7531C58.8841 65.8639 59.4781 66.1858 61.0246 66.1858C63.0518 66.1858 65.6448 65.6333 66.6788 64.5772C66.9678 64.2822 67.1108 63.9628 67.1036 63.6285C67.0545 61.3388 66.0457 57.5285 64.1049 52.3033C63.0305 49.4113 63.2991 48.282 63.5592 47.1896C63.6255 46.9099 63.6883 46.6461 63.7263 46.3532C63.8265 45.5869 61.8811 44.8236 60.4683 44.5266C60.4645 44.5263 60.3654 44.5249 60.3094 44.5249Z" fill="white"/>
<path d="M64.4598 52.1716C63.1453 48.6338 63.9106 47.8684 64.102 46.4017C64.2933 44.935 60.5306 44.1535 60.5306 44.1535C60.4605 44.1504 60.3867 44.1479 60.31 44.1479C59.2736 44.1479 57.7336 44.5938 57.8524 49.4629C57.8459 52.6329 59.957 51.6949 60.8498 55.9677C61.7425 60.2404 58.1077 64.4492 58.4903 65.8524C58.6184 66.3224 59.677 66.5635 61.0256 66.5635C63.7031 66.5635 67.5244 65.6137 67.4819 63.6207C67.418 60.6227 65.7738 55.7094 64.4598 52.1716ZM66.8026 64.6975C65.7355 65.7878 63.0883 66.358 61.0252 66.358C59.5909 66.358 58.7635 66.0762 58.6875 65.7982C58.5635 65.3437 58.9928 64.406 59.4898 63.3206C60.3894 61.3545 61.622 58.6621 61.0501 55.9255C60.588 53.7139 59.7885 52.8429 59.1465 52.1432C58.5363 51.4784 58.0541 50.9531 58.0572 49.4578C57.9999 47.1111 58.3259 45.5574 59.0266 44.8397C59.448 44.408 59.9339 44.3527 60.3103 44.3527C60.3777 44.3527 60.4429 44.3548 60.5051 44.3576C61.5108 44.5693 64.035 45.3332 63.8989 46.3755C63.8595 46.6773 63.7956 46.9453 63.7279 47.2295C63.4741 48.2967 63.2113 49.4004 64.2674 52.2434C66.2152 57.4865 67.2278 61.3158 67.2768 63.6248C67.2851 64.0064 67.1255 64.3677 66.8026 64.6975Z" fill="white"/>
<path d="M53.8436 76.1166C53.5929 76.1166 53.1729 76.0303 52.7285 75.9392C52.1914 75.829 51.5829 75.7039 51.0673 75.6832C50.7482 75.6704 50.5286 75.551 50.4149 75.3279C50.197 74.9 50.3845 74.0708 50.8615 73.3555C51.5753 72.2842 50.7351 68.7427 50.3148 67.7118C50.1563 67.3226 50.1259 67.0028 50.2274 66.7873C50.2903 66.654 50.3876 66.5911 50.4388 66.5659C50.7423 66.7158 52.5313 67.5657 54.0891 67.5657C54.5201 67.5657 54.8994 67.4987 55.2157 67.3668C55.3262 67.3209 55.4153 67.2977 55.4816 67.2977C55.5538 67.2977 55.5711 67.3264 55.5787 67.3385C55.7652 67.6448 55.0137 69.0997 54.4656 70.1627C54.0453 70.9771 53.6481 71.7459 53.5721 72.1313C53.4395 72.8009 53.6702 73.9502 53.8557 74.8734C53.959 75.3886 54.0764 75.9726 54.0304 76.0804C54.0304 76.0804 54.0073 76.1166 53.8436 76.1166Z" fill="white"/>
<path d="M53.8441 76.3916C53.5654 76.3916 53.152 76.3067 52.6737 76.2086C52.147 76.1005 51.5495 75.9779 51.0567 75.9582C50.5262 75.9368 50.2821 75.6715 50.1705 75.4526C49.8601 74.8434 50.1788 73.8836 50.633 73.2026C51.2387 72.2936 50.5159 68.9333 50.0607 67.8151C49.868 67.3423 49.8414 66.9545 49.9823 66.6627C50.1208 66.3747 50.3674 66.2956 50.395 66.2873L50.4606 66.2676L50.5221 66.299C50.5415 66.3087 52.4847 67.2898 54.0893 67.2898C54.4837 67.2898 54.8269 67.2301 55.1101 67.1119C55.2562 67.0512 55.3774 67.0215 55.4817 67.0215C55.6278 67.0215 55.7459 67.083 55.8136 67.1942C56.0626 67.6031 55.5625 68.636 54.7099 70.2882C54.2989 71.0846 53.9107 71.8364 53.8416 72.1835C53.7201 72.7989 53.9542 73.9652 54.1252 74.8168C54.2858 75.6166 54.3597 76.009 54.283 76.1878C54.197 76.3916 53.9314 76.3916 53.8441 76.3916ZM50.4751 66.9075C50.4112 67.0474 50.4461 67.3033 50.5701 67.6079C50.9776 68.6073 51.908 72.2819 51.0906 73.5079C50.6727 74.1351 50.4876 74.8638 50.6606 75.2025C50.7027 75.2854 50.7918 75.3963 51.0788 75.4081C51.619 75.4298 52.2385 75.5572 52.7849 75.6698C53.1458 75.7437 53.5177 75.82 53.7539 75.8373C53.7215 75.598 53.64 75.1932 53.5864 74.9266C53.3961 73.9797 53.1599 72.8013 53.3029 72.0771C53.3868 71.6527 53.7739 70.9033 54.2219 70.0357C54.4798 69.536 55.201 68.1383 55.3229 67.6207C54.972 67.7664 54.5576 67.8403 54.0903 67.8403C52.6667 67.8403 51.0854 67.1724 50.4841 66.8916C50.4807 66.8968 50.4779 66.9017 50.4751 66.9075Z" fill="white"/>
<path d="M53.6732 72.1506C53.8752 71.1311 56.474 67.1947 55.4825 67.1947C55.4041 67.1947 55.3032 67.2193 55.1775 67.2721C54.8515 67.4078 54.4792 67.4631 54.09 67.4631C52.4233 67.4631 50.4441 66.4536 50.4441 66.4536C50.4441 66.4536 49.7728 66.6505 50.221 67.7504C50.6693 68.8504 51.4467 72.2943 50.777 73.2985C50.1074 74.3028 49.8684 75.7378 51.064 75.7858C52.0082 75.8234 53.2802 76.2192 53.8445 76.2192C53.9947 76.2192 54.0949 76.1909 54.1252 76.1208C54.2682 75.7854 53.4553 73.2505 53.6732 72.1506ZM53.7557 74.8927C53.8414 75.3195 53.9467 75.8431 53.9405 76.0075C53.9211 76.0109 53.8904 76.0141 53.8445 76.0141C53.6041 76.0141 53.1893 75.9287 52.7504 75.8386C52.2096 75.7277 51.5962 75.6017 51.0723 75.5806C50.7891 75.5693 50.6044 75.4715 50.5073 75.2812C50.3049 74.8844 50.4901 74.098 50.9477 73.4122C51.7174 72.2576 50.7964 68.619 50.411 67.6731C50.2645 67.3139 50.2328 67.0245 50.3191 66.8353C50.3547 66.7576 50.4051 66.7095 50.4445 66.6819C50.8637 66.8846 52.5812 67.6679 54.09 67.6679C54.5348 67.6679 54.9271 67.5985 55.2563 67.4614C55.3844 67.4079 55.4531 67.3999 55.4825 67.3999C55.487 67.3999 55.4908 67.3999 55.4935 67.3999C55.4946 67.3999 55.4953 67.3999 55.4963 67.3999C55.6282 67.6876 54.8146 69.2641 54.3753 70.1154C53.9332 70.9719 53.5513 71.7117 53.4722 72.1109C53.3354 72.8006 53.5685 73.9606 53.7557 74.8927Z" fill="white"/>
<path d="M59.9477 75.802C59.9021 75.802 59.833 75.802 59.833 75.5457C59.833 75.3178 60.102 74.7542 60.4136 74.1008C61.0936 72.6759 62.0243 70.7239 61.3425 69.8374C60.8473 69.194 60.1728 68.5006 59.6938 68.0319C59.5653 67.9062 59.5671 67.7452 59.6113 67.6368C59.6559 67.5273 59.767 67.4103 59.9452 67.4103C60.4553 67.4358 60.9813 67.4493 61.4879 67.4493C63.0855 67.4493 65.9188 67.3173 66.9404 66.4322C67.073 66.3175 67.1493 66.3003 67.1831 66.3003C67.1997 66.3003 67.2384 66.3003 67.2805 66.3732C67.6932 67.0894 66.7708 71.205 66.3377 71.9531C65.9261 72.6634 66.336 74.0041 66.6071 74.891C66.672 75.103 66.7297 75.2926 66.7566 75.4145C66.6634 75.3689 66.5118 75.2771 66.3736 75.1935C65.7375 74.8074 64.6728 74.1612 63.567 74.1612C63.1087 74.1612 62.6853 74.2748 62.3085 74.4993C61.9783 74.6958 61.6855 74.8744 61.4271 75.0322C60.667 75.4953 60.1649 75.802 59.9477 75.802Z" fill="white"/>
<path d="M59.9469 76.0771C59.7691 76.0771 59.557 75.9849 59.557 75.5456C59.557 75.269 59.7767 74.7955 60.1645 73.9825C60.7768 72.6985 61.7024 70.758 61.1232 70.0051C60.638 69.3738 59.9728 68.6903 59.5004 68.2283C59.3115 68.0435 59.2562 67.7769 59.3557 67.5324C59.4545 67.291 59.6855 67.1349 59.9445 67.1349L59.9794 67.1359C60.4632 67.1608 60.9843 67.1739 61.4865 67.1739C64.1402 67.1739 66.0621 66.8279 66.7597 66.2242C66.9141 66.0898 67.0529 66.0249 67.1828 66.0249C67.2625 66.0249 67.4128 66.0522 67.5185 66.2352C68.0254 67.1141 67.0156 71.3306 66.5757 72.0907C66.2241 72.6975 66.6285 74.0198 66.8702 74.81C66.9663 75.1243 67.0356 75.3512 67.0457 75.4824C67.0515 75.5677 67.0184 75.6216 66.9901 75.6523L66.939 75.7069L66.8336 75.7176C66.7138 75.7176 66.5712 75.634 66.2317 75.4279C65.6201 75.0566 64.5967 74.4356 63.5676 74.4353C63.1594 74.4353 62.7833 74.5361 62.4497 74.7347C62.1195 74.9312 61.8267 75.1098 61.5684 75.2672C60.6846 75.8063 60.2415 76.0771 59.9469 76.0771ZM59.9559 67.6857C59.9356 67.686 59.8865 67.6892 59.8654 67.7403C59.8509 67.7762 59.8578 67.8076 59.8854 67.8353C60.5917 68.5263 61.1553 69.1434 61.5601 69.6694C62.3447 70.6899 61.4112 72.6467 60.6611 74.2191C60.4536 74.6546 60.1828 75.2227 60.1206 75.4651C60.3841 75.3453 60.8393 75.068 61.2827 74.7969C61.5431 74.638 61.8367 74.4591 62.1675 74.2623C62.5872 74.0123 63.0582 73.8855 63.5673 73.8855C64.6285 73.8855 65.6287 74.426 66.2997 74.8266C66.0179 73.8976 65.6518 72.588 66.0994 71.8148C66.6357 70.8885 67.2305 67.4108 67.1041 66.6538C66.0031 67.5842 63.1152 67.7241 61.4869 67.7241C60.9747 67.7241 60.4456 67.7109 59.9559 67.6857Z" fill="white"/>
<path d="M66.4263 72.0042C66.9049 71.1777 68.0191 66.1978 67.183 66.1978C67.0997 66.1978 66.9972 66.2471 66.8729 66.3545C65.968 67.1378 63.5219 67.3464 61.487 67.3464C60.9393 67.3464 60.421 67.3312 59.971 67.3081C59.962 67.3077 59.9533 67.3074 59.9447 67.3074C59.5337 67.3074 59.3213 67.8112 59.6215 68.1044C60.1454 68.617 60.7857 69.2818 61.2605 69.8993C62.2172 71.1429 59.7299 74.7777 59.7299 75.5451C59.7299 75.7913 59.7938 75.9039 59.9471 75.9039C60.2714 75.9039 60.996 75.3987 62.3605 74.5867C62.7504 74.3547 63.1596 74.2631 63.5668 74.2631C65.0895 74.2631 66.5727 75.5454 66.8328 75.5454C66.8614 75.5454 66.8753 75.5299 66.8725 75.4957C66.8414 75.0654 65.9003 72.9131 66.4263 72.0042ZM66.5092 74.9203C66.5399 75.0208 66.57 75.1193 66.5955 75.207C66.5406 75.1745 66.4829 75.1393 66.4273 75.1054C65.7819 74.7138 64.702 74.0583 63.5671 74.0583C63.0902 74.0583 62.6488 74.1768 62.2562 74.4106C61.9253 74.6075 61.6324 74.7864 61.3734 74.9442C60.6976 75.3565 60.1609 75.6839 59.9516 75.6978C59.9451 75.6777 59.9354 75.6332 59.9354 75.5451C59.9354 75.3407 60.2255 74.7325 60.5059 74.1443C61.2356 72.6148 62.1439 70.7108 61.4232 69.7742C61.0229 69.2538 60.4652 68.6429 59.7651 67.958C59.6494 67.8448 59.6905 67.7125 59.7061 67.6748C59.7216 67.6368 59.7848 67.5125 59.9599 67.5125H59.9606C60.451 67.5377 60.979 67.5512 61.487 67.5512C63.0992 67.5512 65.9601 67.4158 67.0072 66.5093C67.1087 66.4215 67.1626 66.4057 67.1781 66.4029C67.5912 66.7462 66.7914 70.964 66.2488 71.9009C65.8154 72.6507 66.2329 74.0165 66.5092 74.9203Z" fill="white"/>
<path d="M44.212 75.9089C43.1418 75.9089 41.8318 75.5227 41.492 74.8769C41.3362 74.5813 41.5576 74.2899 41.9624 73.8001C42.5277 73.1157 43.302 72.1787 43.0185 70.6018C42.5916 68.2258 42.4897 66.3312 42.7708 65.9951C42.7971 65.9634 42.8157 65.9634 42.824 65.9634C42.8382 65.9634 42.8548 65.9682 42.8738 65.9772C42.9656 66.0252 45.2077 67.1828 46.6806 67.1828C46.9918 67.1828 47.0933 67.2433 47.1233 67.294C47.2066 67.4336 47.0063 67.8072 46.7524 68.28C46.3995 68.9372 45.9167 69.8376 45.6476 71.0283C45.3627 72.2906 45.4207 73.3778 45.4632 74.1717C45.5171 75.1767 45.5219 75.6661 45.0519 75.8056C44.8254 75.8733 44.5349 75.9089 44.212 75.9089Z" fill="white"/>
<path d="M44.2118 76.1838C43.0756 76.1838 41.651 75.7707 41.2483 75.0047C40.9997 74.533 41.3474 74.112 41.7498 73.625C42.3103 72.9464 43.0082 72.102 42.7475 70.6509C42.6228 69.9557 42.0267 66.4562 42.5593 65.819C42.6494 65.7109 42.7527 65.6885 42.8235 65.6885C42.8794 65.6885 42.9361 65.7023 42.9927 65.7296C43.02 65.7437 45.2748 66.9079 46.6804 66.9079C46.9284 66.9079 47.2295 66.9359 47.3593 67.1528C47.523 67.4263 47.3241 67.7965 46.9946 68.4105C46.6493 69.0536 46.1765 69.935 45.9158 71.0895C45.6391 72.3144 45.6937 73.3367 45.7379 74.1579C45.7908 75.1477 45.8291 75.8629 45.1301 76.0705C44.8787 76.1444 44.5613 76.1838 44.2118 76.1838ZM42.933 66.3153C42.8566 66.7373 42.8404 68.0579 43.289 70.5531C43.595 72.2557 42.7737 73.2496 42.1745 73.9752C41.8527 74.3648 41.6627 74.611 41.7353 74.7485C42.0229 75.2955 43.2448 75.6336 44.2118 75.6336C44.5088 75.6336 44.772 75.6018 44.9729 75.5421C45.2206 75.4685 45.2413 75.1874 45.1878 74.1866C45.1446 73.3764 45.0852 72.2668 45.3784 70.9679C45.6554 69.7408 46.1489 68.8219 46.5087 68.1508C46.6037 67.9737 46.783 67.6397 46.8468 67.4667C46.8082 67.4619 46.7539 67.4584 46.68 67.4584C45.3725 67.4584 43.5332 66.6102 42.933 66.3153Z" fill="white"/>
<path d="M46.6794 67.0808C45.2144 67.0808 42.9167 65.8851 42.9167 65.8851C42.8832 65.8689 42.8518 65.8613 42.8228 65.8613C42.3221 65.8617 42.4781 68.1793 42.9167 70.6203C43.3809 73.2032 40.922 74.0162 41.4003 74.9248C41.7681 75.6238 43.1264 76.0116 44.2111 76.0116C44.5368 76.0116 44.8376 75.9767 45.08 75.9049C46.1289 75.5934 45.1312 73.7771 45.7466 71.0516C46.3617 68.3257 48.1447 67.0808 46.6794 67.0808ZM45.3601 74.1778C45.4123 75.1537 45.4188 75.5903 45.022 75.708C44.8055 75.7723 44.5251 75.8065 44.2115 75.8065C43.1716 75.8065 41.9038 75.4411 41.582 74.8291C41.4566 74.5912 41.6638 74.3214 42.0406 73.8656C42.6187 73.1659 43.4103 72.2075 43.1188 70.5837C42.6277 67.8502 42.6588 66.3079 42.8366 66.0737C43.0511 66.1842 45.2261 67.2852 46.6797 67.2852C46.9892 67.2852 47.0347 67.3464 47.0347 67.3464C47.0883 67.4358 46.8417 67.8958 46.6614 68.2311C46.306 68.8935 45.8191 69.8008 45.547 71.0054C45.2586 72.2825 45.3173 73.3779 45.3601 74.1778Z" fill="white"/>
<path d="M35.733 74.67C35.4132 74.67 34.9894 74.6092 34.786 74.3205C34.469 73.8695 34.9017 73.2921 35.4031 72.6235C35.8998 71.9611 36.4627 71.2103 36.3283 70.4387C36.1439 69.3847 36.0065 67.3931 35.9409 66.2997C35.936 66.2247 35.9678 66.174 35.9954 66.145C36.0355 66.1021 36.0918 66.0776 36.1494 66.0776C36.193 66.0776 36.2334 66.0914 36.2707 66.1184C37.0677 66.6986 38.5693 67.6876 39.6731 67.793C39.8969 67.814 40.0364 67.8683 40.0668 67.9456C40.1376 68.1263 39.7598 68.5497 39.4262 68.9233C38.999 69.402 38.5573 69.8969 38.521 70.3379C38.4827 70.8034 38.5006 71.3967 38.5175 71.9711C38.5369 72.6224 38.5555 73.2382 38.4882 73.5645C38.4108 73.9389 36.8958 74.67 35.733 74.67Z" fill="white"/>
<path d="M35.7327 74.9449C35.1805 74.9449 34.7751 74.7836 34.5606 74.4783C34.1282 73.8643 34.6404 73.1812 35.1829 72.4584C35.6688 71.8105 36.1713 71.1405 36.057 70.4861C35.8705 69.4183 35.732 67.4148 35.6661 66.3163C35.6578 66.1812 35.7037 66.0534 35.7949 65.9564C35.8871 65.8587 36.0163 65.8027 36.1492 65.8027C36.2508 65.8027 36.3492 65.8352 36.4328 65.8963C37.2067 66.4596 38.6606 67.42 39.6984 67.5185C39.8258 67.5305 40.2137 67.5678 40.3225 67.8445C40.4551 68.1826 40.0914 68.5901 39.6311 69.106C39.2526 69.5301 38.8236 70.0108 38.795 70.36C38.758 70.8096 38.7756 71.3947 38.7926 71.9607C38.8126 72.6297 38.8312 73.2613 38.7577 73.6195C38.6403 74.1897 36.9159 74.9449 35.7327 74.9449ZM36.2235 66.4237C36.2922 67.5357 36.4255 69.3979 36.5989 70.3914C36.7539 71.28 36.153 72.0812 35.6229 72.7878C35.0596 73.539 34.8376 73.9158 35.0106 74.162C35.1532 74.3644 35.5241 74.3948 35.7327 74.3948C36.8372 74.3948 38.1298 73.7075 38.2206 73.501C38.2794 73.213 38.2607 72.5851 38.2424 71.9777C38.2251 71.3947 38.2072 70.7945 38.2466 70.3151C38.2901 69.7826 38.7629 69.2531 39.2198 68.7406C39.3344 68.6122 39.6421 68.2679 39.7592 68.0821C39.7298 68.0762 39.6929 68.071 39.647 68.0665C38.5308 67.9605 37.0668 67.0273 36.2235 66.4237Z" fill="white"/>
<path d="M38.6241 70.3464C38.7053 69.3549 41.2163 67.8367 39.6836 67.691C38.6027 67.5881 37.1149 66.6058 36.3323 66.0357C36.2754 65.9942 36.2122 65.9756 36.1507 65.9756C35.9832 65.9756 35.8278 66.1144 35.8395 66.3064C35.9031 67.3615 36.0426 69.3918 36.2284 70.4569C36.4867 71.9374 33.995 73.3727 34.7033 74.3794C34.9019 74.6616 35.2838 74.7728 35.7342 74.7728C36.8908 74.7728 38.4963 74.0393 38.5899 73.5855C38.7198 72.9545 38.5429 71.3379 38.6241 70.3464ZM38.42 70.3294C38.3813 70.8001 38.3993 71.3962 38.4165 71.9726C38.4359 72.6185 38.4542 73.2287 38.3893 73.5436C38.3281 73.8406 36.8739 74.5676 35.7342 74.5676C35.4386 74.5676 35.049 74.5144 34.8708 74.2613C34.6149 73.8976 34.9326 73.4231 35.4862 72.6848C35.9953 72.0058 36.5723 71.2363 36.4301 70.4213C36.2474 69.3742 36.1096 67.3857 36.0436 66.2937C36.0419 66.2629 36.0509 66.2363 36.0709 66.2153C36.0916 66.1935 36.1213 66.1804 36.1503 66.1804C36.1717 66.1804 36.1921 66.1873 36.2114 66.2014C37.0168 66.7878 38.5364 67.7876 39.6639 67.8951C39.9271 67.9199 39.972 67.9824 39.972 67.9831C40.0197 68.105 39.5842 68.593 39.3504 68.8555C38.9121 69.3462 38.4587 69.8542 38.42 70.3294Z" fill="white"/>
<path d="M30.6201 69.2871C30.4008 69.2871 30.128 69.1759 29.8096 68.9569C28.462 68.0303 28.3342 66.813 29.4073 65.1266C30.0538 64.1109 30.2399 63.1819 30.2817 62.5814C30.2893 62.4753 30.3774 62.4121 30.4585 62.4121C30.4854 62.4121 30.5117 62.4183 30.5369 62.4311C31.3443 62.8321 32.7631 63.2786 33.508 63.2786C33.5985 63.2786 33.6789 63.272 33.7483 63.2593C33.6841 63.4247 33.402 63.826 33.1495 64.1852C32.5465 65.0437 31.7204 66.2193 31.6106 67.0675C31.4542 68.2818 31.2718 69.2871 30.6201 69.2871Z" fill="white"/>
<path d="M30.6213 69.5623C30.3419 69.5623 30.0256 69.4387 29.6547 69.1834C28.1783 68.1684 28.0218 66.7929 29.1763 64.9784C29.8246 63.96 29.9758 63.0268 30.0083 62.5616C30.0249 62.3237 30.2231 62.1372 30.4597 62.1372C30.5284 62.1372 30.5954 62.1531 30.6593 62.1842C31.4388 62.571 32.8223 63.0033 33.5088 63.0033C33.5931 63.0033 33.6642 62.9968 33.7202 62.984C33.7488 62.9774 33.7771 62.9743 33.8041 62.9743C33.897 62.9743 33.9726 63.0175 34.012 63.0931C34.1104 63.2831 33.9495 63.5266 33.3758 64.343C32.7891 65.178 31.9858 66.3215 31.885 67.1027C31.7434 68.1985 31.5676 69.5623 30.6213 69.5623ZM30.5453 62.7398C30.4828 63.3712 30.2701 64.2846 29.6405 65.2741C28.6376 66.8499 28.735 67.8835 29.9662 68.73C30.3046 68.9631 30.5091 69.0118 30.621 69.0118C31.0475 69.0118 31.2095 68.0338 31.3386 67.0319C31.4567 66.1171 32.3049 64.9097 32.9238 64.0283C33.0322 63.8747 33.1562 63.6982 33.2619 63.541C32.4904 63.4685 31.3089 63.0966 30.5453 62.7398Z" fill="white"/>
<path d="M33.8042 63.1472C33.7911 63.1472 33.7759 63.1492 33.7583 63.153C33.6878 63.1689 33.6039 63.1762 33.5089 63.1762C32.7671 63.1762 31.3612 62.7255 30.5835 62.3397C30.5427 62.3197 30.5006 62.3101 30.4595 62.3101C30.3189 62.3101 30.1915 62.4192 30.1804 62.5742C30.1435 63.1033 29.9767 64.0427 29.3219 65.0715C28.3176 66.6498 28.2219 67.989 29.7522 69.0413C30.1055 69.2841 30.3901 69.3894 30.6211 69.3894C31.3905 69.3894 31.5663 68.2207 31.7134 67.08C31.8996 65.6378 34.2722 63.1472 33.8042 63.1472ZM33.0669 64.1262C32.4577 64.9934 31.6233 66.1807 31.5104 67.0545C31.3601 68.2201 31.1892 69.185 30.6214 69.185C30.4232 69.185 30.1701 69.08 29.8689 68.8728C28.559 67.9721 28.444 66.8338 29.4952 65.1817C30.1535 64.147 30.3427 63.2003 30.3852 62.5884C30.3883 62.5424 30.4256 62.5148 30.4598 62.5148C30.4709 62.5148 30.4816 62.5176 30.4926 62.5231C31.3101 62.9289 32.7499 63.381 33.5089 63.381C33.53 63.381 33.5507 63.3806 33.5707 63.3799C33.4564 63.5716 33.253 63.861 33.0669 64.1262Z" fill="white"/>
<path d="M43.97 18.7718C41.9618 18.7718 39.8444 18.0361 39.1492 17.0968C38.6029 16.3581 37.9919 5.51329 37.5917 -10.5394C39.3274 -10.9207 41.1291 -11.2398 42.9488 -11.4881C43.4727 -11.5596 43.9976 -11.6232 44.5233 -11.6826C45.3207 -2.20883 46.412 7.37787 47.1417 12.6922C47.1473 12.7336 47.1773 12.7671 47.2181 12.7774C47.2264 12.7795 47.2346 12.7806 47.2429 12.7806C47.2754 12.7806 47.3058 12.7653 47.3258 12.7387C47.6863 12.2459 48.0103 11.8916 48.0797 11.8163C49.5513 11.1353 50.2537 3.09409 50.1677 -12.0863C50.7707 -12.1035 51.3896 -12.1132 52.0095 -12.1143H52.1362C54.3613 -12.1143 56.5768 -12.0058 58.7225 -11.792C60.0621 -0.202985 61.267 6.40603 62.3034 7.8541C64.5959 11.0452 65.3087 14.0649 64.2595 16.1395C63.5302 17.5813 62.0244 18.3877 60.0196 18.4109C59.3406 18.4195 58.7408 18.4243 58.1951 18.4243C54.9025 18.4243 53.6219 18.2475 48.8574 17.5889L48.738 17.5723C48.2714 17.5078 47.8552 17.4079 47.5006 17.2764C47.4888 17.2719 47.4771 17.2702 47.465 17.2702C47.428 17.2702 47.3928 17.2902 47.3745 17.3244C46.7045 18.5839 44.9539 18.7718 43.97 18.7718Z" fill="white"/>
<path d="M43.9696 19.0469C41.884 19.0469 39.6692 18.2626 38.9274 17.2607C38.0433 16.0651 37.4693 -4.37916 37.3142 -10.6169L37.3108 -10.7592L37.4496 -10.7899C39.2144 -11.1805 41.052 -11.5072 42.911 -11.7611C43.4719 -11.8378 44.0341 -11.9051 44.5967 -11.9683L44.7732 -11.988L44.788 -11.8112C45.5654 -2.54913 46.6264 6.83619 47.3575 12.2413C47.6562 11.8621 47.8817 11.6242 47.8938 11.6117L47.919 11.5851L47.9529 11.5713C48.7271 11.2516 50.0088 7.74031 49.8917 -12.1848L49.8906 -12.3534L50.0592 -12.3585C50.7036 -12.3779 51.3594 -12.3882 52.0083 -12.3893L52.1382 -12.3896C54.3972 -12.3896 56.6492 -12.2781 58.8322 -12.0577L58.9707 -12.0439L58.9869 -11.9061C60.3241 -0.314705 61.5152 6.27949 62.5275 7.69371C64.8814 10.9704 65.6021 14.0938 64.5053 16.2636C63.7275 17.8015 62.1358 18.6618 60.0229 18.6863C59.3433 18.6946 58.7431 18.6994 58.1967 18.6994C54.8834 18.6994 53.5987 18.5219 48.8173 17.8612L48.7009 17.845C48.2727 17.7853 47.8841 17.6972 47.5433 17.5829C46.9582 18.5285 45.6977 19.0469 43.9696 19.0469ZM37.872 -10.3189C38.389 10.2887 39.0566 16.5099 39.3694 16.9336C40.0077 17.7953 42.0712 18.4964 43.9692 18.4964C44.8913 18.4964 46.5286 18.3275 47.1313 17.1947C47.1969 17.0714 47.3247 16.9948 47.4645 16.9948C47.5098 16.9948 47.5543 17.0027 47.5965 17.0183C47.9321 17.1429 48.3289 17.2379 48.7758 17.2997L48.895 17.3163C53.645 17.9728 54.9214 18.1489 58.1964 18.1489C58.7082 18.1489 59.2863 18.1444 60.0164 18.1355C61.9138 18.1137 63.3335 17.3608 64.0139 16.015C65.015 14.0351 64.3102 11.1189 62.0802 8.01419C61.0224 6.53608 59.8092 -0.041856 58.4748 -11.5401C56.4057 -11.7386 54.2749 -11.8395 52.1382 -11.8395H52.0094C51.4869 -11.8385 50.9619 -11.8319 50.4442 -11.8184C50.5582 10.6503 48.9098 11.7502 48.2416 12.0465C48.1328 12.1667 47.8517 12.4851 47.5478 12.901C47.4759 12.998 47.3623 13.0557 47.2428 13.0557C47.2131 13.0557 47.1827 13.0519 47.152 13.0446C47.0004 13.0059 46.8899 12.8823 46.8688 12.7293C46.1484 7.48475 45.0688 -1.9838 44.2724 -11.3771C43.8038 -11.3228 43.3797 -11.269 42.9853 -11.2158C41.2513 -10.9789 39.5318 -10.6777 37.872 -10.3189Z" fill="white"/>
<path d="M62.3861 7.79435C61.262 6.22403 60.0245 -1.39722 58.8141 -11.8859C56.61 -12.1084 54.3818 -12.2168 52.1374 -12.2168C52.0942 -12.2168 52.051 -12.2168 52.0082 -12.2168C51.3603 -12.2158 50.7138 -12.2057 50.0638 -12.1861C50.1429 1.29722 49.6152 11.0714 48.0183 11.7307C48.0183 11.7307 47.6567 12.1109 47.242 12.6777C46.5689 7.77812 45.4461 -1.89974 44.6152 -11.7965C44.054 -11.7337 43.4932 -11.6663 42.9337 -11.59C41.0881 -11.3382 39.2754 -11.0174 37.4861 -10.6216C37.8594 4.41159 38.451 16.3266 39.0654 17.1575C39.7889 18.1346 41.9736 18.8736 43.9684 18.8736C45.4848 18.8736 46.8918 18.4464 47.464 17.372C47.8077 17.4998 48.2221 17.6041 48.7232 17.6735C53.5689 18.3432 54.8674 18.5265 58.1955 18.5265C58.7409 18.5265 59.3407 18.5217 60.0197 18.5131C64.8384 18.4578 66.7548 13.876 62.3861 7.79435ZM60.0173 18.3083C59.2869 18.3173 58.7081 18.3218 58.1955 18.3218C54.9092 18.3218 53.63 18.1449 48.8703 17.487L48.7512 17.4704C48.2922 17.4069 47.8833 17.3092 47.5352 17.1797C47.5117 17.171 47.4875 17.1669 47.4637 17.1669C47.3898 17.1669 47.3193 17.2069 47.2827 17.2757C46.6376 18.4879 44.9291 18.6689 43.968 18.6689C42.0219 18.6689 39.8963 17.936 39.2298 17.0357C38.8243 16.4873 38.1796 8.95544 37.6947 -10.4576C39.4011 -10.8302 41.1717 -11.1428 42.9606 -11.3869C43.4051 -11.4477 43.8869 -11.5074 44.428 -11.5689C45.2251 -2.1242 46.3112 7.41272 47.0382 12.7056C47.0496 12.7885 47.1101 12.8558 47.1909 12.8762C47.2074 12.8804 47.2243 12.8825 47.2409 12.8825C47.3052 12.8825 47.3673 12.852 47.4064 12.7985C47.7417 12.3399 48.0449 12.0025 48.1371 11.9023C48.7443 11.6395 50.3909 10.4359 50.2686 -11.9872C50.8426 -12.0027 51.4266 -12.0113 52.0075 -12.012H52.1363C54.3272 -12.012 56.5106 -11.9067 58.6283 -11.6984C59.9658 -0.143596 61.1735 6.45436 62.2186 7.91382C64.4876 11.0724 65.1972 14.0539 64.166 16.0932C63.456 17.4991 61.9824 18.2858 60.0173 18.3083Z" fill="white"/>
<path d="M61.8356 87.891C61.7527 87.891 61.6605 87.8868 61.5541 87.8817L61.4923 87.8789C60.4998 87.834 58.8186 85.0494 58.9118 82.3891C58.9992 79.9002 60.1209 77.6257 60.2836 77.3093C60.5875 77.2192 62.5252 76.6646 64.0524 76.6646C64.4644 76.6646 64.8149 76.705 65.095 76.7847C65.8313 76.9944 66.4236 77.769 66.7199 78.9097C67.1875 80.7101 66.8525 83.3334 65.0508 85.1354C64.5362 85.65 64.1229 86.0706 63.7855 86.4146C62.5 87.7228 62.335 87.891 61.8356 87.891Z" fill="white"/>
<path d="M61.8369 88.1659C61.7457 88.1659 61.6442 88.1611 61.5264 88.1556L61.4812 88.1532C60.2531 88.0979 58.5446 85.0467 58.6382 82.3788C58.7342 79.6436 60.0076 77.2421 60.0618 77.1412L60.0953 77.0784L60.1633 77.058C60.252 77.0307 62.3587 76.3887 64.054 76.3887C64.493 76.3887 64.867 76.4326 65.1716 76.5189C66.0043 76.7562 66.666 77.6019 66.9875 78.8397C67.4748 80.716 67.1253 83.4501 65.2465 85.3289C64.733 85.8424 64.32 86.2627 63.9833 86.6063C62.6557 87.9584 62.4516 88.1659 61.8369 88.1659ZM60.4765 77.5397C60.2109 78.0813 59.2664 80.1548 59.188 82.3982C59.0944 85.0688 60.8071 87.5719 61.506 87.604L61.5675 87.6065C61.6822 87.612 61.763 87.6154 61.8369 87.6154C62.1995 87.6154 62.2976 87.537 63.5902 86.2205C63.928 85.8762 64.3421 85.4549 64.857 84.9396C66.5821 83.2149 66.9025 80.7029 66.4546 78.9778C66.1835 77.9338 65.6606 77.2307 65.021 77.0483C64.7658 76.9754 64.4401 76.9388 64.054 76.9388C62.692 76.9392 60.9642 77.4009 60.4765 77.5397Z" fill="white"/>
<path d="M65.1235 76.6845C64.8137 76.5965 64.4459 76.5605 64.0533 76.5605C62.3645 76.5605 60.2133 77.2222 60.2133 77.2222C60.2133 77.2222 58.9061 79.658 58.8101 82.3843C58.7144 85.1105 60.4364 87.9323 61.4887 87.9804C61.6233 87.9866 61.7363 87.9925 61.8365 87.9925C62.5192 87.9925 62.6214 87.7082 65.1238 85.2061C67.9934 82.3366 67.2668 77.2948 65.1235 76.6845ZM64.9788 85.0614C64.4639 85.5763 64.0505 85.9973 63.7127 86.3413C62.4128 87.6654 62.2798 87.7877 61.8361 87.7877C61.7542 87.7877 61.6638 87.7835 61.5595 87.7783L61.4976 87.7756C60.6643 87.7376 58.9192 85.1098 59.0146 82.3915C59.0981 80.0082 60.1404 77.8204 60.3552 77.3939C60.762 77.2755 62.5983 76.7657 64.0533 76.7657C64.4552 76.7657 64.7965 76.8047 65.0672 76.8817C65.7676 77.0814 66.334 77.8291 66.621 78.9338C67.0813 80.7062 66.7519 83.288 64.9788 85.0614Z" fill="white"/>
</g>
<mask id="mask1_399_534" style="mask-type:luminance" maskUnits="userSpaceOnUse" x="0" y="0" width="98" height="97">
<path d="M97.0053 48.6207C97.0053 69.6293 83.571 88.0255 63.5733 94.3976C63.4539 94.4353 63.3309 94.4729 63.208 94.5102C62.2279 94.8176 61.2101 95.0942 60.1823 95.3401C58.6421 95.7089 57.0407 96.0094 55.422 96.2246C54.9609 96.2895 54.4999 96.344 54.0492 96.3917C52.7617 96.5285 51.4573 96.6103 50.1733 96.6411C49.7157 96.6514 49.3334 96.658 48.9677 96.658C47.6391 96.658 46.3178 96.6034 45.0303 96.4974L45.0099 96.4939C44.286 96.4359 43.5553 96.361 42.8414 96.2719C42.8211 96.2684 42.8003 96.265 42.7938 96.265C42.0323 96.1659 41.2673 96.0498 40.5227 95.9131C38.5283 95.5646 36.5343 95.0763 34.5979 94.4719C14.46 88.1644 0.930054 69.7377 0.930054 48.6197C0.930054 40.9394 2.79115 33.2971 6.30858 26.525C8.78442 21.7439 12.0421 17.4277 15.9899 13.6917L16.0102 13.6713C16.0206 13.6613 16.0306 13.6544 16.0306 13.6509C18.3186 11.4962 20.8252 9.55986 23.4785 7.89663C23.6833 7.76678 23.8919 7.64036 24.1002 7.51431L24.2162 7.44251C30.4381 3.69301 37.2716 1.45267 44.5282 0.783375C45.9966 0.650069 47.4923 0.582031 48.9677 0.582031C52.7172 0.582031 56.4497 1.01926 60.0694 1.87643C62.8457 2.5288 65.5913 3.44399 68.2277 4.60161C70.7274 5.69431 73.1586 7.01943 75.457 8.53899C79.6333 11.3049 83.3386 14.6894 86.4668 18.5995C93.3615 27.1988 97.0053 37.5801 97.0053 48.6207Z" fill="white"/>
</mask>
<g mask="url(#mask1_399_534)">
<g opacity="0.33">
<path d="M62.637 73.9247C69.4704 73.9247 75.01 68.3851 75.01 61.5517C75.01 54.7183 69.4704 49.1787 62.637 49.1787C55.8036 49.1787 50.264 54.7183 50.264 61.5517C50.264 68.3851 55.8036 73.9247 62.637 73.9247Z" fill="#62A0F6"/>
</g>
<g opacity="0.2">
<path d="M62.6392 70.9384C67.8233 70.9384 72.0258 66.7359 72.0258 61.5518C72.0258 56.3676 67.8233 52.165 62.6392 52.165C57.455 52.165 53.2524 56.3676 53.2524 61.5518C53.2524 66.7359 57.455 70.9384 62.6392 70.9384Z" fill="#62A0F6"/>
</g>
<g opacity="0.39">
<path d="M62.6381 67.4606C65.9016 67.4606 68.5471 64.815 68.5471 61.5516C68.5471 58.2881 65.9016 55.6426 62.6381 55.6426C59.3747 55.6426 56.7291 58.2881 56.7291 61.5516C56.7291 64.815 59.3747 67.4606 62.6381 67.4606Z" fill="#62A0F6"/>
</g>
</g>
<path d="M48.967 97.0024C47.6401 97.0024 46.306 96.9481 45.0013 96.8407L44.9529 96.8335C44.2619 96.7796 43.5273 96.7043 42.7979 96.6135L42.7592 96.6077C41.9342 96.5006 41.164 96.3814 40.4595 96.2523C38.4769 95.9059 36.4686 95.4175 34.4942 94.8011C14.2113 88.4483 0.583984 69.8894 0.583984 48.6191C0.583984 40.8842 2.45719 33.1887 6.00121 26.3652C8.47877 21.581 11.7365 17.2541 15.6846 13.5039V13.5012L15.793 13.3989C18.0962 11.2298 20.62 9.27955 23.2944 7.6032C23.4999 7.47335 23.7102 7.34591 23.9205 7.21848L24.0345 7.14803C30.3037 3.37021 37.187 1.11333 44.496 0.438852C49.7457 -0.0373906 55.0566 0.333515 60.1485 1.53983C62.9538 2.19877 65.7187 3.12221 68.3662 4.28432C70.8803 5.38393 73.3303 6.71838 75.6472 8.25003C79.8578 11.0388 83.5883 14.4481 86.7358 18.3827C93.6795 27.0424 97.3499 37.4983 97.3499 48.6191C97.3499 69.7792 83.818 88.3078 63.6773 94.7255L63.3081 94.8391C62.3587 95.1368 61.333 95.4182 60.2621 95.6748C58.6824 96.053 57.0693 96.3524 55.4665 96.5655C55.0438 96.6249 54.5914 96.6802 54.0848 96.7337C52.8111 96.8691 51.4981 96.9534 50.1805 96.9851C49.7202 96.9958 49.3351 97.0024 48.967 97.0024ZM42.8376 95.9225C42.8556 95.9245 42.8763 95.9273 42.897 95.9304C43.6026 96.0178 44.3271 96.0921 45.0368 96.1487L45.0859 96.1559C46.3437 96.2582 47.6588 96.3117 48.967 96.3117C49.3303 96.3117 49.7098 96.3048 50.165 96.2944C51.4628 96.2633 52.7576 96.1801 54.0122 96.0471C54.5106 95.9943 54.9557 95.9401 55.3729 95.8814C56.955 95.6714 58.545 95.3758 60.1012 95.0031C61.1569 94.7503 62.167 94.4734 63.104 94.1795L63.4694 94.0669C83.3206 87.7414 96.6592 69.477 96.6592 48.6191C96.6592 37.6572 93.041 27.3509 86.1964 18.8148C83.0938 14.9357 79.4161 11.5751 75.266 8.82606C72.9822 7.31618 70.5674 6.00074 68.0888 4.91702C65.4794 3.77183 62.7548 2.86147 59.9899 2.21186C54.9695 1.0235 49.7333 0.65675 44.5589 1.12678C37.3551 1.79124 30.5707 4.01564 24.394 7.73786L24.2808 7.80763C24.0722 7.93403 23.8657 8.05941 23.6626 8.18822C21.0673 9.81518 18.6166 11.7025 16.3753 13.7999V13.8067L16.2492 13.9197C12.3046 17.654 9.07037 21.9409 6.61456 26.6836C3.12096 33.4094 1.27469 40.9947 1.27469 48.6194C1.27469 69.5862 14.7076 87.8802 34.7004 94.1422C36.6465 94.7496 38.625 95.2307 40.5814 95.5726C41.2773 95.7004 42.0354 95.8178 42.8376 95.9225Z" fill="white"/>
</svg>
