<svg width="97" height="96" viewBox="0 0 97 96" fill="none" xmlns="http://www.w3.org/2000/svg">
<mask id="mask0_399_808" style="mask-type:luminance" maskUnits="userSpaceOnUse" x="0" y="0" width="97" height="96">
<path d="M96.1333 48.0368C96.1333 68.8489 82.8247 87.0728 63.0139 93.3855C62.8954 93.4228 62.7735 93.4598 62.652 93.4971C61.6808 93.8017 60.6728 94.0756 59.6547 94.319C58.1289 94.6844 56.5423 94.9821 54.9389 95.1952C54.4823 95.2594 54.0254 95.3136 53.5789 95.361C52.3035 95.4963 51.0111 95.5775 49.7392 95.6079C49.2858 95.6179 48.9069 95.6248 48.545 95.6248C47.2288 95.6248 45.92 95.5706 44.6446 95.466L44.6242 95.4625C43.9069 95.4052 43.183 95.3306 42.4761 95.2425C42.4557 95.239 42.4357 95.2356 42.4288 95.2356C41.6745 95.1375 40.9165 95.0225 40.1791 94.8871C38.2034 94.5421 36.2276 94.0583 34.3099 93.4594C14.3605 87.211 0.957031 68.9566 0.957031 48.0362C0.957031 40.4277 2.80087 32.8568 6.28514 26.1483C8.73784 21.4122 11.9652 17.136 15.8759 13.4352L15.8963 13.4148C15.9063 13.4048 15.9167 13.3979 15.9167 13.3944C18.1832 11.2598 20.6663 9.34173 23.2948 7.69405C23.4979 7.56558 23.7041 7.44022 23.9106 7.3152L24.0256 7.24406C30.1895 3.52944 36.9587 1.3102 44.1476 0.647125C45.6022 0.5152 47.0841 0.44751 48.5453 0.44751C52.2599 0.44751 55.9573 0.880566 59.5435 1.72979C62.2938 2.37595 65.0138 3.2825 67.6254 4.42942C70.1019 5.51211 72.5105 6.82445 74.787 8.32985C78.9244 11.0702 82.5951 14.4226 85.6936 18.296C92.5237 26.8156 96.1333 37.0998 96.1333 48.0368Z" fill="white"/>
</mask>
<g mask="url(#mask0_399_808)">
<path d="M50.969 60.0634C52.1487 60.3812 53.2197 59.4066 52.9966 58.2538C52.8032 57.2554 52.3411 55.34 51.2387 51.9362C49.3686 46.1633 49.8933 38.9965 50.2396 38.196C50.586 37.3951 49.762 36.194 49.0074 35.8673C48.2528 35.5409 47.4768 35.522 46.3758 35.9965C45.2748 36.471 44.274 38.7838 45.5735 39.6631C46.8731 40.5424 48.6096 54.3903 48.0919 55.328C47.5742 56.2659 47.9192 58.3163 48.6911 58.8613C49.0982 59.1489 50.03 59.8106 50.969 60.0634Z" fill="white"/>
<path d="M51.4209 60.3992C51.2455 60.3992 51.0694 60.3757 50.8981 60.3294C49.9197 60.0659 48.9551 59.3852 48.5438 59.0941C47.6448 58.4593 47.2563 56.2729 47.851 55.195C48.0161 54.8956 47.8641 51.8285 47.2418 47.5126C46.5407 42.649 45.8055 40.1521 45.4194 39.891C44.8823 39.5277 44.6254 38.9196 44.6952 38.1778C44.7905 37.1679 45.4957 36.0763 46.2669 35.744C46.8757 35.4819 47.4117 35.3545 47.9063 35.3545C48.3152 35.3545 48.7113 35.4398 49.1167 35.6152C49.9584 35.9792 50.9281 37.2988 50.4926 38.3059C50.1894 39.0066 49.6196 46.0445 51.5007 51.852C52.6038 55.2579 53.0703 57.185 53.2675 58.2024C53.3884 58.8285 53.1829 59.4608 52.7174 59.8936C52.3672 60.2192 51.9069 60.3992 51.4209 60.3992ZM47.9063 35.906C47.4808 35.906 47.0291 36.0152 46.4855 36.2493C45.8998 36.5014 45.3196 37.4266 45.244 38.2292C45.2087 38.6056 45.264 39.1206 45.7281 39.4352C47.1396 40.3897 48.9513 54.3413 48.3331 55.461C47.8849 56.2739 48.1943 58.1737 48.8501 58.6368C49.2428 58.9138 50.159 59.5603 51.0414 59.7979C51.1664 59.8318 51.2942 59.8487 51.4209 59.8487C51.767 59.8487 52.0944 59.7212 52.3427 59.4898C52.6683 59.1866 52.812 58.7443 52.7271 58.3063C52.5323 57.3024 52.0712 55.3971 50.9775 52.0212C49.1368 46.3381 49.5847 39.019 49.9877 38.0866C50.2685 37.4373 49.5136 36.3861 48.8992 36.1198C48.5659 35.9758 48.2413 35.906 47.9063 35.906Z" fill="white"/>
<path d="M51.4216 60.227C51.2634 60.227 51.1028 60.206 50.9436 60.1632C49.9952 59.9079 49.0483 59.239 48.6439 58.9534C47.8119 58.3659 47.4528 56.2755 48.0029 55.2788C48.2322 54.8633 47.9625 51.2958 47.4134 47.4887C46.7869 43.142 46.0423 40.104 45.5167 39.7486C45.0346 39.4222 44.8042 38.8704 44.8678 38.1945C44.9576 37.241 45.6162 36.2129 46.3359 35.9031C47.3933 35.4476 48.2046 35.4089 49.0487 35.7739C49.8309 36.1124 50.7181 37.3508 50.3344 38.2377C50.0274 38.9477 49.4434 46.0592 51.337 51.9054C52.4373 55.3016 52.9021 57.2221 53.0983 58.235C53.2081 58.8021 53.0219 59.375 52.6002 59.767C52.278 60.0671 51.8584 60.227 51.4216 60.227ZM47.9069 35.7339C47.4538 35.7339 46.9724 35.8523 46.4177 36.0913C45.7705 36.37 45.1548 37.3418 45.0726 38.2135C45.0329 38.6366 45.0974 39.2168 45.6321 39.5784C46.9275 40.4545 48.753 54.345 48.1825 55.3779C47.6931 56.2651 48.0278 58.2671 48.7509 58.7779C49.1578 59.0649 50.084 59.719 50.9968 59.9649C51.5255 60.1079 52.0732 59.9773 52.4604 59.6168C52.8299 59.2732 52.9929 58.771 52.8966 58.274C52.7014 57.2666 52.2387 55.3551 51.1418 51.9686C49.3132 46.3231 49.748 39.0762 50.1462 38.1558C50.4729 37.4005 49.6426 36.2543 48.9675 35.9622C48.6169 35.8102 48.2709 35.7339 47.9069 35.7339Z" fill="white"/>
<path d="M49.6142 35.4332C49.6142 35.4332 47.2676 34.2662 45.9729 35.1382C44.6781 36.0102 44.5276 34.5819 45.2784 33.7644C46.0292 32.9469 45.5318 23.4435 44.2565 22.4303C42.9811 21.4173 44.9254 21.0848 45.643 21.6042C46.3607 22.1232 46.9388 21.6529 47.6751 22.0189C48.4114 22.385 48.3064 22.7117 47.902 23.7557C47.4976 24.7997 48.907 32.6997 49.885 33.619C50.8627 34.5383 51.0609 35.1783 49.6142 35.4332Z" fill="white"/>
<path d="M49.5218 35.6945L49.4914 35.6793C49.4786 35.6731 48.294 35.0901 47.191 35.0901C46.7562 35.0901 46.398 35.1827 46.1263 35.3657C45.8103 35.5785 45.5257 35.6866 45.2805 35.6866C45.0084 35.6866 44.8408 35.5584 44.7483 35.451C44.3829 35.0266 44.5331 34.1687 45.0754 33.5778C45.3016 33.3312 45.4887 31.1911 45.2356 27.9662C44.9821 24.7368 44.4617 22.9441 44.0852 22.6453C43.3548 22.0651 43.5575 21.6314 43.6784 21.4722C43.8607 21.2318 44.2593 21.0881 44.7438 21.0881C45.1607 21.0881 45.5471 21.1948 45.804 21.3806C46.0503 21.5588 46.271 21.5948 46.5469 21.5948C46.606 21.5948 46.665 21.5934 46.7248 21.5917C46.7921 21.5899 46.8591 21.5882 46.9264 21.5882C47.1737 21.5882 47.4707 21.6103 47.7971 21.7723C48.7765 22.2592 48.5437 22.8598 48.158 23.8551C47.804 24.7696 49.2016 32.5995 50.0729 33.4183C50.7806 34.0834 51.0292 34.5455 50.9049 34.9634C50.7937 35.334 50.3872 35.576 49.6617 35.7042L49.606 35.7142L49.5218 35.6945ZM47.1996 34.5372C48.2567 34.5372 49.3391 35.0007 49.652 35.1457C50.2663 35.0242 50.3624 34.8556 50.3772 34.8056C50.4018 34.7244 50.3841 34.4654 49.6958 33.8192C48.6456 32.8315 47.2031 24.7976 47.6451 23.6558C48.0571 22.5915 48.052 22.5134 47.5522 22.2651C47.3409 22.1598 47.1489 22.1383 46.9254 22.1383C46.8646 22.1383 46.8038 22.1397 46.7417 22.1415C46.6754 22.1432 46.6091 22.1453 46.5428 22.1453C46.2202 22.1453 45.8686 22.1066 45.4815 21.8268C45.315 21.7063 45.0401 21.6345 44.7452 21.6345C44.4212 21.6345 44.1798 21.7222 44.1173 21.8047C44.0852 21.8469 44.1605 22.0019 44.4275 22.214C45.3029 22.9095 45.6683 26.4383 45.7844 27.923C45.9377 29.8718 46.0462 33.3344 45.4812 33.9501C45.0989 34.3659 45.0263 34.9292 45.1658 35.0919C45.1814 35.1098 45.2104 35.134 45.2822 35.134C45.3582 35.134 45.5288 35.105 45.8189 34.9092C46.1853 34.6626 46.6502 34.5372 47.1996 34.5372Z" fill="white"/>
<path d="M49.5973 35.5399L49.5669 35.525C49.5441 35.5136 47.2589 34.395 46.0288 35.2232C45.3398 35.6873 45.012 35.4946 44.878 35.3389C44.5724 34.9835 44.7237 34.2154 45.2016 33.695C45.5349 33.3324 45.6268 30.7564 45.4068 27.9531C45.1792 25.0525 44.7019 22.9161 44.1915 22.5107C43.6026 22.0427 43.7028 21.725 43.815 21.5769C44.1144 21.1825 45.1902 21.1507 45.702 21.5209C46.0626 21.7817 46.3869 21.773 46.7298 21.7644C47.0406 21.7565 47.3594 21.7482 47.7196 21.9271C48.5578 22.3439 48.382 22.7977 47.9966 23.793C47.6184 24.77 49.0198 32.6662 49.9544 33.5444C50.5988 34.1505 50.8405 34.5729 50.739 34.9141C50.6489 35.2159 50.2866 35.4186 49.6311 35.534L49.5973 35.5399ZM47.1985 34.71C48.2894 34.71 49.4194 35.2263 49.6276 35.3261C50.1705 35.2263 50.4783 35.0681 50.5418 34.8554C50.6164 34.605 50.3785 34.2247 49.8135 33.6939C48.8102 32.7504 47.4008 24.7631 47.8052 23.7188C48.2124 22.6672 48.276 22.433 47.6284 22.1111C47.3138 21.9547 47.033 21.9619 46.7353 21.9699C46.3737 21.9796 45.9987 21.9889 45.5822 21.6877C45.1284 21.3593 44.1973 21.4135 43.9791 21.7016C43.8233 21.907 44.1255 22.1964 44.3192 22.3505C45.164 23.0215 45.5221 26.7966 45.6116 27.9376C45.8136 30.5081 45.7894 33.3589 45.3529 33.8345C44.9171 34.309 44.8238 34.961 45.0341 35.2056C45.1868 35.3831 45.5076 35.3278 45.9144 35.0536C46.2877 34.8011 46.7398 34.71 47.1985 34.71Z" fill="white"/>
<path d="M48.1457 20.9142C48.1457 20.9142 46.1023 20.0604 44.4829 20.6627C42.8635 21.265 44.6766 15.8872 44.1558 15.0873C43.6354 14.2872 43.3792 14.2958 43.3705 13.7304C43.3577 12.9123 44.0944 13.5954 44.7575 13.7626C45.4205 13.9297 46.2718 13.487 46.0919 14.426C45.912 15.365 46.1309 17.3487 46.7256 18.1144C47.3207 18.88 48.5267 20.7249 48.1457 20.9142Z" fill="white"/>
<path d="M48.0395 21.168C48.0298 21.1638 46.9533 20.7238 45.7874 20.7238C45.3364 20.7238 44.9299 20.7901 44.579 20.9207C44.4644 20.9635 44.3553 20.9849 44.2537 20.9849C44.1032 20.9849 43.9702 20.939 43.858 20.8475C43.3168 20.4071 43.5247 19.0471 43.7657 17.4727C43.8952 16.6241 44.0727 15.4637 43.9253 15.2369C43.7457 14.9613 43.6003 14.7872 43.4829 14.6473C43.2619 14.3831 43.1023 14.1929 43.095 13.7346C43.0905 13.4403 43.1697 13.2449 43.3365 13.1371C43.4142 13.0867 43.5057 13.0608 43.6075 13.0608C43.8141 13.0608 44.0437 13.1679 44.2869 13.2811C44.4692 13.3664 44.6547 13.4528 44.8246 13.4956C44.9199 13.5198 45.0297 13.5305 45.1796 13.5305C45.2473 13.5305 45.315 13.5284 45.3816 13.5263C45.4466 13.5246 45.5105 13.5225 45.5726 13.5225C45.8095 13.5225 46.0751 13.5495 46.2457 13.7498C46.388 13.9173 46.4253 14.1486 46.3624 14.4778C46.2008 15.3194 46.4011 17.2478 46.9433 17.9455C46.9606 17.9676 48.6456 20.1633 48.4808 20.883C48.4522 21.0087 48.3765 21.1072 48.2677 21.1611L48.1548 21.2166L48.0395 21.168ZM45.8002 20.1706C46.6536 20.1706 47.4465 20.383 47.8889 20.528C47.71 20.0649 47.1315 19.0848 46.5089 18.2832C45.8402 17.4223 45.6344 15.3505 45.8219 14.3742C45.862 14.1635 45.8275 14.1072 45.8268 14.1069C45.8216 14.102 45.7795 14.0734 45.5736 14.0734C45.5177 14.0734 45.4586 14.0751 45.3986 14.0768C45.3257 14.0789 45.2556 14.081 45.1841 14.081C45.0598 14.081 44.8729 14.0754 44.6906 14.0295C44.4695 13.9736 44.251 13.8713 44.0576 13.7812C43.9308 13.7221 43.7522 13.6389 43.6521 13.6165C43.6486 13.6403 43.6455 13.6759 43.6462 13.7263C43.6504 13.9898 43.7046 14.054 43.9056 14.294C44.0354 14.4491 44.1919 14.6366 44.3874 14.9371C44.6371 15.3208 44.521 16.1824 44.3103 17.5562C44.1601 18.5388 43.9097 20.1796 44.2057 20.4206C44.2109 20.4244 44.2226 20.4341 44.2558 20.4341C44.2793 20.4341 44.3214 20.4289 44.3874 20.4044C44.8052 20.2493 45.2804 20.1706 45.8002 20.1706Z" fill="white"/>
<path d="M48.1498 21.027L48.1067 21.0091C48.0866 21.0008 46.0808 20.1778 44.5191 20.759C44.2929 20.8433 44.1074 20.8278 43.9676 20.7138C43.5031 20.3356 43.7137 18.9577 43.9368 17.4989C44.0926 16.4794 44.2539 15.4251 44.0705 15.1429C43.8854 14.8587 43.7358 14.6801 43.616 14.5365C43.4033 14.2823 43.2748 14.1289 43.2686 13.7314C43.2651 13.5018 43.318 13.3547 43.4309 13.2818C43.6195 13.1595 43.8964 13.2887 44.2169 13.4382C44.4041 13.5253 44.5972 13.6154 44.783 13.6624C44.9743 13.7107 45.1846 13.7045 45.3873 13.6983C45.683 13.6893 45.9613 13.6814 46.1146 13.8613C46.2203 13.9856 46.2455 14.1711 46.193 14.4446C46.0221 15.3363 46.2293 17.3069 46.8071 18.0508C47.1358 18.4738 48.4368 20.3008 48.3128 20.8443C48.2911 20.9386 48.2351 20.9842 48.1916 21.0056L48.1498 21.027ZM45.8004 20.3436C46.8713 20.3436 47.8438 20.6872 48.1142 20.7915C48.1768 20.4368 47.2761 18.9898 46.6451 18.1779C46.0152 17.367 45.8142 15.3315 45.9914 14.4069C46.03 14.2049 46.019 14.0664 45.9582 13.9953C45.8687 13.8907 45.6391 13.8972 45.3932 13.9045C45.1863 13.9103 44.9512 13.9176 44.7325 13.8623C44.5278 13.8105 44.3164 13.7121 44.1299 13.6251C43.8985 13.517 43.6357 13.394 43.5421 13.4548C43.4955 13.4852 43.471 13.5826 43.4734 13.7294C43.4782 14.0537 43.5645 14.1569 43.7731 14.4056C43.8968 14.5534 44.0508 14.7371 44.2425 15.032C44.4687 15.3795 44.3164 16.3765 44.1396 17.531C43.9545 18.7432 43.7237 20.2517 44.0967 20.5556C44.1772 20.6212 44.2919 20.6254 44.4476 20.5674C44.8862 20.4037 45.3521 20.3436 45.8004 20.3436Z" fill="white"/>
<path d="M46.058 12.558C46.1267 12.8021 45.8605 12.98 45.6515 12.8308C45.2862 12.5694 44.8807 12.4413 44.4742 12.5286C43.665 12.7024 43.5673 12.0628 43.6671 11.3272C43.7632 10.6206 43.3418 8.45105 43.3715 7.88433C43.3953 7.43088 44.6348 7.49821 46.058 12.558Z" fill="white"/>
<path d="M45.8179 13.1611C45.7029 13.1611 45.5907 13.1245 45.4936 13.0551C45.2391 12.8731 44.9753 12.7771 44.7301 12.7771C44.6638 12.7771 44.5978 12.784 44.5343 12.7978C44.4265 12.821 44.3246 12.8327 44.2303 12.8327C43.9983 12.8327 43.8059 12.7636 43.6588 12.6276C43.3928 12.3817 43.3076 11.9441 43.3967 11.2904C43.4464 10.9226 43.3286 10.0157 43.234 9.28696C43.1532 8.66739 43.0841 8.13832 43.0983 7.86998C43.1104 7.63618 43.2723 7.46177 43.5006 7.43656C43.5206 7.43449 43.5407 7.43311 43.5614 7.43311C44.4023 7.43311 45.4353 9.32149 46.3246 12.4842C46.3871 12.707 46.308 12.9353 46.1233 13.0651C46.0331 13.1276 45.9274 13.1611 45.8179 13.1611ZM44.7311 12.2263C45.0958 12.2263 45.4598 12.3544 45.8134 12.6068C44.8278 9.18645 43.9627 8.18907 43.6484 8.01363C43.6578 8.27714 43.7192 8.74924 43.779 9.20787C43.8836 10.0108 44.0021 10.9208 43.9416 11.3639C43.8574 11.9848 43.9775 12.1717 44.0328 12.2232C44.0749 12.2622 44.1413 12.2819 44.2311 12.2819C44.286 12.2819 44.3492 12.2743 44.4182 12.2594C44.5205 12.2377 44.6258 12.2263 44.7311 12.2263Z" fill="white"/>
<path d="M45.8208 12.9887C45.7434 12.9887 45.665 12.9642 45.5963 12.9148C45.2295 12.6527 44.8504 12.5539 44.5005 12.6292C44.1866 12.6965 43.9438 12.6534 43.7784 12.5007C43.5573 12.2959 43.4893 11.9077 43.5701 11.3134C43.6233 10.9214 43.5083 10.0373 43.4071 9.25716C43.3284 8.6521 43.2604 8.12957 43.2735 7.87885C43.2811 7.73034 43.3791 7.62398 43.5225 7.60775C44.0882 7.54421 45.1107 8.79714 46.161 12.5304C46.2034 12.6817 46.1506 12.8361 46.0266 12.9231C45.9648 12.9669 45.8933 12.9887 45.8208 12.9887ZM44.734 12.3992C45.059 12.3992 45.3932 12.5173 45.7158 12.7476C45.79 12.8008 45.8643 12.7867 45.9089 12.7552C45.9624 12.7179 45.9828 12.6544 45.9634 12.586C44.8348 8.57439 43.8357 7.78147 43.5453 7.81186C43.5297 7.81358 43.482 7.8191 43.4782 7.88955C43.4662 8.12163 43.5363 8.66038 43.6105 9.23056C43.7134 10.0231 43.8305 10.9218 43.7736 11.341C43.7034 11.857 43.7521 12.1965 43.9179 12.3501C44.0308 12.4548 44.2125 12.481 44.457 12.4285C44.5482 12.4092 44.6407 12.3992 44.734 12.3992Z" fill="white"/>
<path d="M58.0096 59.1663C59.047 59.6505 60.1988 58.9284 60.1833 57.8312C60.1701 56.8811 60.0607 55.0442 59.6058 51.7336C58.8343 46.1188 60.5072 39.6117 60.96 38.9314C61.4127 38.251 60.8505 37.0119 60.2071 36.5888C59.5637 36.1658 58.8498 36.0224 57.7537 36.2794C56.6575 36.5363 55.3494 38.5017 56.4044 39.5216C57.4598 40.5414 56.7691 53.5629 56.135 54.3414C55.501 55.1198 55.4799 57.0621 56.1029 57.6892C56.432 58.0204 57.1835 58.7809 58.0096 59.1663Z" fill="white"/>
<path d="M58.6898 59.5945C58.416 59.5945 58.148 59.5344 57.8934 59.4159C57.0273 59.0118 56.2485 58.2268 55.9163 57.8918C55.1859 57.1566 55.1886 55.0686 55.9222 54.1683C56.415 53.4955 57.1685 40.6428 56.2136 39.7201C55.7747 39.2956 55.6352 38.6906 55.8206 38.0157C56.0797 37.0774 56.9012 36.1971 57.6914 36.0116C58.083 35.9198 58.4291 35.8752 58.7492 35.8752C59.3457 35.8752 59.8568 36.0289 60.3586 36.3587C60.8196 36.6616 61.2299 37.3088 61.3577 37.9325C61.4492 38.3828 61.3912 38.781 61.1898 39.0839C60.7941 39.6783 59.1039 46.0532 59.8789 51.6959C60.3334 55.0033 60.4456 56.8558 60.4594 57.8273C60.4674 58.4272 60.1714 58.9804 59.6668 59.3064C59.376 59.495 59.0379 59.5945 58.6898 59.5945ZM58.7444 36.4264C58.4674 36.4264 58.1642 36.4661 57.8175 36.5476C57.2362 36.684 56.5518 37.4383 56.3525 38.1618C56.2599 38.4954 56.2282 38.9675 56.597 39.3236C57.7453 40.4339 57.1078 53.5846 56.3494 54.515C55.8048 55.1846 55.7747 56.967 56.299 57.4951C56.6139 57.8121 57.3509 58.5546 58.1266 58.9165C58.3068 59.0004 58.4961 59.0433 58.6895 59.0433C58.9316 59.0433 59.1668 58.9745 59.3681 58.844C59.7124 58.6209 59.9148 58.2441 59.9086 57.8345C59.8951 56.8796 59.7846 55.0527 59.3336 51.7708C58.5735 46.2383 60.2035 39.5716 60.7316 38.7786C60.8814 38.5535 60.8614 38.2537 60.8182 38.042C60.7215 37.5664 60.3938 37.0405 60.0567 36.8181C59.6492 36.5511 59.2324 36.4264 58.7444 36.4264Z" fill="white"/>
<path d="M58.6895 59.4221C58.4457 59.4221 58.1991 59.3682 57.9663 59.2598C57.1302 58.8699 56.3657 58.0994 56.039 57.7706C55.3662 57.0937 55.3807 55.1069 56.0559 54.2777C56.5877 53.6246 57.3689 40.5972 56.3335 39.5964C55.9419 39.2179 55.819 38.6729 55.9871 38.0623C56.2265 37.1941 57.0087 36.3501 57.7305 36.1805C58.7855 35.9332 59.5429 36.0296 60.2636 36.5037C60.6895 36.7838 61.0697 37.3858 61.1881 37.9677C61.2707 38.3721 61.2213 38.7254 61.0455 38.9889C60.6442 39.5919 58.9268 46.0358 59.7073 51.7204C60.1607 55.0216 60.2723 56.8651 60.2861 57.8304C60.2934 58.3705 60.0271 58.8685 59.5726 59.1624C59.306 59.3347 59 59.4221 58.6895 59.4221ZM58.7441 36.2544C58.4505 36.2544 58.1321 36.2965 57.7774 36.3801C57.132 36.5314 56.4029 37.3267 56.185 38.1165C56.0807 38.495 56.0462 39.0335 56.4762 39.4486C57.5288 40.466 56.9137 53.549 56.215 54.4069C55.6169 55.1414 55.5945 57.0316 56.1764 57.6176C56.5034 57.9471 57.2504 58.6989 58.0534 59.0736H58.0537C58.5182 59.2905 59.0452 59.2594 59.4617 58.9897C59.8565 58.7345 60.0882 58.3021 60.0816 57.8331C60.0682 56.8737 59.9569 55.0392 59.5049 51.7483C58.7503 46.2558 60.3548 39.6575 60.8756 38.8753C61.0583 38.6007 61.0372 38.2526 60.9879 38.0088C60.8811 37.4845 60.5296 36.9237 60.1517 36.6754C59.7204 36.3919 59.2731 36.2544 58.7441 36.2544Z" fill="white"/>
<path d="M60.6318 35.3316C60.6318 35.3316 58.5811 33.983 57.2735 34.6447C55.966 35.3063 55.9919 33.9647 56.7866 33.2919C57.5812 32.6192 58.2246 23.7505 57.1544 22.6664C56.0841 21.5823 57.9342 21.495 58.5424 22.0579C59.1505 22.6208 59.7439 22.2503 60.3872 22.6733C61.0306 23.0964 60.8946 23.3875 60.3966 24.3096C59.8982 25.2317 60.2916 32.7169 61.0956 33.6804C61.8996 34.644 62.0094 35.2594 60.6318 35.3316Z" fill="white"/>
<path d="M60.5089 35.5799L60.481 35.5617C60.4682 35.5534 59.2101 34.7376 58.1098 34.7376C57.838 34.7376 57.5987 34.7887 57.398 34.8903C57.1238 35.0288 56.8789 35.0992 56.6703 35.0992C56.4172 35.0992 56.2083 34.9942 56.0822 34.8039C55.7887 34.3612 56.0297 33.5724 56.6089 33.0817C56.8544 32.8738 57.2771 30.7847 57.408 27.8534C57.542 24.854 57.2789 23.1842 56.9584 22.8595C56.336 22.2293 56.5795 21.8397 56.7132 21.7016C56.8748 21.5351 57.1573 21.4436 57.5092 21.4436C57.9799 21.4436 58.4589 21.6056 58.7294 21.8559C58.9904 22.0977 59.2387 22.1212 59.554 22.1516C59.8507 22.1799 60.1867 22.2124 60.5383 22.4434C61.4086 23.016 61.1188 23.5523 60.6381 24.4406C60.2026 25.2466 60.5922 32.6482 61.3067 33.504C61.8925 34.2061 62.0717 34.6682 61.9056 35.0484C61.7578 35.3876 61.3461 35.5699 60.6464 35.6069L60.5898 35.6096L60.5089 35.5799ZM58.1157 34.1851C59.2194 34.1851 60.3801 34.8506 60.7037 35.0509C61.278 35.0087 61.383 34.8703 61.4017 34.8278C61.4317 34.7584 61.4418 34.5249 60.8844 33.8563C60.0182 32.8185 59.6086 25.1883 60.1549 24.1781C60.6723 23.2204 60.6526 23.1769 60.2365 22.9031C59.9985 22.7463 59.7685 22.7245 59.5022 22.699C59.1507 22.6655 58.7532 22.6275 58.3557 22.2597C58.184 22.1008 57.8425 21.9941 57.5054 21.9941C57.2923 21.9941 57.1528 22.0393 57.1096 22.0846C57.0913 22.1032 57.1158 22.2352 57.3503 22.4731C58.0839 23.2153 58.0196 26.5003 57.9582 27.8782C57.8756 29.7248 57.5734 32.9874 56.9653 33.5023C56.5408 33.8618 56.4479 34.3598 56.5412 34.5004C56.5488 34.5121 56.5726 34.5477 56.6724 34.5477C56.7563 34.5477 56.9073 34.5218 57.1497 34.3992C57.4295 34.2569 57.7544 34.1851 58.1157 34.1851Z" fill="white"/>
<path d="M60.6036 35.436L60.5756 35.4177C60.5556 35.4045 58.5591 34.1098 57.32 34.7366C56.6189 35.0913 56.3336 34.8717 56.2259 34.7093C55.9824 34.3419 56.2135 33.6432 56.7204 33.214C57.0762 32.9128 57.4619 30.5119 57.5804 27.8617C57.7023 25.1372 57.511 23.1742 57.0817 22.7387C56.5847 22.2352 56.7156 21.9482 56.8378 21.8221C57.1635 21.4864 58.1751 21.5776 58.6126 21.9831C58.9165 22.2642 59.2184 22.2932 59.5382 22.3236C59.8283 22.3512 60.128 22.3799 60.444 22.5878C61.1817 23.073 60.9641 23.4757 60.4872 24.3584C60.0213 25.2204 60.4071 32.6949 61.1748 33.6146C61.7056 34.2507 61.8824 34.6717 61.7481 34.9794C61.6289 35.2526 61.2656 35.4011 60.6378 35.4342L60.6036 35.436ZM58.1157 34.3585C59.2426 34.3585 60.4506 35.0944 60.6595 35.2274C61.1745 35.1966 61.4773 35.0854 61.5595 34.8972C61.6559 34.6758 61.4784 34.2994 61.0167 33.7458C60.1909 32.756 59.8072 25.1835 60.3063 24.2603C60.8056 23.3362 60.8916 23.1276 60.3308 22.7587C60.0572 22.5788 59.7951 22.5536 59.5181 22.5273C59.1786 22.4949 58.8274 22.4614 58.4728 22.133C58.097 21.7852 57.2139 21.7282 56.985 21.9644C56.8216 22.1333 57.0668 22.4313 57.2274 22.5943C57.9323 23.3082 57.8328 26.8132 57.7855 27.8703C57.6767 30.3033 57.3214 32.9736 56.8534 33.3701C56.3958 33.7576 56.2321 34.3467 56.3972 34.595C56.5163 34.775 56.8192 34.7594 57.2278 34.5525C57.5023 34.4141 57.8059 34.3585 58.1157 34.3585Z" fill="white"/>
<path d="M60.5088 21.8996C60.5088 21.8996 58.7043 20.8759 57.1254 21.2503C55.5464 21.6247 57.8617 16.8443 57.47 16.0434C57.0784 15.2425 56.9123 15.4049 56.8574 14.8796C56.8025 14.3543 57.5864 14.6527 58.1846 14.883C58.7827 15.1134 59.6274 14.7995 59.3505 15.6497C59.0735 16.5 59.0465 18.3642 59.5114 19.1419C59.9762 19.9197 60.8859 21.7673 60.5088 21.8996Z" fill="white"/>
<path d="M60.3745 22.1397C60.3624 22.1332 59.1236 21.4445 57.8634 21.4445C57.6244 21.4445 57.3982 21.4694 57.1903 21.5188C57.1112 21.5378 57.0349 21.5474 56.9641 21.5474C56.7825 21.5474 56.625 21.4836 56.5096 21.3627C56.052 20.8844 56.4043 19.6446 56.8129 18.2096C57.0332 17.4343 57.3316 16.3851 57.2238 16.1651C57.0608 15.8319 56.941 15.6799 56.8536 15.5687C56.7244 15.4053 56.6229 15.2769 56.5849 14.9087C56.5552 14.6307 56.6864 14.4857 56.7669 14.4242C56.8633 14.3503 56.9897 14.313 57.1423 14.313C57.4445 14.313 57.8385 14.4553 58.2844 14.6269C58.4336 14.6846 58.6173 14.7015 58.7952 14.7181C59.1032 14.7464 59.4196 14.7758 59.5881 15.0324C59.7408 15.2641 59.6758 15.5449 59.6137 15.7362C59.3664 16.4953 59.328 18.2977 59.749 19.0019C59.7625 19.0243 61.08 21.2567 60.8421 21.9159C60.7993 22.0341 60.7136 22.1211 60.6014 22.1605L60.4832 22.2019L60.3745 22.1397ZM57.8741 20.8927C58.8605 20.8927 59.7953 21.2525 60.2916 21.4822C60.1635 21.0056 59.7169 20.0203 59.277 19.284C58.7517 18.4065 58.8011 16.4535 59.0901 15.5653C59.1485 15.386 59.127 15.3328 59.127 15.3321C59.0891 15.2976 58.8746 15.2779 58.7468 15.2658C58.5514 15.2479 58.3086 15.2258 58.0869 15.1408C57.8341 15.0431 57.3633 14.8614 57.1409 14.8614C57.1392 14.8614 57.1375 14.8618 57.1361 14.8618C57.1578 15.0655 57.1882 15.1042 57.2846 15.2265C57.3885 15.3577 57.5294 15.5362 57.7187 15.923C57.91 16.3136 57.7008 17.1024 57.3433 18.3567C57.1074 19.1866 56.6681 20.7314 56.9078 20.9825C56.9123 20.9869 56.9216 20.997 56.9651 20.997C56.9928 20.997 57.0259 20.9925 57.0632 20.9835C57.3164 20.9231 57.5892 20.8927 57.8741 20.8927Z" fill="white"/>
<path d="M60.4996 22.0121L60.4592 21.9893C60.4413 21.9793 58.6703 20.9902 57.15 21.3508C56.9263 21.4039 56.7529 21.3677 56.6345 21.2433C56.2449 20.8362 56.6016 19.5815 56.9794 18.2533C57.2429 17.327 57.5154 16.3687 57.3787 16.0889C57.2074 15.7384 57.0806 15.5778 56.9884 15.4608C56.8686 15.3091 56.7895 15.209 56.7563 14.8906C56.737 14.7062 56.8085 14.6094 56.8717 14.5611C57.1072 14.3805 57.6014 14.5483 58.2224 14.7876C58.394 14.854 58.5902 14.8719 58.7801 14.8892C59.0578 14.9147 59.3206 14.9389 59.4439 15.1264C59.5292 15.256 59.5309 15.4324 59.4494 15.6818C59.1866 16.4882 59.15 18.3355 59.6007 19.0894C59.858 19.519 60.8577 21.3622 60.6795 21.856C60.6478 21.9441 60.588 21.981 60.5442 21.9966L60.4996 22.0121ZM57.8739 21.0651C59.0692 21.0651 60.1992 21.6187 60.4906 21.7728C60.5777 21.4388 59.9136 20.0125 59.4246 19.1954C58.9311 18.3703 58.9811 16.4567 59.2539 15.6189C59.3127 15.4383 59.3189 15.3109 59.2722 15.2401C59.2032 15.1351 58.9884 15.1154 58.7611 15.0943C58.5667 15.0764 58.3467 15.056 58.1485 14.98C57.7789 14.8374 57.1597 14.5994 56.996 14.7248C56.9843 14.7338 56.9484 14.7614 56.9601 14.8702C56.9871 15.1296 57.0382 15.1938 57.149 15.3343C57.2471 15.4587 57.3818 15.6289 57.5628 15.9995C57.7341 16.35 57.4757 17.2583 57.1766 18.3099C56.8634 19.4102 56.4739 20.7795 56.7823 21.1021C56.8064 21.1273 56.88 21.2043 57.1024 21.1518C57.3576 21.0907 57.6173 21.0651 57.8739 21.0651Z" fill="white"/>
<path d="M59.1107 13.6913C59.1764 13.9192 58.927 14.0864 58.7301 13.9475C58.3862 13.7051 57.8712 13.789 57.4896 13.8723C56.7305 14.038 56.8877 13.2095 57.0928 12.5755C57.298 11.9414 56.5409 9.86651 56.5682 9.33743C56.5972 8.78555 57.7532 8.9717 59.1107 13.6913Z" fill="white"/>
<path d="M58.885 14.2741C58.7745 14.2741 58.6664 14.2392 58.5728 14.1732C58.4678 14.0993 58.3248 14.0634 58.1362 14.0634C57.9352 14.0634 57.717 14.1052 57.5495 14.1418C57.4656 14.1601 57.3851 14.1698 57.3112 14.1698C57.113 14.1698 56.9462 14.1017 56.8294 13.9729C56.5898 13.7084 56.5908 13.2377 56.8322 12.4917C56.9313 12.1854 56.6916 11.2225 56.5331 10.5853C56.3926 10.021 56.2817 9.57658 56.2952 9.32378C56.308 9.06234 56.4696 8.87584 56.7061 8.84856C56.7244 8.84649 56.7431 8.84546 56.7621 8.84546C57.5398 8.84546 58.5168 10.6289 59.3761 13.6158C59.4382 13.8303 59.3633 14.0513 59.1847 14.1781C59.097 14.2406 58.9931 14.2741 58.885 14.2741ZM58.1366 13.5126C58.4088 13.5126 58.6335 13.5671 58.8214 13.6787C57.8586 10.3647 57.096 9.60523 56.8495 9.43946C56.8712 9.6667 56.9742 10.0791 57.0664 10.4493C57.2815 11.3123 57.5036 12.2033 57.3554 12.6606C57.1026 13.4425 57.2318 13.5965 57.2373 13.6027C57.2439 13.6099 57.2677 13.6186 57.3119 13.6186C57.3461 13.6186 57.3865 13.6134 57.4328 13.6034C57.6262 13.5616 57.8811 13.5126 58.1366 13.5126Z" fill="white"/>
<path d="M58.8847 14.1017C58.8115 14.1017 58.7372 14.0785 58.6716 14.0323C58.3739 13.8223 57.9184 13.8848 57.5123 13.9732C57.2633 14.0278 57.0764 13.9884 56.957 13.8572C56.7656 13.6461 56.7784 13.2169 56.9956 12.5448C57.1099 12.1912 56.8824 11.277 56.6997 10.5424C56.5681 10.0147 56.4548 9.55889 56.4665 9.33303C56.4755 9.15725 56.5746 9.03741 56.7252 9.02014C57.2332 8.96143 58.1968 10.1415 59.2097 13.6638C59.2511 13.8071 59.2018 13.9539 59.0843 14.0378C59.0246 14.0803 58.9552 14.1017 58.8847 14.1017ZM58.1363 13.6855C58.3746 13.6855 58.6019 13.7318 58.7901 13.8644C58.8578 13.9121 58.9255 13.8986 58.9655 13.8703C59.0125 13.8368 59.0305 13.7808 59.0128 13.7204C57.9264 9.94292 57.0081 9.18971 56.7487 9.22424C56.69 9.23081 56.6744 9.29295 56.6717 9.34372C56.6617 9.53919 56.777 10.0023 56.8989 10.4931C57.0982 11.2925 57.3237 12.1988 57.1911 12.6083C56.9545 13.3405 57.016 13.6168 57.1093 13.7197C57.1756 13.7926 57.2961 13.8105 57.4687 13.7732C57.6853 13.7256 57.9153 13.6855 58.1363 13.6855Z" fill="white"/>
<path d="M62.2345 64.8336C62.9163 65.6397 64.1906 65.5084 64.6289 64.6088C65.0084 63.8297 65.6708 62.2901 66.6461 59.413C68.3003 54.5335 72.3966 49.8967 73.0607 49.5224C73.7248 49.148 73.7569 47.9154 73.3849 47.3156C73.0127 46.7157 72.4656 46.3158 71.4296 46.0903C70.3932 45.8647 68.4744 46.9464 68.9506 48.1959C69.4272 49.4454 63.4857 59.7776 62.6275 60.1603C61.7693 60.5429 60.9526 62.1164 61.2237 62.8744C61.3663 63.2743 61.6916 64.1919 62.2345 64.8336Z" fill="white"/>
<path d="M63.3785 65.6428C62.8577 65.6428 62.3642 65.4125 62.0247 65.0112C61.4542 64.3367 61.1133 63.3832 60.9676 62.976C60.6454 62.0753 61.5136 60.3555 62.5155 59.9082C63.2055 59.5491 69.1169 49.404 68.6939 48.2937C68.4984 47.7819 68.6144 47.2396 69.0213 46.7672C69.511 46.198 70.3995 45.7847 71.1341 45.7847C71.2595 45.7847 71.3786 45.7968 71.4884 45.8206C72.5366 46.0485 73.1741 46.4522 73.6193 47.1699C73.8866 47.6005 73.9726 48.294 73.8285 48.8562C73.7205 49.2765 73.5022 49.5894 73.1962 49.7614C72.6171 50.0885 68.5675 54.605 66.9077 59.5004C65.9321 62.3778 65.2648 63.9316 64.877 64.7283C64.637 65.2219 64.159 65.5582 63.5988 65.6287C63.5242 65.6387 63.4511 65.6428 63.3785 65.6428ZM71.1338 46.3359C70.565 46.3359 69.8201 46.6833 69.4384 47.1267C69.1622 47.4479 69.0848 47.7742 69.2077 48.0978C69.5192 48.9136 67.9237 52.1036 66.5309 54.6361C65.5014 56.5082 63.384 60.1248 62.7396 60.4121C62.0271 60.7295 61.2639 62.1696 61.4829 62.7823C61.6196 63.1642 61.9388 64.0577 62.445 64.6562C62.6795 64.9338 63.0204 65.0927 63.3795 65.0927C63.4296 65.0927 63.4794 65.0896 63.5298 65.0837C63.9104 65.036 64.2208 64.8192 64.3821 64.4887C64.7631 63.7058 65.4199 62.1748 66.3859 59.3249C68.018 54.5118 72.1502 49.7203 72.9262 49.2831C73.1437 49.1608 73.247 48.9098 73.295 48.7205C73.4031 48.2988 73.343 47.7694 73.1517 47.4614C72.7925 46.8825 72.26 46.5531 71.3714 46.36C71.2995 46.3435 71.2198 46.3359 71.1338 46.3359Z" fill="white"/>
<path d="M63.377 65.4702C62.91 65.4702 62.4642 65.2647 62.1554 64.8997C61.6046 64.2483 61.2717 63.3155 61.1291 62.9173C60.8352 62.0961 61.6668 60.4757 62.5847 60.0664C63.3038 59.7456 69.3205 49.4565 68.8539 48.2326C68.6823 47.7826 68.7876 47.3025 69.1509 46.8802C69.6973 46.2451 70.751 45.8372 71.4503 45.9898C72.4487 46.2071 73.0531 46.5873 73.4713 47.2614C73.7158 47.6551 73.7932 48.2937 73.6599 48.8138C73.5638 49.1871 73.3739 49.4631 73.1101 49.6116C72.5219 49.9431 68.4163 54.508 66.7424 59.4455C65.7692 62.3161 65.1058 63.8619 64.7204 64.6531C64.5056 65.0941 64.0777 65.3949 63.5756 65.4577C63.5092 65.4664 63.4429 65.4702 63.377 65.4702ZM62.3119 64.7674C62.6193 65.1307 63.082 65.3124 63.5496 65.2543C63.9893 65.1994 64.3485 64.9477 64.5356 64.5636C64.9183 63.7776 65.5782 62.2404 66.5477 59.3799C68.1667 54.6047 72.245 49.864 73.0092 49.433C73.2793 49.2807 73.4036 48.9844 73.4606 48.763C73.5811 48.2927 73.5138 47.7197 73.2965 47.3699C72.9104 46.7476 72.3451 46.3949 71.4061 46.1908C70.781 46.0548 69.8002 46.4398 69.306 47.0142C69.0857 47.2704 68.8612 47.6772 69.0449 48.1593C69.3589 48.9827 67.2847 52.9045 66.3778 54.5525C64.948 57.152 63.1615 60.0336 62.6676 60.254C61.8612 60.6135 61.0669 62.1362 61.3187 62.84C61.4609 63.2361 61.7852 64.1444 62.3119 64.7674Z" fill="white"/>
<path d="M73.7853 47.0875C73.7853 47.0875 72.7879 45.2689 71.2508 44.764C69.7136 44.2587 74.1818 41.3809 74.2682 40.4913C74.3545 39.6016 74.1283 39.6538 74.3566 39.1758C74.5845 38.6978 75.0946 39.363 75.4824 39.8727C75.8699 40.3825 76.7519 40.5555 76.0719 41.1381C75.3919 41.7204 74.3935 43.3007 74.3814 44.2086C74.3693 45.1166 74.1749 47.1718 73.7853 47.0875Z" fill="white"/>
<path d="M73.8089 47.3655C73.7819 47.3655 73.7554 47.3628 73.7281 47.3569L73.6048 47.3303L73.544 47.2201C73.5347 47.2029 72.5743 45.4889 71.1645 45.0254C70.8168 44.9111 70.7024 44.6973 70.6679 44.5378C70.5267 43.8899 71.4767 43.0127 72.576 41.997C73.1645 41.4538 73.9695 40.7099 73.9937 40.4643C74.0296 40.0952 74.0072 39.9024 73.9909 39.7619C73.9671 39.5536 73.9481 39.3913 74.1077 39.057C74.2278 38.8042 74.4157 38.7486 74.5169 38.7383L74.5656 38.7358C74.9351 38.7358 75.2694 39.1378 75.7015 39.7059C75.7982 39.8334 75.9453 39.9435 76.0875 40.0502C76.3341 40.2354 76.5866 40.4253 76.5966 40.732C76.6031 40.944 76.493 41.1395 76.2506 41.3467C75.6431 41.8668 74.6671 43.3891 74.6568 44.2114C74.6564 44.2377 74.6063 46.8382 74.0596 47.274C73.985 47.3338 73.8983 47.3655 73.8089 47.3655ZM74.6043 39.3022C74.5145 39.4911 74.52 39.5398 74.5383 39.6963C74.5566 39.8513 74.5842 40.0858 74.5428 40.5175C74.4982 40.9723 73.8151 41.603 72.9511 42.4014C72.3142 42.9896 71.1324 44.0812 71.2063 44.421C71.2133 44.4514 71.2809 44.4839 71.3372 44.5022C72.5563 44.9028 73.4262 46.0183 73.8196 46.6161C73.9612 46.145 74.0952 45.0814 74.1066 44.2049C74.1197 43.1802 75.1827 41.5367 75.8931 40.9285C76.0375 40.8049 76.0468 40.7472 76.0468 40.7472C76.0327 40.6974 75.861 40.5683 75.7584 40.4913C75.593 40.3673 75.4065 40.2271 75.2639 40.0392C75.1371 39.8741 74.7763 39.3989 74.6043 39.3022Z" fill="white"/>
<path d="M73.8094 47.193C73.7928 47.193 73.7776 47.191 73.7645 47.1882L73.7189 47.1785L73.6964 47.1374C73.6864 47.1195 72.6997 45.3482 71.2195 44.8619C71.0027 44.7904 70.8742 44.6696 70.8376 44.5017C70.7174 43.9502 71.6779 43.0633 72.6949 42.124C73.4036 41.4695 74.1368 40.7926 74.1668 40.4815C74.2048 40.0919 74.181 39.8885 74.1637 39.7403C74.1412 39.5483 74.1264 39.4216 74.2645 39.1318C74.3447 38.9636 74.4566 38.9187 74.536 38.9104C74.8323 38.8811 75.1628 39.282 75.5648 39.8108C75.6757 39.9569 75.8328 40.075 75.9848 40.1889C76.2072 40.3561 76.4175 40.5136 76.4247 40.7381C76.4296 40.8931 76.3391 41.0451 76.1391 41.216C75.494 41.7682 74.4959 43.3296 74.4849 44.2099C74.4783 44.7124 74.363 46.8128 73.953 47.1395C73.9009 47.181 73.8505 47.193 73.8094 47.193ZM74.5688 39.1139C74.5646 39.1139 74.5605 39.1142 74.5567 39.1146C74.5419 39.1159 74.497 39.1208 74.4493 39.2202C74.3367 39.4564 74.346 39.538 74.3668 39.7165C74.3851 39.8743 74.4103 40.0902 74.3706 40.5015C74.3326 40.8907 73.6381 41.532 72.8338 42.2749C71.9914 43.053 70.9426 44.0213 71.0376 44.4582C71.0448 44.4924 71.0676 44.596 71.2831 44.6668C72.687 45.1282 73.6325 46.6225 73.836 46.9689C74.0843 46.7286 74.2666 45.162 74.279 44.2075C74.2915 43.2443 75.3348 41.6342 76.0051 41.0603C76.1498 40.9363 76.2217 40.8303 76.2189 40.7446C76.2148 40.6186 76.0428 40.4898 75.8608 40.353C75.7054 40.2363 75.5289 40.104 75.4004 39.9351C75.1666 39.6264 74.777 39.1139 74.5688 39.1139Z" fill="white"/>
<path d="M77.1599 39.9577C77.0024 40.0955 76.4778 39.8313 76.5151 39.6227C76.58 39.258 76.2378 38.9355 76.0285 38.6633C75.612 38.1225 76.0682 37.5979 76.6518 37.5223C77.2355 37.4467 78.9491 36.3177 79.3912 36.1689C79.8926 35.9996 80.4238 37.102 77.1599 39.9577Z" fill="white"/>
<path d="M77.0351 40.2713C76.8535 40.2713 76.685 40.1916 76.6007 40.1442C76.3407 39.9975 76.207 39.7844 76.2443 39.5748C76.276 39.3976 76.0944 39.1776 75.9338 38.9835C75.8903 38.9307 75.8481 38.8803 75.8109 38.8309C75.5874 38.5408 75.5329 38.2154 75.6575 37.9153C75.8015 37.5679 76.1783 37.3065 76.6169 37.2495C76.9222 37.2101 77.7259 36.7556 78.3123 36.4241C78.7388 36.1827 79.1076 35.9744 79.3041 35.9081C79.3652 35.8874 79.4281 35.8767 79.4903 35.8767C79.6809 35.8767 79.8529 35.9779 79.9506 36.1475C80.3726 36.8813 79.4215 38.346 77.3415 40.1653C77.2613 40.2347 77.1557 40.2713 77.0351 40.2713ZM76.7948 39.6103C76.81 39.6245 76.8348 39.6442 76.8718 39.6652C76.9322 39.6994 76.9837 39.7143 77.0148 39.7191C79.3763 37.6446 79.5597 36.6165 79.4775 36.4307C79.3331 36.4794 78.9515 36.6949 78.583 36.9035C77.8537 37.3158 77.099 37.7423 76.6877 37.7955C76.4484 37.8266 76.2339 37.9623 76.1659 38.126C76.1186 38.24 76.1462 38.3643 76.2471 38.4952C76.2812 38.5394 76.3185 38.585 76.3572 38.6316C76.5606 38.8775 76.8352 39.2097 76.7948 39.6103Z" fill="white"/>
<path d="M77.0356 40.0988C76.9185 40.0988 76.788 40.0514 76.6861 39.9941C76.4924 39.8846 76.3909 39.7389 76.4147 39.6046C76.4603 39.349 76.251 39.0959 76.0666 38.8724C76.0248 38.822 75.9844 38.773 75.9478 38.7256C75.7637 38.4863 75.7171 38.2221 75.8169 37.9811C75.9378 37.6896 76.2603 37.4696 76.6392 37.4202C76.9773 37.3763 77.7647 36.9315 78.3973 36.5737C78.817 36.3365 79.1789 36.132 79.3592 36.0713C79.537 36.0108 79.7101 36.0751 79.8009 36.2329C80.0879 36.7316 79.5626 37.9925 77.228 40.0345C77.1758 40.0805 77.1081 40.0988 77.0356 40.0988ZM79.4897 36.255C79.4631 36.255 79.4396 36.2609 79.4244 36.266C79.2628 36.3206 78.8912 36.5306 78.4979 36.7526C77.8161 37.1381 77.0432 37.5749 76.6654 37.624C76.3629 37.663 76.0983 37.8381 76.0065 38.0595C75.935 38.2321 75.9709 38.419 76.1104 38.6003C76.1457 38.6459 76.1843 38.6932 76.2244 38.7415C76.4268 38.9864 76.6789 39.291 76.6164 39.6401C76.6119 39.665 76.6575 39.7417 76.7866 39.8149C76.93 39.8957 77.0612 39.9074 77.0926 39.8798C79.4966 37.7766 79.7988 36.6414 79.6227 36.3351C79.5857 36.2716 79.5336 36.255 79.4897 36.255Z" fill="white"/>
<path d="M44.8956 61.0441C46.0186 61.1874 46.8727 60.1545 46.5166 59.1208C46.2082 58.2257 45.5334 56.5207 44.0757 53.5254C41.6036 48.4456 41.1437 41.7796 41.3564 40.9984C41.5688 40.2172 40.6557 39.215 39.9211 39.0099C39.1865 38.8047 38.4727 38.8859 37.5257 39.4619C36.5784 40.038 35.9647 42.2952 37.2716 42.94C38.5784 43.5848 41.9877 56.118 41.6361 57.047C41.2845 57.9763 41.8699 59.8209 42.649 60.2249C43.0604 60.4387 44.0018 60.9302 44.8956 61.0441Z" fill="white"/>
<path d="M45.1012 61.3324C45.0221 61.3324 44.942 61.3272 44.8619 61.3172C43.9263 61.1977 42.9507 60.6914 42.5339 60.4752C41.6201 60.0014 40.9725 58.0243 41.379 56.9499C41.6294 56.1632 38.3285 43.7688 37.1498 43.1868C36.6011 42.9161 36.2816 42.3794 36.2505 41.6759C36.2084 40.7148 36.7057 39.639 37.3826 39.2267C38.0495 38.8212 38.6293 38.6323 39.2081 38.6323C39.4661 38.6323 39.7234 38.6693 39.9952 38.7449C40.8213 38.9753 41.8919 40.0776 41.6221 41.0702C41.4367 41.7529 41.839 48.2994 44.3232 53.4048C45.7813 56.4001 46.4623 58.1171 46.7769 59.0306C46.9727 59.6004 46.865 60.2176 46.4875 60.6807C46.1515 61.0948 45.6459 61.3324 45.1012 61.3324ZM39.2126 39.1838C38.735 39.1838 38.2446 39.3469 37.6685 39.6971C37.1733 39.9985 36.7679 40.9117 36.8007 41.6514C36.8159 42.0006 36.9316 42.4651 37.3936 42.693C38.8151 43.3947 42.3139 56.0329 41.8936 57.1439C41.5914 57.9431 42.1191 59.6398 42.7763 59.9807C43.17 60.1852 44.0918 60.6638 44.9307 60.7705C44.9873 60.7778 45.0439 60.7812 45.1002 60.7812C45.4791 60.7812 45.8289 60.6179 46.0606 60.3333C46.3169 60.018 46.3901 59.598 46.2561 59.2099C45.9467 58.3112 45.2739 56.6169 43.8283 53.6455C41.3922 48.6396 40.8427 41.8362 41.0907 40.9255C41.2602 40.3007 40.4383 39.4398 39.8467 39.2747C39.6274 39.2135 39.4195 39.1838 39.2126 39.1838Z" fill="white"/>
<path d="M45.102 61.1604C45.0298 61.1604 44.957 61.1559 44.8834 61.1465C43.9793 61.0312 43.0226 60.5346 42.6137 60.3229C41.7718 59.886 41.1667 58.0018 41.5408 57.0117C41.8357 56.2322 38.5085 43.6658 37.2266 43.0328C36.7369 42.791 36.4516 42.3068 36.4236 41.669C36.3846 40.7797 36.8553 39.7509 37.4728 39.3748C38.3849 38.8202 39.125 38.6817 39.9494 38.9117C40.7133 39.1248 41.6923 40.1567 41.4561 41.0256C41.2679 41.718 41.6661 48.3378 44.1685 53.4808C45.6224 56.4684 46.3011 58.1786 46.6143 59.0876C46.7908 59.6004 46.6938 60.1554 46.3543 60.5726C46.0486 60.949 45.5917 61.1604 45.102 61.1604ZM44.9096 60.9428C45.408 61.0063 45.8894 60.8198 46.1957 60.4434C46.49 60.0815 46.5743 59.5997 46.4209 59.1549C46.1098 58.2515 45.4342 56.5496 43.9848 53.5712C41.5666 48.6023 41.0144 41.8707 41.2586 40.9724C41.4579 40.2389 40.5496 39.2926 39.8944 39.1099C39.1312 38.8965 38.4388 39.0284 37.5799 39.5509C37.0287 39.8863 36.5932 40.8522 36.6291 41.6603C36.6464 42.0561 36.7804 42.5838 37.3181 42.8494C38.6215 43.4928 42.1209 56.0609 41.7335 57.0849C41.4019 57.9617 41.9697 59.7579 42.698 60.1357C43.1076 60.3474 44.0418 60.8319 44.9096 60.9428Z" fill="white"/>
<path d="M39.5819 38.0686C39.5819 38.0686 37.1655 37.8013 36.3245 38.9751C35.4836 40.1493 34.8892 38.952 35.2757 37.9992C35.6621 37.0463 32.1447 28.9191 30.7084 28.4432C29.2721 27.9673 30.8524 27.0563 31.644 27.2797C32.4355 27.5032 32.785 26.9081 33.5431 26.9921C34.3011 27.076 34.316 27.3944 34.3039 28.4339C34.2918 29.4734 38.0807 35.9112 39.228 36.4002C40.3752 36.8895 40.7554 37.3841 39.5819 38.0686Z" fill="white"/>
<path d="M35.6643 39.7387C35.5551 39.7387 35.4512 39.7117 35.3548 39.6586C34.89 39.4026 34.737 38.5955 35.0209 37.8962C35.1366 37.6103 34.5616 35.6165 33.3618 33.0195C32.0847 30.2556 31.0459 28.8455 30.6218 28.705C29.7805 28.4263 29.8212 27.969 29.8779 27.7853C30.0253 27.3046 30.7792 26.9692 31.3636 26.9692C31.4917 26.9692 31.6112 26.9844 31.719 27.0148C31.8136 27.0417 31.903 27.0549 31.9921 27.0549C32.199 27.0549 32.3813 26.982 32.5744 26.905C32.8061 26.8128 33.0675 26.7085 33.3946 26.7085C33.4523 26.7085 33.5117 26.7116 33.5738 26.7185C34.5982 26.8321 34.5909 27.4361 34.5795 28.4366C34.5692 29.3459 38.3169 35.7125 39.3364 36.147C40.1756 36.5048 40.5448 36.8336 40.571 37.2466C40.5935 37.6127 40.3158 37.9591 39.7208 38.3061L39.6714 38.3348L39.5857 38.3455C39.5502 38.3417 39.3285 38.3182 39.0025 38.3182C38.3045 38.3182 37.0574 38.4243 36.5487 39.135C36.2621 39.536 35.9644 39.7387 35.6643 39.7387ZM31.3626 27.5194C30.9219 27.5194 30.4536 27.7857 30.4045 27.9469C30.3969 27.9718 30.4784 28.0775 30.7951 28.1824C31.796 28.514 33.2734 31.5141 33.8622 32.7888C34.6185 34.4257 35.8214 37.3875 35.531 38.1031C35.3372 38.5807 35.4522 39.0832 35.6214 39.1764C35.6339 39.1833 35.6467 39.1865 35.6615 39.1865C35.7454 39.1865 35.9053 39.0891 36.1011 38.8152C36.7552 37.9017 38.1864 37.7653 38.9818 37.7653C39.2207 37.7653 39.4121 37.7774 39.5184 37.786C39.9957 37.4935 40.0247 37.3267 40.0216 37.2815C40.0168 37.2059 39.9197 36.9942 39.1206 36.6536C37.8853 36.1273 34.0162 29.5697 34.0294 28.4308C34.0414 27.3502 34.0049 27.3201 33.5138 27.2659C33.473 27.2614 33.434 27.259 33.3956 27.259C33.1726 27.259 32.9909 27.3315 32.7806 27.4154C32.5557 27.5049 32.3029 27.6057 31.9949 27.6057C31.8547 27.6057 31.7155 27.5857 31.5701 27.5446C31.509 27.528 31.4396 27.5194 31.3626 27.5194Z" fill="white"/>
<path d="M35.6649 39.5658C35.5717 39.5658 35.4957 39.5382 35.4394 39.5074C35.054 39.2954 34.9335 38.5726 35.1818 37.9609C35.3507 37.5448 34.605 35.2955 33.5195 32.9471C32.3716 30.4623 31.2558 28.7328 30.677 28.5411C30.0059 28.319 29.9921 28.0041 30.0436 27.8362C30.1817 27.3859 31.0952 27.0188 31.6726 27.1814C32.067 27.293 32.345 27.1828 32.6389 27.0657C32.9062 26.9594 33.1832 26.8489 33.5551 26.8906C34.424 26.987 34.4189 27.4408 34.4075 28.4358C34.3964 29.4079 38.1735 35.8395 39.2694 36.3064C40.0298 36.6307 40.3783 36.9242 40.3993 37.2582C40.4176 37.5524 40.1676 37.8466 39.6347 38.1578L39.6054 38.1751L39.5715 38.1713C39.5481 38.1689 37.2048 37.9243 36.4088 39.0357C36.1087 39.4543 35.8524 39.5658 35.6649 39.5658ZM31.3632 27.3465C30.8901 27.3465 30.3216 27.6297 30.2397 27.8963C30.171 28.1205 30.5247 28.2745 30.7415 28.3463C31.7037 28.6651 33.254 31.8827 33.7061 32.8611C34.7024 35.0179 35.5944 37.4885 35.3717 38.0383C35.1482 38.5895 35.2778 39.1842 35.5385 39.3279C35.7247 39.4301 35.9816 39.2802 36.2423 38.9159C37.0625 37.7703 39.2469 37.9337 39.5602 37.9634C39.9939 37.7057 40.2074 37.4726 40.1949 37.2709C40.1797 37.0309 39.8506 36.7771 39.1893 36.4953C38.0106 35.9931 34.1906 29.4739 34.2027 28.4334C34.2148 27.3911 34.1944 27.168 33.5334 27.0947C33.2105 27.0588 32.9704 27.1548 32.7156 27.2564C32.4034 27.3807 32.0798 27.5099 31.6177 27.379C31.5383 27.3565 31.4523 27.3465 31.3632 27.3465Z" fill="white"/>
<path d="M33.7936 26.1435C33.7936 26.1435 31.7536 25.9087 30.4731 26.864C29.1922 27.8192 29.3904 22.5515 28.7176 21.9717C28.0449 21.3918 27.9593 21.6049 27.7009 21.1463C27.4426 20.6877 28.2711 20.6559 28.9038 20.6341C29.5368 20.6124 30.1771 19.9976 30.2638 20.8821C30.3505 21.7665 31.0664 23.4805 31.7961 24.0107C32.5262 24.5408 34.0827 25.8762 33.7936 26.1435Z" fill="white"/>
<path d="M30.1839 27.2551C30.1066 27.2551 30.0313 27.2399 29.9591 27.2095C29.3516 26.9543 29.1782 25.681 28.9776 24.2063C28.8702 23.4189 28.7237 22.3407 28.5376 22.1808C28.2565 21.938 28.0876 21.8462 27.9647 21.7792C27.7844 21.6804 27.6414 21.6027 27.4608 21.2819C27.3227 21.0374 27.3858 20.8523 27.4359 20.7642C27.6241 20.4285 28.1591 20.3846 28.8944 20.3598C29.0512 20.3543 29.2235 20.2986 29.3903 20.2451C29.5643 20.1892 29.7419 20.1318 29.9104 20.1318C30.0327 20.1318 30.1417 20.1626 30.234 20.223C30.4657 20.3743 30.5182 20.6568 30.5382 20.8561C30.6156 21.6459 31.2966 23.3088 31.958 23.7891C31.979 23.8043 34.0622 25.336 34.1037 26.0294C34.1109 26.1531 34.0677 26.2657 33.9814 26.3461L33.8875 26.4325L33.7621 26.418C33.7258 26.4145 33.5269 26.3959 33.2392 26.3959C32.6131 26.3959 31.4424 26.4853 30.6374 27.0855C30.4857 27.1978 30.3335 27.2551 30.1839 27.2551ZM27.9477 21.0184C28.0496 21.1976 28.0924 21.2211 28.2285 21.2957C28.3746 21.3755 28.5732 21.4839 28.8971 21.7633C29.2407 22.0593 29.3651 22.9727 29.5225 24.129C29.6393 24.9841 29.8548 26.5685 30.1725 26.7015C30.1749 26.7018 30.178 26.7022 30.1815 26.7022C30.2022 26.7022 30.2416 26.6929 30.3082 26.6431C31.2438 25.9455 32.5316 25.8412 33.2157 25.8412C33.291 25.8412 33.3608 25.8423 33.4243 25.8443C33.1197 25.4582 32.3355 24.7427 31.634 24.2336C30.8107 23.6358 30.0806 21.8327 29.9894 20.9089C29.9711 20.7214 29.9297 20.6806 29.9297 20.6806L29.9087 20.6813C29.8285 20.6813 29.6942 20.7245 29.5643 20.7663C29.3661 20.8302 29.1465 20.9009 28.913 20.9089C28.7103 20.9165 28.1263 20.9362 27.9477 21.0184Z" fill="white"/>
<path d="M30.1848 27.083C30.1309 27.083 30.0781 27.0723 30.027 27.0509C29.5103 26.834 29.3349 25.5465 29.1494 24.1834C29.0202 23.2344 28.8866 22.2529 28.6514 22.0502C28.3568 21.7963 28.1786 21.6989 28.0484 21.6278C27.8799 21.5359 27.7687 21.4752 27.6122 21.1971C27.5207 21.0348 27.548 20.9181 27.587 20.849C27.731 20.5924 28.2446 20.5548 28.9008 20.5323C29.0821 20.5261 29.2668 20.4664 29.4454 20.4091C29.7068 20.3248 29.9537 20.2454 30.1399 20.3673C30.2691 20.4519 30.3412 20.6125 30.3668 20.8732C30.449 21.7124 31.1493 23.415 31.857 23.9289C32.261 24.2224 33.9008 25.5206 33.9319 26.04C33.9374 26.1319 33.898 26.1889 33.8642 26.2203L33.8296 26.2524L33.783 26.2469C33.7626 26.2452 31.7675 26.0286 30.535 26.9476C30.4137 27.0374 30.2963 27.083 30.1848 27.083ZM29.9102 20.5096C29.8018 20.5096 29.6585 20.5558 29.5086 20.6042C29.3256 20.6632 29.1183 20.7302 28.9084 20.7371C28.5181 20.7506 27.8654 20.7731 27.7663 20.9495C27.759 20.9623 27.7376 21.001 27.7911 21.0967C27.9189 21.3232 27.9904 21.3622 28.1469 21.4479C28.285 21.5235 28.4746 21.6268 28.7854 21.8948C29.0797 22.1483 29.206 23.0786 29.3528 24.1558C29.5065 25.2851 29.6978 26.69 30.1064 26.8616C30.1382 26.8751 30.2345 26.9148 30.4124 26.7826C31.5803 25.9116 33.3254 26.001 33.725 26.0349C33.6673 25.6943 32.5031 24.6517 31.7368 24.095C30.9628 23.5328 30.2483 21.7652 30.1627 20.8932C30.1444 20.7047 30.0988 20.5855 30.0276 20.5389C29.9965 20.5182 29.9565 20.5096 29.9102 20.5096Z" fill="white"/>
<path d="M29.6295 19.7717C29.7321 19.9844 29.5187 20.191 29.3042 20.0877C28.9291 19.9078 28.3942 19.9689 28.0385 20.115C27.3305 20.4061 27.2134 19.4971 27.3042 18.8399C27.3951 18.1827 26.4402 16.4504 26.4208 15.9252C26.4043 15.4745 27.5073 15.366 29.6295 19.7717Z" fill="white"/>
<path d="M27.7893 20.4459C27.638 20.4459 27.4964 20.3986 27.381 20.3091C26.9134 19.9472 26.9956 19.0645 27.0319 18.8027C27.074 18.4957 26.7794 17.7611 26.5429 17.1709C26.3267 16.6321 26.1561 16.2063 26.1457 15.9356C26.1378 15.7031 26.2787 15.5108 26.4973 15.4566C26.5398 15.4459 26.5847 15.4407 26.6313 15.4407C27.4056 15.4407 28.5891 16.9758 29.8779 19.6526C29.9753 19.8546 29.9384 20.0853 29.7833 20.2404C29.6869 20.3374 29.5581 20.3906 29.421 20.3906C29.3399 20.3906 29.2605 20.3723 29.1852 20.3361C29.0709 20.2811 28.9216 20.2521 28.7545 20.2521C28.5511 20.2521 28.3228 20.296 28.1432 20.3699C28.0203 20.4203 27.9011 20.4459 27.7893 20.4459ZM26.709 16.0053C26.7549 16.2201 26.9124 16.6132 27.0536 16.9658C27.3548 17.7166 27.6394 18.4263 27.5769 18.8776C27.5157 19.319 27.5789 19.7659 27.7178 19.8733C27.7312 19.8837 27.7516 19.8954 27.7889 19.8954C27.8276 19.8954 27.8766 19.8833 27.9336 19.8602C28.1802 19.7586 28.4786 19.7006 28.7524 19.7006C28.9697 19.7006 29.1665 19.7348 29.3388 19.8025C27.9471 16.9354 27.0343 16.12 26.709 16.0053Z" fill="white"/>
<path d="M27.79 20.273C27.6539 20.273 27.5547 20.2243 27.4874 20.1725C27.1745 19.9301 27.1355 19.3181 27.2036 18.826C27.2523 18.4741 26.9608 17.7475 26.7038 17.1065C26.5021 16.6037 26.3281 16.1692 26.3191 15.9292C26.3136 15.7783 26.3999 15.6588 26.5391 15.6242C27.0599 15.494 28.1712 16.5056 29.7229 19.727C29.7882 19.8621 29.764 20.0157 29.6618 20.118C29.5571 20.223 29.3996 20.2471 29.2605 20.1801C28.9085 20.0113 28.4009 20.0772 28.078 20.2098C27.9682 20.2554 27.8722 20.273 27.79 20.273ZM26.6368 15.8176C26.6192 15.8176 26.603 15.8194 26.5885 15.8232C26.5439 15.8342 26.5222 15.8674 26.5242 15.9212C26.5315 16.1257 26.708 16.565 26.8941 17.0298C27.1735 17.7271 27.4625 18.4478 27.4063 18.8536C27.3462 19.287 27.3855 19.8338 27.6124 20.0099C27.7085 20.0845 27.8352 20.0876 27.9996 20.0199C28.3753 19.8655 28.9386 19.7978 29.3492 19.995C29.4214 20.0292 29.4829 20.0064 29.5164 19.9726C29.5571 19.9315 29.5654 19.8731 29.5378 19.8158C28.0044 16.632 27.0012 15.8176 26.6368 15.8176Z" fill="white"/>
<path d="M39.2358 64.5534C40.1931 64.5075 40.744 63.5163 40.287 62.7033C39.8913 61.9995 39.0649 60.6713 37.3868 58.3782C34.5404 54.4895 33.123 48.9752 33.1786 48.2897C33.2342 47.6042 32.3184 46.8996 31.675 46.8364C31.0316 46.7732 30.4497 46.9463 29.7507 47.5686C29.0514 48.1909 28.8907 50.1715 30.0788 50.5186C31.2668 50.8657 36.0503 60.8574 35.9018 61.6873C35.7532 62.5172 36.5268 63.9756 37.2383 64.1991C37.6137 64.3175 38.4736 64.59 39.2358 64.5534Z" fill="white"/>
<path d="M39.0958 64.832C38.3329 64.832 37.5144 64.5747 37.1649 64.4649C36.3174 64.1986 35.4572 62.6141 35.6312 61.6392C35.6931 60.9405 31.0197 51.0807 30.002 50.7827C29.4853 50.6321 29.1255 50.2152 28.989 49.6105C28.807 48.8017 29.0612 47.8143 29.5682 47.3633C30.2009 46.8004 30.7763 46.5493 31.4331 46.5493C31.5215 46.5493 31.6109 46.5538 31.7021 46.5631C32.4412 46.6356 33.526 47.4196 33.4531 48.3123C33.4051 48.9095 34.7547 54.3167 37.6087 58.2164C39.2899 60.5126 40.1236 61.8509 40.5269 62.5692C40.7877 63.032 40.7918 63.5825 40.5376 64.0415C40.279 64.5084 39.7972 64.803 39.2491 64.8289C39.1987 64.8309 39.1473 64.832 39.0958 64.832ZM31.4379 47.0998C30.9151 47.0998 30.4654 47.3015 29.9343 47.7743C29.582 48.0879 29.3914 48.8894 29.5264 49.4896C29.6193 49.902 29.8314 50.1593 30.1567 50.2546C31.4549 50.6342 36.3513 60.7399 36.1731 61.7359C36.0508 62.4197 36.7484 63.7569 37.321 63.9365C37.6805 64.0494 38.4203 64.2815 39.0924 64.2815C39.1362 64.2815 39.1797 64.2804 39.2233 64.2784C39.5797 64.2611 39.8915 64.0725 40.0566 63.7738C40.2172 63.4834 40.2137 63.1335 40.0479 62.8382C39.6511 62.132 38.8289 60.8131 37.1653 58.541C34.3555 54.7027 32.8401 49.0697 32.905 48.2674C32.9468 47.7487 32.1404 47.1589 31.6486 47.1105C31.5771 47.1033 31.507 47.0998 31.4379 47.0998Z" fill="white"/>
<path d="M39.0956 64.66C38.3596 64.66 37.5677 64.411 37.2168 64.3008C36.4443 64.0581 35.642 62.5599 35.8009 61.6703C35.9252 60.9751 31.2139 50.9581 30.0501 50.6179C29.5963 50.4853 29.2793 50.1144 29.1574 49.5732C28.9906 48.8325 29.2261 47.899 29.6826 47.4928C30.3599 46.8902 30.9601 46.6637 31.6853 46.7351C32.3605 46.8014 33.3441 47.5284 33.2812 48.2989C33.2322 48.9057 34.5901 54.3847 37.4697 58.3186C39.1446 60.6066 39.9752 61.9393 40.3768 62.6542C40.6079 63.0648 40.6114 63.5521 40.3869 63.9579C40.1576 64.372 39.7293 64.6334 39.241 64.6569H39.2406C39.193 64.659 39.1443 64.66 39.0956 64.66ZM31.4377 46.9278C30.8717 46.9278 30.3758 47.1506 29.8191 47.6462C29.4195 48.0019 29.2078 48.8639 29.3577 49.528C29.4319 49.8571 29.6222 50.2788 30.1078 50.4208C31.2947 50.7675 36.1666 60.7903 36.0029 61.7062C35.8637 62.4843 36.6098 63.8947 37.2694 64.1019C37.642 64.219 38.496 64.4877 39.2313 64.4514C39.6481 64.4314 40.0129 64.2097 40.2069 63.8581C40.3969 63.5152 40.3934 63.1025 40.1976 62.7543C39.7984 62.0443 38.9727 60.7192 37.3036 58.4395C34.5176 54.6333 33.0122 49.0715 33.0761 48.282C33.1279 47.6458 32.2327 46.9952 31.6646 46.9392C31.588 46.9316 31.5123 46.9278 31.4377 46.9278Z" fill="white"/>
<path d="M31.8135 46.3808C31.8135 46.3808 29.7524 46.3497 29.1483 47.4103C28.544 48.4712 27.9362 47.5066 28.1772 46.6695C28.4183 45.8323 24.7289 39.2423 23.4756 38.9557C22.2223 38.669 23.4735 37.7711 24.1608 37.8961C24.848 38.0211 25.0894 37.4896 25.7359 37.4997C26.3824 37.5093 26.4235 37.7777 26.5057 38.6576C26.5882 39.5379 30.3557 44.6771 31.3666 44.998C32.3771 45.3192 32.7414 45.707 31.8135 46.3808Z" fill="white"/>
<path d="M28.6062 48.1532C28.5281 48.1532 28.4518 48.1376 28.3782 48.1065C27.9427 47.9228 27.7297 47.23 27.9127 46.5936C27.9776 46.3453 27.3225 44.7345 26.1079 42.6748C24.7793 40.4235 23.7802 39.308 23.4141 39.224C22.6423 39.0476 22.6412 38.6273 22.6768 38.4546C22.7724 37.9863 23.4908 37.6092 24.0216 37.6092C24.0865 37.6092 24.1497 37.6144 24.2098 37.6251C24.2651 37.6351 24.3165 37.6399 24.3646 37.6399C24.5597 37.6399 24.7071 37.5636 24.8936 37.4672C25.1167 37.3519 25.363 37.2241 25.7152 37.2241C26.6494 37.2383 26.7012 37.7926 26.7799 38.6321C26.8514 39.3974 30.5571 44.452 31.4498 44.7356C32.2075 44.9763 32.5563 45.2349 32.6157 45.6007C32.6679 45.9243 32.4586 46.2523 31.9754 46.6032L31.9288 46.6371L31.8435 46.6564L31.8117 46.483L31.8052 46.6557C31.609 46.6571 29.8733 46.693 29.3874 47.5464C29.1587 47.9491 28.8959 48.1532 28.6062 48.1532ZM24.0157 38.159C23.6459 38.159 23.2425 38.4384 23.2162 38.5655C23.2242 38.5689 23.306 38.6345 23.5371 38.6877C24.4326 38.8922 25.9649 41.3487 26.582 42.3954C26.7962 42.7584 28.667 45.9633 28.4421 46.7459C28.3247 47.153 28.4715 47.5485 28.5927 47.5992C28.5934 47.5992 28.5941 47.5992 28.5951 47.5992C28.6476 47.5992 28.764 47.5291 28.9094 47.2739C29.5124 46.2157 31.2471 46.1135 31.7223 46.1056C32.0835 45.8286 32.0749 45.7025 32.0732 45.6887C32.0697 45.6694 32.0217 45.4946 31.2837 45.2605C30.1406 44.8975 26.3265 39.6927 26.2322 38.6832C26.1479 37.7812 26.1241 37.7808 25.7321 37.7749C25.7314 37.7749 25.7311 37.7749 25.7304 37.7749C25.497 37.7749 25.3554 37.8485 25.1761 37.9418L25.1451 37.9576C24.934 38.0668 24.694 38.1908 24.3673 38.1908C24.2848 38.1908 24.1988 38.1828 24.1121 38.1666C24.0813 38.1614 24.0486 38.159 24.0157 38.159Z" fill="white"/>
<path d="M28.6069 47.9808C28.5437 47.9808 28.4891 47.9659 28.4463 47.9476C28.0937 47.7988 27.9221 47.1885 28.0795 46.6415C28.1825 46.2837 27.365 44.4651 26.2571 42.5874C25.0597 40.5577 23.9591 39.1718 23.4535 39.0561C22.8523 38.9187 22.8153 38.6424 22.8467 38.4898C22.9282 38.093 23.6759 37.7044 24.1802 37.7956C24.5162 37.8567 24.7293 37.7476 24.9741 37.6212C25.1913 37.5086 25.4137 37.3919 25.7387 37.3974C26.4933 37.4088 26.5296 37.7973 26.6094 38.6486C26.686 39.4699 30.4359 44.5949 31.3991 44.9009C32.0773 45.1164 32.4003 45.3409 32.4469 45.6289C32.4876 45.8821 32.3008 46.1552 31.8753 46.464L31.8477 46.484L31.8135 46.4837C31.7955 46.4847 29.8066 46.4653 29.2392 47.4613C29.0013 47.8782 28.7734 47.9808 28.6069 47.9808ZM24.0161 37.9866C23.6086 37.9866 23.0975 38.2884 23.0477 38.5312C23.0097 38.7156 23.3143 38.814 23.4994 38.8562C24.3518 39.051 25.9615 41.6815 26.4343 42.4834C27.4237 44.1601 28.4221 46.1942 28.2771 46.6985C28.141 47.1706 28.3023 47.6644 28.5261 47.7587C28.6836 47.8247 28.878 47.6796 29.0603 47.3598C29.6505 46.3237 31.4941 46.2789 31.7814 46.2782C32.1147 46.0316 32.2704 45.824 32.2438 45.6617C32.2127 45.468 31.9074 45.2777 31.3365 45.0964C30.2684 44.7572 26.4933 39.6153 26.4045 38.6676C26.3213 37.7787 26.2882 37.6112 25.7353 37.6029C25.4562 37.5953 25.2721 37.6982 25.068 37.8035C24.8132 37.9355 24.5504 38.0722 24.1432 37.9976C24.1024 37.99 24.06 37.9866 24.0161 37.9866Z" fill="white"/>
<path d="M25.7245 36.9147C25.7245 36.9147 23.9856 36.8588 22.9803 37.7584C21.975 38.6577 21.7305 34.1802 21.1178 33.7361C20.5051 33.2919 20.4496 33.4784 20.1957 33.1079C19.9419 32.7373 20.6381 32.6523 21.1703 32.5895C21.7025 32.5266 22.1943 31.9606 22.3369 32.7041C22.4792 33.4477 23.2169 34.8498 23.8737 35.2477C24.5302 35.6455 25.9472 36.6678 25.7245 36.9147Z" fill="white"/>
<path d="M22.7254 38.1527C22.6705 38.1527 22.6159 38.1441 22.5624 38.1272C22.0067 37.9511 21.7584 36.8725 21.4707 35.6237C21.3354 35.037 21.113 34.0724 20.9562 33.9588C20.7034 33.7757 20.5566 33.7105 20.4489 33.6628C20.2896 33.5924 20.1522 33.5316 19.9685 33.2632C19.8213 33.0491 19.8656 32.8716 19.9049 32.7849C20.0486 32.4679 20.5065 32.3905 21.1375 32.3163C21.2625 32.3014 21.401 32.2438 21.5343 32.1878C21.6973 32.1194 21.8638 32.0493 22.0313 32.0493C22.1211 32.0493 22.2043 32.0697 22.2789 32.1097C22.502 32.2296 22.5731 32.4769 22.6066 32.6527C22.7323 33.3102 23.4282 34.6574 24.0153 35.0124C24.0347 35.0242 25.9296 36.188 26.0184 36.7896C26.0353 36.9057 26.0035 37.0155 25.9289 37.0991L25.8423 37.1944L25.6789 37.1899C25.4033 37.1899 23.9867 37.2272 23.163 37.9638C23.0235 38.0888 22.876 38.1527 22.7254 38.1527ZM20.4568 32.998C20.529 33.0961 20.5645 33.112 20.6719 33.1593C20.8021 33.217 20.9807 33.296 21.2798 33.5126C21.5885 33.7364 21.7567 34.4115 22.0064 35.4949C22.1584 36.1545 22.4723 37.5156 22.7286 37.6016C22.7299 37.5998 22.7541 37.5912 22.7969 37.5525C23.5605 36.8694 24.6715 36.6936 25.2935 36.6508C25.0055 36.3693 24.4146 35.8962 23.7311 35.4825C22.981 35.0283 22.2161 33.5381 22.0665 32.7552C22.0489 32.6637 22.0295 32.6188 22.0185 32.5998C21.9577 32.606 21.843 32.6544 21.7494 32.6937C21.5868 32.7621 21.4048 32.8385 21.2028 32.8623C20.8236 32.9075 20.5739 32.9528 20.4568 32.998Z" fill="white"/>
<path d="M22.7261 37.9801C22.6892 37.9801 22.6526 37.9742 22.616 37.9628C22.1535 37.816 21.9039 36.7313 21.6393 35.583C21.4653 34.8274 21.2681 33.9709 21.0581 33.8189C20.7915 33.6255 20.6343 33.5558 20.5193 33.505C20.3677 33.438 20.2679 33.3934 20.1118 33.1658C20.0175 33.0284 20.0334 32.9217 20.0628 32.8564C20.1691 32.6219 20.6029 32.5532 21.1589 32.4876C21.3092 32.47 21.4587 32.4068 21.6037 32.346C21.8206 32.2548 22.0258 32.1685 22.1984 32.2614C22.319 32.3259 22.3949 32.4603 22.4381 32.6848C22.5725 33.3876 23.2932 34.7762 23.9273 35.1599C24.293 35.3813 25.7835 36.3721 25.8485 36.8145C25.8606 36.8974 25.8295 36.9523 25.8011 36.9837L25.7694 37.019L25.7217 37.0176C25.7048 37.0179 24.0112 36.9748 23.049 37.835C22.9413 37.9314 22.8328 37.9801 22.7261 37.9801ZM22.0316 32.4268C21.9411 32.4268 21.8151 32.4796 21.6835 32.5349C21.5329 32.5981 21.362 32.6699 21.1831 32.691C20.8806 32.7269 20.3169 32.7932 20.2499 32.941C20.2385 32.9662 20.2489 33.0028 20.281 33.0498C20.4043 33.2297 20.4623 33.2553 20.6025 33.3175C20.7255 33.372 20.8944 33.4466 21.179 33.6528C21.4511 33.85 21.631 34.6319 21.8393 35.5371C22.0568 36.4809 22.3272 37.6558 22.6781 37.7673C22.7033 37.7753 22.7807 37.8001 22.913 37.6817C23.8181 36.8718 25.2659 36.8124 25.6402 36.8111C25.5553 36.5745 24.6632 35.8454 23.8213 35.3354C23.1212 34.9116 22.3777 33.4587 22.2368 32.7231C22.2071 32.5684 22.1618 32.4741 22.1017 32.442C22.0821 32.4313 22.0586 32.4268 22.0316 32.4268Z" fill="white"/>
<path d="M21.3285 31.8916C21.4362 32.0615 21.2784 32.2577 21.0881 32.1917C20.7552 32.0767 20.3501 32.0007 20.0665 32.1599C19.5026 32.477 19.4414 31.8716 19.4504 31.3055C19.4594 30.7398 18.1912 29.3919 18.2465 28.954C18.308 28.4691 19.1006 28.3724 21.3285 31.8916Z" fill="white"/>
<path d="M19.7961 32.5226C19.6987 32.5226 19.6083 32.498 19.5278 32.45C19.2059 32.2583 19.1689 31.7845 19.1765 31.301C19.18 31.0959 18.8184 30.5554 18.5791 30.198C18.2192 29.6596 17.935 29.2344 17.9751 28.9191C18.0062 28.6719 18.1554 28.4947 18.3747 28.446C18.4126 28.4374 18.4537 28.4329 18.4955 28.4329C19.1396 28.4329 20.1718 29.5466 21.5629 31.7434C21.6748 31.9209 21.6652 32.1389 21.5381 32.2991C21.4476 32.4134 21.3115 32.479 21.1648 32.479C21.1092 32.479 21.0535 32.4697 20.9997 32.4511C20.7959 32.3806 20.6101 32.3437 20.462 32.3437C20.3552 32.3437 20.2682 32.3623 20.2029 32.3993C20.0582 32.4815 19.9211 32.5226 19.7961 32.5226ZM18.529 28.9885C18.5549 29.1709 18.8657 29.6357 19.0367 29.8916C19.4107 30.4511 19.7333 30.9336 19.7274 31.31C19.7177 31.8764 19.8034 31.9707 19.813 31.9796C19.8047 31.972 19.8448 31.9696 19.9329 31.9202C20.0828 31.836 20.261 31.7935 20.463 31.7935C20.6226 31.7935 20.7997 31.8204 20.9914 31.8733C19.3637 29.3329 18.6917 29.0241 18.529 28.9885Z" fill="white"/>
<path d="M19.7955 32.35C19.7295 32.35 19.6694 32.3341 19.6159 32.3019C19.3686 32.1548 19.342 31.7149 19.3486 31.3042C19.3527 31.0459 19.0177 30.5444 18.7218 30.102C18.3954 29.6137 18.1136 29.1924 18.1454 28.9413C18.1675 28.7669 18.2642 28.6478 18.4113 28.615C18.9562 28.4917 20.0238 29.6376 21.4159 31.8364C21.4881 31.9507 21.4825 32.0903 21.4017 32.1925C21.3202 32.2957 21.1841 32.333 21.055 32.2885C20.7701 32.1901 20.3764 32.1034 20.1173 32.2495C19.9985 32.3165 19.8904 32.35 19.7955 32.35ZM18.4935 28.8115C18.4773 28.8115 18.4648 28.8132 18.4558 28.8153C18.3961 28.8287 18.3602 28.8795 18.3491 28.9669C18.327 29.142 18.6275 29.5913 18.8924 29.9877C19.235 30.5006 19.5589 30.9848 19.5537 31.3073C19.551 31.4835 19.5423 32.0195 19.7205 32.1255C19.7844 32.1631 19.8839 32.1448 20.0165 32.0702C20.2783 31.9231 20.6502 31.9314 21.1216 32.0944C21.1921 32.1189 21.2301 32.0782 21.2404 32.065C21.267 32.0315 21.2677 31.987 21.2418 31.9462C19.4132 29.057 18.6869 28.8115 18.4935 28.8115Z" fill="white"/>
<path d="M41.5077 71.5514C41.5077 71.5514 43.0915 70.0516 45.4709 71.5052C47.8504 72.9584 52.2309 73.1408 54.686 71.4444C57.1412 69.7484 56.8469 69.0663 58.9094 66.8287C60.9718 64.5912 61.1966 63.3655 60.8064 63.0996C60.2894 62.7477 57.2316 58.8749 51.3758 60.4442C45.52 62.0135 43.5577 60.7885 41.1817 63.4066C38.8057 66.0247 37.5444 71.5977 41.5077 71.5514Z" fill="white"/>
<path d="M50.1697 72.9214C48.349 72.9214 46.5387 72.48 45.3282 71.7406C44.6783 71.3438 44.0342 71.1425 43.4143 71.1425C42.3609 71.1425 41.7234 71.7275 41.6965 71.7527L41.6191 71.8256L41.4579 71.8276C40.2567 71.8276 39.3975 71.329 38.973 70.3851C38.0951 68.4335 39.3249 65.0435 40.9785 63.2225C42.516 61.5282 43.8643 61.3734 46.0973 61.1165C47.4287 60.9639 49.0857 60.7739 51.3049 60.1789C52.2494 59.9261 53.1819 59.7976 54.0767 59.7976C57.6939 59.7976 59.8728 61.8562 60.693 62.6312C60.8097 62.741 60.9171 62.8422 60.961 62.8726C61.0681 62.9451 61.2017 63.0895 61.2331 63.3651C61.2846 63.813 61.0777 64.8829 59.112 67.0158C58.3349 67.8582 57.9005 68.4729 57.5175 69.0151C56.892 69.8992 56.3989 70.5961 54.8424 71.6712C53.6768 72.4772 52.017 72.9214 50.1697 72.9214ZM43.4326 70.6002C44.1527 70.6002 44.8872 70.8258 45.6155 71.2702C46.7483 71.9623 48.4513 72.375 50.1704 72.375C51.902 72.375 53.4502 71.9644 54.5302 71.2181C56.0069 70.1976 56.4521 69.568 57.0685 68.6967C57.4626 68.1399 57.9081 67.5093 58.7076 66.6418C60.6951 64.4858 60.7047 63.5851 60.6864 63.4266C60.6795 63.3654 60.6637 63.3343 60.6516 63.3264C60.5704 63.2718 60.4634 63.1707 60.3152 63.0308C59.5392 62.2973 57.4778 60.3481 54.0708 60.3481C53.2254 60.3481 52.3427 60.47 51.4479 60.71C49.19 61.3151 47.5098 61.5081 46.1595 61.6632C44.0549 61.9046 42.7847 62.0503 41.3857 63.5916C39.8471 65.2866 38.6843 68.4007 39.4752 70.1585C39.8033 70.8872 40.4536 71.2633 41.4088 71.2758C41.6651 71.0744 42.38 70.6002 43.4326 70.6002Z" fill="white"/>
<path d="M50.17 72.7489C48.3859 72.7489 46.6136 72.3234 45.4183 71.5933C43.1376 70.2005 41.6415 71.5678 41.5787 71.6265L41.5497 71.6538L41.5096 71.6544C40.3482 71.6686 39.5317 71.2044 39.1311 70.3141C38.2805 68.423 39.4896 65.12 41.1066 63.3383C42.6006 61.692 43.9243 61.5401 46.1176 61.2883C47.4552 61.1346 49.1201 60.9433 51.3501 60.3458C56.5487 58.9523 59.5795 61.816 60.5755 62.7571C60.7057 62.8804 60.809 62.9774 60.8649 63.0158C60.9416 63.0679 61.0383 63.1743 61.0625 63.3846C61.1011 63.7217 60.9761 64.7391 58.9859 66.8989C58.2023 67.7488 57.7643 68.3687 57.3775 68.9154C56.7628 69.7847 56.2772 70.4713 54.7453 71.5298C53.5203 72.3759 51.8401 72.7489 50.17 72.7489ZM43.4325 70.7734C44.0283 70.7734 44.7362 70.9361 45.5254 71.4182C47.7853 72.7986 52.1582 73.0673 54.6285 71.3606C56.1308 70.3228 56.5836 69.6825 57.21 68.7966C57.5999 68.2448 58.0424 67.6193 58.8349 66.7598C60.8221 64.6034 60.8864 63.6488 60.8584 63.4077C60.8463 63.301 60.8093 63.2261 60.7492 63.185C60.6795 63.1377 60.5766 63.0406 60.4343 62.9059C59.459 61.9842 56.4903 59.1799 51.4033 60.5437C49.1581 61.1453 47.4852 61.3377 46.1408 61.4921C43.9958 61.7383 42.7007 61.8871 41.2585 63.4761C39.6841 65.2108 38.5002 68.4112 39.3183 70.2299C39.6823 71.0394 40.4027 71.4493 41.4588 71.4493C41.4623 71.4493 41.4661 71.4493 41.4695 71.4493C41.6256 71.3188 42.3419 70.7734 43.4325 70.7734Z" fill="white"/>
<path d="M58.1554 72.9533C54.7454 73.3749 54.1676 73.5404 50.2613 74.6341C49.9142 74.7315 49.6317 74.8451 49.4014 74.9684C48.2268 73.3397 44.2262 74.592 43.4927 75.9288C43.1391 76.5747 43.8691 85.0431 45.0534 95.692C46.3543 95.7991 47.6653 95.8509 48.9925 95.8509C49.3948 95.8509 49.7971 95.8443 50.1995 95.8346C49.8327 88.7677 49.6932 81.8275 49.6967 78.3038C50.0437 78.664 50.3359 78.8975 50.3359 78.8975C51.5267 79.209 52.8407 86.0584 54.0833 95.5846C54.544 95.5359 55.0016 95.4807 55.4592 95.4192C57.0751 95.2016 58.6682 94.9067 60.232 94.5302C60.0763 87.0091 60.2158 81.5094 60.8581 80.2927C63.3568 75.578 61.5623 72.5281 58.1554 72.9533Z" fill="white"/>
<path d="M48.9928 96.1256C47.6542 96.1256 46.3211 96.072 45.0309 95.9657L44.8054 95.9467L44.7802 95.7219C43.9959 88.6701 42.754 76.7046 43.2516 75.796C43.7603 74.8687 45.5178 74.0323 47.1697 73.9304C47.2736 73.9239 47.3755 73.9207 47.4749 73.9207C48.3504 73.9207 49.0377 74.1639 49.4742 74.6253C49.6873 74.5282 49.9266 74.4422 50.187 74.369L50.2689 74.3462C54.1216 73.2677 54.7139 73.1019 58.1215 72.6802C58.3449 72.6523 58.566 72.6384 58.778 72.6384C60.0399 72.6384 61.0377 73.1174 61.6624 74.0233C62.6795 75.4976 62.4754 77.8298 61.1012 80.422C60.7123 81.1587 60.2935 84.2036 60.5069 94.5245L60.5113 94.7466L60.2958 94.798C58.7428 95.1717 57.1276 95.4725 55.4958 95.6922C55.0323 95.755 54.5671 95.811 54.1123 95.8586L53.8457 95.8866L53.8101 95.6203C51.9176 81.1089 50.7012 79.2779 50.2658 79.1639L50.2481 79.1594L50.1777 79.1238L50.1635 79.1128C50.1583 79.1086 50.0862 79.0506 49.9726 78.9501C49.9857 82.8491 50.1428 89.4399 50.474 95.8203L50.4895 96.1024L50.2064 96.1097C49.7457 96.1204 49.3599 96.1256 48.9928 96.1256ZM45.3024 95.4349C46.5069 95.5281 47.7478 95.5751 48.9931 95.5751C49.278 95.5751 49.575 95.572 49.9104 95.5654C49.5678 88.859 49.4179 82.0766 49.4217 78.3029L49.4227 77.6222L49.8952 78.1119C50.1494 78.3761 50.3721 78.5689 50.4654 78.6472C50.9768 78.7947 52.2509 79.5075 54.3216 95.2815C54.6852 95.2411 55.0544 95.1956 55.4226 95.1462C56.9597 94.939 58.4831 94.6592 59.9522 94.3131C59.7844 85.9539 60.0012 81.3251 60.6146 80.1637C61.8889 77.7587 62.1058 75.6347 61.21 74.3355C60.6923 73.5851 59.851 73.1886 58.7759 73.1886C58.587 73.1886 58.3895 73.201 58.1892 73.2259C54.8241 73.642 54.2373 73.8064 50.4191 74.8753L50.3355 74.8984C50.0271 74.9851 49.7564 75.0901 49.5312 75.2103L49.3198 75.3232L49.1789 75.1288C48.8726 74.7044 48.2661 74.4705 47.4711 74.4705C47.3841 74.4705 47.2947 74.4736 47.2035 74.4788C45.7945 74.5655 44.1413 75.3194 43.7348 76.0598C43.4968 76.5323 43.8906 82.7076 45.3024 95.4349Z" fill="white"/>
<path d="M48.9925 95.9525C47.6577 95.9525 46.3295 95.899 45.0451 95.7933L44.9608 95.7864L44.9515 95.7024C44.4604 91.2857 42.897 76.8026 43.4026 75.8788C43.8778 75.0127 45.6076 74.199 47.1797 74.1023C48.2002 74.0391 48.9949 74.2999 49.4304 74.8369C49.6628 74.7205 49.9325 74.619 50.2333 74.5347L50.3152 74.5119C54.1583 73.4361 54.7488 73.2707 58.1426 72.8511C59.6287 72.6664 60.8281 73.1167 61.5205 74.1206C62.4996 75.54 62.2913 77.8069 60.9486 80.3401C60.3687 81.4383 60.1622 86.2115 60.3342 94.5276L60.336 94.6101L60.2558 94.6294C58.709 95.0017 57.0996 95.3015 55.4727 95.5205C55.0106 95.5826 54.5468 95.6386 54.094 95.6862L53.9946 95.6969L53.9815 95.5975C52.2357 82.2136 51.0211 79.1825 50.3097 78.9963L50.2716 78.977C50.2616 78.969 50.0638 78.8098 49.7996 78.5518C49.8027 82.4277 49.9574 89.1829 50.3024 95.8285L50.3079 95.9338L50.2023 95.9366C49.7426 95.9473 49.3582 95.9525 48.9925 95.9525ZM45.1459 95.5954C46.3985 95.6962 47.6922 95.7473 48.9925 95.7473C49.3281 95.7473 49.6797 95.7428 50.0914 95.7335C49.7426 88.9736 49.5903 82.1163 49.5941 78.3029L49.5944 78.049L49.7709 78.2317C50.0627 78.5346 50.3176 78.7491 50.3836 78.8033C50.8229 78.9224 52.0855 79.5102 54.1721 95.4714C54.5913 95.4262 55.0192 95.3744 55.4454 95.3167C57.0371 95.1026 58.612 94.8104 60.1277 94.4488C59.9578 86.1486 60.173 81.3696 60.7677 80.2441C62.0731 77.7807 62.2862 75.5911 61.352 74.237C60.7048 73.299 59.5755 72.8794 58.1682 73.0545C54.7896 73.4724 54.2011 73.6371 50.3708 74.7095L50.2889 74.7323C49.9681 74.8221 49.6859 74.9319 49.4497 75.0579L49.3706 75.1L49.3181 75.0272C48.9389 74.5012 48.1826 74.2467 47.1925 74.3068C45.7075 74.3983 44.0208 75.1788 43.5829 75.9773C43.271 76.5461 43.8847 84.2426 45.1459 95.5954Z" fill="white"/>
<g opacity="0.33">
<path d="M50.6607 81.5648C57.9553 81.5648 63.8687 75.6513 63.8687 68.3567C63.8687 61.0621 57.9553 55.1487 50.6607 55.1487C43.3661 55.1487 37.4526 61.0621 37.4526 68.3567C37.4526 75.6513 43.3661 81.5648 50.6607 81.5648Z" fill="#62A0F6"/>
</g>
<g opacity="0.2">
<path d="M60.4253 70.7058C61.6971 65.32 58.3619 59.923 52.9761 58.6512C47.5903 57.3795 42.1933 60.7146 40.9216 66.1004C39.6498 71.4862 42.9849 76.8832 48.3707 78.155C53.7566 79.4267 59.1536 76.0916 60.4253 70.7058Z" fill="#62A0F6"/>
</g>
<g opacity="0.39">
<path d="M50.6596 74.6648C54.1433 74.6648 56.9675 71.8407 56.9675 68.3569C56.9675 64.8732 54.1433 62.0491 50.6596 62.0491C47.1758 62.0491 44.3517 64.8732 44.3517 68.3569C44.3517 71.8407 47.1758 74.6648 50.6596 74.6648Z" fill="#62A0F6"/>
</g>
</g>
<path d="M48.547 95.9685C47.2308 95.9685 45.9092 95.9146 44.6179 95.8086L44.5692 95.8017C43.885 95.7485 43.157 95.6739 42.4349 95.5838L42.3959 95.5776C41.5819 95.4719 40.819 95.3541 40.1183 95.2253C38.1556 94.8827 36.1664 94.3985 34.2083 93.788C14.1139 87.4939 0.613281 69.1073 0.613281 48.0348C0.613281 40.3718 2.46922 32.7478 5.98009 25.9878C8.43486 21.2478 11.6622 16.9617 15.5726 13.2471V13.2443L15.6811 13.1421C17.9638 10.9919 20.4646 9.06033 23.1127 7.40056C23.3103 7.27555 23.5119 7.15294 23.714 7.03034L23.8455 6.94919C30.0567 3.2059 36.8761 0.970093 44.1171 0.302525C49.3268 -0.170264 54.582 0.198913 59.6242 1.3928C62.405 2.04621 65.144 2.96106 67.7652 4.11212C70.2559 5.20102 72.683 6.52302 74.9789 8.04085C79.1498 10.8033 82.8457 14.1809 85.965 18.0792C92.8441 26.6589 96.4803 37.017 96.4803 48.0345C96.4803 68.9978 83.074 87.3544 63.1205 93.7123L62.7538 93.8252C61.8144 94.1195 60.7984 94.3986 59.7367 94.6527C58.1709 95.0274 56.5726 95.3244 54.9857 95.5354C54.5603 95.5952 54.1117 95.6498 53.6168 95.7019C52.3538 95.8359 51.0521 95.9195 49.7488 95.9509C49.2929 95.9619 48.9113 95.9685 48.547 95.9685ZM42.475 94.8924C42.4919 94.8941 42.5112 94.8965 42.5309 94.8996C43.2323 94.987 43.95 95.0602 44.6535 95.1165L44.7028 95.1234C45.9471 95.2246 47.2498 95.2775 48.547 95.2775C48.9065 95.2775 49.2829 95.2709 49.7329 95.2605C51.0176 95.2298 52.2999 95.1476 53.5442 95.0157C54.0312 94.9639 54.4718 94.9103 54.8925 94.8513C56.4583 94.643 58.0331 94.3505 59.5758 93.981C60.6223 93.7303 61.6231 93.4557 62.55 93.1653L62.9126 93.0537C82.5764 86.7877 95.7892 68.696 95.7892 48.0345C95.7892 37.1759 92.2055 26.9669 85.4252 18.5109C82.3512 14.6682 78.708 11.3393 74.5977 8.61655C72.3349 7.12048 69.9427 5.81781 67.4879 4.7448C64.9046 3.61031 62.2057 2.70859 59.4657 2.06485C54.494 0.887196 49.3126 0.52423 44.1796 0.990112C37.0439 1.64836 30.3233 3.85138 24.2051 7.53871L24.0932 7.60777C23.8739 7.74073 23.6757 7.86091 23.4809 7.98455C20.9115 9.59493 18.484 11.4643 16.2633 13.5423V13.5499L16.1359 13.6632C12.2303 17.3605 9.0268 21.6067 6.5931 26.3056C3.133 32.9681 1.30399 40.4816 1.30399 48.0345C1.30399 68.8034 14.6101 86.9251 34.4144 93.1283C36.3439 93.7303 38.3041 94.2072 40.2402 94.5453C40.9319 94.6721 41.6827 94.7884 42.475 94.8917V94.8924Z" fill="white"/>
</svg>
