<svg width="98" height="98" viewBox="0 0 98 98" fill="none" xmlns="http://www.w3.org/2000/svg">
<mask id="mask0_399_634" style="mask-type:luminance" maskUnits="userSpaceOnUse" x="0" y="0" width="98" height="98">
<path d="M97.0564 48.9874C97.0564 69.9959 83.6222 88.3922 63.6245 94.7643C63.505 94.802 63.3821 94.8396 63.2591 94.8769C62.279 95.1843 61.2613 95.4609 60.2335 95.7068C58.6935 96.0756 57.0918 96.3761 55.4731 96.5913C55.0121 96.6562 54.551 96.7107 54.1003 96.7584C52.8129 96.8952 51.5085 96.977 50.2244 97.0077C49.7668 97.0181 49.3842 97.0247 49.0188 97.0247C47.6906 97.0247 46.3689 96.9701 45.0814 96.8641L45.0611 96.8606C44.3372 96.8026 43.6064 96.7273 42.8926 96.6386C42.8722 96.6351 42.8518 96.6316 42.8449 96.6316C42.0834 96.5325 41.3185 96.4165 40.5739 96.2797C38.5795 95.9313 36.5854 95.4433 34.649 94.8386C14.5111 88.5314 0.981201 70.1044 0.981201 48.9864C0.981201 41.306 2.8423 33.6637 6.35973 26.8917C8.83556 22.1109 12.0933 17.7944 16.041 14.0583L16.0614 14.038C16.0718 14.0276 16.0818 14.0211 16.0818 14.0176C18.3697 11.8629 20.8763 9.92656 23.5297 8.26333C23.7345 8.13348 23.9427 8.00706 24.1513 7.88101L24.2673 7.80917C30.4892 4.05967 37.3224 1.81937 44.5793 1.15007C46.0477 1.01711 47.5435 0.94873 49.0188 0.94873C52.7683 0.94873 56.5009 1.38593 60.1209 2.24275C62.8972 2.89512 65.6427 3.81035 68.2792 4.96797C70.7788 6.06067 73.2105 7.38579 75.5085 8.90535C79.6848 11.6713 83.3901 15.0557 86.5183 18.9658C93.4126 27.5655 97.0564 37.9468 97.0564 48.9874Z" fill="white"/>
</mask>
<g mask="url(#mask0_399_634)">
<path d="M76.0151 42.3847C77.316 49.3056 72.3163 50.6034 68.0201 49.8702C63.7243 49.137 63.2473 44.7341 65.882 40.6068C67.605 37.9137 68.2926 18.527 68.3189 4.87378C70.8531 5.9834 73.2768 7.30712 75.5609 8.81908C75.1648 21.7975 75.2328 38.209 76.0151 42.3847Z" fill="white"/>
<path d="M70.0848 50.3282C69.4099 50.3282 68.6995 50.2654 67.9736 50.1418C66.2437 49.8468 65.007 48.9617 64.3968 47.5833C63.5517 45.6749 64.02 43.0116 65.6497 40.4587C67.3613 37.7833 68.0189 17.7117 68.0434 4.87281L68.0444 4.45288L68.4291 4.62105C70.9568 5.72825 73.4074 7.06304 75.7126 8.58915L75.8408 8.67414L75.8356 8.82781C75.4436 21.6922 75.504 38.1608 76.2856 42.3337C76.8074 45.1093 76.3812 47.219 75.0192 48.6039C73.9258 49.7163 72.1738 50.3282 70.0848 50.3282ZM68.5925 5.29624C68.5797 8.58538 68.4032 37.1761 66.1135 40.7554C64.5833 43.1518 64.1298 45.6211 64.9 47.361C65.4321 48.5625 66.5269 49.3367 68.0658 49.5985C68.7628 49.7177 69.4428 49.7781 70.0875 49.7781C72.0253 49.7781 73.6374 49.2241 74.6262 48.2184C75.8542 46.97 76.2303 45.0243 75.7437 42.4362C74.9591 38.2457 74.8924 21.8231 75.2799 8.96423C73.1574 7.56865 70.9091 6.33575 68.5925 5.29624Z" fill="white"/>
<path d="M70.0848 50.1555C69.4235 50.1555 68.7265 50.0947 68.0023 49.9714C66.3322 49.6865 65.14 48.8366 64.5543 47.5136C63.7327 45.658 64.1965 43.0554 65.7948 40.5516C67.5261 37.8454 68.1909 17.732 68.2154 4.87309L68.2158 4.71631L68.3594 4.77917C70.8781 5.88222 73.3197 7.21286 75.6167 8.73311L75.6644 8.76489L75.6626 8.82189C75.27 21.6946 75.3314 38.18 76.1154 42.3657V42.3654C76.6261 45.0826 76.2159 47.1409 74.8959 48.4829C73.8191 49.5784 72.1228 50.1555 70.0848 50.1555ZM68.4206 5.03059C68.3947 16.1627 67.8511 37.7183 65.9679 40.6621C64.4065 43.1075 63.9486 45.6379 64.7422 47.4306C65.2989 48.6874 66.4379 49.4962 68.0369 49.769C70.924 50.2622 73.3712 49.7411 74.7495 48.3396C76.0197 47.048 76.4113 45.0512 75.9137 42.4041C75.1284 38.2111 75.0648 21.7484 75.4558 8.87332C73.2262 7.40108 70.8601 6.10879 68.4206 5.03059Z" fill="white"/>
<path d="M65.8577 51.197C64.5684 51.0271 63.2561 51.3911 62.2563 52.2227C61.7314 52.6592 61.2803 53.206 61.1218 53.859C60.6594 55.7678 61.1971 60.4846 63.6933 61.1007C66.1892 61.7168 66.7397 58.6311 69.507 57.9248C72.2743 57.2186 72.716 57.2234 75.8024 57.6986C78.8889 58.1738 79.9305 57.1544 79.3703 54.4986C78.8101 51.8428 75.1518 49.8128 73.3777 50.4942C71.8468 51.0824 68.6826 51.5693 65.8577 51.197Z" fill="white"/>
<path d="M64.3179 61.4558C64.0972 61.4558 63.8651 61.4262 63.6279 61.3674C60.9227 60.6999 60.374 55.7793 60.8547 53.7935C61.0084 53.1584 61.4211 52.5585 62.0807 52.0104C62.9572 51.2817 64.0779 50.8805 65.2369 50.8805C65.4558 50.8805 65.6769 50.895 65.8938 50.9236C66.5334 51.0079 67.223 51.0507 67.9431 51.0507C69.8967 51.0507 71.9913 50.7312 73.2791 50.237C73.5406 50.1365 73.8414 50.0854 74.1729 50.0854C74.9006 50.0854 75.7626 50.3365 76.5987 50.7913C77.8389 51.4658 79.289 52.7788 79.6395 54.441C79.9313 55.8238 79.7977 56.787 79.231 57.3848C78.7854 57.8562 78.0903 58.0852 77.106 58.0852C76.7089 58.0852 76.2561 58.0466 75.7602 57.9702C74.3038 57.7461 73.4832 57.639 72.759 57.639C71.8373 57.639 71.0444 57.8158 69.5749 58.1909C68.4069 58.4889 67.6274 59.2687 66.9402 59.9567C66.2042 60.694 65.4434 61.4555 64.3179 61.4558ZM65.2372 51.4316C64.206 51.4316 63.21 51.7877 62.4326 52.4342C61.8659 52.9049 61.515 53.406 61.3897 53.9237C60.9728 55.645 61.4646 60.2671 63.7595 60.8332C63.9532 60.8812 64.1414 60.9054 64.3183 60.9054C65.2151 60.9054 65.834 60.2858 66.5503 59.5688C67.289 58.8298 68.1247 57.9933 69.4392 57.6584C71.0029 57.2591 71.8103 57.092 72.7628 57.092C73.5347 57.092 74.3718 57.2001 75.8444 57.4266C76.3169 57.4995 76.7437 57.5361 77.1129 57.5361C77.9328 57.5361 78.495 57.3631 78.8317 57.007C79.2644 56.5498 79.3525 55.7479 79.1011 54.5554C78.7893 53.0762 77.4683 51.8909 76.3359 51.2752C75.5768 50.8621 74.8097 50.6349 74.1764 50.6349C73.9125 50.6349 73.6773 50.6739 73.477 50.7513C72.1329 51.2676 69.9586 51.6016 67.9379 51.6016C67.1951 51.6016 66.4833 51.5573 65.8219 51.4703C65.6313 51.4444 65.4344 51.4316 65.2372 51.4316Z" fill="white"/>
<path d="M64.3185 61.2831C64.1161 61.2831 63.9006 61.2569 63.6696 61.1999C61.0683 60.5583 60.5545 55.7692 61.0231 53.8346C61.1681 53.2364 61.5612 52.6673 62.1918 52.1434C63.2033 51.3021 64.5443 50.9194 65.8722 51.0949C68.6067 51.4554 71.7619 51.0048 73.3419 50.398C74.1393 50.092 75.3266 50.2954 76.5174 50.9429C77.7237 51.5991 79.1334 52.8721 79.4719 54.4769C79.7509 55.8 79.6314 56.7124 79.1072 57.2663C78.527 57.88 77.4412 58.0541 75.788 57.7996C72.6546 57.3171 72.2454 57.3316 69.5336 58.0237C68.3194 58.3335 67.522 59.1316 66.8188 59.8355C66.0781 60.5766 65.3718 61.2828 64.3185 61.2831ZM65.2378 51.2586C64.1731 51.2586 63.1363 51.6247 62.3227 52.3012C61.7269 52.7961 61.3567 53.3283 61.2224 53.8829C60.7814 55.704 61.2818 60.3994 63.7186 61.0006C65.0382 61.3263 65.7959 60.5683 66.6727 59.6907C67.3949 58.9682 68.213 58.1491 69.4822 57.8255C72.2039 57.1306 72.6774 57.1133 75.8184 57.5975C77.4001 57.8407 78.4265 57.687 78.9573 57.1258C79.4318 56.6243 79.5344 55.7716 79.2702 54.5197C78.9462 52.9829 77.5849 51.7576 76.4186 51.1235C75.28 50.5043 74.1569 50.3044 73.4147 50.5896C71.8109 51.2057 68.6133 51.6633 65.8446 51.2986C65.6425 51.2717 65.4398 51.2586 65.2378 51.2586Z" fill="white"/>
<path d="M66.584 64.5802C66.2438 62.8341 67.0674 61.0628 68.5756 60.12C69.3647 59.6265 70.2713 59.1637 71.0135 59.066C72.7261 58.8401 75.9185 58.9969 77.9913 58.531C80.0641 58.0648 82.1604 56.2552 84.0975 57.8642C86.009 59.4521 85.5483 71.3619 79.3316 70.2019C79.142 70.1667 78.9479 70.1522 78.7549 70.146C74.9494 70.0254 75.3994 66.4431 73.7991 66.4258C72.4294 66.4109 67.3434 68.4765 66.584 64.5802Z" fill="white"/>
<path d="M80.1666 70.5572C79.8814 70.5572 79.584 70.5286 79.2825 70.4723C79.1302 70.4443 78.96 70.4281 78.7476 70.4215C76.288 70.3438 75.4767 68.8819 74.8845 67.8144C74.4915 67.1068 74.2473 66.7062 73.7976 66.701C73.5434 66.7021 73.1142 66.7815 72.5792 66.8861C71.787 67.0412 70.8003 67.2346 69.8309 67.2346C69.526 67.2346 69.2386 67.2146 68.9768 67.1752C67.4953 66.9528 66.5998 66.0974 66.3145 64.6331C65.9588 62.8079 66.8091 60.9001 68.4305 59.8869C69.4496 59.2497 70.3072 58.8819 70.9785 58.7931C71.6692 58.702 72.5913 58.6722 73.5676 58.6408C75.0419 58.5928 76.7052 58.5386 77.9319 58.2623C78.501 58.1346 79.0898 57.8942 79.6597 57.6618C80.5327 57.3054 81.4355 56.9365 82.3393 56.9365C83.0614 56.9365 83.6944 57.171 84.2746 57.6524C85.6426 58.7887 85.8608 64.0781 84.2504 67.5095C83.5981 68.8996 82.36 70.5572 80.1666 70.5572ZM73.8021 66.1505C74.5957 66.1588 74.9701 66.8333 75.3662 67.5475C75.953 68.6046 76.6181 69.8027 78.7652 69.871C79.0066 69.8783 79.2031 69.8976 79.3837 69.9315C79.6483 69.9808 79.9083 70.0057 80.157 70.0057C82.0699 70.0057 83.1681 68.5211 83.7528 67.2754C85.2858 64.0094 84.967 58.943 83.9237 58.0762C83.4444 57.678 82.9253 57.4842 82.3368 57.4842C81.5525 57.4842 80.7347 57.8179 79.8689 58.1708C79.2777 58.4122 78.6668 58.6616 78.0534 58.7997C76.776 59.0867 75.0851 59.1419 73.5935 59.1906C72.6238 59.2221 71.7148 59.2518 71.051 59.3395C70.4587 59.4172 69.6755 59.7584 68.723 60.3538C67.2936 61.2472 66.5431 62.9246 66.8553 64.5277C67.0981 65.7731 67.7981 66.4417 69.059 66.6313C69.2942 66.6669 69.5543 66.6845 69.8319 66.6845C70.7454 66.6845 71.701 66.4973 72.4691 66.3467C73.0337 66.2365 73.4727 66.1509 73.7855 66.1509H73.8021V66.1505Z" fill="white"/>
<path d="M80.1667 70.3845C79.8977 70.3845 79.6138 70.3586 79.3144 70.3027C79.1535 70.2726 78.9749 70.2557 78.7536 70.2488C76.392 70.1742 75.6084 68.762 75.0362 67.7308C74.6653 67.0625 74.3721 66.5349 73.8002 66.5286C73.5232 66.5293 73.0711 66.6143 72.5469 66.7168C71.5467 66.9127 70.1764 67.1806 69.0032 67.0045C67.6021 66.7942 66.7546 65.985 66.4849 64.5998C66.1426 62.8444 66.9618 61.0092 68.5228 60.0332C69.5212 59.4092 70.3552 59.0496 71.0017 58.9643C71.6835 58.8746 72.6018 58.8449 73.5739 58.8131C75.0514 58.7651 76.726 58.7109 77.9706 58.4308C78.5522 58.3003 79.1486 58.0568 79.7257 57.8216C81.2035 57.2183 82.732 56.5949 84.1652 57.7857C85.4614 58.8621 85.6468 64.1305 84.0951 67.4362C83.4397 68.8314 82.2437 70.3845 80.1667 70.3845ZM73.786 66.3231C73.7915 66.3231 73.7967 66.3231 73.8022 66.3231C74.4936 66.3307 74.8283 66.9334 75.2154 67.631C75.7942 68.6743 76.515 69.9725 78.7598 70.0433C78.9922 70.0506 79.1804 70.0689 79.352 70.101C81.8327 70.5638 83.1996 68.8597 83.9087 67.3485C85.5014 63.9554 85.1398 58.8622 84.0337 57.9432C82.6951 56.8311 81.2902 57.4044 79.8027 58.0112C79.218 58.2498 78.6137 58.4964 78.0152 58.6311C76.7515 58.915 75.0666 58.9699 73.5802 59.0182C72.6132 59.0497 71.6997 59.0793 71.028 59.1678C70.4108 59.2489 69.6045 59.5988 68.6313 60.2069C67.1417 61.1384 66.3598 62.8876 66.6859 64.5604C66.9411 65.8697 67.7088 66.6025 69.0332 66.8014C70.1722 66.9727 71.5215 66.7082 72.5068 66.5152C73.0549 66.4081 73.489 66.3231 73.786 66.3231Z" fill="white"/>
<path d="M59.3272 54.3184C59.2612 56.1923 59.4356 60.8535 62.5859 62.774C62.9551 62.9992 63.0829 63.4868 62.8349 63.8408C62.2976 64.6082 60.9093 65.3048 59.2243 63.3438C56.7819 60.5019 57.2975 58.7959 55.7048 58.0057C54.1123 57.2156 53.1198 57.0943 53.6803 56.3277C54.198 55.619 55.2627 53.7382 58.5274 53.5337C58.9729 53.5058 59.3431 53.8729 59.3272 54.3184Z" fill="white"/>
<path d="M61.3955 64.8927C60.8464 64.8927 59.9875 64.6551 59.0157 63.5241C57.7727 62.0778 57.2882 60.9409 56.8987 60.0277C56.5205 59.1405 56.2922 58.6053 55.5829 58.2533C55.2154 58.0706 54.8808 57.9249 54.5855 57.7961C53.8571 57.4787 53.3778 57.2701 53.2687 56.8671C53.2099 56.6502 53.2721 56.4209 53.4586 56.1664C53.4966 56.1142 53.5377 56.0555 53.5826 55.9916C54.16 55.1683 55.3608 53.4571 58.5108 53.2599C58.5318 53.2585 58.5526 53.2578 58.5729 53.2578C58.8423 53.2578 59.0965 53.3614 59.2892 53.549C59.4985 53.7527 59.6128 54.0369 59.6024 54.3291C59.5375 56.185 59.7119 60.7002 62.7296 62.5399C62.98 62.6922 63.1578 62.9429 63.2173 63.2271C63.2742 63.4999 63.2186 63.7745 63.0615 63.9997C62.6916 64.5274 62.1045 64.8603 61.4905 64.8903C61.4594 64.8921 61.428 64.8927 61.3955 64.8927ZM58.5429 53.809C55.6592 53.9899 54.5613 55.5554 54.0336 56.3073C53.9866 56.3743 53.9435 56.4357 53.9034 56.4903C53.788 56.6481 53.7974 56.712 53.8005 56.7234C53.8402 56.8702 54.3285 57.0833 54.8006 57.2895C55.0862 57.4134 55.4388 57.5671 55.8277 57.7595C56.7194 58.2019 57.0219 58.9123 57.4053 59.8112C57.7807 60.6912 58.2469 61.7842 59.4335 63.1646C60.0952 63.9351 60.7697 64.3423 61.3848 64.3423C61.4107 64.3423 61.4359 64.3416 61.4618 64.3402C61.9084 64.3181 62.3373 64.0726 62.6098 63.6833C62.6795 63.5839 62.7037 63.4616 62.6781 63.3394C62.6495 63.2033 62.5638 63.0831 62.4426 63.0092C59.1769 61.0182 58.9836 56.2617 59.0523 54.309C59.0571 54.1723 59.0032 54.039 58.9052 53.943C58.8143 53.8546 58.7007 53.8076 58.576 53.8076L58.5429 53.809Z" fill="white"/>
<path d="M61.3957 64.7198C60.8632 64.7198 60.0651 64.4795 59.1471 63.4113C57.9218 61.9853 57.4428 60.8622 57.0581 59.9595C56.6779 59.0674 56.4264 58.4786 55.6601 58.098C55.2874 57.9129 54.9501 57.7658 54.652 57.6359C53.972 57.3396 53.523 57.1438 53.4357 56.8212C53.3915 56.6586 53.4447 56.4773 53.598 56.2673C53.6367 56.2145 53.6785 56.1547 53.724 56.0898C54.2856 55.2896 55.4539 53.624 58.5213 53.4312C58.7603 53.4167 58.9962 53.5041 59.1685 53.6716C59.343 53.8415 59.4383 54.0784 59.43 54.3219C59.3637 56.2079 59.5439 60.799 62.6397 62.6864C62.8493 62.8142 62.9982 63.0238 63.0479 63.2618C63.0952 63.4876 63.0496 63.7142 62.9194 63.9003C62.5803 64.3845 62.0429 64.6898 61.4817 64.7177C61.4541 64.7195 61.4251 64.7198 61.3957 64.7198ZM58.5763 53.6354C58.5624 53.6354 58.5486 53.6361 58.5348 53.6368C55.5658 53.8229 54.4358 55.434 53.8926 56.2082C53.8463 56.2745 53.8035 56.335 53.7641 56.3892C53.6498 56.5457 53.6073 56.67 53.6339 56.7688C53.6954 56.9963 54.1312 57.1859 54.7339 57.4491C55.0336 57.5796 55.3738 57.7281 55.7509 57.915C56.5853 58.3287 56.8626 58.9793 57.2463 59.8797C57.6258 60.7693 58.0976 61.8765 59.3025 63.278C60.0264 64.1207 60.7765 64.552 61.4714 64.5133C61.9697 64.4888 62.4484 64.2156 62.7512 63.7832C62.8483 63.6444 62.8825 63.4745 62.8469 63.3049C62.8086 63.1226 62.6942 62.9613 62.5326 62.8629C59.3443 60.9192 59.1571 56.2383 59.2248 54.316C59.2314 54.1306 59.1589 53.9496 59.0256 53.8201C58.903 53.6996 58.7444 53.6354 58.5763 53.6354Z" fill="white"/>
<path d="M46.5983 58.216C46.2926 58.4857 46.1276 58.8815 46.1497 59.2887C46.255 61.2441 46.8521 67.3403 50.2207 68.117C54.241 69.0439 58.6922 65.8349 58.2063 64.8361C57.7204 63.837 55.8334 59.6548 54.4603 59.0155C53.0871 58.3763 52.7383 58.4436 52.2317 57.5467C51.7613 56.7134 48.7295 56.3359 46.5983 58.216Z" fill="white"/>
<path d="M51.7324 68.5591C51.1898 68.5591 50.6604 68.5004 50.1593 68.3847C46.5925 67.5627 45.9784 61.2259 45.8748 59.3029C45.8482 58.8077 46.0458 58.3363 46.4163 58.0092C47.4403 57.1058 48.8307 56.5874 50.2311 56.5874C50.5102 56.5874 50.7771 56.6088 51.0254 56.6506C51.75 56.7729 52.2635 57.0429 52.4718 57.4111C52.8116 58.013 53.0285 58.1039 53.7471 58.404C53.9696 58.4965 54.2469 58.6119 54.5767 58.7659C55.7574 59.3153 57.1178 61.911 58.2927 64.3779C58.3569 64.5129 58.4108 64.6269 58.454 64.7149C58.5562 64.9252 58.5862 65.291 58.15 65.8391C57.2766 66.9359 54.633 68.5591 51.7324 68.5591ZM50.2287 57.1379C49.6298 57.1379 48.0951 57.2629 46.7807 58.4226C46.5372 58.6374 46.4074 58.9479 46.425 59.2735C46.523 61.0991 47.0908 67.1124 50.2829 67.8483C50.7484 67.9554 51.2395 68.0103 51.7431 68.0103C54.3367 68.0103 56.8802 66.5505 57.719 65.4961C57.9649 65.1867 57.9857 65.0116 57.9587 64.9564L57.7954 64.6155C57.228 63.424 55.5043 59.8051 54.3439 59.2649C54.0286 59.1185 53.7731 59.0118 53.5472 58.9171C52.7957 58.6032 52.4248 58.4485 51.9917 57.6822C51.8743 57.4739 51.4592 57.2822 50.9336 57.1938C50.7146 57.1565 50.477 57.1379 50.2287 57.1379Z" fill="white"/>
<path d="M51.7329 68.3866C51.2228 68.3866 50.7086 68.3341 50.1985 68.2167C46.7495 67.4217 46.1496 61.186 46.048 59.2938C46.0242 58.8518 46.2003 58.4308 46.5315 58.139C47.9858 56.8556 49.8462 56.627 50.9976 56.8208C51.66 56.9323 52.1428 57.1785 52.3221 57.4959C52.6913 58.1497 52.961 58.2622 53.6817 58.563C53.9024 58.6552 54.1773 58.7699 54.5044 58.9222C55.7887 59.5197 57.4347 62.9767 58.1378 64.4531C58.2021 64.5877 58.2563 64.7021 58.2998 64.7912C58.4151 65.0281 58.3171 65.3534 58.0159 65.7316C57.1408 66.8294 54.5088 68.3866 51.7329 68.3866ZM46.6669 58.2926C46.3834 58.5427 46.2325 58.9039 46.2528 59.2828C46.3526 61.1387 46.9353 67.2535 50.2444 68.0167C53.4452 68.7555 56.8483 66.8674 57.8546 65.6034C58.0995 65.296 58.1917 65.0391 58.1147 64.8806C58.0712 64.7912 58.0166 64.6765 57.952 64.5411C57.3183 63.2101 55.6347 59.6748 54.4173 59.1084C54.0941 58.9578 53.8327 58.8487 53.602 58.7527C52.8774 58.4501 52.5466 58.312 52.1428 57.5971C51.9964 57.3377 51.5554 57.1233 50.9631 57.0234C49.8566 56.837 48.0673 57.0573 46.6669 58.2926Z" fill="white"/>
<path d="M44.9368 59.9464C45.1243 61.4207 45.5657 64.1493 46.4325 66.0505C46.6436 66.5129 46.2298 67.0126 45.7391 66.8804C43.5823 66.2981 39.3559 65.883 33.8783 68.9052C33.8517 68.92 33.8247 68.9369 33.8002 68.9552C32.1132 70.202 32.137 71.7792 30.2748 71.6493C28.3992 71.5184 26.4825 64.9833 28.9121 64.9543C31.2228 64.927 38.4939 63.5353 43.9912 59.5409C44.3601 59.2729 44.8791 59.4939 44.9368 59.9464Z" fill="white"/>
<path d="M30.4872 71.9322C30.4133 71.9322 30.3366 71.9294 30.2565 71.9239C28.8129 71.823 27.4336 68.7242 27.4954 66.5702C27.5299 65.3784 28.0452 64.6891 28.9089 64.6787C30.9565 64.6545 38.2963 63.3384 43.8296 59.3178C43.9819 59.2073 44.1601 59.1489 44.3452 59.1489C44.4644 59.1489 44.5814 59.1731 44.6923 59.2211C44.9775 59.3444 45.1709 59.6024 45.2103 59.9115C45.3944 61.3588 45.8306 64.0654 46.6836 65.9361C46.8269 66.2504 46.7779 66.6082 46.5558 66.8703C46.3911 67.0648 46.1514 67.1763 45.8979 67.1763C45.8206 67.1763 45.7432 67.1663 45.6679 67.1456C44.6871 66.8811 43.6234 66.747 42.5059 66.747C39.7544 66.747 36.8966 67.5541 34.0115 69.1455C33.9967 69.1538 33.9801 69.1645 33.9649 69.1756C33.3519 69.6287 32.9713 70.1339 32.6357 70.5801C32.0893 71.306 31.6175 71.9322 30.4872 71.9322ZM44.3452 59.6998C44.2768 59.6998 44.2105 59.7215 44.1532 59.7637C38.6217 63.7829 31.373 65.2002 28.9152 65.2299C28.364 65.2365 28.0715 65.693 28.0456 66.5868C27.9882 68.5736 29.2702 71.3033 30.2938 71.3744C30.3612 71.3793 30.4254 71.3817 30.4872 71.3817C31.343 71.3817 31.6814 70.9324 32.1933 70.252C32.5541 69.7723 32.9603 69.2336 33.6361 68.7335C33.671 68.7083 33.708 68.6845 33.7446 68.6644C36.7122 67.0271 39.6598 66.1969 42.5052 66.1969C43.6718 66.1969 44.7842 66.3374 45.8105 66.6147C45.8399 66.6227 45.8699 66.6265 45.8989 66.6265C45.9898 66.6265 46.0737 66.5868 46.1352 66.5146C46.2177 66.4172 46.2357 66.2829 46.1814 66.1644C45.2984 64.2287 44.8512 61.4594 44.6629 59.9812C44.6484 59.8669 44.5776 59.7723 44.4733 59.727C44.4326 59.7087 44.3891 59.6998 44.3452 59.6998Z" fill="white"/>
<path d="M30.4879 71.7596C30.4174 71.7596 30.3446 71.7568 30.2686 71.7517C28.9438 71.6594 27.6094 68.6345 27.6688 66.5755C27.7006 65.4732 28.1419 64.8608 28.9117 64.8518C30.9738 64.8273 38.364 63.5036 43.9315 59.4578C44.1352 59.3099 44.3942 59.2806 44.6243 59.3797C44.8525 59.4785 45.0076 59.6854 45.039 59.933C45.2245 61.39 45.6641 64.1166 46.5265 66.0078C46.6418 66.2605 46.6024 66.5482 46.4242 66.7589C46.2485 66.9661 45.976 67.05 45.7128 66.9792C43.6742 66.4291 39.4319 65.9584 33.9283 68.9947C33.9055 69.0072 33.8824 69.022 33.8613 69.0375C33.2293 69.5044 32.8408 70.0207 32.4979 70.4763C31.9622 71.188 31.5322 71.7596 30.4879 71.7596ZM44.3456 59.5272C44.2423 59.5272 44.1401 59.56 44.052 59.6239C38.5529 63.6196 31.3537 65.028 28.9138 65.057C28.0901 65.0666 27.8936 65.8914 27.8736 66.5814C27.818 68.5154 29.0771 71.4626 30.2824 71.5465C31.3782 71.6242 31.7788 71.0903 32.3338 70.3526C32.685 69.886 33.0832 69.3573 33.7394 68.8721C33.7677 68.8514 33.7985 68.8321 33.8289 68.8148C39.3956 65.7432 43.6977 66.2222 45.7663 66.7807C45.9549 66.8311 46.1424 66.7734 46.2678 66.6256C46.3942 66.4764 46.4218 66.2719 46.34 66.0924C45.4662 64.1767 45.0224 61.427 44.8356 59.9585C44.8132 59.7834 44.704 59.6374 44.5427 59.5676C44.4792 59.541 44.4122 59.5272 44.3456 59.5272Z" fill="white"/>
<path d="M27.1159 65.6695C27.2713 65.6308 27.4022 65.789 27.3387 65.9361C27.0033 66.7145 26.2225 68.9676 27.6478 70.4699C29.3946 72.3106 25.0594 69.8714 24.0616 70.2471C23.0639 70.6229 20.7221 71.6634 18.4113 70.9171C16.1005 70.1708 18.6752 66.9414 20.7117 67.5157C22.5003 68.0196 25.9341 65.9641 27.1159 65.6695Z" fill="white"/>
<path d="M20.1389 71.4521C19.4997 71.4521 18.8905 71.3599 18.3282 71.1783C17.4279 70.8875 17.0453 70.2019 17.3046 69.3437C17.6607 68.1664 18.9913 67.1718 20.2104 67.1718C20.4093 67.1718 20.6038 67.1981 20.7878 67.2499C20.9509 67.2958 21.1394 67.3189 21.349 67.3189C22.5419 67.3189 24.2355 66.5723 25.4722 66.027C26.1198 65.7414 26.6789 65.4948 27.0508 65.4019C27.0874 65.3929 27.1261 65.3877 27.1644 65.3877C27.3005 65.3877 27.4297 65.4478 27.5191 65.5521C27.6362 65.6903 27.6645 65.8785 27.593 66.0446C27.2397 66.8645 26.5573 68.9186 27.8493 70.2804C28.1691 70.6171 28.4654 70.97 28.2779 71.2615C28.2022 71.3796 28.072 71.4397 27.8914 71.4397C27.5958 71.4397 27.1244 71.2826 26.3795 71.0256C25.6729 70.7821 24.8009 70.4813 24.335 70.4813C24.2417 70.4813 24.1889 70.4941 24.1606 70.5045L23.9157 70.5984C23.1421 70.8978 21.7082 71.4521 20.1389 71.4521ZM20.2177 67.7233C19.1602 67.7233 18.0862 68.663 17.832 69.5029C17.6607 70.069 17.8848 70.4561 18.4978 70.6543C19.0151 70.8211 19.5729 70.9061 20.1558 70.9061C21.5953 70.9061 22.9232 70.3922 23.7161 70.0849L23.9665 69.9889C24.0694 69.9499 24.1906 69.9308 24.3367 69.9308C24.8941 69.9308 25.7347 70.2206 26.548 70.501C26.8585 70.6081 27.3095 70.7635 27.6158 70.8426C27.572 70.7908 27.5171 70.7297 27.4497 70.6585C26.011 69.1424 26.6184 66.9843 27.0232 65.9803C26.7062 66.0846 26.2317 66.2936 25.6943 66.5305C24.3422 67.1273 22.6603 67.8691 21.3452 67.8691C21.0859 67.8691 20.8483 67.839 20.6387 67.78C20.506 67.7423 20.3644 67.7233 20.2177 67.7233Z" fill="white"/>
<path d="M20.1397 71.2798C19.5657 71.2798 18.9717 71.2048 18.3822 71.0142C17.5709 70.7521 17.2387 70.1619 17.4708 69.3942C17.8344 68.191 19.4158 67.0433 20.742 67.4163C21.9673 67.7617 24.0335 66.8507 25.5424 66.1852C26.1827 65.903 26.7359 65.6588 27.093 65.5697C27.2021 65.5417 27.3151 65.579 27.3883 65.6647C27.4625 65.7521 27.4805 65.8712 27.4353 65.9762C27.0682 66.8275 26.3619 68.9628 27.7247 70.3988C28.1121 70.807 28.2265 71.0229 28.1332 71.1679C27.9927 71.3869 27.4829 71.2228 26.4365 70.8619C25.5728 70.5639 24.4973 70.193 24.1002 70.3425C24.0252 70.3708 23.943 70.4026 23.8536 70.4372C23.0734 70.7397 21.6789 71.2798 20.1397 71.2798ZM20.2181 67.551C19.1264 67.551 17.9557 68.4994 17.6669 69.4539C17.5523 69.8328 17.5012 70.5142 18.445 70.8194C20.5472 71.4984 22.6497 70.6841 23.7794 70.2465C23.8695 70.2116 23.9524 70.1795 24.0277 70.1512C24.4939 69.9747 25.5154 70.328 26.5032 70.6689C27.0702 70.864 27.8466 71.1313 27.965 71.0526C27.9592 71.0526 27.9592 70.9448 27.5758 70.5407C26.1291 69.0164 26.8637 66.7847 27.2467 65.8958C27.2681 65.8464 27.2408 65.8087 27.2318 65.7984C27.2211 65.7856 27.1907 65.7583 27.1431 65.7693C26.8029 65.8543 26.2573 66.0947 25.6256 66.3734C24.0881 67.0516 21.9828 67.9803 20.6867 67.6146C20.5341 67.571 20.3769 67.551 20.2181 67.551Z" fill="white"/>
<path d="M17.2536 67.4675C17.4322 67.4164 17.5693 67.6267 17.4505 67.7694C17.0247 68.2801 16.6279 69.1415 17.0547 70.402C17.81 72.6309 10.9848 69.5365 11.287 67.7525C11.5888 65.9684 13.1205 67.9313 14.6511 67.9165C15.5327 67.9075 16.5498 67.6685 17.2536 67.4675Z" fill="white"/>
<path d="M16.4457 71.4518C15.6814 71.4518 14.4337 71.0136 13.2671 70.336C12.5291 69.9067 10.8323 68.7912 11.0157 67.7065C11.0948 67.241 11.263 66.9481 11.5303 66.8106C11.6384 66.755 11.7603 66.7271 11.8929 66.7271C12.2431 66.7271 12.6251 66.9135 13.0675 67.1297C13.5706 67.376 14.1128 67.6405 14.6285 67.6405C15.4984 67.6329 16.4934 67.3981 17.1782 67.203C17.2203 67.1905 17.2645 67.1843 17.3088 67.1843C17.4642 67.1843 17.6082 67.2634 17.6945 67.3953C17.8078 67.5694 17.7954 67.7852 17.6624 67.9451C17.2894 68.3924 16.9268 69.1659 17.3157 70.3132C17.5004 70.8578 17.2873 71.1365 17.1437 71.254C16.9831 71.3855 16.7482 71.4518 16.4457 71.4518ZM11.8953 67.2779C11.8487 67.2779 11.8118 67.2852 11.7821 67.3003C11.7126 67.3363 11.6173 67.4516 11.559 67.7977C11.4892 68.2093 12.076 69.0064 13.5437 69.8598C14.6195 70.4852 15.7857 70.9051 16.4457 70.9051C16.6674 70.9051 16.7596 70.8568 16.7949 70.8278C16.8726 70.7642 16.8277 70.5888 16.7942 70.4897C16.3773 69.2599 16.685 68.3713 17.0825 67.7984C16.3991 67.9845 15.4735 68.1831 14.654 68.1914C13.9833 68.1914 13.3431 67.8778 12.8281 67.6257C12.4624 67.4468 12.1167 67.2779 11.8953 67.2779Z" fill="white"/>
<path d="M16.4465 71.2796C15.6546 71.2796 14.3927 70.7902 13.3546 70.1869C12.8031 69.8661 11.0165 68.7419 11.1868 67.7352C11.2559 67.327 11.3944 67.0752 11.6099 66.9644C11.9645 66.7824 12.4418 67.0162 12.9951 67.2866C13.5058 67.5363 14.0798 67.8208 14.651 67.8136C15.5224 67.8053 16.5325 67.567 17.2263 67.3691C17.3517 67.3332 17.4791 67.3806 17.5506 67.49C17.6218 67.5995 17.6138 67.7349 17.5303 67.835C17.1293 68.3157 16.7384 69.146 17.1531 70.3689C17.2968 70.793 17.1683 71.0116 17.0354 71.1204C16.9007 71.2305 16.6973 71.2796 16.4465 71.2796ZM11.8962 67.105C11.8247 67.105 11.7604 67.1177 11.7038 67.1467C11.5498 67.2258 11.4469 67.4296 11.3892 67.7691C11.2908 68.352 12.083 69.2102 13.4575 70.009C14.9443 70.8731 16.4911 71.301 16.9052 70.9615C17.0257 70.8628 17.0437 70.6856 16.9587 70.4345C16.5135 69.1215 16.9383 68.2246 17.3728 67.7034C17.4104 67.6582 17.3869 67.6144 17.379 67.6019C17.3707 67.5895 17.3396 67.5505 17.283 67.5663C16.5767 67.768 15.5472 68.0101 14.6535 68.0191C14.0398 68.0205 13.4364 67.7311 12.9053 67.471C12.5099 67.2776 12.1569 67.105 11.8962 67.105Z" fill="white"/>
</g>
<mask id="mask1_399_634" style="mask-type:luminance" maskUnits="userSpaceOnUse" x="0" y="0" width="98" height="98">
<path d="M97.0564 48.9874C97.0564 69.9959 83.6222 88.3922 63.6245 94.7643C63.505 94.802 63.3821 94.8396 63.2591 94.8769C62.279 95.1843 61.2613 95.4609 60.2335 95.7068C58.6935 96.0756 57.0918 96.3761 55.4731 96.5913C55.0121 96.6562 54.551 96.7107 54.1003 96.7584C52.8129 96.8952 51.5085 96.977 50.2244 97.0077C49.7668 97.0181 49.3842 97.0247 49.0188 97.0247C47.6906 97.0247 46.3689 96.9701 45.0814 96.8641L45.0611 96.8606C44.3372 96.8026 43.6064 96.7273 42.8926 96.6386C42.8722 96.6351 42.8518 96.6316 42.8449 96.6316C42.0834 96.5325 41.3185 96.4165 40.5739 96.2797C38.5795 95.9313 36.5854 95.4433 34.649 94.8386C14.5111 88.5314 0.981201 70.1044 0.981201 48.9864C0.981201 41.306 2.8423 33.6637 6.35973 26.8917C8.83556 22.1109 12.0933 17.7944 16.041 14.0583L16.0614 14.038C16.0718 14.0276 16.0818 14.0211 16.0818 14.0176C18.3697 11.8629 20.8763 9.92656 23.5297 8.26333C23.7345 8.13348 23.9427 8.00706 24.1513 7.88101L24.2673 7.80917C30.4892 4.05967 37.3224 1.81937 44.5793 1.15007C46.0477 1.01711 47.5435 0.94873 49.0188 0.94873C52.7683 0.94873 56.5009 1.38593 60.1209 2.24275C62.8972 2.89512 65.6427 3.81035 68.2792 4.96797C70.7788 6.06067 73.2105 7.38579 75.5085 8.90535C79.6848 11.6713 83.3901 15.0557 86.5183 18.9658C93.4126 27.5655 97.0564 37.9468 97.0564 48.9874Z" fill="white"/>
</mask>
<g mask="url(#mask1_399_634)">
<g opacity="0.33">
<path d="M69.7577 71.3224C77.7439 71.3224 84.2179 64.8483 84.2179 56.8621C84.2179 48.8759 77.7439 42.4019 69.7577 42.4019C61.7715 42.4019 55.2974 48.8759 55.2974 56.8621C55.2974 64.8483 61.7715 71.3224 69.7577 71.3224Z" fill="#62A0F6"/>
</g>
<g opacity="0.2">
<path d="M69.7553 67.8324C75.814 67.8324 80.7254 62.9209 80.7254 56.8622C80.7254 50.8036 75.814 45.8921 69.7553 45.8921C63.6967 45.8921 58.7852 50.8036 58.7852 56.8622C58.7852 62.9209 63.6967 67.8324 69.7553 67.8324Z" fill="#62A0F6"/>
</g>
<g opacity="0.39">
<path d="M69.7603 63.7681C73.5744 63.7681 76.6663 60.6762 76.6663 56.8621C76.6663 53.048 73.5744 49.9561 69.7603 49.9561C65.9462 49.9561 62.8542 53.048 62.8542 56.8621C62.8542 60.6762 65.9462 63.7681 69.7603 63.7681Z" fill="#62A0F6"/>
</g>
</g>
<path d="M49.0197 97.3703C47.6925 97.3703 46.3584 97.316 45.054 97.2086L45.006 97.2017C44.3142 97.1475 43.5797 97.0722 42.8506 96.9814L42.8009 96.9741C41.9935 96.8695 41.2233 96.7504 40.5122 96.6198C38.5296 96.2738 36.5214 95.7854 34.547 95.1686C14.2644 88.8162 0.636719 70.2572 0.636719 48.9869C0.636719 41.2517 2.50991 33.5562 6.05427 26.7331C8.53149 21.9489 11.7896 17.622 15.7376 13.8718V13.869L15.8464 13.7667C18.151 11.5962 20.6748 9.64634 23.3475 7.97103C23.553 7.84118 23.7633 7.71374 23.9736 7.5863L24.0876 7.51586C30.3575 3.73769 37.2407 1.48046 44.5491 0.806678C49.8002 0.33009 55.1121 0.701341 60.2015 1.90766C63.0068 2.56659 65.7717 3.49008 68.4189 4.65219C70.932 5.75111 73.3819 7.08522 75.7 8.61789C79.9102 11.4063 83.641 14.8156 86.7886 18.7506C93.7322 27.4106 97.4026 37.8662 97.4026 48.9869C97.4026 70.1467 83.8707 88.6753 63.7304 95.0933L63.3615 95.2069C62.4094 95.5053 61.3837 95.7868 60.3145 96.0424C58.7362 96.4205 57.1227 96.7203 55.5192 96.9334C55.0965 96.9928 54.6438 97.048 54.1371 97.1015C52.8638 97.2369 51.5504 97.3212 50.2333 97.3526C49.7722 97.3637 49.3871 97.3703 49.0197 97.3703ZM42.8897 96.29C42.909 96.292 42.9318 96.2951 42.9546 96.2993C43.6543 96.3856 44.3792 96.4599 45.0892 96.5165L45.1379 96.5238C46.396 96.626 47.7111 96.6795 49.0193 96.6795C49.3823 96.6795 49.7622 96.673 50.217 96.6623C51.5152 96.6312 52.8096 96.548 54.0643 96.415C54.5626 96.3622 55.0078 96.3076 55.4253 96.2489C57.0081 96.0385 58.5977 95.7429 60.1532 95.3703C61.2069 95.1185 62.2174 94.8416 63.156 94.547L63.5218 94.4344C83.373 88.1086 96.7116 69.8442 96.7116 48.9866C96.7116 38.0247 93.0937 27.7183 86.2491 19.1822C83.1461 15.3029 79.4685 11.9423 75.3184 9.1936C73.0335 7.68268 70.6188 6.36723 68.1416 5.28455C65.5321 4.13936 62.8076 3.22901 60.0427 2.5794C55.0247 1.39104 49.7877 1.02424 44.6116 1.49427C37.4086 2.15838 30.6237 4.38249 24.4464 8.10505L24.3331 8.17478C24.1245 8.30118 23.918 8.42656 23.715 8.55538C21.121 10.181 18.6704 12.0683 16.428 14.167V14.1763L16.2981 14.2896C12.357 18.0212 9.12309 22.3077 6.66693 27.0504C3.17334 33.7762 1.32708 41.3612 1.32708 48.9863C1.32708 69.953 14.7599 88.247 34.7528 94.5086C36.6985 95.1165 38.6774 95.5975 40.6338 95.9391C41.3363 96.0679 42.0943 96.1853 42.89 96.289L42.8897 96.29Z" fill="white"/>
</svg>
