<svg width="32" height="33" viewBox="0 0 32 33" fill="none" xmlns="http://www.w3.org/2000/svg">
<g clip-path="url(#clip0_194_10424)">
<path d="M0 30.5001H32M14.6667 17.1667L13.2853 15.7854C12.0358 14.5356 11.3337 12.8407 11.3333 11.0734V10.1441C12.18 9.74941 13.8 9.16808 16 9.16808C18.2 9.16808 19.82 9.74941 20.6667 10.1441V11.0734C20.667 12.8414 21.3697 14.5368 22.62 15.7867L24 17.1667M21.3333 26.5001H8.66667V25.1667C8.66667 24.1059 9.08809 23.0885 9.83824 22.3383C10.5884 21.5882 11.6058 21.1667 12.6667 21.1667C13.296 21.1667 17.6173 21.6134 22 22.0841C26.8933 22.6107 31.3333 16.5001 31.3333 16.5001M6 24.3667C6 24.3667 4.66667 26.5001 3 26.5001C2.38116 26.5001 1.78767 26.2542 1.35008 25.8167C0.912499 25.3791 0.666667 24.7856 0.666667 24.1667C0.666667 22.8787 1.712 21.8387 3 21.8387C4.66667 21.8387 6 23.9667 6 23.9667V24.3667ZM15.8027 6.50008C15.8027 6.50008 13.6693 5.16675 13.6693 3.50008C13.6693 2.21208 14.7147 1.16675 16.0027 1.16675C17.292 1.16675 18.3307 2.21208 18.3307 3.50008C18.3307 5.16675 16.2027 6.50008 16.2027 6.50008H15.8027Z" stroke="#62A0F6" stroke-width="1.5"/>
</g>
<defs>
<clipPath id="clip0_194_10424">
<rect width="32" height="32" fill="white" transform="translate(0 0.5)"/>
</clipPath>
</defs>
</svg>
