<svg width="64" height="64" viewBox="0 0 64 64" fill="none" xmlns="http://www.w3.org/2000/svg">
<g clip-path="url(#clip0_333_13606)">
<path d="M49.8254 34.1698L45.4803 32.6154L45.579 32.3267C45.6639 32.0785 45.649 31.807 45.5373 31.5696C45.4256 31.3322 45.226 31.1475 44.9806 31.0547L40.9446 29.5268C40.7166 29.4406 40.4651 29.4396 40.2365 29.5242C40.0078 29.6087 39.8174 29.7731 39.7004 29.9869L39.4439 30.4559L38.0008 29.9398V28.3838C39.875 26.9592 41.1794 24.8243 41.5119 22.3837C43.7895 22.3753 45.6398 20.5203 45.6398 18.241C45.6398 17.0841 45.1626 16.0371 44.3956 15.2847V11.9954C44.3953 5.38111 39.0143 0 32.4002 0C25.7859 0 20.4048 5.38111 20.4048 11.9954V15.285C19.6378 16.0373 19.1608 17.0842 19.1608 18.2411C19.1608 20.5205 21.0112 22.3755 23.2887 22.3838C23.6212 24.8244 24.9256 26.9593 26.7997 28.3839V29.9408L23.8582 30.9931L23.6436 30.3379C23.6014 30.2091 23.5337 30.09 23.4445 29.9879C23.3553 29.8857 23.2464 29.8026 23.1244 29.7434C23.0024 29.6842 22.8698 29.6501 22.7343 29.6433C22.5989 29.6364 22.4634 29.6569 22.3361 29.7036L18.6533 31.0509C18.4485 31.1259 18.2734 31.265 18.1542 31.4477C18.035 31.6303 17.9781 31.8467 17.9921 32.0643L18.0561 33.0688L15.0011 34.1616C14.5796 34.2918 11.1921 35.4447 10.2943 39.0965C9.48246 42.3993 7.74296 55.1858 7.67021 55.7223C7.65334 55.8405 7.27671 58.6414 8.85483 60.4594C9.70421 61.4381 10.9116 61.9342 12.4433 61.9342H19.8968L19.9682 63.054C19.9846 63.3103 20.098 63.5508 20.2853 63.7265C20.4726 63.9023 20.7198 64.0001 20.9767 64.0001H33.2815C33.4142 64.0002 33.5457 63.974 33.6683 63.9233C33.7909 63.8725 33.9023 63.7981 33.9961 63.7042C34.09 63.6104 34.1644 63.499 34.2152 63.3764C34.2659 63.2537 34.2921 63.1223 34.292 62.9896C34.2922 62.8573 34.2664 62.7263 34.2159 62.604L33.9964 61.9342H34.9758C36.151 63.2521 37.8054 64.0001 39.5928 64.0001H55.3712C55.504 64.0002 55.6354 63.974 55.758 63.9233C55.8806 63.8725 55.992 63.7981 56.0858 63.7042C56.1797 63.6104 56.2541 63.499 56.3049 63.3764C56.3557 63.2537 56.3818 63.1223 56.3817 62.9896V43.3179C56.3816 36.6724 50.1031 34.2726 49.8254 34.1698ZM12.4432 59.9129C11.5133 59.9129 10.8403 59.66 10.3856 59.1396C9.57696 58.2143 9.59583 56.5616 9.67183 56C9.68971 55.8681 11.4703 42.778 12.2567 39.5787C12.91 36.9214 15.4914 36.1239 15.5962 36.0927C15.6169 36.0868 15.6376 36.0802 15.6579 36.0729L18.1898 35.1673L19.2379 51.6041H17.6531C17.5204 51.6041 17.389 51.6303 17.2663 51.681C17.1437 51.7318 17.0323 51.8062 16.9385 51.9001C16.8447 51.9939 16.7702 52.1053 16.7195 52.2279C16.6687 52.3505 16.6426 52.4819 16.6426 52.6146C16.6426 52.8826 16.749 53.1397 16.9385 53.3292C17.128 53.5187 17.3851 53.6251 17.6531 53.6251H19.3668L19.7678 59.9129H12.4432ZM42.4051 16.3247C42.5103 16.375 42.6112 16.4337 42.7068 16.5003C42.7186 16.5086 42.7306 16.5165 42.7424 16.5251C43.2728 16.9112 43.6184 17.5365 43.6184 18.2411C43.6185 19.3772 42.7208 20.3078 41.5975 20.3607V16.123C41.6073 16.1233 41.617 16.1235 41.6268 16.1242C41.6751 16.1272 41.723 16.1318 41.7704 16.1381C41.7858 16.1401 41.8013 16.1413 41.8166 16.1436C41.9483 16.1635 42.076 16.1953 42.1985 16.2385C42.2023 16.2398 42.2058 16.2413 42.2095 16.2426C42.2661 16.2628 42.3215 16.2856 42.3756 16.3103L42.4051 16.3247ZM23.2029 20.3607C22.0796 20.308 21.1819 19.3772 21.1819 18.2411C21.1819 17.5361 21.5278 16.9108 22.0586 16.5247C22.0699 16.5165 22.0814 16.5088 22.0928 16.5008C22.1454 16.464 22.1997 16.4296 22.2554 16.3977C22.3009 16.3717 22.3476 16.3473 22.3953 16.3246C22.4052 16.3198 22.4149 16.315 22.4249 16.3105C22.4791 16.2857 22.5342 16.2631 22.5907 16.243C22.5946 16.2416 22.5983 16.2398 22.6023 16.2385C22.7248 16.1953 22.8526 16.1637 22.9841 16.1437C22.9994 16.1415 23.0151 16.1401 23.0304 16.1381C23.0778 16.1318 23.1257 16.1272 23.1739 16.1242C23.1837 16.1237 23.1934 16.1236 23.2032 16.123V20.3607H23.2029ZM23.5434 13.0092C23.4364 13.104 23.3507 13.2205 23.292 13.3509C23.2333 13.4813 23.2029 13.6226 23.2029 13.7656V14.0991C23.1817 14.0996 23.1603 14.1012 23.1391 14.1021C23.1112 14.1032 23.0833 14.1043 23.0556 14.106C23.0115 14.1087 22.9676 14.112 22.9237 14.1161C22.9018 14.1181 22.8801 14.1198 22.8583 14.1223C22.8048 14.128 22.7517 14.135 22.6987 14.1427L22.6643 14.1476C22.5843 14.16 22.5047 14.1737 22.4259 14.1907V11.9954C22.4259 6.49549 26.9004 2.02112 32.4002 2.02112C37.8998 2.02112 42.3741 6.49561 42.3741 11.9954V14.1905C42.2951 14.1737 42.2156 14.1594 42.1358 14.1475C42.1244 14.1457 42.113 14.1442 42.1015 14.1426C42.0484 14.135 41.9953 14.128 41.9418 14.1222C41.92 14.12 41.8983 14.1181 41.8764 14.116C41.8048 14.1092 41.7329 14.1045 41.661 14.102C41.6398 14.1012 41.6185 14.0995 41.5971 14.099V13.7655C41.5972 13.5101 41.5005 13.2642 41.3265 13.0772L38.1094 9.61898C37.939 9.43629 37.7071 9.32306 37.4583 9.30109C37.2094 9.27912 36.9613 9.34996 36.7615 9.49998C36.7165 9.53386 32.1952 12.877 26.2399 12.877C25.602 12.877 24.9613 12.8383 24.3354 12.7623C24.1935 12.7452 24.0495 12.7583 23.9129 12.8008C23.7764 12.8434 23.6505 12.9144 23.5434 13.0092ZM25.2239 21.1525V14.8696C25.5619 14.8887 25.9013 14.8985 26.2398 14.8985C31.4553 14.8985 35.5807 12.6687 37.2194 11.6297L39.5764 14.1632V21.1525C39.5764 24.1922 37.6449 26.7894 34.9448 27.7814L34.9378 27.7839C34.7218 27.8631 34.502 27.9316 34.2793 27.9891L34.278 27.9893C34.1541 28.0211 34.0293 28.0493 33.9038 28.0741C33.8105 28.0927 33.7168 28.1096 33.6223 28.1244C33.6083 28.1266 33.5944 28.1293 33.5804 28.1314C33.4745 28.1474 33.3677 28.1609 33.2603 28.1723C33.2355 28.1749 33.2107 28.1768 33.1859 28.1792C33.1017 28.1871 33.0173 28.1935 32.9328 28.1984C32.9024 28.2002 32.872 28.2021 32.8415 28.2034C32.7339 28.2083 32.6258 28.2117 32.517 28.2117H32.2833C32.1744 28.2117 32.0664 28.2083 31.9587 28.2034C31.9282 28.2021 31.8979 28.2002 31.8675 28.1984C31.7831 28.1935 31.6987 28.1871 31.6144 28.1792C31.5897 28.1769 31.5647 28.1749 31.5398 28.1723C31.4329 28.1612 31.3262 28.1476 31.2199 28.1314C31.2057 28.1293 31.1915 28.1266 31.1772 28.1243C31.0608 28.1059 30.9449 28.0845 30.8295 28.0603C30.7268 28.0389 30.6245 28.0153 30.5228 27.9893L30.5204 27.9888C30.2982 27.9314 30.0789 27.8632 29.8633 27.7843L29.8543 27.7811C27.1549 26.7887 25.2239 24.192 25.2239 21.1525ZM35.9794 29.5484V31.5001L32.4 34.2319L28.8207 31.5001V29.5484C28.9248 29.5914 29.0303 29.6307 29.1359 29.6697C29.1477 29.6741 29.159 29.6787 29.1707 29.6831C29.2885 29.7262 29.4075 29.7658 29.527 29.8039C29.551 29.8116 29.5745 29.8201 29.5987 29.8276C29.7077 29.8612 29.8177 29.8917 29.9278 29.9212C29.9634 29.9308 29.9984 29.9414 30.034 29.9506C30.1353 29.9764 30.2374 29.9989 30.3395 30.0213C30.3849 30.0313 30.4298 30.0424 30.4753 30.0517C30.5708 30.0709 30.6672 30.0869 30.7634 30.1033C30.816 30.1122 30.8684 30.1226 30.9214 30.1306C31.0149 30.1447 31.1089 30.1553 31.203 30.1664C31.2593 30.1732 31.315 30.1814 31.3714 30.1872C31.4718 30.1972 31.5725 30.2034 31.6735 30.2102C31.7242 30.2136 31.7742 30.2188 31.8252 30.2212C31.9773 30.2287 32.1299 30.2328 32.283 30.2328H32.5168C32.6695 30.2328 32.8222 30.2289 32.9747 30.2212C33.0258 30.2186 33.0762 30.2133 33.1269 30.2101C33.2275 30.2033 33.3282 30.1972 33.4283 30.1871C33.4852 30.1814 33.5412 30.1731 33.5977 30.1663C33.6914 30.1552 33.7852 30.1446 33.8783 30.1306C33.9315 30.1224 33.984 30.1121 34.037 30.1031C34.133 30.0869 34.2292 30.0708 34.3244 30.0516C34.37 30.0423 34.4149 30.0311 34.4604 30.0211C34.5626 29.9992 34.6645 29.9757 34.7659 29.9504C34.8017 29.9413 34.8367 29.9307 34.8722 29.9212C34.9824 29.8917 35.0923 29.8612 35.2013 29.8276C35.2254 29.8202 35.249 29.8117 35.2729 29.8039C35.3925 29.7661 35.5113 29.7258 35.6293 29.6831C35.641 29.6788 35.6524 29.6741 35.6642 29.6697C35.7698 29.6306 35.8754 29.5914 35.9794 29.5484ZM26.8045 32.0854C26.8162 32.2258 26.8572 32.3623 26.9248 32.4859C26.9924 32.6095 27.0851 32.7176 27.197 32.8032L31.787 36.3063C31.968 36.4444 32.1842 36.5136 32.4 36.5136C32.6159 36.5136 32.8322 36.4444 33.013 36.3063L37.603 32.8032C37.715 32.7175 37.8078 32.6092 37.8754 32.4855C37.943 32.3617 37.9839 32.2252 37.9955 32.0847L38.4614 32.2513L29.5863 48.4754L24.4876 32.9143L26.8045 32.0854ZM21.9248 61.9789L20.0571 32.6894L22.0486 31.9608L28.685 52.2148L28.9192 52.9293V52.9294L31.8842 61.9789H21.9248ZM33.2772 59.7393L31.2738 53.6251H33.2772V59.7393ZM39.5926 61.9789C38.2699 61.9789 37.0538 61.3724 36.2558 60.3149C36.2539 60.3123 36.2518 60.3101 36.2499 60.3078C36.2144 60.2617 36.175 60.2189 36.1322 60.1796C36.124 60.1721 36.116 60.1645 36.1077 60.1573C36.0918 60.1435 36.0752 60.1308 36.0585 60.118C36.0487 60.1106 36.0392 60.103 36.029 60.096C36.0123 60.0843 35.9949 60.0735 35.9775 60.0628C35.9672 60.0564 35.9569 60.0498 35.9464 60.0439C35.9279 60.0336 35.9091 60.024 35.89 60.0149C35.8799 60.01 35.87 60.0049 35.8599 60.0004C35.84 59.9917 35.8197 59.9836 35.7993 59.9763C35.7892 59.9725 35.7792 59.9686 35.7689 59.9653C35.7486 59.9586 35.7281 59.9527 35.7074 59.9475C35.696 59.9445 35.6848 59.9413 35.6734 59.9388C35.6543 59.9346 35.6351 59.931 35.6158 59.9279C35.6017 59.9256 35.5877 59.9231 35.5735 59.9214C35.5393 59.9175 35.5049 59.915 35.4704 59.914C35.4635 59.9139 35.4568 59.9129 35.4499 59.9129H35.2983V53.6251H39.5926C41.8958 53.6251 43.7695 55.4988 43.7695 57.8019C43.7695 60.105 41.8959 61.9789 39.5926 61.9789ZM48.7179 61.9789V47.8989C48.7179 47.7662 48.6918 47.6348 48.641 47.5122C48.5903 47.3895 48.5158 47.2781 48.422 47.1843C48.3281 47.0905 48.2167 47.016 48.0941 46.9653C47.9715 46.9145 47.8401 46.8884 47.7074 46.8884C47.5747 46.8884 47.4433 46.9145 47.3206 46.9653C47.198 47.016 47.0866 47.0905 46.9928 47.1843C46.8989 47.2781 46.8245 47.3895 46.7737 47.5122C46.723 47.6348 46.6968 47.7662 46.6969 47.8989V61.9789H44.1674C45.1749 60.8764 45.7905 59.4098 45.7905 57.8019C45.7905 54.3844 43.0101 51.6041 39.5926 51.6041H38.9854L41.5829 44.011C41.6696 43.7574 41.6521 43.4798 41.5341 43.2391C41.4161 42.9985 41.2074 42.8145 40.9538 42.7278C40.426 42.5478 39.8511 42.8288 39.6705 43.3569L36.8493 51.6041H30.6117L30.5034 51.2739L30.4494 51.1091L41.0514 31.7286L43.3501 32.5987L40.5944 40.6557C40.5515 40.7812 40.5337 40.914 40.5421 41.0465C40.5505 41.1789 40.5848 41.3084 40.6433 41.4276C40.7017 41.5467 40.783 41.6532 40.8826 41.7409C40.9822 41.8286 41.0981 41.8959 41.2236 41.9388C41.3492 41.9817 41.482 41.9995 41.6144 41.9911C41.7469 41.9827 41.8764 41.9483 41.9955 41.8899C42.1147 41.8315 42.2211 41.7501 42.3089 41.6506C42.3966 41.551 42.4638 41.4351 42.5068 41.3095L44.8263 34.5281L49.1366 36.0698C49.4118 36.1743 54.3606 38.1314 54.3606 43.3177V61.9787H48.7179V61.9789Z" fill="#0077B7"/>
</g>
<defs>
<clipPath id="clip0_333_13606">
<rect width="64" height="64" fill="white"/>
</clipPath>
</defs>
</svg>
