<svg width="500" height="500" viewBox="0 0 500 500" fill="none" xmlns="http://www.w3.org/2000/svg">
<g clip-path="url(#clip0_538_40581)">
<path d="M500 0H0V500H500V0Z" fill="white"/>
<path d="M119.659 381.338C118.936 381.604 116.403 376.132 116.169 375.592C114.01 370.608 113.446 364.953 114.36 359.583C115.241 354.402 117.205 349.148 119.883 344.994C122.126 341.515 125.188 337.968 128.913 336.936C131.004 336.357 133.163 336.947 134.656 338.96C135.979 340.743 136.619 343.234 136.834 345.531C137.524 352.888 135.789 360.002 133.488 366.63C131.744 371.652 129.355 376.974 124.992 379.267C123.285 380.165 121.443 380.682 119.659 381.338Z" fill="#62A0F6"/>
<path d="M114.498 422.718C115.196 411.638 118.286 377.69 125.583 356.242" stroke="#143087" stroke-width="0.3881" stroke-miterlimit="10"/>
<path d="M108.657 382.664C109.152 382.886 111.017 379.299 111.19 378.944C112.787 375.668 113.294 371.846 112.774 368.135C112.272 364.554 111.023 360.863 109.257 357.881C107.778 355.384 105.734 352.794 103.179 351.882C101.745 351.37 100.24 351.651 99.1654 352.939C98.2134 354.08 97.7194 355.742 97.5224 357.296C96.8924 362.271 97.9444 367.218 99.3984 371.864C100.5 375.385 102.041 379.147 105.011 380.954C106.174 381.66 107.437 382.116 108.657 382.664Z" fill="#62A0F6"/>
<path d="M99.7929 397.333C100.323 397.323 100.913 393.18 100.961 392.775C101.402 389.038 100.657 385.269 98.9949 382.052C97.3909 378.948 95.0589 376.067 92.4719 374.071C90.3049 372.399 87.5859 370.888 84.9239 371.156C83.4309 371.307 82.1229 372.224 81.5349 373.889C81.0139 375.363 81.0839 377.122 81.3949 378.649C82.3919 383.541 84.9409 387.673 87.7669 391.35C89.9089 394.137 92.5349 396.955 95.8659 397.336C97.1699 397.485 98.4859 397.357 99.7929 397.333Z" fill="#62A0F6"/>
<path d="M113.938 424.582C113.938 424.582 112.289 389.847 104.18 365.375" stroke="#143087" stroke-width="0.3881" stroke-miterlimit="10"/>
<path d="M122.697 406.065C122.183 405.914 122.412 401.722 122.444 401.315C122.74 397.559 124.197 394.087 126.44 391.397C128.604 388.802 131.435 386.618 134.341 385.363C136.775 384.312 139.717 383.566 142.257 384.536C143.682 385.081 144.777 386.323 145.027 388.1C145.248 389.674 144.839 391.368 144.239 392.773C142.318 397.271 139.035 400.615 135.569 403.443C132.942 405.586 129.838 407.63 126.521 407.114C125.222 406.912 123.964 406.437 122.697 406.065Z" fill="#E8F0FE"/>
<path d="M115.715 422.939C116.089 422.062 120.204 406.064 130.491 396.422" stroke="#143087" stroke-width="0.3881" stroke-miterlimit="10"/>
<path d="M113.096 423.597C113.096 423.597 103.744 400.367 91.9609 385.684" stroke="#143087" stroke-width="0.3881" stroke-miterlimit="10"/>
<path d="M99.1427 444.312H129.224L134.268 411.861H94.0977L99.1427 444.312Z" fill="#516CDD"/>
<path d="M94.1768 418.785H134.188C135.063 418.785 135.771 418.076 135.771 417.202V411.358C135.771 410.483 135.062 409.775 134.188 409.775H94.1768C93.3018 409.775 92.5938 410.484 92.5938 411.358V417.202C92.5928 418.076 93.3018 418.785 94.1768 418.785Z" fill="#516CDD"/>
<path d="M387.882 211.186C387.882 299.621 316.192 371.311 227.757 371.311C139.322 371.311 62.7992 299.488 67.6312 211.186C73.2172 109.095 140.303 48.663 227.756 51.061C316.158 53.485 387.882 122.751 387.882 211.186Z" fill="#E8F0FE"/>
<path d="M309.845 444.621H133.585C127.885 444.621 123.264 440 123.264 434.3V120.649C123.264 114.949 127.885 110.328 133.585 110.328H309.844C315.544 110.328 320.165 114.949 320.165 120.649V434.3C320.166 440 315.545 444.621 309.845 444.621Z" fill="#93D3F2"/>
<path d="M136.916 437.102C132.886 437.102 129.607 433.829 129.607 429.806V125.145C129.607 121.122 132.886 117.848 136.916 117.848H180.691C183.895 117.848 186.502 120.455 186.502 123.66C186.502 124.933 186.998 126.129 187.898 127.028C188.798 127.928 189.994 128.424 191.267 128.424H252.151C254.778 128.424 256.916 126.287 256.916 123.66C256.916 122.107 257.52 120.647 258.618 119.551C259.715 118.453 261.174 117.849 262.727 117.849H306.515C310.538 117.849 313.811 121.122 313.811 125.146V429.807C313.811 433.829 310.538 437.103 306.515 437.103L136.916 437.102Z" fill="white"/>
<path d="M306.514 118.371C310.266 118.371 313.287 121.405 313.287 125.145V429.806C313.287 433.545 310.253 436.579 306.514 436.579H136.916C133.164 436.579 130.13 433.545 130.13 429.806V125.145C130.13 121.406 133.164 118.371 136.916 118.371H180.691C183.612 118.371 185.978 120.738 185.978 123.659C185.978 125.119 186.57 126.441 187.527 127.398C188.484 128.355 189.806 128.947 191.266 128.947H252.15C255.071 128.947 257.438 126.58 257.438 123.659C257.438 122.198 258.03 120.876 258.986 119.919C259.943 118.962 261.265 118.37 262.725 118.37L306.514 118.371ZM306.514 117.324H262.727C261.035 117.324 259.444 117.983 258.248 119.179C257.052 120.375 256.393 121.966 256.393 123.658C256.393 125.997 254.49 127.899 252.151 127.899H191.267C190.133 127.899 189.069 127.458 188.268 126.657C187.466 125.856 187.025 124.791 187.025 123.658C187.025 120.165 184.184 117.324 180.691 117.324H136.916C132.597 117.324 129.084 120.832 129.084 125.144V429.805C129.084 434.117 132.597 437.625 136.916 437.625H306.513C310.825 437.625 314.333 434.117 314.333 429.805V125.145C314.333 120.833 310.825 117.324 306.514 117.324Z" fill="#5364AA"/>
<path d="M233.272 122.116H199.962C199.353 122.116 198.859 121.623 198.859 121.014C198.859 120.405 199.353 119.912 199.962 119.912H233.272C233.881 119.912 234.375 120.405 234.375 121.014C234.374 121.622 233.881 122.116 233.272 122.116Z" fill="white"/>
<path d="M242.145 122.416C242.876 122.416 243.468 121.823 243.468 121.093C243.468 120.362 242.876 119.77 242.145 119.77C241.415 119.77 240.822 120.362 240.822 121.093C240.822 121.823 241.415 122.416 242.145 122.416Z" fill="white"/>
<path d="M263.463 220.213C263.463 223.67 256.836 226.21 255.984 229.398C255.102 232.697 259.545 238.204 257.874 241.092C256.179 244.022 249.173 242.916 246.795 245.293C244.417 247.671 245.523 254.677 242.594 256.372C239.706 258.043 234.199 253.6 230.9 254.482C227.712 255.334 225.172 261.961 221.715 261.961C218.258 261.961 215.718 255.334 212.53 254.482C209.231 253.6 203.724 258.043 200.836 256.372C197.906 254.677 199.012 247.671 196.635 245.293C194.258 242.915 187.251 244.021 185.556 241.092C183.885 238.204 188.328 232.697 187.446 229.398C186.594 226.21 179.967 223.67 179.967 220.213C179.967 216.756 186.594 214.216 187.446 211.028C188.328 207.729 183.885 202.222 185.556 199.334C187.251 196.404 194.257 197.51 196.635 195.133C199.013 192.756 197.907 185.749 200.836 184.054C203.724 182.383 209.231 186.826 212.53 185.944C215.718 185.092 218.258 178.465 221.715 178.465C225.172 178.465 227.712 185.092 230.9 185.944C234.199 186.826 239.706 182.383 242.594 184.054C245.524 185.749 244.418 192.755 246.795 195.133C249.173 197.511 256.179 196.405 257.874 199.334C259.545 202.222 255.102 207.729 255.984 211.028C256.836 214.217 263.463 216.757 263.463 220.213Z" fill="#62A0F6"/>
<path d="M221.715 243.457C234.552 243.457 244.959 233.05 244.959 220.213C244.959 207.375 234.552 196.969 221.715 196.969C208.877 196.969 198.471 207.375 198.471 220.213C198.471 233.05 208.877 243.457 221.715 243.457Z" stroke="white" stroke-width="3.5792" stroke-miterlimit="10"/>
<path d="M211.074 216.459L215.456 225.847L236.735 214.582" stroke="white" stroke-width="3.5792" stroke-miterlimit="10" stroke-linecap="round" stroke-linejoin="round"/>
<path d="M75.5507 300.29C72.4977 300.29 70.0137 297.806 70.0137 294.753V236.553C70.0137 233.5 72.4977 231.016 75.5507 231.016H166.544C169.597 231.016 172.081 233.5 172.081 236.553V294.753C172.081 297.806 169.597 300.29 166.544 300.29H75.5507Z" fill="white"/>
<path d="M166.543 231.538C169.312 231.538 171.557 233.783 171.557 236.552V294.751C171.557 297.52 169.312 299.765 166.543 299.765H75.5502C72.7812 299.765 70.5362 297.52 70.5362 294.751V236.552C70.5362 233.783 72.7812 231.538 75.5502 231.538H166.543ZM166.543 230.492H75.5502C72.2082 230.492 69.4902 233.211 69.4902 236.552V294.751C69.4902 298.093 72.2092 300.811 75.5502 300.811H166.543C169.885 300.811 172.603 298.092 172.603 294.751V236.552C172.604 233.21 169.885 230.492 166.543 230.492Z" fill="#5364AA"/>
<path d="M154.62 286.037L86.6789 286.201C85.4369 286.204 84.4279 285.2 84.4249 283.958L84.3359 247.234C84.3329 245.992 85.3369 244.983 86.5789 244.98L154.52 244.816C155.762 244.813 156.771 245.817 156.774 247.059L156.863 283.783C156.866 285.024 155.861 286.034 154.62 286.037Z" fill="#516CDD"/>
<path d="M156.78 250.51L84.3418 250.684L84.3606 258.504L156.799 258.33L156.78 250.51Z" fill="#143087"/>
<path d="M146.297 280.879C150 280.879 153.002 277.877 153.002 274.174C153.002 270.471 150 267.469 146.297 267.469C142.594 267.469 139.592 270.471 139.592 274.174C139.592 277.877 142.594 280.879 146.297 280.879Z" fill="#94A9E0"/>
<g opacity="0.4">
<path d="M101.892 262.303L88.1602 262.336L88.1667 265.082L101.899 265.049L101.892 262.303Z" fill="#516CDD"/>
<path d="M118.935 262.262L105.203 262.295L105.21 265.041L118.942 265.008L118.935 262.262Z" fill="#516CDD"/>
<path d="M135.976 262.221L122.244 262.254L122.251 265L135.983 264.967L135.976 262.221Z" fill="#516CDD"/>
<path d="M153.017 262.18L139.285 262.213L139.292 264.959L153.024 264.926L153.017 262.18Z" fill="#516CDD"/>
</g>
<path d="M101.916 272.334L88.1836 272.367L88.1936 276.544L101.926 276.511L101.916 272.334Z" fill="#143087"/>
<path d="M119.105 272.291L105.373 272.324L105.383 276.501L119.115 276.468L119.105 272.291Z" fill="#143087"/>
<path d="M136.295 272.252L122.562 272.285L122.573 276.462L136.305 276.429L136.295 272.252Z" fill="#143087"/>
<path d="M155.404 255.125C159.452 255.125 162.734 251.843 162.734 247.795C162.734 243.747 159.452 240.465 155.404 240.465C151.356 240.465 148.074 243.747 148.074 247.795C148.074 251.843 151.356 255.125 155.404 255.125Z" fill="#62A0F6"/>
<path d="M152.049 246.612L153.431 249.572L160.141 246.02" stroke="white" stroke-width="1.1286" stroke-miterlimit="10"/>
<path d="M279.998 444.449C280.826 445.241 281.956 445.724 283.204 445.724H293.814L286.483 437.965L279.998 444.449Z" fill="#BA7111"/>
<path d="M385.978 191.309L377.011 197.956L370.68 192.242L370.729 183.682L383.514 173.773L383.73 175.301L384.368 179.856L385.978 191.309Z" fill="#F4AF9F"/>
<path opacity="0.5" d="M383.901 176.872C380.375 183.776 372.289 187.134 370.705 187.608L370.715 185.813L382.641 175.361C382.641 175.361 383.108 175.303 383.729 175.301L383.901 176.872Z" fill="#F4AF9F"/>
<path d="M384.598 175.577C384.598 175.577 382.21 180.824 376.707 183.468C374.124 184.709 371.197 186.393 368.224 185.792C365.599 185.261 364.227 182.639 363.119 180.467C362.038 178.35 361.547 175.968 361.556 173.595C361.566 171.036 361.717 168.558 361.179 166.037C360.754 164.047 360.132 161.556 361.333 159.708C362.889 157.313 374.923 154.389 374.923 154.389L381.975 158.329L387.306 161.897L384.598 175.577Z" fill="#F4AF9F"/>
<path d="M363.815 169.803C363.821 170.543 364.211 171.139 364.685 171.135C365.159 171.131 365.539 170.528 365.533 169.789C365.53 169.419 365.431 169.085 365.274 168.844C365.117 168.603 364.901 168.455 364.663 168.457C364.189 168.46 363.809 169.063 363.815 169.803Z" fill="#143087"/>
<path d="M372.172 170.301C372.178 171.041 372.611 171.637 373.139 171.632C373.667 171.628 374.091 171.025 374.085 170.285C374.082 169.915 373.972 169.581 373.797 169.34C373.622 169.099 373.382 168.951 373.117 168.953C372.589 168.958 372.166 169.561 372.172 170.301Z" fill="#143087"/>
<path d="M371.166 166.289L374.297 166.636" stroke="#143087" stroke-width="0.4804" stroke-miterlimit="10" stroke-linecap="round" stroke-linejoin="round"/>
<path d="M363.141 166.127L365.639 166.169" stroke="#143087" stroke-width="0.4804" stroke-miterlimit="10" stroke-linecap="round" stroke-linejoin="round"/>
<path d="M368.563 170.537C368.563 170.537 367.587 172.277 367.233 172.746C366.879 173.215 365.797 174.741 368.212 174.821" stroke="#143087" stroke-width="0.4804" stroke-miterlimit="10" stroke-linecap="round" stroke-linejoin="round"/>
<path d="M371.576 177.335C371.576 177.335 371.317 177.599 370.879 177.911C370.235 178.377 369.202 178.953 368.001 179.002C367.141 179.04 366.305 178.18 365.887 177.676C365.714 177.465 365.613 177.316 365.613 177.316C365.613 177.316 366.165 177.354 366.953 177.393C367.808 177.431 368.942 177.465 369.931 177.451C370.577 177.441 371.163 177.402 371.576 177.335Z" fill="#143087"/>
<path d="M371.577 177.335C371.577 177.335 371.318 177.599 370.88 177.911C368.401 178.387 366.46 177.863 365.889 177.676C365.716 177.465 365.615 177.316 365.615 177.316C365.615 177.316 366.167 177.354 366.955 177.393C367.81 177.431 368.944 177.465 369.933 177.451C370.578 177.441 371.164 177.402 371.577 177.335Z" fill="white"/>
<path d="M368.555 161.492C368.555 161.492 368.906 163.376 370.877 164.209C370.877 164.209 367.152 164.647 364.917 162.982C364.917 162.982 365.969 164.603 366.845 164.866C366.845 164.866 362.2 165.085 360.71 163.376L361.236 166.312C361.236 166.312 358.519 163.595 358.563 160.308C358.594 157.977 359.642 155.835 360.357 153.663C360.827 152.237 361.514 150.626 362.911 149.882C366.635 147.9 371.158 148.233 375.115 149.245C378.264 150.051 381.511 151.153 384.045 153.262C390.77 158.859 388.172 171.222 383.66 177.414C383.66 177.414 383.102 171.746 383.015 169.993C382.927 168.24 381.35 167.802 381.394 168.635C381.438 169.468 381.303 173.56 380.427 173.516C379.551 173.472 379.21 166.315 377.107 164.825C375.004 163.336 370.264 162.895 368.555 161.492Z" fill="#143087"/>
<path d="M359.693 193.783C366.798 200.18 348.67 252.924 342.952 249.404C332.091 248.457 346.223 185.811 359.693 193.783Z" fill="#F4AF9F"/>
<path d="M361.271 402.856L356.421 427.206C356.421 427.206 344.243 428.018 344.283 427.498C344.323 426.977 345.59 401.363 345.59 401.363L361.271 402.856Z" fill="#F4AF9F"/>
<path d="M409.807 412.099L410.367 426.66C410.367 426.66 398.467 427.669 398.507 427.149C398.547 426.628 396.926 411.959 396.926 411.959L409.807 412.099Z" fill="#F4AF9F"/>
<path d="M341.947 414.617L362.853 415.738L378.165 296.264L394.836 417.543L412.757 416.422L405.884 256.267L405.656 250.812L405.596 249.453C405.596 249.453 354.313 249.979 353.52 249.979L353.46 250.812L353.073 256.267L341.947 414.617Z" fill="#143087"/>
<path d="M378.165 296.262L375 277.525" stroke="#354A8E" stroke-width="0.5037" stroke-miterlimit="10" stroke-linecap="round" stroke-linejoin="round"/>
<path d="M353.074 256.266H405.884L405.656 250.811H353.461L353.074 256.266Z" fill="#354A8E"/>
<path d="M370.652 188.177C370.652 188.177 363.418 188.177 357.258 192.844C351.098 197.511 353.151 251.088 353.151 251.088L406.168 251.648C406.168 251.648 404.334 195.572 401.128 191.724C398.328 188.364 385.54 187.244 385.54 187.244C385.54 187.244 369.719 201.618 370.652 188.177Z" fill="white"/>
<path d="M386.754 187.152L387.835 242.778L388.619 283.201L410.228 284.409C410.228 284.409 408.394 257.167 407.6 239.663C407.54 238.503 407.501 237.392 407.471 236.341C407.352 231.997 407.322 227.564 407.312 223.29C407.272 209.852 407.282 198.021 405.418 194.986C400.777 187.449 386.754 187.152 386.754 187.152Z" fill="#516CDD"/>
<path d="M396.156 213.355L407.599 239.664C407.539 238.504 407.5 237.393 407.47 236.342C407.351 231.998 407.321 227.565 407.311 223.291C400.548 217.846 396.156 213.355 396.156 213.355Z" fill="#143087"/>
<path d="M342.37 248.462C343.992 247.266 344.751 245.191 344.55 243.185C342.981 227.493 310.398 180.379 307.932 184.237C305.24 186.059 330.161 257.464 342.37 248.462Z" fill="#F4AF9F"/>
<path d="M313.696 186.578L328.416 208.152L316.468 214.593L306.668 191.725L313.696 186.578Z" fill="#F4AF9F"/>
<path d="M314.693 214.311C314.693 214.311 316.904 219.243 325.245 233.822C330.491 242.976 336.154 250.523 340.736 250.81C347.43 251.226 353.162 241.359 356.901 232.681C359.777 225.987 361.453 220.007 361.453 220.007L367.939 188.361C367.939 188.361 352.892 189.693 349.252 196.763C345.316 204.408 339.101 221.685 339.101 221.685L328.88 206.657L314.693 214.311Z" fill="#516CDD"/>
<path d="M325.246 233.824C330.492 242.978 336.155 250.525 340.737 250.812C347.431 251.228 353.163 241.361 356.902 232.683C353.778 224.809 349.88 214.871 349.88 214.871C349.88 214.871 351.566 245.486 341.202 245.02C335.709 244.773 329.699 239.1 325.246 233.824Z" fill="#143087"/>
<path d="M349.416 209.454L349.605 283.288C349.605 283.288 367.202 282.728 367.946 282.728C368.283 282.728 367.674 261.044 367.793 241.199C367.932 216.346 367.942 188.359 367.942 188.359C360.473 189.064 349.416 209.454 349.416 209.454Z" fill="#516CDD"/>
<path d="M399.419 190.818C408.964 190.269 430.332 233.819 423.809 235.406C415.494 242.458 384.278 194.782 399.419 190.818Z" fill="#F4AF9F"/>
<path d="M424.124 233.946C422.151 233.886 420.315 235.016 419.259 236.684C410.999 249.734 407.889 300.882 412.118 299.411C415.292 299.648 435.29 234.287 424.124 233.946Z" fill="#F4AF9F"/>
<path d="M412.141 258.273L409.154 289.542L416.916 291.73L426.328 258.786L412.141 258.273Z" fill="#F4AF9F"/>
<path d="M313.695 186.576C313.695 186.576 312.06 183.971 310.366 182.074C308.919 180.453 306.061 178.434 303.996 179.414C302.493 180.127 306.756 182.167 305.921 182.179C305.086 182.191 301.664 182.628 299.651 180.878C297.638 179.127 294.79 176.67 293.586 177.172C292.382 177.674 297.046 181.386 296.439 181.75C295.832 182.113 292.288 176.33 290.579 178.503C288.87 180.677 293.26 188.002 298.786 189.967C304.312 191.932 308.383 191.469 308.874 192.368C309.364 193.266 313.695 186.576 313.695 186.576Z" fill="#F4AF9F"/>
<path d="M395.525 188.363C395.525 188.363 406.726 189.903 411.906 199.004C419.651 212.61 430.527 235.313 429.967 242.967C429.407 250.621 425.953 264.155 425.953 264.155L410.925 262.288L412.932 239.886L391.277 207.59L394.824 190.602L395.525 188.363Z" fill="#516CDD"/>
<path d="M398.509 427.149C398.461 430.677 394.39 443.579 394.426 446.636C417.141 446.332 415.326 450.13 410.749 426.598L398.509 427.149Z" fill="#143087"/>
<path d="M344.019 427.59C344.019 427.59 341.697 431.957 334.11 437.601C326.523 443.246 324.565 441.986 324.37 444.118C324.175 446.25 357.264 444.762 357.264 444.762L356.422 427.208C356.422 427.208 344.028 427.133 344.019 427.59Z" fill="#143087"/>
<path d="M386.754 187.152L387.835 242.778C390.424 234.041 394.589 219.542 394.589 219.542L389.551 212.441L394.589 210.953L386.754 187.152Z" fill="#143087"/>
<path d="M364.35 213.093L360.71 215.434L367.791 241.199C367.93 216.346 367.94 188.359 367.94 188.359L360.621 210.019L364.35 213.093Z" fill="#143087"/>
<path d="M413.568 306.661L414.611 305.246C415.744 303.119 417.02 301.674 417.229 299.256L417.196 298.397L416.916 291.73L410.36 289.617L410.055 288.564L408.078 290.117L408.06 290.134L404.748 292.979C403.917 293.719 403.252 294.633 402.86 295.67L402.252 300.581C402.252 300.581 403.171 301.783 404.216 299.179C404.492 298.497 405.429 297.795 406.228 297.278L405.922 298.478L405.547 299.971L404.178 306.08C403.877 307.799 411.769 309.425 413.568 306.661Z" fill="#F4AF9F"/>
<path d="M410.646 258.18L427.541 261.447L425.021 266.954L410.273 263.874L410.646 258.18Z" fill="#94A9E0"/>
<path d="M330.794 208.331L314.741 217.152L313.057 210.928L326.688 203.438L330.794 208.331Z" fill="#94A9E0"/>
<path d="M315.562 213.706C315.872 213.706 316.124 213.454 316.124 213.144C316.124 212.834 315.872 212.582 315.562 212.582C315.252 212.582 315 212.834 315 213.144C315 213.454 315.252 213.706 315.562 213.706Z" fill="#143087"/>
<path d="M317.619 212.626C317.929 212.626 318.181 212.374 318.181 212.064C318.181 211.754 317.929 211.502 317.619 211.502C317.308 211.502 317.057 211.754 317.057 212.064C317.057 212.374 317.308 212.626 317.619 212.626Z" fill="#143087"/>
<path d="M423.525 263.757C423.525 264.067 423.777 264.319 424.087 264.319C424.397 264.319 424.649 264.067 424.649 263.757C424.649 263.447 424.397 263.195 424.087 263.195C423.777 263.194 423.525 263.446 423.525 263.757Z" fill="#143087"/>
<path d="M421.941 263.854C422.251 263.854 422.503 263.603 422.503 263.292C422.503 262.982 422.251 262.73 421.941 262.73C421.631 262.73 421.379 262.982 421.379 263.292C421.379 263.603 421.631 263.854 421.941 263.854Z" fill="#143087"/>
<path d="M398.094 217.812L407.381 231.533" stroke="#143087" stroke-width="0.2479" stroke-miterlimit="10" stroke-linecap="round" stroke-linejoin="round"/>
<path d="M349.509 245.58L349.322 221.871" stroke="#143087" stroke-width="0.2479" stroke-miterlimit="10" stroke-linecap="round" stroke-linejoin="round"/>
<path d="M432.202 444.574H81.1836V449.006H432.202V444.574Z" fill="#143087"/>
<rect x="190.121" y="381" width="66.185" height="21.865" rx="4" fill="#62A0F6"/>
<path d="M209.294 387.616C210.223 387.616 211.035 387.8 211.73 388.169C212.425 388.537 212.961 389.056 213.338 389.726C213.723 390.387 213.915 391.153 213.915 392.024C213.915 392.886 213.723 393.652 213.338 394.322C212.961 394.992 212.421 395.511 211.718 395.879C211.023 396.247 210.215 396.432 209.294 396.432H205.991V387.616H209.294ZM209.156 394.573C209.968 394.573 210.6 394.351 211.052 393.908C211.504 393.464 211.73 392.836 211.73 392.024C211.73 391.212 211.504 390.58 211.052 390.128C210.6 389.676 209.968 389.45 209.156 389.45H208.139V394.573H209.156ZM219.284 396.52C218.456 396.52 217.694 396.327 216.999 395.942C216.312 395.557 215.764 395.021 215.354 394.335C214.952 393.64 214.751 392.861 214.751 391.999C214.751 391.137 214.952 390.362 215.354 389.676C215.764 388.989 216.312 388.453 216.999 388.068C217.694 387.683 218.456 387.491 219.284 387.491C220.113 387.491 220.871 387.683 221.557 388.068C222.252 388.453 222.796 388.989 223.19 389.676C223.592 390.362 223.792 391.137 223.792 391.999C223.792 392.861 223.592 393.64 223.19 394.335C222.788 395.021 222.244 395.557 221.557 395.942C220.871 396.327 220.113 396.52 219.284 396.52ZM219.284 394.561C219.988 394.561 220.548 394.326 220.967 393.857C221.394 393.389 221.607 392.769 221.607 391.999C221.607 391.22 221.394 390.601 220.967 390.14C220.548 389.672 219.988 389.437 219.284 389.437C218.573 389.437 218.003 389.667 217.577 390.128C217.158 390.588 216.949 391.212 216.949 391.999C216.949 392.777 217.158 393.401 217.577 393.87C218.003 394.33 218.573 394.561 219.284 394.561ZM232.873 396.432H230.726L227.134 390.994V396.432H224.987V387.616H227.134L230.726 393.079V387.616H232.873V396.432ZM236.577 389.337V391.12H239.453V392.777H236.577V394.711H239.83V396.432H234.43V387.616H239.83V389.337H236.577Z" fill="white"/>
<path d="M405.106 149.978C420.282 149.978 432.585 137.675 432.585 122.499C432.585 107.322 420.282 95.0195 405.106 95.0195C389.93 95.0195 377.627 107.322 377.627 122.499C377.627 137.675 389.93 149.978 405.106 149.978Z" fill="#62A0F6"/>
<path d="M398.184 146.503L407.046 158.63L415.181 144.898L398.184 146.503Z" fill="#62A0F6"/>
<path d="M392.527 118.06L397.706 129.159L422.862 115.84" stroke="white" stroke-width="4.2313" stroke-miterlimit="10" stroke-linecap="round" stroke-linejoin="round"/>
<path d="M224.029 295C223.213 295 222.535 294.856 221.995 294.568C221.455 294.28 221.047 293.854 220.771 293.29C220.507 292.714 220.375 292 220.375 291.148V290.734L222.229 290.788L222.265 291.202C222.265 291.598 222.307 291.904 222.391 292.12C222.487 292.324 222.661 292.462 222.913 292.534C223.165 292.606 223.537 292.642 224.029 292.642H224.749V295H224.029ZM212.437 301.354C212.389 300.958 212.341 300.514 212.293 300.022C212.245 299.53 212.191 299.038 212.131 298.546C212.083 298.054 212.041 297.598 212.005 297.178C211.981 296.77 211.969 296.44 211.969 296.188C211.969 295.624 212.047 295.102 212.203 294.622C212.371 294.13 212.599 293.698 212.887 293.326C213.187 292.954 213.541 292.66 213.949 292.444C214.357 292.228 214.813 292.12 215.317 292.12C215.557 292.12 215.899 292.156 216.343 292.228C216.787 292.288 217.297 292.372 217.873 292.48C218.449 292.588 219.049 292.714 219.673 292.858C220.309 292.99 220.939 293.128 221.563 293.272L221.185 295.306C220.609 295.186 220.015 295.072 219.403 294.964C218.803 294.844 218.233 294.736 217.693 294.64C217.153 294.544 216.679 294.472 216.271 294.424C215.875 294.364 215.587 294.334 215.407 294.334C215.155 294.334 214.915 294.394 214.687 294.514C214.459 294.622 214.267 294.814 214.111 295.09C213.955 295.366 213.877 295.744 213.877 296.224C213.877 296.44 213.895 296.752 213.931 297.16C213.967 297.58 214.009 298.042 214.057 298.546C214.117 299.05 214.177 299.548 214.237 300.04C214.297 300.532 214.351 300.97 214.399 301.354H212.437ZM221.185 295.306L219.331 294.244C219.619 293.764 219.835 293.248 219.979 292.696C220.135 292.132 220.213 291.562 220.213 290.986C220.213 290.134 220.075 289.504 219.799 289.096C219.523 288.688 219.121 288.484 218.593 288.484C218.257 288.484 217.939 288.568 217.639 288.736C217.339 288.904 217.021 289.192 216.685 289.6C216.349 290.008 215.965 290.566 215.533 291.274L213.751 290.086C214.027 289.618 214.327 289.15 214.651 288.682C214.975 288.214 215.329 287.794 215.713 287.422C216.097 287.038 216.523 286.732 216.991 286.504C217.459 286.264 217.993 286.144 218.593 286.144C219.241 286.144 219.799 286.282 220.267 286.558C220.735 286.822 221.113 287.188 221.401 287.656C221.701 288.112 221.917 288.628 222.049 289.204C222.193 289.78 222.265 290.374 222.265 290.986C222.265 291.634 222.175 292.348 221.995 293.128C221.827 293.908 221.557 294.634 221.185 295.306ZM224.749 295V292.642C224.869 292.642 224.959 292.75 225.019 292.966C225.079 293.182 225.109 293.464 225.109 293.812C225.109 294.172 225.079 294.46 225.019 294.676C224.959 294.892 224.869 295 224.749 295ZM227.323 286.18H229.375V295H224.749V292.642H227.323V286.18ZM224.749 295C224.617 295 224.527 294.892 224.479 294.676C224.419 294.46 224.389 294.166 224.389 293.794C224.389 293.446 224.419 293.17 224.479 292.966C224.527 292.75 224.617 292.642 224.749 292.642V295ZM229.699 284.092C229.363 284.092 229.087 283.984 228.871 283.768C228.655 283.552 228.547 283.282 228.547 282.958C228.547 282.61 228.655 282.334 228.871 282.13C229.087 281.914 229.363 281.806 229.699 281.806C230.023 281.806 230.293 281.914 230.509 282.13C230.725 282.334 230.833 282.61 230.833 282.958C230.833 283.282 230.725 283.552 230.509 283.768C230.293 283.984 230.023 284.092 229.699 284.092ZM227.035 284.092C226.699 284.092 226.423 283.984 226.207 283.768C225.991 283.552 225.883 283.282 225.883 282.958C225.883 282.61 225.991 282.334 226.207 282.13C226.423 281.914 226.699 281.806 227.035 281.806C227.359 281.806 227.629 281.914 227.845 282.13C228.073 282.334 228.187 282.61 228.187 282.958C228.187 283.282 228.073 283.552 227.845 283.768C227.629 283.984 227.359 284.092 227.035 284.092ZM208.881 323V320.642H212.337V323H208.881ZM212.337 323V320.642C212.469 320.642 212.559 320.75 212.607 320.966C212.667 321.182 212.697 321.464 212.697 321.812C212.697 322.172 212.667 322.46 212.607 322.676C212.559 322.892 212.469 323 212.337 323ZM208.863 323C208.851 321.716 208.623 320.576 208.179 319.58C207.747 318.572 207.117 317.732 206.289 317.06C205.473 316.388 204.489 315.92 203.337 315.656L203.805 313.388C205.257 313.724 206.511 314.336 207.567 315.224C208.623 316.112 209.439 317.222 210.015 318.554C210.603 319.874 210.903 321.356 210.915 323H208.863ZM201.861 323V320.642H210.393V323H201.861ZM212.339 323V320.642H213.275C213.779 320.642 214.157 320.606 214.409 320.534C214.661 320.45 214.829 320.3 214.913 320.084C214.997 319.868 215.039 319.556 215.039 319.148V314.18H217.091V319.148C217.091 320 216.953 320.714 216.677 321.29C216.401 321.854 215.981 322.28 215.417 322.568C214.865 322.856 214.151 323 213.275 323H212.339ZM218.855 323C217.991 323 217.277 322.856 216.713 322.568C216.149 322.28 215.729 321.854 215.453 321.29C215.177 320.714 215.039 320 215.039 319.148H217.091C217.091 319.556 217.133 319.868 217.217 320.084C217.313 320.3 217.487 320.45 217.739 320.534C217.991 320.606 218.363 320.642 218.855 320.642H219.575V323H218.855ZM219.575 323V320.642C219.707 320.642 219.797 320.75 219.845 320.966C219.905 321.182 219.935 321.464 219.935 321.812C219.935 322.172 219.905 322.46 219.845 322.676C219.797 322.892 219.707 323 219.575 323ZM212.339 323C212.207 323 212.117 322.892 212.069 322.676C212.009 322.46 211.979 322.166 211.979 321.794C211.979 321.446 212.009 321.17 212.069 320.966C212.117 320.75 212.207 320.642 212.339 320.642V323ZM217.361 327.374C217.037 327.374 216.767 327.26 216.551 327.032C216.335 326.816 216.227 326.546 216.227 326.222C216.227 325.886 216.335 325.61 216.551 325.394C216.767 325.19 217.037 325.088 217.361 325.088C217.697 325.088 217.973 325.19 218.189 325.394C218.405 325.61 218.513 325.886 218.513 326.222C218.513 326.546 218.405 326.816 218.189 327.032C217.973 327.26 217.697 327.374 217.361 327.374ZM214.715 327.374C214.379 327.374 214.103 327.26 213.887 327.032C213.671 326.816 213.563 326.546 213.563 326.222C213.563 325.886 213.671 325.61 213.887 325.394C214.103 325.19 214.379 325.088 214.715 325.088C215.039 325.088 215.309 325.19 215.525 325.394C215.753 325.61 215.867 325.886 215.867 326.222C215.867 326.546 215.753 326.816 215.525 327.032C215.309 327.26 215.039 327.374 214.715 327.374ZM219.581 323V320.642H222.713C223.277 320.642 223.757 320.576 224.153 320.444C224.549 320.312 224.849 320.132 225.053 319.904C225.269 319.676 225.377 319.424 225.377 319.148C225.377 318.968 225.323 318.782 225.215 318.59C225.119 318.386 224.927 318.146 224.639 317.87C224.351 317.582 223.925 317.222 223.361 316.79C222.809 316.346 222.065 315.788 221.129 315.116L220.157 314.378L221.489 312.578L222.749 313.514C223.553 314.102 224.249 314.63 224.837 315.098C225.425 315.566 225.911 316.01 226.295 316.43C226.679 316.85 226.961 317.276 227.141 317.708C227.333 318.14 227.429 318.62 227.429 319.148C227.429 319.952 227.225 320.642 226.817 321.218C226.409 321.794 225.845 322.238 225.125 322.55C224.417 322.85 223.613 323 222.713 323H219.581ZM220.157 314.378V312.002L228.203 308.294V310.832L220.157 314.378ZM219.581 323C219.449 323 219.359 322.892 219.311 322.676C219.251 322.46 219.221 322.166 219.221 321.794C219.221 321.446 219.251 321.17 219.311 320.966C219.359 320.75 219.449 320.642 219.581 320.642V323ZM232.705 323V320.642H234.847V323H232.705ZM230.689 323V310.112H232.741V323H230.689ZM234.847 323V320.642C234.967 320.642 235.057 320.75 235.117 320.966C235.177 321.182 235.207 321.464 235.207 321.812C235.207 322.172 235.177 322.46 235.117 322.676C235.057 322.892 234.967 323 234.847 323ZM232.327 308.186C231.643 308.186 231.085 308.054 230.653 307.79C230.221 307.526 230.005 307.136 230.005 306.62C230.005 306.26 230.107 305.954 230.311 305.702C230.527 305.438 230.797 305.24 231.121 305.108C231.457 304.964 231.823 304.892 232.219 304.892C232.447 304.892 232.675 304.916 232.903 304.964C233.131 305.012 233.347 305.09 233.551 305.198L233.047 306.296C232.939 306.272 232.819 306.254 232.687 306.242C232.555 306.23 232.435 306.224 232.327 306.224C231.967 306.224 231.685 306.278 231.481 306.386C231.277 306.482 231.175 306.596 231.175 306.728C231.175 306.848 231.277 306.962 231.481 307.07C231.685 307.178 231.967 307.232 232.327 307.232V308.186ZM229.663 308.582V307.232H233.749V308.582H229.663ZM237.413 314.18H239.465V323H234.839V320.642H237.413V314.18ZM234.839 323C234.707 323 234.617 322.892 234.569 322.676C234.509 322.46 234.479 322.166 234.479 321.794C234.479 321.446 234.509 321.17 234.569 320.966C234.617 320.75 234.707 320.642 234.839 320.642V323ZM239.789 312.092C239.453 312.092 239.177 311.984 238.961 311.768C238.745 311.552 238.637 311.282 238.637 310.958C238.637 310.61 238.745 310.334 238.961 310.13C239.177 309.914 239.453 309.806 239.789 309.806C240.113 309.806 240.383 309.914 240.599 310.13C240.815 310.334 240.923 310.61 240.923 310.958C240.923 311.282 240.815 311.552 240.599 311.768C240.383 311.984 240.113 312.092 239.789 312.092ZM237.125 312.092C236.789 312.092 236.513 311.984 236.297 311.768C236.081 311.552 235.973 311.282 235.973 310.958C235.973 310.61 236.081 310.334 236.297 310.13C236.513 309.914 236.789 309.806 237.125 309.806C237.449 309.806 237.719 309.914 237.935 310.13C238.163 310.334 238.277 310.61 238.277 310.958C238.277 311.282 238.163 311.552 237.935 311.768C237.719 311.984 237.449 312.092 237.125 312.092ZM201.778 351V348.642H204.46V351H201.778ZM197.89 353.61C198.478 353.61 198.946 353.544 199.294 353.412C199.642 353.292 199.888 353.088 200.032 352.8C200.188 352.512 200.266 352.152 200.266 351.72V342.18H202.318V351.72C202.318 352.572 202.15 353.304 201.814 353.916C201.49 354.528 201.028 354.996 200.428 355.32C199.84 355.656 199.12 355.836 198.268 355.86L197.89 353.61ZM204.46 351V348.642C204.58 348.642 204.67 348.75 204.73 348.966C204.79 349.182 204.82 349.464 204.82 349.812C204.82 350.172 204.79 350.46 204.73 350.676C204.67 350.892 204.58 351 204.46 351ZM201.292 339.84C200.932 339.84 200.626 339.72 200.374 339.48C200.122 339.228 199.996 338.916 199.996 338.544C199.996 338.172 200.122 337.866 200.374 337.626C200.626 337.374 200.932 337.248 201.292 337.248C201.676 337.248 201.988 337.374 202.228 337.626C202.48 337.866 202.606 338.172 202.606 338.544C202.606 338.916 202.48 339.228 202.228 339.48C201.988 339.72 201.676 339.84 201.292 339.84ZM214.058 351V348.642H216.596V351H214.058ZM204.464 351C204.332 351 204.242 350.892 204.194 350.676C204.134 350.46 204.104 350.166 204.104 349.794C204.104 349.446 204.134 349.17 204.194 348.966C204.242 348.75 204.332 348.642 204.464 348.642V351ZM212.402 350.568V346.266C212.402 345.738 212.264 345.282 211.988 344.898C211.724 344.502 211.334 344.196 210.818 343.98C210.302 343.752 209.684 343.638 208.964 343.638C208.4 343.638 207.848 343.704 207.308 343.836C206.78 343.956 206.318 344.106 205.922 344.286L205.058 342.396C205.658 342.024 206.288 341.748 206.948 341.568C207.62 341.376 208.298 341.28 208.982 341.28C209.774 341.28 210.5 341.4 211.16 341.64C211.832 341.868 212.414 342.204 212.906 342.648C213.398 343.092 213.782 343.62 214.058 344.232C214.334 344.844 214.472 345.522 214.472 346.266V350.568H212.402ZM204.464 351V348.642H215.228L214.832 351H204.464ZM216.596 351V348.642C216.728 348.642 216.818 348.75 216.866 348.966C216.926 349.182 216.956 349.464 216.956 349.812C216.956 350.172 216.926 350.46 216.866 350.676C216.818 350.892 216.728 351 216.596 351ZM209.342 355.932C208.982 355.932 208.676 355.806 208.424 355.554C208.172 355.314 208.046 355.008 208.046 354.636C208.046 354.264 208.172 353.952 208.424 353.7C208.676 353.46 208.982 353.34 209.342 353.34C209.726 353.34 210.038 353.46 210.278 353.7C210.53 353.952 210.656 354.264 210.656 354.636C210.656 355.008 210.53 355.314 210.278 355.554C210.038 355.806 209.726 355.932 209.342 355.932ZM226.187 351V348.642H228.725V351H226.187ZM216.593 351C216.461 351 216.371 350.892 216.323 350.676C216.263 350.46 216.233 350.166 216.233 349.794C216.233 349.446 216.263 349.17 216.323 348.966C216.371 348.75 216.461 348.642 216.593 348.642V351ZM224.531 350.568V346.266C224.531 345.738 224.393 345.282 224.117 344.898C223.853 344.502 223.463 344.196 222.947 343.98C222.431 343.752 221.813 343.638 221.093 343.638C220.529 343.638 219.977 343.704 219.437 343.836C218.909 343.956 218.447 344.106 218.051 344.286L217.187 342.396C217.787 342.024 218.417 341.748 219.077 341.568C219.749 341.376 220.427 341.28 221.111 341.28C221.903 341.28 222.629 341.4 223.289 341.64C223.961 341.868 224.543 342.204 225.035 342.648C225.527 343.092 225.911 343.62 226.187 344.232C226.463 344.844 226.601 345.522 226.601 346.266V350.568H224.531ZM216.593 351V348.642H227.357L226.961 351H216.593ZM228.725 351V348.642C228.857 348.642 228.947 348.75 228.995 348.966C229.055 349.182 229.085 349.464 229.085 349.812C229.085 350.172 229.055 350.46 228.995 350.676C228.947 350.892 228.857 351 228.725 351ZM228.722 351V348.642H231.116V336.024H233.168V351H228.722ZM228.722 351C228.59 351 228.5 350.892 228.452 350.676C228.392 350.46 228.362 350.166 228.362 349.794C228.362 349.446 228.392 349.17 228.452 348.966C228.5 348.75 228.59 348.642 228.722 348.642V351ZM235.646 351V336.024H237.698V351H235.646Z" fill="#1E1E1E"/>
</g>
<defs>
<clipPath id="clip0_538_40581">
<rect width="500" height="500" fill="white"/>
</clipPath>
</defs>
</svg>
