<svg width="16" height="15" viewBox="0 0 16 15" fill="none" xmlns="http://www.w3.org/2000/svg">
<path d="M8.00027 12.3959L4.54194 14.4792C4.38916 14.5765 4.22944 14.6181 4.06277 14.6042C3.89611 14.5904 3.75027 14.5348 3.62527 14.4376C3.50027 14.3404 3.40305 14.219 3.33361 14.0734C3.26416 13.9279 3.25027 13.7645 3.29194 13.5834L4.20861 9.64591L1.14611 7.00008C1.00722 6.87508 0.920552 6.73258 0.886107 6.57258C0.851663 6.41258 0.861941 6.25647 0.916941 6.10425C0.971941 5.95202 1.05527 5.82702 1.16694 5.72925C1.27861 5.63147 1.43139 5.56897 1.62527 5.54175L5.66694 5.18758L7.22944 1.47925C7.29888 1.31258 7.40666 1.18758 7.55277 1.10425C7.69889 1.02091 7.84805 0.979248 8.00027 0.979248C8.1525 0.979248 8.30166 1.02091 8.44777 1.10425C8.59388 1.18758 8.70166 1.31258 8.77111 1.47925L10.3336 5.18758L14.3753 5.54175C14.5697 5.56953 14.7225 5.63202 14.8336 5.72925C14.9447 5.82647 15.0281 5.95147 15.0836 6.10425C15.1392 6.25703 15.1497 6.41341 15.1153 6.57341C15.0808 6.73341 14.9939 6.87564 14.8544 7.00008L11.7919 9.64591L12.7086 13.5834C12.7503 13.764 12.7364 13.9273 12.6669 14.0734C12.5975 14.2195 12.5003 14.3409 12.3753 14.4376C12.2503 14.5342 12.1044 14.5898 11.9378 14.6042C11.7711 14.6187 11.6114 14.577 11.4586 14.4792L8.00027 12.3959Z" fill="#F79009"/>
</svg>
