<svg width="26" height="25" viewBox="0 0 26 25" fill="none" xmlns="http://www.w3.org/2000/svg">
<path d="M7.38403 11.308L16.016 6.99068C16.2601 6.86857 16.5313 6.8109 16.8039 6.82315C17.0764 6.83539 17.3414 6.91716 17.5735 7.06066C17.8056 7.20416 17.9971 7.40464 18.1299 7.64303C18.2626 7.88142 18.3322 8.14981 18.332 8.42268V16.5773C18.3322 16.8502 18.2626 17.1186 18.1299 17.357C17.9971 17.5954 17.8056 17.7959 17.5735 17.9394C17.3414 18.0829 17.0764 18.1646 16.8039 18.1769C16.5313 18.1891 16.2601 18.1315 16.016 18.0093L7.38403 13.692C7.16286 13.5812 6.97688 13.411 6.84692 13.2004C6.71695 12.9899 6.64812 12.7474 6.64812 12.5C6.64812 12.2526 6.71695 12.0101 6.84692 11.7996C6.97688 11.5891 7.16286 11.4189 7.38403 11.308Z" stroke="white" stroke-linecap="round" stroke-linejoin="round"/>
<path d="M13 24.5C6.37258 24.5 1 19.1274 1 12.5C1 5.87258 6.37258 0.5 13 0.5C19.6274 0.5 25 5.87258 25 12.5C25 19.1274 19.6274 24.5 13 24.5Z" stroke="white"/>
</svg>
