<svg width="20" height="20" viewBox="0 0 20 20" fill="none" xmlns="http://www.w3.org/2000/svg">
<path d="M18.3333 10C18.3333 5.39763 14.6023 1.66667 9.99999 1.66667C5.39761 1.66667 1.66666 5.39763 1.66666 10C1.66666 14.6023 5.39761 18.3333 9.99999 18.3333C14.6023 18.3333 18.3333 14.6023 18.3333 10Z" stroke="#5D9D9F" stroke-width="1.25"/>
<path d="M16.6667 4.74916C15.8878 4.8053 14.8901 5.10687 14.1983 6.00231C12.9488 7.61968 11.6992 7.75463 10.8662 7.21551C9.61659 6.40683 10.6667 5.09697 9.20009 4.38513C8.24428 3.92118 8.11102 2.65871 8.64301 1.66667" stroke="#5D9D9F" stroke-width="1.25" stroke-linejoin="round"/>
<path d="M1.66666 9.16667C2.30207 9.71842 3.19204 10.2235 4.24061 10.2235C6.40701 10.2235 6.8403 10.6374 6.8403 12.2932C6.8403 13.9489 6.8403 13.9489 7.27358 15.1907C7.55541 15.9984 7.65392 16.8062 7.09216 17.5" stroke="#5D9D9F" stroke-width="1.25" stroke-linejoin="round"/>
<path d="M18.3333 11.2102C17.5941 10.7842 16.6667 10.609 15.7278 11.2837C13.9314 12.5748 12.6928 11.505 12.1349 12.5741C11.3137 14.1479 14.2464 14.6426 11.6667 18.3333" stroke="#5D9D9F" stroke-width="1.25" stroke-linejoin="round"/>
</svg>
