<svg width="120" height="56" viewBox="0 0 120 56" fill="none" xmlns="http://www.w3.org/2000/svg">
<g clip-path="url(#clip0_2406_42)">
<path fill-rule="evenodd" clip-rule="evenodd" d="M97.2724 0.00453323C98.9001 0.0190057 99.5295 0.0551869 100.275 0.170967C100.796 0.250565 101.685 0.431471 102.264 0.576196C102.843 0.713684 103.654 0.945244 104.073 1.08997C104.493 1.23469 105.172 1.50243 105.592 1.6761C106.011 1.85701 106.757 2.21159 107.256 2.47209C107.755 2.73259 108.616 3.24637 109.173 3.62265C109.731 3.9917 110.591 4.63573 111.09 5.05543C111.589 5.46789 112.341 6.16981 112.776 6.61845C113.203 7.05986 113.832 7.76902 114.172 8.19595C114.512 8.63013 115.026 9.33204 115.315 9.77345C115.605 10.2149 116.025 10.8951 116.249 11.2931C116.466 11.6911 116.813 12.3713 117.008 12.8127C117.203 13.2541 117.514 14.0139 117.695 14.5132C117.876 15.0125 118.136 15.8736 118.281 16.4308C118.418 16.988 118.607 17.8491 118.694 18.3484C118.824 19.1082 118.861 19.6147 118.882 21.5323C118.911 23.3414 118.89 23.9999 118.803 24.7163C118.738 25.2156 118.607 25.9971 118.513 26.453C118.418 26.9089 118.238 27.6397 118.107 28.0811C117.984 28.5225 117.768 29.1883 117.623 29.5646C117.478 29.9408 117.225 30.5776 117.052 30.9756C116.878 31.3736 116.538 32.0538 116.292 32.4952C116.054 32.9366 115.62 33.6458 115.329 34.0872C115.04 34.5286 114.534 35.2233 114.201 35.643C113.876 36.0627 113.109 36.8949 112.509 37.4955C111.907 38.0961 111.076 38.8559 110.656 39.1888C110.237 39.5216 109.535 40.0209 109.1 40.3104C108.666 40.5998 107.965 41.0268 107.546 41.2583C107.126 41.4826 106.461 41.8227 106.062 41.9964C105.664 42.1701 104.999 42.4451 104.579 42.6043C104.16 42.7562 103.415 42.995 102.915 43.1325C102.416 43.2772 101.685 43.4509 101.288 43.5305C100.89 43.6029 100.159 43.7186 99.6598 43.7765C99.1606 43.8344 98.2996 43.9068 97.7426 43.9357C97.1565 43.9647 96.2305 43.943 95.536 43.8995C94.8777 43.8489 93.8865 43.7331 93.3295 43.639C92.7725 43.545 91.9766 43.3858 91.5571 43.2772C91.1374 43.1687 90.508 42.9878 90.1463 42.8792C89.7846 42.7635 89.09 42.503 88.5909 42.3003C88.0917 42.0977 87.2814 41.7142 86.7823 41.4537C86.283 41.2004 85.4221 40.6867 84.865 40.3176C84.3081 39.9486 83.4761 39.3407 83.0202 38.9644C82.5645 38.5881 81.8121 37.9079 81.3563 37.4521C80.9005 36.9889 80.235 36.2581 79.8877 35.8239C79.5332 35.3825 78.9545 34.5865 78.5928 34.051C78.2237 33.4938 77.6522 32.4808 77.2688 31.6993C76.8926 30.9467 76.4368 29.8974 76.256 29.3837C76.0678 28.8699 75.8074 28.016 75.6772 27.5022C75.5469 26.9885 75.3661 26.1563 75.2866 25.657C75.2069 25.1577 75.0984 24.3617 75.055 23.8841C75.0044 23.3559 74.99 22.3717 75.0116 21.3514C75.0406 20.2226 75.0984 19.3832 75.1925 18.7464C75.2793 18.2254 75.4095 17.4945 75.4963 17.1182C75.576 16.742 75.7495 16.0907 75.8652 15.671C75.9883 15.2513 76.2704 14.4553 76.4875 13.8981C76.7117 13.3409 77.0735 12.5088 77.3049 12.0529C77.5365 11.597 77.9416 10.8661 78.2093 10.4247C78.4769 9.9833 79.0196 9.18732 79.4247 8.65184C79.9022 8.01505 80.575 7.25524 81.3563 6.47373C82.0147 5.808 82.8901 4.99754 83.3096 4.67191C83.7293 4.33904 84.4455 3.82527 84.9013 3.52134C85.357 3.22466 86.189 2.73983 86.7461 2.45038C87.3031 2.16817 88.0989 1.78465 88.5186 1.61098C88.9381 1.43731 89.6398 1.1768 90.074 1.03208C90.508 0.89459 91.1953 0.691976 91.5932 0.590668C91.9911 0.489361 92.6928 0.344636 93.1486 0.265038C93.6044 0.178203 94.2556 0.0841318 94.5956 0.0479507C94.9356 0.0117695 96.1365 -0.00993925 97.2724 0.00453323ZM12.8451 24.6077C13.5034 24.6222 14.3499 24.6873 14.7261 24.7525C15.1023 24.8176 15.739 24.9478 16.1368 25.0492C16.5347 25.1432 17.2076 25.3386 18.4158 25.7294L18.3795 26.0333C18.3578 26.2069 18.2927 27.0753 18.2349 27.9726C18.177 28.8699 18.1264 29.6442 18.1264 29.6876C18.1264 29.7527 17.9672 29.7816 17.0412 29.7816L16.2598 29.0001C15.833 28.566 15.2542 28.0667 14.9793 27.8858C14.7044 27.6976 14.2125 27.4588 13.8942 27.343C13.3443 27.1549 13.2502 27.1404 12.1217 27.1404C11.0076 27.1477 10.8918 27.1549 10.3492 27.343C10.0309 27.4588 9.53894 27.6831 9.26403 27.8423C8.97465 28.0088 8.5044 28.3923 8.17885 28.7252C7.85329 29.0508 7.43368 29.5718 7.23836 29.8902C7.04302 30.2086 6.76087 30.7658 6.60895 31.1204C6.46426 31.4749 6.27616 32.0321 6.18935 32.3505C6.10976 32.6689 5.99401 33.2261 5.93614 33.5807C5.87826 33.9352 5.82762 34.6082 5.82762 35.0641C5.82762 35.52 5.87826 36.1206 5.93614 36.4028C5.99401 36.685 6.16041 37.1481 6.29787 37.4304C6.44979 37.7487 6.703 38.1178 6.92726 38.3421C7.13707 38.5592 7.51327 38.8342 7.75924 38.9572C8.01245 39.0875 8.41759 39.2466 8.66356 39.3118C8.97464 39.3914 9.38701 39.4348 9.95131 39.4276C10.5011 39.4276 11.0293 39.3769 11.5068 39.2756C11.9046 39.1888 12.5268 39.0223 12.8813 38.8993C13.2358 38.7763 13.829 38.5303 14.1836 38.3566C14.538 38.1829 15.0444 37.9079 15.3048 37.7415C15.5653 37.5751 15.9487 37.3001 16.1585 37.1337C16.3684 36.9745 16.5492 36.8515 16.5636 36.8732C16.5782 36.8949 16.7735 37.2784 17.4029 38.5375L17.0195 38.8776C16.8169 39.0585 16.3467 39.4276 15.9922 39.6953C15.6376 39.963 15.124 40.3176 14.8491 40.484C14.5814 40.6432 14.0605 40.9327 13.6916 41.1136C13.3299 41.3017 12.7005 41.555 12.3025 41.6925C11.9046 41.8227 11.3331 41.9819 11.0365 42.0471C10.7182 42.1194 9.98748 42.1846 9.26403 42.2063C8.49717 42.228 7.74478 42.2135 7.27453 42.1556C6.85492 42.1122 6.20381 41.9892 5.82762 41.8951C5.45142 41.801 4.81478 41.5622 4.41688 41.3669C4.01898 41.1715 3.48362 40.8459 3.22318 40.6432C2.96274 40.4334 2.5793 40.0643 2.3695 39.8183C2.1597 39.5723 1.81968 39.044 1.62434 38.646C1.37113 38.1395 1.21921 37.7126 1.12516 37.235C1.02388 36.7429 0.980469 36.2508 0.980469 35.4983C0.980469 34.9194 1.03111 34.1523 1.08899 33.7978C1.14686 33.4432 1.26985 32.8715 1.37113 32.5314C1.46518 32.1913 1.66775 31.6414 1.80521 31.3013C1.9499 30.9612 2.24652 30.3895 2.45632 30.0349C2.67335 29.6803 3.07125 29.1087 3.34616 28.7758C3.61384 28.4357 4.06238 27.9654 4.33006 27.7266C4.60498 27.4805 5.10416 27.0825 5.45142 26.8365C5.79868 26.5905 6.42085 26.2069 6.84046 25.9899C7.26006 25.78 7.92564 25.4761 8.32354 25.3314C8.72144 25.1794 9.38701 24.984 9.80662 24.89C10.2262 24.7959 10.8122 24.6873 11.1088 24.6512C11.4054 24.6077 12.1868 24.5933 12.8451 24.6077ZM44.1707 48.8926C44.2721 48.8926 44.4818 48.9215 44.641 48.9649C44.8001 49.0156 45.0172 49.1458 45.1257 49.2544C45.2415 49.3701 45.3355 49.4642 45.3427 49.4642C45.3572 49.4642 45.3861 49.3701 45.4729 49.03H46.0879C46.6884 49.03 46.7029 49.0373 46.6666 49.1892C46.6521 49.2833 46.4207 50.3687 46.1603 51.5989C45.7841 53.379 45.6393 53.9362 45.4584 54.3125C45.2921 54.6309 45.1184 54.8552 44.8942 55.0216C44.7133 55.1519 44.4022 55.3111 44.2069 55.369C43.9899 55.4269 43.5269 55.4703 43.0493 55.4703C42.3548 55.4703 42.203 55.4486 41.8702 55.2894C41.6242 55.1736 41.4578 55.0361 41.3854 54.8914C41.3276 54.7684 41.2697 54.5513 41.2407 54.1316L41.9425 54.1099C42.5357 54.0954 42.6515 54.1171 42.6515 54.2039C42.6515 54.2618 42.7238 54.3631 42.8107 54.421C42.9047 54.4789 43.1218 54.5296 43.3026 54.5296C43.4835 54.5296 43.7439 54.4717 43.8813 54.3921C44.0188 54.3197 44.1852 54.1678 44.2575 54.052C44.3227 53.9362 44.4312 53.6612 44.6121 53.0461L44.4095 53.2415C44.301 53.3501 44.0839 53.4876 43.932 53.5455C43.7873 53.6106 43.469 53.6612 43.2302 53.6612C42.9915 53.6612 42.6732 53.6106 42.5213 53.5455C42.3765 53.4876 42.1595 53.3501 42.051 53.2415C41.9425 53.133 41.7978 52.8797 41.7399 52.6843C41.6821 52.4817 41.6387 52.1923 41.6387 52.0331C41.6387 51.8739 41.7037 51.4831 41.7833 51.1647C41.8702 50.8463 42.0221 50.4411 42.1233 50.2602C42.2319 50.0793 42.4489 49.7898 42.6081 49.6162C42.7745 49.4425 43.0276 49.2399 43.1724 49.1675C43.3243 49.0879 43.5702 49.0011 43.715 48.9649C43.8669 48.9287 44.0695 48.8998 44.1707 48.8926ZM43.3967 50.5279C43.317 50.6365 43.1941 50.8825 43.129 51.0707C43.0639 51.266 43.0132 51.5772 43.0132 51.7798C43.0132 52.062 43.0566 52.1923 43.1941 52.3587C43.3459 52.5468 43.4256 52.5758 43.715 52.5758C43.9682 52.5758 44.1418 52.5251 44.3299 52.3949C44.5107 52.2791 44.6699 52.0837 44.7784 51.8305C44.8798 51.6278 44.981 51.3095 45.0099 51.1285C45.0316 50.9476 45.0172 50.6871 44.9738 50.5279C44.9232 50.347 44.8218 50.224 44.6772 50.1517C44.5613 50.0938 44.3516 50.0431 44.2213 50.0431C44.0984 50.0431 43.8886 50.1082 43.7728 50.1806C43.6498 50.253 43.4835 50.4122 43.3967 50.5279Z" fill="white"/>
<path d="M92.7504 1.52406C93.2713 1.42275 94.0526 1.2925 94.4867 1.23461C94.9207 1.18396 95.9987 1.14054 96.8741 1.1333C97.7495 1.1333 98.7551 1.16225 99.1168 1.19843C99.4785 1.24185 100.079 1.32145 100.455 1.38657C100.831 1.4517 101.634 1.62537 102.228 1.77733C102.828 1.92929 103.718 2.20427 104.217 2.39241C104.716 2.58055 105.513 2.92065 105.99 3.14498C106.467 3.37654 107.198 3.76729 107.617 4.01333C108.037 4.26659 108.688 4.6863 109.064 4.96127C109.441 5.22901 110.063 5.71384 110.439 6.03224C110.815 6.34339 111.488 6.98018 111.922 7.42883C112.356 7.88471 112.942 8.52874 113.21 8.86884C113.484 9.20895 113.998 9.92533 114.36 10.4608C114.715 10.9963 115.236 11.8936 115.518 12.4508C115.8 13.008 116.176 13.8185 116.349 14.2599C116.53 14.7013 116.798 15.4973 116.957 16.0327C117.116 16.5682 117.319 17.4149 117.413 17.9142C117.515 18.4135 117.63 19.1443 117.681 19.5423C117.739 19.9693 117.775 20.9823 117.775 22.0388C117.768 23.4933 117.739 23.9998 117.609 24.861C117.522 25.4399 117.37 26.2503 117.269 26.67C117.175 27.0897 116.993 27.7554 116.87 28.1534C116.747 28.5514 116.516 29.2027 116.357 29.6007C116.197 29.9987 115.908 30.6499 115.72 31.0479C115.525 31.4459 115.199 32.0682 114.99 32.4228C114.787 32.7774 114.404 33.3852 114.136 33.7615C113.875 34.1378 113.463 34.695 113.224 34.9917C112.985 35.2884 112.385 35.9541 111.886 36.4679C111.387 36.9744 110.656 37.6619 110.258 37.9947C109.86 38.3204 109.303 38.7473 109.028 38.9499C108.754 39.1525 108.211 39.5071 107.834 39.7314C107.458 39.963 106.626 40.4044 105.99 40.7156C105.346 41.0267 104.304 41.4536 103.638 41.678C102.98 41.9023 102.38 42.0832 102.3 42.0832C102.221 42.076 101.8 41.7793 101.374 41.4102C100.947 41.0412 100.578 40.6938 100.564 40.636C100.549 40.5781 100.499 40.086 100.455 39.5505C100.37 38.5959 100.375 38.553 100.652 36.467L100.665 36.3666C100.831 35.1509 100.976 34.0944 100.998 34.0148C101.019 33.9135 101.106 33.8556 101.301 33.8194C101.555 33.7688 101.627 33.7977 102.264 34.2319C102.614 34.4676 103.146 34.8412 103.492 35.0843L103.566 35.1364C103.906 35.3752 104.441 35.7081 104.759 35.86C105.078 36.0192 105.549 36.1929 105.809 36.2508C106.214 36.3376 106.344 36.3376 106.749 36.2508C107.075 36.1857 107.284 36.0916 107.422 35.9541C107.61 35.7732 107.624 35.7081 107.61 35.3173C107.595 35.0351 107.632 34.8108 107.704 34.6661C107.798 34.4851 107.892 34.4273 108.269 34.3404C108.515 34.2825 108.732 34.2102 108.746 34.1812C108.761 34.145 108.739 33.9714 108.703 33.7832C108.659 33.5879 108.609 33.378 108.594 33.3129C108.565 33.2116 108.688 33.1247 109.137 32.9149C109.585 32.705 109.723 32.6037 109.715 32.4952C109.715 32.4156 109.65 32.1044 109.571 31.8077C109.491 31.5111 109.426 31.2361 109.426 31.1927C109.426 31.1492 109.556 31.0769 109.715 31.0335C109.874 30.9828 110.164 30.7874 110.728 30.2519L110.395 29.7454C110.207 29.4632 109.932 28.9784 109.78 28.66C109.636 28.3416 109.469 27.9002 109.426 27.6831C109.375 27.466 109.347 27.1042 109.361 26.8799C109.383 26.5253 109.441 26.395 109.759 25.9392C109.969 25.6425 110.2 25.2083 110.279 24.9695C110.359 24.7307 110.446 24.3399 110.475 24.1011C110.504 23.8623 110.489 23.4137 110.446 23.1098C110.402 22.7986 110.272 22.2342 110.149 21.8579C110.026 21.4816 109.911 21.1705 109.882 21.1705C109.846 21.1705 109.752 21.308 109.672 21.4744C109.585 21.6481 109.296 22.0461 109.021 22.3644C108.746 22.6828 108.291 23.2183 108.008 23.5584C107.718 23.8985 107.248 24.4195 106.959 24.7235C106.489 25.2083 106.315 25.3313 105.556 25.7076C105.078 25.9392 104.13 26.3154 103.458 26.5398C102.785 26.7641 101.641 27.1259 100.925 27.3502C100.209 27.5673 98.7406 28.0087 97.6699 28.3199C96.4038 28.6962 95.5068 29.0001 95.1161 29.1955C94.7906 29.3547 94.5084 29.5211 94.4867 29.5645C94.465 29.6079 94.5156 29.6369 94.5952 29.6369C94.6965 29.6369 94.7978 29.7454 94.928 29.9842C95.1089 30.3098 95.1161 30.346 95.0366 30.7947C94.9858 31.0552 94.8629 31.5907 94.7689 31.9886C94.6675 32.3866 94.4361 33.1537 94.2552 33.6892C94.0815 34.2246 93.7704 35.0713 93.5679 35.5706C93.3653 36.0699 93.0253 36.8442 92.8155 37.2928C92.5767 37.7776 92.3742 38.1177 92.2946 38.1394C92.2295 38.1539 92.0632 38.2769 91.9329 38.4072C91.8027 38.5447 91.6941 38.7184 91.7013 38.8124C91.7013 38.8993 91.7593 39.0295 91.8389 39.1019C91.9618 39.2177 91.9546 39.2683 91.0503 41.9385L90.6668 41.8227C90.4642 41.7576 89.871 41.5405 89.3502 41.3379C88.8293 41.1353 88.019 40.7734 87.5416 40.5274C87.064 40.2814 86.3406 39.8761 85.9282 39.6156C85.5231 39.3624 84.872 38.9137 84.4814 38.6243C84.0979 38.3348 83.4612 37.8138 83.0634 37.4665C82.6726 37.1191 82.0288 36.4824 81.6309 36.0409C81.233 35.5995 80.6398 34.8904 80.307 34.449C79.9742 34.0076 79.4822 33.2984 79.2146 32.857C78.9469 32.4156 78.4911 31.5762 78.2018 30.9756C77.9124 30.3822 77.5433 29.5139 77.377 29.058C77.2106 28.6021 76.9501 27.741 76.7982 27.1404C76.6462 26.547 76.4437 25.5846 76.3569 25.0057C76.2122 24.1084 76.1905 23.667 76.1905 21.9665C76.1833 20.4179 76.2122 19.7883 76.3135 19.1081C76.3859 18.6305 76.5088 17.9286 76.5956 17.5524C76.6753 17.1761 76.8488 16.4886 76.9791 16.0327C77.1165 15.5769 77.4059 14.7447 77.6302 14.1875C77.8545 13.6303 78.2452 12.7692 78.5128 12.2699C78.7733 11.7706 79.2001 11.0397 79.4533 10.6417C79.7138 10.2437 80.1767 9.59247 80.4806 9.19447C80.7844 8.79648 81.4717 8.0222 82.0071 7.46501C82.5424 6.91506 83.3455 6.16973 83.7795 5.80791C84.2137 5.4461 85.0022 4.87444 85.5159 4.53434C86.0368 4.19423 86.9122 3.68046 87.4691 3.39825C88.0262 3.1088 88.8582 2.73251 89.314 2.55161C89.7698 2.3707 90.5222 2.1102 90.9779 1.97271C91.4338 1.83522 92.2295 1.6326 92.7504 1.52406Z" fill="#495B14"/>
<path fill-rule="evenodd" clip-rule="evenodd" d="M60.7223 2.36377C60.7657 2.36377 60.8091 2.42889 60.8091 2.51573C60.8091 2.6098 60.3028 6.2641 59.6878 10.642C58.6677 17.8493 58.5592 18.6815 58.6026 20.2807L57.6621 20.3313C57.1485 20.353 56.0923 20.3965 55.3254 20.4254C54.11 20.4761 53.9364 20.4688 53.9436 20.3747C53.9436 20.3169 53.9653 20.1215 54.0521 19.6149L53.6108 19.9116C53.3721 20.0781 53.0465 20.2807 52.8873 20.3603C52.7282 20.4399 52.3736 20.5701 52.0915 20.657C51.8167 20.7438 51.3247 20.8306 51.0064 20.8523C50.623 20.8813 50.2539 20.8596 49.9211 20.7872C49.6462 20.7293 49.2194 20.5918 48.9807 20.4761C48.7057 20.3458 48.3585 20.0781 48.0402 19.7597C47.7653 19.4774 47.4252 19.0722 47.2951 18.8551C47.172 18.638 46.955 18.1677 46.832 17.8059C46.6005 17.1691 46.5933 17.1257 46.5933 15.9606C46.5933 14.9476 46.6149 14.6726 46.7597 14.1154C46.8537 13.7608 47.1069 13.1096 47.3168 12.6681C47.5337 12.234 47.8665 11.6623 48.0619 11.4018C48.2572 11.1413 48.6696 10.6927 48.9734 10.4104C49.2773 10.121 49.791 9.70855 50.1237 9.49146C50.4493 9.27437 50.9485 8.9994 51.2234 8.88362C51.5056 8.7606 52.0047 8.58693 52.3447 8.5001C52.8512 8.36261 53.155 8.33366 54.0449 8.33366C54.6453 8.32643 55.2458 8.3409 55.6364 8.39879L55.868 6.77064C55.9981 5.87334 56.1067 4.81685 56.114 4.41886C56.1212 4.02087 56.0995 3.57946 56.0272 3.1887L58.3277 2.78347C59.5937 2.55915 60.6717 2.371 60.7223 2.36377ZM52.815 10.9315C52.6558 11.0545 52.4027 11.315 52.2507 11.5104C52.0988 11.713 51.8673 12.082 51.7515 12.3425C51.6285 12.603 51.4476 13.124 51.3536 13.5003C51.2596 13.8766 51.1582 14.5134 51.1365 14.9114C51.1148 15.3383 51.1293 15.8449 51.1799 16.1415C51.2234 16.4165 51.3536 16.8435 51.4693 17.0823C51.5779 17.3211 51.7732 17.6033 51.8962 17.719C52.0264 17.8276 52.2579 17.9434 52.4171 17.9868C52.6341 18.0447 52.8078 18.0302 53.1261 17.9506C53.3504 17.8855 53.7265 17.7263 53.9581 17.5888C54.2981 17.3789 54.3776 17.2921 54.4066 17.104C54.4283 16.9737 54.6164 15.5916 54.8335 14.043C55.0504 12.4945 55.2241 11.1268 55.2241 11.0111C55.2169 10.8301 55.1662 10.7867 54.8841 10.6782C54.7032 10.6058 54.3921 10.5335 54.1895 10.5045C53.9291 10.4756 53.7193 10.4973 53.4589 10.5913C53.2635 10.6565 52.9669 10.8084 52.815 10.9315ZM20.3319 4.8458C20.6791 4.85303 20.7587 4.87474 20.737 4.96158C20.7225 5.01947 20.6574 5.35957 20.5851 5.72138C20.5128 6.07596 19.9774 9.7592 19.3914 13.8983C18.8126 18.0374 18.3206 21.4964 18.3062 21.5904C18.27 21.7424 18.2266 21.7496 17.4597 21.7858C17.0112 21.8003 16.3095 21.8365 15.1592 21.8944L11.1295 16.829C8.9085 14.0358 7.08539 11.7709 7.07815 11.7781C7.06369 11.7926 6.78154 13.7681 6.44151 16.1777C5.89892 19.9767 5.81935 20.6642 5.86275 22.1766L5.46485 22.2127C5.24782 22.2345 4.35797 22.2706 1.91992 22.3285L1.95609 22.1621C1.9778 22.0753 2.46251 18.6308 3.04852 14.5134C3.99624 7.79818 4.09752 6.94431 4.05411 5.41022L5.86275 5.36681C7.43265 5.32339 7.67862 5.33062 7.74374 5.4247C7.78714 5.48259 9.55961 7.66793 11.6865 10.273C13.8135 12.878 15.5643 15.0055 15.5715 14.9982C15.5787 14.991 15.8464 13.1096 16.172 10.8229C16.4903 8.53628 16.7652 6.38712 16.7724 6.04701C16.7724 5.70691 16.758 5.32339 16.6784 4.96158L17.1703 4.95434C17.438 4.9471 18.1615 4.91816 18.7764 4.88921C19.3914 4.86027 20.0931 4.8458 20.3319 4.8458ZM66.7415 7.88502C67.7254 7.89949 68.1956 7.94291 68.514 8.02974C68.7527 8.1021 69.1217 8.23959 69.3387 8.34814C69.5486 8.45668 69.8669 8.69548 70.0404 8.88362C70.2141 9.079 70.4238 9.38292 70.5035 9.57106C70.5903 9.76644 70.6915 10.1282 70.7277 10.3887C70.7712 10.6492 70.7857 11.0689 70.7567 11.3294C70.7277 11.59 70.5831 12.5451 70.4311 13.4641C70.2792 14.3831 70.0983 15.5699 70.0332 16.1054C69.9464 16.7928 69.9175 17.3572 69.9464 18.023C69.9681 18.5367 70.0332 19.1591 70.0983 19.3979C70.1635 19.6366 70.2069 19.8393 70.1996 19.8537C70.1852 19.861 69.2301 19.9116 68.0655 19.9623C66.9079 20.0057 65.9384 20.0346 65.9167 20.0129C65.895 19.9912 65.8516 19.8248 65.7648 19.2893L65.4755 19.4847C65.3162 19.5932 64.9256 19.8031 64.6073 19.955C64.289 20.107 63.7825 20.2807 63.4859 20.3458C63.0953 20.4326 62.748 20.4471 62.2561 20.4182C61.8799 20.3965 61.4096 20.3313 61.2071 20.2807C61.0117 20.23 60.6862 20.107 60.4836 20.0129C60.2883 19.9189 59.9555 19.6728 59.7529 19.4702C59.5069 19.2314 59.3334 18.9709 59.232 18.6887C59.1163 18.3993 59.0729 18.1098 59.0729 17.7118C59.0729 17.3572 59.1235 16.9809 59.2103 16.6843C59.2899 16.4238 59.4852 16.0185 59.6372 15.7797C59.7963 15.5409 60.0785 15.1936 60.2738 15.0127C60.4691 14.8245 60.8237 14.5423 61.0623 14.3831C61.3011 14.2239 61.7859 13.949 62.1476 13.7681C62.5093 13.5944 63.6379 13.124 66.5244 12.0169L66.5679 11.6551C66.6041 11.3729 66.5824 11.2209 66.4593 10.9459C66.3436 10.6854 66.235 10.5696 66.0036 10.4539C65.7431 10.3236 65.6201 10.3091 65.2222 10.3453C64.9618 10.3743 64.4916 10.4466 64.1733 10.5118C63.855 10.5696 63.269 10.7361 62.871 10.8736C62.4731 11.0111 61.8437 11.2716 61.482 11.4452C61.113 11.6189 60.7947 11.7419 60.7802 11.7057C60.7585 11.6768 60.8091 11.1992 60.8888 10.642C60.9683 10.0848 61.0407 9.56382 61.0551 9.48423C61.0768 9.39015 61.2722 9.23819 61.5833 9.07176C61.851 8.92703 62.3211 8.70995 62.6178 8.59417C62.9144 8.47839 63.4064 8.31195 63.703 8.22512C63.9996 8.14552 64.506 8.02974 64.8244 7.97185C65.2439 7.89225 65.7793 7.87054 66.7415 7.88502ZM64.2456 15.0272C64.0502 15.2081 63.797 15.4975 63.6885 15.6784C63.58 15.8521 63.4425 16.2067 63.3774 16.4672C63.2979 16.7566 63.269 17.0533 63.2979 17.2415C63.3268 17.4368 63.4208 17.6394 63.5511 17.7842C63.7319 17.9868 63.8115 18.023 64.0792 18.0157C64.2528 18.0157 64.506 17.9723 64.6435 17.9144C64.781 17.8638 65.0993 17.6901 65.3525 17.5237L65.8082 17.227C65.801 16.554 65.8516 15.9317 65.9095 15.4179C65.9747 14.8969 66.0325 14.4048 66.047 14.3108C66.0542 14.2239 66.0325 14.1516 65.9891 14.1588C65.9457 14.1661 65.6201 14.2818 65.2584 14.4266C64.8099 14.6147 64.4988 14.7956 64.2456 15.0272ZM43.3015 8.70271C43.6778 8.72442 44.1624 8.78231 44.3723 8.8402C44.5749 8.89809 44.8787 9.00663 45.0378 9.08623C45.197 9.16583 45.4502 9.3395 45.6021 9.47699C45.7468 9.60724 45.9566 9.89669 46.0579 10.1065C46.1665 10.3236 46.2894 10.6709 46.3328 10.8736C46.3763 11.0834 46.4124 11.5393 46.4124 11.8866C46.4124 12.2846 46.246 13.674 45.9711 15.5626C45.6166 17.9868 45.5226 18.819 45.4792 20.7727L43.1786 20.8596C41.9126 20.903 40.8707 20.9319 40.8635 20.9319C40.8563 20.9247 41.1095 19.0939 41.4206 16.8652C41.7389 14.6364 41.9993 12.6681 41.9993 12.4872C41.9993 12.3063 41.9632 12.0386 41.927 11.8939C41.8836 11.7419 41.7823 11.5682 41.6955 11.5104C41.6015 11.4525 41.4133 11.4018 41.2759 11.4018C41.1384 11.4018 40.7839 11.4669 40.5018 11.5465C40.2124 11.6261 39.8435 11.7564 39.6843 11.836C39.5107 11.9228 39.3804 12.0458 39.3587 12.1471C39.3442 12.234 39.1055 13.8332 38.845 15.7074C38.4616 18.4065 38.3604 19.3038 38.3459 21.0115L37.6224 21.0549C37.2245 21.0767 36.19 21.1201 35.3219 21.149C34.0848 21.1924 33.752 21.1852 33.752 21.1201C33.752 21.0694 34.0631 18.819 34.4465 16.1271C35.0614 11.7853 35.141 11.1268 35.112 10.4104C35.1048 9.96182 35.0976 9.59277 35.112 9.59277C35.1193 9.59277 36.1248 9.41186 37.3548 9.19478C38.5774 8.97769 39.6336 8.79678 39.7059 8.79678C39.8145 8.79678 39.8218 8.84744 39.7856 9.14412C39.7639 9.33226 39.7276 9.54212 39.7132 9.61448C39.6915 9.70855 39.8218 9.6579 40.2486 9.41186C40.5524 9.23096 41.001 9.02111 41.2397 8.94151C41.4784 8.86191 41.8836 8.76784 42.144 8.73166C42.4044 8.68824 42.9254 8.681 43.3015 8.70271ZM28.9048 9.09347C29.3823 9.09347 29.9538 9.13689 30.2432 9.19478C30.5254 9.25267 30.9305 9.37568 31.1475 9.46252C31.3646 9.54935 31.7263 9.72302 31.9434 9.85327C32.1603 9.97629 32.5148 10.244 32.7319 10.4322C32.9489 10.6275 33.2311 10.9532 33.354 11.1485C33.4843 11.3512 33.694 11.807 33.8243 12.1616C33.9545 12.5162 34.1065 13.0227 34.1643 13.2832C34.2366 13.6089 34.2583 13.9273 34.2222 14.3325C34.1933 14.7088 34.1282 14.9765 34.0486 15.0923C33.9762 15.1936 33.8605 15.4541 33.7882 15.6712C33.7157 15.8883 33.5349 16.3297 33.383 16.6481C33.2311 16.9665 32.9851 17.4151 32.8332 17.6394C32.6812 17.8638 32.3774 18.269 32.1603 18.5295C31.9434 18.7972 31.5382 19.2097 31.256 19.4485C30.9811 19.6873 30.5037 20.0419 30.207 20.2373C29.9104 20.4399 29.3389 20.7583 28.941 20.9536C28.543 21.149 27.9715 21.3878 27.6749 21.4891C27.3783 21.5904 26.8213 21.7207 26.445 21.793C25.9314 21.8799 25.5262 21.9016 24.8534 21.8726C24.2964 21.8437 23.7393 21.7713 23.4065 21.6845C23.1099 21.6049 22.6036 21.4095 22.2851 21.2503C21.909 21.0622 21.5545 20.8162 21.2796 20.5412C21.0408 20.3096 20.7442 19.9623 20.614 19.7597C20.4837 19.5643 20.2957 19.188 20.1944 18.9275C20.1003 18.667 19.9774 18.1822 19.934 17.8421C19.8833 17.502 19.8616 16.9809 19.8833 16.6843C19.9051 16.3803 20.0208 15.8521 20.1437 15.4686C20.2668 15.1068 20.5128 14.5206 20.6863 14.1733C20.86 13.8187 21.1928 13.276 21.4315 12.9576C21.6702 12.6392 22.1405 12.1182 22.4733 11.7998C22.8061 11.4814 23.3631 11.04 23.6959 10.8084C24.0359 10.5841 24.5568 10.273 24.8534 10.1065C25.1501 9.94734 25.7361 9.70131 26.1556 9.56382C26.5753 9.42634 27.1758 9.2599 27.4941 9.20201C27.8124 9.14412 28.449 9.09347 28.9048 9.09347ZM30.9305 13.276C30.5543 13.5293 29.9972 13.8549 29.7006 14.0069C29.404 14.1588 28.912 14.3687 28.6154 14.47C28.3188 14.5785 27.5881 14.7956 26.9876 14.9476C26.3944 15.0995 25.6421 15.3238 25.3237 15.4469C25.0054 15.5699 24.47 15.8376 24.13 16.0475C23.7899 16.2573 23.2257 16.7132 22.8639 17.0533C22.5094 17.4006 22.0682 17.8782 21.8873 18.1243C21.7065 18.3703 21.3881 18.8551 21.1711 19.2025L20.7804 19.832C22.032 18.6236 22.6831 18.0881 23.1533 17.7769C23.5947 17.4875 24.2747 17.0823 24.6725 16.8796C25.0705 16.6843 25.671 16.4165 26.011 16.279C26.351 16.1488 27.031 15.9245 27.5302 15.7797C28.0295 15.635 28.6806 15.4179 28.9772 15.3021C29.2738 15.1936 29.7801 14.9331 30.0985 14.7377C30.4168 14.5423 30.9305 14.1443 31.2488 13.8549C31.5598 13.5582 31.9723 13.1096 32.1676 12.8491C32.3629 12.5886 32.6306 12.1616 32.768 11.8866C32.9055 11.6189 33.014 11.409 33.0068 11.4163C32.9995 11.4163 32.6812 11.7347 32.3051 12.1182C31.9071 12.5234 31.3284 13.0083 30.9305 13.276ZM48.1125 22.6252C48.8071 22.618 49.422 22.6614 49.8127 22.7265C50.1527 22.7916 50.4638 22.864 50.5144 22.893C50.5722 22.9291 50.5216 23.1896 50.3191 23.8481C50.1671 24.3474 49.9573 25.0349 49.6679 26.019H49.3641C49.1037 26.0118 49.0024 25.9684 48.7491 25.7296C48.5756 25.5704 48.3223 25.3895 48.1848 25.3316C48.0474 25.2737 47.7436 25.223 47.5193 25.223C47.2299 25.223 47.0274 25.2664 46.8682 25.3677C46.738 25.4473 46.5643 25.6427 46.4848 25.8019C46.4052 25.9611 46.2894 26.2795 46.2315 26.5111C46.1737 26.7354 46.0797 27.2564 46.0145 27.6689C45.9566 28.0741 45.906 28.4576 45.906 28.5155C45.906 28.6096 46.0651 28.6168 48.3657 28.5155V28.7326C48.3657 28.8484 48.3296 29.1595 48.2934 29.42C48.2572 29.6805 48.2066 29.9917 48.1414 30.3246L48.4164 30.0641C48.5683 29.9266 48.8216 29.7095 48.9807 29.5865C49.1399 29.4635 49.4654 29.2464 49.7042 29.1089C49.9428 28.9714 50.3987 28.7471 50.717 28.6241C51.0353 28.4938 51.5851 28.3201 51.9468 28.2405C52.475 28.1175 52.8367 28.0958 53.864 28.0958C54.8986 28.0958 55.2313 28.1248 55.6726 28.2405C55.9692 28.3274 56.425 28.4938 56.6855 28.6241C56.946 28.7615 57.3077 29.0148 57.4885 29.1957C57.6694 29.3766 57.9154 29.724 58.0383 29.9628C58.1614 30.2016 58.3132 30.5923 58.3783 30.8311C58.4507 31.0916 58.5158 31.6922 58.5809 33.3638L58.7835 32.7487C58.8848 32.4086 59.0801 31.9238 59.2175 31.6633C59.3478 31.4028 59.5865 30.9975 59.7602 30.7587C59.9266 30.5199 60.3534 30.0496 60.7079 29.7167C61.0623 29.3839 61.6122 28.9497 61.9305 28.7543C62.2488 28.5662 62.7697 28.3057 63.088 28.1826C63.4064 28.0596 63.9417 27.8932 64.2818 27.8064C64.7954 27.6761 65.1065 27.6544 66.2351 27.6544C67.3926 27.6616 67.653 27.6833 68.1523 27.8208C68.4706 27.9077 68.9191 28.0813 69.1578 28.2116C69.3894 28.3418 69.7366 28.6168 69.932 28.8267C70.1272 29.0293 70.3732 29.3911 70.4818 29.6227C70.5831 29.847 70.7205 30.2016 70.7712 30.3969C70.829 30.5995 70.8869 31.1206 70.9158 31.5547C70.9375 31.9961 70.9375 32.6619 70.9086 33.0382C70.8797 33.4144 70.8363 33.7618 70.8074 33.8124C70.7712 33.8703 69.8161 33.9282 67.5735 34.0078C65.8227 34.0729 63.9996 34.1453 62.654 34.2104L62.7119 34.7097C62.7408 34.9847 62.8348 35.3972 62.9216 35.6287C63.023 35.882 63.2255 36.1932 63.457 36.4392C63.6957 36.6997 63.9851 36.9095 64.289 37.0543C64.723 37.2569 64.8027 37.2714 65.5839 37.2641C66.1916 37.2569 66.633 37.2062 67.2118 37.0687C67.653 36.9747 68.3475 36.7576 68.7672 36.5984C69.1867 36.4392 69.5557 36.3306 69.5847 36.3596C69.6136 36.3813 69.5775 36.8734 69.4906 37.4523C69.3532 38.4219 69.3315 38.516 69.1434 38.6607C69.0349 38.7476 68.6732 38.9646 68.3331 39.1455C67.993 39.3192 67.4287 39.5652 67.067 39.6955C66.7053 39.8185 66.0904 39.9849 65.6925 40.0718C65.121 40.1948 64.7158 40.2237 63.7391 40.2237C62.7263 40.2237 62.4153 40.202 61.9667 40.079C61.67 39.9994 61.1782 39.8113 60.8815 39.6593C60.4836 39.4567 60.187 39.2324 59.7529 38.7982C59.3261 38.364 59.1018 38.0673 58.9065 37.6694C58.7618 37.3727 58.5809 36.9168 58.5158 36.6563C58.429 36.3379 58.3928 35.8965 58.3856 35.2669C58.3856 34.7531 58.3711 34.3407 58.3494 34.3407C58.3277 34.3407 56.6204 34.4058 54.5513 34.4854C52.4822 34.565 50.6736 34.6301 50.2828 34.6301L50.3336 35.1873C50.3697 35.6143 50.4493 35.8748 50.6302 36.2583C50.7821 36.5694 51.0064 36.8734 51.1945 37.047C51.3681 37.199 51.6936 37.4088 51.9107 37.5174C52.2724 37.6911 52.3809 37.7055 53.1767 37.6983C53.7265 37.6983 54.2692 37.6476 54.6598 37.568C54.9998 37.4957 55.5641 37.3365 55.9258 37.2135C56.2875 37.0977 56.7144 36.9385 56.888 36.8661C57.0544 36.7865 57.2063 36.7504 57.2209 36.7865C57.2353 36.8155 57.1846 37.3075 57.1123 37.8864C56.9749 38.8489 56.9532 38.9502 56.7723 39.1021C56.6638 39.189 56.2152 39.4422 55.7812 39.6593C55.3471 39.8764 54.7249 40.1369 54.4066 40.2382C54.0883 40.3395 53.5673 40.477 53.249 40.5349C52.9307 40.6 52.229 40.6652 51.6936 40.6869C50.963 40.7158 50.5433 40.6941 50.0297 40.6073C49.6535 40.5349 49.1326 40.3974 48.8722 40.2889C48.6117 40.1803 48.1849 39.9343 47.9172 39.7462C47.6423 39.558 47.266 39.2034 47.0635 38.9574C46.8682 38.7041 46.6077 38.3061 46.492 38.0673C46.369 37.8285 46.2243 37.4378 46.1592 37.199C46.0941 36.9602 46.0217 36.4102 46 35.9688C45.9783 35.4116 46 34.9558 46.0869 34.4492C46.152 34.0512 46.2822 33.4868 46.3835 33.2046C46.4775 32.9151 46.6729 32.4376 46.8175 32.1553C46.9622 31.8659 47.1937 31.4751 47.5699 30.9397L46.5788 30.9831C46.0289 31.012 45.5732 31.0337 45.5588 31.041C45.5515 31.041 45.2911 32.7559 44.9944 34.8472C44.5314 38.0312 44.4374 38.8127 44.4229 40.6796L42.1078 40.7665C40.8346 40.8099 39.7856 40.8388 39.7711 40.8316C39.7639 40.8243 40.0605 38.6535 40.4367 36.005C40.8056 33.3566 41.1095 31.1857 41.1023 31.1784C41.1023 31.1784 40.3644 31.2002 39.4673 31.2363C38.5702 31.2725 37.825 31.3232 37.8033 31.3449C37.7816 31.3666 37.5284 33.0671 37.2318 35.1222C36.7833 38.2627 36.6964 39.0298 36.6891 39.8981C36.6819 40.8678 36.6747 40.9329 36.5373 40.9618C36.4577 40.9763 35.4159 41.0197 34.2222 41.0559C33.0285 41.0993 32.0446 41.121 32.0301 41.1138C32.0157 41.1138 32.3123 38.9357 33.354 31.4462L31.3501 31.5547L31.3935 31.3738C31.4152 31.2725 31.4875 30.8166 31.5454 30.3608C31.6105 29.9049 31.6757 29.449 31.6974 29.3477C31.7263 29.1668 31.7408 29.1668 32.6885 29.1089C33.2094 29.0799 33.6506 29.051 33.6651 29.0365C33.6723 29.0293 33.7448 28.7109 33.8171 28.3346C33.8894 27.9583 34.0558 27.3867 34.1788 27.0683C34.3017 26.7499 34.5405 26.2795 34.7069 26.019C34.8805 25.7585 35.2133 25.3605 35.452 25.1217C35.6908 24.8902 36.1466 24.5428 36.4649 24.3474C36.7833 24.1521 37.3113 23.8916 37.6441 23.7758C37.9697 23.6528 38.5412 23.508 38.9102 23.4429C39.4021 23.3561 39.8435 23.3344 40.5886 23.3633C41.2904 23.385 41.7316 23.4429 42.021 23.5297C42.2526 23.6093 42.4334 23.7034 42.4334 23.7396C42.4334 23.783 42.1947 24.4053 41.3844 26.4532H41.095C40.9069 26.4604 40.7695 26.417 40.6972 26.3374C40.6392 26.265 40.4584 26.1565 40.2992 26.0841C40.1401 26.0118 39.8652 25.9466 39.6843 25.9466C39.5034 25.9466 39.2502 26.0045 39.1055 26.0841C38.9319 26.171 38.7872 26.3374 38.657 26.6051C38.5412 26.8222 38.411 27.2202 38.3531 27.5024C38.2953 27.7847 38.2229 28.2116 38.1288 28.9207L39.3949 28.8773C40.0895 28.8556 40.8346 28.8194 41.0444 28.805C41.2541 28.7833 41.435 28.7326 41.4495 28.6819C41.464 28.6313 41.5291 28.2767 41.5942 27.9004C41.6666 27.5241 41.8257 26.938 41.9487 26.5979C42.0789 26.2578 42.296 25.7947 42.4334 25.5559C42.5709 25.3243 42.8675 24.9408 43.0846 24.702C43.3015 24.456 43.6632 24.1231 43.8803 23.9567C44.0974 23.783 44.488 23.537 44.7485 23.3923C45.0089 23.2548 45.414 23.0666 45.6528 22.987C45.8915 22.9002 46.2966 22.7844 46.5571 22.7338C46.832 22.6686 47.4831 22.6252 48.1125 22.6252ZM64.4264 30.2594C64.2456 30.3825 63.9851 30.643 63.8332 30.8383C63.6885 31.0337 63.4715 31.4028 63.3485 31.6633C63.2255 31.9238 63.1387 32.1336 63.1459 32.1409C63.1531 32.1409 63.9779 32.1119 64.969 32.0757C66.1844 32.0323 66.7993 31.9817 66.8355 31.931C66.8645 31.8804 66.8718 31.6633 66.8501 31.4462C66.8283 31.2291 66.7704 30.9324 66.727 30.7949C66.6836 30.6574 66.5679 30.4331 66.4593 30.2956C66.3581 30.1581 66.1627 29.9989 66.0398 29.9483C65.9095 29.8976 65.6925 29.8542 65.5695 29.8615C65.4393 29.8615 65.2005 29.9049 65.0414 29.9555C64.8822 30.0062 64.6073 30.1437 64.4264 30.2594ZM52.0192 30.737C51.8239 30.8818 51.5562 31.1423 51.4259 31.3087C51.303 31.4824 51.1004 31.8369 50.9774 32.0974C50.8544 32.358 50.7676 32.575 50.7748 32.5823C50.7821 32.5895 51.4911 32.5606 52.3447 32.5316C53.1984 32.4954 54.0232 32.4665 54.175 32.4593H54.4427C54.4066 31.4679 54.3632 31.2508 54.2258 30.9831C54.1172 30.766 53.9436 30.5706 53.7916 30.4838C53.6542 30.4042 53.4082 30.3246 53.249 30.3101C53.0899 30.3029 52.8295 30.3318 52.6703 30.3825C52.5111 30.4331 52.2218 30.5923 52.0192 30.737ZM26.5536 29.0148C27.1033 29.0365 27.6749 29.0944 27.9281 29.1595C28.1669 29.2247 28.6589 29.42 29.0133 29.5937C29.3895 29.7819 29.8453 30.0785 30.0912 30.3029C30.33 30.5127 30.6266 30.8528 30.7641 31.0482C30.8943 31.2508 31.1258 31.7718 31.2632 32.206C31.5165 32.9803 31.5237 33.0237 31.4875 33.9065C31.4658 34.6374 31.4224 34.9341 31.256 35.4261C31.1475 35.7662 30.8943 36.3668 30.6917 36.7648C30.4892 37.1628 30.1347 37.7345 29.9104 38.0312C29.6861 38.3278 29.2304 38.8271 28.8975 39.1455C28.5647 39.4567 28.0295 39.8836 27.7111 40.1007C27.3927 40.3106 26.7272 40.6796 26.2281 40.9184C25.7288 41.1572 25.0127 41.4394 24.6364 41.5407C24.0938 41.6927 23.7248 41.7434 22.9002 41.7723C22.0175 41.8012 21.7354 41.7868 21.1277 41.6565C20.6357 41.5552 20.1944 41.4105 19.7531 41.1862C19.2756 40.9474 18.9789 40.7375 18.6462 40.4047C18.4003 40.1514 18.1977 39.9054 18.1977 39.8619C18.1977 39.8113 18.1687 39.7679 18.1254 39.7679C18.0892 39.7679 17.9589 39.5797 17.8432 39.3554C17.7274 39.1238 17.5827 38.7765 17.5177 38.5739C17.4452 38.3785 17.3584 37.966 17.3223 37.6694C17.2789 37.3148 17.2789 36.9168 17.3223 36.5116C17.3657 36.1715 17.4815 35.636 17.5827 35.3176C17.6912 34.9992 17.8794 34.5144 18.0168 34.2321C18.147 33.9499 18.4292 33.4651 18.6462 33.1467C18.856 32.8283 19.2901 32.3073 19.6084 31.9817C19.9268 31.656 20.462 31.1929 20.8021 30.9397C21.1422 30.6936 21.6268 30.3752 21.8873 30.2305C22.1477 30.0858 22.6325 29.847 22.9725 29.7023C23.3125 29.5575 23.7972 29.3766 24.0576 29.3115C24.3181 29.2391 24.7739 29.1451 25.0705 29.0872C25.4105 29.0293 25.9676 29.0003 26.5536 29.0148ZM28.7963 32.8573C28.5213 33.0743 28.0149 33.4144 27.6749 33.6171C27.3349 33.8197 26.7344 34.1091 26.3365 34.2683C25.9387 34.4203 25.0922 34.6808 24.4556 34.8472C23.819 35.0064 23.1171 35.209 22.9002 35.2886C22.6831 35.3682 22.2562 35.5636 21.9596 35.7228C21.663 35.882 21.1783 36.2004 20.8817 36.4247C20.5851 36.649 20.1437 37.0543 19.9051 37.3148C19.6591 37.5753 19.2683 38.0818 19.0224 38.4364C18.7837 38.791 18.5088 39.2107 18.4147 39.3699C18.2628 39.6231 18.3206 39.5797 18.8705 39.0659C19.2177 38.7331 19.7675 38.2627 20.1003 38.0239C20.4259 37.7779 21.0046 37.3944 21.3808 37.1773C21.7571 36.953 22.4299 36.6201 22.8639 36.432C23.3053 36.2438 23.9998 35.9905 24.4194 35.8603C24.839 35.7373 25.4756 35.5347 25.8301 35.4116C26.1918 35.2886 26.7272 35.0715 27.0238 34.9196C27.3204 34.7676 27.7618 34.4999 28.0004 34.319C28.2392 34.1453 28.6227 33.8052 28.8614 33.5736C29.0929 33.3348 29.4257 32.9658 29.5921 32.7487C29.7584 32.5316 30.0189 32.1336 30.1636 31.8659C30.3011 31.5909 30.4095 31.3738 30.4023 31.3738C30.3951 31.3738 30.1419 31.6199 29.8453 31.9238C29.5487 32.2205 29.0784 32.6402 28.7963 32.8573ZM48.0908 47.3659H48.7347C49.1182 47.3659 49.3785 47.3949 49.3785 47.4383C49.3785 47.4745 49.3279 47.735 49.1616 48.5237H48.5105C47.9245 48.5237 47.8593 48.5092 47.8883 48.4007C47.91 48.3283 47.9606 48.0678 48.0113 47.8218L48.0908 47.3659ZM16.4831 47.4383H17.1558C17.561 47.4383 17.8287 47.4672 17.8287 47.5106C17.8287 47.5468 17.5538 48.8928 17.2138 50.492C16.8737 52.0912 16.5844 53.4588 16.5626 53.5312C16.5337 53.6397 16.4397 53.6614 15.8754 53.6614C15.4052 53.6614 15.2243 53.6325 15.2243 53.5674C15.2243 53.5167 15.5064 52.1201 15.8537 50.4558L16.4831 47.4383ZM21.6051 47.4383H22.2128C22.6614 47.4383 22.8133 47.46 22.7916 47.5323C22.7771 47.5758 22.6108 48.1619 22.0609 50.0433H21.6413C21.2506 50.0433 21.2289 50.0361 21.2651 49.8841C21.2796 49.7901 21.3519 49.3125 21.4098 48.8132C21.4749 48.3139 21.54 47.8001 21.5617 47.6771L21.6051 47.4383ZM32.9489 47.4383L32.9634 48.2849C32.9634 48.7553 32.9923 49.7901 33.0574 52.055L34.0703 49.7683C34.6273 48.5165 35.1193 47.4745 35.1554 47.46C35.1988 47.4455 35.6402 47.4383 37.0436 47.4745L35.7342 53.6253L35.1048 53.6397C34.6345 53.6542 34.4682 53.6325 34.4682 53.5674C34.4754 53.5167 34.678 52.5036 34.9384 51.3097C35.1916 50.1157 35.3942 49.1243 35.387 49.1171C35.3797 49.1098 34.9167 50.1302 33.3468 53.6614H32.0084L31.994 48.8493L30.9594 53.6614H30.33C29.9827 53.6614 29.6934 53.6325 29.6934 53.6035C29.6934 53.5746 29.9755 52.2504 30.3083 50.6584C30.6483 49.0664 30.9377 47.6843 30.9594 47.5975C30.9955 47.4383 31.0245 47.4383 32.9489 47.4383ZM61.2722 47.4383L61.0768 48.3935C60.9683 48.9217 60.6789 50.3183 59.97 53.6614H59.3406C58.9933 53.6614 58.7039 53.6397 58.6966 53.618C58.6966 53.5963 58.9716 52.2721 59.3116 50.6729C59.6517 49.0664 59.9483 47.6843 59.97 47.5975C60.0062 47.4455 60.0423 47.4383 61.2722 47.4383ZM19.6012 47.8001C20.0497 47.8001 20.2161 47.8218 20.2161 47.8869C20.2161 47.9376 20.1654 48.1764 20.1076 48.4152C20.0497 48.6467 19.9991 48.8855 19.9991 48.9362C19.9991 48.9941 20.1076 49.023 20.3102 49.023C20.4765 49.023 20.6357 49.0447 20.6646 49.0809C20.6936 49.1098 20.6863 49.2329 20.6574 49.3559C20.6212 49.4717 20.5706 49.6598 20.5489 49.7683C20.5128 49.9565 20.4837 49.971 20.1437 49.971C19.8616 49.971 19.7748 49.9927 19.7459 50.094C19.7314 50.1663 19.6012 50.7597 19.4637 51.4182C19.3263 52.0695 19.2322 52.6339 19.2466 52.6628C19.2611 52.6918 19.4203 52.7207 19.6012 52.7207C19.782 52.7207 19.9268 52.7424 19.9268 52.7714C19.9268 52.8003 19.8978 52.9378 19.8616 53.0825C19.8254 53.22 19.7748 53.4226 19.7097 53.7338L19.0297 53.7121C18.4654 53.6976 18.3134 53.6687 18.147 53.5457C17.9878 53.4299 17.93 53.3213 17.9155 53.1115C17.9083 52.9523 18.024 52.207 18.1904 51.4544C18.3495 50.6946 18.4798 50.0506 18.4798 50.0216C18.4798 49.9927 18.3495 49.971 18.1904 49.971C18.0312 49.971 17.9011 49.942 17.9011 49.9131C17.9011 49.8841 17.9444 49.6743 18.0819 49.023H18.393C18.6245 49.023 18.7041 48.9941 18.7258 48.9C18.7475 48.8276 18.7981 48.5961 18.8415 48.379C18.8922 48.1547 18.9428 47.9376 18.9572 47.8869C18.9789 47.8218 19.1743 47.8001 19.6012 47.8001ZM25.2441 48.8855C25.4828 48.8855 25.8518 48.9289 26.0616 48.9868C26.2715 49.052 26.5391 49.1822 26.6549 49.2835C26.8141 49.4065 26.8936 49.5657 26.9587 49.8407C27.0021 50.0506 27.0166 50.2749 26.9949 50.3472C26.9515 50.4558 26.8502 50.4775 26.3293 50.4775C25.765 50.4775 25.7144 50.463 25.7144 50.3328C25.7144 50.2532 25.6493 50.1229 25.5696 50.0433C25.4611 49.9275 25.331 49.8986 25.0271 49.8986C24.6942 49.8986 24.593 49.9275 24.4483 50.0795C24.347 50.1736 24.2674 50.2821 24.2674 50.3111C24.2674 50.34 24.3036 50.4051 24.3542 50.4485C24.405 50.4992 24.7739 50.6222 25.1718 50.7308C25.5696 50.8393 26.011 50.984 26.1484 51.0564C26.2859 51.1215 26.4667 51.2518 26.5464 51.3458C26.6404 51.4472 26.7055 51.6425 26.7199 51.8741C26.7489 52.1635 26.7127 52.3372 26.5681 52.6484C26.4595 52.8655 26.257 53.1404 26.105 53.2707C25.9531 53.4009 25.6782 53.5601 25.4973 53.6253C25.3165 53.6904 24.8968 53.7627 24.5568 53.7845C24.2024 53.8062 23.7755 53.7845 23.544 53.7338C23.327 53.6904 23.0376 53.5601 22.9002 53.4516C22.7627 53.3503 22.6108 53.1549 22.5528 53.0246C22.5022 52.8944 22.4588 52.6411 22.4588 52.1418H23.1099C23.7393 52.1418 23.761 52.1418 23.761 52.301C23.761 52.3879 23.7899 52.4964 23.819 52.5471C23.8479 52.5905 23.9419 52.6628 24.0359 52.7063C24.1228 52.7497 24.3615 52.7931 24.5568 52.7931C24.7594 52.7931 24.9981 52.7569 25.0994 52.7207C25.2007 52.6773 25.3165 52.5688 25.3671 52.4819C25.4322 52.3444 25.425 52.301 25.3093 52.207C25.2369 52.1491 24.8534 52.0116 24.47 51.903C24.0793 51.7945 23.6308 51.6425 23.4716 51.5629C23.3125 51.4833 23.1316 51.3386 23.0737 51.2518C23.0159 51.1649 22.9653 50.9623 22.9653 50.8031C22.9653 50.6367 23.0087 50.3834 23.0593 50.2315C23.1099 50.0723 23.2474 49.8262 23.3704 49.6887C23.4933 49.544 23.7176 49.3414 23.8768 49.2473C24.0359 49.146 24.3036 49.0302 24.4845 48.9796C24.6653 48.9289 25.0054 48.8928 25.2441 48.8855ZM39.7494 48.9217C40.0098 48.9362 40.3644 49.0013 40.5452 49.0592C40.7261 49.1171 40.9503 49.2546 41.0516 49.3559C41.2035 49.5151 41.2324 49.6164 41.2324 49.9927C41.2324 50.2387 41.1023 51.0347 40.943 51.7873C40.6899 52.974 40.6682 53.1549 40.755 53.3069C40.8056 53.4009 40.8346 53.5167 40.8056 53.5674C40.7767 53.6325 40.5524 53.6614 39.3876 53.6614V53.2273L39.1199 53.4009C38.9681 53.5022 38.6859 53.6325 38.4833 53.6976C38.288 53.7555 37.9914 53.8062 37.8322 53.7989C37.6731 53.7989 37.4054 53.7338 37.239 53.6542C37.0654 53.5746 36.8845 53.4371 36.8194 53.3503C36.7616 53.2634 36.6964 53.0753 36.6674 52.9378C36.6385 52.7859 36.6674 52.5109 36.7398 52.2648C36.8194 51.9971 36.9496 51.7438 37.1305 51.5485C37.2751 51.382 37.5284 51.1866 37.6876 51.1215C37.8467 51.0492 38.1867 50.9551 38.4472 50.9117C38.7076 50.8683 39.0982 50.7959 39.3153 50.7597C39.5324 50.7163 39.7711 50.6295 39.8435 50.5643C39.9158 50.492 39.9736 50.3617 39.9736 50.2749C39.9664 50.188 39.9013 50.0795 39.8218 50.0433C39.7421 49.9999 39.5251 49.9637 39.337 49.9637C39.0982 49.9637 38.9319 50.0071 38.7944 50.1084C38.6859 50.188 38.5774 50.3255 38.5557 50.4051C38.5267 50.5354 38.4616 50.5499 37.2173 50.5499L37.3041 50.3111C37.3548 50.1808 37.4922 49.9275 37.6152 49.7539C37.7382 49.5657 37.977 49.3486 38.1578 49.2473C38.3387 49.146 38.6642 49.023 38.8813 48.9796C39.0982 48.9289 39.489 48.9 39.7494 48.9217ZM39.0259 51.6642C38.7293 51.7294 38.411 51.8307 38.3242 51.8886C38.2301 51.9465 38.1071 52.1056 38.0493 52.2504C37.9697 52.4313 37.9625 52.5398 38.0131 52.6484C38.0565 52.728 38.1795 52.8076 38.288 52.8365C38.3965 52.8582 38.6064 52.8437 38.7582 52.8003C38.903 52.7569 39.1272 52.6267 39.2502 52.5181C39.3732 52.4096 39.5179 52.1925 39.583 52.0333C39.6409 51.8669 39.677 51.6787 39.6626 51.6063C39.6481 51.534 39.6192 51.4906 39.6047 51.5123C39.583 51.534 39.3225 51.6063 39.0259 51.6642ZM52.0119 48.8928C52.0915 48.8855 52.3519 48.9145 52.5907 48.9579C52.8295 49.0013 53.1478 49.1171 53.2998 49.2112C53.4444 49.3125 53.6181 49.5006 53.6759 49.6453C53.7338 49.7828 53.7844 50.094 53.7844 50.7669H53.1333C52.4895 50.7669 52.4822 50.7597 52.4822 50.586C52.4822 50.4847 52.4605 50.3472 52.4316 50.2821C52.4027 50.217 52.2869 50.1229 52.1784 50.065C52.0481 49.9999 51.8818 49.9854 51.7081 50.0216C51.5562 50.0506 51.3391 50.1663 51.209 50.2893C51.0859 50.4124 50.9196 50.6946 50.8327 50.9261C50.7459 51.1577 50.6519 51.5123 50.6302 51.7221C50.594 51.9826 50.6085 52.178 50.6808 52.3444C50.7387 52.4819 50.8399 52.6194 50.9123 52.6556C50.9774 52.6918 51.1655 52.7207 51.3247 52.7207C51.5273 52.7207 51.6792 52.6628 51.8167 52.5471C51.9251 52.453 52.0626 52.2721 52.229 51.9175H52.8656C53.2346 51.9175 53.495 51.9537 53.495 51.9971C53.495 52.0333 53.4155 52.2214 53.3214 52.4096C53.2273 52.5977 52.9741 52.9161 52.7644 53.1187C52.5473 53.3286 52.2145 53.5457 52.0119 53.6253C51.7442 53.7266 51.4693 53.77 50.963 53.77C50.3697 53.77 50.2395 53.741 49.9862 53.5963C49.8271 53.5022 49.6462 53.3575 49.5884 53.2707C49.5305 53.1911 49.4437 53.0247 49.3931 52.9016C49.3496 52.7786 49.3062 52.424 49.3062 52.1056C49.299 51.7583 49.3496 51.3603 49.4148 51.1288C49.4799 50.9044 49.6101 50.5716 49.7042 50.3834C49.7982 50.1953 50.008 49.8986 50.1599 49.7322C50.3119 49.5657 50.6157 49.3269 50.8255 49.2112C51.0425 49.0954 51.3608 48.9796 51.5417 48.9506C51.7225 48.9217 51.9324 48.8928 52.0119 48.8928ZM56.9315 48.9217C57.1702 48.9434 57.4957 48.9941 57.6549 49.0375C57.814 49.0809 58.0528 49.2256 58.1831 49.3631C58.3783 49.5657 58.4145 49.6598 58.4145 49.9348C58.4145 50.1084 58.2843 50.8682 58.1252 51.6136C57.966 52.3589 57.8358 53.0464 57.8358 53.1332C57.8358 53.22 57.872 53.3141 57.9081 53.3358C57.9515 53.3503 57.9805 53.4371 57.9805 53.5167C57.9805 53.647 57.9371 53.6542 56.5697 53.6253L56.5335 53.2273L56.1935 53.4444C56.0055 53.5601 55.7306 53.6904 55.593 53.7338C55.4556 53.77 55.2024 53.7989 55.036 53.7989C54.8624 53.7989 54.6019 53.7483 54.4572 53.6904C54.3053 53.6253 54.1244 53.5239 54.0521 53.4516C53.9798 53.3865 53.8929 53.2056 53.8495 53.0464C53.7989 52.8437 53.7989 52.6339 53.8495 52.3951C53.8929 52.1925 54.0015 51.9175 54.0955 51.78C54.1823 51.6425 54.3849 51.4254 54.5441 51.3024C54.7466 51.1432 54.9998 51.0419 55.376 50.9623C55.6726 50.8972 56.1284 50.8104 56.3889 50.7669C56.6493 50.7235 56.917 50.6295 56.9893 50.5643C57.0617 50.492 57.1195 50.3617 57.1195 50.2749C57.1123 50.188 57.0472 50.0795 56.9677 50.0433C56.888 49.9999 56.671 49.9637 56.4829 49.9637C56.2441 49.9637 56.0778 50.0071 55.9403 50.1084C55.8318 50.188 55.7233 50.3255 55.7015 50.4051C55.6726 50.5354 55.6075 50.5499 55.0504 50.5499C54.5152 50.5499 54.4355 50.5281 54.4355 50.4196C54.4355 50.3472 54.5369 50.1229 54.6526 49.9131C54.7755 49.7032 54.9636 49.4717 55.0721 49.3993C55.1807 49.3269 55.376 49.2112 55.5063 49.146C55.6364 49.0809 55.9114 48.9941 56.1212 48.9579C56.331 48.9217 56.6927 48.9072 56.9315 48.9217ZM55.9909 51.7077C55.6798 51.7728 55.499 51.8524 55.3615 52.0043C55.2169 52.1491 55.159 52.2866 55.159 52.4675C55.159 52.6556 55.2024 52.7352 55.3254 52.8003C55.4122 52.8437 55.6003 52.8582 55.7378 52.8365C55.8752 52.8076 56.0995 52.7207 56.2297 52.6411C56.36 52.5615 56.5118 52.424 56.5697 52.3372C56.6276 52.2504 56.7217 52.0188 56.7795 51.8307C56.8301 51.6425 56.8735 51.4906 56.8663 51.4906C56.8663 51.4978 56.7651 51.5267 56.6421 51.5629C56.5263 51.5919 56.2297 51.657 55.9909 51.7077ZM47.7363 49.0302H48.373C48.7491 49.0302 49.0096 49.0592 49.0096 49.1026C49.0096 49.1388 48.7999 50.1663 48.5394 51.382C48.2789 52.5905 48.0691 53.6035 48.0691 53.6253C48.0691 53.6397 47.7797 53.6614 47.418 53.6614C46.8392 53.6614 46.7742 53.647 46.7959 53.5312C46.8103 53.4588 47.0274 52.4168 47.2733 51.2156L47.7363 49.0302Z" fill="white"/>
<path d="M99.5073 29.3547C99.6448 29.2534 99.9269 29.1086 100.122 29.0363C100.383 28.9494 100.614 28.9205 100.889 28.9422C101.106 28.9639 101.447 29.058 101.649 29.1593C101.844 29.2534 102.134 29.4777 102.286 29.6441C102.437 29.8178 102.611 30.129 102.676 30.3243C102.756 30.5704 102.777 30.8381 102.756 31.1565C102.734 31.417 102.669 31.7354 102.604 31.8657C102.531 31.9887 102.372 32.213 102.242 32.3577C102.119 32.5024 101.844 32.7051 101.649 32.8136C101.353 32.9656 101.185 32.9945 100.744 32.9945C100.303 32.9945 100.137 32.9656 99.84 32.8136C99.6375 32.7051 99.3698 32.4952 99.2323 32.3432C99.0949 32.184 98.9213 31.9308 98.8489 31.7716C98.7766 31.5979 98.7188 31.3085 98.7188 31.048C98.7188 30.8092 98.7694 30.4691 98.8345 30.2882C98.8923 30.1072 99.0153 29.8684 99.1022 29.7527C99.1889 29.6369 99.3771 29.456 99.5073 29.3547Z" fill="#425526"/>
<path fill-rule="evenodd" clip-rule="evenodd" d="M96.332 5.29426C96.3899 5.30873 97.8585 5.87316 99.5876 6.55337C101.317 7.23357 102.741 7.79076 102.749 7.80524C102.756 7.81247 102.799 8.05127 102.843 8.32624C102.879 8.60846 102.937 8.91962 102.951 9.0354C102.973 9.14394 103.032 9.23077 103.097 9.23077C103.155 9.23077 103.256 9.15118 103.314 9.04987C103.372 8.94856 103.466 8.86896 103.509 8.86896C103.56 8.86896 103.863 8.99921 104.182 9.15118C104.5 9.30314 104.934 9.50575 105.143 9.59982C105.404 9.72284 105.512 9.80967 105.491 9.88204C105.469 9.93993 105.353 10.5478 105.23 11.2208C105.107 11.8937 104.977 12.6318 104.934 12.8489C104.89 13.066 104.84 13.312 104.818 13.3916C104.789 13.5074 104.919 13.6304 105.498 14.0357C105.888 14.3179 106.374 14.7231 106.953 15.3454L106.475 15.9243C106.215 16.2427 105.527 17.0387 104.948 17.6972C104.37 18.3557 102.995 19.897 101.895 21.1344C100.796 22.3718 99.6237 23.6381 99.291 23.9493C98.9582 24.2605 98.2636 24.8394 97.7428 25.2229C97.2219 25.6136 96.1873 26.3373 95.4277 26.8366C94.668 27.3359 93.8795 27.8135 93.6697 27.8931C93.4671 27.9799 93.2284 28.045 93.1488 28.045C93.0692 28.045 92.9172 27.9799 92.8015 27.9003C92.6786 27.8062 92.4977 27.7483 92.3168 27.7556C92.1577 27.7556 91.3618 27.7121 89.0758 27.5747L88.4174 26.7135C88.0556 26.2432 87.5927 25.6353 87.3973 25.3676C87.1947 25.0999 86.8402 24.6223 86.6088 24.3039C86.37 23.9927 85.0822 22.2922 83.7439 20.5193C82.4055 18.7464 81.2914 17.2558 81.2625 17.2051C81.2263 17.1472 82.4851 16.1631 85.0244 14.2455C87.1296 12.668 89.3796 10.9313 90.0235 10.3958C90.6746 9.85309 91.5572 9.12947 91.9768 8.78213C92.4037 8.44202 93.5323 7.50855 94.4872 6.71256C95.4783 5.88763 96.2669 5.27255 96.332 5.29426ZM107.676 15.5987C107.82 15.5987 108.052 15.6638 108.175 15.7434C108.305 15.823 108.464 16.0111 108.529 16.1559C108.623 16.3657 108.638 16.5683 108.609 17.0098C108.587 17.3716 108.507 17.7406 108.399 18.0084C108.312 18.2327 108.211 18.3991 108.189 18.3702C108.168 18.334 108.037 17.8926 107.907 17.3716C107.777 16.8506 107.611 16.2644 107.538 16.069C107.459 15.8664 107.401 15.6855 107.401 15.6493C107.401 15.6204 107.524 15.5987 107.668 15.5987H107.676ZM106.895 16.1776C106.916 16.1703 106.981 16.2644 107.025 16.373C107.075 16.4815 107.249 17.1328 107.705 19.0359L107.502 19.2313C107.394 19.3398 107.292 19.4267 107.285 19.4122C107.271 19.4049 107.09 18.7754 106.49 16.6479L106.67 16.4164C106.764 16.2861 106.866 16.1776 106.895 16.1776ZM106.004 17.2124C106.019 17.2196 106.179 17.7623 106.359 18.4208C106.54 19.0793 106.714 19.6799 106.75 19.7595C106.793 19.8681 106.772 19.9621 106.475 20.3384L106.432 20.1213C106.41 20.0056 106.323 19.6582 106.244 19.3615C106.164 19.0648 105.982 18.5438 105.585 17.5886L105.787 17.3933C105.896 17.2847 105.997 17.1979 106.004 17.2124ZM105.172 18.2399C105.209 18.2616 105.332 18.5294 105.447 18.8405C105.563 19.1444 105.722 19.7233 105.953 20.845L105.794 21.0042C105.708 21.091 105.621 21.1561 105.599 21.1416C105.577 21.1272 105.52 20.9246 105.462 20.693C105.411 20.4542 105.295 20.0852 105.209 19.8681C105.122 19.651 104.941 19.3109 104.572 18.7464L104.84 18.4787C104.992 18.334 105.136 18.2254 105.172 18.2399ZM108.623 19.1372C108.688 19.1734 108.797 19.2602 108.862 19.3326C108.927 19.4122 109.058 19.6148 109.145 19.7957C109.246 19.9911 109.326 20.3095 109.347 20.5917C109.376 20.968 109.355 21.0838 109.261 21.1706C109.145 21.2719 109.138 21.2574 109.145 20.9897C109.145 20.8305 109.094 20.5193 109.028 20.3022C108.97 20.0852 108.818 19.7306 108.703 19.528C108.587 19.3181 108.493 19.13 108.5 19.1083C108.5 19.0866 108.558 19.101 108.623 19.1372ZM104.167 19.2892C104.203 19.2892 104.305 19.4267 104.406 19.6003C104.5 19.7668 104.652 20.0924 104.731 20.3239C104.811 20.5483 104.912 20.9535 105.049 21.7133L104.804 22.0172C104.666 22.1837 104.543 22.3139 104.536 22.3067C104.529 22.2994 104.435 21.9955 104.333 21.6409C104.225 21.2864 104.037 20.7292 103.668 19.8319L103.892 19.5641C104.015 19.4122 104.138 19.2892 104.167 19.2892ZM107.943 19.528C107.987 19.5424 108.11 19.7161 108.218 19.9115C108.327 20.1069 108.45 20.4759 108.5 20.7364C108.544 21.0042 108.558 21.366 108.536 21.5686C108.507 21.7712 108.421 22.0462 108.211 22.4369L108.204 22.0751C108.204 21.8797 108.16 21.5035 108.102 21.243C108.045 20.9824 107.922 20.5555 107.813 20.2878C107.632 19.8246 107.632 19.7885 107.748 19.651C107.813 19.5714 107.9 19.5135 107.943 19.528ZM107.133 20.3022C107.162 20.3022 107.263 20.4904 107.343 20.7219C107.452 20.9969 107.509 21.3732 107.538 21.858C107.56 22.3863 107.538 22.7047 107.452 23.0375C107.386 23.2836 107.336 23.5441 107.336 23.6164C107.343 23.6816 107.292 23.7901 107.227 23.848C107.126 23.9493 107.112 23.9059 107.119 23.4138C107.119 23.1171 107.068 22.6106 107.01 22.2922C106.953 21.9738 106.837 21.5035 106.62 20.7726L106.844 20.541C106.974 20.4108 107.097 20.3022 107.133 20.3022ZM103.227 20.3746C103.27 20.3746 103.415 20.7002 103.552 21.0982C103.683 21.4962 103.834 22.0679 103.878 22.3573C103.972 22.8928 103.972 22.9 103.61 23.2763L103.35 22.3863C103.212 21.8942 103.032 21.3515 102.792 20.845L102.973 20.6134C103.068 20.4831 103.184 20.3746 103.227 20.3746ZM106.135 21.3081L106.229 21.5831C106.28 21.735 106.381 22.1981 106.446 22.6178C106.548 23.2546 106.555 23.4789 106.482 24.0289C106.41 24.6078 106.381 24.7019 106.2 24.8394C106.092 24.9334 105.845 25.0854 105.65 25.1867C105.462 25.288 105.31 25.3387 105.31 25.2952C105.31 25.2518 105.382 25.0854 105.462 24.919C105.548 24.7453 105.679 24.3618 105.751 24.0651C105.831 23.7684 105.888 23.3415 105.888 23.1244C105.888 22.9073 105.838 22.5165 105.671 21.7857L106.135 21.3081ZM102.329 21.3804C102.358 21.3804 102.452 21.5686 102.539 21.8001C102.626 22.0317 102.763 22.4297 102.843 22.6902C102.922 22.9435 102.995 23.2402 103.01 23.3415C103.017 23.4355 102.995 23.6454 102.958 23.7973C102.915 23.971 102.799 24.1447 102.452 24.4124L102.177 23.4934C102.025 22.9941 101.837 22.4731 101.62 22.1113L101.953 21.7495C102.134 21.5469 102.307 21.3804 102.329 21.3804ZM105.18 22.379C105.216 22.408 105.259 22.7119 105.288 23.052C105.317 23.5658 105.303 23.7395 105.165 24.1374C105.078 24.3907 104.854 24.8611 104.673 25.1795C104.485 25.4906 104.305 25.7656 104.261 25.7945C104.218 25.8163 104.211 25.7801 104.247 25.6932C104.283 25.6136 104.377 25.3531 104.464 25.1143C104.587 24.7598 104.616 24.5065 104.623 22.8422L104.869 22.5817C105.006 22.4442 105.151 22.3501 105.18 22.379ZM101.324 22.8639C101.346 22.8783 101.476 23.2691 101.613 23.7467C101.743 24.217 101.881 24.6585 101.917 24.7308C101.968 24.8394 101.888 24.919 101.44 25.2229C101.143 25.4183 100.89 25.5847 100.875 25.5847C100.868 25.5847 100.861 25.3748 100.854 25.1288C100.854 24.8828 100.788 24.4269 100.571 23.5513L100.926 23.1967C101.114 23.0014 101.295 22.8494 101.324 22.8639ZM103.994 23.5585C104.008 23.5585 104.008 23.8408 103.994 24.1881C103.965 24.7091 103.921 24.9045 103.733 25.2952C103.61 25.5485 103.444 25.8452 103.364 25.9465C103.285 26.0406 103.212 26.084 103.212 26.0333C103.212 25.9827 103.263 25.7728 103.321 25.563C103.379 25.3531 103.458 24.9045 103.502 24.5716C103.567 24.0578 103.61 23.9204 103.769 23.7539C103.878 23.6454 103.979 23.5585 103.994 23.5585ZM100.051 24.0651L100.145 24.3328C100.195 24.4848 100.239 24.8177 100.239 25.0782C100.246 25.3314 100.21 25.6571 100.166 25.8018C100.116 25.9393 100.043 26.0768 99.9999 26.1057C99.9565 26.1346 99.8987 26.1564 99.8625 26.1564C99.8335 26.1636 99.7901 26.0406 99.7684 25.8886C99.7467 25.7367 99.6671 25.3966 99.4501 24.644L100.051 24.0651ZM102.821 24.7453C102.835 24.7598 102.814 24.9768 102.77 25.2301C102.727 25.4834 102.604 25.8452 102.503 26.0406C102.365 26.2866 102.228 26.4313 101.837 26.5905L102.011 26.1781C102.105 25.9465 102.206 25.6281 102.235 25.4689C102.264 25.2663 102.358 25.1143 102.539 24.9479C102.684 24.8249 102.806 24.7308 102.821 24.7453ZM98.9509 25.1939C98.9799 25.2229 99.0594 25.4617 99.1245 25.7222C99.1968 25.9827 99.233 26.2721 99.2113 26.3734C99.1896 26.4748 99.0956 26.5905 99.0016 26.6339C98.8351 26.7135 98.8279 26.7063 98.705 26.1491C98.5819 25.5775 98.5819 25.5775 98.7411 25.3531C98.8279 25.2301 98.9219 25.1578 98.9509 25.1939ZM101.454 25.7945C101.519 25.7945 101.512 25.8597 101.425 26.0333C101.36 26.1564 101.223 26.4024 101.121 26.5616C100.998 26.757 100.846 26.8945 100.694 26.9451C100.564 26.9885 100.463 27.0175 100.463 27.0102C100.463 26.9958 100.528 26.8076 100.608 26.5905C100.716 26.2721 100.81 26.1564 101.056 25.9972C101.223 25.8814 101.403 25.7945 101.454 25.7945ZM98.0828 26.207C98.1117 26.2432 98.1551 26.4458 98.2274 27.0609L97.3014 27.5457C96.7877 27.8135 96.3465 28.0378 96.3175 28.0378C96.2886 28.0378 96.6648 27.6108 97.1495 27.0971C97.6342 26.5761 98.0539 26.1781 98.0828 26.207ZM96.9831 26.5761C97.0048 26.5905 96.5128 27.1043 95.8834 27.7194C95.254 28.3417 94.574 28.9278 94.3642 29.0509C94.1544 29.1666 93.9591 29.2679 93.9301 29.2679C93.9012 29.2679 93.8434 29.0943 93.8071 28.8917C93.7637 28.6818 93.742 28.5081 93.7492 28.5009C93.7637 28.5009 93.9446 28.4141 94.1689 28.3055C94.3859 28.2042 95.1021 27.7628 95.7532 27.3286C96.4043 26.8945 96.9614 26.5543 96.9831 26.5761ZM99.877 26.6991C99.8987 26.7208 99.8262 26.8655 99.7178 27.0247C99.6093 27.1839 99.5152 27.3142 99.5007 27.3142C99.4935 27.3142 99.1679 27.4082 98.7773 27.5312C98.3939 27.647 98.0683 27.7266 98.0683 27.6977C98.0683 27.6615 98.1768 27.5964 98.307 27.5457C98.4373 27.4878 98.5891 27.4155 98.6542 27.3793C98.7122 27.3431 98.8568 27.249 98.9799 27.1622C99.0956 27.0826 99.2765 27.003 99.3777 26.9813C99.4718 26.9668 99.6165 26.8872 99.6961 26.8076C99.7684 26.728 99.8553 26.6774 99.877 26.6991ZM100.644 29.485C100.861 29.485 101.107 29.5357 101.259 29.6225C101.411 29.7021 101.577 29.883 101.678 30.0712C101.801 30.3027 101.837 30.4764 101.823 30.7224C101.808 30.9395 101.734 31.1373 101.599 31.3158C101.476 31.475 101.281 31.627 101.092 31.6993C100.897 31.7717 100.68 31.8006 100.499 31.7717C100.34 31.75 100.123 31.6704 100.029 31.598C99.9276 31.5256 99.7684 31.352 99.6816 31.2145C99.5586 31.0408 99.5152 30.8671 99.5224 30.6066C99.5224 30.3606 99.5731 30.1652 99.6816 29.9988C99.7756 29.8613 99.9421 29.6876 100.065 29.6153C100.195 29.5357 100.42 29.485 100.644 29.485Z" fill="#F8992F"/>
</g>
<defs>
<clipPath id="clip0_2406_42">
<rect width="118.039" height="56" fill="white" transform="translate(0.980469)"/>
</clipPath>
</defs>
</svg>
