<svg width="925" height="290" viewBox="0 0 925 290" fill="none" xmlns="http://www.w3.org/2000/svg">
<path d="M-0.000976562 282.007C8.2984 282.3 169.598 283.067 177.897 283.365C183.084 283.551 188.272 283.726 193.457 283.952C203.948 284.41 214.443 284.747 224.94 285.045C232.602 285.262 240.26 285.681 247.93 285.588C250.327 285.559 252.719 285.488 255.095 285.133C255.689 285.045 256.268 284.9 256.831 284.689C258.591 284.028 259.182 282.969 258.79 281.14C258.565 280.088 258.24 279.059 258.107 277.984C257.878 276.129 258.313 275.322 260.036 274.628C261.882 273.886 263.844 273.767 265.796 273.662C269.504 273.464 273.219 273.439 276.922 273.134C280.307 272.855 283.672 272.443 286.938 271.453C289.658 270.629 292.109 269.344 294.057 267.223C295.484 265.671 296.613 263.935 296.992 261.825C297.501 259.004 296.667 256.536 294.836 254.382C293.282 252.554 291.289 251.306 289.196 250.199C288.777 249.977 288.348 249.776 287.909 249.558C288.055 249.148 288.378 249.287 288.61 249.286C293.722 249.248 298.828 249.039 303.928 248.692C308.906 248.353 313.874 247.895 318.837 247.373C324.513 246.776 330.18 246.1 335.839 245.361C342.131 244.538 348.426 243.737 354.71 242.862C361.034 241.982 367.352 241.056 373.663 240.089C380.959 238.97 388.248 237.795 395.536 236.623C405.307 235.051 415.069 233.413 424.898 232.239C430.329 231.591 435.772 231.049 441.258 231.185C443.861 231.249 446.436 231.503 448.958 232.176C450.235 232.517 451.468 232.978 452.578 233.715C454.442 234.953 455.036 236.504 454.493 238.67C454.014 240.579 452.985 242.179 451.69 243.622C449.748 245.788 447.423 247.467 444.881 248.846C439.865 251.566 434.529 253.421 428.98 254.704C426.061 255.379 423.1 255.814 420.158 256.358C419.611 256.46 419.069 256.604 418.539 256.774C418.125 256.906 417.856 257.214 417.905 257.676C417.948 258.089 418.26 258.263 418.633 258.369C419.062 258.492 419.499 258.499 419.938 258.499C422.266 258.5 424.546 258.081 426.83 257.712C428.603 257.425 430.373 257.124 432.164 256.969C433.693 256.836 435.196 256.973 436.673 257.368C437.489 257.587 438.252 257.94 438.875 258.533C439.683 259.302 439.7 259.748 438.946 260.558C438.426 261.117 437.801 261.55 437.158 261.955C434.865 263.399 432.356 264.278 429.717 264.828C423.582 266.105 417.374 266.333 411.122 266.204C411.106 265.76 411.46 265.762 411.673 265.639C412.437 265.196 413.175 264.72 413.713 264.002C414.872 262.455 414.341 260.691 412.518 260.07C411.797 259.825 411.043 259.744 410.278 259.727C407.11 259.657 403.983 260.069 400.868 260.569C392.157 261.968 383.567 263.979 374.94 265.799C363.656 268.179 352.342 270.397 340.997 272.462C333.814 273.77 326.633 275.1 319.471 276.519C310.296 278.335 301.041 278.926 291.711 278.609C285.885 278.411 280.058 278.238 274.231 278.061C270.836 277.958 267.444 277.993 264.067 278.411C263.075 278.534 262.091 278.714 261.175 279.137C259.555 279.887 259.308 281.198 260.552 282.474C261.372 283.315 262.388 283.879 263.428 284.394C266.595 285.965 269.952 286.994 273.392 287.729C281.296 289.417 289.288 289.859 297.331 289.146C301.049 288.817 304.646 287.919 308.049 286.331C309.917 285.459 311.602 284.348 312.882 282.695C313.767 281.552 315.004 281.054 316.374 280.793C319.093 280.275 321.852 280.237 324.603 280.138C332.782 279.845 340.964 279.627 349.143 279.312C369.933 278.512 390.73 278.095 411.536 278.163C427.309 278.214 443.079 278.459 458.848 278.74C470.665 278.95 482.481 279.215 494.298 279.445C507.073 279.693 519.848 279.899 532.622 280.176C545.795 280.46 558.967 280.794 572.139 281.13C583.914 281.431 595.688 281.759 607.462 282.083C621.671 282.473 635.882 282.811 650.094 283.046C664.147 283.278 678.2 283.517 692.253 283.762C703.711 283.961 715.169 284.146 726.623 284.481C734.366 284.707 914.257 284.948 922 285.171C922.715 285.191 923.436 285.279 924.148 285.122C924.148 284.723 924.148 284.323 924.148 283.924C910.937 283.545 725.578 283.131 712.366 282.8C704.662 282.607 696.954 282.553 689.248 282.424C674.915 282.184 660.582 281.956 646.249 281.682C635.669 281.48 625.091 281.233 614.512 280.971C602.497 280.672 590.483 280.347 578.469 280.01C565.936 279.657 553.403 279.299 540.867 279.058C528.491 278.82 516.115 278.58 503.739 278.339C491.403 278.099 479.066 277.893 466.73 277.607C446.25 277.131 425.767 276.854 405.282 276.842C393.502 276.835 381.723 276.981 369.947 277.308C357.414 277.657 344.885 278.131 332.356 278.599C327.888 278.766 323.414 278.785 318.952 279.113C317.795 279.199 316.65 279.357 315.521 279.621C314.122 279.949 312.882 280.573 311.984 281.721C310.611 283.476 308.792 284.58 306.785 285.443C303.448 286.876 299.946 287.665 296.346 287.914C287.85 288.502 279.43 287.993 271.161 285.812C268.572 285.129 266.04 284.27 263.66 283.018C262.881 282.609 262.109 282.18 261.494 281.538C260.97 280.992 261.02 280.676 261.708 280.361C262.813 279.856 264.012 279.736 265.203 279.605C268.188 279.279 271.185 279.308 274.178 279.382C280.844 279.547 287.509 279.751 294.174 279.955C302.711 280.217 311.158 279.454 319.544 277.859C330.441 275.787 341.347 273.761 352.251 271.722C362.293 269.845 372.282 267.709 382.276 265.597C388.249 264.335 394.207 262.996 400.233 262.004C403.149 261.524 406.078 261.145 409.036 261.045C409.838 261.017 410.636 261.056 411.425 261.174C412.055 261.269 412.751 261.386 412.935 262.137C413.113 262.864 412.611 263.337 412.114 263.751C411.105 264.59 409.91 265.007 408.634 265.244C406.663 265.609 404.736 265.337 402.82 264.888C401.382 264.551 399.968 264.127 398.568 263.656C398.078 263.491 397.586 263.317 397.06 263.289C396.513 263.261 395.967 263.303 395.787 263.921C395.606 264.54 396.061 264.876 396.52 265.148C397.004 265.433 397.539 265.6 398.078 265.753C400.662 266.482 403.311 266.833 405.969 267.137C412.472 267.88 418.966 267.671 425.447 266.888C428.739 266.491 431.999 265.899 435.068 264.553C436.315 264.006 437.507 263.362 438.618 262.574C439.173 262.18 439.698 261.75 440.136 261.224C441.074 260.097 441.065 258.99 440.097 257.885C439.337 257.018 438.352 256.499 437.269 256.161C436.08 255.791 434.858 255.619 433.611 255.624C432.935 255.627 432.258 255.625 431.544 255.508C431.899 255.391 432.251 255.259 432.611 255.158C437.006 253.926 441.247 252.302 445.274 250.144C447.859 248.759 450.241 247.09 452.265 244.953C454.108 243.007 455.546 240.834 455.945 238.106C456.235 236.122 455.602 234.487 454.087 233.194C452.976 232.246 451.674 231.648 450.298 231.196C447.034 230.124 443.65 229.87 440.252 229.828C436.014 229.776 431.796 230.152 427.588 230.613C414.489 232.048 401.518 234.347 388.515 236.425C376.574 238.334 364.625 240.183 352.641 241.805C343.821 242.999 335.001 244.187 326.162 245.226C312.515 246.83 298.844 248.129 285.082 247.96C271.275 247.791 258.086 244.87 245.625 238.852C242.384 237.287 239.289 235.464 236.428 233.266C235.445 232.511 234.484 231.729 233.73 230.73C233.567 230.513 233.331 230.276 233.47 229.983C233.62 229.666 233.959 229.78 234.221 229.788C236.825 229.867 239.376 230.353 241.923 230.849C250.267 232.474 258.512 234.548 266.814 236.365C275.043 238.166 283.307 239.77 291.682 240.73C299.463 241.621 307.274 242.048 315.106 242.1C324.256 242.16 333.387 241.803 342.511 241.122C349.04 240.634 355.56 240.048 362.066 239.322C370.476 238.385 378.853 237.201 387.209 235.867C399.111 233.967 410.937 231.639 422.817 229.616C428.839 228.59 434.885 227.746 441.006 227.545C444.327 227.436 447.631 227.472 450.91 228.082C451.366 228.167 451.887 228.343 452.192 227.783C452.409 227.385 452.193 226.938 451.501 226.573C443.812 222.513 436.358 217.986 428.176 214.909C422.074 212.614 415.785 210.971 409.47 209.407C404.281 208.122 399.035 207.066 393.896 205.58C392.553 205.192 391.237 204.728 389.973 204.124C387.239 202.816 385.674 200.646 385.179 197.678C384.67 194.627 384.699 191.553 384.81 188.478C385.351 173.513 385.824 158.546 385.556 143.568C385.51 141.016 385.538 138.456 385.187 135.916C385.066 135.043 384.882 134.187 384.592 133.355C384.104 131.951 383.244 130.831 382.009 130C381.685 129.783 381.361 129.566 380.855 129.225C381.581 129.061 382.116 129.178 382.639 129.223C387.709 129.652 392.653 130.726 397.536 132.128C403.02 133.703 408.513 135.247 414.099 136.431C416.213 136.879 418.345 137.169 420.513 137.135C424.636 137.072 427.056 135.372 428.507 131.516C428.616 131.227 428.648 130.902 428.951 130.661C429.049 130.896 429.146 131.111 429.229 131.332C429.355 131.668 429.454 132.015 429.594 132.345C431.333 136.465 435.51 137.497 438.988 134.662C440.394 133.517 441.317 132.026 441.842 130.318C442.905 126.864 442.713 123.462 441.221 120.155C440.741 119.09 440.085 118.139 439.214 117.349C437.176 115.502 434.631 115.415 432.447 117.099C431.627 117.731 431.012 118.552 430.387 119.452C430.153 119.02 430.298 118.717 430.321 118.418C430.367 117.822 430.459 117.227 430.468 116.631C430.504 114.361 429.62 113.062 427.481 112.248C425.893 111.643 424.222 111.497 422.542 111.435C420.063 111.344 417.593 111.573 415.124 111.727C409.544 112.074 403.964 112.394 398.371 112.394C393.499 112.394 388.627 112.362 383.756 112.404C381.122 112.427 378.487 112.546 375.893 113.079C374.354 113.395 372.906 113.943 371.581 114.8C371.043 115.148 370.54 115.54 370.096 116.004C368.43 117.746 368.122 119.925 369.243 122.066C370.018 123.546 371.196 124.68 372.438 125.756C372.879 126.137 373.329 126.506 373.915 126.999C372.906 127.114 372.147 126.89 371.382 126.76C368.757 126.313 366.249 125.568 364.124 123.866C363.134 123.072 362.096 123.012 360.868 123.36C358.038 124.161 355.177 123.937 352.351 123.236C351.61 123.052 350.921 122.711 350.367 122.168C349.857 121.669 349.891 121.301 350.478 120.908C351.017 120.548 351.637 120.387 352.268 120.263C354.391 119.846 356.551 119.788 358.695 119.586C360.563 119.41 362.434 119.263 364.284 118.945C364.807 118.855 365.477 118.886 365.533 118.1C365.571 117.574 365.181 117.283 364.208 117.194C359.147 116.731 354.187 115.702 349.257 114.514C348.249 114.271 347.251 113.978 346.31 113.528C346.062 113.41 345.794 113.298 345.686 112.981C345.937 112.478 346.447 112.306 346.918 112.13C350.015 110.973 353.207 110.329 356.528 110.548C360.518 110.812 364.509 110.71 368.502 110.654C368.862 110.649 369.226 110.623 369.536 110.409C370.001 110.087 369.971 109.51 369.463 109.259C369.023 109.041 368.534 109.044 368.055 109.026C364.862 108.906 361.665 108.699 358.477 108.953C354.355 109.28 350.363 108.6 346.391 107.644C344.759 107.251 343.152 106.779 341.62 106.083C341.111 105.852 340.617 105.59 340.211 105.19C339.924 104.907 339.934 104.635 340.229 104.374C340.716 103.944 341.295 103.672 341.889 103.434C345.307 102.064 348.823 101.008 352.457 100.415C359.954 99.192 367.066 100.622 373.914 103.693C375.873 104.571 377.539 105.859 378.968 107.459C379.473 108.024 379.961 108.608 380.563 109.078C381.483 109.795 382.445 109.891 383.452 109.271C384.206 108.806 384.873 108.234 385.406 107.525C386.08 106.627 386.058 105.78 385.344 104.902C384.725 104.142 383.901 103.651 383.034 103.229C380.974 102.227 378.783 101.618 376.562 101.115C374.938 100.748 373.3 100.436 371.674 99.9553C372.958 99.8616 374.243 99.7782 375.526 99.6722C378.717 99.4085 381.869 98.939 384.911 97.8899C389.384 96.3471 393.096 93.6244 396.487 90.4085C397.067 89.8591 397.643 89.3055 398.21 88.7435C398.514 88.4424 398.83 88.2884 399.28 88.4021C405.334 89.9321 411.33 89.165 417.31 87.923C418.991 87.5739 420.65 87.1343 422.248 86.492C422.804 86.2682 423.354 86.0243 423.813 85.6272C424.709 84.8527 424.695 83.9481 423.768 83.2028C423.098 82.6642 422.285 82.432 421.474 82.2192C419.765 81.7712 418.011 81.6195 416.257 81.5461C412.846 81.4034 409.478 81.7115 406.18 82.6398C403.653 83.3512 401.309 84.449 399.288 86.1318C398.613 86.6936 398.08 86.6693 397.368 86.305C395.627 85.4139 394.29 84.2035 393.72 82.2522C393.359 81.0164 393.697 80.0611 394.676 79.285C395.341 78.7589 396.092 78.3923 396.873 78.0793C399.757 76.9228 402.788 76.4578 405.858 76.1769C410.008 75.7971 414.156 76.0643 418.306 76.185C420.86 76.2593 423.411 76.4505 425.969 76.3999C427.528 76.3691 429.08 76.2719 430.613 75.9695C433.996 75.3025 436.26 73.3438 437.433 70.0994C438.303 67.6937 438.417 65.1799 438.533 62.6677C438.587 61.5117 438.582 60.3521 438.574 59.1943C438.541 54.2417 438.739 49.2933 438.822 44.3428C438.847 42.8594 438.695 41.3924 438.36 39.9469C437.525 36.3452 435.336 33.7445 432.246 31.868C430.551 30.8384 428.252 31.4377 427.045 33.148C425.821 34.884 425.561 36.8152 426.042 38.861C426.419 40.4618 427.089 41.9579 427.718 43.4679C428.409 45.1276 429.084 46.7944 429.377 48.5799C429.611 50.0068 429.657 51.4434 429.334 52.8645C428.493 56.565 425.155 58.759 421.412 58.105C419.291 57.7345 417.511 56.7175 415.989 55.2405C413.494 52.8189 411.975 49.8835 411.618 46.4118C411.383 44.125 411.804 41.9438 413.15 40.028C414.218 38.5075 415.651 37.5853 417.581 37.6074C418.025 37.6124 418.447 37.7218 418.876 37.8261C419.377 37.9484 419.548 38.2134 419.353 38.6926C419.083 39.3575 418.811 40.0222 418.526 40.6811C418.099 41.6698 417.647 42.6478 417.231 43.6411C416.921 44.3822 416.748 45.1592 416.733 45.9692C416.698 47.9029 417.837 49.5487 419.664 50.1885C421.211 50.7307 422.767 50.3061 423.864 48.9736C425.357 47.1605 425.569 45.0546 425.057 42.8598C424.589 40.8508 423.487 39.2004 421.858 37.9321C421.363 37.546 421.063 37.1794 420.996 36.4896C420.81 34.5914 419.631 33.5823 417.731 33.516C416.185 33.4619 414.823 33.9821 413.613 34.8981C411.005 36.872 409.678 39.5587 409.368 42.7699C409.068 45.8832 409.796 48.7912 411.21 51.5535C412.441 53.9582 414.077 56.0603 415.947 57.994C416.612 58.6826 417.303 59.3529 417.912 60.0896C418.629 60.9575 418.482 61.3586 417.377 61.6851C416.922 61.8199 416.439 61.914 415.966 61.9298C411.407 62.0828 407.233 60.9829 403.814 57.8349C400.633 54.9064 399.479 51.1106 399.656 46.8932C399.786 43.797 400.764 40.9501 402.57 38.402C403.057 37.7141 403.581 37.268 404.515 37.303C405.384 37.3354 406.266 37.1761 407.104 36.8825C407.598 36.7091 408.068 36.4862 408.424 36.0893C409.167 35.263 408.842 34.2404 407.75 34.0064C407.114 33.8701 406.481 33.9519 405.862 34.1568C405.016 34.4365 404.234 34.85 403.584 35.4453C403.09 35.8987 402.565 36.0082 401.942 35.9415C400.116 35.7466 398.288 35.5771 396.463 35.373C392.296 34.9067 388.118 34.5794 383.937 34.2883C376.888 33.7974 369.836 33.3458 362.784 32.8848C357.366 32.5307 351.947 32.2024 346.53 31.8358C339.599 31.3667 332.671 30.8667 325.741 30.3931C325.078 30.3478 324.533 30.1348 323.995 29.7303C320.317 26.9666 316.117 26.2109 311.64 26.6337C310.933 26.7004 310.165 26.8552 309.951 27.7211C309.803 28.3184 310.281 28.8521 311.342 29.2856C313.129 30.0158 315.022 30.3355 316.911 30.6494C318.958 30.9896 321.014 31.2856 323.086 31.4282C323.858 31.4813 324.425 31.7948 324.933 32.3678C326.838 34.5194 328.031 37.0063 328.472 39.8378C329.012 43.3113 328.664 46.6867 327.166 49.8978C326.413 51.5116 325.369 52.913 323.942 54.004C321.349 55.9873 318.182 55.9581 315.681 53.8563C313.287 51.845 312.188 49.1546 311.857 46.1122C311.775 45.3617 311.751 44.6001 311.887 43.8226C312.372 43.715 312.593 44.128 312.898 44.3319C314.292 45.2645 315.78 45.8629 317.493 45.7961C318.436 45.7593 319.3 45.4897 320.092 44.9918C322.267 43.6253 323.555 40.5001 322.987 37.9875C322.264 34.7912 318.93 33.0998 315.896 34.3965C314.28 35.0875 313.199 36.3436 312.324 37.8131C311.858 38.5969 311.536 39.4522 311.179 40.3418C310.781 40.1695 310.68 39.8612 310.536 39.6022C309.816 38.3076 309.289 36.9271 308.752 35.5518C308.592 35.1431 308.437 34.7322 308.267 34.328C308.072 33.8648 307.813 33.4196 307.217 33.5737C306.642 33.7222 306.587 34.2291 306.601 34.732C306.609 35.0512 306.602 35.373 306.641 35.6889C307.291 41.0336 308.571 46.2011 310.97 51.0542C311.412 51.9485 311.857 52.8426 312.253 53.7577C312.553 54.4517 312.815 55.1678 313.026 55.8938C313.464 57.4035 313.286 58.3521 310.983 58.3861C309.857 58.4027 308.775 58.0705 307.732 57.6473C304.785 56.4508 302.501 54.4637 300.808 51.788C298.732 48.5059 297.736 44.8778 297.475 41.0374C297.284 38.2269 297.505 35.4496 298.452 32.7684C299.94 28.5531 302.737 25.6913 307.15 24.6516C310.375 23.8918 313.561 23.0143 316.741 22.0894C320.141 21.1006 323.679 21.0237 327.19 20.9272C334.699 20.7208 342.199 21.0408 349.695 21.4869C355.435 21.8286 361.164 22.2884 366.89 22.7968C373.689 23.4005 380.484 24.0495 387.263 24.8479C394.358 25.6835 401.456 26.4958 408.55 27.3452C412.75 27.8481 416.944 28.4049 421.141 28.9329C421.654 28.9973 422.171 29.1052 422.686 28.9469C422.97 28.8596 423.19 28.6772 423.26 28.3882C423.337 28.0746 423.132 27.8621 422.905 27.6836C422.616 27.4559 422.263 27.374 421.922 27.2607C419.801 26.5545 417.644 25.9708 415.479 25.4168C415.178 25.3397 414.848 25.3318 414.663 25.0581C415.442 25.0581 416.231 25.0395 417.02 25.0612C421.693 25.1897 426.362 25.1625 431.019 24.677C432.648 24.507 434.263 24.2486 435.822 23.7188C436.506 23.4865 437.162 23.1942 437.739 22.754C439.124 21.6967 439.233 20.3149 438.024 19.0689C437.348 18.3721 436.516 17.8928 435.656 17.4631C433.248 16.2602 430.683 15.5089 428.085 14.8636C423.468 13.7164 418.771 13.01 414.052 12.4646C406.36 11.5755 398.664 10.7216 390.966 9.8897C385.212 9.26794 379.451 8.71518 373.694 8.11175C367.264 7.43764 360.834 6.75094 354.406 6.05143C348.415 5.39948 342.423 4.74788 336.437 4.05137C330.173 3.32262 323.917 2.52188 317.654 1.78631C309.724 0.854984 301.794 -0.08461 293.786 0.00607864C287.571 0.0765211 281.455 0.938124 275.401 2.28192C264.26 4.75471 253.201 7.57133 242.086 10.157C231.476 12.6255 220.813 14.8547 210.186 17.2439C202.049 19.073 193.912 20.9018 185.967 23.4741C182.583 24.5696 179.268 25.8384 176.137 27.5455C174.274 28.5608 172.498 29.7045 170.916 31.1304C170.32 31.6673 169.768 32.2431 169.352 32.9342C168.178 34.8872 168.994 36.7098 171.222 37.1737C172.589 37.4583 173.932 37.2644 175.264 37.0096C178.876 36.3182 182.371 35.1808 185.882 34.1136C194.243 31.5728 202.534 28.8072 210.959 26.4796C219.656 24.0771 228.405 21.9048 237.318 20.4582C242.599 19.6013 247.904 18.9274 253.231 18.4299C255.298 18.2369 257.366 18.0599 259.433 17.8725C260.494 17.7763 260.518 17.7775 260.319 18.8596C259.721 22.1208 259.284 25.4043 259.002 28.7059C258.391 35.858 258.86 42.8884 261.255 49.7344C264.054 57.7371 269.618 62.5374 277.819 64.4342C281.484 65.282 285.19 65.8263 288.934 66.1205C298.016 66.8343 307.122 66.9017 316.222 67.1489C326.959 67.4405 337.693 67.8159 348.42 68.3642C355.078 68.7046 361.736 69.0873 368.387 69.5441C375.117 70.0063 381.838 70.5912 388.509 71.6392C389.533 71.8001 390.55 72.0108 391.568 72.2066C391.633 72.219 391.685 72.3012 391.799 72.3991C391.542 72.6425 391.222 72.5756 390.944 72.6025C387.48 72.9381 384.004 72.9215 380.531 72.9112C373.463 72.8905 366.392 72.8838 359.333 72.5251C352.912 72.1988 346.496 71.8684 340.063 71.8572C336.273 71.8508 332.483 71.5577 328.688 71.5811C326.251 71.5961 323.817 71.6551 321.412 72.1052C320.308 72.3118 319.235 72.6117 318.245 73.1572C316.446 74.1481 315.645 75.6751 315.809 77.7167C315.928 79.1994 316.347 80.617 316.753 82.0365C317.115 83.3025 317.501 84.5606 317.724 85.8626C318.178 88.4986 317.309 90.5687 315.107 92.0817C313.161 93.418 310.954 94.1006 308.688 94.6175C305.214 95.4096 301.677 95.7508 298.135 96.0284C293.313 96.4062 288.48 96.4733 283.65 96.2738C277.21 96.0079 270.841 95.2407 264.681 93.2084C261.402 92.1263 258.295 90.6966 255.505 88.6343C254.378 87.8012 253.331 86.8803 252.473 85.7588C251.026 83.8689 250.894 81.9046 252.093 79.8449C253.123 78.0757 254.58 76.7385 256.296 75.6633C259.054 73.9341 262.119 73.0881 265.299 72.5995C270.374 71.8199 275.481 71.8323 280.595 72.0021C288.096 72.2511 295.59 72.7959 303.103 72.5735C304.22 72.5405 305.335 72.4564 306.451 72.3933C306.611 72.3844 306.77 72.3678 306.928 72.3443C307.316 72.2865 307.642 72.1047 307.665 71.6886C307.693 71.209 307.352 70.9857 306.922 70.903C306.53 70.8277 306.136 70.7553 305.739 70.7154C304.151 70.5556 302.563 70.3789 300.971 70.2622C286.673 69.2142 272.367 68.3195 258.022 68.3829C252.193 68.4087 246.361 68.4299 240.539 68.7923C236.873 69.0205 233.214 69.3394 229.673 70.4285C224.531 72.0099 221.112 75.3589 219.343 80.4253C218.668 82.3562 218.245 84.3453 217.97 86.3636C217.84 87.3178 217.639 88.2494 217.383 89.1722C216.026 94.0746 215.276 99.082 214.814 104.137C213.827 114.937 213.97 125.756 214.348 136.574C214.658 145.432 215.077 154.286 215.455 163.142C215.732 169.604 216.016 176.066 216.309 182.528C216.668 190.465 217.063 198.401 217.402 206.339C217.828 216.311 218.228 226.285 218.61 236.26C218.748 239.85 218.77 243.444 219.05 247.029C219.329 250.593 220.108 253.972 222.625 256.739C222.218 256.982 221.953 256.742 221.681 256.642C217 254.92 212.33 253.165 207.553 251.721C205.49 251.098 203.416 250.513 201.253 250.329C200.941 250.303 200.625 250.202 200.334 250.081C195.799 248.205 191.205 246.468 186.759 244.381C184.589 243.362 182.465 242.256 180.475 240.912C178.811 239.79 177.301 238.494 176.03 236.93C175.597 236.397 175.265 235.817 175.038 235.167C174.401 233.345 174.819 232.101 176.476 231.082C177.943 230.179 179.586 229.864 181.279 229.779C183.76 229.654 186.225 229.909 188.689 230.145C195.37 230.785 202.058 231.267 208.778 230.957C209.894 230.905 211.009 230.811 212.101 230.552C212.856 230.373 213.651 230.157 213.793 229.264C213.937 228.367 213.216 227.918 212.579 227.506C211.297 226.677 209.877 226.138 208.445 225.633C204.523 224.25 200.472 223.342 196.442 222.357C192.366 221.36 188.344 220.197 184.503 218.481C182.015 217.369 179.646 216.058 177.58 214.252C175.685 212.596 174.254 210.602 173.205 208.321C172.965 207.798 172.87 207.276 172.906 206.699C173.277 200.842 173.642 194.985 173.992 189.127C174.19 185.819 174.367 182.51 174.535 179.2C174.926 171.464 175.336 163.729 175.684 155.992C175.993 149.131 176.286 142.269 176.486 135.405C176.897 121.236 177.283 107.066 177.6 92.8944C177.858 81.3571 178.047 69.8173 177.879 58.2764C177.823 54.4054 177.74 50.5307 177.209 46.6846C177.095 45.8526 176.94 45.0261 176.657 44.2361C176.416 43.5629 176.179 42.8001 175.269 42.8045C174.43 42.8087 174.175 43.5189 173.926 44.1468C173.528 45.1524 173.326 46.2146 173.138 47.276C172.477 51.0167 172.163 54.7959 171.946 58.5826C171.281 70.1493 171.433 81.7342 171.192 93.3103C171.016 101.773 170.78 110.236 170.573 118.698C170.376 126.721 170.174 134.745 169.987 142.769C169.695 155.303 169.396 167.838 169.137 180.373C169.036 185.283 168.995 190.195 169.246 195.104C169.458 199.226 169.916 203.3 171.331 207.21C171.53 207.761 171.478 208.314 171.444 208.868C171.164 213.45 170.78 218.027 170.705 222.62C170.661 225.299 170.7 227.969 171.384 230.589C171.809 232.223 172.419 233.779 173.272 235.231C175.578 239.159 177.621 243.222 179.528 247.354C180.342 249.12 181.39 250.697 182.878 251.965C184.505 253.351 186.331 254.228 188.509 254.321C191.003 254.429 193.45 254.19 195.858 253.532C196.753 253.288 197.574 252.878 198.354 252.39C199.522 251.659 200.626 251.59 201.958 252.159C216.085 258.196 230.227 264.2 244.5 269.889C246.168 270.554 247.848 271.187 249.529 271.817C249.938 271.97 250.368 272.077 250.798 272.156C251.172 272.225 251.524 272.127 251.718 271.757C251.941 271.331 251.779 270.96 251.443 270.696C251.037 270.377 250.61 270.068 250.15 269.84C248.934 269.238 247.709 268.653 246.465 268.114C244.378 267.211 242.272 266.35 240.176 265.468C239.775 265.299 239.381 265.111 238.83 264.862C239.446 264.746 239.807 265.005 240.183 265.145C244.602 266.796 249.089 268.208 253.758 268.963C255.89 269.307 258.031 269.544 260.187 269.112C262.21 268.706 263.527 267.519 264.197 265.579C264.709 264.094 264.83 262.534 265.08 261.002C265.743 256.943 267.888 253.946 271.452 251.937C274.727 250.09 278.215 249.035 281.997 249.413C286.532 249.865 290.441 251.778 293.612 255.032C296.238 257.725 296.517 261.177 294.562 264.378C292.812 267.242 290.209 268.989 287.073 270.016C284.134 270.978 281.093 271.399 278.031 271.711C273.656 272.157 269.257 272.106 264.875 272.4C263.639 272.483 262.41 272.613 261.2 272.886C260.811 272.974 260.422 273.072 260.046 273.201C257.243 274.158 256.325 275.703 256.857 278.613C257.022 279.514 257.277 280.399 257.462 281.297C257.74 282.654 257.494 283.093 256.148 283.514C254.455 284.043 252.696 284.12 250.939 284.179C245.827 284.352 240.717 284.228 235.608 284.079C228.224 283.864 220.84 283.644 213.458 283.38C204.281 283.051 195.106 282.669 185.929 282.319C180.742 282.122 175.554 281.938 170.367 281.757C164.98 281.569 86.0922 280.915 80.705 280.729C0.799744 280.715 0.38501 280.743 -0.000854492 280.57C-0.000976562 281.049 -0.000976562 281.528 -0.000976562 282.007ZM359.497 117.987C358.871 118.355 358.298 118.287 357.751 118.343C356.044 118.516 354.332 118.654 352.628 118.854C351.636 118.971 350.663 119.211 349.801 119.76C348.405 120.648 348.267 122.024 349.468 123.154C350.151 123.796 350.968 124.241 351.858 124.478C354.914 125.289 358.014 125.452 361.088 124.668C362.089 124.413 362.842 124.503 363.625 125.123C365.351 126.489 367.356 127.244 369.483 127.727C371.511 128.187 373.564 128.478 375.632 128.666C376.111 128.71 376.585 128.741 377.029 128.955C378.071 129.458 379.116 129.957 380.164 130.447C382.21 131.402 383.347 133.021 383.735 135.224C383.992 136.684 384.119 138.156 384.149 139.632C384.215 142.865 384.243 146.1 384.264 149.334C384.344 161.476 384.046 173.61 383.571 185.741C383.426 189.448 383.3 193.161 383.708 196.87C384.178 201.159 386.312 204.159 390.348 205.749C391.313 206.128 392.291 206.481 393.285 206.776C398.376 208.286 403.586 209.324 408.737 210.594C414.899 212.112 421.047 213.678 427.005 215.892C434.179 218.556 440.87 222.206 447.498 225.982C447.549 226.011 447.563 226.106 447.607 226.198C447.012 226.198 446.428 226.212 445.846 226.195C438.265 225.976 430.78 226.912 423.337 228.192C412.366 230.079 401.417 232.099 390.446 233.992C382.698 235.33 374.915 236.45 367.109 237.398C360.492 238.202 353.86 238.871 347.216 239.425C339.136 240.099 331.048 240.594 322.942 240.753C313.753 240.933 304.577 240.678 295.424 239.797C286.791 238.965 278.26 237.494 269.794 235.642C261.375 233.801 252.969 231.896 244.559 230.017C244.382 229.977 244.148 230.024 244.088 229.752C244.197 229.521 244.423 229.591 244.599 229.578C251.77 229.047 258.88 228.007 266.004 227.078C272.573 226.222 279.142 225.357 285.714 224.525C291.812 223.754 297.92 223.058 304.014 222.262C310.781 221.379 317.54 220.434 324.299 219.49C331.255 218.519 338.192 217.418 345.113 216.223C353.45 214.784 361.753 213.165 370.053 211.529C373.262 210.897 376.489 210.337 379.643 209.45C380.144 209.309 380.641 209.16 381.094 208.898C381.428 208.705 381.637 208.427 381.585 208.017C381.531 207.59 381.212 207.391 380.85 207.336C380.341 207.259 379.818 207.23 379.301 207.239C374.024 207.333 368.786 207.923 363.557 208.571C358.448 209.204 353.351 209.927 348.249 210.616C342.158 211.437 336.071 212.289 329.976 213.082C323.881 213.874 317.785 214.657 311.678 215.356C305.334 216.083 298.979 216.724 292.625 217.364C283.213 218.313 273.797 219.228 264.383 220.155C257.193 220.863 249.998 221.524 242.822 222.366C239.551 222.75 236.388 223.525 233.414 224.995C232.342 225.526 231.22 225.951 230.132 226.45C228.217 227.327 226.576 226.865 225.082 225.496C224.623 225.075 224.3 224.615 224.161 224.001C223.815 222.48 223.604 220.939 223.444 219.391C222.892 214.064 222.776 208.713 222.517 203.37C222.266 198.185 222.036 193 221.863 187.812C221.747 184.341 221.462 180.872 221.61 177.396C221.87 171.293 222.196 165.192 222.424 159.088C222.783 149.512 223.112 139.934 223.397 130.355C223.606 123.331 223.779 116.305 224.408 109.302C224.815 104.766 225.43 100.26 226.556 95.838C227.528 92.0197 228.905 88.3787 231.272 85.176C232.396 83.6556 233.689 82.3078 235.256 81.2362C238.862 78.7703 243.339 79.3848 246.186 81.3926C247.826 82.5492 247.852 83.7829 246.339 85.1071C246.039 85.3688 245.708 85.5971 245.375 85.816C244.267 86.5453 243.065 87.0768 241.793 87.4474C239.979 87.9761 238.12 88.1867 236.235 88.2161C235.517 88.2272 234.799 88.267 234.083 88.3252C233.665 88.3592 233.268 88.5068 233.251 89.0142C233.236 89.4967 233.591 89.7134 233.999 89.8195C234.424 89.9296 234.857 90.0072 235.289 90.0836C238.314 90.6191 241.381 90.8957 244.39 91.5387C248.189 92.3507 251.705 93.7916 254.765 96.2358C255.421 96.7601 256.061 97.3113 256.444 98.0829C257.916 101.052 259.407 104.01 261.264 106.765C261.424 107.002 261.492 107.196 261.323 107.514C260.608 108.861 260.739 109.613 261.799 110.706C262.388 111.313 263.056 111.85 263.824 112.177C264.88 112.626 265.38 113.387 265.685 114.462C266.275 116.546 267.162 118.504 268.513 120.232C269.796 121.872 271.427 122.927 273.457 123.382C276.056 123.964 278.675 124.039 281.314 123.74C283.5 123.493 285.634 122.969 287.782 122.521C288.427 122.386 288.917 122.421 289.317 123.051C290.923 125.581 292.414 128.166 293.637 130.911C294.524 132.9 294.373 134.753 293.365 136.631C292.599 138.058 291.728 139.363 290.323 140.251C288.897 141.153 287.535 141.052 286.198 140.088C285.643 139.688 285.172 139.202 284.765 138.652C284.072 137.716 283.519 136.703 283.1 135.616C282.436 133.891 282.052 132.102 281.91 130.26C281.873 129.782 281.865 129.3 281.699 128.843C281.564 128.473 281.329 128.203 280.9 128.285C280.529 128.356 280.396 128.659 280.405 129.005C280.415 129.443 280.433 129.884 280.491 130.318C280.919 133.526 281.066 136.759 281.375 139.977C281.981 146.293 282.427 152.626 283.358 158.909C283.652 160.891 284.086 162.837 285.068 164.611C285.515 165.42 286.021 166.207 286.944 166.546C287.441 166.728 287.856 166.998 288.266 167.326C289.549 168.353 290.807 168.302 292.047 167.213C292.531 166.788 292.915 166.277 293.267 165.742C294.197 164.33 294.865 162.799 295.331 161.178C296.109 158.472 296.39 155.692 296.489 152.896C296.681 147.465 296.624 142.035 296.073 136.623C295.89 134.829 295.726 133.058 296.255 131.294C296.368 130.916 296.387 130.507 296.424 130.109C296.586 128.316 296.692 126.52 296.249 124.749C295.736 122.695 294.482 121.389 292.356 121.017C291.647 120.892 290.923 120.84 290.207 120.922C289.611 120.99 289.14 120.853 288.679 120.447C287.71 119.593 286.553 119.046 285.361 118.568C283.686 117.897 281.931 117.521 280.176 117.136C279.021 116.882 277.831 116.76 276.587 116.298C276.824 116.241 276.927 116.191 277.029 116.195C277.348 116.208 277.667 116.232 277.984 116.269C284.142 117.001 290.259 116.75 296.327 115.471C299.833 114.732 303.159 113.534 306.087 111.397C306.865 110.829 307.594 110.208 308.155 109.418C309.15 108.014 309.001 106.748 307.708 105.596C306.892 104.869 305.92 104.4 304.918 103.992C302.079 102.836 299.107 102.273 296.063 102.082C291.502 101.795 286.968 102.251 282.434 102.647C278.613 102.981 274.787 103.23 270.952 103.169C268.398 103.128 265.847 102.975 263.349 102.34C261.401 101.846 259.92 100.811 258.811 99.0871C257.662 97.3022 256.619 95.4768 255.73 93.5532C255.145 92.2856 254.494 91.048 253.89 89.7887C253.778 89.554 253.523 89.3398 253.694 88.9771C253.831 89.062 253.967 89.1292 254.084 89.2212C256.616 91.2174 259.441 92.6852 262.443 93.8228C268.594 96.1529 275.02 97.0677 281.535 97.4953C287.524 97.8884 293.51 97.7414 299.486 97.2431C303.106 96.9414 306.718 96.5388 310.242 95.5984C312.336 95.0396 314.348 94.2873 316.116 92.9893C317.548 91.9375 318.59 90.6015 318.981 88.8466C319.263 87.5838 319.21 86.2948 318.912 85.0416C318.553 83.5289 318.1 82.0386 317.709 80.533C317.429 79.4529 317.124 78.3764 317.11 77.2441C317.095 76.0137 317.617 75.0989 318.657 74.4582C319.38 74.0126 320.165 73.7266 320.99 73.5546C324.654 72.7898 328.364 72.8152 332.079 72.9453C332.095 72.9459 332.11 73.0064 332.173 73.1399C331.594 73.3568 331.012 73.5576 330.444 73.7901C326.915 75.2339 324.401 77.6197 323.451 81.421C323.062 82.9762 322.893 84.5653 322.919 86.169C322.965 88.9948 324.038 91.3583 326.133 93.2623C327.448 94.4572 328.937 95.371 330.565 96.0654C333.229 97.2018 336.038 97.7956 338.884 98.2311C342.122 98.7266 345.385 98.9908 348.65 99.2296C348.999 99.2553 349.419 99.1281 349.759 99.562C349.256 99.6953 348.836 99.8058 348.416 99.9175C346.14 100.524 343.884 101.194 341.694 102.07C340.878 102.396 340.069 102.749 339.397 103.335C338.362 104.235 338.343 105.276 339.346 106.207C340.03 106.843 340.868 107.228 341.72 107.573C343.912 108.46 346.201 109.006 348.508 109.485C348.849 109.556 349.234 109.514 349.504 109.886C348.799 110.095 348.106 110.277 347.429 110.506C346.559 110.8 345.692 111.117 344.973 111.716C343.958 112.562 343.969 113.515 345.029 114.291C345.41 114.571 345.847 114.798 346.291 114.964C347.075 115.255 347.875 115.514 348.683 115.729C352.195 116.663 355.772 117.288 359.497 117.987ZM381.034 74.253C381.63 74.253 382.227 74.2553 382.823 74.2526C385.898 74.2392 388.97 74.1482 392.031 73.8179C392.668 73.7491 393.299 73.6497 393.9 73.4291C394.33 73.2715 394.701 73.0085 394.71 72.4976C394.718 72.0493 394.413 71.769 394.039 71.5839C393.754 71.443 393.458 71.3086 393.151 71.2314C392.34 71.0268 391.525 70.8252 390.702 70.6746C384.883 69.6102 379 69.0537 373.112 68.575C363.402 67.7854 353.673 67.2943 343.943 66.8322C332.376 66.2829 320.803 65.9515 309.227 65.6564C302.083 65.4743 294.936 65.3563 287.814 64.6904C283.795 64.3146 279.819 63.6981 275.943 62.5139C269.869 60.6581 265.638 56.8145 263.175 50.9544C261.277 46.4395 260.39 41.7202 260.138 36.8672C259.829 30.9304 260.605 25.0736 261.59 19.2394C261.86 17.6414 261.879 17.6446 263.541 17.5365C264.969 17.4437 264.957 17.445 265.109 18.8636C265.504 22.5578 265.654 26.2679 265.846 29.9754C266.194 36.6756 266.738 43.3577 267.785 49.9891C268.177 52.4731 268.677 54.9385 269.552 57.308C269.871 58.1703 270.227 59.0241 270.852 59.7184C271.703 60.6618 272.713 60.6304 273.498 59.6417C273.976 59.0401 274.25 58.3289 274.498 57.6101C275.413 54.9596 275.953 52.2211 276.394 49.4605C277.005 45.6316 277.304 41.7695 277.503 37.903C277.737 33.3583 277.958 28.8112 277.686 24.2559C277.558 22.1032 277.428 19.9536 277.151 17.8136C277.02 16.7974 277.045 16.7895 278.005 16.7493C279.361 16.6927 280.718 16.6253 282.075 16.5944C288.903 16.4391 295.73 16.499 302.554 16.778C312.846 17.1987 323.131 17.7589 333.412 18.387C342.815 18.9616 352.23 19.3593 361.603 20.3596C367.278 20.9653 372.957 21.5392 378.633 22.1335C385.144 22.8152 391.657 23.4755 398.184 23.9679C401.968 24.2533 405.744 24.5711 409.453 25.4219C410.916 25.7576 412.409 25.9744 413.937 26.4687C413.48 26.6933 413.124 26.5847 412.782 26.5438C407.393 25.8998 402.004 25.2533 396.617 24.5931C388.931 23.6511 381.234 22.805 373.526 22.0771C366.214 21.3867 358.896 20.7594 351.566 20.277C342.835 19.7024 334.1 19.3968 325.352 19.6751C322.157 19.7767 318.955 19.9927 315.882 20.9391C313.019 21.8205 310.135 22.5864 307.215 23.2498C301.903 24.4567 298.58 27.8289 296.996 32.9746C296.016 36.1553 295.861 39.4078 296.295 42.6938C296.766 46.2585 297.814 49.6241 299.793 52.6622C301.752 55.6695 304.382 57.8441 307.765 59.0767C308.975 59.5176 310.223 59.7657 311.521 59.6858C313.834 59.5435 314.889 58.1501 314.403 55.8836C314.297 55.3907 314.046 54.9258 314.055 54.3718C314.516 54.5118 314.76 54.8501 315.074 55.0872C318.037 57.3286 321.641 57.3583 324.626 55.1517C325.997 54.138 327.131 52.887 327.882 51.3696C331.009 45.0486 330.926 38.8531 327.016 32.8466C326.831 32.5621 326.492 32.3484 326.534 31.885C327.008 31.7656 327.478 31.8509 327.941 31.8833C331.047 32.1012 334.151 32.3454 337.258 32.5523C342.755 32.9184 348.254 33.2585 353.751 33.6193C361.638 34.137 369.524 34.6817 377.412 35.1807C384.584 35.6344 391.75 36.1516 398.891 36.9626C399.773 37.0628 400.696 37.0133 401.605 37.3735C401.463 37.6165 401.372 37.7915 401.264 37.9547C399.038 41.2986 398.068 44.9855 398.369 48.9788C398.716 53.5641 400.616 57.3648 404.419 60.0464C408.017 62.5824 412.089 63.5086 416.451 63.2191C417.248 63.1661 418.032 62.9767 418.727 62.5451C419.722 61.9267 419.977 61.0085 419.433 59.9731C419.24 59.605 418.997 59.2628 418.685 58.7614C419.467 58.9786 420.065 59.1731 420.676 59.31C425.244 60.3338 429.477 57.8175 430.577 53.41C430.908 52.0845 430.976 50.7347 430.83 49.3674C430.586 47.0728 429.779 44.9531 428.9 42.8501C428.254 41.3043 427.587 39.7665 427.227 38.1174C426.921 36.7182 427.183 35.4137 427.861 34.189C428.524 32.99 429.548 32.5366 430.88 32.7833C431.404 32.8803 431.839 33.1649 432.268 33.4585C435.487 35.6583 437.183 38.7156 437.424 42.5969C437.563 44.8332 437.421 47.0677 437.39 49.3029C437.323 54.1338 437.262 58.9651 437.15 63.7952C437.1 65.9555 436.828 68.0936 435.997 70.1215C435.053 72.4228 433.388 73.8971 430.977 74.5215C429.812 74.823 428.628 74.9814 427.426 75.0097C424.351 75.0819 421.278 74.99 418.205 74.8684C413.617 74.6869 409.026 74.4783 404.445 74.9888C401.702 75.2945 398.992 75.7752 396.421 76.8322C394.424 77.653 392.577 78.6452 392.14 81.2829C389.529 76.9408 385.382 75.5091 381.034 74.253ZM275.419 15.4246C274.507 15.6587 273.667 15.5679 272.841 15.6255C270.929 15.7588 269.017 15.8781 267.104 15.9917C266.085 16.0522 266.085 16.0413 265.891 15.0144C265.779 14.4264 265.688 13.8334 265.545 13.2531C265.384 12.5957 265.232 11.9298 264.905 11.3267C264.297 10.2033 263.29 10.1451 262.578 11.2163C262.316 11.6105 262.129 12.0612 261.951 12.5035C261.546 13.5043 261.249 14.5414 261.027 15.596C260.904 16.1748 260.66 16.4618 260.01 16.5162C256.55 16.8052 253.092 17.122 249.638 17.4763C244.277 18.0262 238.943 18.7856 233.641 19.7518C224.327 21.4491 215.171 23.8054 206.104 26.503C198.036 28.9034 190.011 31.4454 181.959 33.9015C179.479 34.6579 176.991 35.3961 174.423 35.813C173.356 35.9865 172.275 36.1047 171.217 35.7977C170.213 35.5063 169.907 34.7863 170.366 33.8501C170.742 33.0841 171.355 32.4996 171.988 31.9475C173.318 30.7891 174.785 29.8266 176.319 28.9627C179.57 27.1328 183.035 25.8139 186.572 24.6742C194.52 22.1136 202.659 20.2919 210.794 18.4644C220.759 16.2259 230.765 14.1732 240.707 11.8288C252.161 9.12766 263.605 6.38304 275.068 3.71916C280.635 2.42556 286.271 1.57187 292.001 1.3839C298.727 1.16335 305.407 1.71563 312.073 2.47264C320.757 3.45872 329.427 4.56387 338.11 5.55977C347.229 6.60574 356.353 7.60679 365.48 8.58388C373.536 9.44633 381.601 10.2242 389.657 11.0842C398.149 11.9908 406.648 12.8382 415.12 13.9233C419.554 14.4912 423.972 15.1662 428.307 16.2891C430.705 16.9102 433.073 17.6257 435.288 18.7626C435.999 19.1276 436.696 19.5328 437.215 20.1592C437.64 20.6707 437.609 21.0601 437.127 21.5199C436.594 22.0287 435.921 22.2948 435.235 22.5135C433.397 23.0989 431.496 23.3205 429.585 23.491C425.241 23.8784 420.888 23.7858 416.538 23.7067C412.466 23.6327 408.383 23.5548 404.344 23.0569C397.968 22.2708 391.609 21.3537 385.21 20.7479C378.971 20.1573 372.726 19.6502 366.477 19.1809C362.695 18.897 358.907 18.6857 355.132 18.3374C350.165 17.8792 345.208 17.3075 340.245 16.8042C331.986 15.9668 323.727 15.1302 315.479 14.1842C305.805 13.0745 296.142 11.8805 286.535 10.282C282.321 9.5811 278.124 8.7927 274.119 7.23446C273.896 7.14796 273.666 7.05811 273.432 7.03031C272.75 6.94933 272.363 7.43919 272.619 8.08444C272.749 8.41353 272.977 8.70416 273.164 9.01061C274.365 10.9796 274.99 13.1419 275.419 15.4246ZM217.274 96.5723C217.333 101.725 217.534 106.872 217.768 112.016C218.277 123.183 218.695 134.354 219.071 145.527C219.295 152.19 219.508 158.854 219.758 165.517C220.054 173.458 220.255 181.394 219.979 189.344C219.706 197.204 219.61 205.073 220.112 212.932C220.275 215.481 220.558 218.017 221.034 220.533C221.485 222.915 222.746 224.899 223.994 226.89C224.505 227.707 225.352 228.135 226.306 228.228C227.111 228.305 227.862 228.541 228.624 228.778C229.308 228.992 230.01 229.163 230.715 229.288C231.447 229.417 232.124 229.485 232.12 230.509C232.118 230.924 232.486 231.291 232.756 231.641C233.272 232.308 233.883 232.88 234.523 233.423C236.785 235.345 239.272 236.935 241.859 238.371C251.185 243.544 261.223 246.567 271.712 248.229C272.789 248.399 273.895 248.429 275.175 248.817C273.818 249.339 272.676 249.79 271.579 250.349C266.966 252.702 264.276 256.397 263.646 261.571C263.502 262.756 263.334 263.944 262.962 265.091C262.441 266.698 261.339 267.608 259.686 267.863C258.698 268.016 257.708 268.066 256.703 267.982C252.699 267.646 248.831 266.682 245.036 265.428C239.01 263.435 233.16 260.965 227.218 258.745C226.995 258.661 226.77 258.561 226.577 258.424C223.896 256.53 221.816 254.204 220.997 250.908C220.415 248.563 220.235 246.177 220.165 243.786C219.903 234.846 219.55 225.91 219.158 216.975C218.947 212.189 218.789 207.4 218.575 202.614C218.216 194.598 217.826 186.582 217.459 178.566C217.189 172.664 216.942 166.76 216.674 160.857C216.177 149.929 215.631 139.003 215.465 128.063C215.327 118.955 215.405 109.857 216.505 100.797C216.677 99.3822 216.823 97.9597 217.274 96.5723ZM352.278 73.6992C357.306 73.7612 363.484 74.1138 369.658 74.5499C373.201 74.8001 376.748 75.0289 380.245 75.7074C382.887 76.2199 385.448 76.9607 387.72 78.4669C392.142 81.3991 393.133 86.8048 390.054 91.1337C387.985 94.0428 385.112 95.7091 381.698 96.5393C379.123 97.1654 376.499 97.3921 373.862 97.4494C368.986 97.5553 364.128 97.1106 359.262 96.9038C357.108 96.8123 354.953 96.7186 352.803 96.9772C352.363 97.0301 351.844 97.05 351.661 97.4989C351.414 98.1049 350.981 98.0605 350.493 98.0272C345.953 97.7175 341.41 97.4143 336.932 96.5453C334.06 95.9879 331.254 95.2184 328.755 93.6129C325.7 91.6493 323.981 88.9664 324.282 85.2108C324.307 84.8926 324.303 84.5721 324.324 84.2535C324.639 79.5176 327.045 76.3704 331.519 74.8006C331.858 74.6818 332.202 74.5775 332.547 74.4803C335.763 73.5757 339.046 73.2135 342.378 73.3182C345.292 73.4099 348.203 73.5406 352.278 73.6992ZM420.353 112.777C421.592 112.726 422.829 112.763 424.063 112.864C425.26 112.961 426.431 113.19 427.529 113.715C428.519 114.189 429.074 114.958 429.146 116.048C429.175 116.482 429.15 116.925 429.102 117.359C428.822 119.856 428.384 122.341 428.4 124.862C428.415 127.013 427.948 129.067 427.242 131.065C426.09 134.33 424.014 135.775 420.563 135.835C418.637 135.868 416.74 135.608 414.861 135.227C410.088 134.26 405.398 132.964 400.713 131.649C396.489 130.464 392.279 129.229 387.933 128.543C384.578 128.014 381.194 127.793 377.814 127.511C377.458 127.481 377.095 127.492 376.773 127.291C374.455 125.845 372.274 124.224 370.718 121.939C369.345 119.924 369.691 118.002 371.583 116.442C372.711 115.512 374.021 114.939 375.419 114.553C377.045 114.103 378.716 113.94 380.389 113.86C383.419 113.715 386.451 113.644 389.486 113.69C393.477 113.75 397.467 113.767 401.46 113.686C407.767 113.56 414.055 113.073 420.353 112.777ZM175.227 44.4969C175.61 45.1744 175.687 45.674 175.775 46.1702C176.27 48.9703 176.375 51.8037 176.465 54.6356C176.772 64.2963 176.586 73.9582 176.442 83.6179C176.202 99.7846 175.722 115.946 175.278 132.109C174.989 142.644 174.493 153.171 174.002 163.698C173.69 170.397 173.298 177.092 172.931 183.788C172.594 189.925 172.246 196.062 171.891 202.199C171.873 202.513 171.997 202.895 171.569 203.25C171.127 201.268 170.885 199.378 170.724 197.475C170.335 192.892 170.423 188.3 170.454 183.71C170.561 168.02 171.088 152.338 171.455 136.653C171.728 124.959 172.106 113.268 172.352 101.574C172.581 90.6372 172.687 79.6985 172.871 68.7611C172.977 62.4129 173.265 56.0736 174.092 49.7714C174.314 48.0763 174.55 46.3778 175.227 44.4969ZM376.328 208.858C375.948 208.956 375.572 209.072 375.188 209.149C371.941 209.798 368.694 210.445 365.446 211.084C352.958 213.537 340.438 215.804 327.842 217.643C319.433 218.87 311.015 220.031 302.586 221.109C295.185 222.056 287.776 222.932 280.37 223.838C270.35 225.063 260.376 226.636 250.337 227.707C244.741 228.304 239.141 228.911 233.499 228.357C232.558 228.264 231.608 228.217 230.54 227.779C232.064 227.086 233.438 226.473 234.802 225.839C236.77 224.924 238.832 224.338 240.972 223.993C245.23 223.305 249.528 222.969 253.815 222.544C264.06 221.531 274.307 220.536 284.551 219.511C292.65 218.7 300.751 217.899 308.843 217.017C318.442 215.97 328.015 214.711 337.586 213.434C348.026 212.04 358.432 210.394 368.91 209.291C371.366 209.033 373.825 208.781 376.328 208.858ZM244.926 79.045C244.385 79.0759 243.995 78.8418 243.579 78.7303C241.934 78.2896 240.278 78.195 238.597 78.4776C236.048 78.9063 234.008 80.2491 232.225 82.0401C229.044 85.2368 227.137 89.1569 225.853 93.4144C224.208 98.8701 223.481 104.49 222.999 110.143C222.385 117.346 222.246 124.574 222.019 131.797C221.757 140.138 221.484 148.478 221.202 156.818C221.166 157.891 221.049 158.962 220.97 160.034C220.861 159.636 220.837 159.241 220.823 158.845C220.427 147.473 220.043 136.1 219.629 124.728C219.444 119.661 219.165 114.598 218.99 109.53C218.805 104.184 218.528 98.8361 218.724 93.4844C218.795 91.5332 218.692 89.5373 219.236 87.6508C220.326 83.8698 221.94 80.3145 224.304 77.1362C225.262 75.8484 226.341 74.6733 227.666 73.7504C230.231 71.9642 233.003 71.4605 235.958 72.5842C239.459 73.9152 242.328 76.18 244.898 78.8538C244.921 78.8768 244.911 78.9307 244.926 79.045ZM260.546 102.839C261.911 103.321 263.261 103.761 264.677 103.983C266.097 104.206 267.524 104.375 268.958 104.432C273.911 104.628 278.845 104.295 283.776 103.867C288.186 103.484 292.595 103.028 297.031 103.489C299.703 103.767 302.308 104.308 304.784 105.381C305.371 105.635 305.942 105.92 306.461 106.297C307.706 107.2 307.78 107.878 306.751 109.049C306.221 109.652 305.592 110.144 304.931 110.594C303.17 111.792 301.266 112.694 299.235 113.325C294.78 114.711 290.201 115.265 285.552 115.317C280.098 115.379 274.73 114.808 269.487 113.206C267.517 112.604 266.206 111.321 265.25 109.591C264.763 108.709 264.238 107.876 263.385 107.294C263.192 107.162 263.023 106.977 262.888 106.784C262.023 105.543 261.197 104.276 260.546 102.839ZM271.11 17.0601C271.11 17.0625 271.11 17.0649 271.11 17.0673C272.305 17.0007 273.5 16.9314 274.696 16.8682C275.651 16.8176 275.661 16.8279 275.826 17.7991C275.846 17.917 275.86 18.0361 275.874 18.1552C276.173 20.8532 276.387 23.5559 276.427 26.2731C276.49 30.6657 276.39 35.0537 276.093 39.4358C275.82 43.4567 275.489 47.4741 274.706 51.4358C274.257 53.7047 273.8 55.9762 272.859 58.1093C272.705 58.4584 272.594 58.943 272.118 58.935C271.723 58.9283 271.576 58.5004 271.409 58.192C271.202 57.807 271.028 57.4018 270.864 56.9959C270.458 55.9957 270.166 54.9586 269.922 53.909C268.519 47.8631 267.996 41.6997 267.526 35.5335C267.254 31.9532 267.083 28.3647 266.891 24.7786C266.776 22.626 266.608 20.4793 266.369 18.3369C266.26 17.3619 266.287 17.3506 267.285 17.2857C268.56 17.2025 269.835 17.1345 271.11 17.0601ZM172.656 210.707C173.631 211.786 174.385 212.907 175.312 213.9C177.471 216.216 180.099 217.859 182.924 219.212C186.718 221.029 190.712 222.278 194.779 223.309C198.992 224.377 203.25 225.275 207.377 226.665C208.815 227.15 210.237 227.676 211.559 228.432C211.812 228.577 212.129 228.694 212.176 229.138C211.494 229.365 210.836 229.466 210.165 229.525C205.337 229.95 200.514 229.744 195.694 229.393C191.714 229.103 187.741 228.731 183.761 228.456C181.478 228.299 179.21 228.45 177.047 229.311C175.758 229.824 174.653 230.579 173.909 231.789C173.776 232.005 173.761 232.322 173.397 232.4C172.668 230.73 172.323 228.982 172.148 227.187C171.797 223.593 172.118 220.008 172.289 216.423C172.38 214.516 172.531 212.612 172.656 210.707ZM235.006 70.6559C254.223 69.0712 273.427 69.6788 292.761 71.0487C290.477 71.2398 288.335 70.9522 286.192 70.8748C281.124 70.6917 276.057 70.4939 270.987 70.7082C267.673 70.8484 264.38 71.2174 261.174 72.1257C257.978 73.031 255.054 74.4375 252.706 76.8599C251.553 78.0495 250.623 79.3862 250.177 81.0072C250.045 81.485 249.975 81.9795 249.843 82.6343C245.858 77.2968 241.335 72.9069 235.006 70.6559ZM429.74 126.631C430.033 124.296 430.502 121.844 431.877 119.665C432.372 118.88 433.014 118.227 433.827 117.765C435.259 116.952 436.642 117.038 437.958 118.033C438.87 118.722 439.521 119.626 439.988 120.652C441.384 123.72 441.589 126.869 440.519 130.074C440.003 131.619 439.145 132.949 437.792 133.903C435.097 135.805 432.258 135.031 430.91 132.029C430.166 130.37 429.917 128.598 429.74 126.631ZM283.623 148.548C283.69 147.121 283.705 145.797 284.114 144.529C284.468 143.436 284.981 143.229 286.022 143.689C286.538 143.917 286.984 144.252 287.401 144.628C288.241 145.383 288.945 146.256 289.452 147.259C291.987 152.28 292.272 157.407 290.098 162.629C289.79 163.368 289.394 164.063 288.861 164.667C288.27 165.338 288.108 165.338 287.622 164.601C286.18 162.413 285.138 160.036 284.63 157.47C284.042 154.494 283.794 151.468 283.623 148.548ZM274.782 9.0795C275.271 9.00857 275.555 9.16611 275.854 9.25932C277.49 9.77146 279.147 10.2085 280.828 10.55C290.41 12.4976 300.11 13.6517 309.802 14.8537C313.437 15.3045 317.077 15.711 320.714 16.1378C320.255 16.259 319.798 16.2768 319.342 16.2559C317.39 16.166 315.438 16.0714 313.487 15.9667C303.328 15.4212 293.167 15.005 282.99 15.2752C281.196 15.3228 279.401 15.3628 277.608 15.4251C277.133 15.4416 276.758 15.4444 276.651 14.8291C276.306 12.8585 275.671 10.974 274.782 9.0795ZM294.728 137.177C294.791 137.412 294.837 137.519 294.846 137.629C295.204 142.046 295.384 146.471 295.242 150.901C295.162 153.411 295.065 155.924 294.611 158.406C294.191 160.701 293.516 162.898 292.246 164.879C291.879 165.452 291.482 166.005 290.923 166.41C290.594 166.648 290.237 166.811 289.806 166.7C289.284 166.566 289.177 166.293 289.553 165.888C290.128 165.268 290.633 164.599 290.987 163.836C293.807 157.744 293.486 151.773 290.208 145.955C289.478 144.66 288.448 143.584 287.164 142.794C285.515 141.78 284.678 141.855 283.213 143.113C283.195 143.129 283.146 143.109 282.98 143.095C282.876 141.491 282.591 139.88 282.617 138.143C283.089 138.395 283.195 138.754 283.396 139.032C283.984 139.844 284.622 140.607 285.453 141.186C287.23 142.423 289.052 142.567 290.941 141.424C292.202 140.662 293.144 139.604 293.919 138.37C294.149 138.005 294.275 137.57 294.728 137.177ZM178.087 240.867C184.204 245.371 191.372 247.743 198.371 250.754C197.203 251.655 196.018 252.183 194.728 252.467C192.772 252.898 190.793 253.094 188.785 253.022C187.177 252.963 185.739 252.458 184.446 251.514C182.967 250.434 181.829 249.071 181.035 247.418C180.066 245.406 179.089 243.398 178.118 241.387C178.052 241.251 177.928 241.121 178.087 240.867ZM400.198 87.1226C401.96 85.6678 403.853 84.765 405.874 84.1207C409.933 82.827 414.098 82.6489 418.305 83.024C419.457 83.1268 420.605 83.3029 421.706 83.6721C422.18 83.831 422.727 83.9103 423.007 84.4245C420.169 87.0969 404.887 88.9546 400.198 87.1226ZM287.321 121.104C287.142 121.222 287.081 121.287 287.009 121.305C286.584 121.411 286.157 121.51 285.729 121.605C282.406 122.336 279.081 122.831 275.645 122.451C272.315 122.083 269.865 120.58 268.348 117.571C267.843 116.569 267.421 115.539 267.078 114.476C267.018 114.289 266.805 114.041 267.134 113.837C267.231 113.872 267.354 113.891 267.446 113.955C270.495 116.049 273.933 117.162 277.503 117.941C279.256 118.323 281.018 118.671 282.757 119.112C284.339 119.513 285.873 120.068 287.321 121.104ZM321.78 38.9121C321.749 40.4991 321.401 41.6349 320.672 42.6264C319.548 44.1555 318.054 44.7749 316.167 44.36C314.801 44.0594 313.671 43.3448 312.648 42.4171C312.278 42.0814 312.166 41.7424 312.314 41.2548C312.784 39.7115 313.426 38.2645 314.504 37.0408C314.957 36.5272 315.475 36.0932 316.084 35.775C318.813 34.349 321.812 36.1901 321.78 38.9121ZM254.333 94.1888C254.197 94.1173 254.053 94.0567 253.925 93.9727C250.004 91.3999 245.61 90.2275 241.03 89.5986C240.705 89.554 240.303 89.6641 240.063 89.2134C240.321 89.1657 240.554 89.1296 240.784 89.079C242.826 88.6289 244.748 87.8901 246.472 86.6873C247.33 86.0884 248.088 85.3921 248.538 84.417C248.63 84.2179 248.613 83.9213 249.023 83.9094C251.143 87.0989 252.814 90.5705 254.333 94.1888ZM420.778 38.7408C423.039 40.6218 424.207 42.7915 423.921 45.6083C423.84 46.4039 423.554 47.1526 423.088 47.8192C422.049 49.3046 420.454 49.5121 419.082 48.3292C418.229 47.5937 417.898 46.6542 418.075 45.5492C418.202 44.7609 418.467 44.0085 418.792 43.2812C419.44 41.832 420.165 40.4169 420.778 38.7408ZM373.664 101.999C375.627 102.217 377.524 102.662 379.389 103.243C380.61 103.623 381.814 104.046 382.933 104.676C384.958 105.817 384.995 106.572 383.097 107.913C382.241 108.517 381.766 108.538 381.012 107.687C378.925 105.332 376.631 103.27 373.664 101.999ZM389.244 94.2395C391.875 91.5684 393.505 88.5126 393.172 84.5862C394.297 85.9872 395.627 87.011 397.313 87.7266C394.791 90.3042 392.266 92.5552 389.244 94.2395ZM290.46 122.281C293.086 122.119 294.431 122.982 294.963 125.103C295.391 126.809 295.332 128.528 294.921 130.273C293.64 127.539 292.067 124.986 290.46 122.281ZM210.285 254.043C210.397 254.062 210.514 254.066 210.62 254.101C215.643 255.778 220.606 257.622 225.536 259.551C227.117 260.17 228.364 261.394 229.804 262.305C223.192 259.774 216.695 257.006 210.285 254.043ZM419.636 36.574C418.774 36.4602 418.044 36.2421 417.288 36.2812C416.529 36.3204 415.786 36.4476 415.082 36.7533C414.344 37.0737 413.688 37.5144 413.097 38.0595C412.582 38.5344 412.168 39.1091 411.654 39.5881C412.276 37.9677 413.294 36.6812 414.727 35.7345C415.505 35.2201 416.361 34.9049 417.289 34.825C418.615 34.7106 419.325 35.2225 419.636 36.574ZM321.727 29.7832C319.399 29.9765 313.188 28.741 312.144 27.8825C315.514 27.6354 318.587 28.1749 321.727 29.7832ZM263.656 12.0307C264.158 12.8037 264.263 13.4795 264.374 14.131C264.73 16.2183 265.315 16.1924 262.614 16.2632C262.516 16.2657 262.416 16.1832 262.266 16.1188C262.602 14.7607 262.894 13.4157 263.656 12.0307ZM310.362 45.7417C309.608 44.3403 308.583 40.2861 308.661 38.9447C309.274 40.0307 309.778 41.0658 310.482 41.9753C310.637 42.1755 310.67 42.4045 310.646 42.6509C310.552 43.6589 310.461 44.6673 310.362 45.7417ZM263.876 110.362C263.04 110.028 262.22 109.668 262.456 108.515C262.929 109.13 263.402 109.746 263.876 110.362ZM221.358 208.768C221.387 208.762 221.417 208.757 221.446 208.752C221.446 209.748 221.446 210.744 221.446 211.74C221.416 211.74 221.387 211.741 221.358 211.741C221.358 210.75 221.358 209.759 221.358 208.768ZM406.825 35.2837C406.869 35.3152 406.917 35.3327 406.928 35.3636C406.937 35.3889 406.909 35.4384 406.884 35.4628C406.59 35.7462 406.24 35.7513 405.728 35.7644C406.141 35.3968 406.501 35.3766 406.825 35.2837ZM221.192 206.464C221.18 206.464 221.167 206.464 221.154 206.464C221.154 206.308 221.154 206.151 221.154 205.994C221.167 206.151 221.18 206.308 221.192 206.464ZM221.648 214.373C221.641 214.373 221.634 214.373 221.627 214.373C221.627 214.15 221.627 213.927 221.627 213.704C221.634 213.704 221.641 213.705 221.648 213.705C221.648 213.928 221.648 214.15 221.648 214.373Z" fill="#4F2E12"/>
</svg>
