<svg width="457" height="260" viewBox="0 0 457 260" fill="none" xmlns="http://www.w3.org/2000/svg">
<path d="M456.997 220.174C447.863 218.604 438.745 216.954 429.706 214.893C423.091 213.384 416.633 211.334 410.19 209.236C399.76 205.84 389.298 202.552 378.747 199.549C376.233 198.833 373.775 197.938 371.41 196.812C369.731 196.012 368.131 195.083 366.67 193.924C364.219 191.978 362.949 189.427 362.651 186.333C362.41 183.836 362.582 181.351 362.76 178.865C363.05 174.801 363.44 170.741 363.344 166.662C363.208 160.908 362.702 155.189 361.396 149.569C360.284 144.787 357.941 140.703 354.268 137.417C352.999 136.282 351.684 135.199 350.41 134.07C348.541 132.413 347.22 130.412 346.681 127.944C346.446 126.872 346.326 125.785 346.259 124.692C346.049 121.227 346.177 117.761 346.234 114.296C346.374 105.843 346.349 97.3896 346.422 88.9368C346.481 82.0645 346.787 75.1995 347.085 68.3343C347.254 64.4463 347.375 60.5561 347.516 56.6669C347.523 56.4931 347.517 56.3189 347.517 56.1869C347.343 56.0745 347.28 56.1698 347.239 56.2375C345.549 59.0259 342.996 60.6945 340.017 61.8081C337.668 62.6863 335.225 63.1639 332.742 63.4426C326.348 64.1604 319.935 64.0794 313.519 63.8922C309.446 63.7734 305.379 63.5388 301.314 63.2631C297.068 62.9752 292.826 62.6365 288.589 62.2386C284.473 61.8521 280.358 61.4618 276.242 61.0683C273.217 60.7789 270.198 60.4079 267.157 60.3027C266.745 60.2885 266.323 60.2209 265.881 60.3904C267.91 62.8245 269.903 65.2151 271.936 67.6538C273.545 65.8864 275.736 65.6557 277.913 65.4363C281.528 65.072 285.143 65.3022 288.754 65.5408C296.095 66.0257 303.431 66.6004 310.797 66.5483C318.325 66.4951 325.789 65.8161 333.194 64.458C335.287 64.0743 337.392 63.74 339.536 63.9533C343.005 64.2983 344.47 67.0423 342.813 70.1099C341.989 71.6351 340.795 72.8432 339.44 73.8983C337.133 75.6956 334.495 76.862 331.769 77.8403C328.091 79.1599 324.291 79.9634 320.417 80.431C315.943 80.971 311.457 81.2686 306.949 81.1248C304.482 81.0461 302.044 80.7266 299.661 80.0521C297.977 79.5758 296.402 78.8832 295.029 77.7753C294.895 77.6672 294.78 77.4959 294.564 77.5421C293.664 80.9813 292.848 81.6665 289.028 82.1254C289.681 83.2006 290.473 84.1851 290.476 85.5053C290.479 86.8249 289.83 87.8721 289.024 88.9552C290.681 89.1425 292.145 89.6685 293.72 89.907C293.709 89.5939 293.468 89.5581 293.329 89.4408C293.097 89.2454 292.837 89.0789 292.625 88.8641C291.816 88.042 291.869 87.1838 292.764 86.4399C293.262 86.0263 293.847 85.7677 294.446 85.5429C295.876 85.0066 297.362 84.6818 298.867 84.4687C303.327 83.8371 307.808 83.4509 312.318 83.5381C313.747 83.5657 315.172 83.6851 316.561 84.0625C317.297 84.2626 318.007 84.5273 318.649 84.95C320.357 86.074 320.672 87.7712 319.473 89.4168C318.794 90.3494 317.882 90.999 316.865 91.5074C315.936 91.9717 314.957 92.2975 313.935 92.4889C313.559 92.5596 313.344 92.655 313.495 93.1425C313.737 93.9254 313.479 94.7106 313.323 95.4809C312.815 97.9935 311.957 100.401 310.984 102.761C309.345 106.739 308.629 110.921 308.113 115.153C307.32 121.647 307.075 128.181 306.717 134.706C306.611 136.633 306.944 138.526 307.073 140.434C307.184 142.074 307.238 143.713 307.261 145.355C307.276 146.417 307.397 147.467 307.681 148.697C307.858 147.702 307.877 146.891 307.93 146.082C308.057 144.137 308.332 142.214 308.83 140.327C308.9 140.063 308.977 139.8 309.053 139.538C310.062 136.052 312.425 134.184 315.974 133.688C318.431 133.344 320.893 133.393 323.349 133.559C329.642 133.982 335.842 135.012 341.945 136.604C345.511 137.535 348.979 138.742 352.263 140.437C353.454 141.051 354.611 141.72 355.667 142.55C356.436 143.155 357.138 143.828 357.681 144.647C358.75 146.26 358.822 147.938 357.963 149.662C357.478 150.635 356.747 151.403 355.899 152.062C353.859 153.649 351.53 154.413 348.96 154.471C346.826 154.519 344.711 154.276 342.596 154.033C338.246 153.534 333.954 152.659 329.623 152.034C325.434 151.428 321.233 151.028 316.993 151.188C314.796 151.272 312.635 151.555 310.527 152.203C310.035 152.354 309.532 152.509 309.023 152.562C308.553 152.611 308.419 152.852 308.366 153.254C308.299 153.766 308.217 154.277 308.114 154.782C308.06 155.048 307.989 155.325 307.855 155.555C307.553 156.075 306.973 156.047 306.722 155.498C306.531 155.081 306.508 154.617 306.465 154.162C306.26 152.008 306.321 149.847 306.298 147.689C306.288 146.781 306.244 145.878 305.909 144.993C305.909 145.376 305.915 145.758 305.908 146.141C305.846 149.424 305.783 152.707 305.72 155.99C305.715 156.233 305.719 156.477 305.616 156.707C305.521 156.92 305.372 157.056 305.128 157.044C304.888 157.032 304.708 156.895 304.667 156.673C304.618 156.408 304.619 156.13 304.631 155.859C304.655 155.339 304.641 154.831 304.485 154.326C304.063 152.962 303.12 152.204 301.688 152.112C300.397 152.029 299.145 152.297 297.901 152.581C294.315 153.396 290.78 154.412 287.218 155.318C286.069 155.61 284.917 155.89 283.741 156.052C283.441 156.093 283.136 156.11 282.833 156.11C282.481 156.109 282.152 156.006 282.028 155.637C281.902 155.265 282.107 154.994 282.388 154.776C282.751 154.494 283.161 154.296 283.576 154.104C285.407 153.257 287.345 152.741 289.306 152.311C291.383 151.855 293.472 151.457 295.551 151.009C296.562 150.792 297.549 150.483 298.502 150.075C300.664 149.152 302.064 147.564 302.577 145.263C303.093 142.948 303.463 140.603 303.713 138.247C303.951 136.006 303.132 135.096 300.898 134.928C299.525 134.825 298.163 134.98 296.808 135.166C291.987 135.829 287.206 136.7 282.533 138.086C278.963 139.145 275.558 140.592 272.386 142.56C271.324 143.219 270.325 143.958 269.405 144.807C267.729 146.353 266.953 148.312 266.719 150.534C266.671 150.982 266.74 151.252 267.256 151.389C268.616 151.75 269.837 152.452 271.072 153.106C274.002 154.657 276.982 156.096 280.11 157.214C284.163 158.663 288.354 159.524 292.601 160.147C299.664 161.183 306.769 161.448 313.889 161.193C326.934 160.725 339.696 158.618 352.083 154.417C353.521 153.929 354.962 153.443 356.456 153.144C358.768 152.68 359.839 153.465 360.114 155.817C360.345 157.793 360.221 159.768 360.071 161.738C359.615 167.724 358.575 173.611 357.025 179.41C355.704 184.352 353.762 189.004 350.833 193.233C347.945 197.401 344.359 200.79 339.988 203.356C333.431 207.206 326.379 209.627 318.861 210.716C313.659 211.469 308.442 211.567 303.217 211.03C300.186 210.719 297.207 210.142 294.34 209.068C289.022 207.078 284.746 203.762 281.562 199.053C278.961 195.207 276.943 191.058 275.216 186.761C271.607 177.779 268.632 168.598 266.612 159.121C266.335 157.82 266.119 156.505 265.836 155.2C265.79 156.5 265.982 157.786 266.068 159.078C266.16 160.443 266.277 161.807 266.194 163.176C266.153 163.858 266.064 164.561 265.331 164.855C264.634 165.134 264.104 164.697 263.616 164.272C262.767 163.533 261.928 162.786 260.911 162.271C259.36 161.485 258.674 161.813 258.375 163.519C258.148 164.812 258.448 165.993 259.181 167.071C259.901 168.131 260.702 169.132 261.637 170.003C264.984 173.119 267.678 176.737 269.983 180.667C270.983 182.371 272.043 184.04 272.976 185.782C273.392 186.56 273.786 187.347 274.042 188.196C274.14 188.52 274.207 188.845 274.203 189.182C274.192 190.019 273.747 190.485 272.914 190.509C272.487 190.52 272.07 190.438 271.661 190.304C270.936 190.065 270.235 189.77 269.573 189.398C263.322 185.885 257.672 181.613 252.997 176.136C250.872 173.647 249.108 170.923 247.992 167.82C247.29 165.866 246.982 163.878 247.512 161.825C248.296 158.789 250.673 156.918 253.798 156.845C255.556 156.803 257.234 157.228 258.913 157.655C259.855 157.894 260.791 158.16 261.732 158.403C262.295 158.548 262.869 158.63 263.448 158.521C264.055 158.408 264.268 158.1 264.179 157.483C264.09 156.863 263.782 156.335 263.416 155.847C261.877 153.8 259.852 152.589 257.288 152.3C255.951 152.149 254.622 152.162 253.285 152.304C248.791 152.783 244.703 156.08 243.432 160.295C242.717 162.666 242.882 165.045 243.453 167.414C244.553 171.975 246.666 176.048 249.429 179.814C252.51 184.015 256.277 187.54 260.231 190.887C263.487 193.643 266.928 196.143 270.618 198.286C274.566 200.578 278.252 203.271 282.098 205.72C284.149 207.026 286.197 208.337 288.32 209.527C292.65 211.954 297.316 213.315 302.211 213.98C305.927 214.485 309.661 214.694 313.402 214.492C320.078 214.133 326.625 213.018 332.971 210.865C336.924 209.524 340.375 207.369 343.315 204.397C344.984 202.709 346.595 200.97 348.135 199.166C348.807 198.379 349.493 197.606 350.258 196.907C351.485 195.786 352.9 195.362 354.55 195.667C355.664 195.872 356.735 196.207 357.771 196.643C374.543 203.712 391.897 209.1 409.251 214.485C412.559 215.512 415.886 216.476 419.158 217.615C420.393 218.045 421.612 218.517 422.777 219.114C423.564 219.517 424.317 219.974 424.942 220.613C425.968 221.663 426.13 222.678 425.486 224.014C425.437 224.116 425.344 224.207 425.403 224.381C425.714 224.399 425.948 224.183 426.208 224.058C427.934 223.227 429.655 222.389 431.543 221.971C433.694 221.495 435.776 221.686 437.774 222.616C439.729 223.526 441.411 224.814 442.852 226.415C443.136 226.73 443.394 227.073 443.626 227.428C444.704 229.076 444.689 230.655 443.59 232.281C443.076 233.043 442.434 233.69 441.738 234.285C440.112 235.674 438.304 236.795 436.44 237.827C432.525 239.996 428.419 241.757 424.276 243.434C416.179 246.711 407.906 249.438 399.356 251.279C394.239 252.38 389.073 253.143 383.859 253.601C378.551 254.067 373.235 254.222 367.912 254.082C362.378 253.938 356.865 253.484 351.378 252.734C337.095 250.783 323.186 247.208 309.409 243.063C294.586 238.604 280.072 233.275 265.686 227.584C254.436 223.133 243.303 218.413 232.519 212.907C229.135 211.179 225.78 209.397 222.527 207.429C221.669 206.909 220.82 206.374 220.02 205.766C219.705 205.527 219.39 205.283 219.159 204.957C218.686 204.293 218.957 203.688 219.776 203.61C220.073 203.582 220.383 203.629 220.68 203.68C222.847 204.055 224.913 204.782 226.968 205.529C234.595 208.3 242.102 211.377 249.62 214.428C261.839 219.387 274.021 224.44 286.33 229.175C301.227 234.907 316.326 240.029 331.752 244.158C340.978 246.628 350.312 248.574 359.764 249.953C363.736 250.533 367.713 251.049 371.722 251.289C373.087 251.37 374.455 251.43 375.817 251.213C376.142 251.161 376.473 251.134 376.775 250.862C376.585 250.427 376.172 250.279 375.811 250.094C374.59 249.468 373.29 249.038 371.984 248.632C367.338 247.186 362.607 246.055 357.856 245.032C334.347 239.968 311.392 233.032 288.81 224.804C273.904 219.372 259.112 213.654 244.526 207.41C241.285 206.022 238.081 204.549 234.997 202.832C233.641 202.077 232.321 201.264 231.113 200.284C230.545 199.823 229.998 199.339 229.594 198.719C228.859 197.587 229.048 196.58 230.155 195.796C230.807 195.335 231.545 195.051 232.301 194.81C234.219 194.2 236.199 193.876 238.174 193.533C241.23 193.002 244.282 192.462 247.187 191.321C248.292 190.886 249.374 190.403 250.374 189.756C250.756 189.51 251.135 189.249 251.474 188.948C252.168 188.334 252.25 187.945 251.92 187.09C251.733 186.608 251.498 186.15 251.223 185.709C250.855 185.119 250.359 184.911 249.674 185.042C248.063 185.351 246.45 185.652 244.831 185.923C241.414 186.494 237.972 186.899 234.535 187.334C229.59 187.96 224.641 188.576 219.855 190.056C215.8 191.309 211.94 192.997 208.382 195.334C207.234 196.087 206.165 196.938 205.229 197.947C202.869 200.491 202.38 203.563 203.834 206.718C204.519 208.204 205.529 209.452 206.704 210.573C208.408 212.2 210.345 213.51 212.374 214.69C216.511 217.096 220.898 218.971 225.337 220.727C234.322 224.282 243.422 227.535 252.458 230.956C263.966 235.312 275.543 239.491 286.966 244.071C291.733 245.982 296.45 248.015 301.077 250.248C302.09 250.736 303.095 251.242 304.048 251.842C304.409 252.069 304.77 252.3 305.047 252.63C305.57 253.254 305.411 253.847 304.652 254.125C304.275 254.263 303.88 254.284 303.483 254.282C301.433 254.272 299.432 253.888 297.442 253.456C291.103 252.077 284.968 250.018 278.874 247.834C268.2 244.007 257.74 239.64 247.304 235.218C237.175 230.928 227.073 226.574 216.942 222.288C212.605 220.453 208.228 218.708 203.707 217.363C201.578 216.729 199.428 216.182 197.191 216.101C196.246 216.067 195.304 216.1 194.391 216.379C192.923 216.827 192.305 217.721 192.458 219.25C192.604 220.707 193.2 221.998 194.038 223.182C194.89 224.385 195.954 225.38 197.119 226.27C199.674 228.222 202.515 229.671 205.445 230.95C210.547 233.177 215.807 234.986 221.073 236.771C231.69 240.37 242.326 243.915 252.937 247.534C261.191 250.349 269.373 253.365 277.45 256.66C278.434 257.062 279.398 257.514 280.366 257.955C280.669 258.093 280.961 258.26 281.244 258.437C281.563 258.636 281.868 258.881 281.711 259.316C281.557 259.74 281.161 259.779 280.793 259.73C279.92 259.614 279.049 259.48 278.183 259.317C274.026 258.532 269.969 257.362 265.926 256.138C258.976 254.034 251.973 252.11 245.08 249.82C238.07 247.492 231.197 244.791 224.283 242.201C222.462 241.519 220.641 240.836 218.817 240.163C218.542 240.061 218.28 239.884 217.888 239.928C218.152 240.213 218.467 240.292 218.744 240.422C220.454 241.224 222.095 242.147 223.654 243.212C224.384 243.71 225.088 244.245 225.653 244.932C226.54 246.009 226.478 247.038 225.471 247.995C224.823 248.611 224.047 249.028 223.238 249.388C221.246 250.273 219.14 250.722 216.994 251.007C212.767 251.568 208.511 251.685 204.255 251.748C193.581 251.905 182.91 251.722 172.241 251.406C161.695 251.094 151.149 250.779 140.604 250.462C129.511 250.129 118.418 249.8 107.322 249.558C92.4564 249.234 77.5883 249.075 62.7201 248.929C48.7637 248.793 34.8076 248.635 20.8502 248.716C14.5256 248.752 8.20095 248.795 1.87636 248.833C1.54065 248.835 1.20485 248.824 0.869141 248.819C0.869141 248.515 0.869141 248.211 0.869141 247.907C2.26599 247.872 3.66265 247.816 5.05968 247.805C20.4157 247.684 35.7719 247.654 51.1279 247.801C62.3783 247.909 73.6289 248.01 84.8788 248.166C94.4257 248.299 103.973 248.464 113.518 248.691C123.549 248.929 133.578 249.254 143.607 249.549C153.789 249.847 163.97 250.175 174.152 250.454C183.849 250.719 193.547 250.923 203.248 250.771C207.078 250.711 210.91 250.623 214.727 250.261C216.999 250.045 219.255 249.728 221.433 249.002C222.213 248.743 222.977 248.443 223.69 248.031C224.031 247.834 224.367 247.616 224.664 247.361C225.422 246.709 225.449 246.256 224.813 245.506C224.457 245.086 224.034 244.738 223.593 244.412C222.834 243.85 222.043 243.338 221.224 242.871C217.531 240.768 213.6 239.251 209.496 238.175C208.701 237.966 207.889 237.845 207.061 237.865C205.537 237.902 204.476 238.65 203.894 240.054C203.758 240.382 203.808 240.612 203.995 240.891C205.86 243.675 207.784 246.408 210.433 248.532C210.677 248.727 210.907 248.939 210.802 249.295C210.702 249.635 210.414 249.758 210.105 249.803C208.536 250.031 206.962 250.165 205.386 249.889C204.799 249.786 204.329 249.447 203.939 248.995C203.431 248.408 203.091 247.724 202.895 246.988C202.413 245.185 202.123 243.351 202.461 241.489C202.577 240.849 202.406 240.404 201.999 239.929C199.827 237.4 197.45 235.111 194.563 233.397C194.015 233.072 193.483 232.716 192.956 232.356C192.707 232.185 192.474 231.985 192.259 231.771C191.991 231.505 191.791 231.188 191.965 230.792C192.14 230.394 192.508 230.348 192.888 230.35C193.474 230.352 194.032 230.505 194.58 230.688C197.807 231.767 201.029 232.861 204.256 233.94C212.702 236.764 221.059 239.833 229.362 243.047C239.684 247.044 250.164 250.556 260.814 253.571C265.374 254.861 269.875 256.356 274.484 257.477C275.748 257.785 277.012 258.094 278.39 258.299C278.078 257.932 277.71 257.866 277.386 257.733C269.88 254.648 262.261 251.861 254.604 249.177C243.134 245.156 231.553 241.464 220.064 237.499C214.721 235.656 209.37 233.832 204.21 231.506C201.712 230.379 199.295 229.102 197.066 227.494C195.878 226.638 194.77 225.69 193.829 224.562C192.558 223.038 191.663 221.338 191.458 219.327C191.264 217.416 192.11 216.073 193.925 215.469C195.307 215.009 196.735 214.99 198.167 215.145C201.24 215.477 204.174 216.376 207.076 217.385C213.338 219.563 219.419 222.194 225.508 224.804C239.055 230.609 252.572 236.484 266.261 241.95C274.164 245.107 282.123 248.108 290.283 250.547C293.866 251.618 297.475 252.586 301.189 253.101C302.09 253.227 302.994 253.31 303.896 253.233C303.987 252.886 303.715 252.836 303.562 252.737C302.537 252.078 301.446 251.539 300.349 251.016C293.43 247.719 286.35 244.802 279.183 242.1C263.602 236.227 248.005 230.398 232.416 224.546C226.754 222.421 221.102 220.268 215.665 217.598C213.042 216.31 210.499 214.883 208.157 213.122C206.544 211.909 205.072 210.554 203.918 208.883C202.844 207.328 202.162 205.63 202.047 203.722C201.925 201.697 202.45 199.873 203.669 198.248C204.759 196.795 206.12 195.636 207.619 194.631C211.233 192.208 215.173 190.474 219.306 189.164C222.677 188.097 226.144 187.467 229.638 186.969C234.602 186.261 239.594 185.757 244.545 184.956C246.014 184.718 247.475 184.425 248.938 184.15C250.919 183.779 251.611 184.121 252.511 185.932C253.543 188.01 253.298 189.004 251.358 190.321C249.167 191.808 246.706 192.679 244.167 193.348C241.4 194.078 238.563 194.449 235.761 194.997C234.567 195.231 233.381 195.494 232.232 195.903C231.744 196.076 231.265 196.269 230.834 196.561C230.067 197.08 229.986 197.558 230.548 198.312C230.932 198.828 231.416 199.246 231.921 199.64C232.93 200.427 234.009 201.11 235.12 201.74C238.298 203.542 241.614 205.061 244.966 206.499C258.654 212.37 272.524 217.782 286.513 222.889C299.502 227.631 312.591 232.072 325.874 235.932C335.769 238.807 345.774 241.244 355.82 243.527C361.182 244.745 366.553 245.93 371.822 247.524C373.219 247.946 374.604 248.404 375.929 249.022C376.48 249.279 377.028 249.552 377.464 249.991C378.155 250.688 378.024 251.477 377.133 251.896C376.548 252.171 375.913 252.258 375.272 252.294C372.865 252.428 370.469 252.261 368.079 252.014C349.766 250.123 332.008 245.727 314.502 240.172C300.155 235.619 286.088 230.308 272.14 224.669C260.42 219.931 248.712 215.166 236.985 210.445C232.617 208.687 228.241 206.94 223.75 205.508C222.712 205.178 221.672 204.853 220.564 204.69C220.559 205.031 220.826 205.1 221.001 205.226C222.211 206.097 223.495 206.853 224.789 207.592C232.743 212.135 240.985 216.103 249.392 219.722C269.949 228.571 290.852 236.493 312.317 242.879C322.108 245.791 331.998 248.314 342.04 250.21C348.196 251.372 354.395 252.222 360.647 252.694C366.659 253.148 372.673 253.244 378.694 252.959C391.138 252.368 403.221 249.929 414.978 245.838C421.412 243.599 427.743 241.107 433.843 238.059C435.83 237.067 437.765 235.98 439.576 234.688C440.618 233.945 441.625 233.159 442.431 232.15C443.717 230.541 443.789 229.2 442.505 227.612C440.585 225.237 438.224 223.481 435.158 222.853C433.495 222.513 431.891 222.824 430.321 223.367C428.766 223.905 427.296 224.638 425.836 225.388C420.937 227.903 416.232 230.755 411.536 233.623C406.003 237.002 400.321 240.093 394.292 242.507C391.581 243.593 388.838 244.581 385.944 245.074C385.521 245.146 385.096 245.204 384.675 245.113C383.971 244.962 383.761 244.397 384.177 243.81C384.41 243.482 384.738 243.255 385.063 243.031C385.991 242.391 386.981 241.855 387.983 241.343C392.562 239.003 397.331 237.094 402.079 235.137C406.912 233.146 411.757 231.183 416.47 228.915C418.443 227.966 420.391 226.969 422.215 225.749C422.975 225.24 423.705 224.691 424.285 223.974C425.131 222.929 425.075 222.093 424.085 221.184C423.314 220.476 422.384 220.018 421.438 219.597C419.295 218.644 417.059 217.949 414.824 217.26C404.633 214.116 394.433 211.003 384.323 207.605C375.536 204.653 366.803 201.555 358.266 197.929C357.147 197.453 356.011 197.025 354.822 196.746C353.251 196.376 351.864 196.651 350.726 197.854C350.162 198.45 349.588 199.039 349.053 199.66C347.783 201.135 346.45 202.553 345.139 203.991C341.305 208.195 336.62 210.981 331.164 212.53C326.326 213.903 321.406 214.811 316.402 215.296C311.073 215.812 305.776 215.577 300.497 214.735C295.516 213.941 290.853 212.275 286.53 209.669C284.056 208.177 281.588 206.675 279.208 205.039C275.775 202.677 272.23 200.495 268.699 198.286C261.641 193.871 255.318 188.574 249.982 182.16C246.783 178.313 244.326 174.035 242.884 169.213C242.217 166.984 241.825 164.723 242.022 162.38C242.247 159.701 243.283 157.377 245.109 155.433C247.473 152.916 250.387 151.473 253.855 151.234C255.161 151.145 256.464 151.171 257.768 151.352C260.342 151.71 262.381 152.967 264.007 154.952C264.196 155.182 264.373 155.422 264.56 155.663C264.84 155.501 264.707 155.269 264.709 155.08C264.716 154.442 264.687 153.803 264.705 153.166C264.72 152.608 264.835 152.047 265.27 151.671C265.611 151.376 265.699 151.036 265.722 150.631C265.908 147.372 267.427 144.866 270.029 142.955C273.197 140.628 276.708 138.987 280.404 137.71C284.352 136.346 288.431 135.522 292.533 134.798C294.509 134.449 296.493 134.16 298.491 133.962C299.281 133.883 300.071 133.844 300.859 133.9C302.749 134.036 304.304 134.666 304.763 136.814C305.713 135.01 305.708 135.01 305.774 133.299C305.799 132.63 305.848 131.963 305.896 131.296C305.917 130.995 305.876 130.791 305.508 130.716C305.053 130.623 304.833 130.229 304.635 129.845C304.229 129.057 303.974 128.213 303.739 127.363C302.547 123.057 301.62 118.686 300.636 114.33C299.202 107.989 297.917 101.613 296.131 95.3548C295.998 94.8888 295.931 94.4038 295.832 93.9281C295.639 93.0092 295.629 92.1183 296.335 91.2485C295.38 91.1314 294.522 91.0328 293.667 90.9201C292.549 90.773 291.461 90.4816 290.374 90.1995C288.928 89.8244 287.686 90.0571 286.627 91.1802C286.108 91.7303 285.491 92.1882 284.914 92.6833C284.776 92.8018 284.63 92.9132 284.476 93.0096C284.25 93.1509 284.009 93.1828 283.81 92.9712C283.582 92.7286 283.634 92.4619 283.834 92.2346C284.013 92.0301 284.218 91.8453 284.426 91.6685C285.282 90.9391 286.146 90.2186 287.003 89.4898C287.748 88.8564 288.42 88.1575 288.928 87.3133C289.618 86.1687 289.664 85.0264 288.945 83.8735C288.558 83.2523 288.112 82.6771 287.636 82.1222C287.451 81.9059 287.227 81.7774 286.949 81.7071C283.934 80.9431 281.046 79.8324 278.237 78.5041C277.881 78.3356 277.512 78.1832 277.135 78.0742C276.689 77.9456 276.577 78.0657 276.677 78.5142C276.866 79.3625 277.276 80.1115 277.812 80.7787C278.535 81.679 279.307 82.5394 280.051 83.4232C280.52 83.9812 281.014 84.5247 281.432 85.1198C283.24 87.692 283.548 90.4239 282.247 93.3145C281.502 94.9713 280.429 96.4008 279.208 97.7264C277.368 99.7243 275.284 101.451 273.144 103.11C270.67 105.029 268.185 106.936 265.689 108.827C264.695 109.58 263.646 110.256 262.509 110.782C260.016 111.937 258.211 111.553 256.417 109.451C255.329 108.176 254.42 106.771 253.567 105.331C252.932 104.258 252.31 103.178 251.668 102.11C250.835 100.725 249.886 99.427 248.77 98.2529C248.102 97.5501 247.445 96.8347 247.122 95.9168C246.874 95.9175 246.73 96.0422 246.578 96.1372C237.916 101.55 229.244 106.95 220.842 112.764C215.85 116.218 211.201 120.075 207.159 124.628C206.959 124.854 206.768 125.089 206.6 125.287C206.589 125.486 206.706 125.54 206.798 125.607C210.692 128.451 212.75 132.346 213.247 137.08C213.465 139.154 213.223 139.971 212.159 142.598C213.068 143.04 213.908 143.341 214.985 142.88C218.213 141.496 221.236 139.758 224.156 137.827C229.356 134.385 234.342 130.643 239.348 126.93C244.379 123.199 249.534 119.641 254.577 115.926C254.819 115.748 255.079 115.565 255.359 115.47C255.922 115.278 256.334 115.657 256.221 116.242C256.145 116.633 255.949 116.982 255.753 117.326C255.073 118.519 254.258 119.619 253.375 120.665C248.648 126.266 243.282 131.197 237.511 135.695C234.629 137.941 231.609 139.984 228.351 141.656C225.548 143.094 222.629 144.181 219.471 144.542C217.857 144.726 216.252 144.684 214.658 144.396C214.248 144.322 213.879 144.34 213.502 144.483C211.532 145.229 209.431 145.472 207.417 146.049C207.244 146.098 207.057 146.109 206.875 146.12C204.759 146.252 202.776 145.714 200.879 144.848C199.913 144.407 199.207 143.642 198.752 142.672C198.582 142.311 198.363 141.99 198.117 141.678C194.505 137.102 193.664 132.066 195.689 126.592C197.163 122.607 199.648 119.293 202.666 116.351C205.914 113.185 209.636 110.676 213.584 108.481C218.112 105.965 222.874 103.967 227.708 102.132C234.3 99.6287 240.862 97.0535 247.186 93.9136C250.073 92.4802 252.904 90.9424 255.668 89.2867C259.371 87.0688 263.057 84.8238 266.869 82.7928C268.398 81.9778 269.851 81.0375 271.279 80.0492C273.387 78.5898 273.995 76.6641 273.346 74.2415C273.102 73.3292 272.81 72.4372 272.472 71.557C272.266 71.0184 271.982 70.4858 271.905 69.9267C271.797 69.151 271.404 68.5995 270.908 68.047C270.319 67.3924 269.792 66.6824 269.247 65.9889C268.101 64.5294 266.919 63.1033 265.633 61.7616C265.146 61.2539 264.378 60.747 264.734 59.9229C265.105 59.065 266.022 59.2654 266.757 59.2759C268.765 59.3044 270.762 59.5169 272.759 59.7096C276.813 60.1011 280.864 60.5258 284.92 60.8944C289.582 61.3179 294.246 61.728 298.913 62.0826C302.399 62.3474 305.89 62.5445 309.382 62.7164C312.115 62.851 314.851 62.9229 317.587 62.9833C322.423 63.0901 327.257 63.0066 332.073 62.5082C334.8 62.2259 337.488 61.7296 340.053 60.7111C341.675 60.0668 343.202 59.2497 344.473 58.0356C346.434 56.1629 347.636 53.9002 347.858 51.1648C347.958 49.9212 348.153 48.692 348.356 47.4618C348.701 45.3639 348.153 43.5466 346.556 42.0947C345.6 41.2261 344.486 40.6071 343.315 40.0834C340.745 38.9344 338.03 38.2767 335.286 37.7231C330.574 36.7723 325.814 36.1529 321.032 35.6898C315.314 35.1362 309.593 34.6104 303.877 34.0409C296.859 33.3417 289.869 32.4259 282.917 31.2236C280.042 30.7263 277.152 30.3134 274.236 30.1327C272.534 30.0273 270.831 29.9944 269.154 30.3911C267.016 30.8966 265.937 32.0806 265.599 34.2563C265.354 35.8311 265.398 37.4104 265.525 38.9878C265.956 44.3242 266.25 49.6655 266.175 55.0218C266.164 55.7502 266.192 56.4821 266.042 57.2031C265.953 57.6304 265.862 58.0699 265.339 58.1515C264.831 58.2309 264.563 57.8622 264.342 57.4937C264.124 57.13 263.938 56.7442 263.767 56.3556C262.548 53.5958 261.976 50.6849 261.791 47.6908C261.569 44.1058 261.546 40.5182 261.796 36.9339C261.919 35.1764 262.069 33.4201 262.478 31.6961C263.008 29.4635 264.379 28.0185 266.517 27.2524C268.323 26.6055 270.206 26.511 272.092 26.4801C274.83 26.4353 277.562 26.6221 280.29 26.8424C283.804 27.1262 287.316 27.4453 290.819 27.8545C295.347 28.3835 299.875 28.9075 304.401 29.4552C309.591 30.0833 314.76 30.862 319.924 31.6709C325.539 32.5504 331.12 33.6144 336.697 34.707C340.573 35.4664 344.441 36.283 348.373 36.7166C349.823 36.8766 351.28 36.9725 352.742 36.9053C353.121 36.8879 353.424 36.7924 353.693 36.4764C356.528 33.1401 359.38 29.8183 362.226 26.4904C362.439 26.2412 362.635 25.9772 362.907 25.6333C361.828 25.2582 360.807 25.2106 359.796 25.1654C357.544 25.0647 355.298 25.252 353.053 25.3987C348.989 25.6645 344.927 25.986 340.861 26.229C335.003 26.579 329.139 26.8034 323.269 26.8526C316.852 26.9063 310.438 26.8049 304.025 26.5865C296.822 26.3413 289.629 25.9252 282.452 25.2749C275.122 24.6109 267.848 23.5354 260.596 22.2915C258.44 21.9216 256.279 21.5728 254.098 21.3718C253.313 21.2993 252.526 21.2893 251.754 21.3247C251.607 21.6595 251.877 21.7316 252.017 21.8543C252.476 22.2546 252.939 22.6482 253.273 23.1683C254.227 24.6575 253.778 26.1349 252.15 26.8203C251.297 27.1794 250.392 27.3128 249.475 27.3036C244.705 27.2558 240.407 25.759 236.528 23.0229C235.504 22.3006 234.644 21.3952 233.881 20.3983C232.286 18.3121 231.468 15.9228 231.122 13.3496C230.886 11.599 230.782 9.83782 230.794 8.07342C230.811 5.79314 230.866 3.51314 230.916 1.23323C230.935 0.413837 231.163 -0.0166572 231.578 0.000493222C232.19 0.025854 232.326 0.551588 232.486 1.00507C232.872 2.09777 233.026 3.24822 233.299 4.36938C234.11 7.70596 235.461 10.8155 237.287 13.7174C237.906 14.6995 238.651 15.5872 239.576 16.3001C240.848 17.2799 241.66 17.0104 242.115 15.456C242.365 14.6024 242.388 13.7155 242.378 12.8338C242.339 9.45905 242.285 6.08443 242.238 2.70971C242.231 2.25377 242.22 1.79727 242.235 1.34188C242.25 0.874435 242.314 0.407177 242.848 0.231932C243.23 0.106679 243.59 0.39103 243.898 1.05214C244.221 1.7429 244.439 2.47116 244.621 3.20963C245.212 5.6033 245.568 8.03857 245.908 10.4769C246.236 12.8258 246.605 15.1675 247.369 17.4246C247.623 18.1735 247.886 18.9222 248.333 19.5825C248.848 20.3421 249.226 20.422 250.012 19.9867C253.253 18.1917 256.738 17.2266 260.419 16.9021C264.014 16.5851 267.589 16.9098 271.164 17.1955C275.164 17.5151 279.157 17.9185 283.159 18.2038C290.588 18.7333 298.023 19.1828 305.453 19.706C310.426 20.0561 315.391 20.5274 320.373 20.7422C323.076 20.8588 325.784 20.9281 328.479 20.5711C330.544 20.2976 332.531 19.7705 334.364 18.7466C335.38 18.1789 336.292 17.4795 337.085 16.6238C338.583 15.0075 339.033 13.0187 339.099 10.9061C339.166 8.71793 339.175 6.52778 339.326 4.34284C339.37 3.70663 339.431 3.06933 339.531 2.43978C339.643 1.73022 339.932 1.37143 340.326 1.34799C340.745 1.32299 341.01 1.59931 341.188 2.36023C341.584 4.04836 341.796 5.76942 342.057 7.48109C342.393 9.67425 342.745 11.8616 343.342 14.0053C344.725 18.9781 348.068 21.7048 353.067 22.5416C354.935 22.8544 356.822 22.9036 358.705 22.7364C361.399 22.4973 363.737 21.3906 365.788 19.6663C367.379 18.3292 368.839 16.8777 369.704 14.9287C369.975 14.3191 370.358 13.7623 370.787 13.245C371.016 12.969 371.303 12.7692 371.658 12.9645C372.03 13.169 371.957 13.5122 371.834 13.8477C371.633 14.3962 371.312 14.8766 370.99 15.3552C370.717 15.7599 370.46 16.1682 370.32 16.6433C370.1 17.3971 370.216 17.7577 370.898 18.1706C371.798 18.7156 372.808 18.9483 373.832 19.1096C375.306 19.3416 376.792 19.4395 378.283 19.4625C383.245 19.539 388.191 19.2368 393.129 18.8029C397.429 18.4252 401.727 18.0318 406.025 17.63C410.867 17.1774 415.707 16.6955 420.55 16.2483C427.148 15.639 433.731 14.8653 440.344 14.4192C441.8 14.3209 443.26 14.2803 444.72 14.348C445.022 14.362 445.328 14.3948 445.621 14.4661C445.929 14.5411 446.189 14.7156 446.205 15.0773C446.219 15.3891 446.026 15.5953 445.763 15.7104C445.459 15.844 445.142 15.9582 444.821 16.0426C442.937 16.5383 441.013 16.8245 439.091 17.123C432.814 18.0983 426.511 18.8899 420.201 19.6137C415.278 20.1783 410.345 20.6368 405.401 20.9851C397.907 21.513 390.406 21.8374 382.893 21.8826C380.218 21.8988 377.541 21.918 374.872 21.6754C373.811 21.5789 372.761 21.4289 371.724 21.177C370.47 20.8724 369.384 20.3316 368.751 19.1493C368.437 19.156 368.405 19.4078 368.307 19.5722C367.276 21.2953 366.186 22.9789 364.992 24.5937C364.644 25.0644 364.531 25.0951 365.076 25.5248C366.006 26.2595 366.279 27.2261 366 28.3763C365.635 29.8852 364.928 31.2272 363.942 32.4008C361.483 35.3243 358.394 37.1816 354.582 37.7491C354.142 37.8146 353.798 37.9408 353.51 38.3242C351.72 40.7112 350.368 43.3011 349.664 46.2184C349.461 47.0592 349.525 47.9112 349.421 48.755C349.287 49.8424 349.131 50.923 348.887 51.9908C348.751 52.5854 348.679 53.1881 348.655 53.7973C348.521 57.2912 348.387 60.7853 348.25 64.2792C348.049 69.4441 347.824 74.6081 347.65 79.7738C347.529 83.3899 347.443 87.0078 347.399 90.6257C347.31 97.9838 347.417 105.344 347.267 112.701C347.2 115.985 347.116 119.268 347.178 122.552C347.209 124.255 347.303 125.954 347.655 127.628C348.067 129.591 349.016 131.253 350.417 132.675C351.251 133.522 352.182 134.257 353.088 135.022C355.069 136.691 356.952 138.454 358.466 140.577C360.807 143.86 362.146 147.544 362.853 151.482C364.035 158.058 364.568 164.685 364.275 171.363C364.147 174.277 363.876 177.186 363.685 180.098C363.536 182.374 363.441 184.652 363.753 186.926C364.077 189.283 365.114 191.249 366.922 192.807C368.645 194.292 370.615 195.367 372.68 196.278C376.082 197.78 379.64 198.829 383.213 199.817C392.911 202.499 402.444 205.706 412.022 208.771C418.679 210.902 425.358 212.956 432.199 214.433C438.555 215.805 444.942 217.025 451.344 218.168C452.929 218.451 454.516 218.726 456.102 219.003C456.398 219.055 456.693 219.135 456.999 219.079C456.997 219.444 456.997 219.809 456.997 220.174ZM266.75 152.35C266.655 152.858 266.717 153.283 266.761 153.702C266.936 155.335 267.186 156.957 267.525 158.564C269.657 168.644 272.84 178.395 276.785 187.901C278.396 191.783 280.309 195.513 282.735 198.962C285.482 202.866 289.065 205.731 293.444 207.621C296.862 209.096 300.463 209.787 304.143 210.108C308.822 210.516 313.496 210.43 318.156 209.796C325.624 208.782 332.634 206.431 339.171 202.668C343.708 200.055 347.384 196.554 350.305 192.212C353.039 188.15 354.839 183.698 356.09 178.997C357.698 172.959 358.74 166.825 359.141 160.589C359.252 158.862 359.357 157.123 359.013 155.405C358.771 154.201 358.304 153.891 357.078 154.067C355.716 154.262 354.416 154.695 353.125 155.141C341.232 159.248 328.969 161.429 316.431 162.096C308.309 162.529 300.207 162.256 292.137 161.105C284.874 160.068 277.968 157.987 271.508 154.477C270.387 153.868 269.234 153.318 268.085 152.763C267.681 152.568 267.269 152.361 266.75 152.35ZM321.316 134.456C320.374 134.456 319.431 134.424 318.49 134.464C317.092 134.522 315.71 134.693 314.361 135.109C312.528 135.676 311.261 136.84 310.499 138.586C309.961 139.819 309.645 141.114 309.392 142.429C308.885 145.066 308.855 147.746 308.674 150.411C308.595 151.561 308.303 151.813 309.829 151.353C311.729 150.78 313.657 150.415 315.635 150.259C320.118 149.905 324.557 150.335 328.99 150.928C333.326 151.508 337.613 152.4 341.954 152.94C344.519 153.259 347.086 153.588 349.676 153.402C352.397 153.207 354.748 152.16 356.511 150.036C357.961 148.289 357.886 146.383 356.418 144.652C355.663 143.762 354.746 143.064 353.762 142.449C351.874 141.27 349.871 140.319 347.788 139.546C339.249 136.376 330.36 135.011 321.316 134.456ZM309.923 80.1727C311.752 80.0656 313.667 80.0431 315.579 79.896C319.159 79.6205 322.719 79.2135 326.221 78.4002C329.848 77.5582 333.357 76.3903 336.62 74.5628C338.278 73.6342 339.77 72.4958 340.983 71.0173C341.507 70.3792 341.962 69.6989 342.247 68.9181C342.916 67.0918 342.085 65.5386 340.203 65.0786C339.335 64.8662 338.454 64.8713 337.573 64.9149C335.594 65.013 333.651 65.3848 331.707 65.7298C326.31 66.6874 320.87 67.2257 315.397 67.4479C306.049 67.8274 296.741 67.0927 287.428 66.4687C284.393 66.2654 281.353 66.164 278.314 66.3948C277.223 66.4778 276.138 66.6325 275.081 66.9326C274.466 67.1074 273.862 67.3209 273.349 67.7215C272.679 68.2452 272.676 68.5398 273.359 69.0333C274.758 70.0432 276.318 70.7048 277.988 71.1105C279.892 71.573 281.836 71.6459 283.784 71.6745C286.21 71.7102 288.553 72.1572 290.796 73.1065C291.848 73.5521 292.754 74.1768 293.528 75.0295C295.345 77.0291 297.51 78.4634 300.165 79.1536C303.345 79.9802 306.579 80.1705 309.923 80.1727ZM273.109 70.1016C273.122 70.5715 273.27 70.8354 273.379 71.1071C273.859 72.2932 274.258 73.5025 274.478 74.7668C274.876 77.0554 274.299 78.9859 272.4 80.4279C271.819 80.8689 271.236 81.3091 270.633 81.7183C269.425 82.5383 268.15 83.2488 266.87 83.9509C266.417 84.1994 265.942 84.4177 265.52 84.7112C263.171 86.3457 260.684 87.7547 258.202 89.1688C255.138 90.9143 252.074 92.658 249.104 94.5611C247.988 95.2756 247.917 95.679 248.758 96.7243C248.815 96.7953 248.871 96.8682 248.935 96.9327C251.084 99.088 252.642 101.66 254.127 104.285C254.891 105.636 255.737 106.935 256.676 108.171C257.081 108.705 257.513 109.213 258.035 109.641C258.957 110.398 259.988 110.572 261.118 110.238C261.822 110.029 262.472 109.698 263.103 109.33C264.024 108.793 264.899 108.187 265.743 107.538C268.369 105.518 270.998 103.5 273.605 101.454C275.137 100.253 276.607 98.9756 277.962 97.5744C279.215 96.2799 280.335 94.8902 281.152 93.2681C282.557 90.4802 282.272 87.8608 280.385 85.4106C279.755 84.5929 279.051 83.8321 278.374 83.0516C277.755 82.3395 277.129 81.6345 276.616 80.8397C276.152 80.1194 275.771 79.3569 275.64 78.5006C275.455 77.2861 276.032 76.759 277.214 77.045C277.868 77.2032 278.474 77.4895 279.078 77.7767C280.975 78.6786 282.929 79.4336 284.929 80.0723C285.202 80.1595 285.466 80.3409 285.847 80.2C285.372 79.6401 284.913 79.1222 284.48 78.5831C283.851 77.8002 283.227 77.0076 282.897 76.0417C282.524 74.9543 282.6 73.9467 283.495 73.1093C283.59 73.0201 283.77 72.9502 283.612 72.6748C279.985 72.6651 276.391 72.2524 273.109 70.1016ZM252.021 20.2587C252.105 20.2753 252.188 20.3066 252.272 20.3064C254.593 20.3013 256.873 20.6714 259.154 21.0395C263.503 21.7413 267.844 22.4947 272.209 23.0925C278.264 23.9218 284.346 24.4858 290.441 24.9005C297.691 25.3935 304.951 25.6685 312.216 25.8057C320.942 25.9706 329.663 25.824 338.381 25.3605C343.784 25.0732 349.176 24.6337 354.576 24.2943C357.001 24.1418 359.43 24.0259 361.86 24.3367C362.479 24.4159 363.155 24.8933 363.693 24.5393C364.194 24.2099 364.496 23.5656 364.859 23.0417C365.398 22.2635 365.914 21.4692 366.48 20.6215C366.312 20.6215 366.275 20.6096 366.255 20.6233C366.007 20.7977 365.762 20.9748 365.517 21.1529C363.741 22.4432 361.784 23.3161 359.609 23.6412C357.119 24.0133 354.631 23.901 352.173 23.3922C347.092 22.3409 343.799 19.347 342.384 14.3163C341.815 12.2918 341.462 10.2295 341.138 8.1579C340.94 6.89561 340.814 5.6189 340.489 4.28418C340.211 4.67189 340.277 5.01791 340.265 5.33875C340.186 7.46522 340.14 9.59306 340.044 11.7187C339.91 14.7125 338.572 17.0559 336.149 18.8024C334.598 19.9207 332.879 20.6638 331.031 21.1158C327.595 21.9562 324.101 21.9196 320.602 21.7657C315.895 21.5586 311.202 21.1361 306.503 20.7971C301.138 20.4101 295.771 20.0275 290.4 19.7237C282.721 19.2893 275.074 18.4597 267.403 17.9281C264.337 17.7156 261.267 17.6712 258.217 18.1914C256.054 18.5602 253.985 19.2238 252.021 20.2587ZM265.004 158.783C263.886 159.813 262.717 159.655 261.538 159.4C261.183 159.323 260.834 159.214 260.481 159.123C259.041 158.753 257.616 158.318 256.149 158.057C255.401 157.924 254.647 157.814 253.886 157.837C250.704 157.934 248.514 160.079 248.276 163.294C248.157 164.91 248.533 166.43 249.108 167.916C250.264 170.902 252.048 173.497 254.117 175.907C257.672 180.047 261.936 183.357 266.448 186.369C267.964 187.382 269.521 188.33 271.203 189.053C271.65 189.245 272.104 189.425 272.588 189.491C273.109 189.562 273.263 189.399 273.166 188.877C273.032 188.153 272.736 187.482 272.382 186.845C269.141 181.026 265.869 175.231 260.87 170.657C259.839 169.714 258.965 168.611 258.209 167.428C257.233 165.898 257.059 164.246 257.588 162.532C258.052 161.028 259.179 160.5 260.655 161.052C261.692 161.44 262.591 162.06 263.428 162.773C263.752 163.049 264.061 163.344 264.396 163.604C264.921 164.012 265.088 163.937 265.192 163.263C265.224 163.054 265.224 162.839 265.23 162.627C265.261 161.409 265.146 160.201 265.004 158.783ZM242.769 97.3202C242.448 97.1631 242.271 97.3405 242.093 97.421C237.219 99.6248 232.202 101.472 227.217 103.401C222.682 105.157 218.211 107.057 213.956 109.429C209.797 111.748 205.9 114.425 202.576 117.869C199.843 120.701 197.637 123.876 196.384 127.642C195.04 131.68 195.49 135.546 197.612 139.225C197.718 139.408 197.79 139.656 198.065 139.698C198.182 138.934 198.259 138.208 198.408 137.498C198.909 135.118 199.971 132.969 201.227 130.913C201.617 130.274 201.87 129.634 201.919 128.88C201.982 127.896 202.306 126.976 202.877 126.162C203.314 125.538 203.89 125.045 204.674 125.072C205.313 125.095 205.694 124.826 206.042 124.37C206.244 124.105 206.479 123.864 206.703 123.616C210.863 119.011 215.629 115.111 220.731 111.609C227.545 106.931 234.508 102.48 241.524 98.1113C241.927 97.8603 242.325 97.6025 242.769 97.3202ZM265.004 56.4022C265.052 56.3084 265.116 56.2367 265.123 56.1598C265.153 55.8273 265.182 55.4933 265.184 55.1597C265.22 50.1093 265.009 45.0693 264.58 40.0367C264.43 38.2794 264.367 36.5145 264.515 34.7517C264.783 31.5659 266.38 29.8359 269.514 29.2838C270.388 29.1298 271.266 29.0998 272.147 29.0914C275.66 29.0575 279.116 29.5887 282.567 30.1498C287.186 30.9007 291.805 31.6536 296.453 32.2091C303.124 33.0062 309.815 33.5986 316.503 34.2246C321.708 34.7118 326.909 35.2359 332.068 36.1004C335.246 36.6329 338.41 37.2422 341.471 38.278C343.292 38.8938 345.047 39.6491 346.596 40.8181C347.582 41.5627 348.388 42.4544 348.905 43.5917C348.969 43.7316 348.954 43.983 349.284 43.9349C350.014 41.834 351.118 39.8951 352.462 38.0515C352.056 37.8569 351.752 37.9199 351.46 37.9194C350.119 37.9165 348.789 37.7918 347.461 37.6245C343.326 37.1036 339.253 36.2355 335.168 35.4349C329.502 34.3244 323.825 33.2848 318.117 32.4086C313.281 31.6661 308.441 30.9474 303.582 30.3673C299.026 29.8231 294.467 29.2968 289.908 28.7709C286.344 28.3597 282.772 28.0449 279.195 27.7689C276.375 27.5512 273.551 27.3962 270.721 27.5299C269.26 27.5989 267.816 27.7902 266.449 28.3677C264.988 28.9852 264.007 30.0214 263.564 31.5645C263.312 32.4454 263.168 33.3426 263.057 34.2477C262.545 38.3969 262.59 42.5626 262.741 46.7266C262.851 49.7502 263.338 52.713 264.513 55.5285C264.638 55.8274 264.7 56.1692 265.004 56.4022ZM232.004 3.39774C231.948 3.40567 231.891 3.41361 231.834 3.42164C231.834 5.36502 231.83 7.30849 231.835 9.25187C231.839 10.7737 231.966 12.286 232.208 13.7886C232.856 17.7992 234.857 20.9189 238.337 23.0491C240.559 24.4097 242.971 25.3078 245.506 25.8843C247.057 26.237 248.626 26.3614 250.214 26.2433C250.795 26.2001 251.361 26.086 251.886 25.8316C252.764 25.4058 252.974 24.7361 252.512 23.8778C252.262 23.4138 251.873 23.0745 251.482 22.733C251.008 22.3192 250.423 22.0043 250.229 21.3314C250.157 21.0796 249.952 21.1723 249.779 21.2209C248.85 21.4804 248.187 21.0565 247.647 20.3641C247.174 19.7586 246.888 19.0529 246.622 18.3397C245.755 16.0194 245.335 13.5974 244.987 11.1591C244.631 8.66365 244.296 6.16452 243.698 3.71137C243.617 3.37913 243.596 3.01112 243.246 2.58674C243.383 5.54866 243.297 8.33816 243.343 11.1273C243.36 12.1903 243.362 13.2549 243.323 14.317C243.29 15.2045 243.104 16.0668 242.606 16.8286C241.913 17.8878 240.892 18.1709 239.761 17.6123C239.183 17.3273 238.689 16.9253 238.233 16.473C237.145 15.3934 236.255 14.1623 235.548 12.8105C234.081 10.005 232.785 7.12923 232.182 3.99134C232.143 3.78955 232.065 3.59542 232.004 3.39774ZM306.445 121.318C306.466 121.169 306.49 121.021 306.506 120.873C306.794 118.245 306.994 115.609 307.377 112.992C307.887 109.498 308.576 106.054 309.904 102.758C310.733 100.703 311.527 98.6294 312.055 96.4695C312.257 95.6442 312.494 94.8232 312.534 93.9674C312.567 93.2475 312.466 93.111 311.751 93.0149C310.574 92.8563 309.39 92.7977 308.205 92.9226C306.028 93.1522 303.879 93.5667 301.727 93.9542C301.011 94.0831 300.299 94.2626 299.656 94.6275C299.017 94.9896 298.852 95.3344 298.942 96.0505C298.988 96.4166 299.1 96.7644 299.251 97.0958C299.579 97.8138 299.896 98.5392 300.268 99.2347C302.758 103.89 304.252 108.874 305.216 114.04C305.666 116.457 306.007 118.891 306.445 121.318ZM305.309 91.5209C306.563 91.7742 307.841 91.7777 309.111 91.8194C311.091 91.8843 313.06 91.7973 314.968 91.183C316.257 90.768 317.451 90.1814 318.379 89.1662C319.63 87.7979 319.401 86.477 317.777 85.6097C317.457 85.439 317.117 85.2976 316.772 85.1836C315.67 84.8183 314.529 84.6544 313.372 84.6019C308.682 84.3892 304.025 84.7835 299.385 85.4119C297.67 85.6443 295.968 85.9809 294.366 86.6725C293.876 86.8841 293.2 87.0593 293.151 87.6537C293.097 88.317 293.794 88.548 294.281 88.8222C295.438 89.4733 296.721 89.7276 298.019 89.9077C300.126 90.2001 302.251 90.2886 304.368 90.4738C305.254 90.5513 305.35 90.6629 305.309 91.5209ZM254.457 117.526C254.407 117.486 254.358 117.447 254.309 117.408C254.184 117.489 254.055 117.567 253.934 117.654C251.882 119.12 249.822 120.572 247.783 122.055C241.814 126.397 235.87 130.774 229.885 135.094C225.648 138.153 221.339 141.109 216.559 143.292C216.483 143.327 216.422 143.396 216.253 143.527C216.874 143.67 217.406 143.671 217.937 143.649C219.923 143.566 221.851 143.182 223.731 142.539C227.064 141.401 230.089 139.667 232.994 137.712C237.595 134.615 241.797 131.028 245.803 127.205C248.486 124.645 251.08 121.999 253.357 119.061C253.742 118.563 254.091 118.038 254.457 117.526ZM212.312 137.467C212.007 133.497 210.255 129.825 206.931 126.927C206.749 126.769 206.528 126.658 206.334 126.512C205.978 126.244 205.702 126.276 205.429 126.657C204.722 127.643 204.007 128.624 203.261 129.58C202.873 130.077 202.791 130.602 202.884 131.199C203.645 136.087 206.391 139.547 210.612 141.941C211.112 142.225 211.157 142.193 211.434 141.658C212.046 140.475 212.286 139.203 212.312 137.467ZM303.663 92.5602C303.56 92.3449 303.399 92.3414 303.253 92.3215C302.29 92.1907 301.328 92.0411 300.362 91.9424C299.578 91.8624 298.796 91.7093 298.001 91.811C296.901 91.9517 296.688 92.1959 296.774 93.2797C296.802 93.6414 296.854 94.0064 296.944 94.3573C297.375 96.0333 297.843 97.6997 298.26 99.379C299.915 106.04 301.268 112.769 302.831 119.451C303.502 122.318 304.104 125.203 304.997 128.014C305.118 128.393 305.195 128.802 305.567 129.22C305.794 127.88 305.733 126.669 305.662 125.462C305.488 122.487 305.124 119.533 304.641 116.594C304.014 112.784 303.194 109.019 301.895 105.372C301.128 103.221 300.113 101.182 299.09 99.1459C298.695 98.3592 298.291 97.5746 298.052 96.7206C297.622 95.1792 298.075 94.2106 299.538 93.5529C300.123 93.2901 300.739 93.124 301.366 93.0009C302.126 92.8519 302.886 92.709 303.663 92.5602ZM210.485 143.065C205.962 140.553 203.006 136.965 201.916 131.877C201.773 132.043 201.679 132.121 201.623 132.221C200.757 133.76 200.019 135.353 199.542 137.061C199.22 138.215 199.089 139.384 199.205 140.576C199.252 141.059 199.309 141.546 199.68 141.921C201.588 143.845 203.714 145.251 206.604 144.869C206.754 144.849 206.907 144.84 207.058 144.844C208.497 144.89 209.518 144.139 210.485 143.065ZM369.83 18.7561C369.995 19.322 370.433 19.6186 370.93 19.8455C371.542 20.125 372.195 20.2722 372.854 20.3915C375.137 20.8052 377.449 20.8378 379.757 20.8891C383.132 20.9641 386.505 20.8405 389.878 20.7527C395.925 20.5954 401.965 20.2719 407.995 19.7871C411.296 19.5217 414.595 19.2166 417.887 18.8497C422.234 18.3651 426.576 17.8238 430.916 17.2671C434.592 16.7954 438.263 16.2853 441.913 15.6344C442.149 15.5923 442.417 15.6101 442.567 15.3415C442.344 15.3415 442.132 15.3319 441.92 15.3429C437.548 15.57 433.195 16.0217 428.839 16.441C422.215 17.0786 415.593 17.7339 408.968 18.3643C404.068 18.8307 399.165 19.2717 394.263 19.7199C389.57 20.1491 384.869 20.4557 380.155 20.4687C378.24 20.474 376.324 20.4592 374.42 20.213C372.813 20.0052 371.237 19.7032 369.83 18.7561ZM286.671 73.2474C286.247 73.2772 285.823 73.2934 285.402 73.3422C285.193 73.3664 284.986 73.4344 284.789 73.5105C283.855 73.8716 283.51 74.5873 283.794 75.5458C283.96 76.1076 284.268 76.5946 284.598 77.0677C285.295 78.0657 286.201 78.8975 286.916 79.87C287.669 80.8932 288.634 81.1085 289.776 81.0171C289.988 81.0003 290.201 80.9915 290.411 80.9615C292.085 80.7218 293.342 79.3843 293.44 77.7C293.478 77.0501 293.369 76.3967 292.858 75.9414C291.095 74.3706 289.161 73.1708 286.671 73.2474ZM411.19 232.461C411.08 232.499 410.967 232.53 410.859 232.575C405.252 234.917 399.636 237.239 394.042 239.613C391.413 240.728 388.823 241.939 386.36 243.398C386.088 243.559 385.76 243.678 385.596 244.025C389.733 243.964 405.651 236.824 411.19 232.461ZM355.057 36.568C355.133 36.5847 355.194 36.6145 355.25 36.6069C355.399 36.5866 355.548 36.5571 355.695 36.5193C358.575 35.7763 360.977 34.2546 362.94 32.0349C363.731 31.1402 364.327 30.1181 364.757 29.0028C364.932 28.5486 365.071 28.0867 365.074 27.5897C365.077 27.1362 364.921 26.7617 364.604 26.4457C364.116 25.9594 363.978 25.9644 363.535 26.4831C360.889 29.5752 358.241 32.6652 355.601 35.7623C355.394 36.0054 355.099 36.2032 355.057 36.568ZM202.913 239.438C203.211 239.283 203.261 239.059 203.372 238.884C204.138 237.669 205.223 236.994 206.663 236.881C207.49 236.817 208.298 236.932 209.111 237.052C209.572 237.12 210.014 237.333 210.529 237.148C204.965 235.257 199.402 233.366 193.839 231.474C193.804 231.541 193.77 231.607 193.735 231.673C195.4 232.758 197.127 233.755 198.628 235.069C200.162 236.412 201.571 237.878 202.913 239.438ZM304.715 138.793C304.385 140.793 304.072 142.796 303.722 144.793C303.194 147.804 301.557 149.942 298.69 151.095C298.452 151.19 298.171 151.229 297.987 151.508C298.936 151.314 299.86 151.151 300.796 151.095C302.137 151.016 303.4 151.23 304.412 152.228C304.493 152.307 304.583 152.411 304.822 152.263C304.752 147.818 305.112 143.315 304.715 138.793ZM209.194 248.903C208.55 248.247 208.03 247.742 207.539 247.21C207.046 246.675 206.569 246.124 206.111 245.559C205.634 244.97 205.196 244.349 204.724 243.756C204.294 243.215 204.057 242.517 203.395 242.031C203.311 243.238 203.376 244.321 203.562 245.402C203.713 246.274 203.93 247.122 204.383 247.892C204.704 248.439 205.138 248.864 205.79 248.943C206.867 249.074 207.947 249.046 209.194 248.903ZM285.301 154.623C287.817 154.151 290.275 153.486 292.708 152.73C290.177 153.127 287.668 153.615 285.301 154.623ZM203.466 127.39C203.825 127.083 204.131 126.746 204.284 126.305C203.804 126.517 203.544 126.891 203.466 127.39ZM211.11 144.038C211.467 144.139 211.745 143.972 212.048 143.829C211.497 143.507 211.497 143.507 211.11 144.038Z" fill="#F8992F"/>
</svg>
