<svg width="40" height="41" viewBox="0 0 40 41" fill="none" xmlns="http://www.w3.org/2000/svg">
<circle cx="20" cy="20.873" r="20" fill="#F8992F"/>
<path d="M12.1164 21.1459C11.4943 21.4722 11.5201 21.9502 12.1723 22.2082L14.1045 22.9727C14.7572 23.2319 15.7449 23.0905 16.2981 22.6588L24.689 16.0416C25.2406 15.6077 25.2997 15.6717 24.8207 16.1846L18.1873 23.2846C17.7067 23.7959 17.8486 24.4238 18.5035 24.677L18.7298 24.7652C19.3847 25.0184 20.4519 25.4437 21.1024 25.7082L23.2454 26.5808C23.8965 26.8453 24.5922 26.5335 24.7771 25.8561L28.0433 13.8507C28.2277 13.1733 27.8696 12.8856 27.2476 13.2115L12.1164 21.1459Z" fill="white"/>
<path d="M17.4196 29.0051C17.3814 29.1196 18.7411 27.0362 18.7411 27.0362C19.1255 26.4491 18.9072 25.7486 18.2577 25.483L16.7749 24.876C16.1255 24.6104 15.8142 24.9223 16.083 25.5712C16.083 25.5712 17.4588 28.8873 17.4196 29.0051Z" fill="white"/>
</svg>
