<svg width="1440" height="433" viewBox="0 0 1440 433" fill="none" xmlns="http://www.w3.org/2000/svg">
<path d="M1177.41 432.693C1173.81 432.693 1170.2 432.573 1166.59 432.327C1101.5 427.926 1035.6 390.347 1037.98 335.073C1039.99 286.123 1080.45 273.649 1085.64 272.251C1086.26 266.208 1094.04 213.999 1174.01 213.999C1175.26 213.999 1176.53 214.01 1177.82 214.035C1236.47 215.221 1255 238.08 1260.83 251.597C1264.71 260.613 1264.69 269.323 1262.63 275.081C1263.31 278.577 1263.61 282.109 1263.5 285.645C1262.72 310.471 1251.21 335.521 1232.73 352.664C1216.59 367.628 1196.38 375.382 1175.62 374.45C1151.02 375.256 1133.98 367.777 1121.44 355.563C1115.66 358.002 1107 360.39 1099.42 361.581C1073.71 365.612 1057.12 358.486 1053.89 342.041C1051.98 332.191 1053.58 323.881 1058.66 317.332C1067.88 305.433 1085.45 303.101 1089.56 302.71L1085.6 280.131C1085.52 279.734 1085.78 279.353 1086.17 279.26C1086.56 279.155 1086.96 279.396 1087.07 279.78L1087.22 280.273C1091.2 293.489 1095.22 306.838 1100.32 319.127C1101.44 319.478 1102.6 319.893 1103.78 320.383C1104.17 320.542 1104.36 320.987 1104.19 321.373C1104.04 321.758 1103.6 321.952 1103.2 321.785C1102.49 321.493 1101.79 321.226 1101.1 320.985C1104.16 328.143 1107.62 334.916 1111.66 341.059C1116.58 339.826 1120.45 340.004 1123.19 341.613C1127.19 343.967 1127.76 348.712 1128.01 350.737C1128.14 351.916 1126.19 353.377 1123.03 354.86C1135.3 366.574 1151.9 373.701 1175.64 372.932C1195.97 373.867 1215.86 366.236 1231.7 351.55C1249.89 334.678 1261.22 310.024 1261.99 285.599C1262.06 282.916 1261.91 280.233 1261.51 277.564C1261.06 278.384 1260.55 279.099 1260 279.706C1256.99 283.029 1249.18 289.793 1238.28 296.337C1227.39 312.08 1203.83 324.126 1170.35 322.197C1138.92 320.48 1109.63 303.787 1102.99 289.882C1097.74 278.807 1098.68 265.812 1105.57 254.231C1117.19 234.688 1142.43 222.445 1174.81 220.649C1202.53 219.111 1228.16 227.742 1245.17 244.324C1253.58 252.528 1259.29 262.011 1261.9 271.905C1262.98 266.806 1262.7 259.784 1259.43 252.199C1253.75 239.017 1235.59 216.723 1177.79 215.557C1176.52 215.529 1175.25 215.517 1174.01 215.517C1090.98 215.517 1087.13 272.31 1087.1 272.895C1087.09 273.233 1086.84 273.519 1086.51 273.596C1086.06 273.698 1041.59 284.277 1039.5 335.137C1037.16 389.485 1102.34 426.462 1166.69 430.813C1235.95 435.524 1305.01 393.912 1308.79 345.23C1312.55 297.025 1269.54 274.909 1269.11 274.694C1268.79 274.535 1268.63 274.183 1268.71 273.838C1268.79 273.497 1269.09 273.254 1269.44 273.254C1297.68 273.254 1326.66 288.418 1354.69 303.083C1382.56 317.666 1411.38 332.74 1439.24 332.74C1439.66 332.74 1440 333.081 1440 333.5C1440 333.919 1439.66 334.26 1439.24 334.26C1411.01 334.26 1382.02 319.096 1353.99 304.431C1327.11 290.366 1299.34 275.838 1272.4 274.83C1281.87 280.593 1313.59 303.188 1310.31 345.347C1306.66 392.25 1243.65 432.69 1177.42 432.693H1177.41ZM1089.25 292.172L1091.2 303.268C1091.23 303.483 1091.18 303.702 1091.05 303.871C1090.91 304.041 1090.71 304.146 1090.5 304.158C1090.29 304.169 1069.69 305.57 1059.85 318.27C1055.06 324.458 1053.56 332.356 1055.38 341.75C1057.73 353.713 1066.92 360.213 1082.69 361.067C1096.83 361.85 1112 357.726 1120.25 354.377C1116.82 350.869 1113.74 346.992 1110.94 342.823C1109.41 343.266 1107.76 343.844 1106.01 344.562C1090.23 351.064 1074.78 352.328 1068.46 347.636C1065.98 345.798 1064.9 343.18 1065.22 339.857C1065.94 332.528 1070.72 325.2 1077.39 321.189C1081.86 318.509 1088.91 316.155 1098.44 318.591C1095 310.129 1092.05 301.2 1089.25 292.171V292.172ZM1112.56 342.4C1115.35 346.483 1118.43 350.281 1121.85 353.704C1124.62 352.48 1126.32 351.418 1126.5 350.837C1126.14 347.941 1125.38 344.665 1122.42 342.926C1120.11 341.573 1116.81 341.397 1112.56 342.4ZM1090.66 319.093C1085.3 319.093 1081.13 320.715 1078.18 322.49C1071.9 326.263 1067.4 333.14 1066.73 340.006C1066.46 342.763 1067.35 344.92 1069.36 346.418C1075.19 350.732 1090.36 349.368 1105.43 343.16C1107.06 342.493 1108.61 341.941 1110.07 341.504C1105.87 335.032 1102.32 327.902 1099.17 320.367C1096.06 319.462 1093.23 319.093 1090.66 319.093ZM1181.1 221.99C1179.04 221.99 1176.98 222.049 1174.9 222.163C1143.03 223.935 1118.24 235.904 1106.87 255.011C1100.25 266.15 1099.33 278.621 1104.36 289.231C1110.81 302.751 1139.53 318.993 1170.43 320.686C1201.29 322.436 1223.55 312.223 1234.93 298.281C1216.93 308.392 1191.73 317.073 1165.82 310.3C1145.29 304.894 1132.21 293.816 1133.25 282.733C1134.27 271.944 1147.84 264.514 1169.65 262.735C1164.39 255.639 1163.22 249.833 1166.18 245.458C1173.13 235.183 1200.95 236.725 1210.8 239.615C1239.6 248.172 1247.15 266.764 1244.61 281.312C1243.89 285.444 1242.37 289.539 1240.1 293.456C1249.47 287.537 1256.15 281.686 1258.88 278.686C1259.69 277.796 1260.44 276.505 1261.04 274.892C1258.87 264.331 1253.06 254.137 1244.11 245.41C1228.68 230.37 1205.98 221.99 1181.1 221.99H1181.1ZM1192.24 238.965C1181.95 238.965 1171.14 240.829 1167.43 246.308C1164.73 250.298 1166.16 255.887 1171.7 262.915C1171.87 263.137 1171.91 263.435 1171.8 263.693C1171.69 263.951 1171.44 264.124 1171.16 264.142C1149.66 265.634 1135.71 272.809 1134.76 282.872C1133.79 293.189 1146.43 303.62 1166.2 308.827C1193.18 315.87 1219.35 305.895 1237.2 295.236C1240.27 290.729 1242.26 285.916 1243.11 281.047C1246.21 263.308 1233.66 247.987 1210.37 241.07C1206.26 239.861 1199.37 238.965 1192.24 238.965Z" fill="#4F2E12"/>
<path d="M900.602 335.26C899.031 335.26 897.318 335.14 895.456 334.875C875.331 332.025 862.199 318.643 862.559 307.929C862.729 303.944 864.312 300.946 867.141 299.261C872.757 295.906 883.038 297.689 896.877 304.412C900.388 306.116 904.327 308.887 908.887 312.092C909.455 312.492 910.032 312.898 910.615 313.308C910.846 311.955 910.305 310.609 909.897 309.825C908.222 306.844 901.282 300.293 887.085 296.994C871.779 293.502 850.667 297.191 828.314 301.096C793.354 307.21 26.7279 20.0825 -1.99929 1.50022L-1.1743 0.226562C27.0541 18.4886 793.367 305.665 828.052 299.601C850.559 295.667 871.817 291.948 887.425 295.514C900.463 298.545 907.591 304.192 910.378 307.828C910.205 307.539 910.041 307.244 909.883 306.949C907.118 301.708 907.157 296.035 909.995 290.97C917.866 277 944.307 269.725 973.303 282.342C990.549 289.764 994.392 300.014 992.441 306.537C991.166 310.802 987.432 313.42 983.583 312.722C980.767 312.221 978.414 310.202 975.689 307.867C970.856 303.726 964.851 298.57 953.356 300.048C950.408 300.423 947.777 300.823 945.382 301.186C933.804 302.939 927.579 303.88 917.801 297.638C919.692 300.629 924.419 305.417 935.433 305.948C941.19 306.249 945.891 305.868 950.039 305.526C957.754 304.889 963.853 304.388 970.838 309.207C976.131 312.857 978.849 316.983 978.495 320.826C978.439 321.43 978.309 322.014 978.108 322.574C984.566 320.413 991.013 317.503 997.626 314.514C1024.98 302.16 1055.99 288.156 1103.91 320.453L1103.06 321.715C1055.85 289.891 1025.25 303.711 998.252 315.898C991.076 319.138 984.094 322.293 977.059 324.514C976.166 325.705 974.892 326.696 973.306 327.404C947.38 338.893 926.767 326.38 911.263 315.612C910.264 317.024 908.075 318.584 903.289 318.893C897.659 319.197 894.374 316.8 890.209 313.763C887.994 312.147 885.48 310.317 882.16 308.532C876.959 305.693 873.178 305.886 870.874 306.593C877.657 306.818 880.945 309.58 886.35 314.123C887.586 315.16 888.946 316.301 890.494 317.541C896.34 322.274 901.453 321.464 905.558 320.803C907.949 320.42 910.01 320.094 911.83 320.825C914.312 321.772 915.57 324.603 914.81 327.555C913.828 331.361 909.514 335.26 900.599 335.26H900.602ZM874.209 299.108C871.306 299.108 869.299 299.742 867.918 300.566C865.517 301.997 864.222 304.495 864.075 307.985C863.738 318.035 876.351 330.639 895.667 333.374C907.104 334.99 912.342 331.048 913.341 327.174C913.906 324.987 913.039 322.912 911.276 322.241C909.838 321.654 907.966 321.958 905.8 322.303C901.393 323.005 895.912 323.883 889.543 318.728C887.988 317.482 886.62 316.331 885.374 315.284C879.096 310.007 876.218 307.598 867.744 308.177L865.61 308.321L867.175 306.863C867.401 306.654 872.871 301.736 882.883 307.198C886.292 309.033 888.85 310.894 891.105 312.539C895.177 315.509 898.139 317.653 903.199 317.38C906.608 317.159 908.957 316.251 910.019 314.746C909.339 314.272 908.67 313.801 908.01 313.336C903.505 310.166 899.613 307.431 896.21 305.779C885.823 300.733 878.863 299.108 874.208 299.108H874.209ZM911.946 314.238C927.18 324.829 947.434 337.221 972.69 326.017C973.039 325.863 973.369 325.691 973.679 325.506C967.428 327.186 961.111 328.036 954.532 327.469C933.956 325.648 918.117 318.93 911.327 309.298C912.202 311.059 912.408 312.767 911.945 314.237L911.946 314.238ZM943.921 277.482C928.522 277.482 916.122 283.183 911.318 291.714C908.704 296.379 908.672 301.4 911.225 306.238C916.73 316.666 932.97 324.035 954.668 325.955C961.997 326.595 969.074 325.388 976.108 323.218C976.601 322.447 976.902 321.591 976.985 320.683C977.286 317.413 974.799 313.778 969.979 310.455C963.44 305.948 957.869 306.403 950.166 307.04C945.967 307.386 941.209 307.781 935.358 307.462C918.393 306.643 915.317 296.098 915.193 295.65L914.631 293.594L916.365 294.831C927.034 302.428 932.715 301.566 945.154 299.683C947.56 299.317 950.202 298.917 953.162 298.538C965.32 296.981 971.613 302.375 976.677 306.714C979.234 308.906 981.442 310.798 983.849 311.226C986.919 311.759 989.934 309.617 990.985 306.103C992.757 300.176 989.031 290.763 972.698 283.735C962.696 279.382 952.808 277.482 943.919 277.482H943.921Z" fill="#4F2E12"/>
</svg>
