<svg width="1440" height="707" viewBox="0 0 1440 707" fill="none" xmlns="http://www.w3.org/2000/svg">
<path d="M10.4786 1C63.0581 93.4895 4.46588 177.438 0.75075 270.39C-1.63917 330.189 -0.223755 383.114 34.2106 455.369C57.5351 504.313 100.113 490.001 106.305 489.396C115.759 488.472 139.794 481.737 128.615 432.585C117.437 383.431 75.6613 372.635 64.217 377.33C52.7764 382.027 43.951 401.127 50.8461 437.313C57.7395 473.5 93.5613 488.596 103.279 484.722C112.997 480.849 103.236 477.899 103.052 466.437C102.873 454.975 103.662 453.144 95.062 444.037C86.4557 434.93 78.6922 426.408 76.8426 416.382C75.0007 406.358 78.1991 394.435 78.9748 401.42C79.7523 408.405 83.6325 424.088 97.7824 433.414C111.924 442.739 109.422 455.013 109.075 465.357C108.734 475.702 122.251 479.579 127.576 468.026C131.61 459.28 148.406 463.435 145.286 444.553C144.077 437.223 162.339 446.394 156.297 425.702C156.297 425.702 153.723 423.739 154.993 414.018C156.164 405.065 154.74 397.051 163.795 387.421C172.852 377.791 174.958 370.84 178.963 360.5C182.967 350.158 177.638 337.564 177.223 342.082C176.81 346.599 172.343 366.056 162.902 374.801C153.463 383.543 146.995 387.533 147.195 399.799C147.389 412.068 153.562 430.46 135.834 422.55C118.098 414.639 114.865 389.878 125.527 371.183C136.189 352.489 166.063 312.171 193.001 334.329C219.939 356.492 191.195 417.246 168.814 426.064C164.757 427.667 155.244 431.752 144.876 427.51C130.224 421.516 136.17 454.163 136.17 454.163C136.17 454.163 135.088 446.669 150.438 436.297C165.783 425.921 210.459 426.282 230.234 440.741C250.012 455.199 230.053 484.382 204.986 492.701C165.901 509.315 145.733 493.247 139.51 486.74C133.292 480.236 134.247 469.345 143.763 473.926C153.273 478.504 174.49 477.706 180.897 468.845C187.308 459.983 192.936 461.222 204.966 463.041C216.996 464.859 221.989 464.634 212.911 460.979C203.828 457.323 183.806 451.26 176.687 460.462C169.56 469.662 145.856 468.753 139.663 465.732C133.476 462.715 135.9 453.143 131.777 472.612C127.659 492.085 136.629 496.409 144.773 500.918C163.238 511.14 182.782 508.331 182.782 508.331C203.355 510.217 230.243 478.527 250.051 488.713C261.183 494.43 277.099 500.649 284.647 498.77C293.927 496.449 288.651 487.518 283.168 481.003C277.676 474.485 273.763 465.371 276.349 458.211C278.931 451.051 274.212 446.642 275.917 437.763C277.632 428.885 272.405 428.944 269.098 420.618C265.798 412.29 273.251 409.589 273.251 409.589C273.251 409.589 270.701 407.084 271.411 415.535C272.118 423.987 284.41 429.257 283.772 436.257C283.127 443.259 282.139 444.137 284.673 451.878C287.21 459.622 284.638 458.48 285.595 469.469C286.556 480.454 289.475 492.495 300.8 485.795C312.115 479.091 317.394 462.694 314.397 445.092C311.393 427.489 288.369 396.262 263.357 408.441C244.654 419.279 234.62 453.774 255.863 481.715C262.075 489.887 276.526 497.508 299.454 492.947C316.765 489.503 323.808 491.162 335.857 493.351C347.907 495.538 356.57 497.807 356.57 497.807C386.302 501.264 401.329 488.123 384.85 475.877C368.371 463.626 361.404 462.23 351.452 461.097C341.499 459.965 337.382 446.625 337.382 446.625C337.382 446.625 341.215 452.42 345.947 454.889C350.686 457.355 359.192 458.045 367.598 459.581C376.002 461.118 385.131 469.326 388.272 475.349C391.406 481.371 394.647 483.689 397.834 477.584C401.022 471.486 401.986 450.395 382.647 438.381C363.313 426.367 335.469 428.114 327.254 444.008C320.484 457.114 325.707 470.472 336.251 482.444C348.663 496.542 377.196 502.05 393.145 491.973C396.99 489.547 401.183 483.277 403.058 475.228C405.796 463.421 407.593 453.093 417.448 442.459C431.974 426.772 463.703 417.146 473.249 440.431C482.801 463.715 476.608 482.9 461.127 500.567C445.649 518.228 418.02 511.919 421.678 504.871C425.339 497.822 438.824 490.67 441.814 469.252C444.796 447.833 453.284 439.441 455.501 437.628C457.725 435.811 450.907 439.116 446.382 444.902C441.86 450.685 437.801 458.007 436.382 470.197C434.969 482.392 431.506 487.102 425.942 494.255C420.386 501.408 412.907 507.453 407.495 497.28C402.074 487.111 406.624 455.474 422.901 441.989C439.181 428.505 455.397 421.424 472.614 430.84C492.058 441.477 498.787 461.651 519.581 475.909C585.548 521.141 1308.7 679.082 1448 705" stroke="#4F2E12" stroke-width="3" stroke-miterlimit="10" stroke-linejoin="round"/>
</svg>
