<svg width="49" height="48" viewBox="0 0 49 48" fill="none" xmlns="http://www.w3.org/2000/svg">
<g clip-path="url(#clip0_2086_147)">
<path d="M14.7595 15.9601C14.5975 15.9001 10.7725 14.5328 8.12876 17.0926C5.48651 19.6523 6.73076 23.5201 6.78476 23.6836C6.85676 23.8996 7.02326 24.0721 7.23776 24.1508C7.32251 24.1816 8.40326 24.5693 9.79376 24.5693C11.0688 24.5693 12.6048 24.2431 13.8685 23.0198C16.5108 20.4601 15.2673 16.5916 15.2125 16.4281C15.1405 16.2113 14.974 16.0396 14.7595 15.9601ZM9.17276 18.1711C10.3375 17.0431 11.8968 16.9688 12.9768 17.0963L7.97726 21.9376C7.88426 20.8531 8.00801 19.2976 9.17276 18.1711ZM12.8245 21.9413C11.6605 23.0701 10.1013 23.1443 9.02051 23.0161L14.02 18.1741C14.113 19.2586 13.9885 20.8141 12.8245 21.9413Z" fill="#75461F"/>
<path d="M45.8639 14.6348C45.3111 14.082 44.6781 13.6005 43.9791 13.1985C44.1051 11.2657 43.3941 9.345 42.0246 7.97475C41.4584 7.40775 40.8036 6.975 40.0439 6.6435C39.5744 5.77425 37.8606 3.063 34.7054 3.00075C34.2756 3.00225 33.8676 3.04575 33.5301 3.11475C31.1541 1.137 27.8946 0 24.4994 0C21.3606 0 18.3839 0.948 16.0484 2.65875C14.3436 1.965 12.6644 2.121 12.5549 2.1345C12.3276 2.15775 12.1244 2.28375 12.0014 2.47575C11.9399 2.57175 10.9746 4.12275 10.8929 6.069C9.41088 6.24975 8.03988 6.909 6.97412 7.97475C5.60387 9.345 4.89288 11.2657 5.01888 13.1985C4.31988 13.6005 3.68763 14.082 3.13338 14.6355C-0.367625 18.1455 -0.367625 23.8552 3.13488 27.3667C4.85162 29.0782 7.17363 29.9873 9.51888 29.9873C10.5584 29.9873 11.5994 29.7975 12.5969 29.4308C15.4409 32.832 18.6044 33.9893 19.9664 34.347L19.2516 47.2087C19.2404 47.4142 19.3139 47.616 19.4556 47.766C19.5974 47.9152 19.7946 48 20.0009 48H29.0009C29.2071 48 29.4044 47.9152 29.5461 47.7653C29.6879 47.6152 29.7614 47.4135 29.7501 47.208L29.0354 34.3462C30.3966 33.9893 33.5564 32.8327 36.3981 29.4382C39.6494 30.6307 43.3866 29.8365 45.8646 27.3645C49.3664 23.8552 49.3664 18.1448 45.8639 14.6348ZM34.6754 4.50075C36.2954 4.53225 37.4466 5.58675 38.1171 6.44325L31.1586 6.306C31.8636 5.4735 33.0584 4.46175 34.6754 4.50075ZM38.0841 7.94325C37.3731 8.77425 36.1709 9.7845 34.5711 9.74925C32.9511 9.717 31.7999 8.6625 31.1294 7.806L38.0841 7.94325ZM12.7266 4.461L16.3821 10.3837C15.3029 10.2413 13.8096 9.786 12.9591 8.40675C12.1079 7.0275 12.3704 5.48925 12.7266 4.461ZM17.6594 9.5955L14.0039 3.67275C15.0831 3.81525 16.5764 4.2705 17.4276 5.64975C18.2781 7.029 18.0156 8.56725 17.6594 9.5955ZM28.1451 33.0075C27.7596 33.0622 27.4806 33.4027 27.5024 33.792L28.2081 46.5H27.1206L26.7494 41.1975C26.7201 40.785 26.3646 40.4797 25.9491 40.5015C25.5359 40.5308 25.2246 40.8892 25.2531 41.3025L25.6169 46.5H20.7944L21.5001 33.792C21.5219 33.4027 21.2421 33.0622 20.8574 33.0075C20.8199 33.0022 17.2461 32.4495 14.0084 28.7745C14.4749 28.5038 14.9204 28.1947 15.3374 27.8407C15.6674 27.9712 16.0146 28.0777 16.3686 28.1722C16.8209 28.8457 18.1581 30.4268 21.2639 31.4618C21.5744 31.554 21.8106 31.452 21.9396 31.359C22.1354 31.2173 22.2509 30.9907 22.2509 30.75V27.8955C23.0639 27.5895 23.8281 27.1823 24.4994 26.6805C25.1706 27.1823 25.9356 27.5903 26.7509 27.8962V30.75C26.7509 30.9907 26.8664 31.2173 27.0621 31.359C27.1919 31.452 27.4754 31.605 27.7379 31.4618C30.8451 30.426 32.1824 28.8442 32.6339 28.1715C32.9864 28.077 33.3321 27.9705 33.6614 27.8407C34.0791 28.197 34.5321 28.4955 35.0001 28.767C31.7781 32.4232 28.1811 33.0015 28.1451 33.0075ZM18.7274 28.4797C19.4054 28.4888 20.0841 28.434 20.7509 28.3073V29.664C19.8681 29.2815 19.2141 28.863 18.7274 28.4797ZM27.1116 24.2288C26.2709 24.6795 25.0454 25.083 23.7426 24.6188C22.4384 24.1538 21.7461 23.0648 21.3816 22.1828L27.1116 24.2288ZM21.8864 20.7712C22.7271 20.3197 23.9534 19.9163 25.2554 20.3812C26.5589 20.847 27.2519 21.9352 27.6164 22.8172L21.8864 20.7712ZM28.2509 28.3073C28.9176 28.434 29.5964 28.4873 30.2751 28.4783C29.7884 28.8623 29.1351 29.2808 28.2509 29.6625V28.3073ZM44.8041 26.304C42.6246 28.476 39.2729 29.0985 36.4649 27.8512C35.6819 27.504 34.9604 27.0225 34.3221 26.4172C34.1001 26.208 33.7709 26.1532 33.4919 26.2815C33.0254 26.4967 32.5169 26.67 31.9791 26.7945C30.6411 27.1065 29.0759 27.0607 27.7214 26.6512C27.2706 26.5117 26.8409 26.3272 26.4306 26.1157C28.0634 25.662 29.1846 24.6232 29.2559 24.5542C29.4261 24.3907 29.5101 24.1575 29.4816 23.9227C29.4629 23.7682 28.9851 20.1195 25.7609 18.969C22.5351 17.8148 19.8554 20.3377 19.7429 20.4457C19.5726 20.6092 19.4886 20.8425 19.5171 21.0773C19.5351 21.2265 19.9911 24.6435 22.9446 25.9065C22.4286 26.2118 21.8714 26.4675 21.2819 26.6505C19.9191 27.0638 18.3599 27.108 17.0181 26.7945C16.4811 26.67 15.9719 26.4975 15.5061 26.2822C15.2294 26.1532 14.8994 26.2072 14.6759 26.418C14.0376 27.0232 13.3161 27.5048 12.5324 27.852C9.72437 29.1008 6.37338 28.4783 4.19538 26.3055C1.27638 23.3805 1.27638 18.6195 4.19463 15.6952C4.75413 15.1372 5.41338 14.664 6.15513 14.2897C6.44313 14.145 6.60588 13.8323 6.56013 13.5128C6.31788 11.847 6.85637 10.2157 8.03537 9.03525C8.84912 8.2215 9.89313 7.7145 11.0234 7.56525C11.1449 8.106 11.3496 8.655 11.6834 9.195C13.2089 11.6655 16.0491 11.9467 17.2634 11.9467C17.5881 11.9467 17.7959 11.9272 17.8326 11.9228C18.0599 11.8995 18.2631 11.7735 18.3861 11.5815C18.4791 11.4368 20.6361 7.9935 18.7041 4.86225C18.3531 4.29375 17.9316 3.84375 17.4771 3.48375C19.4676 2.19975 21.9201 1.5 24.4994 1.5C27.2316 1.5 29.8574 2.3085 31.8921 3.738C30.0734 4.78275 29.1351 6.582 29.0804 6.69C28.9769 6.89325 28.9724 7.13325 29.0676 7.34025C29.1389 7.497 30.8631 11.2492 34.5419 11.2492C37.4984 11.2492 39.0846 9.234 39.7926 8.18025C40.2321 8.4105 40.6206 8.691 40.9641 9.03525C42.1431 10.215 42.6816 11.847 42.4394 13.5128C42.3929 13.8323 42.5556 14.145 42.8444 14.2897C43.5861 14.664 44.2454 15.1373 44.8034 15.6945C47.7216 18.6195 47.7216 23.3805 44.8041 26.304Z" fill="#75461F"/>
<path d="M24.1481 9.68192C20.8751 10.6877 20.2331 14.3102 20.2076 14.4639C20.1686 14.6972 20.2413 14.9342 20.4048 15.1052C20.4956 15.1997 22.3218 17.0792 24.8448 17.0792C25.3241 17.0792 25.8281 17.0117 26.3501 16.8512C29.6231 15.8462 30.2651 12.2229 30.2906 12.0692C30.3296 11.8359 30.2568 11.5989 30.0933 11.4279C29.9853 11.3162 27.4226 8.67542 24.1481 9.68192ZM24.5883 11.1159C25.9113 10.7079 27.1181 11.1669 27.9378 11.6567L22.1201 13.4432C22.5236 12.5784 23.2646 11.5224 24.5883 11.1159ZM25.9091 15.4179C24.5853 15.8237 23.3793 15.3662 22.5603 14.8772L28.3766 13.0914C27.9731 13.9554 27.2321 15.0114 25.9091 15.4179Z" fill="#75461F"/>
<path d="M34.937 15.415C34.7225 15.4937 34.556 15.6662 34.484 15.8822C34.43 16.0457 33.1857 19.9142 35.828 22.474C37.0925 23.698 38.627 24.0235 39.9027 24.0235C41.2932 24.0235 42.374 23.6357 42.4587 23.605C42.6725 23.5262 42.839 23.3537 42.9117 23.1377C42.9657 22.9742 44.21 19.1065 41.5677 16.5467C38.9247 13.9877 35.0982 15.3557 34.937 15.415ZM36.872 21.3955C35.708 20.2682 35.5835 18.712 35.6765 17.6282L40.676 22.4695C39.5937 22.597 38.0345 22.5235 36.872 21.3955ZM41.7192 21.3925L36.7197 16.5512C37.8005 16.4237 39.3597 16.4987 40.5237 17.626C41.6877 18.7525 41.8122 20.308 41.7192 21.3925Z" fill="#75461F"/>
<path d="M25.998 39C26.4123 39 26.748 38.6642 26.748 38.25C26.748 37.8358 26.4123 37.5 25.998 37.5C25.5838 37.5 25.248 37.8358 25.248 38.25C25.248 38.6642 25.5838 39 25.998 39Z" fill="#75461F"/>
</g>
<defs>
<clipPath id="clip0_2086_147">
<rect width="48" height="48" fill="white" transform="translate(0.5)"/>
</clipPath>
</defs>
</svg>
