<svg width="49" height="48" viewBox="0 0 49 48" fill="none" xmlns="http://www.w3.org/2000/svg">
<path d="M44.7081 41.1434C43.8359 40.0739 43.4279 38.6856 43.5899 37.3319C44.1344 32.6909 44.0969 28.0049 43.4864 23.3969C44.2079 22.8816 44.6976 22.0829 44.7464 21.1589C44.7719 20.6541 44.6706 20.1479 44.4524 19.6971C44.1666 19.1031 44.1666 18.3944 44.4524 17.8019C44.6706 17.3504 44.7719 16.8449 44.7464 16.3394C44.6631 14.7471 43.2914 13.4999 41.6226 13.4999H41.5131C41.8334 12.9336 42.0516 12.3276 42.1214 11.7074C42.2474 10.5749 41.9136 9.5489 41.1824 8.81765C40.5006 8.1359 39.5669 7.8224 38.5814 7.86665C38.2079 7.0649 37.6274 6.36515 36.8864 5.8769C36.1514 5.3909 35.6489 4.6484 35.4719 3.78515L35.4599 3.72515C35.8469 3.63965 36.2751 3.67265 36.7124 3.84365C37.3986 4.1114 38.0069 4.6559 38.4216 5.3774C38.5634 5.62265 38.6766 5.87765 38.7576 6.1364C38.8821 6.53165 39.3021 6.75215 39.6989 6.62615C40.0934 6.50165 40.3131 6.08015 40.1886 5.68565C40.0746 5.32265 39.9171 4.9664 39.7206 4.6274C39.1356 3.61265 38.2604 2.8379 37.2576 2.4464C36.1964 2.03315 35.1186 2.0879 34.2231 2.60465C33.6696 2.92415 33.2549 3.3944 32.9669 3.94715C32.3819 2.9354 31.5081 2.1629 30.5076 1.7714C29.4464 1.35665 28.3671 1.4129 27.4731 1.92965C26.9391 2.2379 26.5244 2.70965 26.2311 3.2804C25.8276 3.10265 25.3934 2.9999 24.9381 2.9999C23.9751 2.9999 23.0984 3.44165 22.4339 4.16015C22.2021 3.89465 21.9359 3.6644 21.6291 3.4874C20.0751 2.5889 18.0524 3.12665 16.7174 4.68965C16.0431 4.22915 15.2054 4.02815 14.2926 4.1294C13.2224 4.24865 12.1769 4.7699 11.3489 5.5979C10.7961 6.15065 10.3866 6.8039 10.1376 7.51265C8.27688 7.5794 6.73263 9.2609 6.52338 11.4899C6.48513 11.9024 6.78888 12.2684 7.20063 12.3066C7.22388 12.3089 7.24713 12.3096 7.27113 12.3096C7.65438 12.3096 7.98063 12.0179 8.01738 11.6294C8.10738 10.6611 8.54313 9.85265 9.14313 9.3974C8.97363 10.3934 9.11838 11.4141 9.57888 12.3359C9.76263 12.7026 9.86613 13.0979 9.90438 13.5006H7.37763C5.70888 13.5006 4.33713 14.7479 4.25388 16.3409C4.22838 16.8456 4.32963 17.3519 4.54788 17.8026C4.83363 18.3966 4.83363 19.1054 4.54788 19.6979C4.32963 20.1494 4.22838 20.6549 4.25388 21.1604C4.30263 22.0836 4.79163 22.8824 5.51313 23.3976C4.90338 28.0071 4.86588 32.6939 5.41038 37.3341C5.57238 38.6856 5.16438 40.0739 4.29438 41.1404C3.36213 42.2706 3.25338 43.8749 4.02963 45.0389C4.54713 45.8204 5.33613 46.3259 6.25038 46.4639C6.41088 46.4879 6.57138 46.4999 6.73113 46.4999C7.47363 46.4999 8.20113 46.2441 8.77938 45.7701C9.45963 45.2211 10.3581 45.0044 11.2386 45.1731C12.4761 45.4139 13.5891 45.6029 14.6384 45.7499C15.0494 45.8106 15.4274 45.5211 15.4851 45.1109C15.5429 44.7006 15.2564 44.3219 14.8461 44.2641C13.8231 44.1209 12.7371 43.9364 11.5236 43.7009C10.2036 43.4474 8.85813 43.7759 7.83138 44.6069C7.45188 44.9174 6.95688 45.0531 6.47238 44.9811C5.98338 44.9069 5.55888 44.6339 5.27763 44.2094C4.86363 43.5891 4.93488 42.7199 5.45163 42.0921C6.58038 40.7084 7.10763 38.9091 6.89838 37.1579C6.38313 32.7651 6.40638 28.3296 6.95313 23.9609C7.09413 23.9789 7.23288 23.9999 7.37763 23.9999H11.0001C11.4149 23.9999 11.7501 23.6639 11.7501 23.2499C11.7501 22.8359 11.4149 22.4999 11.0001 22.4999H7.37763C6.52188 22.4999 5.79363 21.8639 5.75238 21.0816C5.73813 20.8244 5.78763 20.5776 5.89788 20.3489C6.02913 20.0781 6.12138 19.7916 6.18063 19.4999H8.75013C9.16488 19.4999 9.50013 19.1639 9.50013 18.7499C9.50013 18.3359 9.16488 17.9999 8.75013 17.9999H6.18063C6.12063 17.7074 6.02838 17.4216 5.89788 17.1501C5.78763 16.9221 5.73813 16.6754 5.75238 16.4181C5.79363 15.6359 6.52188 14.9999 7.37763 14.9999H26.5491L26.5551 15.0119C26.5619 15.0089 26.5671 15.0036 26.5739 14.9999H36.2991L36.3051 15.0119C36.3119 15.0089 36.3171 15.0036 36.3239 14.9999H41.6226C42.4784 14.9999 43.2066 15.6359 43.2479 16.4181C43.2621 16.6754 43.2126 16.9221 43.1024 17.1509C42.9719 17.4224 42.8796 17.7081 42.8196 17.9999H39.5001C39.0854 17.9999 38.7501 18.3359 38.7501 18.7499C38.7501 19.1639 39.0854 19.4999 39.5001 19.4999H42.8196C42.8796 19.7924 42.9719 20.0781 43.1024 20.3496C43.2126 20.5776 43.2621 20.8244 43.2479 21.0816C43.2066 21.8639 42.4784 22.4999 41.6226 22.4999H14.0001C13.5854 22.4999 13.2501 22.8359 13.2501 23.2499C13.2501 23.6639 13.5854 23.9999 14.0001 23.9999H20.7561C17.2334 25.4706 14.7501 28.9499 14.7501 32.9999C14.7501 38.3759 19.1241 42.7499 24.5001 42.7499C29.8761 42.7499 34.2501 38.3759 34.2501 32.9999C34.2501 30.9696 33.6246 29.0181 32.4419 27.3561C32.2034 27.0186 31.7339 26.9399 31.3956 27.1799C31.0581 27.4199 30.9794 27.8886 31.2201 28.2261C32.2214 29.6324 32.7501 31.2831 32.7501 32.9999C32.7501 37.5486 29.0489 41.2499 24.5001 41.2499C19.9514 41.2499 16.2501 37.5486 16.2501 32.9999C16.2501 28.4511 19.9514 24.7499 24.5001 24.7499C26.2176 24.7499 27.8676 25.2794 29.2739 26.2806C29.6106 26.5206 30.0794 26.4419 30.3201 26.1051C30.5601 25.7676 30.4821 25.2996 30.1446 25.0589C29.5439 24.6314 28.9049 24.2789 28.2381 23.9999H41.6226C41.7674 23.9999 41.9054 23.9789 42.0449 23.9609C42.5916 28.3274 42.6156 32.7629 42.1004 37.1564C41.8911 38.9091 42.4184 40.7084 43.5494 42.0951C44.0646 42.7199 44.1351 43.5891 43.7204 44.2109C43.4406 44.6331 43.0169 44.9069 42.5271 44.9811C42.0419 45.0539 41.5469 44.9181 41.1651 44.6046C40.1414 43.7759 38.7966 43.4474 37.4751 43.7016C30.9734 44.9721 24.3516 45.2819 17.7966 44.6219C17.3796 44.5784 17.0166 44.8814 16.9746 45.2931C16.9334 45.7049 17.2341 46.0731 17.6459 46.1144C24.3494 46.7886 31.1166 46.4721 37.7609 45.1746C38.6459 45.0044 39.5429 45.2219 40.2179 45.7687C40.7984 46.2441 41.5266 46.4999 42.2691 46.4999C42.4289 46.4999 42.5901 46.4879 42.7499 46.4639C43.6641 46.3259 44.4531 45.8204 44.9691 45.0411C45.7469 43.8749 45.6389 42.2706 44.7081 41.1434ZM38.0451 13.4999C38.3204 13.1144 38.5574 12.6996 38.7111 12.2369C38.9901 11.4006 39.5774 10.7234 40.3656 10.3296L40.4196 10.3026C40.6026 10.6551 40.6814 11.0766 40.6296 11.5424C40.5531 12.2339 40.2119 12.9171 39.6629 13.4999H38.0451ZM14.2139 13.4999C13.8486 12.8129 13.6971 12.0666 13.8021 11.3796C13.8336 11.1734 13.8936 10.9866 13.9664 10.8104C14.3189 11.7539 14.9526 12.5624 15.8099 13.1286C15.9749 13.2381 16.1249 13.3649 16.2666 13.5006L14.2139 13.4999ZM16.3656 6.57965L16.4204 6.5519C16.6724 7.0379 16.7069 7.65365 16.5164 8.29265C15.9306 8.14415 15.3501 8.1389 14.8056 8.2739C15.1101 7.53965 15.6486 6.93815 16.3656 6.57965ZM16.6364 11.8761C15.9014 11.3901 15.3989 10.6476 15.2219 9.7844L15.2099 9.7244C15.5969 9.6389 16.0251 9.6719 16.4624 9.8429C17.1486 10.1106 17.7569 10.6551 18.1716 11.3766C18.5624 12.0524 18.7191 12.8106 18.6426 13.4991H18.1476C17.7756 12.8511 17.2664 12.2916 16.6364 11.8761ZM19.8261 11.3811C19.8561 11.1824 19.9064 10.9986 19.9731 10.8291C20.3271 11.7644 20.9586 12.5661 21.8099 13.1286C21.9756 13.2381 22.1256 13.3649 22.2674 13.5006H20.1599C20.2124 12.8009 20.0954 12.0764 19.8261 11.3811ZM22.6364 11.8761C21.9014 11.3901 21.3989 10.6476 21.2219 9.7844L21.2099 9.7244C21.5969 9.6389 22.0259 9.6719 22.4624 9.8429C23.1486 10.1106 23.7569 10.6551 24.1716 11.3766C24.5624 12.0524 24.7191 12.8106 24.6426 13.4991H24.1506C23.7786 12.8504 23.2671 12.2931 22.6364 11.8761ZM26.6594 10.4084C27.2474 9.8204 27.9749 9.4514 28.7076 9.36965C28.9214 9.34565 29.1216 9.3569 29.3151 9.38315C28.4909 9.96815 27.8646 10.7841 27.5391 11.7621C27.2946 12.4941 26.8041 13.0919 26.1599 13.4961C26.2071 12.8586 26.1194 12.1994 25.8981 11.5611C26.0819 11.1359 26.3256 10.7421 26.6594 10.4084ZM28.6596 7.8719C28.6686 7.74815 28.6881 7.62365 28.6881 7.4999C28.6881 6.81665 28.5569 6.1709 28.3289 5.5904C28.6124 5.91665 28.9394 6.20915 29.3099 6.45365C29.9541 6.8789 30.4049 7.50815 30.6291 8.23715C30.0516 7.9394 29.3804 7.81115 28.6596 7.8719ZM27.4964 4.21865C27.4836 4.2044 27.4701 4.19015 27.4574 4.1759C27.4611 4.16615 27.4671 4.15715 27.4709 4.1474C27.4791 4.1714 27.4874 4.1954 27.4964 4.21865ZM27.1881 7.4999C27.1881 7.76765 27.1476 8.0369 27.0884 8.30465C26.7411 8.4674 26.4119 8.6759 26.0999 8.9204C26.0504 8.3174 25.8876 7.72265 25.6086 7.1654C25.2149 6.37715 25.1519 5.4824 25.4294 4.6469L25.4496 4.58615C26.4441 4.8959 27.1881 6.08165 27.1881 7.4999ZM28.9611 12.2369C29.1254 11.7449 29.4066 11.3181 29.7621 10.9619C29.7569 11.0579 29.7501 11.1524 29.7501 11.2499C29.7501 12.0561 29.9324 12.8256 30.2609 13.4999H28.2951C28.5704 13.1144 28.8074 12.6996 28.9611 12.2369ZM31.2501 11.2499C31.2501 10.1354 31.7136 9.1724 32.3916 8.6549C32.2244 9.64865 32.3691 10.6664 32.8289 11.5851C33.1296 12.1866 33.2346 12.8481 33.1461 13.4999H32.0586C31.5561 12.9276 31.2501 12.1154 31.2501 11.2499ZM34.1714 10.9146C33.7776 10.1264 33.7139 9.2324 33.9921 8.3969L34.0124 8.33615C35.0061 8.6459 35.7501 9.83165 35.7501 11.2499C35.7501 12.1154 35.4441 12.9276 34.9416 13.4999H34.6536C34.7369 12.6171 34.5779 11.7269 34.1714 10.9146ZM39.0666 9.38315C38.2416 9.96815 37.6146 10.7849 37.2891 11.7629C37.2651 11.8356 37.2254 11.9001 37.1961 11.9706C37.2284 11.7336 37.2501 11.4944 37.2501 11.2499C37.2501 10.7774 37.1886 10.3221 37.0754 9.89465C37.7324 9.4724 38.4456 9.29915 39.0666 9.38315ZM36.0599 7.1279C36.4776 7.4039 36.8219 7.77965 37.0761 8.20865C36.8706 8.2934 36.6681 8.3954 36.4694 8.5109C35.9181 7.65215 35.1171 7.03865 34.1961 6.83015C33.9704 6.10265 33.9839 5.3804 34.2156 4.8089C34.5689 5.75315 35.2026 6.56165 36.0599 7.1279ZM29.9616 3.1694C30.6479 3.4379 31.2554 3.9824 31.6709 4.70315C32.1141 5.46965 32.2529 6.33065 32.0961 7.0799C32.0136 7.1204 31.9334 7.16615 31.8531 7.21265C31.4841 6.4004 30.8976 5.70515 30.1356 5.2019C29.4006 4.7159 28.8981 3.9734 28.7211 3.11015L28.7091 3.05015C29.0969 2.9654 29.5244 2.99915 29.9616 3.1694ZM23.8296 4.9049C23.6631 5.89865 23.8079 6.9164 24.2669 7.83515C24.5309 8.3639 24.6329 8.9399 24.5969 9.51365C24.1296 9.0494 23.5949 8.6759 23.0069 8.4464C22.9386 8.4194 22.8704 8.40065 22.8014 8.3774C22.7339 8.09165 22.6874 7.7999 22.6874 7.49915C22.6881 6.3854 23.1516 5.4224 23.8296 4.9049ZM21.1881 7.4999C21.1881 7.7354 21.2151 7.9664 21.2459 8.19665C20.7981 8.24465 20.3676 8.3774 19.9731 8.6054C19.9424 8.6234 19.9154 8.64515 19.8854 8.6639C20.0166 8.26865 20.1021 7.85615 20.1276 7.4294C20.1801 6.54965 20.5731 5.74265 21.2316 5.15915L21.2781 5.1179C21.3906 5.2409 21.4889 5.3804 21.5684 5.5379C21.3276 6.13115 21.1881 6.79565 21.1881 7.4999ZM19.7121 4.5884C19.0731 5.36465 18.6921 6.3164 18.6306 7.3394C18.5939 7.9589 18.3794 8.53715 18.0314 9.03215C17.9849 8.99765 17.9399 8.9609 17.8919 8.92865C18.2751 7.82915 18.2106 6.7229 17.7329 5.83115C18.2781 5.1254 19.0064 4.6844 19.7121 4.5884ZM14.4576 5.6204C14.6714 5.59565 14.8724 5.6069 15.0659 5.6339C14.2409 6.2189 13.6146 7.03565 13.2884 8.0129C13.1931 8.29715 13.0551 8.5649 12.8871 8.8139C12.5286 8.38415 12.0974 8.0549 11.6256 7.8299C11.8041 7.4024 12.0644 7.00415 12.4086 6.6599C12.9974 6.0704 13.7249 5.70215 14.4576 5.6204ZM10.9214 11.6646C10.5276 10.8764 10.4639 9.9824 10.7421 9.1469L10.7609 9.09065C11.4756 9.32165 12.0831 10.0161 12.3501 10.9754C12.3524 10.9829 12.3576 10.9881 12.3599 10.9949C12.3494 11.0496 12.3276 11.0984 12.3194 11.1539C12.2024 11.9211 12.2984 12.7289 12.5766 13.4999H11.4089C11.3669 12.8646 11.2094 12.2414 10.9214 11.6646Z" fill="#75461F"/>
<path d="M24.5 18.75C24.5 18.336 24.1648 18 23.75 18H12.5C12.0853 18 11.75 18.336 11.75 18.75C11.75 19.164 12.0853 19.5 12.5 19.5H23.75C24.1648 19.5 24.5 19.164 24.5 18.75Z" fill="#75461F"/>
<path d="M32.75 19.5C33.1648 19.5 33.5 19.164 33.5 18.75C33.5 18.336 33.1648 18 32.75 18H26.75C26.3353 18 26 18.336 26 18.75C26 19.164 26.3353 19.5 26.75 19.5H32.75Z" fill="#75461F"/>
<path d="M36.5 19.5C36.9142 19.5 37.25 19.1642 37.25 18.75C37.25 18.3358 36.9142 18 36.5 18C36.0858 18 35.75 18.3358 35.75 18.75C35.75 19.1642 36.0858 19.5 36.5 19.5Z" fill="#75461F"/>
<path d="M26.3945 30.3735C25.793 28.7993 24.4722 27.75 23 27.75C20.9322 27.75 19.25 29.7682 19.25 32.25C19.25 34.3418 20.4485 36.1012 22.1045 36.5857C22.2672 36.9952 22.5035 37.3673 22.8177 37.6815C23.4477 38.3115 24.2968 38.646 25.244 38.646C25.3955 38.646 25.55 38.637 25.7068 38.6198C26.777 38.5005 27.8217 37.9792 28.6505 37.1512C29.4792 36.3232 30.0005 35.277 30.1197 34.2075C30.2457 33.075 29.912 32.049 29.1807 31.3177C28.4727 30.6098 27.4888 30.2798 26.3945 30.3735ZM26.7485 31.854C26.8595 31.854 26.9652 31.8667 27.0695 31.881C26.243 32.466 25.6145 33.2835 25.2882 34.263C25.0092 35.0992 24.422 35.7765 23.6337 36.1703L23.5798 36.1973C23.3967 35.8448 23.318 35.4233 23.3697 34.9575C23.4507 34.2248 23.8205 33.4972 24.4085 32.9085C24.9965 32.3205 25.724 31.9515 26.4568 31.8698C26.5565 31.8593 26.654 31.854 26.7485 31.854ZM24.9305 30.768C24.4438 30.9847 23.987 31.2847 23.5722 31.6575C23.282 30.9337 23.2423 30.144 23.4913 29.3962L23.51 29.3407C24.1047 29.5342 24.62 30.0525 24.9305 30.768ZM20.75 32.25C20.75 31.1355 21.2135 30.1725 21.8915 29.655C21.7242 30.6488 21.869 31.6665 22.3287 32.5852C22.3955 32.718 22.439 32.8598 22.487 32.9993C22.166 33.5655 21.9477 34.1715 21.8787 34.7917C21.878 34.7985 21.878 34.8053 21.8772 34.812C21.2068 34.2893 20.75 33.3285 20.75 32.25ZM28.6295 34.0425C28.5485 34.7752 28.1787 35.5028 27.5907 36.0915C27.0027 36.6795 26.2752 37.0485 25.5425 37.1302C25.3287 37.1535 25.1285 37.1422 24.9358 37.116C25.76 36.531 26.3855 35.715 26.711 34.7378C26.99 33.9015 27.5772 33.2242 28.3655 32.8305L28.4195 32.8035C28.6025 33.1552 28.6812 33.5767 28.6295 34.0425Z" fill="#75461F"/>
</svg>
