<svg width="49" height="48" viewBox="0 0 49 48" fill="none" xmlns="http://www.w3.org/2000/svg">
<g clip-path="url(#clip0_2086_84)">
<path d="M38.0996 9.6001H10.8996C10.4577 9.6001 10.0996 9.95822 10.0996 10.4001V31.2001C10.0996 31.6419 10.4577 32.0001 10.8996 32.0001H38.0995C38.5414 32.0001 38.8995 31.6418 38.8995 31.2001V10.4001C38.8996 9.95832 38.5415 9.6001 38.0996 9.6001ZM37.2996 30.4001H11.6996V11.2001H37.2997V30.4001H37.2996Z" fill="#75461F"/>
<path d="M38.8992 30.3999H10.0992C8.77378 30.3999 7.69922 31.4745 7.69922 32.7999V43.1999C7.69922 44.0836 8.41556 44.7999 9.29925 44.7999H39.6993C40.583 44.7999 41.2993 44.0836 41.2993 43.1999V32.7999C41.2992 31.4744 40.2248 30.3999 38.8992 30.3999ZM39.6992 43.1999H9.29925V32.7999C9.29925 32.3581 9.65737 31.9999 10.0992 31.9999H38.8992C39.3411 31.9999 39.6992 32.3581 39.6992 32.7999V43.1999Z" fill="#75461F"/>
<path d="M24.5 33.6001C22.2909 33.6001 20.5 35.3909 20.5 37.6001C20.5 39.8093 22.2908 41.6002 24.5 41.6002C26.7093 41.6002 28.5001 39.8093 28.5001 37.6001C28.5001 35.391 26.7092 33.6001 24.5 33.6001ZM24.5 40.0001C23.1746 40.0001 22.1 38.9256 22.1 37.6001C22.1 36.2747 23.1745 35.2001 24.5 35.2001C25.8256 35.2001 26.9 36.2747 26.9 37.6001C26.9 38.9256 25.8255 40.0001 24.5 40.0001Z" fill="#75461F"/>
<path d="M24.4992 33.6001C24.0573 33.6001 23.6992 33.9582 23.6992 34.4001V40.8001C23.6992 41.2419 24.0573 41.6001 24.4992 41.6001C24.941 41.6001 25.2992 41.2419 25.2992 40.8001V34.4001C25.2992 33.9583 24.941 33.6001 24.4992 33.6001Z" fill="#75461F"/>
<path d="M18.8993 39.2002H8.49919C8.05734 39.2002 7.69922 39.5583 7.69922 40.0002C7.69922 40.442 8.05734 40.8001 8.49919 40.8001H18.8992C19.341 40.8001 19.6991 40.442 19.6991 40.0002C19.6991 39.5583 19.341 39.2002 18.8993 39.2002Z" fill="#75461F"/>
<path d="M40.5008 39.2002H30.1007C29.6589 39.2002 29.3008 39.5583 29.3008 40.0002C29.3008 40.442 29.6589 40.8001 30.1007 40.8001H40.5007C40.9426 40.8001 41.3007 40.442 41.3007 40.0002C41.3007 39.5583 40.9427 39.2002 40.5008 39.2002Z" fill="#75461F"/>
<path d="M14.8996 43.2002H10.8996C10.4577 43.2002 10.0996 43.5583 10.0996 44.0002V46.4002C10.0996 47.2839 10.816 48.0002 11.6996 48.0002H14.0996C14.9833 48.0002 15.6997 47.2839 15.6997 46.4002V44.0002C15.6996 43.5584 15.3415 43.2002 14.8996 43.2002ZM14.0996 46.4002H11.6996V44.8001H14.0996V46.4002Z" fill="#75461F"/>
<path d="M38.1008 43.2002H34.1007C33.6589 43.2002 33.3008 43.5583 33.3008 44.0002V46.4002C33.3008 47.2839 34.0171 48.0002 34.9008 48.0002H37.3008C38.1845 48.0002 38.9008 47.2839 38.9008 46.4002V44.0002C38.9008 43.5584 38.5426 43.2002 38.1008 43.2002ZM37.3007 46.4002H34.9007V44.8001H37.3007V46.4002Z" fill="#75461F"/>
<path d="M31.0195 6.07177C29.9796 5.91174 28.8756 5.79174 27.7555 5.71177C25.5875 5.56027 23.4115 5.56027 21.2436 5.71177C20.1156 5.79174 19.0195 5.91174 17.9716 6.07177C15.0356 6.5438 10.0996 7.7198 10.0996 10.3997C10.0996 10.8416 10.4577 11.1997 10.8996 11.1997H38.0995C38.5414 11.1997 38.8995 10.8416 38.8995 10.3997C38.8995 7.7198 33.9635 6.5438 31.0195 6.07177ZM12.2835 9.59977C13.1395 8.9438 14.9875 8.16774 18.2195 7.65577C19.2195 7.5038 20.2755 7.39177 21.3555 7.3118C23.449 7.16564 25.5501 7.16564 27.6435 7.3118C28.7235 7.39177 29.7715 7.5038 30.7715 7.65577C34.0035 8.16774 35.8595 8.9438 36.7155 9.59977H12.2835Z" fill="#75461F"/>
<path d="M30.9009 0H18.1008C17.6589 0 17.3008 0.358125 17.3008 0.799969V6.864C17.2985 7.10063 17.4009 7.32619 17.5809 7.48003C17.7573 7.63144 17.9909 7.69866 18.2209 7.66406C19.2209 7.51209 20.2769 7.40006 21.3569 7.32009C23.4504 7.17394 25.5515 7.17394 27.6449 7.32009C28.7249 7.39209 29.7809 7.51209 30.7809 7.66406H30.9009C31.3428 7.66406 31.7009 7.30594 31.7009 6.86409V0.799969C31.7008 0.358125 31.3426 0 30.9009 0ZM30.1008 5.94403C29.3568 5.84803 28.5568 5.76806 27.7568 5.712C26.6847 5.59997 25.5888 5.59997 24.5007 5.59997C23.4127 5.59997 22.3167 5.59997 21.2447 5.712C20.4447 5.76797 19.7007 5.84803 18.9007 5.94403V1.60003H30.1007V5.94403H30.1008Z" fill="#75461F"/>
<path d="M27.756 5.71177C25.5879 5.56027 23.412 5.56027 21.244 5.71177C20.8242 5.74121 20.499 6.09089 20.5 6.51174V17.5997C20.5 18.0416 20.8581 18.3997 21.3 18.3997H27.7C28.1418 18.3997 28.5 18.0416 28.5 17.5997V6.51174C28.501 6.09089 28.1758 5.74121 27.756 5.71177ZM26.8999 16.7998H22.0999V7.2638C23.6988 7.17868 25.301 7.17868 26.8999 7.2638V16.7998Z" fill="#75461F"/>
<path d="M33.3004 0H15.7004C15.2585 0 14.9004 0.358125 14.9004 0.799969C14.9004 1.24181 15.2585 1.59994 15.7004 1.59994H33.3003C33.7422 1.59994 34.1003 1.24181 34.1003 0.799969C34.1003 0.358125 33.7423 0 33.3004 0Z" fill="#75461F"/>
<path d="M24.5 23.2002C22.2909 23.2002 20.5 24.9911 20.5 27.2002V31.2002C20.5 31.642 20.8581 32.0001 21.3 32.0001H27.7C28.1418 32.0001 28.5 31.6419 28.5 31.2002V27.2001C28.5001 24.991 26.7092 23.2002 24.5 23.2002ZM26.9 30.4002H22.1V27.2002C22.1 25.8748 23.1745 24.8002 24.5 24.8002C25.8256 24.8002 26.9 25.8748 26.9 27.2002V30.4002Z" fill="#75461F"/>
<path d="M21.3008 27.2002H14.1008C13.6589 27.2002 13.3008 27.5583 13.3008 28.0002C13.3008 28.442 13.6589 28.8001 14.1008 28.8001H21.3008C21.7426 28.8001 22.1007 28.442 22.1007 28.0002C22.1007 27.5583 21.7426 27.2002 21.3008 27.2002Z" fill="#75461F"/>
<path d="M34.9004 27.2002H27.7004C27.2585 27.2002 26.9004 27.5583 26.9004 28.0002C26.9004 28.442 27.2585 28.8001 27.7004 28.8001H34.9004C35.3422 28.8001 35.7003 28.442 35.7003 28.0002C35.7003 27.5583 35.3422 27.2002 34.9004 27.2002Z" fill="#75461F"/>
<path d="M14.9007 12.7998H14.1008C13.6589 12.7998 13.3008 13.1579 13.3008 13.5998C13.3008 14.0416 13.6589 14.3997 14.1008 14.3997H14.9007C15.3426 14.3997 15.7007 14.0415 15.7007 13.5998C15.7007 13.158 15.3426 12.7998 14.9007 12.7998Z" fill="#75461F"/>
<path d="M21.3007 12.7998H18.1007C17.6589 12.7998 17.3008 13.1579 17.3008 13.5998C17.3008 14.0416 17.6589 14.3997 18.1007 14.3997H21.3007C21.7426 14.3997 22.1007 14.0415 22.1007 13.5998C22.1007 13.158 21.7426 12.7998 21.3007 12.7998Z" fill="#75461F"/>
</g>
<defs>
<clipPath id="clip0_2086_84">
<rect width="48" height="48" fill="white" transform="translate(0.5)"/>
</clipPath>
</defs>
</svg>
