<svg width="49" height="48" viewBox="0 0 49 48" fill="none" xmlns="http://www.w3.org/2000/svg">
<mask id="mask0_2086_45" style="mask-type:luminance" maskUnits="userSpaceOnUse" x="0" y="0" width="49" height="48">
<path d="M0.5 3.8147e-06H48.5V48H0.5V3.8147e-06Z" fill="white"/>
</mask>
<g mask="url(#mask0_2086_45)">
<path d="M42.321 10.3449H6.67988C6.23316 10.3449 5.87109 10.7069 5.87109 11.1538V12.8982C5.87109 13.3449 6.23316 13.707 6.67988 13.707H42.321C42.7677 13.707 43.1298 13.3449 43.1298 12.8982V11.1538C43.1298 10.7069 42.7677 10.3449 42.321 10.3449Z" stroke="#75461F" stroke-width="1.5" stroke-miterlimit="10" stroke-linecap="round" stroke-linejoin="round"/>
<path d="M44.0004 44.6958V38.8973C44.0004 37.3676 42.7487 36.116 41.2191 36.116H7.78137C6.25166 36.116 5 37.3676 5 38.8973V44.6958H44.0004Z" stroke="#75461F" stroke-width="1.5" stroke-miterlimit="10" stroke-linecap="round" stroke-linejoin="round"/>
<path d="M41.7774 10.3452V3.48412C41.7774 1.9545 40.5258 0.702842 38.9961 0.702842H10.0039C8.47422 0.702842 7.22266 1.9545 7.22266 3.48412V10.3452H41.7774Z" stroke="#75461F" stroke-width="1.5" stroke-miterlimit="10" stroke-linecap="round" stroke-linejoin="round"/>
<path d="M26.9982 5.52388C26.9982 7.061 25.7521 8.30713 24.215 8.30713C22.6778 8.30713 21.4316 7.061 21.4316 5.52388C21.4316 3.98675 22.6778 2.74063 24.215 2.74063C25.7521 2.74063 26.9982 3.98675 26.9982 5.52388Z" stroke="#75461F" stroke-width="1.5" stroke-miterlimit="10" stroke-linecap="round" stroke-linejoin="round"/>
<path d="M21.4316 5.52393H26.9982" stroke="#75461F" stroke-width="1.5" stroke-miterlimit="10" stroke-linecap="round" stroke-linejoin="round"/>
<path d="M38.5039 5.52393C38.5039 6.30328 37.8721 6.93506 37.0928 6.93506C36.3135 6.93506 35.6816 6.30328 35.6816 5.52393C35.6816 4.74459 36.3135 4.11281 37.0928 4.11281C37.8721 4.11281 38.5039 4.74459 38.5039 5.52393Z" stroke="#75461F" stroke-width="1.5" stroke-miterlimit="10" stroke-linecap="round" stroke-linejoin="round"/>
<path d="M33.1893 5.52393C33.1893 6.30328 32.5577 6.93506 31.7783 6.93506C30.999 6.93506 30.3672 6.30328 30.3672 5.52393C30.3672 4.74459 30.999 4.11281 31.7783 4.11281C32.5577 4.11281 33.1893 4.74459 33.1893 5.52393Z" stroke="#75461F" stroke-width="1.5" stroke-miterlimit="10" stroke-linecap="round" stroke-linejoin="round"/>
<path d="M21.8066 20.3287V22.1935C21.8066 22.5868 22.1255 22.9058 22.519 22.9058H26.1088C26.5021 22.9058 26.821 22.5868 26.821 22.1935V20.3287H21.8066Z" stroke="#75461F" stroke-width="1.5" stroke-miterlimit="10" stroke-linecap="round" stroke-linejoin="round"/>
<path d="M35.6159 23.2876C35.1482 23.2876 34.6898 23.0579 34.4167 22.636L32.1703 19.1685C31.9755 18.8678 31.6451 18.6882 31.2866 18.6882C30.4984 18.6882 29.8594 18.0492 29.8594 17.261C29.8594 16.4727 30.4984 15.8336 31.2866 15.8336C32.617 15.8336 33.843 16.5002 34.5662 17.6166L36.8125 21.084C37.2412 21.7456 37.0522 22.6294 36.3906 23.0579C36.1508 23.2133 35.8818 23.2876 35.6159 23.2876Z" stroke="#75461F" stroke-width="1.5" stroke-miterlimit="10" stroke-linecap="round" stroke-linejoin="round"/>
<path d="M29.8589 17.2613C29.8589 16.5353 30.4013 15.9373 31.1027 15.8471V13.7074H17.5254V18.4187C17.5254 19.4691 18.3849 20.3286 19.4353 20.3286H29.1929C30.1571 20.3286 30.9583 19.6038 31.0836 18.6726C30.3916 18.574 29.8589 17.9806 29.8589 17.2613Z" stroke="#75461F" stroke-width="1.5" stroke-miterlimit="10" stroke-linecap="round" stroke-linejoin="round"/>
<path d="M28.6765 25.5603H19.9146C19.447 25.5603 19.0645 25.9428 19.0645 26.4104V32.692C19.0645 34.5753 20.6052 36.1162 22.4886 36.1162H26.1025C27.9859 36.1162 29.5267 34.5753 29.5267 32.692V26.4104C29.5267 25.9428 29.1442 25.5603 28.6765 25.5603Z" stroke="#75461F" stroke-width="1.5" stroke-miterlimit="10" stroke-linecap="round" stroke-linejoin="round"/>
<path d="M30.5359 27.4559H29.5267V32.6922C29.5267 32.8968 29.5075 33.097 29.4727 33.292H30.5359C32.1409 33.292 33.454 31.9788 33.454 30.3739C33.454 28.769 32.1409 27.4559 30.5359 27.4559Z" stroke="#75461F" stroke-width="1.5" stroke-miterlimit="10" stroke-linecap="round" stroke-linejoin="round"/>
<path d="M28.6766 25.5602H19.9146C19.447 25.5602 19.0645 25.9427 19.0645 26.4103V28.1216H29.5267V26.4103C29.5267 25.9427 29.1442 25.5602 28.6766 25.5602Z" stroke="#75461F" stroke-width="1.5" stroke-miterlimit="10" stroke-linecap="round" stroke-linejoin="round"/>
<path d="M26.1412 47.2969H44.544C44.9907 47.2969 45.3527 46.9347 45.3527 46.4881V45.5048C45.3527 45.058 44.9907 44.696 44.544 44.696H4.45731C4.01059 44.696 3.64844 45.058 3.64844 45.5048V46.4881C3.64844 46.9347 4.01059 47.2969 4.45731 47.2969H22.86" stroke="#75461F" stroke-width="1.5" stroke-miterlimit="10" stroke-linecap="round" stroke-linejoin="round"/>
<path d="M41.1568 22.9056V13.7073H7.8457V36.1162H41.1568V26.1869" stroke="#75461F" stroke-width="1.5" stroke-miterlimit="10" stroke-linecap="round" stroke-linejoin="round"/>
</g>
</svg>
