<svg width="48" height="48" viewBox="0 0 48 48" fill="none" xmlns="http://www.w3.org/2000/svg">
<g clip-path="url(#clip0_2086_38)">
<path d="M25.333 7.66523C25.682 7.28693 26.2716 7.26313 26.6499 7.61249C27.0278 7.95893 27.0516 8.54889 26.7026 8.92719C26.7 8.93012 25.8618 9.81891 26.7714 11.0783C28.5875 13.5836 26.7081 15.5787 26.7026 15.5838C26.3562 15.9625 25.7666 15.9859 25.3886 15.6395C25.0107 15.2901 24.984 14.7001 25.333 14.3218C25.3355 14.3193 26.1763 13.4301 25.2645 12.1707C23.4506 9.66547 25.3278 7.67036 25.333 7.66523Z" fill="#75461F"/>
<path d="M30.7147 2.08263C31.0637 1.70433 31.6533 1.67797 32.0316 2.02733C32.4096 2.37633 32.4334 2.96373 32.0869 3.34496C32.0818 3.34752 30.7755 4.73106 32.1558 6.63352C34.4373 9.7844 32.092 12.2713 32.0869 12.2794C31.7379 12.6577 31.1483 12.6815 30.7704 12.3351C30.3921 11.9857 30.3683 11.3957 30.7147 11.0174C30.7202 11.0149 32.0261 9.63096 30.6462 7.72886C28.3644 4.57762 30.7096 2.09069 30.7147 2.08263Z" fill="#75461F"/>
<path d="M47.0544 39.5742H41.0815C42.4595 38.4829 43.4816 37.0572 43.9786 35.5188C44.3199 34.4626 44.3913 33.4277 44.2034 32.4818C45.6218 29.9242 46.612 27.1069 47.143 24.1531C47.1851 24.0458 47.2093 23.9297 47.2093 23.8077C47.2093 23.7975 47.2082 23.7872 47.2078 23.777C47.466 22.2224 47.5982 20.632 47.5982 19.0232C47.5982 18.501 47.1749 18.0776 46.6526 18.0776H8.22913C7.70691 18.0776 7.28358 18.501 7.28358 19.0232C7.28358 19.7871 7.31434 20.5485 7.3733 21.3054H6.78809C4.22169 21.3054 2.15517 22.4579 0.969379 24.5504C-0.452615 27.0589 -0.299539 30.4702 1.35866 33.2413C2.29469 34.805 3.67348 36.0941 5.34522 36.969C7.11585 37.8951 9.18567 38.3639 11.5034 38.3639C11.6411 38.3639 11.7795 38.362 11.9191 38.3587L15.1534 38.2807C15.6372 38.7374 16.1371 39.1691 16.6523 39.5742H10.1063C9.58411 39.5742 9.16077 39.9975 9.16077 40.5197C9.16077 43.7135 11.4078 46.3121 14.1698 46.3121H42.9935C45.7543 46.3121 47.9999 43.7135 47.9999 40.5197C47.9999 39.9975 47.5766 39.5742 47.0544 39.5742ZM42.1794 34.9372C41.7645 36.2212 40.8592 37.4165 39.6302 38.3027C38.6227 39.0293 37.4959 39.4713 36.4097 39.5742H35.4547C35.4085 39.5694 35.3631 39.5632 35.3181 39.557C35.3118 39.5562 35.3063 39.5548 35.3001 39.554C35.1071 39.5273 34.8933 39.483 34.6732 39.4141C35.8894 38.9798 37.5153 37.9171 38.3928 35.3217C38.893 33.8386 39.7349 32.8652 40.8943 32.429C41.3774 32.247 41.8256 32.1954 42.1358 32.1855C42.1387 32.1917 42.1413 32.198 42.1442 32.2042C42.1673 32.2566 42.1893 32.3097 42.2094 32.3642C42.2138 32.3752 42.2178 32.3862 42.2219 32.3972C42.2449 32.4613 42.2662 32.5265 42.2852 32.5927C42.4848 33.2882 42.4522 34.0935 42.1794 34.9372ZM34.0982 37.6113C33.6145 37.7933 33.1666 37.8453 32.8575 37.8552C32.5041 37.0759 32.4847 36.1172 32.8121 35.1031C32.8637 34.9427 32.9234 34.7834 32.9901 34.6263C33.4577 33.5258 34.2854 32.514 35.3609 31.7384C36.5196 30.9027 37.8358 30.4427 39.067 30.4427C39.2244 30.4427 39.3786 30.45 39.528 30.4651C39.8089 30.4925 40.0737 30.5471 40.322 30.6247C39.1047 31.0583 37.4772 32.12 36.6013 34.7164C36.0999 36.2003 35.2576 37.174 34.0982 37.6113ZM8.24781 26.4272C8.85938 28.7062 9.75769 30.8891 10.9028 32.8747C10.7054 32.874 10.5513 32.8733 10.4872 32.8729C6.75806 32.8183 5.38734 30.1915 5.39942 28.5483C5.40272 28.0506 5.55982 26.4272 7.42786 26.4272H8.24781ZM11.8737 36.4683C6.40064 36.598 3.95289 33.8935 2.98134 32.2697C1.66664 30.0732 1.52236 27.4094 2.6144 25.4831C3.20546 24.4402 4.40919 23.1969 6.78809 23.1969H7.58423C7.62086 23.4518 7.66114 23.7063 7.70472 23.9593C7.70582 23.9656 7.70655 23.9718 7.70801 23.978C7.74024 24.1644 7.7754 24.3505 7.81128 24.5361H7.42786C5.13758 24.5361 3.52553 26.1804 3.50868 28.5348C3.49769 30.0392 4.13673 31.5586 5.26246 32.7037C6.16517 33.6222 7.79957 34.7252 10.4637 34.764C10.5886 34.7651 11.2361 34.7669 11.7946 34.7669C11.9055 34.7669 12.0128 34.7669 12.1117 34.7666C12.5193 35.3441 12.9499 35.8996 13.4011 36.4317L11.8737 36.4683ZM9.7815 24.732L32.5363 24.7471H32.5371C33.0589 24.7471 33.4823 24.3241 33.4826 23.8022C33.4826 23.2797 33.06 22.8563 32.5378 22.8559L9.44202 22.8406C9.30835 21.8943 9.22376 20.9344 9.1908 19.9687H45.691C45.6576 20.9436 45.5709 21.9086 45.4354 22.8603L39.9883 22.8559C39.988 22.8559 39.9876 22.8559 39.9876 22.8559C39.4658 22.8559 39.0424 23.2789 39.0421 23.8008C39.0417 24.323 39.4643 24.7467 39.9865 24.7471L45.097 24.7515C44.6736 26.6993 44.0339 28.5736 43.1872 30.3329C42.4053 29.3994 41.2877 28.8395 40.0989 28.6358C39.7591 28.5776 39.4116 28.5516 39.0666 28.5516C37.7468 28.5516 36.3709 28.9391 35.109 29.6557C34.8175 29.8213 34.5322 30.0044 34.2553 30.2043C32.7015 31.3246 31.5501 32.8579 31.0129 34.5216C30.7811 35.239 30.6753 35.9461 30.6888 36.6233C30.7082 37.5824 30.9708 38.4792 31.4721 39.253C31.4743 39.2567 31.4769 39.2603 31.4791 39.264C31.4864 39.2754 31.493 39.2871 31.5003 39.2984C31.5003 39.2988 31.5007 39.2988 31.5007 39.2988V39.2992C31.5055 39.3065 31.5109 39.3134 31.5161 39.3208C31.5205 39.327 31.5249 39.3332 31.5293 39.3391C31.5809 39.4152 31.6336 39.49 31.6893 39.5621C31.6922 39.5658 31.6948 39.5701 31.6977 39.5742H20.0112C14.9751 36.669 11.1768 31.155 9.7815 24.732ZM42.9935 44.4213H14.1698C12.739 44.4213 11.4965 43.1414 11.1482 41.4653H46.0125C45.665 43.1414 44.4231 44.4213 42.9935 44.4213Z" fill="#75461F"/>
<path d="M36.262 24.7471H36.2806C36.8025 24.7471 37.2258 24.3237 37.2258 23.8015C37.2258 23.2793 36.8029 22.856 36.2806 22.856H36.262C35.7397 22.856 35.3164 23.2793 35.3164 23.8015C35.3164 24.3237 35.7397 24.7471 36.262 24.7471Z" fill="#75461F"/>
</g>
<defs>
<clipPath id="clip0_2086_38">
<rect width="48" height="48" fill="white"/>
</clipPath>
</defs>
</svg>
