<svg width="30" height="25" viewBox="0 0 30 25" fill="none" xmlns="http://www.w3.org/2000/svg">
<g clip-path="url(#clip0_2127_136)">
<path d="M1.56646 3.78205C1.87583 3.86642 2.11488 3.93673 2.35675 3.99298C2.63518 4.05485 2.88267 3.98173 3.00642 3.71174C3.13579 3.42206 2.96986 3.21956 2.73362 3.07051C2.54518 2.94957 2.3455 2.8427 2.01645 2.65146C2.48331 2.53615 2.80111 2.46584 3.11329 2.37865C3.28485 2.33084 3.45922 2.27459 3.61952 2.19585C3.89795 2.05523 4.07513 1.83867 3.94014 1.50962C3.8192 1.21431 3.56328 1.20306 3.29047 1.25088C2.48331 1.38868 1.67334 1.52368 0.863361 1.65305C0.0646362 1.77961 -0.12942 2.10304 0.0786982 2.87926C0.320565 3.7708 0.525871 4.67077 0.748051 5.56793C0.784613 5.71699 0.801487 5.87448 0.849298 6.01791C0.958982 6.3329 1.19804 6.46228 1.51584 6.38915C1.80833 6.32165 1.94614 6.08541 1.9152 5.8098C1.86458 5.35137 1.76052 4.89857 1.67896 4.44296C1.64521 4.24891 1.61146 4.05204 1.56365 3.78205H1.56646Z" fill="white"/>
<path d="M7.45288 13.4092C7.48944 13.4964 7.51475 13.7045 7.63006 13.8086C8.10536 14.2333 8.60034 14.6383 9.10657 15.0292C9.35125 15.2176 9.63531 15.2457 9.86311 14.9842C10.06 14.762 9.97561 14.4639 9.66062 14.1995C9.21063 13.8198 8.77471 13.4233 8.30222 13.0717C7.92817 12.7933 7.52319 12.9396 7.45006 13.412L7.45288 13.4092Z" fill="white"/>
<path d="M19.1918 7.94992C19.2171 7.64617 19.2987 7.33118 19.2509 7.03869C19.2228 6.85589 19.0315 6.61683 18.86 6.55777C18.59 6.46496 18.3537 6.65058 18.3031 6.94026C18.2131 7.46899 18.1344 8.00054 18.1062 8.5349C18.0922 8.83301 18.2609 9.09738 18.6012 9.10863C18.95 9.11988 19.0793 8.8752 19.1131 8.56302C19.1356 8.36053 19.1721 8.15803 19.2003 7.95554C19.1974 7.95554 19.1918 7.95554 19.189 7.95554L19.1918 7.94992Z" fill="white"/>
<path d="M18.7392 5.10125C18.6802 5.59905 18.8377 5.91966 19.1133 5.97029C19.462 6.03216 19.6139 5.80998 19.718 5.51749C19.853 5.13219 20.002 4.75251 20.1483 4.37003C20.2608 4.07191 20.2411 3.79911 19.9289 3.65286C19.6083 3.5038 19.372 3.68098 19.237 3.95379C19.0346 4.3644 18.8714 4.7947 18.7421 5.10406L18.7392 5.10125Z" fill="white"/>
<path d="M5.28982 6.6704C4.96358 6.62258 4.68234 6.85039 4.71609 7.18788C4.76671 7.71943 4.86515 8.25378 5.00858 8.76845C5.04796 8.90908 5.31232 9.08344 5.46138 9.07219C5.61606 9.06095 5.8748 8.85845 5.88887 8.72064C5.95636 8.05129 5.85231 7.396 5.49513 6.8082C5.44732 6.73227 5.33201 6.69571 5.28982 6.6704Z" fill="white"/>
<path d="M18.1794 10.3997C18.095 10.4587 17.8982 10.5375 17.7913 10.6837C17.5522 11.0156 17.3497 11.3756 17.1529 11.7328C17.0094 11.9943 16.9419 12.2755 17.2344 12.4893C17.5297 12.7058 17.7969 12.568 17.9657 12.3234C18.2272 11.9465 18.4719 11.5471 18.6519 11.1281C18.8038 10.7765 18.6097 10.4644 18.1794 10.394V10.3997Z" fill="white"/>
<path d="M6.21543 12.2813C6.55855 12.3544 6.86229 12.09 6.7526 11.7413C6.5923 11.2294 6.35887 10.7373 6.11137 10.2591C6.05512 10.1495 5.79076 10.0651 5.65295 10.0988C5.51233 10.1326 5.35202 10.3041 5.29859 10.4532C5.16078 10.8301 5.71201 12.0478 6.06919 12.2306C6.11419 12.2531 6.16481 12.2644 6.21543 12.2813Z" fill="white"/>
<path d="M4.33953 5.71695C4.67984 5.7507 4.99482 5.41883 4.81483 5.12916C4.52515 4.65948 4.15673 4.21512 3.74611 3.8467C3.47894 3.60764 3.04582 3.90576 3.05426 4.26856C3.0627 4.60042 4.02454 5.68601 4.33672 5.71695H4.33953Z" fill="white"/>
<path d="M23.1023 1.71198C23.1585 1.40542 22.9476 1.1748 22.6129 1.1748C22.1995 1.1748 21.263 1.89197 21.1392 2.30539C21.0211 2.69632 21.3136 3.07318 21.6539 2.896C22.1629 2.62601 22.596 2.21258 23.0545 1.85541C23.0882 1.8301 23.0882 1.75979 23.1023 1.71198Z" fill="white"/>
<path d="M14.652 14.2444C14.6267 14.6185 14.8489 14.8463 15.1976 14.7956C15.7995 14.7056 16.331 14.4385 16.6994 13.9463C16.7894 13.8254 16.7754 13.5188 16.6797 13.3951C16.5897 13.2741 16.2973 13.1869 16.1594 13.246C15.7123 13.4316 15.2904 13.6791 14.8742 13.9322C14.7589 14.0025 14.7026 14.1713 14.6548 14.2444H14.652Z" fill="white"/>
<path d="M28.4482 1.2959C28.2457 1.43371 27.9813 1.52089 27.8772 1.70089C27.731 1.95963 27.9082 2.19306 28.1669 2.31399C28.5382 2.48836 28.9038 2.68523 29.2947 2.7921C29.4691 2.83991 29.7644 2.75554 29.8909 2.62336C30.1047 2.39555 29.9697 2.1115 29.7391 1.96806C29.3509 1.72901 28.9291 1.54339 28.4453 1.2959H28.4482Z" fill="white"/>
<path d="M24.3184 1.07069C24.3128 1.41099 24.4619 1.63598 24.7543 1.62755C25.2353 1.61349 25.719 1.55442 26.1915 1.4588C26.318 1.43349 26.4755 1.21694 26.4924 1.0735C26.5093 0.932882 26.3996 0.727576 26.2787 0.634766C25.9299 0.370399 24.76 0.52227 24.4647 0.842885C24.3972 0.916007 24.3578 1.00882 24.3184 1.07069Z" fill="white"/>
<path d="M12.1184 15.7827C12.304 15.763 12.6387 15.7602 12.9565 15.6899C13.2321 15.628 13.4262 15.3946 13.3165 15.1189C13.249 14.953 13.0128 14.7843 12.8271 14.7505C12.5065 14.6943 12.1662 14.728 11.8372 14.7505C11.5334 14.7702 11.2775 14.8911 11.2662 15.2455C11.255 15.6139 11.5194 15.7067 11.8203 15.7433C11.8709 15.7489 11.9215 15.7574 12.1184 15.7855V15.7827Z" fill="white"/>
</g>
<defs>
<clipPath id="clip0_2127_136">
<rect width="30" height="15.2826" fill="white" transform="matrix(-1 0 0 1 30 0.5)"/>
</clipPath>
</defs>
</svg>
