<svg width="1440" height="470" viewBox="0 0 1440 470" fill="none" xmlns="http://www.w3.org/2000/svg">
<path d="M0 462.592C0 462.592 1070.59 460.317 1057.08 465.271C1043.57 470.225 996.727 468.875 987.269 458.966C977.811 449.057 976.01 435.546 975.109 418.882C974.209 402.219 972.857 345.471 971.056 349.523C969.255 353.577 1079.6 354.479 1075.54 350.425C1071.49 346.372 979.163 344.571 976.46 348.173C973.758 351.775 957.995 352.226 980.064 355.38C1002.13 358.531 1074.64 358.531 1076.89 357.181C1079.15 355.829 1079.15 353.577 1079.15 353.577C1079.15 353.577 1078.7 388.257 1076.44 385.556C1074.19 382.852 1077.8 364.837 1091.31 367.99C1104.82 371.142 1112.92 388.707 1103.92 409.874C1094.91 431.041 1072.39 441.851 1071.49 435.095C1070.59 428.34 1091.31 429.24 1095.81 410.775C1100.31 392.309 1098.96 371.142 1088.15 376.547C1077.34 381.951 1076.89 385.555 1073.29 400.417C1069.69 415.28 1071.94 456.263 1057.53 458.516C1043.12 460.765 1028.7 462.118 1038.16 451.76C1047.62 441.399 1063.38 431.943 1058.88 423.385C1054.38 414.829 1040.86 406.271 1051.22 396.812C1061.58 387.356 1073.29 381.051 1064.73 375.194C1056.18 369.339 1033.66 363.034 1035.01 366.637C1036.36 370.242 1056.63 349.522 1051.22 330.156C1045.82 310.79 1043.12 316.196 1048.97 298.18C1054.82 280.191 1056.62 300.825 1055.28 266.796C1055.28 266.749 1055.28 266.701 1055.28 266.654C1054.67 251.203 1053.97 235.318 1055.51 224.311C1056.49 217.359 1059.35 213.145 1061.33 206.404C1067.43 185.615 1075.7 178.889 1075.09 183.786C1072.54 204.241 1056.39 179.014 1075.13 180.802C1083.06 181.556 1120.82 191.374 1119.31 185.333C1117.8 179.292 1100.05 161.169 1095.9 163.057C1091.75 164.944 1076.27 180.802 1074.76 177.026C1073.25 173.251 1080.8 158.149 1084.57 157.393C1088.35 156.639 1101.94 157.77 1094.77 158.149C1087.59 158.526 1073.62 158.904 1073.62 150.219C1073.62 141.535 1091.37 108.311 1098.17 100.383C1104.96 92.4525 1117.42 79.9938 1119.31 84.5245C1121.2 89.0552 1126.48 97.7393 1118.18 99.6266C1109.87 101.516 1090.99 95.0959 1094.39 86.7912C1097.79 78.4835 1111 68.2899 1112.13 69.8001C1113.27 71.3103 1123.84 96.9832 1120.07 92.4528C1116.29 87.9224 1116.67 76.9736 1127.99 70.1772C1139.32 63.3824 1154.8 57.3417 1160.09 57.3417C1165.37 57.3417 1180.85 59.6058 1174.06 59.9852C1167.26 60.3619 1147.25 58.0955 1154.8 51.6775C1162.35 45.2598 1171.41 30.5347 1177.83 34.6884C1184.25 38.8401 1198.97 58.0955 1190.29 53.9442C1181.61 49.7905 1171.79 31.2892 1177.83 29.4022C1183.87 27.5142 1224.27 27.1355 1211.81 29.0248C1199.35 30.9124 1169.9 35.0654 1161.6 30.535C1153.29 26.0049 1148.76 18.8308 1156.69 15.4313C1164.62 12.036 1186.89 2.59547 1192.18 1.84166C1197.46 1.08523 1218.61 1.08523 1218.61 1.08523C1218.61 1.08523 1255.93 -0.347102 1284.62 8.53192C1313.31 17.4106 1309.21 19.46 1345.41 21.5094C1381.61 23.5581 1454.01 25.6072 1437.62 18.7775C1421.23 11.9479 1331.75 24.2429 1322.19 29.0231C1312.62 33.8034 1314.67 43.3665 1298.28 48.1478C1281.89 52.9303 1273.69 60.4421 1253.2 52.2455C1232.71 44.049 1224.51 29.7056 1216.32 32.4391C1208.12 35.1703 1178.07 52.2455 1187.63 59.7603C1197.19 67.274 1244.32 52.2459 1229.29 46.7828C1214.27 41.3181 1176.7 61.809 1191.04 72.7371C1205.39 83.6671 1257.98 53.6128 1240.22 54.2949C1222.46 54.9791 1181.48 74.7861 1202.66 85.7162C1223.83 96.6443 1264.81 67.2741 1249.79 65.9075C1234.76 64.5409 1200.61 79.569 1210.85 93.9124C1221.1 108.256 1255.93 88.4474 1256.62 79.569C1257.3 70.6877 1257.98 54.9794 1253.88 60.4421C1249.79 65.9075 1251.15 80.2509 1258.66 93.9124C1266.18 107.572 1269.59 147.19 1257.3 141.725C1245 136.262 1256.62 119.867 1248.42 110.988C1240.22 102.109 1215.63 97.3261 1229.29 100.06C1242.95 102.791 1268.23 104.841 1279.84 97.3261C1291.45 89.8143 1315.36 55.6615 1301.01 59.7603C1286.67 63.8581 1284.62 91.1789 1297.6 86.3987C1310.58 81.6178 1323.55 74.7862 1333.12 74.7862C1342.68 74.7862 1428.06 98.6927 1416.45 90.4965C1404.83 82.2999 1335.85 61.8087 1318.09 64.5406C1300.33 67.2741 1277.11 82.2999 1265.49 85.0318C1253.88 87.7653 1252.52 48.1478 1222.46 43.3665C1192.41 38.5859 1181.48 54.9791 1180.12 59.0775C1178.75 63.1753 1182.17 77.5197 1168.5 94.5946C1154.84 111.67 1113.86 156.068 1106.35 147.872C1098.83 139.675 1143.91 116.453 1154.16 98.0105C1164.41 79.5684 1165.77 65.2243 1150.06 69.3228C1134.35 73.4206 1107.03 87.0802 1132.3 82.2996C1157.58 77.5193 1176.7 54.9787 1185.58 69.3228C1194.46 83.6662 1240.22 143.773 1237.49 149.238C1234.76 154.703 1196.51 215.492 1170.55 212.761C1144.6 210.029 1111.13 190.903 1128.2 192.269C1145.28 193.636 1182.17 211.394 1176.02 201.148C1169.87 190.903 1115.23 152.654 1126.84 157.435C1138.45 162.215 1180.12 199.099 1185.58 197.051C1191.04 195.002 1211.54 183.391 1208.8 176.559C1206.07 169.729 1161.67 124.649 1171.24 130.112C1180.8 135.577 1208.8 182.706 1223.15 178.608C1237.49 174.51 1262.76 159.484 1255.93 156.068C1249.1 152.654 1235.44 143.091 1240.22 151.287C1245 159.484 1261.4 160.166 1254.57 169.729C1247.74 179.293 1223.83 207.98 1199.24 219.591C1174.65 231.203 1168.5 217.541 1173.28 221.64C1178.07 225.738 1214.95 298.141 1225.2 297.457C1235.44 296.775 1264.81 284.48 1274.38 277.65C1283.94 270.819 1311.26 236.668 1313.99 226.422C1316.72 216.177 1320.82 212.761 1315.36 206.613C1309.89 200.466 1251.15 159.484 1265.49 172.461C1279.84 185.44 1304.43 199.099 1303.06 214.128C1301.7 229.154 1296.92 248.278 1289.4 242.131C1281.89 235.984 1231.34 195.686 1247.74 204.565C1264.13 213.444 1290.08 242.131 1284.62 248.963C1279.16 255.793 1270.28 271.503 1264.13 265.356C1257.98 259.208 1223.83 220.276 1217 218.226C1210.17 216.177 1212.9 206.614 1200.61 212.078C1188.31 217.542 1192.41 225.738 1176.02 219.591C1159.63 213.444 1141.18 174.51 1122.06 169.047C1102.93 163.583 1081.07 169.047 1071.51 175.194C1065.81 177.302 1063.57 186.176 1059.37 198.752C1058.28 202.036 1053.63 207.443 1052.8 210.833C1050.04 222.108 1049.47 235.071 1049.66 235.984C1053.07 253.061 1045.56 275.602 1046.24 284.48C1046.92 293.359 1055.8 298.142 1051.7 309.07C1047.61 319.998 1039.41 316.584 1040.09 324.78C1040.99 335.533 1043.09 353.454 1049.66 361.665C1052.39 365.078 1064 355.518 1066.05 372.593C1068.1 389.667 1055.12 409.477 1035.99 410.844C1016.87 412.207 1003.89 389.667 1011.41 395.814C1018.92 401.962 1023.02 414.256 1006.62 410.844C990.23 407.427 977.936 380.107 977.936 395.814C977.936 411.526 971.788 428.6 985.449 443.629C999.11 458.655 1041.46 450.458 1030.53 443.629C1019.6 436.797 1038.04 462.071 1065.36 462.753C1092.69 463.435 1052.8 463.435 1052.8 463.435" stroke="#4F2E12" stroke-width="2" stroke-miterlimit="10" stroke-linecap="round" stroke-linejoin="round"/>
</svg>
